G04 EAGLE Gerber X2 export*
%TF.Part,Single*%
%TF.FileFunction,Legend,Top,1*%
%TF.FilePolarity,Positive*%
%TF.GenerationSoftware,Autodesk,EAGLE,9.1.0*%
%TF.CreationDate,2018-12-20T05:45:18Z*%
G75*
%MOMM*%
%FSLAX34Y34*%
%LPD*%
%AMOC8*
5,1,8,0,0,1.08239X$1,22.5*%
G01*
%ADD10C,0.076200*%
%ADD11C,0.050800*%
%ADD12C,0.127000*%
%ADD13R,0.500000X1.000000*%
%ADD14C,0.152400*%
%ADD15C,0.101600*%
%ADD16C,0.250000*%
%ADD17R,0.200000X0.200000*%


D10*
X280852Y399619D02*
X280852Y395381D01*
X280381Y395381D02*
X281323Y395381D01*
X281323Y399619D02*
X280381Y399619D01*
X284570Y399620D02*
X284634Y399618D01*
X284698Y399612D01*
X284761Y399603D01*
X284824Y399589D01*
X284885Y399572D01*
X284946Y399551D01*
X285005Y399527D01*
X285063Y399499D01*
X285118Y399467D01*
X285172Y399432D01*
X285224Y399394D01*
X285273Y399353D01*
X285320Y399310D01*
X285363Y399263D01*
X285404Y399214D01*
X285442Y399162D01*
X285477Y399108D01*
X285509Y399053D01*
X285537Y398995D01*
X285561Y398936D01*
X285582Y398875D01*
X285599Y398814D01*
X285613Y398751D01*
X285622Y398688D01*
X285628Y398624D01*
X285630Y398560D01*
X284570Y399619D02*
X284499Y399617D01*
X284428Y399612D01*
X284357Y399602D01*
X284287Y399589D01*
X284217Y399573D01*
X284149Y399552D01*
X284082Y399528D01*
X284016Y399501D01*
X283952Y399470D01*
X283889Y399436D01*
X283828Y399399D01*
X283769Y399359D01*
X283713Y399315D01*
X283659Y399269D01*
X283607Y399220D01*
X283558Y399168D01*
X283512Y399114D01*
X283468Y399057D01*
X283428Y398998D01*
X283391Y398938D01*
X283357Y398875D01*
X283326Y398810D01*
X283299Y398745D01*
X283275Y398677D01*
X285276Y397736D02*
X285322Y397783D01*
X285366Y397832D01*
X285406Y397884D01*
X285444Y397938D01*
X285478Y397994D01*
X285509Y398052D01*
X285537Y398112D01*
X285561Y398173D01*
X285582Y398235D01*
X285599Y398299D01*
X285612Y398364D01*
X285621Y398429D01*
X285627Y398494D01*
X285629Y398560D01*
X285276Y397735D02*
X283275Y395381D01*
X285629Y395381D01*
X288697Y395381D02*
X289639Y395381D01*
X288697Y395381D02*
X288638Y395383D01*
X288579Y395388D01*
X288520Y395398D01*
X288463Y395411D01*
X288406Y395427D01*
X288350Y395447D01*
X288296Y395471D01*
X288243Y395498D01*
X288192Y395528D01*
X288143Y395561D01*
X288097Y395597D01*
X288052Y395636D01*
X288010Y395678D01*
X287971Y395723D01*
X287935Y395769D01*
X287902Y395818D01*
X287872Y395869D01*
X287845Y395922D01*
X287821Y395976D01*
X287801Y396032D01*
X287785Y396089D01*
X287772Y396146D01*
X287762Y396205D01*
X287757Y396264D01*
X287755Y396323D01*
X287756Y396323D02*
X287756Y398677D01*
X287755Y398677D02*
X287757Y398736D01*
X287762Y398795D01*
X287772Y398854D01*
X287785Y398911D01*
X287801Y398968D01*
X287821Y399024D01*
X287845Y399078D01*
X287872Y399131D01*
X287902Y399182D01*
X287935Y399231D01*
X287971Y399277D01*
X288010Y399322D01*
X288052Y399364D01*
X288097Y399403D01*
X288143Y399439D01*
X288192Y399472D01*
X288243Y399502D01*
X288296Y399529D01*
X288350Y399553D01*
X288406Y399573D01*
X288463Y399589D01*
X288520Y399602D01*
X288579Y399612D01*
X288638Y399617D01*
X288697Y399619D01*
X289639Y399619D01*
X291739Y399619D02*
X291739Y395381D01*
X293152Y397265D02*
X291739Y399619D01*
X293152Y397265D02*
X294565Y399619D01*
X294565Y395381D01*
X296860Y396323D02*
X296860Y397265D01*
X296862Y397325D01*
X296868Y397385D01*
X296877Y397445D01*
X296891Y397504D01*
X296908Y397562D01*
X296929Y397619D01*
X296953Y397674D01*
X296981Y397727D01*
X297013Y397779D01*
X297047Y397828D01*
X297085Y397876D01*
X297125Y397920D01*
X297169Y397962D01*
X297215Y398001D01*
X297263Y398038D01*
X297314Y398071D01*
X297366Y398100D01*
X297421Y398126D01*
X297477Y398149D01*
X297534Y398168D01*
X297592Y398183D01*
X297652Y398195D01*
X297712Y398203D01*
X297772Y398207D01*
X297832Y398207D01*
X297892Y398203D01*
X297952Y398195D01*
X298012Y398183D01*
X298070Y398168D01*
X298127Y398149D01*
X298183Y398126D01*
X298238Y398100D01*
X298290Y398071D01*
X298341Y398038D01*
X298389Y398001D01*
X298435Y397962D01*
X298479Y397920D01*
X298519Y397876D01*
X298557Y397828D01*
X298591Y397779D01*
X298623Y397727D01*
X298651Y397674D01*
X298675Y397619D01*
X298696Y397562D01*
X298713Y397504D01*
X298727Y397445D01*
X298736Y397385D01*
X298742Y397325D01*
X298744Y397265D01*
X298744Y396323D01*
X298742Y396263D01*
X298736Y396203D01*
X298727Y396143D01*
X298713Y396084D01*
X298696Y396026D01*
X298675Y395969D01*
X298651Y395914D01*
X298623Y395861D01*
X298591Y395809D01*
X298557Y395760D01*
X298519Y395712D01*
X298479Y395668D01*
X298435Y395626D01*
X298389Y395587D01*
X298341Y395550D01*
X298290Y395517D01*
X298238Y395488D01*
X298183Y395462D01*
X298127Y395439D01*
X298070Y395420D01*
X298012Y395405D01*
X297952Y395393D01*
X297892Y395385D01*
X297832Y395381D01*
X297772Y395381D01*
X297712Y395385D01*
X297652Y395393D01*
X297592Y395405D01*
X297534Y395420D01*
X297477Y395439D01*
X297421Y395462D01*
X297366Y395488D01*
X297314Y395517D01*
X297263Y395550D01*
X297215Y395587D01*
X297169Y395626D01*
X297125Y395668D01*
X297085Y395712D01*
X297047Y395760D01*
X297013Y395809D01*
X296981Y395861D01*
X296953Y395914D01*
X296929Y395969D01*
X296908Y396026D01*
X296891Y396084D01*
X296877Y396143D01*
X296868Y396203D01*
X296862Y396263D01*
X296860Y396323D01*
X300343Y398206D02*
X301755Y398206D01*
X300814Y399619D02*
X300814Y396087D01*
X300816Y396037D01*
X300821Y395987D01*
X300830Y395937D01*
X300843Y395888D01*
X300859Y395840D01*
X300878Y395794D01*
X300900Y395749D01*
X300926Y395705D01*
X300955Y395664D01*
X300986Y395625D01*
X301021Y395588D01*
X301058Y395553D01*
X301097Y395522D01*
X301138Y395493D01*
X301182Y395467D01*
X301227Y395445D01*
X301273Y395426D01*
X301321Y395410D01*
X301370Y395397D01*
X301420Y395388D01*
X301470Y395383D01*
X301520Y395381D01*
X301755Y395381D01*
X303610Y396323D02*
X303610Y397265D01*
X303612Y397325D01*
X303618Y397385D01*
X303627Y397445D01*
X303641Y397504D01*
X303658Y397562D01*
X303679Y397619D01*
X303703Y397674D01*
X303731Y397727D01*
X303763Y397779D01*
X303797Y397828D01*
X303835Y397876D01*
X303875Y397920D01*
X303919Y397962D01*
X303965Y398001D01*
X304013Y398038D01*
X304064Y398071D01*
X304116Y398100D01*
X304171Y398126D01*
X304227Y398149D01*
X304284Y398168D01*
X304342Y398183D01*
X304402Y398195D01*
X304462Y398203D01*
X304522Y398207D01*
X304582Y398207D01*
X304642Y398203D01*
X304702Y398195D01*
X304762Y398183D01*
X304820Y398168D01*
X304877Y398149D01*
X304933Y398126D01*
X304988Y398100D01*
X305040Y398071D01*
X305091Y398038D01*
X305139Y398001D01*
X305185Y397962D01*
X305229Y397920D01*
X305269Y397876D01*
X305307Y397828D01*
X305341Y397779D01*
X305373Y397727D01*
X305401Y397674D01*
X305425Y397619D01*
X305446Y397562D01*
X305463Y397504D01*
X305477Y397445D01*
X305486Y397385D01*
X305492Y397325D01*
X305494Y397265D01*
X305494Y396323D01*
X305492Y396263D01*
X305486Y396203D01*
X305477Y396143D01*
X305463Y396084D01*
X305446Y396026D01*
X305425Y395969D01*
X305401Y395914D01*
X305373Y395861D01*
X305341Y395809D01*
X305307Y395760D01*
X305269Y395712D01*
X305229Y395668D01*
X305185Y395626D01*
X305139Y395587D01*
X305091Y395550D01*
X305040Y395517D01*
X304988Y395488D01*
X304933Y395462D01*
X304877Y395439D01*
X304820Y395420D01*
X304762Y395405D01*
X304702Y395393D01*
X304642Y395385D01*
X304582Y395381D01*
X304522Y395381D01*
X304462Y395385D01*
X304402Y395393D01*
X304342Y395405D01*
X304284Y395420D01*
X304227Y395439D01*
X304171Y395462D01*
X304116Y395488D01*
X304064Y395517D01*
X304013Y395550D01*
X303965Y395587D01*
X303919Y395626D01*
X303875Y395668D01*
X303835Y395712D01*
X303797Y395760D01*
X303763Y395809D01*
X303731Y395861D01*
X303703Y395914D01*
X303679Y395969D01*
X303658Y396026D01*
X303641Y396084D01*
X303627Y396143D01*
X303618Y396203D01*
X303612Y396263D01*
X303610Y396323D01*
X307698Y395381D02*
X307698Y398206D01*
X309111Y398206D01*
X309111Y397735D01*
X311647Y395381D02*
X312589Y395381D01*
X311647Y395381D02*
X311588Y395383D01*
X311529Y395388D01*
X311470Y395398D01*
X311413Y395411D01*
X311356Y395427D01*
X311300Y395447D01*
X311246Y395471D01*
X311193Y395498D01*
X311142Y395528D01*
X311093Y395561D01*
X311047Y395597D01*
X311002Y395636D01*
X310960Y395678D01*
X310921Y395723D01*
X310885Y395769D01*
X310852Y395818D01*
X310822Y395869D01*
X310795Y395922D01*
X310771Y395976D01*
X310751Y396032D01*
X310735Y396089D01*
X310722Y396146D01*
X310712Y396205D01*
X310707Y396264D01*
X310705Y396323D01*
X310706Y396323D02*
X310706Y398677D01*
X310705Y398677D02*
X310707Y398736D01*
X310712Y398795D01*
X310722Y398854D01*
X310735Y398911D01*
X310751Y398968D01*
X310771Y399024D01*
X310795Y399078D01*
X310822Y399131D01*
X310852Y399182D01*
X310885Y399231D01*
X310921Y399277D01*
X310960Y399322D01*
X311002Y399364D01*
X311047Y399403D01*
X311093Y399439D01*
X311142Y399472D01*
X311193Y399502D01*
X311246Y399529D01*
X311300Y399553D01*
X311356Y399573D01*
X311413Y399589D01*
X311470Y399602D01*
X311529Y399612D01*
X311588Y399617D01*
X311647Y399619D01*
X312589Y399619D01*
X313993Y398206D02*
X315405Y398206D01*
X314463Y399619D02*
X314463Y396087D01*
X314464Y396087D02*
X314466Y396037D01*
X314471Y395987D01*
X314480Y395937D01*
X314493Y395888D01*
X314509Y395840D01*
X314528Y395794D01*
X314550Y395749D01*
X314576Y395705D01*
X314605Y395664D01*
X314636Y395625D01*
X314671Y395588D01*
X314708Y395553D01*
X314747Y395522D01*
X314788Y395493D01*
X314832Y395467D01*
X314877Y395445D01*
X314923Y395426D01*
X314971Y395410D01*
X315020Y395397D01*
X315070Y395388D01*
X315120Y395383D01*
X315170Y395381D01*
X315405Y395381D01*
X317448Y395381D02*
X317448Y398206D01*
X318861Y398206D01*
X318861Y397735D01*
X320428Y396087D02*
X320428Y399619D01*
X320428Y396087D02*
X320430Y396037D01*
X320435Y395987D01*
X320444Y395937D01*
X320457Y395888D01*
X320473Y395840D01*
X320492Y395794D01*
X320514Y395749D01*
X320540Y395705D01*
X320569Y395664D01*
X320600Y395625D01*
X320635Y395588D01*
X320672Y395553D01*
X320711Y395522D01*
X320752Y395493D01*
X320796Y395467D01*
X320841Y395445D01*
X320887Y395426D01*
X320935Y395410D01*
X320984Y395397D01*
X321034Y395388D01*
X321084Y395383D01*
X321134Y395381D01*
X280381Y389619D02*
X280381Y385381D01*
X282735Y385381D02*
X280381Y389619D01*
X282735Y389619D02*
X282735Y385381D01*
X284966Y386323D02*
X284966Y387265D01*
X284968Y387325D01*
X284974Y387385D01*
X284983Y387445D01*
X284997Y387504D01*
X285014Y387562D01*
X285035Y387619D01*
X285059Y387674D01*
X285087Y387727D01*
X285119Y387779D01*
X285153Y387828D01*
X285191Y387876D01*
X285231Y387920D01*
X285275Y387962D01*
X285321Y388001D01*
X285369Y388038D01*
X285420Y388071D01*
X285472Y388100D01*
X285527Y388126D01*
X285583Y388149D01*
X285640Y388168D01*
X285698Y388183D01*
X285758Y388195D01*
X285818Y388203D01*
X285878Y388207D01*
X285938Y388207D01*
X285998Y388203D01*
X286058Y388195D01*
X286118Y388183D01*
X286176Y388168D01*
X286233Y388149D01*
X286289Y388126D01*
X286344Y388100D01*
X286396Y388071D01*
X286447Y388038D01*
X286495Y388001D01*
X286541Y387962D01*
X286585Y387920D01*
X286625Y387876D01*
X286663Y387828D01*
X286697Y387779D01*
X286729Y387727D01*
X286757Y387674D01*
X286781Y387619D01*
X286802Y387562D01*
X286819Y387504D01*
X286833Y387445D01*
X286842Y387385D01*
X286848Y387325D01*
X286850Y387265D01*
X286850Y386323D01*
X286848Y386263D01*
X286842Y386203D01*
X286833Y386143D01*
X286819Y386084D01*
X286802Y386026D01*
X286781Y385969D01*
X286757Y385914D01*
X286729Y385861D01*
X286697Y385809D01*
X286663Y385760D01*
X286625Y385712D01*
X286585Y385668D01*
X286541Y385626D01*
X286495Y385587D01*
X286447Y385550D01*
X286396Y385517D01*
X286344Y385488D01*
X286289Y385462D01*
X286233Y385439D01*
X286176Y385420D01*
X286118Y385405D01*
X286058Y385393D01*
X285998Y385385D01*
X285938Y385381D01*
X285878Y385381D01*
X285818Y385385D01*
X285758Y385393D01*
X285698Y385405D01*
X285640Y385420D01*
X285583Y385439D01*
X285527Y385462D01*
X285472Y385488D01*
X285420Y385517D01*
X285369Y385550D01*
X285321Y385587D01*
X285275Y385626D01*
X285231Y385668D01*
X285191Y385712D01*
X285153Y385760D01*
X285119Y385809D01*
X285087Y385861D01*
X285059Y385914D01*
X285035Y385969D01*
X285014Y386026D01*
X284997Y386084D01*
X284983Y386143D01*
X284974Y386203D01*
X284968Y386263D01*
X284966Y386323D01*
X288716Y388206D02*
X289658Y385381D01*
X290600Y388206D01*
X296226Y389620D02*
X296290Y389618D01*
X296354Y389612D01*
X296417Y389603D01*
X296480Y389589D01*
X296541Y389572D01*
X296602Y389551D01*
X296661Y389527D01*
X296719Y389499D01*
X296774Y389467D01*
X296828Y389432D01*
X296880Y389394D01*
X296929Y389353D01*
X296976Y389310D01*
X297019Y389263D01*
X297060Y389214D01*
X297098Y389162D01*
X297133Y389108D01*
X297165Y389053D01*
X297193Y388995D01*
X297217Y388936D01*
X297238Y388875D01*
X297255Y388814D01*
X297269Y388751D01*
X297278Y388688D01*
X297284Y388624D01*
X297286Y388560D01*
X296226Y389619D02*
X296155Y389617D01*
X296084Y389612D01*
X296013Y389602D01*
X295943Y389589D01*
X295873Y389573D01*
X295805Y389552D01*
X295738Y389528D01*
X295672Y389501D01*
X295608Y389470D01*
X295545Y389436D01*
X295484Y389399D01*
X295425Y389359D01*
X295369Y389315D01*
X295315Y389269D01*
X295263Y389220D01*
X295214Y389168D01*
X295168Y389114D01*
X295124Y389057D01*
X295084Y388998D01*
X295047Y388938D01*
X295013Y388875D01*
X294982Y388810D01*
X294955Y388745D01*
X294931Y388677D01*
X296932Y387736D02*
X296978Y387783D01*
X297022Y387832D01*
X297062Y387884D01*
X297100Y387938D01*
X297134Y387994D01*
X297165Y388052D01*
X297193Y388112D01*
X297217Y388173D01*
X297238Y388235D01*
X297255Y388299D01*
X297268Y388364D01*
X297277Y388429D01*
X297283Y388494D01*
X297285Y388560D01*
X296932Y387735D02*
X294931Y385381D01*
X297285Y385381D01*
X299431Y389148D02*
X299431Y389619D01*
X301785Y389619D01*
X300608Y385381D01*
X306395Y387029D02*
X309221Y387029D01*
X313616Y388206D02*
X314558Y385381D01*
X315500Y388206D01*
X317431Y388677D02*
X318608Y389619D01*
X318608Y385381D01*
X317431Y385381D02*
X319785Y385381D01*
D11*
X108703Y288746D02*
X108703Y284254D01*
X108204Y284254D02*
X109202Y284254D01*
X109202Y288746D02*
X108204Y288746D01*
X112039Y284254D02*
X113037Y284254D01*
X112039Y284254D02*
X111979Y284256D01*
X111919Y284261D01*
X111859Y284270D01*
X111800Y284283D01*
X111742Y284299D01*
X111685Y284319D01*
X111629Y284342D01*
X111575Y284368D01*
X111523Y284398D01*
X111472Y284431D01*
X111424Y284466D01*
X111377Y284505D01*
X111333Y284546D01*
X111292Y284590D01*
X111253Y284637D01*
X111218Y284685D01*
X111185Y284736D01*
X111155Y284788D01*
X111129Y284842D01*
X111106Y284898D01*
X111086Y284955D01*
X111070Y285013D01*
X111057Y285072D01*
X111048Y285132D01*
X111043Y285192D01*
X111041Y285252D01*
X111040Y285252D02*
X111040Y287748D01*
X111041Y287748D02*
X111043Y287811D01*
X111049Y287873D01*
X111059Y287935D01*
X111072Y287996D01*
X111090Y288056D01*
X111111Y288115D01*
X111136Y288173D01*
X111164Y288229D01*
X111196Y288283D01*
X111232Y288335D01*
X111270Y288384D01*
X111311Y288431D01*
X111356Y288475D01*
X111403Y288517D01*
X111452Y288555D01*
X111504Y288591D01*
X111558Y288623D01*
X111614Y288651D01*
X111672Y288676D01*
X111731Y288697D01*
X111791Y288715D01*
X111852Y288728D01*
X111914Y288738D01*
X111976Y288744D01*
X112039Y288746D01*
X113037Y288746D01*
X114805Y287748D02*
X116053Y288746D01*
X116053Y284254D01*
X114805Y284254D02*
X117301Y284254D01*
D12*
X286700Y344000D02*
X286700Y204000D01*
X286700Y344000D02*
X241700Y344000D01*
X241700Y204000D02*
X286700Y204000D01*
X241700Y204000D02*
X241700Y344000D01*
D13*
X284200Y274000D03*
D11*
X246446Y204254D02*
X241954Y204254D01*
X244450Y205751D01*
X241954Y207249D01*
X246446Y207249D01*
X245198Y209454D02*
X243202Y209454D01*
X243202Y209453D02*
X243133Y209455D01*
X243065Y209461D01*
X242997Y209470D01*
X242929Y209483D01*
X242862Y209500D01*
X242797Y209521D01*
X242732Y209545D01*
X242669Y209572D01*
X242608Y209603D01*
X242548Y209638D01*
X242491Y209675D01*
X242435Y209716D01*
X242382Y209760D01*
X242332Y209806D01*
X242284Y209856D01*
X242239Y209908D01*
X242196Y209962D01*
X242157Y210018D01*
X242121Y210077D01*
X242088Y210137D01*
X242059Y210200D01*
X242033Y210263D01*
X242011Y210328D01*
X241992Y210395D01*
X241977Y210462D01*
X241966Y210530D01*
X241958Y210598D01*
X241954Y210667D01*
X241954Y210735D01*
X241958Y210804D01*
X241966Y210872D01*
X241977Y210940D01*
X241992Y211007D01*
X242011Y211074D01*
X242033Y211139D01*
X242059Y211202D01*
X242088Y211265D01*
X242121Y211325D01*
X242157Y211384D01*
X242196Y211440D01*
X242239Y211494D01*
X242284Y211546D01*
X242332Y211596D01*
X242382Y211642D01*
X242435Y211686D01*
X242491Y211727D01*
X242548Y211764D01*
X242608Y211799D01*
X242669Y211830D01*
X242732Y211857D01*
X242797Y211881D01*
X242862Y211902D01*
X242929Y211919D01*
X242997Y211932D01*
X243065Y211941D01*
X243133Y211947D01*
X243202Y211949D01*
X245198Y211949D01*
X245267Y211947D01*
X245335Y211941D01*
X245403Y211932D01*
X245471Y211919D01*
X245538Y211902D01*
X245603Y211881D01*
X245668Y211857D01*
X245731Y211830D01*
X245792Y211799D01*
X245852Y211764D01*
X245909Y211727D01*
X245965Y211686D01*
X246018Y211642D01*
X246068Y211596D01*
X246116Y211546D01*
X246161Y211494D01*
X246204Y211440D01*
X246243Y211384D01*
X246279Y211325D01*
X246312Y211265D01*
X246341Y211202D01*
X246367Y211139D01*
X246389Y211074D01*
X246408Y211007D01*
X246423Y210940D01*
X246434Y210872D01*
X246442Y210804D01*
X246446Y210735D01*
X246446Y210667D01*
X246442Y210598D01*
X246434Y210530D01*
X246423Y210462D01*
X246408Y210395D01*
X246389Y210328D01*
X246367Y210263D01*
X246341Y210200D01*
X246312Y210137D01*
X246279Y210077D01*
X246243Y210018D01*
X246204Y209962D01*
X246161Y209908D01*
X246116Y209856D01*
X246068Y209806D01*
X246018Y209760D01*
X245965Y209716D01*
X245909Y209675D01*
X245852Y209638D01*
X245792Y209603D01*
X245731Y209572D01*
X245668Y209545D01*
X245603Y209521D01*
X245538Y209500D01*
X245471Y209483D01*
X245403Y209470D01*
X245335Y209461D01*
X245267Y209455D01*
X245198Y209453D01*
X246446Y214901D02*
X241954Y214901D01*
X241954Y213654D02*
X241954Y216149D01*
X243202Y217853D02*
X245198Y217853D01*
X243202Y217853D02*
X243133Y217855D01*
X243065Y217861D01*
X242997Y217870D01*
X242929Y217883D01*
X242862Y217900D01*
X242797Y217921D01*
X242732Y217945D01*
X242669Y217972D01*
X242608Y218003D01*
X242548Y218038D01*
X242491Y218075D01*
X242435Y218116D01*
X242382Y218160D01*
X242332Y218206D01*
X242284Y218256D01*
X242239Y218308D01*
X242196Y218362D01*
X242157Y218418D01*
X242121Y218477D01*
X242088Y218537D01*
X242059Y218600D01*
X242033Y218663D01*
X242011Y218728D01*
X241992Y218795D01*
X241977Y218862D01*
X241966Y218930D01*
X241958Y218998D01*
X241954Y219067D01*
X241954Y219135D01*
X241958Y219204D01*
X241966Y219272D01*
X241977Y219340D01*
X241992Y219407D01*
X242011Y219474D01*
X242033Y219539D01*
X242059Y219602D01*
X242088Y219665D01*
X242121Y219725D01*
X242157Y219784D01*
X242196Y219840D01*
X242239Y219894D01*
X242284Y219946D01*
X242332Y219996D01*
X242382Y220042D01*
X242435Y220086D01*
X242491Y220127D01*
X242548Y220164D01*
X242608Y220199D01*
X242669Y220230D01*
X242732Y220257D01*
X242797Y220281D01*
X242862Y220302D01*
X242929Y220319D01*
X242997Y220332D01*
X243065Y220341D01*
X243133Y220347D01*
X243202Y220349D01*
X245198Y220349D01*
X245267Y220347D01*
X245335Y220341D01*
X245403Y220332D01*
X245471Y220319D01*
X245538Y220302D01*
X245603Y220281D01*
X245668Y220257D01*
X245731Y220230D01*
X245792Y220199D01*
X245852Y220164D01*
X245909Y220127D01*
X245965Y220086D01*
X246018Y220042D01*
X246068Y219996D01*
X246116Y219946D01*
X246161Y219894D01*
X246204Y219840D01*
X246243Y219784D01*
X246279Y219725D01*
X246312Y219665D01*
X246341Y219602D01*
X246367Y219539D01*
X246389Y219474D01*
X246408Y219407D01*
X246423Y219340D01*
X246434Y219272D01*
X246442Y219204D01*
X246446Y219135D01*
X246446Y219067D01*
X246442Y218998D01*
X246434Y218930D01*
X246423Y218862D01*
X246408Y218795D01*
X246389Y218728D01*
X246367Y218663D01*
X246341Y218600D01*
X246312Y218537D01*
X246279Y218477D01*
X246243Y218418D01*
X246204Y218362D01*
X246161Y218308D01*
X246116Y218256D01*
X246068Y218206D01*
X246018Y218160D01*
X245965Y218116D01*
X245909Y218075D01*
X245852Y218038D01*
X245792Y218003D01*
X245731Y217972D01*
X245668Y217945D01*
X245603Y217921D01*
X245538Y217900D01*
X245471Y217883D01*
X245403Y217870D01*
X245335Y217861D01*
X245267Y217855D01*
X245198Y217853D01*
X246446Y222536D02*
X241954Y222536D01*
X241954Y223784D01*
X241956Y223853D01*
X241962Y223921D01*
X241971Y223989D01*
X241984Y224057D01*
X242001Y224124D01*
X242022Y224189D01*
X242046Y224254D01*
X242073Y224317D01*
X242104Y224378D01*
X242139Y224438D01*
X242176Y224495D01*
X242217Y224551D01*
X242261Y224604D01*
X242307Y224654D01*
X242357Y224702D01*
X242409Y224747D01*
X242463Y224790D01*
X242519Y224829D01*
X242578Y224865D01*
X242638Y224898D01*
X242701Y224927D01*
X242764Y224953D01*
X242829Y224975D01*
X242896Y224994D01*
X242963Y225009D01*
X243031Y225020D01*
X243099Y225028D01*
X243168Y225032D01*
X243236Y225032D01*
X243305Y225028D01*
X243373Y225020D01*
X243441Y225009D01*
X243508Y224994D01*
X243575Y224975D01*
X243640Y224953D01*
X243703Y224927D01*
X243766Y224898D01*
X243826Y224865D01*
X243885Y224829D01*
X243941Y224790D01*
X243995Y224747D01*
X244047Y224702D01*
X244097Y224654D01*
X244143Y224604D01*
X244187Y224551D01*
X244228Y224495D01*
X244265Y224438D01*
X244300Y224378D01*
X244331Y224317D01*
X244358Y224254D01*
X244382Y224189D01*
X244403Y224124D01*
X244420Y224057D01*
X244433Y223989D01*
X244442Y223921D01*
X244448Y223853D01*
X244450Y223784D01*
X244450Y222536D01*
X244450Y224034D02*
X246446Y225032D01*
X242952Y227003D02*
X241954Y228251D01*
X246446Y228251D01*
X246446Y227003D02*
X246446Y229499D01*
D12*
X46500Y201000D02*
X46500Y341000D01*
X46500Y201000D02*
X91500Y201000D01*
X91500Y341000D02*
X46500Y341000D01*
X91500Y341000D02*
X91500Y201000D01*
D13*
X49000Y271000D03*
D11*
X51246Y310501D02*
X46754Y310501D01*
X49250Y311998D01*
X46754Y313496D01*
X51246Y313496D01*
X49998Y315701D02*
X48002Y315701D01*
X48002Y315700D02*
X47933Y315702D01*
X47865Y315708D01*
X47797Y315717D01*
X47729Y315730D01*
X47662Y315747D01*
X47597Y315768D01*
X47532Y315792D01*
X47469Y315819D01*
X47408Y315850D01*
X47348Y315885D01*
X47291Y315922D01*
X47235Y315963D01*
X47182Y316007D01*
X47132Y316053D01*
X47084Y316103D01*
X47039Y316155D01*
X46996Y316209D01*
X46957Y316265D01*
X46921Y316324D01*
X46888Y316384D01*
X46859Y316447D01*
X46833Y316510D01*
X46811Y316575D01*
X46792Y316642D01*
X46777Y316709D01*
X46766Y316777D01*
X46758Y316845D01*
X46754Y316914D01*
X46754Y316982D01*
X46758Y317051D01*
X46766Y317119D01*
X46777Y317187D01*
X46792Y317254D01*
X46811Y317321D01*
X46833Y317386D01*
X46859Y317449D01*
X46888Y317512D01*
X46921Y317572D01*
X46957Y317631D01*
X46996Y317687D01*
X47039Y317741D01*
X47084Y317793D01*
X47132Y317843D01*
X47182Y317889D01*
X47235Y317933D01*
X47291Y317974D01*
X47348Y318011D01*
X47408Y318046D01*
X47469Y318077D01*
X47532Y318104D01*
X47597Y318128D01*
X47662Y318149D01*
X47729Y318166D01*
X47797Y318179D01*
X47865Y318188D01*
X47933Y318194D01*
X48002Y318196D01*
X49998Y318196D01*
X50067Y318194D01*
X50135Y318188D01*
X50203Y318179D01*
X50271Y318166D01*
X50338Y318149D01*
X50403Y318128D01*
X50468Y318104D01*
X50531Y318077D01*
X50592Y318046D01*
X50652Y318011D01*
X50709Y317974D01*
X50765Y317933D01*
X50818Y317889D01*
X50868Y317843D01*
X50916Y317793D01*
X50961Y317741D01*
X51004Y317687D01*
X51043Y317631D01*
X51079Y317572D01*
X51112Y317512D01*
X51141Y317449D01*
X51167Y317386D01*
X51189Y317321D01*
X51208Y317254D01*
X51223Y317187D01*
X51234Y317119D01*
X51242Y317051D01*
X51246Y316982D01*
X51246Y316914D01*
X51242Y316845D01*
X51234Y316777D01*
X51223Y316709D01*
X51208Y316642D01*
X51189Y316575D01*
X51167Y316510D01*
X51141Y316447D01*
X51112Y316384D01*
X51079Y316324D01*
X51043Y316265D01*
X51004Y316209D01*
X50961Y316155D01*
X50916Y316103D01*
X50868Y316053D01*
X50818Y316007D01*
X50765Y315963D01*
X50709Y315922D01*
X50652Y315885D01*
X50592Y315850D01*
X50531Y315819D01*
X50468Y315792D01*
X50403Y315768D01*
X50338Y315747D01*
X50271Y315730D01*
X50203Y315717D01*
X50135Y315708D01*
X50067Y315702D01*
X49998Y315700D01*
X51246Y321148D02*
X46754Y321148D01*
X46754Y319901D02*
X46754Y322396D01*
X48002Y324101D02*
X49998Y324101D01*
X48002Y324100D02*
X47933Y324102D01*
X47865Y324108D01*
X47797Y324117D01*
X47729Y324130D01*
X47662Y324147D01*
X47597Y324168D01*
X47532Y324192D01*
X47469Y324219D01*
X47408Y324250D01*
X47348Y324285D01*
X47291Y324322D01*
X47235Y324363D01*
X47182Y324407D01*
X47132Y324453D01*
X47084Y324503D01*
X47039Y324555D01*
X46996Y324609D01*
X46957Y324665D01*
X46921Y324724D01*
X46888Y324784D01*
X46859Y324847D01*
X46833Y324910D01*
X46811Y324975D01*
X46792Y325042D01*
X46777Y325109D01*
X46766Y325177D01*
X46758Y325245D01*
X46754Y325314D01*
X46754Y325382D01*
X46758Y325451D01*
X46766Y325519D01*
X46777Y325587D01*
X46792Y325654D01*
X46811Y325721D01*
X46833Y325786D01*
X46859Y325849D01*
X46888Y325912D01*
X46921Y325972D01*
X46957Y326031D01*
X46996Y326087D01*
X47039Y326141D01*
X47084Y326193D01*
X47132Y326243D01*
X47182Y326289D01*
X47235Y326333D01*
X47291Y326374D01*
X47348Y326411D01*
X47408Y326446D01*
X47469Y326477D01*
X47532Y326504D01*
X47597Y326528D01*
X47662Y326549D01*
X47729Y326566D01*
X47797Y326579D01*
X47865Y326588D01*
X47933Y326594D01*
X48002Y326596D01*
X49998Y326596D01*
X50067Y326594D01*
X50135Y326588D01*
X50203Y326579D01*
X50271Y326566D01*
X50338Y326549D01*
X50403Y326528D01*
X50468Y326504D01*
X50531Y326477D01*
X50592Y326446D01*
X50652Y326411D01*
X50709Y326374D01*
X50765Y326333D01*
X50818Y326289D01*
X50868Y326243D01*
X50916Y326193D01*
X50961Y326141D01*
X51004Y326087D01*
X51043Y326031D01*
X51079Y325972D01*
X51112Y325912D01*
X51141Y325849D01*
X51167Y325786D01*
X51189Y325721D01*
X51208Y325654D01*
X51223Y325587D01*
X51234Y325519D01*
X51242Y325451D01*
X51246Y325382D01*
X51246Y325314D01*
X51242Y325245D01*
X51234Y325177D01*
X51223Y325109D01*
X51208Y325042D01*
X51189Y324975D01*
X51167Y324910D01*
X51141Y324847D01*
X51112Y324784D01*
X51079Y324724D01*
X51043Y324665D01*
X51004Y324609D01*
X50961Y324555D01*
X50916Y324503D01*
X50868Y324453D01*
X50818Y324407D01*
X50765Y324363D01*
X50709Y324322D01*
X50652Y324285D01*
X50592Y324250D01*
X50531Y324219D01*
X50468Y324192D01*
X50403Y324168D01*
X50338Y324147D01*
X50271Y324130D01*
X50203Y324117D01*
X50135Y324108D01*
X50067Y324102D01*
X49998Y324100D01*
X51246Y328783D02*
X46754Y328783D01*
X46754Y330031D01*
X46756Y330100D01*
X46762Y330168D01*
X46771Y330236D01*
X46784Y330304D01*
X46801Y330371D01*
X46822Y330436D01*
X46846Y330501D01*
X46873Y330564D01*
X46904Y330625D01*
X46939Y330685D01*
X46976Y330742D01*
X47017Y330798D01*
X47061Y330851D01*
X47107Y330901D01*
X47157Y330949D01*
X47209Y330994D01*
X47263Y331037D01*
X47319Y331076D01*
X47378Y331112D01*
X47438Y331145D01*
X47501Y331174D01*
X47564Y331200D01*
X47629Y331222D01*
X47696Y331241D01*
X47763Y331256D01*
X47831Y331267D01*
X47899Y331275D01*
X47968Y331279D01*
X48036Y331279D01*
X48105Y331275D01*
X48173Y331267D01*
X48241Y331256D01*
X48308Y331241D01*
X48375Y331222D01*
X48440Y331200D01*
X48503Y331174D01*
X48566Y331145D01*
X48626Y331112D01*
X48685Y331076D01*
X48741Y331037D01*
X48795Y330994D01*
X48847Y330949D01*
X48897Y330901D01*
X48943Y330851D01*
X48987Y330798D01*
X49028Y330742D01*
X49065Y330685D01*
X49100Y330625D01*
X49131Y330564D01*
X49158Y330501D01*
X49182Y330436D01*
X49203Y330371D01*
X49220Y330304D01*
X49233Y330236D01*
X49242Y330168D01*
X49248Y330100D01*
X49250Y330031D01*
X49250Y328783D01*
X49250Y330281D02*
X51246Y331279D01*
X47877Y335746D02*
X47812Y335744D01*
X47747Y335738D01*
X47682Y335729D01*
X47618Y335716D01*
X47555Y335699D01*
X47493Y335678D01*
X47432Y335654D01*
X47373Y335627D01*
X47316Y335596D01*
X47260Y335561D01*
X47206Y335524D01*
X47155Y335483D01*
X47106Y335440D01*
X47060Y335394D01*
X47017Y335345D01*
X46976Y335294D01*
X46939Y335240D01*
X46904Y335185D01*
X46873Y335127D01*
X46846Y335068D01*
X46822Y335007D01*
X46801Y334945D01*
X46784Y334882D01*
X46771Y334818D01*
X46762Y334753D01*
X46756Y334688D01*
X46754Y334623D01*
X46756Y334550D01*
X46761Y334478D01*
X46770Y334406D01*
X46783Y334335D01*
X46799Y334264D01*
X46819Y334194D01*
X46843Y334125D01*
X46869Y334058D01*
X46899Y333992D01*
X46933Y333927D01*
X46969Y333865D01*
X47009Y333804D01*
X47052Y333745D01*
X47097Y333689D01*
X47146Y333635D01*
X47197Y333583D01*
X47250Y333534D01*
X47306Y333488D01*
X47364Y333444D01*
X47425Y333404D01*
X47487Y333367D01*
X47551Y333333D01*
X47617Y333302D01*
X47684Y333274D01*
X47752Y333250D01*
X48750Y335372D02*
X48704Y335418D01*
X48656Y335461D01*
X48605Y335502D01*
X48552Y335540D01*
X48497Y335575D01*
X48440Y335606D01*
X48382Y335635D01*
X48322Y335661D01*
X48261Y335683D01*
X48199Y335702D01*
X48135Y335718D01*
X48071Y335730D01*
X48007Y335739D01*
X47942Y335744D01*
X47877Y335746D01*
X48750Y335372D02*
X51246Y333250D01*
X51246Y335746D01*
D12*
X142600Y141700D02*
X301100Y141700D01*
X316600Y157700D02*
X316600Y190700D01*
X279600Y147200D02*
X284600Y142200D01*
X279600Y147200D02*
X274600Y142200D01*
X259600Y142200D02*
X254600Y147200D01*
X249600Y142200D01*
X234600Y142200D02*
X229600Y147200D01*
X224600Y142200D01*
X209600Y142200D02*
X204600Y147200D01*
X184600Y142200D02*
X179600Y147200D01*
X199600Y142200D02*
X204600Y147200D01*
X179600Y147200D02*
X174600Y142200D01*
X301100Y141700D02*
X316600Y157200D01*
X316600Y190700D02*
X142600Y190700D01*
X142600Y141700D01*
D11*
X151176Y184554D02*
X151176Y189046D01*
X152424Y189046D01*
X152493Y189044D01*
X152561Y189038D01*
X152629Y189029D01*
X152697Y189016D01*
X152764Y188999D01*
X152829Y188978D01*
X152894Y188954D01*
X152957Y188927D01*
X153018Y188896D01*
X153078Y188861D01*
X153135Y188824D01*
X153191Y188783D01*
X153244Y188739D01*
X153294Y188693D01*
X153342Y188643D01*
X153387Y188591D01*
X153430Y188537D01*
X153469Y188481D01*
X153505Y188422D01*
X153538Y188362D01*
X153567Y188299D01*
X153593Y188236D01*
X153615Y188171D01*
X153634Y188104D01*
X153649Y188037D01*
X153660Y187969D01*
X153668Y187901D01*
X153672Y187832D01*
X153672Y187764D01*
X153668Y187695D01*
X153660Y187627D01*
X153649Y187559D01*
X153634Y187492D01*
X153615Y187425D01*
X153593Y187360D01*
X153567Y187297D01*
X153538Y187234D01*
X153505Y187174D01*
X153469Y187115D01*
X153430Y187059D01*
X153387Y187005D01*
X153342Y186953D01*
X153294Y186903D01*
X153244Y186857D01*
X153191Y186813D01*
X153135Y186772D01*
X153078Y186735D01*
X153018Y186700D01*
X152957Y186669D01*
X152894Y186642D01*
X152829Y186618D01*
X152764Y186597D01*
X152697Y186580D01*
X152629Y186567D01*
X152561Y186558D01*
X152493Y186552D01*
X152424Y186550D01*
X151176Y186550D01*
X155633Y184554D02*
X155633Y189046D01*
X156881Y189046D01*
X156950Y189044D01*
X157018Y189038D01*
X157086Y189029D01*
X157154Y189016D01*
X157221Y188999D01*
X157286Y188978D01*
X157351Y188954D01*
X157414Y188927D01*
X157475Y188896D01*
X157535Y188861D01*
X157592Y188824D01*
X157648Y188783D01*
X157701Y188739D01*
X157751Y188693D01*
X157799Y188643D01*
X157844Y188591D01*
X157887Y188537D01*
X157926Y188481D01*
X157962Y188422D01*
X157995Y188362D01*
X158024Y188299D01*
X158050Y188236D01*
X158072Y188171D01*
X158091Y188104D01*
X158106Y188037D01*
X158117Y187969D01*
X158125Y187901D01*
X158129Y187832D01*
X158129Y187764D01*
X158125Y187695D01*
X158117Y187627D01*
X158106Y187559D01*
X158091Y187492D01*
X158072Y187425D01*
X158050Y187360D01*
X158024Y187297D01*
X157995Y187234D01*
X157962Y187174D01*
X157926Y187115D01*
X157887Y187059D01*
X157844Y187005D01*
X157799Y186953D01*
X157751Y186903D01*
X157701Y186857D01*
X157648Y186813D01*
X157592Y186772D01*
X157535Y186735D01*
X157475Y186700D01*
X157414Y186669D01*
X157351Y186642D01*
X157286Y186618D01*
X157221Y186597D01*
X157154Y186580D01*
X157086Y186567D01*
X157018Y186558D01*
X156950Y186552D01*
X156881Y186550D01*
X155633Y186550D01*
X157131Y186550D02*
X158129Y184554D01*
X160101Y185802D02*
X160101Y187798D01*
X160100Y187798D02*
X160102Y187867D01*
X160108Y187935D01*
X160117Y188003D01*
X160130Y188071D01*
X160147Y188138D01*
X160168Y188203D01*
X160192Y188268D01*
X160219Y188331D01*
X160250Y188392D01*
X160285Y188452D01*
X160322Y188509D01*
X160363Y188565D01*
X160407Y188618D01*
X160453Y188668D01*
X160503Y188716D01*
X160555Y188761D01*
X160609Y188804D01*
X160665Y188843D01*
X160724Y188879D01*
X160784Y188912D01*
X160847Y188941D01*
X160910Y188967D01*
X160975Y188989D01*
X161042Y189008D01*
X161109Y189023D01*
X161177Y189034D01*
X161245Y189042D01*
X161314Y189046D01*
X161382Y189046D01*
X161451Y189042D01*
X161519Y189034D01*
X161587Y189023D01*
X161654Y189008D01*
X161721Y188989D01*
X161786Y188967D01*
X161849Y188941D01*
X161912Y188912D01*
X161972Y188879D01*
X162031Y188843D01*
X162087Y188804D01*
X162141Y188761D01*
X162193Y188716D01*
X162243Y188668D01*
X162289Y188618D01*
X162333Y188565D01*
X162374Y188509D01*
X162411Y188452D01*
X162446Y188392D01*
X162477Y188331D01*
X162504Y188268D01*
X162528Y188203D01*
X162549Y188138D01*
X162566Y188071D01*
X162579Y188003D01*
X162588Y187935D01*
X162594Y187867D01*
X162596Y187798D01*
X162596Y185802D01*
X162594Y185733D01*
X162588Y185665D01*
X162579Y185597D01*
X162566Y185529D01*
X162549Y185462D01*
X162528Y185397D01*
X162504Y185332D01*
X162477Y185269D01*
X162446Y185208D01*
X162411Y185148D01*
X162374Y185091D01*
X162333Y185035D01*
X162289Y184982D01*
X162243Y184932D01*
X162193Y184884D01*
X162141Y184839D01*
X162087Y184796D01*
X162031Y184757D01*
X161972Y184721D01*
X161912Y184688D01*
X161849Y184659D01*
X161786Y184633D01*
X161721Y184611D01*
X161654Y184592D01*
X161587Y184577D01*
X161519Y184566D01*
X161451Y184558D01*
X161382Y184554D01*
X161314Y184554D01*
X161245Y184558D01*
X161177Y184566D01*
X161109Y184577D01*
X161042Y184592D01*
X160975Y184611D01*
X160910Y184633D01*
X160847Y184659D01*
X160784Y184688D01*
X160724Y184721D01*
X160665Y184757D01*
X160609Y184796D01*
X160555Y184839D01*
X160503Y184884D01*
X160453Y184932D01*
X160407Y184982D01*
X160363Y185035D01*
X160322Y185091D01*
X160285Y185148D01*
X160250Y185208D01*
X160219Y185269D01*
X160192Y185332D01*
X160168Y185397D01*
X160147Y185462D01*
X160130Y185529D01*
X160117Y185597D01*
X160108Y185665D01*
X160102Y185733D01*
X160100Y185802D01*
X166497Y187050D02*
X167246Y187050D01*
X167246Y184554D01*
X165749Y184554D01*
X165689Y184556D01*
X165629Y184561D01*
X165569Y184570D01*
X165510Y184583D01*
X165452Y184599D01*
X165395Y184619D01*
X165339Y184642D01*
X165285Y184668D01*
X165233Y184698D01*
X165182Y184731D01*
X165134Y184766D01*
X165087Y184805D01*
X165043Y184846D01*
X165002Y184890D01*
X164963Y184937D01*
X164928Y184985D01*
X164895Y185036D01*
X164865Y185088D01*
X164839Y185142D01*
X164816Y185198D01*
X164796Y185255D01*
X164780Y185313D01*
X164767Y185372D01*
X164758Y185432D01*
X164753Y185492D01*
X164751Y185552D01*
X164750Y185552D02*
X164750Y188048D01*
X164751Y188048D02*
X164753Y188111D01*
X164759Y188173D01*
X164769Y188235D01*
X164782Y188296D01*
X164800Y188356D01*
X164821Y188415D01*
X164846Y188473D01*
X164874Y188529D01*
X164906Y188583D01*
X164942Y188635D01*
X164980Y188684D01*
X165021Y188731D01*
X165066Y188775D01*
X165113Y188817D01*
X165162Y188855D01*
X165214Y188891D01*
X165268Y188923D01*
X165324Y188951D01*
X165382Y188976D01*
X165441Y188997D01*
X165501Y189015D01*
X165562Y189028D01*
X165624Y189038D01*
X165686Y189044D01*
X165749Y189046D01*
X167246Y189046D01*
D12*
X142600Y40100D02*
X301100Y40100D01*
X316600Y56100D02*
X316600Y89100D01*
X279600Y45600D02*
X284600Y40600D01*
X279600Y45600D02*
X274600Y40600D01*
X259600Y40600D02*
X254600Y45600D01*
X249600Y40600D01*
X234600Y40600D02*
X229600Y45600D01*
X224600Y40600D01*
X209600Y40600D02*
X204600Y45600D01*
X184600Y40600D02*
X179600Y45600D01*
X199600Y40600D02*
X204600Y45600D01*
X179600Y45600D02*
X174600Y40600D01*
X301100Y40100D02*
X316600Y55600D01*
X316600Y89100D02*
X142600Y89100D01*
X142600Y40100D01*
D11*
X147376Y77954D02*
X147376Y82446D01*
X148624Y82446D01*
X148693Y82444D01*
X148761Y82438D01*
X148829Y82429D01*
X148897Y82416D01*
X148964Y82399D01*
X149029Y82378D01*
X149094Y82354D01*
X149157Y82327D01*
X149218Y82296D01*
X149278Y82261D01*
X149335Y82224D01*
X149391Y82183D01*
X149444Y82139D01*
X149494Y82093D01*
X149542Y82043D01*
X149587Y81991D01*
X149630Y81937D01*
X149669Y81881D01*
X149705Y81822D01*
X149738Y81762D01*
X149767Y81699D01*
X149793Y81636D01*
X149815Y81571D01*
X149834Y81504D01*
X149849Y81437D01*
X149860Y81369D01*
X149868Y81301D01*
X149872Y81232D01*
X149872Y81164D01*
X149868Y81095D01*
X149860Y81027D01*
X149849Y80959D01*
X149834Y80892D01*
X149815Y80825D01*
X149793Y80760D01*
X149767Y80697D01*
X149738Y80634D01*
X149705Y80574D01*
X149669Y80515D01*
X149630Y80459D01*
X149587Y80405D01*
X149542Y80353D01*
X149494Y80303D01*
X149444Y80257D01*
X149391Y80213D01*
X149335Y80172D01*
X149278Y80135D01*
X149218Y80100D01*
X149157Y80069D01*
X149094Y80042D01*
X149029Y80018D01*
X148964Y79997D01*
X148897Y79980D01*
X148829Y79967D01*
X148761Y79958D01*
X148693Y79952D01*
X148624Y79950D01*
X147376Y79950D01*
X151502Y82446D02*
X152500Y77954D01*
X153498Y80949D01*
X154497Y77954D01*
X155495Y82446D01*
X157534Y82446D02*
X157534Y77954D01*
X157534Y82446D02*
X158781Y82446D01*
X158850Y82444D01*
X158918Y82438D01*
X158986Y82429D01*
X159054Y82416D01*
X159121Y82399D01*
X159186Y82378D01*
X159251Y82354D01*
X159314Y82327D01*
X159375Y82296D01*
X159435Y82261D01*
X159492Y82224D01*
X159548Y82183D01*
X159601Y82139D01*
X159651Y82093D01*
X159699Y82043D01*
X159744Y81991D01*
X159787Y81937D01*
X159826Y81881D01*
X159862Y81822D01*
X159895Y81762D01*
X159924Y81699D01*
X159950Y81636D01*
X159972Y81571D01*
X159991Y81504D01*
X160006Y81437D01*
X160017Y81369D01*
X160025Y81301D01*
X160029Y81232D01*
X160029Y81164D01*
X160025Y81095D01*
X160017Y81027D01*
X160006Y80959D01*
X159991Y80892D01*
X159972Y80825D01*
X159950Y80760D01*
X159924Y80697D01*
X159895Y80634D01*
X159862Y80574D01*
X159826Y80515D01*
X159787Y80459D01*
X159744Y80405D01*
X159699Y80353D01*
X159651Y80303D01*
X159601Y80257D01*
X159548Y80213D01*
X159492Y80172D01*
X159435Y80135D01*
X159375Y80100D01*
X159314Y80069D01*
X159251Y80042D01*
X159186Y80018D01*
X159121Y79997D01*
X159054Y79980D01*
X158986Y79967D01*
X158918Y79958D01*
X158850Y79952D01*
X158781Y79950D01*
X157534Y79950D01*
X159031Y79950D02*
X160029Y77954D01*
X161800Y77455D02*
X163797Y77455D01*
X165751Y77954D02*
X165751Y82446D01*
X166998Y82446D01*
X167066Y82444D01*
X167133Y82439D01*
X167200Y82430D01*
X167266Y82417D01*
X167332Y82401D01*
X167396Y82381D01*
X167460Y82357D01*
X167522Y82331D01*
X167583Y82301D01*
X167641Y82267D01*
X167698Y82231D01*
X167753Y82192D01*
X167806Y82149D01*
X167856Y82104D01*
X167904Y82056D01*
X167949Y82006D01*
X167992Y81953D01*
X168031Y81898D01*
X168067Y81841D01*
X168101Y81783D01*
X168131Y81722D01*
X168157Y81660D01*
X168181Y81596D01*
X168201Y81532D01*
X168217Y81466D01*
X168230Y81400D01*
X168239Y81333D01*
X168244Y81266D01*
X168246Y81198D01*
X168246Y79202D01*
X168244Y79134D01*
X168239Y79067D01*
X168230Y79000D01*
X168217Y78934D01*
X168201Y78868D01*
X168181Y78804D01*
X168157Y78740D01*
X168131Y78678D01*
X168101Y78617D01*
X168067Y78559D01*
X168031Y78502D01*
X167992Y78447D01*
X167949Y78394D01*
X167904Y78344D01*
X167856Y78296D01*
X167806Y78251D01*
X167753Y78208D01*
X167698Y78169D01*
X167641Y78133D01*
X167583Y78099D01*
X167522Y78069D01*
X167460Y78043D01*
X167396Y78019D01*
X167332Y77999D01*
X167266Y77983D01*
X167200Y77970D01*
X167133Y77961D01*
X167066Y77956D01*
X166998Y77954D01*
X165751Y77954D01*
X170151Y77954D02*
X171648Y82446D01*
X173146Y77954D01*
X172771Y79077D02*
X170525Y79077D01*
X175848Y77954D02*
X175848Y82446D01*
X174601Y82446D02*
X177096Y82446D01*
X180048Y82446D02*
X178551Y77954D01*
X181546Y77954D02*
X180048Y82446D01*
X181171Y79077D02*
X178925Y79077D01*
X183100Y77455D02*
X185097Y77455D01*
X187248Y77954D02*
X187248Y82446D01*
X186749Y77954D02*
X187747Y77954D01*
X187747Y82446D02*
X186749Y82446D01*
X189750Y82446D02*
X189750Y77954D01*
X192246Y77954D02*
X189750Y82446D01*
X192246Y82446D02*
X192246Y77954D01*
D12*
X142600Y90900D02*
X301100Y90900D01*
X316600Y106900D02*
X316600Y139900D01*
X279600Y96400D02*
X284600Y91400D01*
X279600Y96400D02*
X274600Y91400D01*
X259600Y91400D02*
X254600Y96400D01*
X249600Y91400D01*
X234600Y91400D02*
X229600Y96400D01*
X224600Y91400D01*
X209600Y91400D02*
X204600Y96400D01*
X184600Y91400D02*
X179600Y96400D01*
X199600Y91400D02*
X204600Y96400D01*
X179600Y96400D02*
X174600Y91400D01*
X301100Y90900D02*
X316600Y106400D01*
X316600Y139900D02*
X142600Y139900D01*
X142600Y90900D01*
D11*
X151226Y128754D02*
X151226Y133246D01*
X152474Y133246D01*
X152543Y133244D01*
X152611Y133238D01*
X152679Y133229D01*
X152747Y133216D01*
X152814Y133199D01*
X152879Y133178D01*
X152944Y133154D01*
X153007Y133127D01*
X153068Y133096D01*
X153128Y133061D01*
X153185Y133024D01*
X153241Y132983D01*
X153294Y132939D01*
X153344Y132893D01*
X153392Y132843D01*
X153437Y132791D01*
X153480Y132737D01*
X153519Y132681D01*
X153555Y132622D01*
X153588Y132562D01*
X153617Y132499D01*
X153643Y132436D01*
X153665Y132371D01*
X153684Y132304D01*
X153699Y132237D01*
X153710Y132169D01*
X153718Y132101D01*
X153722Y132032D01*
X153722Y131964D01*
X153718Y131895D01*
X153710Y131827D01*
X153699Y131759D01*
X153684Y131692D01*
X153665Y131625D01*
X153643Y131560D01*
X153617Y131497D01*
X153588Y131434D01*
X153555Y131374D01*
X153519Y131315D01*
X153480Y131259D01*
X153437Y131205D01*
X153392Y131153D01*
X153344Y131103D01*
X153294Y131057D01*
X153241Y131013D01*
X153185Y130972D01*
X153128Y130935D01*
X153068Y130900D01*
X153007Y130869D01*
X152944Y130842D01*
X152879Y130818D01*
X152814Y130797D01*
X152747Y130780D01*
X152679Y130767D01*
X152611Y130758D01*
X152543Y130752D01*
X152474Y130750D01*
X151226Y130750D01*
X155352Y133246D02*
X156350Y128754D01*
X157348Y131749D01*
X158347Y128754D01*
X159345Y133246D01*
X161384Y133246D02*
X161384Y128754D01*
X161384Y133246D02*
X162631Y133246D01*
X162700Y133244D01*
X162768Y133238D01*
X162836Y133229D01*
X162904Y133216D01*
X162971Y133199D01*
X163036Y133178D01*
X163101Y133154D01*
X163164Y133127D01*
X163225Y133096D01*
X163285Y133061D01*
X163342Y133024D01*
X163398Y132983D01*
X163451Y132939D01*
X163501Y132893D01*
X163549Y132843D01*
X163594Y132791D01*
X163637Y132737D01*
X163676Y132681D01*
X163712Y132622D01*
X163745Y132562D01*
X163774Y132499D01*
X163800Y132436D01*
X163822Y132371D01*
X163841Y132304D01*
X163856Y132237D01*
X163867Y132169D01*
X163875Y132101D01*
X163879Y132032D01*
X163879Y131964D01*
X163875Y131895D01*
X163867Y131827D01*
X163856Y131759D01*
X163841Y131692D01*
X163822Y131625D01*
X163800Y131560D01*
X163774Y131497D01*
X163745Y131434D01*
X163712Y131374D01*
X163676Y131315D01*
X163637Y131259D01*
X163594Y131205D01*
X163549Y131153D01*
X163501Y131103D01*
X163451Y131057D01*
X163398Y131013D01*
X163342Y130972D01*
X163285Y130935D01*
X163225Y130900D01*
X163164Y130869D01*
X163101Y130842D01*
X163036Y130818D01*
X162971Y130797D01*
X162904Y130780D01*
X162836Y130767D01*
X162768Y130758D01*
X162700Y130752D01*
X162631Y130750D01*
X161384Y130750D01*
X162881Y130750D02*
X163879Y128754D01*
X165650Y128255D02*
X167647Y128255D01*
X169601Y128754D02*
X169601Y133246D01*
X170848Y133246D01*
X170916Y133244D01*
X170983Y133239D01*
X171050Y133230D01*
X171116Y133217D01*
X171182Y133201D01*
X171246Y133181D01*
X171310Y133157D01*
X171372Y133131D01*
X171433Y133101D01*
X171491Y133067D01*
X171548Y133031D01*
X171603Y132992D01*
X171656Y132949D01*
X171706Y132904D01*
X171754Y132856D01*
X171799Y132806D01*
X171842Y132753D01*
X171881Y132698D01*
X171917Y132641D01*
X171951Y132583D01*
X171981Y132522D01*
X172007Y132460D01*
X172031Y132396D01*
X172051Y132332D01*
X172067Y132266D01*
X172080Y132200D01*
X172089Y132133D01*
X172094Y132066D01*
X172096Y131998D01*
X172096Y130002D01*
X172094Y129934D01*
X172089Y129867D01*
X172080Y129800D01*
X172067Y129734D01*
X172051Y129668D01*
X172031Y129604D01*
X172007Y129540D01*
X171981Y129478D01*
X171951Y129417D01*
X171917Y129359D01*
X171881Y129302D01*
X171842Y129247D01*
X171799Y129194D01*
X171754Y129144D01*
X171706Y129096D01*
X171656Y129051D01*
X171603Y129008D01*
X171548Y128969D01*
X171491Y128933D01*
X171433Y128899D01*
X171372Y128869D01*
X171310Y128843D01*
X171246Y128819D01*
X171182Y128799D01*
X171116Y128783D01*
X171050Y128770D01*
X170983Y128761D01*
X170916Y128756D01*
X170848Y128754D01*
X169601Y128754D01*
X174001Y128754D02*
X175498Y133246D01*
X176996Y128754D01*
X176621Y129877D02*
X174375Y129877D01*
X179698Y128754D02*
X179698Y133246D01*
X178451Y133246D02*
X180946Y133246D01*
X183898Y133246D02*
X182401Y128754D01*
X185396Y128754D02*
X183898Y133246D01*
X185021Y129877D02*
X182775Y129877D01*
X186950Y128255D02*
X188947Y128255D01*
X190751Y130002D02*
X190751Y131998D01*
X190750Y131998D02*
X190752Y132067D01*
X190758Y132135D01*
X190767Y132203D01*
X190780Y132271D01*
X190797Y132338D01*
X190818Y132403D01*
X190842Y132468D01*
X190869Y132531D01*
X190900Y132592D01*
X190935Y132652D01*
X190972Y132709D01*
X191013Y132765D01*
X191057Y132818D01*
X191103Y132868D01*
X191153Y132916D01*
X191205Y132961D01*
X191259Y133004D01*
X191315Y133043D01*
X191374Y133079D01*
X191434Y133112D01*
X191497Y133141D01*
X191560Y133167D01*
X191625Y133189D01*
X191692Y133208D01*
X191759Y133223D01*
X191827Y133234D01*
X191895Y133242D01*
X191964Y133246D01*
X192032Y133246D01*
X192101Y133242D01*
X192169Y133234D01*
X192237Y133223D01*
X192304Y133208D01*
X192371Y133189D01*
X192436Y133167D01*
X192499Y133141D01*
X192562Y133112D01*
X192622Y133079D01*
X192681Y133043D01*
X192737Y133004D01*
X192791Y132961D01*
X192843Y132916D01*
X192893Y132868D01*
X192939Y132818D01*
X192983Y132765D01*
X193024Y132709D01*
X193061Y132652D01*
X193096Y132592D01*
X193127Y132531D01*
X193154Y132468D01*
X193178Y132403D01*
X193199Y132338D01*
X193216Y132271D01*
X193229Y132203D01*
X193238Y132135D01*
X193244Y132067D01*
X193246Y131998D01*
X193246Y130002D01*
X193244Y129933D01*
X193238Y129865D01*
X193229Y129797D01*
X193216Y129729D01*
X193199Y129662D01*
X193178Y129597D01*
X193154Y129532D01*
X193127Y129469D01*
X193096Y129408D01*
X193061Y129348D01*
X193024Y129291D01*
X192983Y129235D01*
X192939Y129182D01*
X192893Y129132D01*
X192843Y129084D01*
X192791Y129039D01*
X192737Y128996D01*
X192681Y128957D01*
X192622Y128921D01*
X192562Y128888D01*
X192499Y128859D01*
X192436Y128833D01*
X192371Y128811D01*
X192304Y128792D01*
X192237Y128777D01*
X192169Y128766D01*
X192101Y128758D01*
X192032Y128754D01*
X191964Y128754D01*
X191895Y128758D01*
X191827Y128766D01*
X191759Y128777D01*
X191692Y128792D01*
X191625Y128811D01*
X191560Y128833D01*
X191497Y128859D01*
X191434Y128888D01*
X191374Y128921D01*
X191315Y128957D01*
X191259Y128996D01*
X191205Y129039D01*
X191153Y129084D01*
X191103Y129132D01*
X191057Y129182D01*
X191013Y129235D01*
X190972Y129291D01*
X190935Y129348D01*
X190900Y129408D01*
X190869Y129469D01*
X190842Y129532D01*
X190818Y129597D01*
X190797Y129662D01*
X190780Y129729D01*
X190767Y129797D01*
X190758Y129865D01*
X190752Y129933D01*
X190750Y130002D01*
X195401Y130002D02*
X195401Y133246D01*
X195400Y130002D02*
X195402Y129933D01*
X195408Y129865D01*
X195417Y129797D01*
X195430Y129729D01*
X195447Y129662D01*
X195468Y129597D01*
X195492Y129532D01*
X195519Y129469D01*
X195550Y129408D01*
X195585Y129348D01*
X195622Y129291D01*
X195663Y129235D01*
X195707Y129182D01*
X195753Y129132D01*
X195803Y129084D01*
X195855Y129039D01*
X195909Y128996D01*
X195965Y128957D01*
X196024Y128921D01*
X196084Y128888D01*
X196147Y128859D01*
X196210Y128833D01*
X196275Y128811D01*
X196342Y128792D01*
X196409Y128777D01*
X196477Y128766D01*
X196545Y128758D01*
X196614Y128754D01*
X196682Y128754D01*
X196751Y128758D01*
X196819Y128766D01*
X196887Y128777D01*
X196954Y128792D01*
X197021Y128811D01*
X197086Y128833D01*
X197149Y128859D01*
X197212Y128888D01*
X197272Y128921D01*
X197331Y128957D01*
X197387Y128996D01*
X197441Y129039D01*
X197493Y129084D01*
X197543Y129132D01*
X197589Y129182D01*
X197633Y129235D01*
X197674Y129291D01*
X197711Y129348D01*
X197746Y129408D01*
X197777Y129469D01*
X197804Y129532D01*
X197828Y129597D01*
X197849Y129662D01*
X197866Y129729D01*
X197879Y129797D01*
X197888Y129865D01*
X197894Y129933D01*
X197896Y130002D01*
X197896Y133246D01*
X200998Y133246D02*
X200998Y128754D01*
X199750Y133246D02*
X202246Y133246D01*
D14*
X146304Y165542D02*
X136144Y165542D01*
X16256Y50480D02*
X6096Y50480D01*
X38100Y45654D02*
X38100Y43876D01*
X114300Y172146D02*
X114300Y173924D01*
X38100Y173924D01*
X38100Y172146D01*
X38100Y43876D02*
X73152Y43876D01*
X79248Y43876D01*
X114300Y43876D01*
X114300Y45654D01*
X79248Y43876D02*
X79246Y43985D01*
X79240Y44093D01*
X79231Y44202D01*
X79217Y44310D01*
X79200Y44417D01*
X79178Y44524D01*
X79153Y44630D01*
X79125Y44735D01*
X79092Y44839D01*
X79056Y44941D01*
X79016Y45042D01*
X78973Y45142D01*
X78926Y45240D01*
X78875Y45337D01*
X78821Y45431D01*
X78764Y45524D01*
X78704Y45614D01*
X78640Y45703D01*
X78573Y45789D01*
X78504Y45872D01*
X78431Y45953D01*
X78355Y46031D01*
X78277Y46107D01*
X78196Y46180D01*
X78113Y46249D01*
X78027Y46316D01*
X77938Y46380D01*
X77848Y46440D01*
X77755Y46497D01*
X77661Y46551D01*
X77564Y46602D01*
X77466Y46649D01*
X77366Y46692D01*
X77265Y46732D01*
X77163Y46768D01*
X77059Y46801D01*
X76954Y46829D01*
X76848Y46854D01*
X76741Y46876D01*
X76634Y46893D01*
X76526Y46907D01*
X76417Y46916D01*
X76309Y46922D01*
X76200Y46924D01*
X76091Y46922D01*
X75983Y46916D01*
X75874Y46907D01*
X75766Y46893D01*
X75659Y46876D01*
X75552Y46854D01*
X75446Y46829D01*
X75341Y46801D01*
X75237Y46768D01*
X75135Y46732D01*
X75034Y46692D01*
X74934Y46649D01*
X74836Y46602D01*
X74739Y46551D01*
X74645Y46497D01*
X74552Y46440D01*
X74462Y46380D01*
X74373Y46316D01*
X74287Y46249D01*
X74204Y46180D01*
X74123Y46107D01*
X74045Y46031D01*
X73969Y45953D01*
X73896Y45872D01*
X73827Y45789D01*
X73760Y45703D01*
X73696Y45614D01*
X73636Y45524D01*
X73579Y45431D01*
X73525Y45337D01*
X73474Y45240D01*
X73427Y45142D01*
X73384Y45042D01*
X73344Y44941D01*
X73308Y44839D01*
X73275Y44735D01*
X73247Y44630D01*
X73222Y44524D01*
X73200Y44417D01*
X73183Y44310D01*
X73169Y44202D01*
X73160Y44093D01*
X73154Y43985D01*
X73152Y43876D01*
D10*
X127289Y42408D02*
X127289Y38429D01*
X127289Y42408D02*
X124968Y45393D01*
X127289Y42408D02*
X129611Y45393D01*
X127289Y42408D02*
X123642Y41082D01*
X127289Y42408D02*
X130937Y41082D01*
D11*
X68364Y116842D02*
X68364Y120086D01*
X68364Y116842D02*
X68366Y116773D01*
X68372Y116705D01*
X68381Y116637D01*
X68394Y116569D01*
X68411Y116502D01*
X68432Y116437D01*
X68456Y116372D01*
X68483Y116309D01*
X68514Y116248D01*
X68549Y116188D01*
X68586Y116131D01*
X68627Y116075D01*
X68671Y116022D01*
X68717Y115972D01*
X68767Y115924D01*
X68819Y115879D01*
X68873Y115836D01*
X68929Y115797D01*
X68988Y115761D01*
X69048Y115728D01*
X69111Y115699D01*
X69174Y115673D01*
X69239Y115651D01*
X69306Y115632D01*
X69373Y115617D01*
X69441Y115606D01*
X69509Y115598D01*
X69578Y115594D01*
X69646Y115594D01*
X69715Y115598D01*
X69783Y115606D01*
X69851Y115617D01*
X69918Y115632D01*
X69985Y115651D01*
X70050Y115673D01*
X70113Y115699D01*
X70176Y115728D01*
X70236Y115761D01*
X70295Y115797D01*
X70351Y115836D01*
X70405Y115879D01*
X70457Y115924D01*
X70507Y115972D01*
X70553Y116022D01*
X70597Y116075D01*
X70638Y116131D01*
X70675Y116188D01*
X70710Y116248D01*
X70741Y116309D01*
X70768Y116372D01*
X70792Y116437D01*
X70813Y116502D01*
X70830Y116569D01*
X70843Y116637D01*
X70852Y116705D01*
X70858Y116773D01*
X70860Y116842D01*
X70860Y120086D01*
X73014Y119088D02*
X74262Y120086D01*
X74262Y115594D01*
X73014Y115594D02*
X75510Y115594D01*
D14*
X95250Y388300D02*
X107950Y388300D01*
X95250Y388300D02*
X88900Y394650D01*
X88900Y407350D02*
X95250Y413700D01*
X88900Y394650D02*
X82550Y388300D01*
X69850Y388300D01*
X63500Y394650D01*
X63500Y407350D02*
X69850Y413700D01*
X82550Y413700D01*
X88900Y407350D01*
X114300Y407350D02*
X114300Y394650D01*
X107950Y388300D01*
X114300Y407350D02*
X107950Y413700D01*
X95250Y413700D01*
X63500Y394650D02*
X57150Y388300D01*
X44450Y388300D01*
X38100Y394650D01*
X38100Y407350D02*
X44450Y413700D01*
X57150Y413700D01*
X63500Y407350D01*
X38100Y407350D02*
X38100Y394650D01*
D12*
X120015Y404175D02*
X123190Y406715D01*
X123190Y395285D01*
X120015Y395285D02*
X126365Y395285D01*
D11*
X84046Y380742D02*
X84044Y380679D01*
X84038Y380617D01*
X84028Y380555D01*
X84015Y380494D01*
X83997Y380434D01*
X83976Y380375D01*
X83951Y380317D01*
X83923Y380261D01*
X83891Y380207D01*
X83855Y380155D01*
X83817Y380106D01*
X83776Y380059D01*
X83731Y380015D01*
X83684Y379973D01*
X83635Y379935D01*
X83583Y379899D01*
X83529Y379867D01*
X83473Y379839D01*
X83415Y379814D01*
X83356Y379793D01*
X83296Y379775D01*
X83235Y379762D01*
X83173Y379752D01*
X83111Y379746D01*
X83048Y379744D01*
X82960Y379746D01*
X82873Y379751D01*
X82786Y379760D01*
X82699Y379773D01*
X82613Y379789D01*
X82528Y379809D01*
X82443Y379833D01*
X82360Y379859D01*
X82277Y379890D01*
X82197Y379924D01*
X82117Y379961D01*
X82039Y380001D01*
X81963Y380044D01*
X81889Y380091D01*
X81817Y380141D01*
X81747Y380193D01*
X81679Y380249D01*
X81613Y380307D01*
X81550Y380368D01*
X81676Y383238D02*
X81678Y383298D01*
X81683Y383358D01*
X81692Y383418D01*
X81705Y383477D01*
X81721Y383535D01*
X81741Y383592D01*
X81764Y383648D01*
X81790Y383702D01*
X81820Y383754D01*
X81853Y383805D01*
X81888Y383853D01*
X81927Y383900D01*
X81968Y383944D01*
X82012Y383985D01*
X82059Y384024D01*
X82107Y384059D01*
X82158Y384092D01*
X82210Y384122D01*
X82264Y384148D01*
X82320Y384171D01*
X82377Y384191D01*
X82435Y384207D01*
X82494Y384220D01*
X82554Y384229D01*
X82614Y384234D01*
X82674Y384236D01*
X82760Y384234D01*
X82846Y384228D01*
X82931Y384218D01*
X83016Y384204D01*
X83100Y384187D01*
X83184Y384165D01*
X83266Y384140D01*
X83347Y384111D01*
X83427Y384078D01*
X83504Y384042D01*
X83581Y384002D01*
X83655Y383958D01*
X83727Y383912D01*
X83797Y383862D01*
X82174Y382364D02*
X82122Y382397D01*
X82072Y382434D01*
X82024Y382473D01*
X81978Y382515D01*
X81935Y382560D01*
X81895Y382607D01*
X81858Y382656D01*
X81824Y382708D01*
X81794Y382762D01*
X81766Y382818D01*
X81742Y382875D01*
X81722Y382933D01*
X81705Y382993D01*
X81692Y383053D01*
X81683Y383114D01*
X81677Y383176D01*
X81675Y383238D01*
X83547Y381616D02*
X83599Y381583D01*
X83649Y381546D01*
X83697Y381507D01*
X83743Y381465D01*
X83786Y381420D01*
X83826Y381373D01*
X83863Y381324D01*
X83897Y381272D01*
X83927Y381218D01*
X83955Y381162D01*
X83979Y381105D01*
X83999Y381047D01*
X84016Y380987D01*
X84029Y380927D01*
X84038Y380866D01*
X84044Y380804D01*
X84046Y380742D01*
X83547Y381616D02*
X82175Y382364D01*
X86061Y379744D02*
X88057Y379744D01*
X86061Y379744D02*
X86061Y384236D01*
X88057Y384236D01*
X87558Y382240D02*
X86061Y382240D01*
X89951Y384236D02*
X89951Y379744D01*
X92446Y379744D02*
X89951Y384236D01*
X92446Y384236D02*
X92446Y379744D01*
X95948Y379744D02*
X96011Y379746D01*
X96073Y379752D01*
X96135Y379762D01*
X96196Y379775D01*
X96256Y379793D01*
X96315Y379814D01*
X96373Y379839D01*
X96429Y379867D01*
X96483Y379899D01*
X96535Y379935D01*
X96584Y379973D01*
X96631Y380015D01*
X96676Y380059D01*
X96717Y380106D01*
X96755Y380155D01*
X96791Y380207D01*
X96823Y380261D01*
X96851Y380317D01*
X96876Y380375D01*
X96897Y380434D01*
X96915Y380494D01*
X96928Y380555D01*
X96938Y380617D01*
X96944Y380679D01*
X96946Y380742D01*
X95948Y379744D02*
X95860Y379746D01*
X95773Y379751D01*
X95686Y379760D01*
X95599Y379773D01*
X95513Y379789D01*
X95428Y379809D01*
X95343Y379833D01*
X95260Y379859D01*
X95177Y379890D01*
X95097Y379924D01*
X95017Y379961D01*
X94939Y380001D01*
X94863Y380044D01*
X94789Y380091D01*
X94717Y380141D01*
X94647Y380193D01*
X94579Y380249D01*
X94513Y380307D01*
X94450Y380368D01*
X94576Y383238D02*
X94578Y383298D01*
X94583Y383358D01*
X94592Y383418D01*
X94605Y383477D01*
X94621Y383535D01*
X94641Y383592D01*
X94664Y383648D01*
X94690Y383702D01*
X94720Y383754D01*
X94753Y383805D01*
X94788Y383853D01*
X94827Y383900D01*
X94868Y383944D01*
X94912Y383985D01*
X94959Y384024D01*
X95007Y384059D01*
X95058Y384092D01*
X95110Y384122D01*
X95164Y384148D01*
X95220Y384171D01*
X95277Y384191D01*
X95335Y384207D01*
X95394Y384220D01*
X95454Y384229D01*
X95514Y384234D01*
X95574Y384236D01*
X95660Y384234D01*
X95746Y384228D01*
X95831Y384218D01*
X95916Y384204D01*
X96000Y384187D01*
X96084Y384165D01*
X96166Y384140D01*
X96247Y384111D01*
X96327Y384078D01*
X96404Y384042D01*
X96481Y384002D01*
X96555Y383958D01*
X96627Y383912D01*
X96697Y383862D01*
X95074Y382364D02*
X95022Y382397D01*
X94972Y382434D01*
X94924Y382473D01*
X94878Y382515D01*
X94835Y382560D01*
X94795Y382607D01*
X94758Y382656D01*
X94724Y382708D01*
X94694Y382762D01*
X94666Y382818D01*
X94642Y382875D01*
X94622Y382933D01*
X94605Y382993D01*
X94592Y383053D01*
X94583Y383114D01*
X94577Y383176D01*
X94575Y383238D01*
X96447Y381616D02*
X96499Y381583D01*
X96549Y381546D01*
X96597Y381507D01*
X96643Y381465D01*
X96686Y381420D01*
X96726Y381373D01*
X96763Y381324D01*
X96797Y381272D01*
X96827Y381218D01*
X96855Y381162D01*
X96879Y381105D01*
X96899Y381047D01*
X96916Y380987D01*
X96929Y380927D01*
X96938Y380866D01*
X96944Y380804D01*
X96946Y380742D01*
X96447Y381616D02*
X95074Y382364D01*
X98801Y382988D02*
X98801Y380992D01*
X98800Y382988D02*
X98802Y383057D01*
X98808Y383125D01*
X98817Y383193D01*
X98830Y383261D01*
X98847Y383328D01*
X98868Y383393D01*
X98892Y383458D01*
X98919Y383521D01*
X98950Y383582D01*
X98985Y383642D01*
X99022Y383699D01*
X99063Y383755D01*
X99107Y383808D01*
X99153Y383858D01*
X99203Y383906D01*
X99255Y383951D01*
X99309Y383994D01*
X99365Y384033D01*
X99424Y384069D01*
X99484Y384102D01*
X99547Y384131D01*
X99610Y384157D01*
X99675Y384179D01*
X99742Y384198D01*
X99809Y384213D01*
X99877Y384224D01*
X99945Y384232D01*
X100014Y384236D01*
X100082Y384236D01*
X100151Y384232D01*
X100219Y384224D01*
X100287Y384213D01*
X100354Y384198D01*
X100421Y384179D01*
X100486Y384157D01*
X100549Y384131D01*
X100612Y384102D01*
X100672Y384069D01*
X100731Y384033D01*
X100787Y383994D01*
X100841Y383951D01*
X100893Y383906D01*
X100943Y383858D01*
X100989Y383808D01*
X101033Y383755D01*
X101074Y383699D01*
X101111Y383642D01*
X101146Y383582D01*
X101177Y383521D01*
X101204Y383458D01*
X101228Y383393D01*
X101249Y383328D01*
X101266Y383261D01*
X101279Y383193D01*
X101288Y383125D01*
X101294Y383057D01*
X101296Y382988D01*
X101296Y380992D01*
X101294Y380923D01*
X101288Y380855D01*
X101279Y380787D01*
X101266Y380719D01*
X101249Y380652D01*
X101228Y380587D01*
X101204Y380522D01*
X101177Y380459D01*
X101146Y380398D01*
X101111Y380338D01*
X101074Y380281D01*
X101033Y380225D01*
X100989Y380172D01*
X100943Y380122D01*
X100893Y380074D01*
X100841Y380029D01*
X100787Y379986D01*
X100731Y379947D01*
X100672Y379911D01*
X100612Y379878D01*
X100549Y379849D01*
X100486Y379823D01*
X100421Y379801D01*
X100354Y379782D01*
X100287Y379767D01*
X100219Y379756D01*
X100151Y379748D01*
X100082Y379744D01*
X100014Y379744D01*
X99945Y379748D01*
X99877Y379756D01*
X99809Y379767D01*
X99742Y379782D01*
X99675Y379801D01*
X99610Y379823D01*
X99547Y379849D01*
X99484Y379878D01*
X99424Y379911D01*
X99365Y379947D01*
X99309Y379986D01*
X99255Y380029D01*
X99203Y380074D01*
X99153Y380122D01*
X99107Y380172D01*
X99063Y380225D01*
X99022Y380281D01*
X98985Y380338D01*
X98950Y380398D01*
X98919Y380459D01*
X98892Y380522D01*
X98868Y380587D01*
X98847Y380652D01*
X98830Y380719D01*
X98817Y380787D01*
X98808Y380855D01*
X98802Y380923D01*
X98800Y380992D01*
X103483Y379744D02*
X103483Y384236D01*
X104731Y384236D01*
X104800Y384234D01*
X104868Y384228D01*
X104936Y384219D01*
X105004Y384206D01*
X105071Y384189D01*
X105136Y384168D01*
X105201Y384144D01*
X105264Y384117D01*
X105325Y384086D01*
X105385Y384051D01*
X105442Y384014D01*
X105498Y383973D01*
X105551Y383929D01*
X105601Y383883D01*
X105649Y383833D01*
X105694Y383781D01*
X105737Y383727D01*
X105776Y383671D01*
X105812Y383612D01*
X105845Y383552D01*
X105874Y383489D01*
X105900Y383426D01*
X105922Y383361D01*
X105941Y383294D01*
X105956Y383227D01*
X105967Y383159D01*
X105975Y383091D01*
X105979Y383022D01*
X105979Y382954D01*
X105975Y382885D01*
X105967Y382817D01*
X105956Y382749D01*
X105941Y382682D01*
X105922Y382615D01*
X105900Y382550D01*
X105874Y382487D01*
X105845Y382424D01*
X105812Y382364D01*
X105776Y382305D01*
X105737Y382249D01*
X105694Y382195D01*
X105649Y382143D01*
X105601Y382093D01*
X105551Y382047D01*
X105498Y382003D01*
X105442Y381962D01*
X105385Y381925D01*
X105325Y381890D01*
X105264Y381859D01*
X105201Y381832D01*
X105136Y381808D01*
X105071Y381787D01*
X105004Y381770D01*
X104936Y381757D01*
X104868Y381748D01*
X104800Y381742D01*
X104731Y381740D01*
X103483Y381740D01*
X104981Y381740D02*
X105979Y379744D01*
X107750Y379245D02*
X109746Y379245D01*
X111550Y383238D02*
X112798Y384236D01*
X112798Y379744D01*
X111550Y379744D02*
X114046Y379744D01*
D14*
X107950Y350200D02*
X95250Y350200D01*
X88900Y356550D01*
X88900Y369250D02*
X95250Y375600D01*
X88900Y356550D02*
X82550Y350200D01*
X69850Y350200D01*
X63500Y356550D01*
X63500Y369250D02*
X69850Y375600D01*
X82550Y375600D01*
X88900Y369250D01*
X114300Y369250D02*
X114300Y356550D01*
X107950Y350200D01*
X114300Y369250D02*
X107950Y375600D01*
X95250Y375600D01*
X63500Y356550D02*
X57150Y350200D01*
X44450Y350200D01*
X38100Y356550D01*
X38100Y369250D02*
X44450Y375600D01*
X57150Y375600D01*
X63500Y369250D01*
X38100Y369250D02*
X38100Y356550D01*
D12*
X120015Y366075D02*
X123190Y368615D01*
X123190Y357185D01*
X120015Y357185D02*
X126365Y357185D01*
D11*
X87646Y342642D02*
X87644Y342579D01*
X87638Y342517D01*
X87628Y342455D01*
X87615Y342394D01*
X87597Y342334D01*
X87576Y342275D01*
X87551Y342217D01*
X87523Y342161D01*
X87491Y342107D01*
X87455Y342055D01*
X87417Y342006D01*
X87376Y341959D01*
X87331Y341915D01*
X87284Y341873D01*
X87235Y341835D01*
X87183Y341799D01*
X87129Y341767D01*
X87073Y341739D01*
X87015Y341714D01*
X86956Y341693D01*
X86896Y341675D01*
X86835Y341662D01*
X86773Y341652D01*
X86711Y341646D01*
X86648Y341644D01*
X86560Y341646D01*
X86473Y341651D01*
X86386Y341660D01*
X86299Y341673D01*
X86213Y341689D01*
X86128Y341709D01*
X86043Y341733D01*
X85960Y341759D01*
X85877Y341790D01*
X85797Y341824D01*
X85717Y341861D01*
X85639Y341901D01*
X85563Y341944D01*
X85489Y341991D01*
X85417Y342041D01*
X85347Y342093D01*
X85279Y342149D01*
X85213Y342207D01*
X85150Y342268D01*
X85276Y345138D02*
X85278Y345198D01*
X85283Y345258D01*
X85292Y345318D01*
X85305Y345377D01*
X85321Y345435D01*
X85341Y345492D01*
X85364Y345548D01*
X85390Y345602D01*
X85420Y345654D01*
X85453Y345705D01*
X85488Y345753D01*
X85527Y345800D01*
X85568Y345844D01*
X85612Y345885D01*
X85659Y345924D01*
X85707Y345959D01*
X85758Y345992D01*
X85810Y346022D01*
X85864Y346048D01*
X85920Y346071D01*
X85977Y346091D01*
X86035Y346107D01*
X86094Y346120D01*
X86154Y346129D01*
X86214Y346134D01*
X86274Y346136D01*
X86360Y346134D01*
X86446Y346128D01*
X86531Y346118D01*
X86616Y346104D01*
X86700Y346087D01*
X86784Y346065D01*
X86866Y346040D01*
X86947Y346011D01*
X87027Y345978D01*
X87104Y345942D01*
X87181Y345902D01*
X87255Y345858D01*
X87327Y345812D01*
X87397Y345762D01*
X85774Y344264D02*
X85722Y344297D01*
X85672Y344334D01*
X85624Y344373D01*
X85578Y344415D01*
X85535Y344460D01*
X85495Y344507D01*
X85458Y344556D01*
X85424Y344608D01*
X85394Y344662D01*
X85366Y344718D01*
X85342Y344775D01*
X85322Y344833D01*
X85305Y344893D01*
X85292Y344953D01*
X85283Y345014D01*
X85277Y345076D01*
X85275Y345138D01*
X87147Y343516D02*
X87199Y343483D01*
X87249Y343446D01*
X87297Y343407D01*
X87343Y343365D01*
X87386Y343320D01*
X87426Y343273D01*
X87463Y343224D01*
X87497Y343172D01*
X87527Y343118D01*
X87555Y343062D01*
X87579Y343005D01*
X87599Y342947D01*
X87616Y342887D01*
X87629Y342827D01*
X87638Y342766D01*
X87644Y342704D01*
X87646Y342642D01*
X87147Y343516D02*
X85775Y344264D01*
X89661Y341644D02*
X91657Y341644D01*
X89661Y341644D02*
X89661Y346136D01*
X91657Y346136D01*
X91158Y344140D02*
X89661Y344140D01*
X93551Y346136D02*
X93551Y341644D01*
X96046Y341644D02*
X93551Y346136D01*
X96046Y346136D02*
X96046Y341644D01*
X99548Y341644D02*
X99611Y341646D01*
X99673Y341652D01*
X99735Y341662D01*
X99796Y341675D01*
X99856Y341693D01*
X99915Y341714D01*
X99973Y341739D01*
X100029Y341767D01*
X100083Y341799D01*
X100135Y341835D01*
X100184Y341873D01*
X100231Y341915D01*
X100276Y341959D01*
X100317Y342006D01*
X100355Y342055D01*
X100391Y342107D01*
X100423Y342161D01*
X100451Y342217D01*
X100476Y342275D01*
X100497Y342334D01*
X100515Y342394D01*
X100528Y342455D01*
X100538Y342517D01*
X100544Y342579D01*
X100546Y342642D01*
X99548Y341644D02*
X99460Y341646D01*
X99373Y341651D01*
X99286Y341660D01*
X99199Y341673D01*
X99113Y341689D01*
X99028Y341709D01*
X98943Y341733D01*
X98860Y341759D01*
X98777Y341790D01*
X98697Y341824D01*
X98617Y341861D01*
X98539Y341901D01*
X98463Y341944D01*
X98389Y341991D01*
X98317Y342041D01*
X98247Y342093D01*
X98179Y342149D01*
X98113Y342207D01*
X98050Y342268D01*
X98176Y345138D02*
X98178Y345198D01*
X98183Y345258D01*
X98192Y345318D01*
X98205Y345377D01*
X98221Y345435D01*
X98241Y345492D01*
X98264Y345548D01*
X98290Y345602D01*
X98320Y345654D01*
X98353Y345705D01*
X98388Y345753D01*
X98427Y345800D01*
X98468Y345844D01*
X98512Y345885D01*
X98559Y345924D01*
X98607Y345959D01*
X98658Y345992D01*
X98710Y346022D01*
X98764Y346048D01*
X98820Y346071D01*
X98877Y346091D01*
X98935Y346107D01*
X98994Y346120D01*
X99054Y346129D01*
X99114Y346134D01*
X99174Y346136D01*
X99260Y346134D01*
X99346Y346128D01*
X99431Y346118D01*
X99516Y346104D01*
X99600Y346087D01*
X99684Y346065D01*
X99766Y346040D01*
X99847Y346011D01*
X99927Y345978D01*
X100004Y345942D01*
X100081Y345902D01*
X100155Y345858D01*
X100227Y345812D01*
X100297Y345762D01*
X98674Y344264D02*
X98622Y344297D01*
X98572Y344334D01*
X98524Y344373D01*
X98478Y344415D01*
X98435Y344460D01*
X98395Y344507D01*
X98358Y344556D01*
X98324Y344608D01*
X98294Y344662D01*
X98266Y344718D01*
X98242Y344775D01*
X98222Y344833D01*
X98205Y344893D01*
X98192Y344953D01*
X98183Y345014D01*
X98177Y345076D01*
X98175Y345138D01*
X100047Y343516D02*
X100099Y343483D01*
X100149Y343446D01*
X100197Y343407D01*
X100243Y343365D01*
X100286Y343320D01*
X100326Y343273D01*
X100363Y343224D01*
X100397Y343172D01*
X100427Y343118D01*
X100455Y343062D01*
X100479Y343005D01*
X100499Y342947D01*
X100516Y342887D01*
X100529Y342827D01*
X100538Y342766D01*
X100544Y342704D01*
X100546Y342642D01*
X100047Y343516D02*
X98674Y344264D01*
X102401Y344888D02*
X102401Y342892D01*
X102400Y344888D02*
X102402Y344957D01*
X102408Y345025D01*
X102417Y345093D01*
X102430Y345161D01*
X102447Y345228D01*
X102468Y345293D01*
X102492Y345358D01*
X102519Y345421D01*
X102550Y345482D01*
X102585Y345542D01*
X102622Y345599D01*
X102663Y345655D01*
X102707Y345708D01*
X102753Y345758D01*
X102803Y345806D01*
X102855Y345851D01*
X102909Y345894D01*
X102965Y345933D01*
X103024Y345969D01*
X103084Y346002D01*
X103147Y346031D01*
X103210Y346057D01*
X103275Y346079D01*
X103342Y346098D01*
X103409Y346113D01*
X103477Y346124D01*
X103545Y346132D01*
X103614Y346136D01*
X103682Y346136D01*
X103751Y346132D01*
X103819Y346124D01*
X103887Y346113D01*
X103954Y346098D01*
X104021Y346079D01*
X104086Y346057D01*
X104149Y346031D01*
X104212Y346002D01*
X104272Y345969D01*
X104331Y345933D01*
X104387Y345894D01*
X104441Y345851D01*
X104493Y345806D01*
X104543Y345758D01*
X104589Y345708D01*
X104633Y345655D01*
X104674Y345599D01*
X104711Y345542D01*
X104746Y345482D01*
X104777Y345421D01*
X104804Y345358D01*
X104828Y345293D01*
X104849Y345228D01*
X104866Y345161D01*
X104879Y345093D01*
X104888Y345025D01*
X104894Y344957D01*
X104896Y344888D01*
X104896Y342892D01*
X104894Y342823D01*
X104888Y342755D01*
X104879Y342687D01*
X104866Y342619D01*
X104849Y342552D01*
X104828Y342487D01*
X104804Y342422D01*
X104777Y342359D01*
X104746Y342298D01*
X104711Y342238D01*
X104674Y342181D01*
X104633Y342125D01*
X104589Y342072D01*
X104543Y342022D01*
X104493Y341974D01*
X104441Y341929D01*
X104387Y341886D01*
X104331Y341847D01*
X104272Y341811D01*
X104212Y341778D01*
X104149Y341749D01*
X104086Y341723D01*
X104021Y341701D01*
X103954Y341682D01*
X103887Y341667D01*
X103819Y341656D01*
X103751Y341648D01*
X103682Y341644D01*
X103614Y341644D01*
X103545Y341648D01*
X103477Y341656D01*
X103409Y341667D01*
X103342Y341682D01*
X103275Y341701D01*
X103210Y341723D01*
X103147Y341749D01*
X103084Y341778D01*
X103024Y341811D01*
X102965Y341847D01*
X102909Y341886D01*
X102855Y341929D01*
X102803Y341974D01*
X102753Y342022D01*
X102707Y342072D01*
X102663Y342125D01*
X102622Y342181D01*
X102585Y342238D01*
X102550Y342298D01*
X102519Y342359D01*
X102492Y342422D01*
X102468Y342487D01*
X102447Y342552D01*
X102430Y342619D01*
X102417Y342687D01*
X102408Y342755D01*
X102402Y342823D01*
X102400Y342892D01*
X107083Y341644D02*
X107083Y346136D01*
X108331Y346136D01*
X108400Y346134D01*
X108468Y346128D01*
X108536Y346119D01*
X108604Y346106D01*
X108671Y346089D01*
X108736Y346068D01*
X108801Y346044D01*
X108864Y346017D01*
X108925Y345986D01*
X108985Y345951D01*
X109042Y345914D01*
X109098Y345873D01*
X109151Y345829D01*
X109201Y345783D01*
X109249Y345733D01*
X109294Y345681D01*
X109337Y345627D01*
X109376Y345571D01*
X109412Y345512D01*
X109445Y345452D01*
X109474Y345389D01*
X109500Y345326D01*
X109522Y345261D01*
X109541Y345194D01*
X109556Y345127D01*
X109567Y345059D01*
X109575Y344991D01*
X109579Y344922D01*
X109579Y344854D01*
X109575Y344785D01*
X109567Y344717D01*
X109556Y344649D01*
X109541Y344582D01*
X109522Y344515D01*
X109500Y344450D01*
X109474Y344387D01*
X109445Y344324D01*
X109412Y344264D01*
X109376Y344205D01*
X109337Y344149D01*
X109294Y344095D01*
X109249Y344043D01*
X109201Y343993D01*
X109151Y343947D01*
X109098Y343903D01*
X109042Y343862D01*
X108985Y343825D01*
X108925Y343790D01*
X108864Y343759D01*
X108801Y343732D01*
X108736Y343708D01*
X108671Y343687D01*
X108604Y343670D01*
X108536Y343657D01*
X108468Y343648D01*
X108400Y343642D01*
X108331Y343640D01*
X107083Y343640D01*
X108581Y343640D02*
X109579Y341644D01*
X114046Y345013D02*
X114044Y345078D01*
X114038Y345143D01*
X114029Y345208D01*
X114016Y345272D01*
X113999Y345335D01*
X113978Y345397D01*
X113954Y345458D01*
X113927Y345517D01*
X113896Y345575D01*
X113861Y345630D01*
X113824Y345684D01*
X113783Y345735D01*
X113740Y345784D01*
X113694Y345830D01*
X113645Y345873D01*
X113594Y345914D01*
X113540Y345951D01*
X113485Y345986D01*
X113427Y346017D01*
X113368Y346044D01*
X113307Y346068D01*
X113245Y346089D01*
X113182Y346106D01*
X113118Y346119D01*
X113053Y346128D01*
X112988Y346134D01*
X112923Y346136D01*
X112850Y346134D01*
X112778Y346129D01*
X112706Y346120D01*
X112635Y346107D01*
X112564Y346091D01*
X112494Y346071D01*
X112425Y346047D01*
X112358Y346021D01*
X112292Y345991D01*
X112227Y345957D01*
X112165Y345921D01*
X112104Y345881D01*
X112045Y345838D01*
X111989Y345793D01*
X111935Y345744D01*
X111883Y345693D01*
X111834Y345640D01*
X111788Y345584D01*
X111744Y345526D01*
X111704Y345465D01*
X111667Y345403D01*
X111633Y345339D01*
X111602Y345273D01*
X111574Y345206D01*
X111550Y345138D01*
X113672Y344140D02*
X113718Y344186D01*
X113761Y344234D01*
X113802Y344285D01*
X113840Y344338D01*
X113875Y344393D01*
X113906Y344450D01*
X113935Y344508D01*
X113961Y344568D01*
X113983Y344629D01*
X114002Y344691D01*
X114018Y344755D01*
X114030Y344819D01*
X114039Y344883D01*
X114044Y344948D01*
X114046Y345013D01*
X113672Y344140D02*
X111550Y341644D01*
X114046Y341644D01*
D15*
X329558Y317045D02*
X341242Y317045D01*
X329558Y317045D02*
X329558Y320290D01*
X329560Y320403D01*
X329566Y320516D01*
X329576Y320629D01*
X329590Y320742D01*
X329607Y320854D01*
X329629Y320965D01*
X329654Y321075D01*
X329684Y321185D01*
X329717Y321293D01*
X329754Y321400D01*
X329794Y321506D01*
X329839Y321610D01*
X329887Y321713D01*
X329938Y321814D01*
X329993Y321913D01*
X330051Y322010D01*
X330113Y322105D01*
X330178Y322198D01*
X330246Y322288D01*
X330317Y322376D01*
X330392Y322462D01*
X330469Y322545D01*
X330549Y322625D01*
X330632Y322702D01*
X330718Y322777D01*
X330806Y322848D01*
X330896Y322916D01*
X330989Y322981D01*
X331084Y323043D01*
X331181Y323101D01*
X331280Y323156D01*
X331381Y323207D01*
X331484Y323255D01*
X331588Y323300D01*
X331694Y323340D01*
X331801Y323377D01*
X331909Y323410D01*
X332019Y323440D01*
X332129Y323465D01*
X332240Y323487D01*
X332352Y323504D01*
X332465Y323518D01*
X332578Y323528D01*
X332691Y323534D01*
X332804Y323536D01*
X332917Y323534D01*
X333030Y323528D01*
X333143Y323518D01*
X333256Y323504D01*
X333368Y323487D01*
X333479Y323465D01*
X333589Y323440D01*
X333699Y323410D01*
X333807Y323377D01*
X333914Y323340D01*
X334020Y323300D01*
X334124Y323255D01*
X334227Y323207D01*
X334328Y323156D01*
X334427Y323101D01*
X334524Y323043D01*
X334619Y322981D01*
X334712Y322916D01*
X334802Y322848D01*
X334890Y322777D01*
X334976Y322702D01*
X335059Y322625D01*
X335139Y322545D01*
X335216Y322462D01*
X335291Y322376D01*
X335362Y322288D01*
X335430Y322198D01*
X335495Y322105D01*
X335557Y322010D01*
X335615Y321913D01*
X335670Y321814D01*
X335721Y321713D01*
X335769Y321610D01*
X335814Y321506D01*
X335854Y321400D01*
X335891Y321293D01*
X335924Y321185D01*
X335954Y321075D01*
X335979Y320965D01*
X336001Y320854D01*
X336018Y320742D01*
X336032Y320629D01*
X336042Y320516D01*
X336048Y320403D01*
X336050Y320290D01*
X336049Y320290D02*
X336049Y317045D01*
X336049Y320939D02*
X341242Y323536D01*
X338646Y328401D02*
X329558Y330997D01*
X338646Y328401D02*
X338646Y334892D01*
X336049Y332945D02*
X341242Y332945D01*
X56242Y322045D02*
X44558Y322045D01*
X44558Y325290D01*
X44560Y325403D01*
X44566Y325516D01*
X44576Y325629D01*
X44590Y325742D01*
X44607Y325854D01*
X44629Y325965D01*
X44654Y326075D01*
X44684Y326185D01*
X44717Y326293D01*
X44754Y326400D01*
X44794Y326506D01*
X44839Y326610D01*
X44887Y326713D01*
X44938Y326814D01*
X44993Y326913D01*
X45051Y327010D01*
X45113Y327105D01*
X45178Y327198D01*
X45246Y327288D01*
X45317Y327376D01*
X45392Y327462D01*
X45469Y327545D01*
X45549Y327625D01*
X45632Y327702D01*
X45718Y327777D01*
X45806Y327848D01*
X45896Y327916D01*
X45989Y327981D01*
X46084Y328043D01*
X46181Y328101D01*
X46280Y328156D01*
X46381Y328207D01*
X46484Y328255D01*
X46588Y328300D01*
X46694Y328340D01*
X46801Y328377D01*
X46909Y328410D01*
X47019Y328440D01*
X47129Y328465D01*
X47240Y328487D01*
X47352Y328504D01*
X47465Y328518D01*
X47578Y328528D01*
X47691Y328534D01*
X47804Y328536D01*
X47917Y328534D01*
X48030Y328528D01*
X48143Y328518D01*
X48256Y328504D01*
X48368Y328487D01*
X48479Y328465D01*
X48589Y328440D01*
X48699Y328410D01*
X48807Y328377D01*
X48914Y328340D01*
X49020Y328300D01*
X49124Y328255D01*
X49227Y328207D01*
X49328Y328156D01*
X49427Y328101D01*
X49524Y328043D01*
X49619Y327981D01*
X49712Y327916D01*
X49802Y327848D01*
X49890Y327777D01*
X49976Y327702D01*
X50059Y327625D01*
X50139Y327545D01*
X50216Y327462D01*
X50291Y327376D01*
X50362Y327288D01*
X50430Y327198D01*
X50495Y327105D01*
X50557Y327010D01*
X50615Y326913D01*
X50670Y326814D01*
X50721Y326713D01*
X50769Y326610D01*
X50814Y326506D01*
X50854Y326400D01*
X50891Y326293D01*
X50924Y326185D01*
X50954Y326075D01*
X50979Y325965D01*
X51001Y325854D01*
X51018Y325742D01*
X51032Y325629D01*
X51042Y325516D01*
X51048Y325403D01*
X51050Y325290D01*
X51049Y325290D02*
X51049Y322045D01*
X51049Y325939D02*
X56242Y328536D01*
X56242Y333401D02*
X56242Y337296D01*
X56240Y337395D01*
X56234Y337495D01*
X56225Y337594D01*
X56212Y337692D01*
X56195Y337790D01*
X56174Y337888D01*
X56149Y337984D01*
X56121Y338079D01*
X56089Y338173D01*
X56054Y338266D01*
X56015Y338358D01*
X55972Y338448D01*
X55927Y338536D01*
X55877Y338623D01*
X55825Y338707D01*
X55769Y338790D01*
X55711Y338870D01*
X55649Y338948D01*
X55584Y339023D01*
X55516Y339096D01*
X55446Y339166D01*
X55373Y339234D01*
X55298Y339299D01*
X55220Y339361D01*
X55140Y339419D01*
X55057Y339475D01*
X54973Y339527D01*
X54886Y339577D01*
X54798Y339622D01*
X54708Y339665D01*
X54616Y339704D01*
X54523Y339739D01*
X54429Y339771D01*
X54334Y339799D01*
X54238Y339824D01*
X54140Y339845D01*
X54042Y339862D01*
X53944Y339875D01*
X53845Y339884D01*
X53745Y339890D01*
X53646Y339892D01*
X52347Y339892D01*
X52248Y339890D01*
X52148Y339884D01*
X52049Y339875D01*
X51951Y339862D01*
X51853Y339845D01*
X51755Y339824D01*
X51659Y339799D01*
X51564Y339771D01*
X51470Y339739D01*
X51377Y339704D01*
X51285Y339665D01*
X51195Y339622D01*
X51107Y339577D01*
X51020Y339527D01*
X50936Y339475D01*
X50853Y339419D01*
X50773Y339361D01*
X50695Y339299D01*
X50620Y339234D01*
X50547Y339166D01*
X50477Y339096D01*
X50409Y339023D01*
X50344Y338948D01*
X50282Y338870D01*
X50224Y338790D01*
X50168Y338707D01*
X50116Y338623D01*
X50066Y338536D01*
X50021Y338448D01*
X49978Y338358D01*
X49939Y338266D01*
X49904Y338173D01*
X49872Y338079D01*
X49844Y337984D01*
X49819Y337888D01*
X49798Y337790D01*
X49781Y337692D01*
X49768Y337594D01*
X49759Y337495D01*
X49753Y337395D01*
X49751Y337296D01*
X49751Y333401D01*
X44558Y333401D01*
X44558Y339892D01*
X272045Y378758D02*
X272045Y390442D01*
X275290Y390442D01*
X275403Y390440D01*
X275516Y390434D01*
X275629Y390424D01*
X275742Y390410D01*
X275854Y390393D01*
X275965Y390371D01*
X276075Y390346D01*
X276185Y390316D01*
X276293Y390283D01*
X276400Y390246D01*
X276506Y390206D01*
X276610Y390161D01*
X276713Y390113D01*
X276814Y390062D01*
X276913Y390007D01*
X277010Y389949D01*
X277105Y389887D01*
X277198Y389822D01*
X277288Y389754D01*
X277376Y389683D01*
X277462Y389608D01*
X277545Y389531D01*
X277625Y389451D01*
X277702Y389368D01*
X277777Y389282D01*
X277848Y389194D01*
X277916Y389104D01*
X277981Y389011D01*
X278043Y388916D01*
X278101Y388819D01*
X278156Y388720D01*
X278207Y388619D01*
X278255Y388516D01*
X278300Y388412D01*
X278340Y388306D01*
X278377Y388199D01*
X278410Y388091D01*
X278440Y387981D01*
X278465Y387871D01*
X278487Y387760D01*
X278504Y387648D01*
X278518Y387535D01*
X278528Y387422D01*
X278534Y387309D01*
X278536Y387196D01*
X278534Y387083D01*
X278528Y386970D01*
X278518Y386857D01*
X278504Y386744D01*
X278487Y386632D01*
X278465Y386521D01*
X278440Y386411D01*
X278410Y386301D01*
X278377Y386193D01*
X278340Y386086D01*
X278300Y385980D01*
X278255Y385876D01*
X278207Y385773D01*
X278156Y385672D01*
X278101Y385573D01*
X278043Y385476D01*
X277981Y385381D01*
X277916Y385288D01*
X277848Y385198D01*
X277777Y385110D01*
X277702Y385024D01*
X277625Y384941D01*
X277545Y384861D01*
X277462Y384784D01*
X277376Y384709D01*
X277288Y384638D01*
X277198Y384570D01*
X277105Y384505D01*
X277010Y384443D01*
X276913Y384385D01*
X276814Y384330D01*
X276713Y384279D01*
X276610Y384231D01*
X276506Y384186D01*
X276400Y384146D01*
X276293Y384109D01*
X276185Y384076D01*
X276075Y384046D01*
X275965Y384021D01*
X275854Y383999D01*
X275742Y383982D01*
X275629Y383968D01*
X275516Y383958D01*
X275403Y383952D01*
X275290Y383950D01*
X275290Y383951D02*
X272045Y383951D01*
X275939Y383951D02*
X278536Y378758D01*
X283401Y385249D02*
X287296Y385249D01*
X287395Y385247D01*
X287495Y385241D01*
X287594Y385232D01*
X287692Y385219D01*
X287790Y385202D01*
X287888Y385181D01*
X287984Y385156D01*
X288079Y385128D01*
X288173Y385096D01*
X288266Y385061D01*
X288358Y385022D01*
X288448Y384979D01*
X288536Y384934D01*
X288623Y384884D01*
X288707Y384832D01*
X288790Y384776D01*
X288870Y384718D01*
X288948Y384656D01*
X289023Y384591D01*
X289096Y384523D01*
X289166Y384453D01*
X289234Y384380D01*
X289299Y384305D01*
X289361Y384227D01*
X289419Y384147D01*
X289475Y384064D01*
X289527Y383980D01*
X289577Y383893D01*
X289622Y383805D01*
X289665Y383715D01*
X289704Y383623D01*
X289739Y383530D01*
X289771Y383436D01*
X289799Y383341D01*
X289824Y383245D01*
X289845Y383147D01*
X289862Y383049D01*
X289875Y382951D01*
X289884Y382852D01*
X289890Y382752D01*
X289892Y382653D01*
X289892Y382004D01*
X289890Y381891D01*
X289884Y381778D01*
X289874Y381665D01*
X289860Y381552D01*
X289843Y381440D01*
X289821Y381329D01*
X289796Y381219D01*
X289766Y381109D01*
X289733Y381001D01*
X289696Y380894D01*
X289656Y380788D01*
X289611Y380684D01*
X289563Y380581D01*
X289512Y380480D01*
X289457Y380381D01*
X289399Y380284D01*
X289337Y380189D01*
X289272Y380096D01*
X289204Y380006D01*
X289133Y379918D01*
X289058Y379832D01*
X288981Y379749D01*
X288901Y379669D01*
X288818Y379592D01*
X288732Y379517D01*
X288644Y379446D01*
X288554Y379378D01*
X288461Y379313D01*
X288366Y379251D01*
X288269Y379193D01*
X288170Y379138D01*
X288069Y379087D01*
X287966Y379039D01*
X287862Y378994D01*
X287756Y378954D01*
X287649Y378917D01*
X287541Y378884D01*
X287431Y378854D01*
X287321Y378829D01*
X287210Y378807D01*
X287098Y378790D01*
X286985Y378776D01*
X286872Y378766D01*
X286759Y378760D01*
X286646Y378758D01*
X286533Y378760D01*
X286420Y378766D01*
X286307Y378776D01*
X286194Y378790D01*
X286082Y378807D01*
X285971Y378829D01*
X285861Y378854D01*
X285751Y378884D01*
X285643Y378917D01*
X285536Y378954D01*
X285430Y378994D01*
X285326Y379039D01*
X285223Y379087D01*
X285122Y379138D01*
X285023Y379193D01*
X284926Y379251D01*
X284831Y379313D01*
X284738Y379378D01*
X284648Y379446D01*
X284560Y379517D01*
X284474Y379592D01*
X284391Y379669D01*
X284311Y379749D01*
X284234Y379832D01*
X284159Y379918D01*
X284088Y380006D01*
X284020Y380096D01*
X283955Y380189D01*
X283893Y380284D01*
X283835Y380381D01*
X283780Y380480D01*
X283729Y380581D01*
X283681Y380684D01*
X283636Y380788D01*
X283596Y380894D01*
X283559Y381001D01*
X283526Y381109D01*
X283496Y381219D01*
X283471Y381329D01*
X283449Y381440D01*
X283432Y381552D01*
X283418Y381665D01*
X283408Y381778D01*
X283402Y381891D01*
X283400Y382004D01*
X283401Y382004D02*
X283401Y385249D01*
X283403Y385392D01*
X283409Y385535D01*
X283419Y385678D01*
X283433Y385820D01*
X283450Y385962D01*
X283472Y386104D01*
X283497Y386245D01*
X283527Y386385D01*
X283560Y386524D01*
X283597Y386662D01*
X283638Y386799D01*
X283682Y386935D01*
X283731Y387070D01*
X283783Y387203D01*
X283838Y387335D01*
X283898Y387465D01*
X283961Y387594D01*
X284027Y387721D01*
X284097Y387845D01*
X284170Y387968D01*
X284247Y388089D01*
X284327Y388208D01*
X284410Y388324D01*
X284496Y388439D01*
X284585Y388550D01*
X284678Y388660D01*
X284773Y388766D01*
X284872Y388870D01*
X284973Y388971D01*
X285077Y389070D01*
X285183Y389165D01*
X285293Y389258D01*
X285404Y389347D01*
X285519Y389433D01*
X285635Y389516D01*
X285754Y389596D01*
X285875Y389673D01*
X285997Y389746D01*
X286122Y389816D01*
X286249Y389882D01*
X286378Y389945D01*
X286508Y390005D01*
X286640Y390060D01*
X286773Y390112D01*
X286908Y390161D01*
X287044Y390205D01*
X287181Y390246D01*
X287319Y390283D01*
X287458Y390316D01*
X287598Y390346D01*
X287739Y390371D01*
X287881Y390393D01*
X288023Y390410D01*
X288165Y390424D01*
X288308Y390434D01*
X288451Y390440D01*
X288594Y390442D01*
D16*
X315250Y257250D03*
D15*
X320508Y244779D02*
X332192Y244779D01*
X326999Y248673D02*
X320508Y244779D01*
X326999Y248673D02*
X320508Y252568D01*
X332192Y252568D01*
X323104Y258001D02*
X320508Y261246D01*
X332192Y261246D01*
X332192Y258001D02*
X332192Y264492D01*
D17*
X310000Y250000D03*
D16*
X30250Y257250D03*
D15*
X35508Y244779D02*
X47192Y244779D01*
X41999Y248673D02*
X35508Y244779D01*
X41999Y248673D02*
X35508Y252568D01*
X47192Y252568D01*
X35508Y261571D02*
X35510Y261678D01*
X35516Y261784D01*
X35526Y261890D01*
X35539Y261996D01*
X35557Y262102D01*
X35578Y262206D01*
X35603Y262310D01*
X35632Y262413D01*
X35664Y262514D01*
X35701Y262614D01*
X35741Y262713D01*
X35784Y262811D01*
X35831Y262907D01*
X35882Y263001D01*
X35936Y263093D01*
X35993Y263183D01*
X36053Y263271D01*
X36117Y263356D01*
X36184Y263439D01*
X36254Y263520D01*
X36326Y263598D01*
X36402Y263674D01*
X36480Y263746D01*
X36561Y263816D01*
X36644Y263883D01*
X36729Y263947D01*
X36817Y264007D01*
X36907Y264064D01*
X36999Y264118D01*
X37093Y264169D01*
X37189Y264216D01*
X37287Y264259D01*
X37386Y264299D01*
X37486Y264336D01*
X37587Y264368D01*
X37690Y264397D01*
X37794Y264422D01*
X37898Y264443D01*
X38004Y264461D01*
X38110Y264474D01*
X38216Y264484D01*
X38322Y264490D01*
X38429Y264492D01*
X35508Y261571D02*
X35510Y261450D01*
X35516Y261329D01*
X35526Y261209D01*
X35539Y261088D01*
X35557Y260969D01*
X35578Y260849D01*
X35603Y260731D01*
X35632Y260614D01*
X35665Y260497D01*
X35701Y260382D01*
X35742Y260268D01*
X35785Y260155D01*
X35833Y260043D01*
X35884Y259934D01*
X35939Y259826D01*
X35997Y259719D01*
X36058Y259615D01*
X36123Y259513D01*
X36191Y259413D01*
X36262Y259315D01*
X36336Y259219D01*
X36413Y259126D01*
X36494Y259036D01*
X36577Y258948D01*
X36663Y258863D01*
X36752Y258780D01*
X36843Y258701D01*
X36937Y258624D01*
X37033Y258551D01*
X37131Y258481D01*
X37232Y258414D01*
X37335Y258350D01*
X37440Y258290D01*
X37547Y258232D01*
X37655Y258179D01*
X37765Y258129D01*
X37877Y258083D01*
X37990Y258040D01*
X38105Y258001D01*
X40701Y263518D02*
X40623Y263597D01*
X40543Y263673D01*
X40460Y263746D01*
X40374Y263816D01*
X40287Y263883D01*
X40196Y263947D01*
X40104Y264007D01*
X40010Y264065D01*
X39913Y264119D01*
X39815Y264169D01*
X39715Y264216D01*
X39614Y264260D01*
X39511Y264300D01*
X39406Y264336D01*
X39301Y264368D01*
X39194Y264397D01*
X39087Y264422D01*
X38978Y264444D01*
X38869Y264461D01*
X38760Y264475D01*
X38650Y264484D01*
X38539Y264490D01*
X38429Y264492D01*
X40701Y263518D02*
X47192Y258001D01*
X47192Y264492D01*
D17*
X25000Y250000D03*
D16*
X257750Y380250D03*
D15*
X250508Y385508D02*
X250508Y397192D01*
X250508Y391999D02*
X256999Y391999D01*
X256999Y397192D02*
X256999Y385508D01*
X262723Y385508D02*
X267915Y385508D01*
X262723Y385508D02*
X262723Y397192D01*
X267915Y397192D01*
X266617Y391999D02*
X262723Y391999D01*
X271576Y385508D02*
X275471Y397192D01*
X279365Y385508D01*
X278392Y388429D02*
X272550Y388429D01*
X284110Y385508D02*
X284110Y397192D01*
X287355Y397192D01*
X287468Y397190D01*
X287581Y397184D01*
X287694Y397174D01*
X287807Y397160D01*
X287919Y397143D01*
X288030Y397121D01*
X288140Y397096D01*
X288250Y397066D01*
X288358Y397033D01*
X288465Y396996D01*
X288571Y396956D01*
X288675Y396911D01*
X288778Y396863D01*
X288879Y396812D01*
X288978Y396757D01*
X289075Y396699D01*
X289170Y396637D01*
X289263Y396572D01*
X289353Y396504D01*
X289441Y396433D01*
X289527Y396358D01*
X289610Y396281D01*
X289690Y396201D01*
X289767Y396118D01*
X289842Y396032D01*
X289913Y395944D01*
X289981Y395854D01*
X290046Y395761D01*
X290108Y395666D01*
X290166Y395569D01*
X290221Y395470D01*
X290272Y395369D01*
X290320Y395266D01*
X290365Y395162D01*
X290405Y395056D01*
X290442Y394949D01*
X290475Y394841D01*
X290505Y394731D01*
X290530Y394621D01*
X290552Y394510D01*
X290569Y394398D01*
X290583Y394285D01*
X290593Y394172D01*
X290599Y394059D01*
X290601Y393946D01*
X290599Y393833D01*
X290593Y393720D01*
X290583Y393607D01*
X290569Y393494D01*
X290552Y393382D01*
X290530Y393271D01*
X290505Y393161D01*
X290475Y393051D01*
X290442Y392943D01*
X290405Y392836D01*
X290365Y392730D01*
X290320Y392626D01*
X290272Y392523D01*
X290221Y392422D01*
X290166Y392323D01*
X290108Y392226D01*
X290046Y392131D01*
X289981Y392038D01*
X289913Y391948D01*
X289842Y391860D01*
X289767Y391774D01*
X289690Y391691D01*
X289610Y391611D01*
X289527Y391534D01*
X289441Y391459D01*
X289353Y391388D01*
X289263Y391320D01*
X289170Y391255D01*
X289075Y391193D01*
X288978Y391135D01*
X288879Y391080D01*
X288778Y391029D01*
X288675Y390981D01*
X288571Y390936D01*
X288465Y390896D01*
X288358Y390859D01*
X288250Y390826D01*
X288140Y390796D01*
X288030Y390771D01*
X287919Y390749D01*
X287807Y390732D01*
X287694Y390718D01*
X287581Y390708D01*
X287468Y390702D01*
X287355Y390700D01*
X287355Y390701D02*
X284110Y390701D01*
X288004Y390701D02*
X290601Y385508D01*
X297949Y385508D02*
X297949Y397192D01*
X294704Y397192D02*
X301195Y397192D01*
D17*
X265000Y375000D03*
M02*
