G04 EAGLE Gerber X2 export*
%TF.Part,Single*%
%TF.FileFunction,Copper,L2,Bot,Mixed*%
%TF.FilePolarity,Positive*%
%TF.GenerationSoftware,Autodesk,EAGLE,9.1.0*%
%TF.CreationDate,2018-11-28T00:37:37Z*%
G75*
%MOMM*%
%FSLAX34Y34*%
%LPD*%
%AMOC8*
5,1,8,0,0,1.08239X$1,22.5*%
G01*
%ADD10C,1.308000*%
%ADD11P,2.336880X8X22.500000*%
%ADD12C,0.500000*%
%ADD13C,0.756400*%

G36*
X203336Y10926D02*
X203336Y10926D01*
X203355Y10924D01*
X203457Y10946D01*
X203559Y10962D01*
X203576Y10972D01*
X203596Y10976D01*
X203685Y11029D01*
X203776Y11078D01*
X203790Y11092D01*
X203807Y11102D01*
X203874Y11181D01*
X203946Y11256D01*
X203954Y11274D01*
X203967Y11289D01*
X204006Y11385D01*
X204049Y11479D01*
X204051Y11499D01*
X204059Y11517D01*
X204077Y11684D01*
X204077Y253316D01*
X204074Y253336D01*
X204076Y253355D01*
X204054Y253457D01*
X204038Y253559D01*
X204028Y253576D01*
X204024Y253596D01*
X203971Y253685D01*
X203922Y253776D01*
X203908Y253790D01*
X203898Y253807D01*
X203819Y253874D01*
X203744Y253946D01*
X203726Y253954D01*
X203711Y253967D01*
X203615Y254006D01*
X203521Y254049D01*
X203501Y254051D01*
X203483Y254059D01*
X203316Y254077D01*
X185860Y254077D01*
X185815Y254070D01*
X185769Y254072D01*
X185694Y254050D01*
X185618Y254038D01*
X185577Y254016D01*
X185533Y254003D01*
X185469Y253959D01*
X185400Y253922D01*
X185369Y253889D01*
X185331Y253863D01*
X185284Y253800D01*
X185231Y253744D01*
X185211Y253702D01*
X185184Y253666D01*
X185160Y253592D01*
X185127Y253521D01*
X185122Y253475D01*
X185108Y253432D01*
X185109Y253354D01*
X185100Y253277D01*
X185110Y253232D01*
X185110Y253186D01*
X185148Y253055D01*
X185152Y253036D01*
X185155Y253032D01*
X185157Y253025D01*
X185161Y253016D01*
X185161Y246984D01*
X182853Y241412D01*
X178588Y237147D01*
X173016Y234839D01*
X166984Y234839D01*
X161412Y237147D01*
X157147Y241412D01*
X154839Y246984D01*
X154839Y253016D01*
X154843Y253025D01*
X154853Y253069D01*
X154873Y253111D01*
X154881Y253188D01*
X154899Y253264D01*
X154895Y253310D01*
X154900Y253355D01*
X154883Y253431D01*
X154876Y253509D01*
X154857Y253551D01*
X154848Y253596D01*
X154808Y253663D01*
X154776Y253734D01*
X154745Y253768D01*
X154722Y253807D01*
X154662Y253858D01*
X154610Y253915D01*
X154570Y253937D01*
X154535Y253967D01*
X154462Y253996D01*
X154394Y254033D01*
X154349Y254042D01*
X154306Y254059D01*
X154171Y254074D01*
X154152Y254077D01*
X154147Y254076D01*
X154140Y254077D01*
X35860Y254077D01*
X35815Y254070D01*
X35769Y254072D01*
X35694Y254050D01*
X35618Y254038D01*
X35577Y254016D01*
X35533Y254003D01*
X35469Y253959D01*
X35400Y253922D01*
X35369Y253889D01*
X35331Y253863D01*
X35284Y253800D01*
X35231Y253744D01*
X35211Y253702D01*
X35184Y253666D01*
X35160Y253592D01*
X35127Y253521D01*
X35122Y253475D01*
X35108Y253432D01*
X35109Y253354D01*
X35100Y253277D01*
X35110Y253232D01*
X35110Y253186D01*
X35148Y253055D01*
X35152Y253036D01*
X35155Y253032D01*
X35157Y253025D01*
X35161Y253016D01*
X35161Y246984D01*
X32853Y241412D01*
X28588Y237147D01*
X23016Y234839D01*
X16984Y234839D01*
X11975Y236914D01*
X11931Y236925D01*
X11889Y236944D01*
X11812Y236952D01*
X11736Y236970D01*
X11690Y236966D01*
X11645Y236971D01*
X11568Y236954D01*
X11491Y236947D01*
X11449Y236929D01*
X11404Y236919D01*
X11337Y236879D01*
X11266Y236847D01*
X11232Y236816D01*
X11193Y236793D01*
X11142Y236733D01*
X11085Y236681D01*
X11063Y236641D01*
X11033Y236606D01*
X11004Y236533D01*
X10967Y236465D01*
X10958Y236420D01*
X10941Y236378D01*
X10926Y236242D01*
X10923Y236223D01*
X10924Y236218D01*
X10923Y236211D01*
X10923Y63789D01*
X10930Y63744D01*
X10928Y63698D01*
X10950Y63623D01*
X10962Y63546D01*
X10984Y63506D01*
X10997Y63462D01*
X11041Y63398D01*
X11078Y63329D01*
X11111Y63298D01*
X11137Y63260D01*
X11200Y63213D01*
X11256Y63160D01*
X11298Y63140D01*
X11334Y63113D01*
X11408Y63089D01*
X11479Y63056D01*
X11525Y63051D01*
X11568Y63037D01*
X11646Y63038D01*
X11723Y63029D01*
X11768Y63039D01*
X11814Y63039D01*
X11946Y63077D01*
X11964Y63081D01*
X11968Y63084D01*
X11975Y63086D01*
X16984Y65161D01*
X23016Y65161D01*
X28588Y62853D01*
X32654Y58787D01*
X32733Y58730D01*
X32808Y58668D01*
X32832Y58659D01*
X32853Y58643D01*
X32946Y58615D01*
X33037Y58580D01*
X33063Y58579D01*
X33088Y58571D01*
X33186Y58574D01*
X33283Y58569D01*
X33308Y58577D01*
X33334Y58577D01*
X33426Y58611D01*
X33519Y58638D01*
X33541Y58653D01*
X33565Y58662D01*
X33641Y58723D01*
X33721Y58778D01*
X33737Y58799D01*
X33757Y58816D01*
X33810Y58898D01*
X33868Y58976D01*
X33876Y59000D01*
X33890Y59023D01*
X33914Y59117D01*
X33944Y59210D01*
X33944Y59236D01*
X33950Y59261D01*
X33943Y59358D01*
X33942Y59455D01*
X33933Y59487D01*
X33931Y59506D01*
X33918Y59537D01*
X33895Y59617D01*
X33217Y61253D01*
X33217Y61977D01*
X33207Y62041D01*
X33206Y62107D01*
X33183Y62187D01*
X33178Y62219D01*
X33168Y62237D01*
X33159Y62268D01*
X32749Y63258D01*
X32749Y151992D01*
X33891Y154749D01*
X64001Y184859D01*
X65130Y185326D01*
X65208Y185375D01*
X65289Y185416D01*
X65312Y185439D01*
X65339Y185456D01*
X65397Y185526D01*
X65461Y185591D01*
X65481Y185627D01*
X65496Y185646D01*
X65508Y185676D01*
X65542Y185738D01*
X66054Y186975D01*
X68525Y189446D01*
X70599Y190305D01*
X70638Y190329D01*
X70681Y190345D01*
X70742Y190393D01*
X70808Y190434D01*
X70837Y190470D01*
X70873Y190498D01*
X70915Y190564D01*
X70965Y190624D01*
X70981Y190667D01*
X71006Y190705D01*
X71025Y190781D01*
X71053Y190853D01*
X71055Y190899D01*
X71066Y190944D01*
X71060Y191021D01*
X71064Y191099D01*
X71051Y191143D01*
X71047Y191189D01*
X71017Y191261D01*
X70995Y191335D01*
X70969Y191373D01*
X70951Y191415D01*
X70865Y191522D01*
X70855Y191537D01*
X70851Y191540D01*
X70846Y191546D01*
X65858Y196534D01*
X64002Y198390D01*
X63949Y198428D01*
X63902Y198474D01*
X63829Y198514D01*
X63803Y198534D01*
X63784Y198539D01*
X63755Y198555D01*
X63463Y198676D01*
X60216Y201923D01*
X58459Y206164D01*
X58459Y223836D01*
X60216Y228077D01*
X63463Y231324D01*
X67704Y233081D01*
X72296Y233081D01*
X76537Y231324D01*
X79784Y228077D01*
X81541Y223836D01*
X81541Y206164D01*
X80535Y203737D01*
X80509Y203623D01*
X80480Y203510D01*
X80481Y203504D01*
X80479Y203498D01*
X80490Y203381D01*
X80499Y203265D01*
X80502Y203259D01*
X80502Y203253D01*
X80550Y203145D01*
X80595Y203038D01*
X80600Y203033D01*
X80602Y203028D01*
X80615Y203014D01*
X80700Y202907D01*
X98023Y185585D01*
X98076Y185547D01*
X98123Y185501D01*
X98196Y185460D01*
X98223Y185441D01*
X98241Y185435D01*
X98270Y185420D01*
X101225Y184196D01*
X103696Y181725D01*
X105033Y178497D01*
X105033Y175003D01*
X103696Y171775D01*
X102224Y170303D01*
X102171Y170229D01*
X102111Y170160D01*
X102099Y170130D01*
X102080Y170103D01*
X102053Y170016D01*
X102019Y169931D01*
X102015Y169891D01*
X102008Y169868D01*
X102009Y169836D01*
X102001Y169765D01*
X102001Y166508D01*
X100859Y163751D01*
X68974Y131866D01*
X68921Y131792D01*
X68861Y131723D01*
X68849Y131692D01*
X68830Y131666D01*
X68803Y131579D01*
X68769Y131494D01*
X68765Y131454D01*
X68758Y131431D01*
X68759Y131399D01*
X68751Y131328D01*
X68751Y101422D01*
X68765Y101332D01*
X68773Y101241D01*
X68785Y101211D01*
X68790Y101179D01*
X68833Y101099D01*
X68869Y101015D01*
X68895Y100983D01*
X68906Y100962D01*
X68929Y100940D01*
X68974Y100884D01*
X69384Y100474D01*
X69458Y100421D01*
X69527Y100361D01*
X69558Y100349D01*
X69584Y100330D01*
X69671Y100303D01*
X69756Y100269D01*
X69796Y100265D01*
X69819Y100258D01*
X69851Y100259D01*
X69922Y100251D01*
X76742Y100251D01*
X77100Y100103D01*
X77213Y100076D01*
X77327Y100047D01*
X77333Y100048D01*
X77339Y100046D01*
X77455Y100057D01*
X77572Y100067D01*
X77578Y100069D01*
X77584Y100070D01*
X77692Y100118D01*
X77798Y100163D01*
X77804Y100167D01*
X77809Y100170D01*
X77823Y100182D01*
X77929Y100268D01*
X82123Y104462D01*
X82135Y104478D01*
X82150Y104490D01*
X82206Y104577D01*
X82267Y104661D01*
X82273Y104681D01*
X82283Y104697D01*
X82309Y104798D01*
X82339Y104897D01*
X82339Y104916D01*
X82343Y104936D01*
X82335Y105039D01*
X82333Y105142D01*
X82326Y105161D01*
X82324Y105181D01*
X82284Y105276D01*
X82248Y105373D01*
X82236Y105389D01*
X82228Y105407D01*
X82123Y105538D01*
X74204Y113457D01*
X74204Y126543D01*
X83457Y135796D01*
X96543Y135796D01*
X104462Y127877D01*
X104478Y127865D01*
X104490Y127850D01*
X104578Y127794D01*
X104661Y127733D01*
X104680Y127727D01*
X104697Y127717D01*
X104798Y127691D01*
X104897Y127661D01*
X104916Y127661D01*
X104936Y127657D01*
X105039Y127665D01*
X105142Y127667D01*
X105161Y127674D01*
X105181Y127676D01*
X105276Y127716D01*
X105373Y127752D01*
X105389Y127764D01*
X105407Y127772D01*
X105538Y127877D01*
X113457Y135796D01*
X126543Y135796D01*
X131079Y131259D01*
X131158Y131202D01*
X131233Y131140D01*
X131258Y131131D01*
X131279Y131116D01*
X131372Y131087D01*
X131463Y131052D01*
X131489Y131051D01*
X131514Y131043D01*
X131611Y131046D01*
X131709Y131042D01*
X131734Y131049D01*
X131760Y131050D01*
X131851Y131083D01*
X131945Y131110D01*
X131966Y131125D01*
X131991Y131134D01*
X132067Y131195D01*
X132147Y131251D01*
X132163Y131272D01*
X132183Y131288D01*
X132236Y131370D01*
X132294Y131448D01*
X132302Y131473D01*
X132316Y131495D01*
X132340Y131589D01*
X132370Y131682D01*
X132370Y131708D01*
X132376Y131733D01*
X132368Y131830D01*
X132367Y131928D01*
X132358Y131959D01*
X132357Y131979D01*
X132344Y132009D01*
X132321Y132089D01*
X131217Y134753D01*
X131217Y138247D01*
X132554Y141475D01*
X135025Y143946D01*
X138253Y145283D01*
X141747Y145283D01*
X144975Y143946D01*
X147446Y141475D01*
X148670Y138520D01*
X148704Y138464D01*
X148730Y138404D01*
X148776Y138347D01*
X148791Y138322D01*
X148795Y138318D01*
X148799Y138311D01*
X148814Y138298D01*
X148835Y138273D01*
X156859Y130249D01*
X158001Y127492D01*
X158001Y70258D01*
X156848Y67474D01*
X156820Y67436D01*
X156750Y67342D01*
X156748Y67336D01*
X156745Y67331D01*
X156711Y67220D01*
X156674Y67108D01*
X156674Y67102D01*
X156672Y67096D01*
X156675Y66979D01*
X156677Y66862D01*
X156679Y66855D01*
X156679Y66850D01*
X156685Y66833D01*
X156723Y66701D01*
X157533Y64747D01*
X157533Y61253D01*
X157385Y60897D01*
X157363Y60802D01*
X157334Y60709D01*
X157335Y60683D01*
X157329Y60657D01*
X157338Y60561D01*
X157341Y60463D01*
X157350Y60439D01*
X157352Y60413D01*
X157392Y60324D01*
X157425Y60232D01*
X157442Y60212D01*
X157452Y60188D01*
X157518Y60116D01*
X157579Y60040D01*
X157601Y60026D01*
X157619Y60007D01*
X157704Y59960D01*
X157786Y59907D01*
X157811Y59901D01*
X157834Y59888D01*
X157930Y59871D01*
X158024Y59847D01*
X158050Y59849D01*
X158076Y59844D01*
X158173Y59859D01*
X158270Y59866D01*
X158294Y59876D01*
X158319Y59880D01*
X158406Y59924D01*
X158496Y59963D01*
X158521Y59983D01*
X158539Y59992D01*
X158562Y60015D01*
X158627Y60067D01*
X161412Y62853D01*
X166984Y65161D01*
X173016Y65161D01*
X178588Y62853D01*
X182853Y58588D01*
X185161Y53016D01*
X185161Y46984D01*
X182853Y41412D01*
X178588Y37147D01*
X173016Y34839D01*
X166984Y34839D01*
X161412Y37147D01*
X157147Y41412D01*
X154839Y46984D01*
X154839Y53016D01*
X155958Y55716D01*
X155980Y55811D01*
X156009Y55904D01*
X156008Y55930D01*
X156014Y55955D01*
X156005Y56052D01*
X156002Y56150D01*
X155993Y56174D01*
X155991Y56200D01*
X155951Y56289D01*
X155918Y56381D01*
X155901Y56401D01*
X155891Y56425D01*
X155825Y56497D01*
X155764Y56573D01*
X155742Y56587D01*
X155724Y56606D01*
X155639Y56653D01*
X155557Y56706D01*
X155532Y56712D01*
X155509Y56725D01*
X155413Y56742D01*
X155319Y56766D01*
X155293Y56764D01*
X155267Y56768D01*
X155170Y56754D01*
X155073Y56747D01*
X155049Y56736D01*
X155024Y56733D01*
X154937Y56688D01*
X154847Y56650D01*
X154822Y56630D01*
X154804Y56621D01*
X154781Y56597D01*
X154716Y56546D01*
X153725Y55554D01*
X150770Y54330D01*
X150714Y54296D01*
X150654Y54270D01*
X150589Y54218D01*
X150561Y54201D01*
X150548Y54186D01*
X150523Y54165D01*
X145999Y49641D01*
X143242Y48499D01*
X86008Y48499D01*
X83251Y49641D01*
X81034Y51858D01*
X49050Y83842D01*
X48992Y83884D01*
X48940Y83933D01*
X48893Y83955D01*
X48851Y83986D01*
X48782Y84007D01*
X48717Y84037D01*
X48665Y84043D01*
X48615Y84058D01*
X48544Y84056D01*
X48473Y84064D01*
X48422Y84053D01*
X48370Y84052D01*
X48302Y84027D01*
X48232Y84012D01*
X48187Y83985D01*
X48139Y83967D01*
X48083Y83922D01*
X48021Y83886D01*
X47987Y83846D01*
X47947Y83813D01*
X47908Y83753D01*
X47861Y83699D01*
X47842Y83650D01*
X47814Y83607D01*
X47796Y83537D01*
X47769Y83471D01*
X47761Y83399D01*
X47753Y83368D01*
X47755Y83345D01*
X47751Y83304D01*
X47751Y69985D01*
X47765Y69895D01*
X47773Y69804D01*
X47785Y69774D01*
X47790Y69743D01*
X47833Y69662D01*
X47869Y69578D01*
X47895Y69546D01*
X47906Y69525D01*
X47929Y69503D01*
X47974Y69447D01*
X49446Y67975D01*
X50783Y64747D01*
X50783Y61253D01*
X49446Y58025D01*
X46975Y55554D01*
X43747Y54217D01*
X40253Y54217D01*
X37025Y55554D01*
X34753Y57826D01*
X34674Y57883D01*
X34599Y57945D01*
X34575Y57954D01*
X34554Y57969D01*
X34461Y57998D01*
X34370Y58033D01*
X34344Y58034D01*
X34319Y58042D01*
X34221Y58039D01*
X34124Y58043D01*
X34099Y58036D01*
X34073Y58035D01*
X33981Y58002D01*
X33888Y57975D01*
X33866Y57960D01*
X33842Y57951D01*
X33766Y57890D01*
X33686Y57835D01*
X33670Y57814D01*
X33650Y57797D01*
X33597Y57715D01*
X33539Y57637D01*
X33531Y57612D01*
X33517Y57590D01*
X33493Y57496D01*
X33463Y57403D01*
X33463Y57377D01*
X33457Y57352D01*
X33464Y57255D01*
X33465Y57157D01*
X33474Y57126D01*
X33476Y57107D01*
X33489Y57076D01*
X33512Y56996D01*
X35161Y53016D01*
X35161Y46984D01*
X32853Y41412D01*
X28588Y37147D01*
X23016Y34839D01*
X16984Y34839D01*
X11975Y36914D01*
X11931Y36925D01*
X11889Y36944D01*
X11812Y36952D01*
X11736Y36970D01*
X11690Y36966D01*
X11645Y36971D01*
X11568Y36954D01*
X11491Y36947D01*
X11449Y36929D01*
X11404Y36919D01*
X11337Y36879D01*
X11266Y36847D01*
X11232Y36816D01*
X11193Y36793D01*
X11142Y36733D01*
X11085Y36681D01*
X11063Y36641D01*
X11033Y36606D01*
X11004Y36533D01*
X10967Y36465D01*
X10958Y36420D01*
X10941Y36378D01*
X10926Y36242D01*
X10923Y36223D01*
X10924Y36218D01*
X10923Y36211D01*
X10923Y11684D01*
X10926Y11664D01*
X10924Y11645D01*
X10946Y11543D01*
X10962Y11441D01*
X10972Y11424D01*
X10976Y11404D01*
X11029Y11315D01*
X11078Y11224D01*
X11092Y11210D01*
X11102Y11193D01*
X11181Y11126D01*
X11256Y11054D01*
X11274Y11046D01*
X11289Y11033D01*
X11385Y10994D01*
X11479Y10951D01*
X11499Y10949D01*
X11517Y10941D01*
X11684Y10923D01*
X203316Y10923D01*
X203336Y10926D01*
G37*
%LPC*%
G36*
X167704Y196919D02*
X167704Y196919D01*
X163463Y198676D01*
X160216Y201923D01*
X158459Y206164D01*
X158459Y223836D01*
X160216Y228077D01*
X163463Y231324D01*
X167704Y233081D01*
X172296Y233081D01*
X176537Y231324D01*
X179784Y228077D01*
X181541Y223836D01*
X181541Y206164D01*
X179784Y201923D01*
X176537Y198676D01*
X172296Y196919D01*
X167704Y196919D01*
G37*
%LPD*%
%LPC*%
G36*
X142704Y196919D02*
X142704Y196919D01*
X138463Y198676D01*
X135216Y201923D01*
X133459Y206164D01*
X133459Y223836D01*
X135216Y228077D01*
X138463Y231324D01*
X142704Y233081D01*
X147296Y233081D01*
X151537Y231324D01*
X154784Y228077D01*
X156541Y223836D01*
X156541Y206164D01*
X154784Y201923D01*
X151537Y198676D01*
X147296Y196919D01*
X142704Y196919D01*
G37*
%LPD*%
%LPC*%
G36*
X117704Y196919D02*
X117704Y196919D01*
X113463Y198676D01*
X110216Y201923D01*
X108459Y206164D01*
X108459Y223836D01*
X110216Y228077D01*
X113463Y231324D01*
X117704Y233081D01*
X122296Y233081D01*
X126537Y231324D01*
X129784Y228077D01*
X131541Y223836D01*
X131541Y206164D01*
X129784Y201923D01*
X126537Y198676D01*
X122296Y196919D01*
X117704Y196919D01*
G37*
%LPD*%
%LPC*%
G36*
X92704Y196919D02*
X92704Y196919D01*
X88463Y198676D01*
X85216Y201923D01*
X83459Y206164D01*
X83459Y223836D01*
X85216Y228077D01*
X88463Y231324D01*
X92704Y233081D01*
X97296Y233081D01*
X101537Y231324D01*
X104784Y228077D01*
X106541Y223836D01*
X106541Y206164D01*
X104784Y201923D01*
X101537Y198676D01*
X97296Y196919D01*
X92704Y196919D01*
G37*
%LPD*%
G36*
X126168Y74015D02*
X126168Y74015D01*
X126259Y74023D01*
X126289Y74035D01*
X126321Y74040D01*
X126401Y74083D01*
X126485Y74119D01*
X126517Y74145D01*
X126538Y74156D01*
X126560Y74179D01*
X126616Y74224D01*
X129415Y77023D01*
X129453Y77076D01*
X129499Y77123D01*
X129540Y77196D01*
X129559Y77223D01*
X129565Y77241D01*
X129580Y77270D01*
X130556Y79625D01*
X130578Y79720D01*
X130607Y79813D01*
X130606Y79839D01*
X130612Y79865D01*
X130603Y79961D01*
X130600Y80059D01*
X130591Y80083D01*
X130589Y80110D01*
X130549Y80198D01*
X130516Y80290D01*
X130500Y80310D01*
X130489Y80334D01*
X130423Y80406D01*
X130362Y80482D01*
X130340Y80496D01*
X130323Y80515D01*
X130237Y80562D01*
X130155Y80615D01*
X130130Y80621D01*
X130107Y80634D01*
X130011Y80651D01*
X129917Y80675D01*
X129891Y80673D01*
X129865Y80678D01*
X129768Y80663D01*
X129672Y80656D01*
X129648Y80646D01*
X129622Y80642D01*
X129535Y80598D01*
X129445Y80560D01*
X129420Y80539D01*
X129402Y80530D01*
X129379Y80507D01*
X129314Y80455D01*
X125524Y76664D01*
X121523Y76664D01*
X121523Y88477D01*
X133336Y88477D01*
X133336Y84476D01*
X133045Y84186D01*
X132988Y84107D01*
X132926Y84032D01*
X132917Y84007D01*
X132902Y83986D01*
X132873Y83893D01*
X132838Y83802D01*
X132837Y83776D01*
X132829Y83751D01*
X132832Y83653D01*
X132828Y83556D01*
X132835Y83531D01*
X132836Y83505D01*
X132869Y83413D01*
X132896Y83320D01*
X132911Y83299D01*
X132920Y83274D01*
X132981Y83198D01*
X133037Y83118D01*
X133057Y83102D01*
X133074Y83082D01*
X133156Y83029D01*
X133234Y82971D01*
X133259Y82963D01*
X133281Y82949D01*
X133375Y82925D01*
X133468Y82895D01*
X133494Y82895D01*
X133519Y82889D01*
X133616Y82896D01*
X133714Y82897D01*
X133745Y82906D01*
X133765Y82908D01*
X133795Y82921D01*
X133875Y82944D01*
X136503Y84033D01*
X139997Y84033D01*
X141947Y83225D01*
X141991Y83215D01*
X142033Y83195D01*
X142110Y83187D01*
X142186Y83169D01*
X142232Y83173D01*
X142277Y83168D01*
X142354Y83185D01*
X142431Y83192D01*
X142473Y83211D01*
X142518Y83220D01*
X142585Y83260D01*
X142656Y83292D01*
X142690Y83323D01*
X142729Y83347D01*
X142780Y83406D01*
X142837Y83458D01*
X142859Y83499D01*
X142889Y83534D01*
X142918Y83606D01*
X142955Y83674D01*
X142964Y83719D01*
X142981Y83762D01*
X142996Y83898D01*
X142999Y83916D01*
X142998Y83921D01*
X142999Y83928D01*
X142999Y122578D01*
X142985Y122668D01*
X142977Y122759D01*
X142965Y122789D01*
X142960Y122821D01*
X142917Y122901D01*
X142881Y122985D01*
X142855Y123017D01*
X142844Y123038D01*
X142821Y123060D01*
X142776Y123116D01*
X138227Y127665D01*
X138174Y127703D01*
X138127Y127749D01*
X138054Y127790D01*
X138027Y127809D01*
X138009Y127815D01*
X137980Y127830D01*
X135589Y128821D01*
X135494Y128843D01*
X135401Y128872D01*
X135375Y128871D01*
X135349Y128877D01*
X135253Y128868D01*
X135155Y128865D01*
X135131Y128856D01*
X135105Y128854D01*
X135016Y128814D01*
X134924Y128781D01*
X134904Y128764D01*
X134880Y128754D01*
X134808Y128688D01*
X134732Y128627D01*
X134718Y128605D01*
X134699Y128587D01*
X134652Y128502D01*
X134599Y128420D01*
X134593Y128395D01*
X134580Y128372D01*
X134563Y128276D01*
X134539Y128182D01*
X134541Y128156D01*
X134536Y128130D01*
X134551Y128033D01*
X134558Y127936D01*
X134568Y127912D01*
X134572Y127887D01*
X134616Y127800D01*
X134655Y127710D01*
X134675Y127685D01*
X134684Y127667D01*
X134707Y127644D01*
X134759Y127579D01*
X135796Y126543D01*
X135796Y113457D01*
X126543Y104204D01*
X126493Y104204D01*
X126422Y104193D01*
X126351Y104191D01*
X126302Y104173D01*
X126250Y104165D01*
X126187Y104131D01*
X126120Y104106D01*
X126079Y104074D01*
X126033Y104049D01*
X125984Y103997D01*
X125928Y103953D01*
X125899Y103909D01*
X125864Y103871D01*
X125833Y103806D01*
X125795Y103746D01*
X125782Y103695D01*
X125760Y103648D01*
X125752Y103577D01*
X125735Y103507D01*
X125739Y103455D01*
X125733Y103404D01*
X125748Y103333D01*
X125754Y103262D01*
X125774Y103214D01*
X125785Y103163D01*
X125822Y103102D01*
X125850Y103036D01*
X125895Y102980D01*
X125911Y102952D01*
X125929Y102937D01*
X125955Y102905D01*
X133336Y95524D01*
X133336Y91523D01*
X120762Y91523D01*
X120742Y91520D01*
X120723Y91522D01*
X120621Y91500D01*
X120519Y91483D01*
X120502Y91474D01*
X120482Y91470D01*
X120393Y91417D01*
X120302Y91368D01*
X120288Y91354D01*
X120271Y91344D01*
X120204Y91265D01*
X120133Y91190D01*
X120124Y91172D01*
X120111Y91157D01*
X120073Y91061D01*
X120029Y90967D01*
X120027Y90947D01*
X120019Y90929D01*
X120001Y90762D01*
X120001Y89999D01*
X119999Y89999D01*
X119999Y90762D01*
X119996Y90782D01*
X119998Y90801D01*
X119976Y90903D01*
X119959Y91005D01*
X119950Y91022D01*
X119946Y91042D01*
X119893Y91131D01*
X119844Y91222D01*
X119830Y91236D01*
X119820Y91253D01*
X119741Y91320D01*
X119666Y91391D01*
X119648Y91400D01*
X119633Y91413D01*
X119537Y91452D01*
X119443Y91495D01*
X119423Y91497D01*
X119405Y91505D01*
X119238Y91523D01*
X106557Y91523D01*
X106537Y91520D01*
X106518Y91522D01*
X106416Y91500D01*
X106314Y91483D01*
X106297Y91474D01*
X106277Y91470D01*
X106188Y91417D01*
X106097Y91368D01*
X106083Y91354D01*
X106066Y91344D01*
X105999Y91265D01*
X105927Y91190D01*
X105919Y91172D01*
X105906Y91157D01*
X105867Y91061D01*
X105824Y90967D01*
X105822Y90947D01*
X105814Y90929D01*
X105796Y90762D01*
X105796Y89238D01*
X105799Y89218D01*
X105797Y89199D01*
X105819Y89097D01*
X105835Y88995D01*
X105845Y88978D01*
X105849Y88958D01*
X105902Y88869D01*
X105951Y88778D01*
X105965Y88764D01*
X105975Y88747D01*
X106054Y88680D01*
X106129Y88609D01*
X106147Y88600D01*
X106162Y88587D01*
X106258Y88548D01*
X106352Y88505D01*
X106372Y88503D01*
X106390Y88495D01*
X106557Y88477D01*
X118477Y88477D01*
X118477Y76664D01*
X114476Y76664D01*
X107095Y84045D01*
X107037Y84087D01*
X106985Y84136D01*
X106938Y84158D01*
X106896Y84189D01*
X106827Y84210D01*
X106762Y84240D01*
X106710Y84246D01*
X106660Y84261D01*
X106589Y84259D01*
X106518Y84267D01*
X106467Y84256D01*
X106415Y84255D01*
X106347Y84230D01*
X106277Y84215D01*
X106232Y84188D01*
X106184Y84170D01*
X106128Y84125D01*
X106066Y84089D01*
X106032Y84049D01*
X105992Y84017D01*
X105953Y83956D01*
X105906Y83902D01*
X105887Y83853D01*
X105859Y83810D01*
X105841Y83740D01*
X105814Y83674D01*
X105806Y83602D01*
X105798Y83571D01*
X105800Y83548D01*
X105796Y83507D01*
X105796Y83457D01*
X105386Y83048D01*
X105375Y83032D01*
X105359Y83019D01*
X105303Y82932D01*
X105243Y82848D01*
X105237Y82829D01*
X105226Y82812D01*
X105201Y82712D01*
X105170Y82613D01*
X105171Y82593D01*
X105166Y82574D01*
X105174Y82471D01*
X105177Y82367D01*
X105184Y82348D01*
X105185Y82329D01*
X105226Y82234D01*
X105261Y82136D01*
X105274Y82120D01*
X105282Y82102D01*
X105386Y81971D01*
X113134Y74224D01*
X113208Y74171D01*
X113277Y74111D01*
X113308Y74099D01*
X113334Y74080D01*
X113421Y74053D01*
X113506Y74019D01*
X113546Y74015D01*
X113569Y74008D01*
X113601Y74009D01*
X113672Y74001D01*
X126078Y74001D01*
X126168Y74015D01*
G37*
G36*
X106667Y95748D02*
X106667Y95748D01*
X106738Y95754D01*
X106786Y95774D01*
X106837Y95785D01*
X106898Y95822D01*
X106964Y95850D01*
X107020Y95895D01*
X107048Y95911D01*
X107063Y95929D01*
X107095Y95955D01*
X114045Y102905D01*
X114087Y102963D01*
X114136Y103015D01*
X114158Y103062D01*
X114189Y103104D01*
X114210Y103173D01*
X114240Y103238D01*
X114246Y103290D01*
X114261Y103340D01*
X114259Y103411D01*
X114267Y103482D01*
X114256Y103533D01*
X114255Y103585D01*
X114230Y103653D01*
X114215Y103723D01*
X114188Y103767D01*
X114170Y103816D01*
X114125Y103872D01*
X114089Y103934D01*
X114049Y103968D01*
X114017Y104008D01*
X113956Y104047D01*
X113902Y104094D01*
X113853Y104113D01*
X113810Y104141D01*
X113740Y104159D01*
X113674Y104186D01*
X113602Y104194D01*
X113571Y104202D01*
X113548Y104200D01*
X113507Y104204D01*
X113457Y104204D01*
X105538Y112123D01*
X105522Y112135D01*
X105510Y112150D01*
X105422Y112207D01*
X105339Y112267D01*
X105320Y112273D01*
X105303Y112283D01*
X105202Y112309D01*
X105103Y112339D01*
X105084Y112339D01*
X105064Y112343D01*
X104961Y112335D01*
X104858Y112333D01*
X104839Y112326D01*
X104819Y112324D01*
X104724Y112284D01*
X104627Y112248D01*
X104611Y112236D01*
X104593Y112228D01*
X104462Y112123D01*
X97877Y105538D01*
X97865Y105522D01*
X97850Y105510D01*
X97793Y105422D01*
X97733Y105339D01*
X97727Y105320D01*
X97717Y105303D01*
X97691Y105202D01*
X97661Y105103D01*
X97661Y105084D01*
X97657Y105064D01*
X97665Y104961D01*
X97667Y104858D01*
X97674Y104839D01*
X97676Y104819D01*
X97716Y104724D01*
X97752Y104627D01*
X97764Y104611D01*
X97772Y104593D01*
X97877Y104462D01*
X105796Y96543D01*
X105796Y96493D01*
X105807Y96422D01*
X105809Y96351D01*
X105827Y96302D01*
X105835Y96250D01*
X105869Y96187D01*
X105894Y96120D01*
X105926Y96079D01*
X105951Y96033D01*
X106002Y95984D01*
X106047Y95928D01*
X106091Y95899D01*
X106129Y95864D01*
X106194Y95833D01*
X106254Y95795D01*
X106305Y95782D01*
X106352Y95760D01*
X106423Y95752D01*
X106493Y95735D01*
X106545Y95739D01*
X106596Y95733D01*
X106667Y95748D01*
G37*
%LPC*%
G36*
X46523Y216523D02*
X46523Y216523D01*
X46523Y230496D01*
X47649Y230272D01*
X49301Y229587D01*
X50789Y228593D01*
X52053Y227329D01*
X53047Y225841D01*
X53732Y224189D01*
X54081Y222434D01*
X54081Y216523D01*
X46523Y216523D01*
G37*
%LPD*%
%LPC*%
G36*
X46523Y213477D02*
X46523Y213477D01*
X54081Y213477D01*
X54081Y207566D01*
X53732Y205811D01*
X53047Y204159D01*
X52053Y202671D01*
X50789Y201407D01*
X49301Y200413D01*
X47649Y199728D01*
X46523Y199504D01*
X46523Y213477D01*
G37*
%LPD*%
%LPC*%
G36*
X35919Y216523D02*
X35919Y216523D01*
X35919Y222434D01*
X36268Y224189D01*
X36953Y225841D01*
X37947Y227329D01*
X39211Y228593D01*
X40699Y229587D01*
X42351Y230272D01*
X43477Y230496D01*
X43477Y216523D01*
X35919Y216523D01*
G37*
%LPD*%
%LPC*%
G36*
X42351Y199728D02*
X42351Y199728D01*
X40699Y200413D01*
X39211Y201407D01*
X37947Y202671D01*
X36953Y204159D01*
X36268Y205811D01*
X35919Y207566D01*
X35919Y213477D01*
X43477Y213477D01*
X43477Y199504D01*
X42351Y199728D01*
G37*
%LPD*%
%LPC*%
G36*
X44999Y214999D02*
X44999Y214999D01*
X44999Y215001D01*
X45001Y215001D01*
X45001Y214999D01*
X44999Y214999D01*
G37*
%LPD*%
D10*
X45000Y208460D02*
X45000Y221540D01*
X70000Y221540D02*
X70000Y208460D01*
X95000Y208460D02*
X95000Y221540D01*
X120000Y221540D02*
X120000Y208460D01*
X145000Y208460D02*
X145000Y221540D01*
X170000Y221540D02*
X170000Y208460D01*
D11*
X90000Y120000D03*
X120000Y120000D03*
X90000Y90000D03*
X120000Y90000D03*
D12*
X119000Y89250D02*
X105000Y103250D01*
X119000Y89250D02*
X120000Y90000D01*
D13*
X73500Y108500D03*
X105000Y103250D03*
D12*
X96250Y176750D02*
X70000Y203000D01*
X70000Y213500D01*
X70000Y215000D01*
X77000Y91000D02*
X89250Y91000D01*
X77000Y91000D02*
X75250Y92750D01*
X66500Y92750D01*
X61250Y98000D01*
X61250Y134750D01*
X94500Y168000D01*
X94500Y175000D01*
X89250Y91000D02*
X90000Y90000D01*
X94500Y175000D02*
X96250Y176750D01*
X138250Y75250D02*
X129500Y66500D01*
X110250Y66500D01*
X87500Y89250D01*
X90000Y90000D01*
D13*
X96250Y176750D03*
X138250Y75250D03*
D12*
X70000Y178500D02*
X73500Y182000D01*
X70000Y178500D02*
X68250Y178500D01*
X40250Y150500D01*
X40250Y64750D01*
X42000Y63000D01*
D13*
X73500Y182000D03*
X42000Y63000D03*
D12*
X148750Y63000D02*
X148750Y70000D01*
X150500Y71750D01*
X150500Y126000D01*
X140000Y136500D01*
X75250Y164500D02*
X75250Y168000D01*
X75250Y164500D02*
X50750Y140000D01*
X50750Y92750D01*
X87500Y56000D01*
X141750Y56000D01*
X147000Y61250D01*
X148750Y63000D01*
D13*
X148750Y63000D03*
X140000Y136500D03*
X75250Y168000D03*
M02*
