G04 EAGLE Gerber X2 export*
%TF.Part,Single*%
%TF.FileFunction,Legend,Top,1*%
%TF.FilePolarity,Positive*%
%TF.GenerationSoftware,Autodesk,EAGLE,9.1.0*%
%TF.CreationDate,2018-11-28T00:37:37Z*%
G75*
%MOMM*%
%FSLAX34Y34*%
%LPD*%
%AMOC8*
5,1,8,0,0,1.08239X$1,22.5*%
G01*
%ADD10C,0.076200*%
%ADD11C,0.127000*%
%ADD12C,0.050800*%
%ADD13C,0.152400*%


D10*
X170381Y20381D02*
X170381Y24619D01*
X171558Y24619D01*
X171625Y24617D01*
X171692Y24611D01*
X171759Y24602D01*
X171825Y24588D01*
X171890Y24571D01*
X171954Y24551D01*
X172016Y24526D01*
X172077Y24498D01*
X172137Y24467D01*
X172194Y24432D01*
X172250Y24394D01*
X172303Y24353D01*
X172354Y24309D01*
X172402Y24262D01*
X172448Y24213D01*
X172490Y24161D01*
X172530Y24106D01*
X172566Y24050D01*
X172599Y23991D01*
X172629Y23931D01*
X172655Y23869D01*
X172677Y23806D01*
X172696Y23741D01*
X172712Y23676D01*
X172723Y23610D01*
X172731Y23543D01*
X172735Y23476D01*
X172735Y23408D01*
X172731Y23341D01*
X172723Y23274D01*
X172712Y23208D01*
X172696Y23143D01*
X172677Y23078D01*
X172655Y23015D01*
X172629Y22953D01*
X172599Y22893D01*
X172566Y22834D01*
X172530Y22778D01*
X172490Y22723D01*
X172448Y22671D01*
X172402Y22622D01*
X172354Y22575D01*
X172303Y22531D01*
X172250Y22490D01*
X172194Y22452D01*
X172137Y22417D01*
X172077Y22386D01*
X172016Y22358D01*
X171954Y22333D01*
X171890Y22313D01*
X171825Y22296D01*
X171759Y22282D01*
X171692Y22273D01*
X171625Y22267D01*
X171558Y22265D01*
X170381Y22265D01*
X174549Y23206D02*
X175255Y20381D01*
X175961Y22265D01*
X176668Y20381D01*
X177374Y23206D01*
X179558Y23206D02*
X179558Y20381D01*
X179558Y23206D02*
X180970Y23206D01*
X180970Y22735D01*
X182734Y24619D02*
X182734Y20381D01*
X182734Y24619D02*
X183911Y24619D01*
X183977Y24617D01*
X184043Y24612D01*
X184108Y24602D01*
X184173Y24589D01*
X184237Y24573D01*
X184300Y24553D01*
X184361Y24529D01*
X184422Y24502D01*
X184480Y24472D01*
X184537Y24439D01*
X184592Y24402D01*
X184645Y24362D01*
X184695Y24320D01*
X184743Y24274D01*
X184789Y24226D01*
X184831Y24176D01*
X184871Y24123D01*
X184908Y24068D01*
X184941Y24011D01*
X184971Y23953D01*
X184998Y23892D01*
X185022Y23831D01*
X185042Y23768D01*
X185058Y23704D01*
X185071Y23639D01*
X185081Y23574D01*
X185086Y23508D01*
X185088Y23442D01*
X185089Y23442D02*
X185089Y21558D01*
X185088Y21558D02*
X185086Y21490D01*
X185080Y21421D01*
X185070Y21354D01*
X185056Y21287D01*
X185039Y21220D01*
X185017Y21155D01*
X184992Y21092D01*
X184963Y21030D01*
X184930Y20970D01*
X184894Y20911D01*
X184855Y20855D01*
X184813Y20801D01*
X184767Y20750D01*
X184719Y20702D01*
X184668Y20656D01*
X184614Y20614D01*
X184558Y20575D01*
X184500Y20539D01*
X184439Y20506D01*
X184377Y20477D01*
X184314Y20452D01*
X184249Y20430D01*
X184182Y20413D01*
X184115Y20399D01*
X184048Y20389D01*
X183979Y20383D01*
X183911Y20381D01*
X182734Y20381D01*
X188110Y22029D02*
X189169Y22029D01*
X188110Y22029D02*
X188054Y22027D01*
X187998Y22021D01*
X187942Y22012D01*
X187888Y21998D01*
X187834Y21981D01*
X187782Y21961D01*
X187731Y21937D01*
X187682Y21909D01*
X187635Y21878D01*
X187590Y21844D01*
X187548Y21807D01*
X187508Y21767D01*
X187471Y21725D01*
X187437Y21680D01*
X187406Y21633D01*
X187378Y21584D01*
X187354Y21533D01*
X187334Y21481D01*
X187317Y21427D01*
X187303Y21373D01*
X187294Y21317D01*
X187288Y21261D01*
X187286Y21205D01*
X187288Y21149D01*
X187294Y21093D01*
X187303Y21037D01*
X187317Y20983D01*
X187334Y20929D01*
X187354Y20877D01*
X187378Y20826D01*
X187406Y20777D01*
X187437Y20730D01*
X187471Y20685D01*
X187508Y20643D01*
X187548Y20603D01*
X187590Y20566D01*
X187635Y20532D01*
X187682Y20501D01*
X187731Y20473D01*
X187782Y20449D01*
X187834Y20429D01*
X187888Y20412D01*
X187942Y20398D01*
X187998Y20389D01*
X188054Y20383D01*
X188110Y20381D01*
X189169Y20381D01*
X189169Y22500D01*
X189167Y22550D01*
X189162Y22600D01*
X189153Y22650D01*
X189140Y22699D01*
X189124Y22747D01*
X189105Y22793D01*
X189083Y22838D01*
X189057Y22882D01*
X189028Y22923D01*
X188997Y22962D01*
X188962Y22999D01*
X188925Y23034D01*
X188886Y23065D01*
X188845Y23094D01*
X188801Y23120D01*
X188756Y23142D01*
X188710Y23161D01*
X188662Y23177D01*
X188613Y23190D01*
X188563Y23199D01*
X188513Y23204D01*
X188463Y23206D01*
X187521Y23206D01*
X190952Y23206D02*
X192365Y23206D01*
X191423Y24619D02*
X191423Y21087D01*
X191425Y21037D01*
X191430Y20987D01*
X191439Y20937D01*
X191452Y20888D01*
X191468Y20840D01*
X191487Y20794D01*
X191509Y20749D01*
X191535Y20705D01*
X191564Y20664D01*
X191595Y20625D01*
X191630Y20588D01*
X191667Y20553D01*
X191706Y20522D01*
X191747Y20493D01*
X191791Y20467D01*
X191836Y20445D01*
X191882Y20426D01*
X191930Y20410D01*
X191979Y20397D01*
X192029Y20388D01*
X192079Y20383D01*
X192129Y20381D01*
X192365Y20381D01*
X195010Y22029D02*
X196069Y22029D01*
X195010Y22029D02*
X194954Y22027D01*
X194898Y22021D01*
X194842Y22012D01*
X194788Y21998D01*
X194734Y21981D01*
X194682Y21961D01*
X194631Y21937D01*
X194582Y21909D01*
X194535Y21878D01*
X194490Y21844D01*
X194448Y21807D01*
X194408Y21767D01*
X194371Y21725D01*
X194337Y21680D01*
X194306Y21633D01*
X194278Y21584D01*
X194254Y21533D01*
X194234Y21481D01*
X194217Y21427D01*
X194203Y21373D01*
X194194Y21317D01*
X194188Y21261D01*
X194186Y21205D01*
X194188Y21149D01*
X194194Y21093D01*
X194203Y21037D01*
X194217Y20983D01*
X194234Y20929D01*
X194254Y20877D01*
X194278Y20826D01*
X194306Y20777D01*
X194337Y20730D01*
X194371Y20685D01*
X194408Y20643D01*
X194448Y20603D01*
X194490Y20566D01*
X194535Y20532D01*
X194582Y20501D01*
X194631Y20473D01*
X194682Y20449D01*
X194734Y20429D01*
X194788Y20412D01*
X194842Y20398D01*
X194898Y20389D01*
X194954Y20383D01*
X195010Y20381D01*
X196069Y20381D01*
X196069Y22500D01*
X196067Y22550D01*
X196062Y22600D01*
X196053Y22650D01*
X196040Y22699D01*
X196024Y22747D01*
X196005Y22793D01*
X195983Y22838D01*
X195957Y22882D01*
X195928Y22923D01*
X195897Y22962D01*
X195862Y22999D01*
X195825Y23034D01*
X195786Y23065D01*
X195745Y23094D01*
X195701Y23120D01*
X195656Y23142D01*
X195610Y23161D01*
X195562Y23177D01*
X195513Y23190D01*
X195463Y23199D01*
X195413Y23204D01*
X195363Y23206D01*
X194421Y23206D01*
X170381Y14619D02*
X170381Y10381D01*
X172735Y10381D02*
X170381Y14619D01*
X172735Y14619D02*
X172735Y10381D01*
X174966Y11323D02*
X174966Y12265D01*
X174968Y12325D01*
X174974Y12385D01*
X174983Y12445D01*
X174997Y12504D01*
X175014Y12562D01*
X175035Y12619D01*
X175059Y12674D01*
X175087Y12727D01*
X175119Y12779D01*
X175153Y12828D01*
X175191Y12876D01*
X175231Y12920D01*
X175275Y12962D01*
X175321Y13001D01*
X175369Y13038D01*
X175420Y13071D01*
X175472Y13100D01*
X175527Y13126D01*
X175583Y13149D01*
X175640Y13168D01*
X175698Y13183D01*
X175758Y13195D01*
X175818Y13203D01*
X175878Y13207D01*
X175938Y13207D01*
X175998Y13203D01*
X176058Y13195D01*
X176118Y13183D01*
X176176Y13168D01*
X176233Y13149D01*
X176289Y13126D01*
X176344Y13100D01*
X176396Y13071D01*
X176447Y13038D01*
X176495Y13001D01*
X176541Y12962D01*
X176585Y12920D01*
X176625Y12876D01*
X176663Y12828D01*
X176697Y12779D01*
X176729Y12727D01*
X176757Y12674D01*
X176781Y12619D01*
X176802Y12562D01*
X176819Y12504D01*
X176833Y12445D01*
X176842Y12385D01*
X176848Y12325D01*
X176850Y12265D01*
X176850Y11323D01*
X176848Y11263D01*
X176842Y11203D01*
X176833Y11143D01*
X176819Y11084D01*
X176802Y11026D01*
X176781Y10969D01*
X176757Y10914D01*
X176729Y10861D01*
X176697Y10809D01*
X176663Y10760D01*
X176625Y10712D01*
X176585Y10668D01*
X176541Y10626D01*
X176495Y10587D01*
X176447Y10550D01*
X176396Y10517D01*
X176344Y10488D01*
X176289Y10462D01*
X176233Y10439D01*
X176176Y10420D01*
X176118Y10405D01*
X176058Y10393D01*
X175998Y10385D01*
X175938Y10381D01*
X175878Y10381D01*
X175818Y10385D01*
X175758Y10393D01*
X175698Y10405D01*
X175640Y10420D01*
X175583Y10439D01*
X175527Y10462D01*
X175472Y10488D01*
X175420Y10517D01*
X175369Y10550D01*
X175321Y10587D01*
X175275Y10626D01*
X175231Y10668D01*
X175191Y10712D01*
X175153Y10760D01*
X175119Y10809D01*
X175087Y10861D01*
X175059Y10914D01*
X175035Y10969D01*
X175014Y11026D01*
X174997Y11084D01*
X174983Y11143D01*
X174974Y11203D01*
X174968Y11263D01*
X174966Y11323D01*
X178716Y13206D02*
X179658Y10381D01*
X180600Y13206D01*
X186226Y14620D02*
X186290Y14618D01*
X186354Y14612D01*
X186417Y14603D01*
X186480Y14589D01*
X186541Y14572D01*
X186602Y14551D01*
X186661Y14527D01*
X186719Y14499D01*
X186774Y14467D01*
X186828Y14432D01*
X186880Y14394D01*
X186929Y14353D01*
X186976Y14310D01*
X187019Y14263D01*
X187060Y14214D01*
X187098Y14162D01*
X187133Y14108D01*
X187165Y14053D01*
X187193Y13995D01*
X187217Y13936D01*
X187238Y13875D01*
X187255Y13814D01*
X187269Y13751D01*
X187278Y13688D01*
X187284Y13624D01*
X187286Y13560D01*
X186226Y14619D02*
X186155Y14617D01*
X186084Y14612D01*
X186013Y14602D01*
X185943Y14589D01*
X185873Y14573D01*
X185805Y14552D01*
X185738Y14528D01*
X185672Y14501D01*
X185608Y14470D01*
X185545Y14436D01*
X185484Y14399D01*
X185425Y14359D01*
X185369Y14315D01*
X185315Y14269D01*
X185263Y14220D01*
X185214Y14168D01*
X185168Y14114D01*
X185124Y14057D01*
X185084Y13998D01*
X185047Y13938D01*
X185013Y13875D01*
X184982Y13810D01*
X184955Y13745D01*
X184931Y13677D01*
X186932Y12736D02*
X186978Y12783D01*
X187022Y12832D01*
X187062Y12884D01*
X187100Y12938D01*
X187134Y12994D01*
X187165Y13052D01*
X187193Y13112D01*
X187217Y13173D01*
X187238Y13235D01*
X187255Y13299D01*
X187268Y13364D01*
X187277Y13429D01*
X187283Y13494D01*
X187285Y13560D01*
X186932Y12735D02*
X184931Y10381D01*
X187285Y10381D01*
X189431Y14148D02*
X189431Y14619D01*
X191785Y14619D01*
X190608Y10381D01*
X196395Y12029D02*
X199221Y12029D01*
X203616Y13206D02*
X204558Y10381D01*
X205500Y13206D01*
X207431Y13677D02*
X208608Y14619D01*
X208608Y10381D01*
X207431Y10381D02*
X209785Y10381D01*
D11*
X194500Y233000D02*
X36000Y233000D01*
X20500Y217000D02*
X20500Y184000D01*
X57500Y227500D02*
X52500Y232500D01*
X57500Y227500D02*
X62500Y232500D01*
X77500Y232500D02*
X82500Y227500D01*
X87500Y232500D01*
X102500Y232500D02*
X107500Y227500D01*
X112500Y232500D01*
X127500Y232500D02*
X132500Y227500D01*
X152500Y232500D02*
X157500Y227500D01*
X137500Y232500D02*
X132500Y227500D01*
X157500Y227500D02*
X162500Y232500D01*
X36000Y233000D02*
X20500Y217500D01*
X20500Y184000D02*
X194500Y184000D01*
X194500Y233000D01*
D12*
X49854Y235654D02*
X49854Y240146D01*
X51102Y240146D01*
X51171Y240144D01*
X51239Y240138D01*
X51307Y240129D01*
X51375Y240116D01*
X51442Y240099D01*
X51507Y240078D01*
X51572Y240054D01*
X51635Y240027D01*
X51696Y239996D01*
X51756Y239961D01*
X51813Y239924D01*
X51869Y239883D01*
X51922Y239839D01*
X51972Y239793D01*
X52020Y239743D01*
X52065Y239691D01*
X52108Y239637D01*
X52147Y239581D01*
X52183Y239522D01*
X52216Y239462D01*
X52245Y239399D01*
X52271Y239336D01*
X52293Y239271D01*
X52312Y239204D01*
X52327Y239137D01*
X52338Y239069D01*
X52346Y239001D01*
X52350Y238932D01*
X52350Y238864D01*
X52346Y238795D01*
X52338Y238727D01*
X52327Y238659D01*
X52312Y238592D01*
X52293Y238525D01*
X52271Y238460D01*
X52245Y238397D01*
X52216Y238334D01*
X52183Y238274D01*
X52147Y238215D01*
X52108Y238159D01*
X52065Y238105D01*
X52020Y238053D01*
X51972Y238003D01*
X51922Y237957D01*
X51869Y237913D01*
X51813Y237872D01*
X51756Y237835D01*
X51696Y237800D01*
X51635Y237769D01*
X51572Y237742D01*
X51507Y237718D01*
X51442Y237697D01*
X51375Y237680D01*
X51307Y237667D01*
X51239Y237658D01*
X51171Y237652D01*
X51102Y237650D01*
X49854Y237650D01*
X53980Y240146D02*
X54978Y235654D01*
X55976Y238649D01*
X56974Y235654D01*
X57973Y240146D01*
X60011Y240146D02*
X60011Y235654D01*
X60011Y240146D02*
X61259Y240146D01*
X61328Y240144D01*
X61396Y240138D01*
X61464Y240129D01*
X61532Y240116D01*
X61599Y240099D01*
X61664Y240078D01*
X61729Y240054D01*
X61792Y240027D01*
X61853Y239996D01*
X61913Y239961D01*
X61970Y239924D01*
X62026Y239883D01*
X62079Y239839D01*
X62129Y239793D01*
X62177Y239743D01*
X62222Y239691D01*
X62265Y239637D01*
X62304Y239581D01*
X62340Y239522D01*
X62373Y239462D01*
X62402Y239399D01*
X62428Y239336D01*
X62450Y239271D01*
X62469Y239204D01*
X62484Y239137D01*
X62495Y239069D01*
X62503Y239001D01*
X62507Y238932D01*
X62507Y238864D01*
X62503Y238795D01*
X62495Y238727D01*
X62484Y238659D01*
X62469Y238592D01*
X62450Y238525D01*
X62428Y238460D01*
X62402Y238397D01*
X62373Y238334D01*
X62340Y238274D01*
X62304Y238215D01*
X62265Y238159D01*
X62222Y238105D01*
X62177Y238053D01*
X62129Y238003D01*
X62079Y237957D01*
X62026Y237913D01*
X61970Y237872D01*
X61913Y237835D01*
X61853Y237800D01*
X61792Y237769D01*
X61729Y237742D01*
X61664Y237718D01*
X61599Y237697D01*
X61532Y237680D01*
X61464Y237667D01*
X61396Y237658D01*
X61328Y237652D01*
X61259Y237650D01*
X60011Y237650D01*
X61509Y237650D02*
X62507Y235654D01*
X64278Y235155D02*
X66274Y235155D01*
X68228Y235654D02*
X68228Y240146D01*
X69476Y240146D01*
X69544Y240144D01*
X69611Y240139D01*
X69678Y240130D01*
X69744Y240117D01*
X69810Y240101D01*
X69874Y240081D01*
X69938Y240057D01*
X70000Y240031D01*
X70061Y240001D01*
X70119Y239967D01*
X70176Y239931D01*
X70231Y239892D01*
X70284Y239849D01*
X70334Y239804D01*
X70382Y239756D01*
X70427Y239706D01*
X70470Y239653D01*
X70509Y239598D01*
X70545Y239541D01*
X70579Y239483D01*
X70609Y239422D01*
X70635Y239360D01*
X70659Y239296D01*
X70679Y239232D01*
X70695Y239166D01*
X70708Y239100D01*
X70717Y239033D01*
X70722Y238966D01*
X70724Y238898D01*
X70724Y236902D01*
X70722Y236834D01*
X70717Y236767D01*
X70708Y236700D01*
X70695Y236634D01*
X70679Y236568D01*
X70659Y236504D01*
X70635Y236440D01*
X70609Y236378D01*
X70579Y236317D01*
X70545Y236259D01*
X70509Y236202D01*
X70470Y236147D01*
X70427Y236094D01*
X70382Y236044D01*
X70334Y235996D01*
X70284Y235951D01*
X70231Y235908D01*
X70176Y235869D01*
X70119Y235833D01*
X70061Y235799D01*
X70000Y235769D01*
X69938Y235743D01*
X69874Y235719D01*
X69810Y235699D01*
X69744Y235683D01*
X69678Y235670D01*
X69611Y235661D01*
X69544Y235656D01*
X69476Y235654D01*
X68228Y235654D01*
X72629Y235654D02*
X74126Y240146D01*
X75623Y235654D01*
X75249Y236777D02*
X73003Y236777D01*
X78326Y235654D02*
X78326Y240146D01*
X77078Y240146D02*
X79574Y240146D01*
X82526Y240146D02*
X81029Y235654D01*
X84023Y235654D02*
X82526Y240146D01*
X83649Y236777D02*
X81403Y236777D01*
X85578Y235155D02*
X87574Y235155D01*
X89378Y236902D02*
X89378Y238898D01*
X89380Y238967D01*
X89386Y239035D01*
X89395Y239103D01*
X89408Y239171D01*
X89425Y239238D01*
X89446Y239303D01*
X89470Y239368D01*
X89497Y239431D01*
X89528Y239492D01*
X89563Y239552D01*
X89600Y239609D01*
X89641Y239665D01*
X89685Y239718D01*
X89731Y239768D01*
X89781Y239816D01*
X89833Y239861D01*
X89887Y239904D01*
X89943Y239943D01*
X90002Y239979D01*
X90062Y240012D01*
X90125Y240041D01*
X90188Y240067D01*
X90253Y240089D01*
X90320Y240108D01*
X90387Y240123D01*
X90455Y240134D01*
X90523Y240142D01*
X90592Y240146D01*
X90660Y240146D01*
X90729Y240142D01*
X90797Y240134D01*
X90865Y240123D01*
X90932Y240108D01*
X90999Y240089D01*
X91064Y240067D01*
X91127Y240041D01*
X91190Y240012D01*
X91250Y239979D01*
X91309Y239943D01*
X91365Y239904D01*
X91419Y239861D01*
X91471Y239816D01*
X91521Y239768D01*
X91567Y239718D01*
X91611Y239665D01*
X91652Y239609D01*
X91689Y239552D01*
X91724Y239492D01*
X91755Y239431D01*
X91782Y239368D01*
X91806Y239303D01*
X91827Y239238D01*
X91844Y239171D01*
X91857Y239103D01*
X91866Y239035D01*
X91872Y238967D01*
X91874Y238898D01*
X91874Y236902D01*
X91872Y236833D01*
X91866Y236765D01*
X91857Y236697D01*
X91844Y236629D01*
X91827Y236562D01*
X91806Y236497D01*
X91782Y236432D01*
X91755Y236369D01*
X91724Y236308D01*
X91689Y236248D01*
X91652Y236191D01*
X91611Y236135D01*
X91567Y236082D01*
X91521Y236032D01*
X91471Y235984D01*
X91419Y235939D01*
X91365Y235896D01*
X91309Y235857D01*
X91250Y235821D01*
X91190Y235788D01*
X91127Y235759D01*
X91064Y235733D01*
X90999Y235711D01*
X90932Y235692D01*
X90865Y235677D01*
X90797Y235666D01*
X90729Y235658D01*
X90660Y235654D01*
X90592Y235654D01*
X90523Y235658D01*
X90455Y235666D01*
X90387Y235677D01*
X90320Y235692D01*
X90253Y235711D01*
X90188Y235733D01*
X90125Y235759D01*
X90062Y235788D01*
X90002Y235821D01*
X89943Y235857D01*
X89887Y235896D01*
X89833Y235939D01*
X89781Y235984D01*
X89731Y236032D01*
X89685Y236082D01*
X89641Y236135D01*
X89600Y236191D01*
X89563Y236248D01*
X89528Y236308D01*
X89497Y236369D01*
X89470Y236432D01*
X89446Y236497D01*
X89425Y236562D01*
X89408Y236629D01*
X89395Y236697D01*
X89386Y236765D01*
X89380Y236833D01*
X89378Y236902D01*
X94028Y236902D02*
X94028Y240146D01*
X94028Y236902D02*
X94030Y236833D01*
X94036Y236765D01*
X94045Y236697D01*
X94058Y236629D01*
X94075Y236562D01*
X94096Y236497D01*
X94120Y236432D01*
X94147Y236369D01*
X94178Y236308D01*
X94213Y236248D01*
X94250Y236191D01*
X94291Y236135D01*
X94335Y236082D01*
X94381Y236032D01*
X94431Y235984D01*
X94483Y235939D01*
X94537Y235896D01*
X94593Y235857D01*
X94652Y235821D01*
X94712Y235788D01*
X94775Y235759D01*
X94838Y235733D01*
X94903Y235711D01*
X94970Y235692D01*
X95037Y235677D01*
X95105Y235666D01*
X95173Y235658D01*
X95242Y235654D01*
X95310Y235654D01*
X95379Y235658D01*
X95447Y235666D01*
X95515Y235677D01*
X95582Y235692D01*
X95649Y235711D01*
X95714Y235733D01*
X95777Y235759D01*
X95840Y235788D01*
X95900Y235821D01*
X95959Y235857D01*
X96015Y235896D01*
X96069Y235939D01*
X96121Y235984D01*
X96171Y236032D01*
X96217Y236082D01*
X96261Y236135D01*
X96302Y236191D01*
X96339Y236248D01*
X96374Y236308D01*
X96405Y236369D01*
X96432Y236432D01*
X96456Y236497D01*
X96477Y236562D01*
X96494Y236629D01*
X96507Y236697D01*
X96516Y236765D01*
X96522Y236833D01*
X96524Y236902D01*
X96524Y240146D01*
X99626Y240146D02*
X99626Y235654D01*
X98378Y240146D02*
X100874Y240146D01*
D10*
X104031Y170969D02*
X104031Y166731D01*
X104031Y170969D02*
X105208Y170969D01*
X105275Y170967D01*
X105342Y170961D01*
X105409Y170952D01*
X105475Y170938D01*
X105540Y170921D01*
X105604Y170901D01*
X105666Y170876D01*
X105727Y170848D01*
X105787Y170817D01*
X105844Y170782D01*
X105900Y170744D01*
X105953Y170703D01*
X106004Y170659D01*
X106052Y170612D01*
X106098Y170563D01*
X106140Y170511D01*
X106180Y170456D01*
X106216Y170400D01*
X106249Y170341D01*
X106279Y170281D01*
X106305Y170219D01*
X106327Y170156D01*
X106346Y170091D01*
X106362Y170026D01*
X106373Y169960D01*
X106381Y169893D01*
X106385Y169826D01*
X106385Y169758D01*
X106381Y169691D01*
X106373Y169624D01*
X106362Y169558D01*
X106346Y169493D01*
X106327Y169428D01*
X106305Y169365D01*
X106279Y169303D01*
X106249Y169243D01*
X106216Y169184D01*
X106180Y169128D01*
X106140Y169073D01*
X106098Y169021D01*
X106052Y168972D01*
X106004Y168925D01*
X105953Y168881D01*
X105900Y168840D01*
X105844Y168802D01*
X105787Y168767D01*
X105727Y168736D01*
X105666Y168708D01*
X105604Y168683D01*
X105540Y168663D01*
X105475Y168646D01*
X105409Y168632D01*
X105342Y168623D01*
X105275Y168617D01*
X105208Y168615D01*
X104031Y168615D01*
X105444Y168615D02*
X106385Y166731D01*
X108489Y170027D02*
X109666Y170969D01*
X109666Y166731D01*
X108489Y166731D02*
X110843Y166731D01*
X107265Y26558D02*
X107265Y25381D01*
X107265Y26558D02*
X107267Y26625D01*
X107273Y26692D01*
X107282Y26759D01*
X107296Y26825D01*
X107313Y26890D01*
X107333Y26954D01*
X107358Y27016D01*
X107386Y27077D01*
X107417Y27137D01*
X107452Y27194D01*
X107490Y27250D01*
X107531Y27303D01*
X107575Y27354D01*
X107622Y27402D01*
X107671Y27448D01*
X107723Y27490D01*
X107778Y27530D01*
X107834Y27566D01*
X107893Y27599D01*
X107953Y27629D01*
X108015Y27655D01*
X108078Y27677D01*
X108143Y27696D01*
X108208Y27712D01*
X108274Y27723D01*
X108341Y27731D01*
X108408Y27735D01*
X108476Y27735D01*
X108543Y27731D01*
X108610Y27723D01*
X108676Y27712D01*
X108741Y27696D01*
X108806Y27677D01*
X108869Y27655D01*
X108931Y27629D01*
X108991Y27599D01*
X109050Y27566D01*
X109106Y27530D01*
X109161Y27490D01*
X109213Y27448D01*
X109262Y27402D01*
X109309Y27354D01*
X109353Y27303D01*
X109394Y27250D01*
X109432Y27194D01*
X109467Y27137D01*
X109498Y27077D01*
X109526Y27016D01*
X109551Y26954D01*
X109571Y26890D01*
X109588Y26825D01*
X109602Y26759D01*
X109611Y26692D01*
X109617Y26625D01*
X109619Y26558D01*
X109619Y25381D01*
X105381Y25381D01*
X105381Y26558D01*
X105383Y26618D01*
X105389Y26678D01*
X105398Y26738D01*
X105412Y26797D01*
X105429Y26855D01*
X105450Y26912D01*
X105474Y26967D01*
X105502Y27020D01*
X105534Y27072D01*
X105568Y27121D01*
X105606Y27169D01*
X105646Y27213D01*
X105690Y27255D01*
X105736Y27294D01*
X105784Y27331D01*
X105835Y27364D01*
X105887Y27393D01*
X105942Y27419D01*
X105998Y27442D01*
X106055Y27461D01*
X106113Y27476D01*
X106173Y27488D01*
X106233Y27496D01*
X106293Y27500D01*
X106353Y27500D01*
X106413Y27496D01*
X106473Y27488D01*
X106533Y27476D01*
X106591Y27461D01*
X106648Y27442D01*
X106704Y27419D01*
X106759Y27393D01*
X106811Y27364D01*
X106862Y27331D01*
X106910Y27294D01*
X106956Y27255D01*
X107000Y27213D01*
X107040Y27169D01*
X107078Y27121D01*
X107112Y27072D01*
X107144Y27020D01*
X107172Y26967D01*
X107196Y26912D01*
X107217Y26855D01*
X107234Y26797D01*
X107248Y26738D01*
X107257Y26678D01*
X107263Y26618D01*
X107265Y26558D01*
X109619Y29399D02*
X105381Y30811D01*
X109619Y32224D01*
X108560Y31871D02*
X108560Y29752D01*
X109619Y35011D02*
X105381Y35011D01*
X105381Y33834D02*
X105381Y36189D01*
X110090Y37820D02*
X110090Y39703D01*
X109619Y42811D02*
X105381Y41399D01*
X105381Y44224D02*
X109619Y42811D01*
X109619Y47057D02*
X109619Y47999D01*
X109619Y47057D02*
X109617Y46998D01*
X109612Y46939D01*
X109602Y46880D01*
X109589Y46823D01*
X109573Y46766D01*
X109553Y46710D01*
X109529Y46656D01*
X109502Y46603D01*
X109472Y46552D01*
X109439Y46503D01*
X109403Y46457D01*
X109364Y46412D01*
X109322Y46370D01*
X109277Y46331D01*
X109231Y46295D01*
X109182Y46262D01*
X109131Y46232D01*
X109078Y46205D01*
X109024Y46181D01*
X108968Y46161D01*
X108911Y46145D01*
X108854Y46132D01*
X108795Y46122D01*
X108736Y46117D01*
X108677Y46115D01*
X106323Y46115D01*
X106264Y46117D01*
X106205Y46122D01*
X106146Y46132D01*
X106089Y46145D01*
X106032Y46161D01*
X105976Y46181D01*
X105922Y46205D01*
X105869Y46232D01*
X105818Y46262D01*
X105769Y46295D01*
X105723Y46331D01*
X105678Y46370D01*
X105636Y46412D01*
X105597Y46457D01*
X105561Y46503D01*
X105528Y46552D01*
X105498Y46603D01*
X105471Y46656D01*
X105447Y46710D01*
X105427Y46766D01*
X105411Y46823D01*
X105398Y46880D01*
X105388Y46939D01*
X105383Y46998D01*
X105381Y47057D01*
X105381Y47999D01*
X109619Y50807D02*
X109619Y51749D01*
X109619Y50807D02*
X109617Y50748D01*
X109612Y50689D01*
X109602Y50630D01*
X109589Y50573D01*
X109573Y50516D01*
X109553Y50460D01*
X109529Y50406D01*
X109502Y50353D01*
X109472Y50302D01*
X109439Y50253D01*
X109403Y50207D01*
X109364Y50162D01*
X109322Y50120D01*
X109277Y50081D01*
X109231Y50045D01*
X109182Y50012D01*
X109131Y49982D01*
X109078Y49955D01*
X109024Y49931D01*
X108968Y49911D01*
X108911Y49895D01*
X108854Y49882D01*
X108795Y49872D01*
X108736Y49867D01*
X108677Y49865D01*
X106323Y49865D01*
X106264Y49867D01*
X106205Y49872D01*
X106146Y49882D01*
X106089Y49895D01*
X106032Y49911D01*
X105976Y49931D01*
X105922Y49955D01*
X105869Y49982D01*
X105818Y50012D01*
X105769Y50045D01*
X105723Y50081D01*
X105678Y50120D01*
X105636Y50162D01*
X105597Y50207D01*
X105561Y50253D01*
X105528Y50302D01*
X105498Y50353D01*
X105471Y50406D01*
X105447Y50460D01*
X105427Y50516D01*
X105411Y50573D01*
X105398Y50630D01*
X105388Y50689D01*
X105383Y50748D01*
X105381Y50807D01*
X105381Y51749D01*
X67265Y21558D02*
X67265Y20381D01*
X67265Y21558D02*
X67267Y21625D01*
X67273Y21692D01*
X67282Y21759D01*
X67296Y21825D01*
X67313Y21890D01*
X67333Y21954D01*
X67358Y22016D01*
X67386Y22077D01*
X67417Y22137D01*
X67452Y22194D01*
X67490Y22250D01*
X67531Y22303D01*
X67575Y22354D01*
X67622Y22402D01*
X67671Y22448D01*
X67723Y22490D01*
X67778Y22530D01*
X67834Y22566D01*
X67893Y22599D01*
X67953Y22629D01*
X68015Y22655D01*
X68078Y22677D01*
X68143Y22696D01*
X68208Y22712D01*
X68274Y22723D01*
X68341Y22731D01*
X68408Y22735D01*
X68476Y22735D01*
X68543Y22731D01*
X68610Y22723D01*
X68676Y22712D01*
X68741Y22696D01*
X68806Y22677D01*
X68869Y22655D01*
X68931Y22629D01*
X68991Y22599D01*
X69050Y22566D01*
X69106Y22530D01*
X69161Y22490D01*
X69213Y22448D01*
X69262Y22402D01*
X69309Y22354D01*
X69353Y22303D01*
X69394Y22250D01*
X69432Y22194D01*
X69467Y22137D01*
X69498Y22077D01*
X69526Y22016D01*
X69551Y21954D01*
X69571Y21890D01*
X69588Y21825D01*
X69602Y21759D01*
X69611Y21692D01*
X69617Y21625D01*
X69619Y21558D01*
X69619Y20381D01*
X65381Y20381D01*
X65381Y21558D01*
X65383Y21618D01*
X65389Y21678D01*
X65398Y21738D01*
X65412Y21797D01*
X65429Y21855D01*
X65450Y21912D01*
X65474Y21967D01*
X65502Y22020D01*
X65534Y22072D01*
X65568Y22121D01*
X65606Y22169D01*
X65646Y22213D01*
X65690Y22255D01*
X65736Y22294D01*
X65784Y22331D01*
X65835Y22364D01*
X65887Y22393D01*
X65942Y22419D01*
X65998Y22442D01*
X66055Y22461D01*
X66113Y22476D01*
X66173Y22488D01*
X66233Y22496D01*
X66293Y22500D01*
X66353Y22500D01*
X66413Y22496D01*
X66473Y22488D01*
X66533Y22476D01*
X66591Y22461D01*
X66648Y22442D01*
X66704Y22419D01*
X66759Y22393D01*
X66811Y22364D01*
X66862Y22331D01*
X66910Y22294D01*
X66956Y22255D01*
X67000Y22213D01*
X67040Y22169D01*
X67078Y22121D01*
X67112Y22072D01*
X67144Y22020D01*
X67172Y21967D01*
X67196Y21912D01*
X67217Y21855D01*
X67234Y21797D01*
X67248Y21738D01*
X67257Y21678D01*
X67263Y21618D01*
X67265Y21558D01*
X69619Y24399D02*
X65381Y25811D01*
X69619Y27224D01*
X68560Y26871D02*
X68560Y24752D01*
X69619Y30011D02*
X65381Y30011D01*
X65381Y28834D02*
X65381Y31189D01*
X70090Y32820D02*
X70090Y34703D01*
X67265Y38432D02*
X67265Y39139D01*
X69619Y39139D01*
X69619Y37726D01*
X69617Y37667D01*
X69612Y37608D01*
X69602Y37549D01*
X69589Y37492D01*
X69573Y37435D01*
X69553Y37379D01*
X69529Y37325D01*
X69502Y37272D01*
X69472Y37221D01*
X69439Y37172D01*
X69403Y37126D01*
X69364Y37081D01*
X69322Y37039D01*
X69277Y37000D01*
X69231Y36964D01*
X69182Y36931D01*
X69131Y36901D01*
X69078Y36874D01*
X69024Y36850D01*
X68968Y36830D01*
X68911Y36814D01*
X68854Y36801D01*
X68795Y36791D01*
X68736Y36786D01*
X68677Y36784D01*
X66323Y36784D01*
X66264Y36786D01*
X66205Y36791D01*
X66146Y36801D01*
X66089Y36814D01*
X66032Y36830D01*
X65976Y36850D01*
X65922Y36874D01*
X65869Y36901D01*
X65818Y36931D01*
X65769Y36964D01*
X65723Y37000D01*
X65678Y37039D01*
X65636Y37081D01*
X65597Y37126D01*
X65561Y37172D01*
X65528Y37221D01*
X65498Y37272D01*
X65471Y37325D01*
X65447Y37379D01*
X65427Y37435D01*
X65411Y37492D01*
X65398Y37549D01*
X65388Y37608D01*
X65383Y37667D01*
X65381Y37726D01*
X65381Y39139D01*
X65381Y41584D02*
X69619Y41584D01*
X69619Y43939D02*
X65381Y41584D01*
X65381Y43939D02*
X69619Y43939D01*
X69619Y46384D02*
X65381Y46384D01*
X65381Y47561D01*
X65383Y47627D01*
X65388Y47693D01*
X65398Y47758D01*
X65411Y47823D01*
X65427Y47887D01*
X65447Y47950D01*
X65471Y48011D01*
X65498Y48072D01*
X65528Y48130D01*
X65561Y48187D01*
X65598Y48242D01*
X65638Y48295D01*
X65680Y48345D01*
X65726Y48393D01*
X65774Y48439D01*
X65824Y48481D01*
X65877Y48521D01*
X65932Y48558D01*
X65989Y48591D01*
X66047Y48621D01*
X66108Y48648D01*
X66169Y48672D01*
X66232Y48692D01*
X66296Y48708D01*
X66361Y48721D01*
X66426Y48731D01*
X66492Y48736D01*
X66558Y48738D01*
X66558Y48739D02*
X68442Y48739D01*
X68442Y48738D02*
X68508Y48736D01*
X68574Y48731D01*
X68639Y48721D01*
X68704Y48708D01*
X68768Y48692D01*
X68831Y48672D01*
X68892Y48648D01*
X68953Y48621D01*
X69011Y48591D01*
X69068Y48558D01*
X69123Y48521D01*
X69176Y48481D01*
X69226Y48439D01*
X69274Y48393D01*
X69320Y48345D01*
X69362Y48295D01*
X69402Y48242D01*
X69439Y48187D01*
X69472Y48130D01*
X69502Y48072D01*
X69529Y48011D01*
X69553Y47950D01*
X69573Y47887D01*
X69589Y47823D01*
X69602Y47758D01*
X69612Y47693D01*
X69617Y47627D01*
X69619Y47561D01*
X69619Y46384D01*
X160782Y180381D02*
X160782Y184619D01*
X159605Y184619D02*
X161959Y184619D01*
X163805Y183442D02*
X163805Y181558D01*
X163805Y183442D02*
X163807Y183509D01*
X163813Y183576D01*
X163822Y183643D01*
X163836Y183709D01*
X163853Y183774D01*
X163873Y183838D01*
X163898Y183900D01*
X163926Y183961D01*
X163957Y184021D01*
X163992Y184078D01*
X164030Y184134D01*
X164071Y184187D01*
X164115Y184238D01*
X164162Y184286D01*
X164211Y184332D01*
X164263Y184374D01*
X164318Y184414D01*
X164374Y184450D01*
X164433Y184483D01*
X164493Y184513D01*
X164555Y184539D01*
X164618Y184561D01*
X164683Y184580D01*
X164748Y184596D01*
X164814Y184607D01*
X164881Y184615D01*
X164948Y184619D01*
X165016Y184619D01*
X165083Y184615D01*
X165150Y184607D01*
X165216Y184596D01*
X165281Y184580D01*
X165346Y184561D01*
X165409Y184539D01*
X165471Y184513D01*
X165531Y184483D01*
X165590Y184450D01*
X165646Y184414D01*
X165701Y184374D01*
X165753Y184332D01*
X165802Y184286D01*
X165849Y184238D01*
X165893Y184187D01*
X165934Y184134D01*
X165972Y184078D01*
X166007Y184021D01*
X166038Y183961D01*
X166066Y183900D01*
X166091Y183838D01*
X166111Y183774D01*
X166128Y183709D01*
X166142Y183643D01*
X166151Y183576D01*
X166157Y183509D01*
X166159Y183442D01*
X166159Y181558D01*
X166157Y181491D01*
X166151Y181424D01*
X166142Y181357D01*
X166128Y181291D01*
X166111Y181226D01*
X166091Y181162D01*
X166066Y181100D01*
X166038Y181039D01*
X166007Y180979D01*
X165972Y180922D01*
X165934Y180866D01*
X165893Y180813D01*
X165849Y180762D01*
X165802Y180714D01*
X165753Y180668D01*
X165701Y180626D01*
X165646Y180586D01*
X165590Y180550D01*
X165531Y180517D01*
X165471Y180487D01*
X165409Y180461D01*
X165346Y180439D01*
X165281Y180420D01*
X165216Y180404D01*
X165150Y180393D01*
X165083Y180385D01*
X165016Y180381D01*
X164948Y180381D01*
X164881Y180385D01*
X164814Y180393D01*
X164748Y180404D01*
X164683Y180420D01*
X164618Y180439D01*
X164555Y180461D01*
X164493Y180487D01*
X164433Y180517D01*
X164374Y180550D01*
X164318Y180586D01*
X164263Y180626D01*
X164211Y180668D01*
X164162Y180714D01*
X164115Y180762D01*
X164071Y180813D01*
X164030Y180866D01*
X163992Y180922D01*
X163957Y180979D01*
X163926Y181039D01*
X163898Y181100D01*
X163873Y181162D01*
X163853Y181226D01*
X163836Y181291D01*
X163822Y181357D01*
X163813Y181424D01*
X163807Y181491D01*
X163805Y181558D01*
X168090Y179910D02*
X169974Y179910D01*
X171905Y180381D02*
X173317Y180381D01*
X173376Y180383D01*
X173435Y180388D01*
X173494Y180398D01*
X173551Y180411D01*
X173608Y180427D01*
X173664Y180447D01*
X173718Y180471D01*
X173771Y180498D01*
X173822Y180528D01*
X173871Y180561D01*
X173917Y180597D01*
X173962Y180636D01*
X174004Y180678D01*
X174043Y180723D01*
X174079Y180769D01*
X174112Y180818D01*
X174142Y180869D01*
X174169Y180922D01*
X174193Y180976D01*
X174213Y181032D01*
X174229Y181089D01*
X174242Y181146D01*
X174252Y181205D01*
X174257Y181264D01*
X174259Y181323D01*
X174259Y181794D01*
X174257Y181853D01*
X174252Y181912D01*
X174242Y181971D01*
X174229Y182028D01*
X174213Y182085D01*
X174193Y182141D01*
X174169Y182195D01*
X174142Y182248D01*
X174112Y182299D01*
X174079Y182348D01*
X174043Y182394D01*
X174004Y182439D01*
X173962Y182481D01*
X173917Y182520D01*
X173871Y182556D01*
X173822Y182589D01*
X173771Y182619D01*
X173718Y182646D01*
X173664Y182670D01*
X173608Y182690D01*
X173551Y182706D01*
X173494Y182719D01*
X173435Y182729D01*
X173376Y182734D01*
X173317Y182736D01*
X173317Y182735D02*
X171905Y182735D01*
X171905Y184619D01*
X174259Y184619D01*
X176169Y184619D02*
X177582Y180381D01*
X178994Y184619D01*
X180690Y179910D02*
X182574Y179910D01*
X185682Y180381D02*
X184269Y184619D01*
X187094Y184619D02*
X185682Y180381D01*
X189927Y180381D02*
X190869Y180381D01*
X189927Y180381D02*
X189868Y180383D01*
X189809Y180388D01*
X189750Y180398D01*
X189693Y180411D01*
X189636Y180427D01*
X189580Y180447D01*
X189526Y180471D01*
X189473Y180498D01*
X189422Y180528D01*
X189373Y180561D01*
X189327Y180597D01*
X189282Y180636D01*
X189240Y180678D01*
X189201Y180723D01*
X189165Y180769D01*
X189132Y180818D01*
X189102Y180869D01*
X189075Y180922D01*
X189051Y180976D01*
X189031Y181032D01*
X189015Y181089D01*
X189002Y181146D01*
X188992Y181205D01*
X188987Y181264D01*
X188985Y181323D01*
X188986Y181323D02*
X188986Y183677D01*
X188985Y183677D02*
X188987Y183736D01*
X188992Y183795D01*
X189002Y183854D01*
X189015Y183911D01*
X189031Y183968D01*
X189051Y184024D01*
X189075Y184078D01*
X189102Y184131D01*
X189132Y184182D01*
X189165Y184231D01*
X189201Y184277D01*
X189240Y184322D01*
X189282Y184364D01*
X189327Y184403D01*
X189373Y184439D01*
X189422Y184472D01*
X189473Y184502D01*
X189526Y184529D01*
X189580Y184553D01*
X189636Y184573D01*
X189693Y184589D01*
X189750Y184602D01*
X189809Y184612D01*
X189868Y184617D01*
X189927Y184619D01*
X190869Y184619D01*
X193677Y180381D02*
X194619Y180381D01*
X193677Y180381D02*
X193618Y180383D01*
X193559Y180388D01*
X193500Y180398D01*
X193443Y180411D01*
X193386Y180427D01*
X193330Y180447D01*
X193276Y180471D01*
X193223Y180498D01*
X193172Y180528D01*
X193123Y180561D01*
X193077Y180597D01*
X193032Y180636D01*
X192990Y180678D01*
X192951Y180723D01*
X192915Y180769D01*
X192882Y180818D01*
X192852Y180869D01*
X192825Y180922D01*
X192801Y180976D01*
X192781Y181032D01*
X192765Y181089D01*
X192752Y181146D01*
X192742Y181205D01*
X192737Y181264D01*
X192735Y181323D01*
X192735Y183677D01*
X192737Y183736D01*
X192742Y183795D01*
X192752Y183854D01*
X192765Y183911D01*
X192781Y183968D01*
X192801Y184024D01*
X192825Y184078D01*
X192852Y184131D01*
X192882Y184182D01*
X192915Y184231D01*
X192951Y184277D01*
X192990Y184322D01*
X193032Y184364D01*
X193077Y184403D01*
X193123Y184439D01*
X193172Y184472D01*
X193223Y184502D01*
X193276Y184529D01*
X193330Y184553D01*
X193386Y184573D01*
X193443Y184589D01*
X193500Y184602D01*
X193559Y184612D01*
X193618Y184617D01*
X193677Y184619D01*
X194619Y184619D01*
X158792Y109619D02*
X158792Y105381D01*
X157615Y109619D02*
X159969Y109619D01*
X161815Y108442D02*
X161815Y106558D01*
X161815Y108442D02*
X161817Y108509D01*
X161823Y108576D01*
X161832Y108643D01*
X161846Y108709D01*
X161863Y108774D01*
X161883Y108838D01*
X161908Y108900D01*
X161936Y108961D01*
X161967Y109021D01*
X162002Y109078D01*
X162040Y109134D01*
X162081Y109187D01*
X162125Y109238D01*
X162172Y109286D01*
X162221Y109332D01*
X162273Y109374D01*
X162328Y109414D01*
X162384Y109450D01*
X162443Y109483D01*
X162503Y109513D01*
X162565Y109539D01*
X162628Y109561D01*
X162693Y109580D01*
X162758Y109596D01*
X162824Y109607D01*
X162891Y109615D01*
X162958Y109619D01*
X163026Y109619D01*
X163093Y109615D01*
X163160Y109607D01*
X163226Y109596D01*
X163291Y109580D01*
X163356Y109561D01*
X163419Y109539D01*
X163481Y109513D01*
X163541Y109483D01*
X163600Y109450D01*
X163656Y109414D01*
X163711Y109374D01*
X163763Y109332D01*
X163812Y109286D01*
X163859Y109238D01*
X163903Y109187D01*
X163944Y109134D01*
X163982Y109078D01*
X164017Y109021D01*
X164048Y108961D01*
X164076Y108900D01*
X164101Y108838D01*
X164121Y108774D01*
X164138Y108709D01*
X164152Y108643D01*
X164161Y108576D01*
X164167Y108509D01*
X164169Y108442D01*
X164169Y106558D01*
X164167Y106491D01*
X164161Y106424D01*
X164152Y106357D01*
X164138Y106291D01*
X164121Y106226D01*
X164101Y106162D01*
X164076Y106100D01*
X164048Y106039D01*
X164017Y105979D01*
X163982Y105922D01*
X163944Y105866D01*
X163903Y105813D01*
X163859Y105762D01*
X163812Y105714D01*
X163763Y105668D01*
X163711Y105626D01*
X163656Y105586D01*
X163600Y105550D01*
X163541Y105517D01*
X163481Y105487D01*
X163419Y105461D01*
X163356Y105439D01*
X163291Y105420D01*
X163226Y105404D01*
X163160Y105393D01*
X163093Y105385D01*
X163026Y105381D01*
X162958Y105381D01*
X162891Y105385D01*
X162824Y105393D01*
X162758Y105404D01*
X162693Y105420D01*
X162628Y105439D01*
X162565Y105461D01*
X162503Y105487D01*
X162443Y105517D01*
X162384Y105550D01*
X162328Y105586D01*
X162273Y105626D01*
X162221Y105668D01*
X162172Y105714D01*
X162125Y105762D01*
X162081Y105813D01*
X162040Y105866D01*
X162002Y105922D01*
X161967Y105979D01*
X161936Y106039D01*
X161908Y106100D01*
X161883Y106162D01*
X161863Y106226D01*
X161846Y106291D01*
X161832Y106357D01*
X161823Y106424D01*
X161817Y106491D01*
X161815Y106558D01*
X166100Y104910D02*
X167984Y104910D01*
X169915Y105381D02*
X171327Y105381D01*
X171386Y105383D01*
X171445Y105388D01*
X171504Y105398D01*
X171561Y105411D01*
X171618Y105427D01*
X171674Y105447D01*
X171728Y105471D01*
X171781Y105498D01*
X171832Y105528D01*
X171881Y105561D01*
X171927Y105597D01*
X171972Y105636D01*
X172014Y105678D01*
X172053Y105723D01*
X172089Y105769D01*
X172122Y105818D01*
X172152Y105869D01*
X172179Y105922D01*
X172203Y105976D01*
X172223Y106032D01*
X172239Y106089D01*
X172252Y106146D01*
X172262Y106205D01*
X172267Y106264D01*
X172269Y106323D01*
X172269Y106794D01*
X172267Y106853D01*
X172262Y106912D01*
X172252Y106971D01*
X172239Y107028D01*
X172223Y107085D01*
X172203Y107141D01*
X172179Y107195D01*
X172152Y107248D01*
X172122Y107299D01*
X172089Y107348D01*
X172053Y107394D01*
X172014Y107439D01*
X171972Y107481D01*
X171927Y107520D01*
X171881Y107556D01*
X171832Y107589D01*
X171781Y107619D01*
X171728Y107646D01*
X171674Y107670D01*
X171618Y107690D01*
X171561Y107706D01*
X171504Y107719D01*
X171445Y107729D01*
X171386Y107734D01*
X171327Y107736D01*
X171327Y107735D02*
X169915Y107735D01*
X169915Y109619D01*
X172269Y109619D01*
X174179Y109619D02*
X175592Y105381D01*
X177004Y109619D01*
X178700Y104910D02*
X180584Y104910D01*
X184313Y107735D02*
X185019Y107735D01*
X185019Y105381D01*
X183606Y105381D01*
X183547Y105383D01*
X183488Y105388D01*
X183429Y105398D01*
X183372Y105411D01*
X183315Y105427D01*
X183259Y105447D01*
X183205Y105471D01*
X183152Y105498D01*
X183101Y105528D01*
X183052Y105561D01*
X183006Y105597D01*
X182961Y105636D01*
X182919Y105678D01*
X182880Y105723D01*
X182844Y105769D01*
X182811Y105818D01*
X182781Y105869D01*
X182754Y105922D01*
X182730Y105976D01*
X182710Y106032D01*
X182694Y106089D01*
X182681Y106146D01*
X182671Y106205D01*
X182666Y106264D01*
X182664Y106323D01*
X182665Y106323D02*
X182665Y108677D01*
X182664Y108677D02*
X182666Y108736D01*
X182671Y108795D01*
X182681Y108854D01*
X182694Y108911D01*
X182710Y108968D01*
X182730Y109024D01*
X182754Y109078D01*
X182781Y109131D01*
X182811Y109182D01*
X182844Y109231D01*
X182880Y109277D01*
X182919Y109322D01*
X182961Y109364D01*
X183006Y109403D01*
X183052Y109439D01*
X183101Y109472D01*
X183152Y109502D01*
X183205Y109529D01*
X183259Y109553D01*
X183315Y109573D01*
X183372Y109589D01*
X183429Y109602D01*
X183488Y109612D01*
X183547Y109617D01*
X183606Y109619D01*
X185019Y109619D01*
X187465Y109619D02*
X187465Y105381D01*
X189819Y105381D02*
X187465Y109619D01*
X189819Y109619D02*
X189819Y105381D01*
X192265Y105381D02*
X192265Y109619D01*
X193442Y109619D01*
X193508Y109617D01*
X193574Y109612D01*
X193639Y109602D01*
X193704Y109589D01*
X193768Y109573D01*
X193831Y109553D01*
X193892Y109529D01*
X193953Y109502D01*
X194011Y109472D01*
X194068Y109439D01*
X194123Y109402D01*
X194176Y109362D01*
X194226Y109320D01*
X194274Y109274D01*
X194320Y109226D01*
X194362Y109176D01*
X194402Y109123D01*
X194439Y109068D01*
X194472Y109011D01*
X194502Y108953D01*
X194529Y108892D01*
X194553Y108831D01*
X194573Y108768D01*
X194589Y108704D01*
X194602Y108639D01*
X194612Y108574D01*
X194617Y108508D01*
X194619Y108442D01*
X194619Y106558D01*
X194617Y106490D01*
X194611Y106421D01*
X194601Y106354D01*
X194587Y106287D01*
X194570Y106220D01*
X194548Y106155D01*
X194523Y106092D01*
X194494Y106030D01*
X194461Y105970D01*
X194425Y105911D01*
X194386Y105855D01*
X194344Y105801D01*
X194298Y105750D01*
X194250Y105702D01*
X194199Y105656D01*
X194145Y105614D01*
X194089Y105575D01*
X194031Y105539D01*
X193970Y105506D01*
X193908Y105477D01*
X193845Y105452D01*
X193780Y105430D01*
X193713Y105413D01*
X193646Y105399D01*
X193579Y105389D01*
X193510Y105383D01*
X193442Y105381D01*
X192265Y105381D01*
X173942Y65381D02*
X172529Y65381D01*
X173942Y65381D02*
X174001Y65383D01*
X174060Y65388D01*
X174119Y65398D01*
X174176Y65411D01*
X174233Y65427D01*
X174289Y65447D01*
X174343Y65471D01*
X174396Y65498D01*
X174447Y65528D01*
X174496Y65561D01*
X174542Y65597D01*
X174587Y65636D01*
X174629Y65678D01*
X174668Y65723D01*
X174704Y65769D01*
X174737Y65818D01*
X174767Y65869D01*
X174794Y65922D01*
X174818Y65976D01*
X174838Y66032D01*
X174854Y66089D01*
X174867Y66146D01*
X174877Y66205D01*
X174882Y66264D01*
X174884Y66323D01*
X174884Y66794D01*
X174882Y66853D01*
X174877Y66912D01*
X174867Y66971D01*
X174854Y67028D01*
X174838Y67085D01*
X174818Y67141D01*
X174794Y67195D01*
X174767Y67248D01*
X174737Y67299D01*
X174704Y67348D01*
X174668Y67394D01*
X174629Y67439D01*
X174587Y67481D01*
X174542Y67520D01*
X174496Y67556D01*
X174447Y67589D01*
X174396Y67619D01*
X174343Y67646D01*
X174289Y67670D01*
X174233Y67690D01*
X174176Y67706D01*
X174119Y67719D01*
X174060Y67729D01*
X174001Y67734D01*
X173942Y67736D01*
X173942Y67735D02*
X172529Y67735D01*
X172529Y69619D01*
X174884Y69619D01*
X176794Y69619D02*
X178206Y65381D01*
X179619Y69619D01*
X21282Y180381D02*
X21282Y184619D01*
X20105Y184619D02*
X22459Y184619D01*
X24305Y183442D02*
X24305Y181558D01*
X24305Y183442D02*
X24307Y183509D01*
X24313Y183576D01*
X24322Y183643D01*
X24336Y183709D01*
X24353Y183774D01*
X24373Y183838D01*
X24398Y183900D01*
X24426Y183961D01*
X24457Y184021D01*
X24492Y184078D01*
X24530Y184134D01*
X24571Y184187D01*
X24615Y184238D01*
X24662Y184286D01*
X24711Y184332D01*
X24763Y184374D01*
X24818Y184414D01*
X24874Y184450D01*
X24933Y184483D01*
X24993Y184513D01*
X25055Y184539D01*
X25118Y184561D01*
X25183Y184580D01*
X25248Y184596D01*
X25314Y184607D01*
X25381Y184615D01*
X25448Y184619D01*
X25516Y184619D01*
X25583Y184615D01*
X25650Y184607D01*
X25716Y184596D01*
X25781Y184580D01*
X25846Y184561D01*
X25909Y184539D01*
X25971Y184513D01*
X26031Y184483D01*
X26090Y184450D01*
X26146Y184414D01*
X26201Y184374D01*
X26253Y184332D01*
X26302Y184286D01*
X26349Y184238D01*
X26393Y184187D01*
X26434Y184134D01*
X26472Y184078D01*
X26507Y184021D01*
X26538Y183961D01*
X26566Y183900D01*
X26591Y183838D01*
X26611Y183774D01*
X26628Y183709D01*
X26642Y183643D01*
X26651Y183576D01*
X26657Y183509D01*
X26659Y183442D01*
X26659Y181558D01*
X26657Y181491D01*
X26651Y181424D01*
X26642Y181357D01*
X26628Y181291D01*
X26611Y181226D01*
X26591Y181162D01*
X26566Y181100D01*
X26538Y181039D01*
X26507Y180979D01*
X26472Y180922D01*
X26434Y180866D01*
X26393Y180813D01*
X26349Y180762D01*
X26302Y180714D01*
X26253Y180668D01*
X26201Y180626D01*
X26146Y180586D01*
X26090Y180550D01*
X26031Y180517D01*
X25971Y180487D01*
X25909Y180461D01*
X25846Y180439D01*
X25781Y180420D01*
X25716Y180404D01*
X25650Y180393D01*
X25583Y180385D01*
X25516Y180381D01*
X25448Y180381D01*
X25381Y180385D01*
X25314Y180393D01*
X25248Y180404D01*
X25183Y180420D01*
X25118Y180439D01*
X25055Y180461D01*
X24993Y180487D01*
X24933Y180517D01*
X24874Y180550D01*
X24818Y180586D01*
X24763Y180626D01*
X24711Y180668D01*
X24662Y180714D01*
X24615Y180762D01*
X24571Y180813D01*
X24530Y180866D01*
X24492Y180922D01*
X24457Y180979D01*
X24426Y181039D01*
X24398Y181100D01*
X24373Y181162D01*
X24353Y181226D01*
X24336Y181291D01*
X24322Y181357D01*
X24313Y181424D01*
X24307Y181491D01*
X24305Y181558D01*
X28590Y179910D02*
X30474Y179910D01*
X32405Y183677D02*
X33582Y184619D01*
X33582Y180381D01*
X32405Y180381D02*
X34759Y180381D01*
X38199Y184620D02*
X38263Y184618D01*
X38327Y184612D01*
X38390Y184603D01*
X38453Y184589D01*
X38514Y184572D01*
X38575Y184551D01*
X38634Y184527D01*
X38692Y184499D01*
X38747Y184467D01*
X38801Y184432D01*
X38853Y184394D01*
X38902Y184353D01*
X38949Y184310D01*
X38992Y184263D01*
X39033Y184214D01*
X39071Y184162D01*
X39106Y184108D01*
X39138Y184053D01*
X39166Y183995D01*
X39190Y183936D01*
X39211Y183875D01*
X39228Y183814D01*
X39242Y183751D01*
X39251Y183688D01*
X39257Y183624D01*
X39259Y183560D01*
X38199Y184619D02*
X38128Y184617D01*
X38057Y184612D01*
X37986Y184602D01*
X37916Y184589D01*
X37846Y184573D01*
X37778Y184552D01*
X37711Y184528D01*
X37645Y184501D01*
X37581Y184470D01*
X37518Y184436D01*
X37457Y184399D01*
X37398Y184359D01*
X37342Y184315D01*
X37288Y184269D01*
X37236Y184220D01*
X37187Y184168D01*
X37141Y184114D01*
X37097Y184057D01*
X37057Y183998D01*
X37020Y183938D01*
X36986Y183875D01*
X36955Y183810D01*
X36928Y183745D01*
X36904Y183677D01*
X38906Y182736D02*
X38952Y182783D01*
X38996Y182832D01*
X39036Y182884D01*
X39074Y182938D01*
X39108Y182994D01*
X39139Y183052D01*
X39167Y183112D01*
X39191Y183173D01*
X39212Y183235D01*
X39229Y183299D01*
X39242Y183364D01*
X39251Y183429D01*
X39257Y183494D01*
X39259Y183560D01*
X38906Y182735D02*
X36905Y180381D01*
X39259Y180381D01*
X42582Y180381D02*
X41169Y184619D01*
X43994Y184619D02*
X42582Y180381D01*
X45690Y179910D02*
X47574Y179910D01*
X50682Y180381D02*
X49269Y184619D01*
X52094Y184619D02*
X50682Y180381D01*
X54927Y180381D02*
X55869Y180381D01*
X54927Y180381D02*
X54868Y180383D01*
X54809Y180388D01*
X54750Y180398D01*
X54693Y180411D01*
X54636Y180427D01*
X54580Y180447D01*
X54526Y180471D01*
X54473Y180498D01*
X54422Y180528D01*
X54373Y180561D01*
X54327Y180597D01*
X54282Y180636D01*
X54240Y180678D01*
X54201Y180723D01*
X54165Y180769D01*
X54132Y180818D01*
X54102Y180869D01*
X54075Y180922D01*
X54051Y180976D01*
X54031Y181032D01*
X54015Y181089D01*
X54002Y181146D01*
X53992Y181205D01*
X53987Y181264D01*
X53985Y181323D01*
X53986Y181323D02*
X53986Y183677D01*
X53985Y183677D02*
X53987Y183736D01*
X53992Y183795D01*
X54002Y183854D01*
X54015Y183911D01*
X54031Y183968D01*
X54051Y184024D01*
X54075Y184078D01*
X54102Y184131D01*
X54132Y184182D01*
X54165Y184231D01*
X54201Y184277D01*
X54240Y184322D01*
X54282Y184364D01*
X54327Y184403D01*
X54373Y184439D01*
X54422Y184472D01*
X54473Y184502D01*
X54526Y184529D01*
X54580Y184553D01*
X54636Y184573D01*
X54693Y184589D01*
X54750Y184602D01*
X54809Y184612D01*
X54868Y184617D01*
X54927Y184619D01*
X55869Y184619D01*
X58677Y180381D02*
X59619Y180381D01*
X58677Y180381D02*
X58618Y180383D01*
X58559Y180388D01*
X58500Y180398D01*
X58443Y180411D01*
X58386Y180427D01*
X58330Y180447D01*
X58276Y180471D01*
X58223Y180498D01*
X58172Y180528D01*
X58123Y180561D01*
X58077Y180597D01*
X58032Y180636D01*
X57990Y180678D01*
X57951Y180723D01*
X57915Y180769D01*
X57882Y180818D01*
X57852Y180869D01*
X57825Y180922D01*
X57801Y180976D01*
X57781Y181032D01*
X57765Y181089D01*
X57752Y181146D01*
X57742Y181205D01*
X57737Y181264D01*
X57735Y181323D01*
X57735Y183677D01*
X57737Y183736D01*
X57742Y183795D01*
X57752Y183854D01*
X57765Y183911D01*
X57781Y183968D01*
X57801Y184024D01*
X57825Y184078D01*
X57852Y184131D01*
X57882Y184182D01*
X57915Y184231D01*
X57951Y184277D01*
X57990Y184322D01*
X58032Y184364D01*
X58077Y184403D01*
X58123Y184439D01*
X58172Y184472D01*
X58223Y184502D01*
X58276Y184529D01*
X58330Y184553D01*
X58386Y184573D01*
X58443Y184589D01*
X58500Y184602D01*
X58559Y184612D01*
X58618Y184617D01*
X58677Y184619D01*
X59619Y184619D01*
X19292Y109619D02*
X19292Y105381D01*
X18115Y109619D02*
X20469Y109619D01*
X22315Y108442D02*
X22315Y106558D01*
X22315Y108442D02*
X22317Y108509D01*
X22323Y108576D01*
X22332Y108643D01*
X22346Y108709D01*
X22363Y108774D01*
X22383Y108838D01*
X22408Y108900D01*
X22436Y108961D01*
X22467Y109021D01*
X22502Y109078D01*
X22540Y109134D01*
X22581Y109187D01*
X22625Y109238D01*
X22672Y109286D01*
X22721Y109332D01*
X22773Y109374D01*
X22828Y109414D01*
X22884Y109450D01*
X22943Y109483D01*
X23003Y109513D01*
X23065Y109539D01*
X23128Y109561D01*
X23193Y109580D01*
X23258Y109596D01*
X23324Y109607D01*
X23391Y109615D01*
X23458Y109619D01*
X23526Y109619D01*
X23593Y109615D01*
X23660Y109607D01*
X23726Y109596D01*
X23791Y109580D01*
X23856Y109561D01*
X23919Y109539D01*
X23981Y109513D01*
X24041Y109483D01*
X24100Y109450D01*
X24156Y109414D01*
X24211Y109374D01*
X24263Y109332D01*
X24312Y109286D01*
X24359Y109238D01*
X24403Y109187D01*
X24444Y109134D01*
X24482Y109078D01*
X24517Y109021D01*
X24548Y108961D01*
X24576Y108900D01*
X24601Y108838D01*
X24621Y108774D01*
X24638Y108709D01*
X24652Y108643D01*
X24661Y108576D01*
X24667Y108509D01*
X24669Y108442D01*
X24669Y106558D01*
X24667Y106491D01*
X24661Y106424D01*
X24652Y106357D01*
X24638Y106291D01*
X24621Y106226D01*
X24601Y106162D01*
X24576Y106100D01*
X24548Y106039D01*
X24517Y105979D01*
X24482Y105922D01*
X24444Y105866D01*
X24403Y105813D01*
X24359Y105762D01*
X24312Y105714D01*
X24263Y105668D01*
X24211Y105626D01*
X24156Y105586D01*
X24100Y105550D01*
X24041Y105517D01*
X23981Y105487D01*
X23919Y105461D01*
X23856Y105439D01*
X23791Y105420D01*
X23726Y105404D01*
X23660Y105393D01*
X23593Y105385D01*
X23526Y105381D01*
X23458Y105381D01*
X23391Y105385D01*
X23324Y105393D01*
X23258Y105404D01*
X23193Y105420D01*
X23128Y105439D01*
X23065Y105461D01*
X23003Y105487D01*
X22943Y105517D01*
X22884Y105550D01*
X22828Y105586D01*
X22773Y105626D01*
X22721Y105668D01*
X22672Y105714D01*
X22625Y105762D01*
X22581Y105813D01*
X22540Y105866D01*
X22502Y105922D01*
X22467Y105979D01*
X22436Y106039D01*
X22408Y106100D01*
X22383Y106162D01*
X22363Y106226D01*
X22346Y106291D01*
X22332Y106357D01*
X22323Y106424D01*
X22317Y106491D01*
X22315Y106558D01*
X26600Y104910D02*
X28484Y104910D01*
X30415Y108677D02*
X31592Y109619D01*
X31592Y105381D01*
X30415Y105381D02*
X32769Y105381D01*
X36210Y109620D02*
X36274Y109618D01*
X36338Y109612D01*
X36401Y109603D01*
X36464Y109589D01*
X36525Y109572D01*
X36586Y109551D01*
X36645Y109527D01*
X36703Y109499D01*
X36758Y109467D01*
X36812Y109432D01*
X36864Y109394D01*
X36913Y109353D01*
X36960Y109310D01*
X37003Y109263D01*
X37044Y109214D01*
X37082Y109162D01*
X37117Y109108D01*
X37149Y109053D01*
X37177Y108995D01*
X37201Y108936D01*
X37222Y108875D01*
X37239Y108814D01*
X37253Y108751D01*
X37262Y108688D01*
X37268Y108624D01*
X37270Y108560D01*
X36210Y109619D02*
X36139Y109617D01*
X36068Y109612D01*
X35997Y109602D01*
X35927Y109589D01*
X35857Y109573D01*
X35789Y109552D01*
X35722Y109528D01*
X35656Y109501D01*
X35592Y109470D01*
X35529Y109436D01*
X35468Y109399D01*
X35409Y109359D01*
X35353Y109315D01*
X35299Y109269D01*
X35247Y109220D01*
X35198Y109168D01*
X35152Y109114D01*
X35108Y109057D01*
X35068Y108998D01*
X35031Y108938D01*
X34997Y108875D01*
X34966Y108810D01*
X34939Y108745D01*
X34915Y108677D01*
X36916Y107736D02*
X36962Y107783D01*
X37006Y107832D01*
X37046Y107884D01*
X37084Y107938D01*
X37118Y107994D01*
X37149Y108052D01*
X37177Y108112D01*
X37201Y108173D01*
X37222Y108235D01*
X37239Y108299D01*
X37252Y108364D01*
X37261Y108429D01*
X37267Y108494D01*
X37269Y108560D01*
X36916Y107735D02*
X34915Y105381D01*
X37269Y105381D01*
X40592Y105381D02*
X39179Y109619D01*
X42004Y109619D02*
X40592Y105381D01*
X43700Y104910D02*
X45584Y104910D01*
X49313Y107735D02*
X50019Y107735D01*
X50019Y105381D01*
X48606Y105381D01*
X48547Y105383D01*
X48488Y105388D01*
X48429Y105398D01*
X48372Y105411D01*
X48315Y105427D01*
X48259Y105447D01*
X48205Y105471D01*
X48152Y105498D01*
X48101Y105528D01*
X48052Y105561D01*
X48006Y105597D01*
X47961Y105636D01*
X47919Y105678D01*
X47880Y105723D01*
X47844Y105769D01*
X47811Y105818D01*
X47781Y105869D01*
X47754Y105922D01*
X47730Y105976D01*
X47710Y106032D01*
X47694Y106089D01*
X47681Y106146D01*
X47671Y106205D01*
X47666Y106264D01*
X47664Y106323D01*
X47665Y106323D02*
X47665Y108677D01*
X47664Y108677D02*
X47666Y108736D01*
X47671Y108795D01*
X47681Y108854D01*
X47694Y108911D01*
X47710Y108968D01*
X47730Y109024D01*
X47754Y109078D01*
X47781Y109131D01*
X47811Y109182D01*
X47844Y109231D01*
X47880Y109277D01*
X47919Y109322D01*
X47961Y109364D01*
X48006Y109403D01*
X48052Y109439D01*
X48101Y109472D01*
X48152Y109502D01*
X48205Y109529D01*
X48259Y109553D01*
X48315Y109573D01*
X48372Y109589D01*
X48429Y109602D01*
X48488Y109612D01*
X48547Y109617D01*
X48606Y109619D01*
X50019Y109619D01*
X52465Y109619D02*
X52465Y105381D01*
X54819Y105381D02*
X52465Y109619D01*
X54819Y109619D02*
X54819Y105381D01*
X57265Y105381D02*
X57265Y109619D01*
X58442Y109619D01*
X58508Y109617D01*
X58574Y109612D01*
X58639Y109602D01*
X58704Y109589D01*
X58768Y109573D01*
X58831Y109553D01*
X58892Y109529D01*
X58953Y109502D01*
X59011Y109472D01*
X59068Y109439D01*
X59123Y109402D01*
X59176Y109362D01*
X59226Y109320D01*
X59274Y109274D01*
X59320Y109226D01*
X59362Y109176D01*
X59402Y109123D01*
X59439Y109068D01*
X59472Y109011D01*
X59502Y108953D01*
X59529Y108892D01*
X59553Y108831D01*
X59573Y108768D01*
X59589Y108704D01*
X59602Y108639D01*
X59612Y108574D01*
X59617Y108508D01*
X59619Y108442D01*
X59619Y106558D01*
X59617Y106490D01*
X59611Y106421D01*
X59601Y106354D01*
X59587Y106287D01*
X59570Y106220D01*
X59548Y106155D01*
X59523Y106092D01*
X59494Y106030D01*
X59461Y105970D01*
X59425Y105911D01*
X59386Y105855D01*
X59344Y105801D01*
X59298Y105750D01*
X59250Y105702D01*
X59199Y105656D01*
X59145Y105614D01*
X59089Y105575D01*
X59031Y105539D01*
X58970Y105506D01*
X58908Y105477D01*
X58845Y105452D01*
X58780Y105430D01*
X58713Y105413D01*
X58646Y105399D01*
X58579Y105389D01*
X58510Y105383D01*
X58442Y105381D01*
X57265Y105381D01*
X34206Y69619D02*
X33029Y68677D01*
X34206Y69619D02*
X34206Y65381D01*
X33029Y65381D02*
X35384Y65381D01*
X38824Y69620D02*
X38888Y69618D01*
X38952Y69612D01*
X39015Y69603D01*
X39078Y69589D01*
X39139Y69572D01*
X39200Y69551D01*
X39259Y69527D01*
X39317Y69499D01*
X39372Y69467D01*
X39426Y69432D01*
X39478Y69394D01*
X39527Y69353D01*
X39574Y69310D01*
X39617Y69263D01*
X39658Y69214D01*
X39696Y69162D01*
X39731Y69108D01*
X39763Y69053D01*
X39791Y68995D01*
X39815Y68936D01*
X39836Y68875D01*
X39853Y68814D01*
X39867Y68751D01*
X39876Y68688D01*
X39882Y68624D01*
X39884Y68560D01*
X38824Y69619D02*
X38753Y69617D01*
X38682Y69612D01*
X38611Y69602D01*
X38541Y69589D01*
X38471Y69573D01*
X38403Y69552D01*
X38336Y69528D01*
X38270Y69501D01*
X38206Y69470D01*
X38143Y69436D01*
X38082Y69399D01*
X38023Y69359D01*
X37967Y69315D01*
X37913Y69269D01*
X37861Y69220D01*
X37812Y69168D01*
X37766Y69114D01*
X37722Y69057D01*
X37682Y68998D01*
X37645Y68938D01*
X37611Y68875D01*
X37580Y68810D01*
X37553Y68745D01*
X37529Y68677D01*
X39531Y67736D02*
X39577Y67783D01*
X39621Y67832D01*
X39661Y67884D01*
X39699Y67938D01*
X39733Y67994D01*
X39764Y68052D01*
X39792Y68112D01*
X39816Y68173D01*
X39837Y68235D01*
X39854Y68299D01*
X39867Y68364D01*
X39876Y68429D01*
X39882Y68494D01*
X39884Y68560D01*
X39530Y67735D02*
X37529Y65381D01*
X39884Y65381D01*
X43206Y65381D02*
X41794Y69619D01*
X44619Y69619D02*
X43206Y65381D01*
D13*
X101430Y108570D02*
X101430Y113650D01*
X101430Y108570D02*
X96350Y108570D01*
X101430Y126350D02*
X101430Y131430D01*
X96350Y131430D01*
X83650Y131430D02*
X78570Y131430D01*
X78570Y126350D01*
X78570Y113650D02*
X78570Y108570D01*
X83650Y108570D01*
D10*
X90364Y134351D02*
X90423Y134353D01*
X90482Y134358D01*
X90541Y134368D01*
X90598Y134381D01*
X90655Y134397D01*
X90711Y134417D01*
X90765Y134441D01*
X90818Y134468D01*
X90869Y134498D01*
X90918Y134531D01*
X90964Y134567D01*
X91009Y134606D01*
X91051Y134648D01*
X91090Y134693D01*
X91126Y134739D01*
X91159Y134788D01*
X91189Y134839D01*
X91216Y134892D01*
X91240Y134946D01*
X91260Y135002D01*
X91276Y135059D01*
X91289Y135116D01*
X91299Y135175D01*
X91304Y135234D01*
X91306Y135293D01*
X90364Y134351D02*
X90277Y134353D01*
X90190Y134359D01*
X90103Y134368D01*
X90017Y134382D01*
X89931Y134399D01*
X89846Y134420D01*
X89763Y134444D01*
X89680Y134472D01*
X89599Y134504D01*
X89519Y134539D01*
X89441Y134578D01*
X89364Y134620D01*
X89290Y134666D01*
X89217Y134715D01*
X89147Y134766D01*
X89079Y134821D01*
X89014Y134879D01*
X88951Y134940D01*
X89068Y137647D02*
X89070Y137706D01*
X89075Y137765D01*
X89085Y137824D01*
X89098Y137881D01*
X89114Y137938D01*
X89134Y137994D01*
X89158Y138048D01*
X89185Y138101D01*
X89215Y138152D01*
X89248Y138201D01*
X89284Y138247D01*
X89323Y138292D01*
X89365Y138334D01*
X89410Y138373D01*
X89456Y138409D01*
X89505Y138442D01*
X89556Y138472D01*
X89609Y138499D01*
X89663Y138523D01*
X89719Y138543D01*
X89776Y138559D01*
X89834Y138572D01*
X89892Y138582D01*
X89951Y138587D01*
X90010Y138589D01*
X90091Y138587D01*
X90172Y138582D01*
X90253Y138572D01*
X90333Y138559D01*
X90412Y138543D01*
X90491Y138522D01*
X90568Y138498D01*
X90645Y138471D01*
X90720Y138440D01*
X90793Y138406D01*
X90865Y138368D01*
X90935Y138327D01*
X91004Y138283D01*
X91070Y138236D01*
X89539Y136823D02*
X89490Y136854D01*
X89442Y136888D01*
X89397Y136925D01*
X89354Y136965D01*
X89314Y137007D01*
X89276Y137051D01*
X89241Y137098D01*
X89209Y137147D01*
X89180Y137198D01*
X89154Y137250D01*
X89132Y137304D01*
X89112Y137359D01*
X89096Y137416D01*
X89084Y137473D01*
X89075Y137530D01*
X89070Y137589D01*
X89068Y137647D01*
X90835Y136117D02*
X90884Y136086D01*
X90932Y136052D01*
X90977Y136015D01*
X91020Y135975D01*
X91060Y135933D01*
X91098Y135889D01*
X91133Y135842D01*
X91165Y135793D01*
X91194Y135742D01*
X91220Y135690D01*
X91242Y135636D01*
X91262Y135581D01*
X91278Y135524D01*
X91290Y135467D01*
X91299Y135410D01*
X91304Y135351D01*
X91306Y135293D01*
X90835Y136117D02*
X89540Y136823D01*
X93451Y138589D02*
X93451Y134351D01*
X93451Y138589D02*
X94628Y138589D01*
X94694Y138587D01*
X94760Y138582D01*
X94825Y138572D01*
X94890Y138559D01*
X94954Y138543D01*
X95017Y138523D01*
X95078Y138499D01*
X95139Y138472D01*
X95197Y138442D01*
X95254Y138409D01*
X95309Y138372D01*
X95362Y138332D01*
X95412Y138290D01*
X95460Y138244D01*
X95506Y138196D01*
X95548Y138146D01*
X95588Y138093D01*
X95625Y138038D01*
X95658Y137981D01*
X95688Y137923D01*
X95715Y137862D01*
X95739Y137801D01*
X95759Y137738D01*
X95775Y137674D01*
X95788Y137609D01*
X95798Y137544D01*
X95803Y137478D01*
X95805Y137412D01*
X95805Y135528D01*
X95803Y135460D01*
X95797Y135391D01*
X95787Y135324D01*
X95773Y135257D01*
X95756Y135190D01*
X95734Y135125D01*
X95709Y135062D01*
X95680Y135000D01*
X95647Y134940D01*
X95611Y134881D01*
X95572Y134825D01*
X95530Y134771D01*
X95484Y134720D01*
X95436Y134672D01*
X95385Y134626D01*
X95331Y134584D01*
X95275Y134545D01*
X95217Y134509D01*
X95156Y134476D01*
X95094Y134447D01*
X95031Y134422D01*
X94966Y134400D01*
X94899Y134383D01*
X94832Y134369D01*
X94765Y134359D01*
X94696Y134353D01*
X94628Y134351D01*
X93451Y134351D01*
X97866Y134351D02*
X99278Y138589D01*
X100691Y134351D01*
X100338Y135411D02*
X98219Y135411D01*
D13*
X131430Y113650D02*
X131430Y108570D01*
X126350Y108570D01*
X131430Y126350D02*
X131430Y131430D01*
X126350Y131430D01*
X113650Y131430D02*
X108570Y131430D01*
X108570Y126350D01*
X108570Y113650D02*
X108570Y108570D01*
X113650Y108570D01*
D10*
X120364Y134351D02*
X120423Y134353D01*
X120482Y134358D01*
X120541Y134368D01*
X120598Y134381D01*
X120655Y134397D01*
X120711Y134417D01*
X120765Y134441D01*
X120818Y134468D01*
X120869Y134498D01*
X120918Y134531D01*
X120964Y134567D01*
X121009Y134606D01*
X121051Y134648D01*
X121090Y134693D01*
X121126Y134739D01*
X121159Y134788D01*
X121189Y134839D01*
X121216Y134892D01*
X121240Y134946D01*
X121260Y135002D01*
X121276Y135059D01*
X121289Y135116D01*
X121299Y135175D01*
X121304Y135234D01*
X121306Y135293D01*
X120364Y134351D02*
X120277Y134353D01*
X120190Y134359D01*
X120103Y134368D01*
X120017Y134382D01*
X119931Y134399D01*
X119846Y134420D01*
X119763Y134444D01*
X119680Y134472D01*
X119599Y134504D01*
X119519Y134539D01*
X119441Y134578D01*
X119364Y134620D01*
X119290Y134666D01*
X119217Y134715D01*
X119147Y134766D01*
X119079Y134821D01*
X119014Y134879D01*
X118951Y134940D01*
X119068Y137647D02*
X119070Y137706D01*
X119075Y137765D01*
X119085Y137824D01*
X119098Y137881D01*
X119114Y137938D01*
X119134Y137994D01*
X119158Y138048D01*
X119185Y138101D01*
X119215Y138152D01*
X119248Y138201D01*
X119284Y138247D01*
X119323Y138292D01*
X119365Y138334D01*
X119410Y138373D01*
X119456Y138409D01*
X119505Y138442D01*
X119556Y138472D01*
X119609Y138499D01*
X119663Y138523D01*
X119719Y138543D01*
X119776Y138559D01*
X119834Y138572D01*
X119892Y138582D01*
X119951Y138587D01*
X120010Y138589D01*
X120091Y138587D01*
X120172Y138582D01*
X120253Y138572D01*
X120333Y138559D01*
X120412Y138543D01*
X120491Y138522D01*
X120568Y138498D01*
X120645Y138471D01*
X120720Y138440D01*
X120793Y138406D01*
X120865Y138368D01*
X120935Y138327D01*
X121004Y138283D01*
X121070Y138236D01*
X119539Y136823D02*
X119490Y136854D01*
X119442Y136888D01*
X119397Y136925D01*
X119354Y136965D01*
X119314Y137007D01*
X119276Y137051D01*
X119241Y137098D01*
X119209Y137147D01*
X119180Y137198D01*
X119154Y137250D01*
X119132Y137304D01*
X119112Y137359D01*
X119096Y137416D01*
X119084Y137473D01*
X119075Y137530D01*
X119070Y137589D01*
X119068Y137647D01*
X120835Y136117D02*
X120884Y136086D01*
X120932Y136052D01*
X120977Y136015D01*
X121020Y135975D01*
X121060Y135933D01*
X121098Y135889D01*
X121133Y135842D01*
X121165Y135793D01*
X121194Y135742D01*
X121220Y135690D01*
X121242Y135636D01*
X121262Y135581D01*
X121278Y135524D01*
X121290Y135467D01*
X121299Y135410D01*
X121304Y135351D01*
X121306Y135293D01*
X120835Y136117D02*
X119540Y136823D01*
X124224Y134351D02*
X125166Y134351D01*
X124224Y134351D02*
X124165Y134353D01*
X124106Y134358D01*
X124047Y134368D01*
X123990Y134381D01*
X123933Y134397D01*
X123877Y134417D01*
X123823Y134441D01*
X123770Y134468D01*
X123719Y134498D01*
X123670Y134531D01*
X123624Y134567D01*
X123579Y134606D01*
X123537Y134648D01*
X123498Y134693D01*
X123462Y134739D01*
X123429Y134788D01*
X123399Y134839D01*
X123372Y134892D01*
X123348Y134946D01*
X123328Y135002D01*
X123312Y135059D01*
X123299Y135116D01*
X123289Y135175D01*
X123284Y135234D01*
X123282Y135293D01*
X123282Y137647D01*
X123284Y137706D01*
X123289Y137765D01*
X123299Y137824D01*
X123312Y137881D01*
X123328Y137938D01*
X123348Y137994D01*
X123372Y138048D01*
X123399Y138101D01*
X123429Y138152D01*
X123462Y138201D01*
X123498Y138247D01*
X123537Y138292D01*
X123579Y138334D01*
X123624Y138373D01*
X123670Y138409D01*
X123719Y138442D01*
X123770Y138472D01*
X123823Y138499D01*
X123877Y138523D01*
X123933Y138543D01*
X123990Y138559D01*
X124047Y138572D01*
X124106Y138582D01*
X124165Y138587D01*
X124224Y138589D01*
X125166Y138589D01*
X127214Y138589D02*
X127214Y134351D01*
X129097Y134351D01*
D13*
X101430Y83650D02*
X101430Y78570D01*
X96350Y78570D01*
X101430Y96350D02*
X101430Y101430D01*
X96350Y101430D01*
X83650Y101430D02*
X78570Y101430D01*
X78570Y96350D01*
X78570Y83650D02*
X78570Y78570D01*
X83650Y78570D01*
D10*
X80835Y104351D02*
X79893Y104351D01*
X79834Y104353D01*
X79775Y104358D01*
X79716Y104368D01*
X79659Y104381D01*
X79602Y104397D01*
X79546Y104417D01*
X79492Y104441D01*
X79439Y104468D01*
X79388Y104498D01*
X79339Y104531D01*
X79293Y104567D01*
X79248Y104606D01*
X79206Y104648D01*
X79167Y104693D01*
X79131Y104739D01*
X79098Y104788D01*
X79068Y104839D01*
X79041Y104892D01*
X79017Y104946D01*
X78997Y105002D01*
X78981Y105059D01*
X78968Y105116D01*
X78958Y105175D01*
X78953Y105234D01*
X78951Y105293D01*
X78951Y107647D01*
X78953Y107706D01*
X78958Y107765D01*
X78968Y107824D01*
X78981Y107881D01*
X78997Y107938D01*
X79017Y107994D01*
X79041Y108048D01*
X79068Y108101D01*
X79098Y108152D01*
X79131Y108201D01*
X79167Y108247D01*
X79206Y108292D01*
X79248Y108334D01*
X79293Y108373D01*
X79339Y108409D01*
X79388Y108442D01*
X79439Y108472D01*
X79492Y108499D01*
X79546Y108523D01*
X79602Y108543D01*
X79659Y108559D01*
X79716Y108572D01*
X79775Y108582D01*
X79834Y108587D01*
X79893Y108589D01*
X80835Y108589D01*
X82967Y108589D02*
X82967Y104351D01*
X82967Y108589D02*
X84144Y108589D01*
X84211Y108587D01*
X84278Y108581D01*
X84345Y108572D01*
X84411Y108558D01*
X84476Y108541D01*
X84540Y108521D01*
X84602Y108496D01*
X84663Y108468D01*
X84723Y108437D01*
X84780Y108402D01*
X84836Y108364D01*
X84889Y108323D01*
X84940Y108279D01*
X84988Y108232D01*
X85034Y108183D01*
X85076Y108131D01*
X85116Y108076D01*
X85152Y108020D01*
X85185Y107961D01*
X85215Y107901D01*
X85241Y107839D01*
X85263Y107776D01*
X85282Y107711D01*
X85298Y107646D01*
X85309Y107580D01*
X85317Y107513D01*
X85321Y107446D01*
X85321Y107378D01*
X85317Y107311D01*
X85309Y107244D01*
X85298Y107178D01*
X85282Y107113D01*
X85263Y107048D01*
X85241Y106985D01*
X85215Y106923D01*
X85185Y106863D01*
X85152Y106804D01*
X85116Y106748D01*
X85076Y106693D01*
X85034Y106641D01*
X84988Y106592D01*
X84940Y106545D01*
X84889Y106501D01*
X84836Y106460D01*
X84780Y106422D01*
X84723Y106387D01*
X84663Y106356D01*
X84602Y106328D01*
X84540Y106303D01*
X84476Y106283D01*
X84411Y106266D01*
X84345Y106252D01*
X84278Y106243D01*
X84211Y106237D01*
X84144Y106235D01*
X82967Y106235D01*
X87370Y105528D02*
X87370Y108589D01*
X87370Y105528D02*
X87372Y105461D01*
X87378Y105394D01*
X87387Y105327D01*
X87401Y105261D01*
X87418Y105196D01*
X87438Y105132D01*
X87463Y105070D01*
X87491Y105009D01*
X87522Y104949D01*
X87557Y104892D01*
X87595Y104836D01*
X87636Y104783D01*
X87680Y104732D01*
X87727Y104684D01*
X87776Y104638D01*
X87828Y104596D01*
X87883Y104556D01*
X87939Y104520D01*
X87998Y104487D01*
X88058Y104457D01*
X88120Y104431D01*
X88183Y104409D01*
X88248Y104390D01*
X88313Y104374D01*
X88379Y104363D01*
X88446Y104355D01*
X88513Y104351D01*
X88581Y104351D01*
X88648Y104355D01*
X88715Y104363D01*
X88781Y104374D01*
X88846Y104390D01*
X88911Y104409D01*
X88974Y104431D01*
X89036Y104457D01*
X89096Y104487D01*
X89155Y104520D01*
X89211Y104556D01*
X89266Y104596D01*
X89318Y104638D01*
X89367Y104684D01*
X89414Y104732D01*
X89458Y104783D01*
X89499Y104836D01*
X89537Y104892D01*
X89572Y104949D01*
X89603Y105009D01*
X89631Y105070D01*
X89656Y105132D01*
X89676Y105196D01*
X89693Y105261D01*
X89707Y105327D01*
X89716Y105394D01*
X89722Y105461D01*
X89724Y105528D01*
X89724Y108589D01*
X91805Y103880D02*
X93689Y103880D01*
X96797Y104351D02*
X95384Y108589D01*
X98210Y108589D02*
X96797Y104351D01*
X101043Y104351D02*
X101984Y104351D01*
X101043Y104351D02*
X100984Y104353D01*
X100925Y104358D01*
X100866Y104368D01*
X100809Y104381D01*
X100752Y104397D01*
X100696Y104417D01*
X100642Y104441D01*
X100589Y104468D01*
X100538Y104498D01*
X100489Y104531D01*
X100443Y104567D01*
X100398Y104606D01*
X100356Y104648D01*
X100317Y104693D01*
X100281Y104739D01*
X100248Y104788D01*
X100218Y104839D01*
X100191Y104892D01*
X100167Y104946D01*
X100147Y105002D01*
X100131Y105059D01*
X100118Y105116D01*
X100108Y105175D01*
X100103Y105234D01*
X100101Y105293D01*
X100101Y107647D01*
X100103Y107706D01*
X100108Y107765D01*
X100118Y107824D01*
X100131Y107881D01*
X100147Y107938D01*
X100167Y107994D01*
X100191Y108048D01*
X100218Y108101D01*
X100248Y108152D01*
X100281Y108201D01*
X100317Y108247D01*
X100356Y108292D01*
X100398Y108334D01*
X100443Y108373D01*
X100489Y108409D01*
X100538Y108442D01*
X100589Y108472D01*
X100642Y108499D01*
X100696Y108523D01*
X100752Y108543D01*
X100809Y108559D01*
X100866Y108572D01*
X100925Y108582D01*
X100984Y108587D01*
X101043Y108589D01*
X101984Y108589D01*
X104793Y104351D02*
X105734Y104351D01*
X104793Y104351D02*
X104734Y104353D01*
X104675Y104358D01*
X104616Y104368D01*
X104559Y104381D01*
X104502Y104397D01*
X104446Y104417D01*
X104392Y104441D01*
X104339Y104468D01*
X104288Y104498D01*
X104239Y104531D01*
X104193Y104567D01*
X104148Y104606D01*
X104106Y104648D01*
X104067Y104693D01*
X104031Y104739D01*
X103998Y104788D01*
X103968Y104839D01*
X103941Y104892D01*
X103917Y104946D01*
X103897Y105002D01*
X103881Y105059D01*
X103868Y105116D01*
X103858Y105175D01*
X103853Y105234D01*
X103851Y105293D01*
X103851Y107647D01*
X103853Y107706D01*
X103858Y107765D01*
X103868Y107824D01*
X103881Y107881D01*
X103897Y107938D01*
X103917Y107994D01*
X103941Y108048D01*
X103968Y108101D01*
X103998Y108152D01*
X104031Y108201D01*
X104067Y108247D01*
X104106Y108292D01*
X104148Y108334D01*
X104193Y108373D01*
X104239Y108409D01*
X104288Y108442D01*
X104339Y108472D01*
X104392Y108499D01*
X104446Y108523D01*
X104502Y108543D01*
X104559Y108559D01*
X104616Y108572D01*
X104675Y108582D01*
X104734Y108587D01*
X104793Y108589D01*
X105734Y108589D01*
D13*
X131430Y83650D02*
X131430Y78570D01*
X126350Y78570D01*
X131430Y96350D02*
X131430Y101430D01*
X126350Y101430D01*
X113650Y101430D02*
X108570Y101430D01*
X108570Y96350D01*
X108570Y83650D02*
X108570Y78570D01*
X113650Y78570D01*
D10*
X110835Y104351D02*
X109893Y104351D01*
X109834Y104353D01*
X109775Y104358D01*
X109716Y104368D01*
X109659Y104381D01*
X109602Y104397D01*
X109546Y104417D01*
X109492Y104441D01*
X109439Y104468D01*
X109388Y104498D01*
X109339Y104531D01*
X109293Y104567D01*
X109248Y104606D01*
X109206Y104648D01*
X109167Y104693D01*
X109131Y104739D01*
X109098Y104788D01*
X109068Y104839D01*
X109041Y104892D01*
X109017Y104946D01*
X108997Y105002D01*
X108981Y105059D01*
X108968Y105116D01*
X108958Y105175D01*
X108953Y105234D01*
X108951Y105293D01*
X108951Y107647D01*
X108953Y107706D01*
X108958Y107765D01*
X108968Y107824D01*
X108981Y107881D01*
X108997Y107938D01*
X109017Y107994D01*
X109041Y108048D01*
X109068Y108101D01*
X109098Y108152D01*
X109131Y108201D01*
X109167Y108247D01*
X109206Y108292D01*
X109248Y108334D01*
X109293Y108373D01*
X109339Y108409D01*
X109388Y108442D01*
X109439Y108472D01*
X109492Y108499D01*
X109546Y108523D01*
X109602Y108543D01*
X109659Y108559D01*
X109716Y108572D01*
X109775Y108582D01*
X109834Y108587D01*
X109893Y108589D01*
X110835Y108589D01*
X112967Y108589D02*
X112967Y104351D01*
X112967Y108589D02*
X114144Y108589D01*
X114211Y108587D01*
X114278Y108581D01*
X114345Y108572D01*
X114411Y108558D01*
X114476Y108541D01*
X114540Y108521D01*
X114602Y108496D01*
X114663Y108468D01*
X114723Y108437D01*
X114780Y108402D01*
X114836Y108364D01*
X114889Y108323D01*
X114940Y108279D01*
X114988Y108232D01*
X115034Y108183D01*
X115076Y108131D01*
X115116Y108076D01*
X115152Y108020D01*
X115185Y107961D01*
X115215Y107901D01*
X115241Y107839D01*
X115263Y107776D01*
X115282Y107711D01*
X115298Y107646D01*
X115309Y107580D01*
X115317Y107513D01*
X115321Y107446D01*
X115321Y107378D01*
X115317Y107311D01*
X115309Y107244D01*
X115298Y107178D01*
X115282Y107113D01*
X115263Y107048D01*
X115241Y106985D01*
X115215Y106923D01*
X115185Y106863D01*
X115152Y106804D01*
X115116Y106748D01*
X115076Y106693D01*
X115034Y106641D01*
X114988Y106592D01*
X114940Y106545D01*
X114889Y106501D01*
X114836Y106460D01*
X114780Y106422D01*
X114723Y106387D01*
X114663Y106356D01*
X114602Y106328D01*
X114540Y106303D01*
X114476Y106283D01*
X114411Y106266D01*
X114345Y106252D01*
X114278Y106243D01*
X114211Y106237D01*
X114144Y106235D01*
X112967Y106235D01*
X117370Y105528D02*
X117370Y108589D01*
X117370Y105528D02*
X117372Y105461D01*
X117378Y105394D01*
X117387Y105327D01*
X117401Y105261D01*
X117418Y105196D01*
X117438Y105132D01*
X117463Y105070D01*
X117491Y105009D01*
X117522Y104949D01*
X117557Y104892D01*
X117595Y104836D01*
X117636Y104783D01*
X117680Y104732D01*
X117727Y104684D01*
X117776Y104638D01*
X117828Y104596D01*
X117883Y104556D01*
X117939Y104520D01*
X117998Y104487D01*
X118058Y104457D01*
X118120Y104431D01*
X118183Y104409D01*
X118248Y104390D01*
X118313Y104374D01*
X118379Y104363D01*
X118446Y104355D01*
X118513Y104351D01*
X118581Y104351D01*
X118648Y104355D01*
X118715Y104363D01*
X118781Y104374D01*
X118846Y104390D01*
X118911Y104409D01*
X118974Y104431D01*
X119036Y104457D01*
X119096Y104487D01*
X119155Y104520D01*
X119211Y104556D01*
X119266Y104596D01*
X119318Y104638D01*
X119367Y104684D01*
X119414Y104732D01*
X119458Y104783D01*
X119499Y104836D01*
X119537Y104892D01*
X119572Y104949D01*
X119603Y105009D01*
X119631Y105070D01*
X119656Y105132D01*
X119676Y105196D01*
X119693Y105261D01*
X119707Y105327D01*
X119716Y105394D01*
X119722Y105461D01*
X119724Y105528D01*
X119724Y108589D01*
X121805Y103880D02*
X123689Y103880D01*
X127418Y106705D02*
X128124Y106705D01*
X128124Y104351D01*
X126712Y104351D01*
X126653Y104353D01*
X126594Y104358D01*
X126535Y104368D01*
X126478Y104381D01*
X126421Y104397D01*
X126365Y104417D01*
X126311Y104441D01*
X126258Y104468D01*
X126207Y104498D01*
X126158Y104531D01*
X126112Y104567D01*
X126067Y104606D01*
X126025Y104648D01*
X125986Y104693D01*
X125950Y104739D01*
X125917Y104788D01*
X125887Y104839D01*
X125860Y104892D01*
X125836Y104946D01*
X125816Y105002D01*
X125800Y105059D01*
X125787Y105116D01*
X125777Y105175D01*
X125772Y105234D01*
X125770Y105293D01*
X125770Y107647D01*
X125772Y107706D01*
X125777Y107765D01*
X125787Y107824D01*
X125800Y107881D01*
X125816Y107938D01*
X125836Y107994D01*
X125860Y108048D01*
X125887Y108101D01*
X125917Y108152D01*
X125950Y108201D01*
X125986Y108247D01*
X126025Y108292D01*
X126067Y108334D01*
X126112Y108373D01*
X126158Y108409D01*
X126207Y108442D01*
X126258Y108472D01*
X126311Y108499D01*
X126365Y108523D01*
X126421Y108543D01*
X126478Y108559D01*
X126535Y108572D01*
X126594Y108582D01*
X126653Y108587D01*
X126712Y108589D01*
X128124Y108589D01*
X130570Y108589D02*
X130570Y104351D01*
X132924Y104351D02*
X130570Y108589D01*
X132924Y108589D02*
X132924Y104351D01*
X135370Y104351D02*
X135370Y108589D01*
X136547Y108589D01*
X136613Y108587D01*
X136679Y108582D01*
X136744Y108572D01*
X136809Y108559D01*
X136873Y108543D01*
X136936Y108523D01*
X136997Y108499D01*
X137058Y108472D01*
X137116Y108442D01*
X137173Y108409D01*
X137228Y108372D01*
X137281Y108332D01*
X137331Y108290D01*
X137379Y108244D01*
X137425Y108196D01*
X137467Y108146D01*
X137507Y108093D01*
X137544Y108038D01*
X137577Y107981D01*
X137607Y107923D01*
X137634Y107862D01*
X137658Y107801D01*
X137678Y107738D01*
X137694Y107674D01*
X137707Y107609D01*
X137717Y107544D01*
X137722Y107478D01*
X137724Y107412D01*
X137724Y105528D01*
X137722Y105460D01*
X137716Y105391D01*
X137706Y105324D01*
X137692Y105257D01*
X137675Y105190D01*
X137653Y105125D01*
X137628Y105062D01*
X137599Y105000D01*
X137566Y104940D01*
X137530Y104881D01*
X137491Y104825D01*
X137449Y104771D01*
X137403Y104720D01*
X137355Y104672D01*
X137304Y104626D01*
X137250Y104584D01*
X137194Y104545D01*
X137136Y104509D01*
X137075Y104476D01*
X137013Y104447D01*
X136950Y104422D01*
X136885Y104400D01*
X136818Y104383D01*
X136751Y104369D01*
X136684Y104359D01*
X136615Y104353D01*
X136547Y104351D01*
X135370Y104351D01*
M02*
