M48
;GenerationSoftware,Autodesk,EAGLE,9.1.0*%
;CreationDate,2019-05-18T04:37:33Z*%
FMAT,2
ICI,OFF
METRIC,TZ,000.000
T7C0.350
T6C0.800
T5C0.813
T4C1.000
T3C1.016
T2C3.000
%
G90
M71
T2
X32000Y28000
X32000Y2000
X2000Y28000
X2000Y2000
T3
X20460Y27000
X23000Y27000
X25540Y27000
X8500Y27540
X8500Y22460
T4
X10740Y13780
X23440Y18860
X10740Y16320
X10740Y18860
X23440Y6160
X23440Y8700
X23440Y11240
X23440Y13780
X23440Y16320
X10740Y8700
X10740Y6160
X10740Y11240
T5
X26970Y22580
X24970Y22580
X22970Y22580
X20970Y22580
X21790Y2420
X19790Y2420
X17790Y2420
X15790Y2420
X13790Y2420
X11790Y2420
X18970Y22580
X16970Y22580
T6
X30480Y17570
X30480Y15070
X30480Y12570
X30480Y10070
X30480Y7570
X4610Y12070
X4610Y7070
X4610Y9570
X4610Y14570
X4610Y17070
T7
X15300Y11600
X9600Y4700
X19800Y21000
X7500Y20400
X9600Y20400
X17000Y11600
X13900Y21700
X27700Y8800
X18900Y13300
X19800Y3800
X17000Y13200
X12400Y13000
M30