G04 EAGLE Gerber RS-274X export*
G75*
%MOMM*%
%FSLAX34Y34*%
%LPD*%
%AMOC8*
5,1,8,0,0,1.08239X$1,22.5*%
G01*
%ADD10C,0.152400*%
%ADD11C,0.127000*%
%ADD12R,1.000000X0.500000*%
%ADD13C,0.101600*%
%ADD14R,2.286000X0.635000*%
%ADD15R,0.200000X0.200000*%
%ADD16R,0.250000X0.150000*%
%ADD17C,0.254000*%
%ADD18C,0.177800*%


D10*
X127430Y142010D02*
X127430Y106190D01*
X212770Y106190D02*
X212770Y142010D01*
X199818Y131847D02*
X199820Y131993D01*
X199826Y132138D01*
X199836Y132284D01*
X199850Y132429D01*
X199868Y132573D01*
X199889Y132717D01*
X199915Y132861D01*
X199945Y133003D01*
X199978Y133145D01*
X200016Y133286D01*
X200057Y133426D01*
X200102Y133564D01*
X200151Y133702D01*
X200203Y133838D01*
X200260Y133972D01*
X200319Y134105D01*
X200383Y134236D01*
X200450Y134365D01*
X200521Y134493D01*
X200595Y134618D01*
X200672Y134742D01*
X200753Y134863D01*
X200837Y134982D01*
X200924Y135099D01*
X201014Y135213D01*
X201108Y135325D01*
X201204Y135434D01*
X201304Y135541D01*
X201406Y135644D01*
X201511Y135745D01*
X201619Y135843D01*
X201730Y135938D01*
X201843Y136030D01*
X201958Y136119D01*
X202076Y136205D01*
X202196Y136287D01*
X202319Y136366D01*
X202443Y136442D01*
X202570Y136514D01*
X202698Y136583D01*
X202828Y136648D01*
X202960Y136710D01*
X203094Y136768D01*
X203229Y136822D01*
X203366Y136873D01*
X203504Y136920D01*
X203643Y136963D01*
X203783Y137002D01*
X203925Y137038D01*
X204067Y137069D01*
X204210Y137097D01*
X204354Y137121D01*
X204498Y137141D01*
X204643Y137157D01*
X204788Y137169D01*
X204933Y137177D01*
X205079Y137181D01*
X205225Y137181D01*
X205371Y137177D01*
X205516Y137169D01*
X205661Y137157D01*
X205806Y137141D01*
X205950Y137121D01*
X206094Y137097D01*
X206237Y137069D01*
X206379Y137038D01*
X206521Y137002D01*
X206661Y136963D01*
X206800Y136920D01*
X206938Y136873D01*
X207075Y136822D01*
X207210Y136768D01*
X207344Y136710D01*
X207476Y136648D01*
X207606Y136583D01*
X207734Y136514D01*
X207861Y136442D01*
X207985Y136366D01*
X208108Y136287D01*
X208228Y136205D01*
X208346Y136119D01*
X208461Y136030D01*
X208574Y135938D01*
X208685Y135843D01*
X208793Y135745D01*
X208898Y135644D01*
X209000Y135541D01*
X209100Y135434D01*
X209196Y135325D01*
X209290Y135213D01*
X209380Y135099D01*
X209467Y134982D01*
X209551Y134863D01*
X209632Y134742D01*
X209709Y134618D01*
X209783Y134493D01*
X209854Y134365D01*
X209921Y134236D01*
X209985Y134105D01*
X210044Y133972D01*
X210101Y133838D01*
X210153Y133702D01*
X210202Y133564D01*
X210247Y133426D01*
X210288Y133286D01*
X210326Y133145D01*
X210359Y133003D01*
X210389Y132861D01*
X210415Y132717D01*
X210436Y132573D01*
X210454Y132429D01*
X210468Y132284D01*
X210478Y132138D01*
X210484Y131993D01*
X210486Y131847D01*
X210484Y131701D01*
X210478Y131556D01*
X210468Y131410D01*
X210454Y131265D01*
X210436Y131121D01*
X210415Y130977D01*
X210389Y130833D01*
X210359Y130691D01*
X210326Y130549D01*
X210288Y130408D01*
X210247Y130268D01*
X210202Y130130D01*
X210153Y129992D01*
X210101Y129856D01*
X210044Y129722D01*
X209985Y129589D01*
X209921Y129458D01*
X209854Y129329D01*
X209783Y129201D01*
X209709Y129076D01*
X209632Y128952D01*
X209551Y128831D01*
X209467Y128712D01*
X209380Y128595D01*
X209290Y128481D01*
X209196Y128369D01*
X209100Y128260D01*
X209000Y128153D01*
X208898Y128050D01*
X208793Y127949D01*
X208685Y127851D01*
X208574Y127756D01*
X208461Y127664D01*
X208346Y127575D01*
X208228Y127489D01*
X208108Y127407D01*
X207985Y127328D01*
X207861Y127252D01*
X207734Y127180D01*
X207606Y127111D01*
X207476Y127046D01*
X207344Y126984D01*
X207210Y126926D01*
X207075Y126872D01*
X206938Y126821D01*
X206800Y126774D01*
X206661Y126731D01*
X206521Y126692D01*
X206379Y126656D01*
X206237Y126625D01*
X206094Y126597D01*
X205950Y126573D01*
X205806Y126553D01*
X205661Y126537D01*
X205516Y126525D01*
X205371Y126517D01*
X205225Y126513D01*
X205079Y126513D01*
X204933Y126517D01*
X204788Y126525D01*
X204643Y126537D01*
X204498Y126553D01*
X204354Y126573D01*
X204210Y126597D01*
X204067Y126625D01*
X203925Y126656D01*
X203783Y126692D01*
X203643Y126731D01*
X203504Y126774D01*
X203366Y126821D01*
X203229Y126872D01*
X203094Y126926D01*
X202960Y126984D01*
X202828Y127046D01*
X202698Y127111D01*
X202570Y127180D01*
X202443Y127252D01*
X202319Y127328D01*
X202196Y127407D01*
X202076Y127489D01*
X201958Y127575D01*
X201843Y127664D01*
X201730Y127756D01*
X201619Y127851D01*
X201511Y127949D01*
X201406Y128050D01*
X201304Y128153D01*
X201204Y128260D01*
X201108Y128369D01*
X201014Y128481D01*
X200924Y128595D01*
X200837Y128712D01*
X200753Y128831D01*
X200672Y128952D01*
X200595Y129076D01*
X200521Y129201D01*
X200450Y129329D01*
X200383Y129458D01*
X200319Y129589D01*
X200260Y129722D01*
X200203Y129856D01*
X200151Y129992D01*
X200102Y130130D01*
X200057Y130268D01*
X200016Y130408D01*
X199978Y130549D01*
X199945Y130691D01*
X199915Y130833D01*
X199889Y130977D01*
X199868Y131121D01*
X199850Y131265D01*
X199836Y131410D01*
X199826Y131556D01*
X199820Y131701D01*
X199818Y131847D01*
D11*
X215820Y121941D02*
X227250Y121941D01*
X227250Y120671D02*
X227250Y123211D01*
X215820Y123211D02*
X215820Y120671D01*
X227250Y130413D02*
X227250Y132953D01*
X227250Y130413D02*
X227248Y130313D01*
X227242Y130214D01*
X227232Y130114D01*
X227219Y130016D01*
X227201Y129917D01*
X227180Y129820D01*
X227155Y129724D01*
X227126Y129628D01*
X227093Y129534D01*
X227057Y129441D01*
X227017Y129350D01*
X226973Y129260D01*
X226926Y129172D01*
X226876Y129086D01*
X226822Y129002D01*
X226765Y128920D01*
X226705Y128841D01*
X226641Y128763D01*
X226575Y128689D01*
X226506Y128617D01*
X226434Y128548D01*
X226360Y128482D01*
X226282Y128418D01*
X226203Y128358D01*
X226121Y128301D01*
X226037Y128247D01*
X225951Y128197D01*
X225863Y128150D01*
X225773Y128106D01*
X225682Y128066D01*
X225589Y128030D01*
X225495Y127997D01*
X225399Y127968D01*
X225303Y127943D01*
X225206Y127922D01*
X225107Y127904D01*
X225009Y127891D01*
X224909Y127881D01*
X224810Y127875D01*
X224710Y127873D01*
X218360Y127873D01*
X218260Y127875D01*
X218161Y127881D01*
X218061Y127891D01*
X217963Y127904D01*
X217864Y127922D01*
X217767Y127943D01*
X217671Y127968D01*
X217575Y127997D01*
X217481Y128030D01*
X217388Y128066D01*
X217297Y128106D01*
X217207Y128150D01*
X217119Y128197D01*
X217033Y128247D01*
X216949Y128301D01*
X216867Y128358D01*
X216788Y128418D01*
X216710Y128482D01*
X216636Y128548D01*
X216564Y128617D01*
X216495Y128689D01*
X216429Y128763D01*
X216365Y128841D01*
X216305Y128920D01*
X216248Y129002D01*
X216194Y129086D01*
X216144Y129172D01*
X216097Y129260D01*
X216053Y129350D01*
X216013Y129441D01*
X215977Y129534D01*
X215944Y129628D01*
X215915Y129724D01*
X215890Y129820D01*
X215869Y129917D01*
X215851Y130016D01*
X215838Y130114D01*
X215828Y130214D01*
X215822Y130313D01*
X215820Y130413D01*
X215820Y132953D01*
X218360Y137435D02*
X215820Y140610D01*
X227250Y140610D01*
X227250Y137435D02*
X227250Y143785D01*
X94700Y201300D02*
X94700Y48900D01*
X94700Y201300D02*
X247100Y201300D01*
X247100Y48900D01*
X94700Y48900D01*
X97900Y44200D02*
X237900Y44200D01*
X97900Y44200D02*
X97900Y-800D01*
X237900Y-800D02*
X237900Y44200D01*
X237900Y-800D02*
X97900Y-800D01*
D12*
X167900Y41700D03*
D13*
X149226Y37008D02*
X149226Y48692D01*
X152472Y48692D01*
X152585Y48690D01*
X152698Y48684D01*
X152811Y48674D01*
X152924Y48660D01*
X153036Y48643D01*
X153147Y48621D01*
X153257Y48596D01*
X153367Y48566D01*
X153475Y48533D01*
X153582Y48496D01*
X153688Y48456D01*
X153792Y48411D01*
X153895Y48363D01*
X153996Y48312D01*
X154095Y48257D01*
X154192Y48199D01*
X154287Y48137D01*
X154380Y48072D01*
X154470Y48004D01*
X154558Y47933D01*
X154644Y47858D01*
X154727Y47781D01*
X154807Y47701D01*
X154884Y47618D01*
X154959Y47532D01*
X155030Y47444D01*
X155098Y47354D01*
X155163Y47261D01*
X155225Y47166D01*
X155283Y47069D01*
X155338Y46970D01*
X155389Y46869D01*
X155437Y46766D01*
X155482Y46662D01*
X155522Y46556D01*
X155559Y46449D01*
X155592Y46341D01*
X155622Y46231D01*
X155647Y46121D01*
X155669Y46010D01*
X155686Y45898D01*
X155700Y45785D01*
X155710Y45672D01*
X155716Y45559D01*
X155718Y45446D01*
X155716Y45333D01*
X155710Y45220D01*
X155700Y45107D01*
X155686Y44994D01*
X155669Y44882D01*
X155647Y44771D01*
X155622Y44661D01*
X155592Y44551D01*
X155559Y44443D01*
X155522Y44336D01*
X155482Y44230D01*
X155437Y44126D01*
X155389Y44023D01*
X155338Y43922D01*
X155283Y43823D01*
X155225Y43726D01*
X155163Y43631D01*
X155098Y43538D01*
X155030Y43448D01*
X154959Y43360D01*
X154884Y43274D01*
X154807Y43191D01*
X154727Y43111D01*
X154644Y43034D01*
X154558Y42959D01*
X154470Y42888D01*
X154380Y42820D01*
X154287Y42755D01*
X154192Y42693D01*
X154095Y42635D01*
X153996Y42580D01*
X153895Y42529D01*
X153792Y42481D01*
X153688Y42436D01*
X153582Y42396D01*
X153475Y42359D01*
X153367Y42326D01*
X153257Y42296D01*
X153147Y42271D01*
X153036Y42249D01*
X152924Y42232D01*
X152811Y42218D01*
X152698Y42208D01*
X152585Y42202D01*
X152472Y42200D01*
X152472Y42201D02*
X149226Y42201D01*
X165031Y43499D02*
X166978Y43499D01*
X166978Y37008D01*
X163083Y37008D01*
X162984Y37010D01*
X162884Y37016D01*
X162785Y37025D01*
X162687Y37038D01*
X162589Y37055D01*
X162491Y37076D01*
X162395Y37101D01*
X162300Y37129D01*
X162206Y37161D01*
X162113Y37196D01*
X162021Y37235D01*
X161931Y37278D01*
X161843Y37323D01*
X161756Y37373D01*
X161672Y37425D01*
X161589Y37481D01*
X161509Y37539D01*
X161431Y37601D01*
X161356Y37666D01*
X161283Y37734D01*
X161213Y37804D01*
X161145Y37877D01*
X161080Y37952D01*
X161018Y38030D01*
X160960Y38110D01*
X160904Y38193D01*
X160852Y38277D01*
X160802Y38364D01*
X160757Y38452D01*
X160714Y38542D01*
X160675Y38634D01*
X160640Y38727D01*
X160608Y38821D01*
X160580Y38916D01*
X160555Y39012D01*
X160534Y39110D01*
X160517Y39208D01*
X160504Y39306D01*
X160495Y39405D01*
X160489Y39505D01*
X160487Y39604D01*
X160487Y46096D01*
X160489Y46195D01*
X160495Y46295D01*
X160504Y46394D01*
X160517Y46492D01*
X160534Y46590D01*
X160555Y46688D01*
X160580Y46784D01*
X160608Y46879D01*
X160640Y46973D01*
X160675Y47066D01*
X160714Y47158D01*
X160757Y47248D01*
X160802Y47336D01*
X160852Y47423D01*
X160904Y47507D01*
X160960Y47590D01*
X161018Y47670D01*
X161080Y47748D01*
X161145Y47823D01*
X161213Y47896D01*
X161283Y47966D01*
X161356Y48034D01*
X161431Y48099D01*
X161509Y48161D01*
X161589Y48219D01*
X161672Y48275D01*
X161756Y48327D01*
X161843Y48377D01*
X161931Y48422D01*
X162021Y48465D01*
X162113Y48504D01*
X162205Y48539D01*
X162300Y48571D01*
X162395Y48599D01*
X162491Y48624D01*
X162589Y48645D01*
X162687Y48662D01*
X162785Y48675D01*
X162884Y48684D01*
X162984Y48690D01*
X163083Y48692D01*
X166978Y48692D01*
X172752Y48692D02*
X172752Y37008D01*
X172752Y48692D02*
X175998Y48692D01*
X176111Y48690D01*
X176224Y48684D01*
X176337Y48674D01*
X176450Y48660D01*
X176562Y48643D01*
X176673Y48621D01*
X176783Y48596D01*
X176893Y48566D01*
X177001Y48533D01*
X177108Y48496D01*
X177214Y48456D01*
X177318Y48411D01*
X177421Y48363D01*
X177522Y48312D01*
X177621Y48257D01*
X177718Y48199D01*
X177813Y48137D01*
X177906Y48072D01*
X177996Y48004D01*
X178084Y47933D01*
X178170Y47858D01*
X178253Y47781D01*
X178333Y47701D01*
X178410Y47618D01*
X178485Y47532D01*
X178556Y47444D01*
X178624Y47354D01*
X178689Y47261D01*
X178751Y47166D01*
X178809Y47069D01*
X178864Y46970D01*
X178915Y46869D01*
X178963Y46766D01*
X179008Y46662D01*
X179048Y46556D01*
X179085Y46449D01*
X179118Y46341D01*
X179148Y46231D01*
X179173Y46121D01*
X179195Y46010D01*
X179212Y45898D01*
X179226Y45785D01*
X179236Y45672D01*
X179242Y45559D01*
X179244Y45446D01*
X179242Y45333D01*
X179236Y45220D01*
X179226Y45107D01*
X179212Y44994D01*
X179195Y44882D01*
X179173Y44771D01*
X179148Y44661D01*
X179118Y44551D01*
X179085Y44443D01*
X179048Y44336D01*
X179008Y44230D01*
X178963Y44126D01*
X178915Y44023D01*
X178864Y43922D01*
X178809Y43823D01*
X178751Y43726D01*
X178689Y43631D01*
X178624Y43538D01*
X178556Y43448D01*
X178485Y43360D01*
X178410Y43274D01*
X178333Y43191D01*
X178253Y43111D01*
X178170Y43034D01*
X178084Y42959D01*
X177996Y42888D01*
X177906Y42820D01*
X177813Y42755D01*
X177718Y42693D01*
X177621Y42635D01*
X177522Y42580D01*
X177421Y42529D01*
X177318Y42481D01*
X177214Y42436D01*
X177108Y42396D01*
X177001Y42359D01*
X176893Y42326D01*
X176783Y42296D01*
X176673Y42271D01*
X176562Y42249D01*
X176450Y42232D01*
X176337Y42218D01*
X176224Y42208D01*
X176111Y42202D01*
X175998Y42200D01*
X175998Y42201D02*
X172752Y42201D01*
X176647Y42201D02*
X179244Y37008D01*
X184603Y37008D02*
X184603Y48692D01*
X188497Y42201D01*
X192392Y48692D01*
X192392Y37008D01*
D11*
X64100Y46200D02*
X64100Y179700D01*
X48100Y195200D02*
X15100Y195200D01*
X58600Y158200D02*
X63600Y163200D01*
X58600Y158200D02*
X63600Y153200D01*
X63600Y138200D02*
X58600Y133200D01*
X63600Y128200D01*
X63600Y113200D02*
X58600Y108200D01*
X63600Y103200D01*
X63600Y88200D02*
X58600Y83200D01*
X63600Y78200D01*
X64100Y179700D02*
X48600Y195200D01*
X15100Y195200D02*
X15100Y46200D01*
X64100Y46200D01*
D13*
X22201Y75361D02*
X22201Y78607D01*
X22200Y78607D02*
X22202Y78720D01*
X22208Y78833D01*
X22218Y78946D01*
X22232Y79059D01*
X22249Y79171D01*
X22271Y79282D01*
X22296Y79392D01*
X22326Y79502D01*
X22359Y79610D01*
X22396Y79717D01*
X22436Y79823D01*
X22481Y79927D01*
X22529Y80030D01*
X22580Y80131D01*
X22635Y80230D01*
X22693Y80327D01*
X22755Y80422D01*
X22820Y80515D01*
X22888Y80605D01*
X22959Y80693D01*
X23034Y80779D01*
X23111Y80862D01*
X23191Y80942D01*
X23274Y81019D01*
X23360Y81094D01*
X23448Y81165D01*
X23538Y81233D01*
X23631Y81298D01*
X23726Y81360D01*
X23823Y81418D01*
X23922Y81473D01*
X24023Y81524D01*
X24126Y81572D01*
X24230Y81617D01*
X24336Y81657D01*
X24443Y81694D01*
X24551Y81727D01*
X24661Y81757D01*
X24771Y81782D01*
X24882Y81804D01*
X24994Y81821D01*
X25107Y81835D01*
X25220Y81845D01*
X25333Y81851D01*
X25446Y81853D01*
X25559Y81851D01*
X25672Y81845D01*
X25785Y81835D01*
X25898Y81821D01*
X26010Y81804D01*
X26121Y81782D01*
X26231Y81757D01*
X26341Y81727D01*
X26449Y81694D01*
X26556Y81657D01*
X26662Y81617D01*
X26766Y81572D01*
X26869Y81524D01*
X26970Y81473D01*
X27069Y81418D01*
X27166Y81360D01*
X27261Y81298D01*
X27354Y81233D01*
X27444Y81165D01*
X27532Y81094D01*
X27618Y81019D01*
X27701Y80942D01*
X27781Y80862D01*
X27858Y80779D01*
X27933Y80693D01*
X28004Y80605D01*
X28072Y80515D01*
X28137Y80422D01*
X28199Y80327D01*
X28257Y80230D01*
X28312Y80131D01*
X28363Y80030D01*
X28411Y79927D01*
X28456Y79823D01*
X28496Y79717D01*
X28533Y79610D01*
X28566Y79502D01*
X28596Y79392D01*
X28621Y79282D01*
X28643Y79171D01*
X28660Y79059D01*
X28674Y78946D01*
X28684Y78833D01*
X28690Y78720D01*
X28692Y78607D01*
X28692Y75361D01*
X17008Y75361D01*
X17008Y78607D01*
X17010Y78708D01*
X17016Y78808D01*
X17026Y78908D01*
X17039Y79008D01*
X17057Y79107D01*
X17078Y79206D01*
X17103Y79303D01*
X17132Y79400D01*
X17165Y79495D01*
X17201Y79589D01*
X17241Y79681D01*
X17284Y79772D01*
X17331Y79861D01*
X17381Y79948D01*
X17435Y80034D01*
X17492Y80117D01*
X17552Y80197D01*
X17615Y80276D01*
X17682Y80352D01*
X17751Y80425D01*
X17823Y80495D01*
X17897Y80563D01*
X17974Y80628D01*
X18054Y80689D01*
X18136Y80748D01*
X18220Y80803D01*
X18306Y80855D01*
X18394Y80904D01*
X18484Y80949D01*
X18576Y80991D01*
X18669Y81029D01*
X18764Y81063D01*
X18859Y81094D01*
X18956Y81121D01*
X19054Y81144D01*
X19153Y81164D01*
X19253Y81179D01*
X19353Y81191D01*
X19453Y81199D01*
X19554Y81203D01*
X19654Y81203D01*
X19755Y81199D01*
X19855Y81191D01*
X19955Y81179D01*
X20055Y81164D01*
X20154Y81144D01*
X20252Y81121D01*
X20349Y81094D01*
X20444Y81063D01*
X20539Y81029D01*
X20632Y80991D01*
X20724Y80949D01*
X20814Y80904D01*
X20902Y80855D01*
X20988Y80803D01*
X21072Y80748D01*
X21154Y80689D01*
X21234Y80628D01*
X21311Y80563D01*
X21385Y80495D01*
X21457Y80425D01*
X21526Y80352D01*
X21593Y80276D01*
X21656Y80197D01*
X21716Y80117D01*
X21773Y80034D01*
X21827Y79948D01*
X21877Y79861D01*
X21924Y79772D01*
X21967Y79681D01*
X22007Y79589D01*
X22043Y79495D01*
X22076Y79400D01*
X22105Y79303D01*
X22130Y79206D01*
X22151Y79107D01*
X22169Y79008D01*
X22182Y78908D01*
X22192Y78808D01*
X22198Y78708D01*
X22200Y78607D01*
X25446Y86622D02*
X17008Y86622D01*
X25446Y86622D02*
X25559Y86624D01*
X25672Y86630D01*
X25785Y86640D01*
X25898Y86654D01*
X26010Y86671D01*
X26121Y86693D01*
X26231Y86718D01*
X26341Y86748D01*
X26449Y86781D01*
X26556Y86818D01*
X26662Y86858D01*
X26766Y86903D01*
X26869Y86951D01*
X26970Y87002D01*
X27069Y87057D01*
X27166Y87115D01*
X27261Y87177D01*
X27354Y87242D01*
X27444Y87310D01*
X27532Y87381D01*
X27618Y87456D01*
X27701Y87533D01*
X27781Y87613D01*
X27858Y87696D01*
X27933Y87782D01*
X28004Y87870D01*
X28072Y87960D01*
X28137Y88053D01*
X28199Y88148D01*
X28257Y88245D01*
X28312Y88344D01*
X28363Y88445D01*
X28411Y88548D01*
X28456Y88652D01*
X28496Y88758D01*
X28533Y88865D01*
X28566Y88973D01*
X28596Y89083D01*
X28621Y89193D01*
X28643Y89304D01*
X28660Y89416D01*
X28674Y89529D01*
X28684Y89642D01*
X28690Y89755D01*
X28692Y89868D01*
X28690Y89981D01*
X28684Y90094D01*
X28674Y90207D01*
X28660Y90320D01*
X28643Y90432D01*
X28621Y90543D01*
X28596Y90653D01*
X28566Y90763D01*
X28533Y90871D01*
X28496Y90978D01*
X28456Y91084D01*
X28411Y91188D01*
X28363Y91291D01*
X28312Y91392D01*
X28257Y91491D01*
X28199Y91588D01*
X28137Y91683D01*
X28072Y91776D01*
X28004Y91866D01*
X27933Y91954D01*
X27858Y92040D01*
X27781Y92123D01*
X27701Y92203D01*
X27618Y92280D01*
X27532Y92355D01*
X27444Y92426D01*
X27354Y92494D01*
X27261Y92559D01*
X27166Y92621D01*
X27069Y92679D01*
X26970Y92734D01*
X26869Y92785D01*
X26766Y92833D01*
X26662Y92878D01*
X26556Y92918D01*
X26449Y92955D01*
X26341Y92988D01*
X26231Y93018D01*
X26121Y93043D01*
X26010Y93065D01*
X25898Y93082D01*
X25785Y93096D01*
X25672Y93106D01*
X25559Y93112D01*
X25446Y93114D01*
X25446Y93113D02*
X17008Y93113D01*
X26096Y104543D02*
X26195Y104541D01*
X26295Y104535D01*
X26394Y104526D01*
X26492Y104513D01*
X26590Y104496D01*
X26688Y104475D01*
X26784Y104450D01*
X26879Y104422D01*
X26973Y104390D01*
X27066Y104355D01*
X27158Y104316D01*
X27248Y104273D01*
X27336Y104228D01*
X27423Y104178D01*
X27507Y104126D01*
X27590Y104070D01*
X27670Y104012D01*
X27748Y103950D01*
X27823Y103885D01*
X27896Y103817D01*
X27966Y103747D01*
X28034Y103674D01*
X28099Y103599D01*
X28161Y103521D01*
X28219Y103441D01*
X28275Y103358D01*
X28327Y103274D01*
X28377Y103187D01*
X28422Y103099D01*
X28465Y103009D01*
X28504Y102917D01*
X28539Y102824D01*
X28571Y102730D01*
X28599Y102635D01*
X28624Y102539D01*
X28645Y102441D01*
X28662Y102343D01*
X28675Y102245D01*
X28684Y102146D01*
X28690Y102046D01*
X28692Y101947D01*
X28690Y101803D01*
X28684Y101658D01*
X28675Y101514D01*
X28662Y101371D01*
X28645Y101227D01*
X28624Y101084D01*
X28599Y100942D01*
X28571Y100801D01*
X28539Y100660D01*
X28503Y100520D01*
X28464Y100381D01*
X28421Y100243D01*
X28374Y100107D01*
X28324Y99971D01*
X28270Y99837D01*
X28213Y99705D01*
X28152Y99574D01*
X28088Y99445D01*
X28020Y99317D01*
X27950Y99191D01*
X27875Y99067D01*
X27798Y98946D01*
X27717Y98826D01*
X27634Y98708D01*
X27547Y98593D01*
X27457Y98480D01*
X27364Y98369D01*
X27269Y98261D01*
X27170Y98155D01*
X27069Y98052D01*
X19604Y98377D02*
X19505Y98379D01*
X19405Y98385D01*
X19306Y98394D01*
X19208Y98407D01*
X19110Y98424D01*
X19012Y98445D01*
X18916Y98470D01*
X18821Y98498D01*
X18727Y98530D01*
X18634Y98565D01*
X18542Y98604D01*
X18452Y98647D01*
X18364Y98692D01*
X18277Y98742D01*
X18193Y98794D01*
X18110Y98850D01*
X18030Y98908D01*
X17952Y98970D01*
X17877Y99035D01*
X17804Y99103D01*
X17734Y99173D01*
X17666Y99246D01*
X17601Y99321D01*
X17539Y99399D01*
X17481Y99479D01*
X17425Y99562D01*
X17373Y99646D01*
X17323Y99733D01*
X17278Y99821D01*
X17235Y99911D01*
X17196Y100003D01*
X17161Y100096D01*
X17129Y100190D01*
X17101Y100285D01*
X17076Y100381D01*
X17055Y100479D01*
X17038Y100577D01*
X17025Y100675D01*
X17016Y100774D01*
X17010Y100874D01*
X17008Y100973D01*
X17010Y101109D01*
X17016Y101245D01*
X17025Y101381D01*
X17038Y101517D01*
X17056Y101652D01*
X17076Y101786D01*
X17101Y101920D01*
X17129Y102054D01*
X17162Y102186D01*
X17197Y102317D01*
X17237Y102448D01*
X17280Y102577D01*
X17326Y102705D01*
X17377Y102831D01*
X17430Y102957D01*
X17488Y103080D01*
X17548Y103202D01*
X17612Y103322D01*
X17680Y103441D01*
X17750Y103557D01*
X17824Y103671D01*
X17901Y103784D01*
X17982Y103894D01*
X21876Y99674D02*
X21823Y99588D01*
X21766Y99504D01*
X21707Y99422D01*
X21644Y99342D01*
X21578Y99265D01*
X21510Y99190D01*
X21438Y99118D01*
X21364Y99049D01*
X21287Y98983D01*
X21208Y98920D01*
X21126Y98860D01*
X21042Y98803D01*
X20956Y98749D01*
X20868Y98699D01*
X20778Y98652D01*
X20687Y98608D01*
X20593Y98569D01*
X20499Y98532D01*
X20403Y98500D01*
X20305Y98471D01*
X20207Y98446D01*
X20108Y98425D01*
X20008Y98407D01*
X19908Y98394D01*
X19807Y98384D01*
X19705Y98378D01*
X19604Y98376D01*
X23824Y103245D02*
X23877Y103331D01*
X23934Y103415D01*
X23993Y103497D01*
X24056Y103577D01*
X24122Y103654D01*
X24190Y103729D01*
X24262Y103801D01*
X24336Y103870D01*
X24413Y103936D01*
X24492Y103999D01*
X24574Y104059D01*
X24658Y104116D01*
X24744Y104170D01*
X24832Y104220D01*
X24922Y104267D01*
X25013Y104311D01*
X25107Y104350D01*
X25201Y104387D01*
X25297Y104419D01*
X25395Y104448D01*
X25493Y104473D01*
X25592Y104494D01*
X25692Y104512D01*
X25792Y104525D01*
X25893Y104535D01*
X25995Y104541D01*
X26096Y104543D01*
X23824Y103245D02*
X21876Y99675D01*
X19604Y109101D02*
X17008Y112346D01*
X28692Y112346D01*
X28692Y109101D02*
X28692Y115592D01*
D11*
X149700Y205800D02*
X289700Y205800D01*
X289700Y250800D01*
X149700Y250800D02*
X149700Y205800D01*
X149700Y250800D02*
X289700Y250800D01*
D12*
X219700Y208300D03*
D13*
X235208Y212992D02*
X235208Y201308D01*
X239103Y206501D02*
X235208Y212992D01*
X239103Y206501D02*
X242997Y212992D01*
X242997Y201308D01*
X248430Y204554D02*
X248430Y209746D01*
X248432Y209859D01*
X248438Y209972D01*
X248448Y210085D01*
X248462Y210198D01*
X248479Y210310D01*
X248501Y210421D01*
X248526Y210531D01*
X248556Y210641D01*
X248589Y210749D01*
X248626Y210856D01*
X248666Y210962D01*
X248711Y211066D01*
X248759Y211169D01*
X248810Y211270D01*
X248865Y211369D01*
X248923Y211466D01*
X248985Y211561D01*
X249050Y211654D01*
X249118Y211744D01*
X249189Y211832D01*
X249264Y211918D01*
X249341Y212001D01*
X249421Y212081D01*
X249504Y212158D01*
X249590Y212233D01*
X249678Y212304D01*
X249768Y212372D01*
X249861Y212437D01*
X249956Y212499D01*
X250053Y212557D01*
X250152Y212612D01*
X250253Y212663D01*
X250356Y212711D01*
X250460Y212756D01*
X250566Y212796D01*
X250673Y212833D01*
X250781Y212866D01*
X250891Y212896D01*
X251001Y212921D01*
X251112Y212943D01*
X251224Y212960D01*
X251337Y212974D01*
X251450Y212984D01*
X251563Y212990D01*
X251676Y212992D01*
X251789Y212990D01*
X251902Y212984D01*
X252015Y212974D01*
X252128Y212960D01*
X252240Y212943D01*
X252351Y212921D01*
X252461Y212896D01*
X252571Y212866D01*
X252679Y212833D01*
X252786Y212796D01*
X252892Y212756D01*
X252996Y212711D01*
X253099Y212663D01*
X253200Y212612D01*
X253299Y212557D01*
X253396Y212499D01*
X253491Y212437D01*
X253584Y212372D01*
X253674Y212304D01*
X253762Y212233D01*
X253848Y212158D01*
X253931Y212081D01*
X254011Y212001D01*
X254088Y211918D01*
X254163Y211832D01*
X254234Y211744D01*
X254302Y211654D01*
X254367Y211561D01*
X254429Y211466D01*
X254487Y211369D01*
X254542Y211270D01*
X254593Y211169D01*
X254641Y211066D01*
X254686Y210962D01*
X254726Y210856D01*
X254763Y210749D01*
X254796Y210641D01*
X254826Y210531D01*
X254851Y210421D01*
X254873Y210310D01*
X254890Y210198D01*
X254904Y210085D01*
X254914Y209972D01*
X254920Y209859D01*
X254922Y209746D01*
X254921Y209746D02*
X254921Y204554D01*
X254922Y204554D02*
X254920Y204441D01*
X254914Y204328D01*
X254904Y204215D01*
X254890Y204102D01*
X254873Y203990D01*
X254851Y203879D01*
X254826Y203769D01*
X254796Y203659D01*
X254763Y203551D01*
X254726Y203444D01*
X254686Y203338D01*
X254641Y203234D01*
X254593Y203131D01*
X254542Y203030D01*
X254487Y202931D01*
X254429Y202834D01*
X254367Y202739D01*
X254302Y202646D01*
X254234Y202556D01*
X254163Y202468D01*
X254088Y202382D01*
X254011Y202299D01*
X253931Y202219D01*
X253848Y202142D01*
X253762Y202067D01*
X253674Y201996D01*
X253584Y201928D01*
X253491Y201863D01*
X253396Y201801D01*
X253299Y201743D01*
X253200Y201688D01*
X253099Y201637D01*
X252996Y201589D01*
X252892Y201544D01*
X252786Y201504D01*
X252679Y201467D01*
X252571Y201434D01*
X252461Y201404D01*
X252351Y201379D01*
X252240Y201357D01*
X252128Y201340D01*
X252015Y201326D01*
X251902Y201316D01*
X251789Y201310D01*
X251676Y201308D01*
X251563Y201310D01*
X251450Y201316D01*
X251337Y201326D01*
X251224Y201340D01*
X251112Y201357D01*
X251001Y201379D01*
X250891Y201404D01*
X250781Y201434D01*
X250673Y201467D01*
X250566Y201504D01*
X250460Y201544D01*
X250356Y201589D01*
X250253Y201637D01*
X250152Y201688D01*
X250053Y201743D01*
X249956Y201801D01*
X249861Y201863D01*
X249768Y201928D01*
X249678Y201996D01*
X249590Y202067D01*
X249504Y202142D01*
X249421Y202219D01*
X249341Y202299D01*
X249264Y202382D01*
X249189Y202468D01*
X249118Y202556D01*
X249050Y202646D01*
X248985Y202739D01*
X248923Y202834D01*
X248865Y202931D01*
X248810Y203030D01*
X248759Y203131D01*
X248711Y203234D01*
X248666Y203338D01*
X248626Y203444D01*
X248589Y203551D01*
X248556Y203659D01*
X248526Y203769D01*
X248501Y203879D01*
X248479Y203990D01*
X248462Y204102D01*
X248448Y204215D01*
X248438Y204328D01*
X248432Y204441D01*
X248430Y204554D01*
X262344Y201308D02*
X262344Y212992D01*
X265589Y212992D02*
X259098Y212992D01*
X269766Y209746D02*
X269766Y204554D01*
X269766Y209746D02*
X269768Y209859D01*
X269774Y209972D01*
X269784Y210085D01*
X269798Y210198D01*
X269815Y210310D01*
X269837Y210421D01*
X269862Y210531D01*
X269892Y210641D01*
X269925Y210749D01*
X269962Y210856D01*
X270002Y210962D01*
X270047Y211066D01*
X270095Y211169D01*
X270146Y211270D01*
X270201Y211369D01*
X270259Y211466D01*
X270321Y211561D01*
X270386Y211654D01*
X270454Y211744D01*
X270525Y211832D01*
X270600Y211918D01*
X270677Y212001D01*
X270757Y212081D01*
X270840Y212158D01*
X270926Y212233D01*
X271014Y212304D01*
X271104Y212372D01*
X271197Y212437D01*
X271292Y212499D01*
X271389Y212557D01*
X271488Y212612D01*
X271589Y212663D01*
X271692Y212711D01*
X271796Y212756D01*
X271902Y212796D01*
X272009Y212833D01*
X272117Y212866D01*
X272227Y212896D01*
X272337Y212921D01*
X272448Y212943D01*
X272560Y212960D01*
X272673Y212974D01*
X272786Y212984D01*
X272899Y212990D01*
X273012Y212992D01*
X273125Y212990D01*
X273238Y212984D01*
X273351Y212974D01*
X273464Y212960D01*
X273576Y212943D01*
X273687Y212921D01*
X273797Y212896D01*
X273907Y212866D01*
X274015Y212833D01*
X274122Y212796D01*
X274228Y212756D01*
X274332Y212711D01*
X274435Y212663D01*
X274536Y212612D01*
X274635Y212557D01*
X274732Y212499D01*
X274827Y212437D01*
X274920Y212372D01*
X275010Y212304D01*
X275098Y212233D01*
X275184Y212158D01*
X275267Y212081D01*
X275347Y212001D01*
X275424Y211918D01*
X275499Y211832D01*
X275570Y211744D01*
X275638Y211654D01*
X275703Y211561D01*
X275765Y211466D01*
X275823Y211369D01*
X275878Y211270D01*
X275929Y211169D01*
X275977Y211066D01*
X276022Y210962D01*
X276062Y210856D01*
X276099Y210749D01*
X276132Y210641D01*
X276162Y210531D01*
X276187Y210421D01*
X276209Y210310D01*
X276226Y210198D01*
X276240Y210085D01*
X276250Y209972D01*
X276256Y209859D01*
X276258Y209746D01*
X276257Y209746D02*
X276257Y204554D01*
X276258Y204554D02*
X276256Y204441D01*
X276250Y204328D01*
X276240Y204215D01*
X276226Y204102D01*
X276209Y203990D01*
X276187Y203879D01*
X276162Y203769D01*
X276132Y203659D01*
X276099Y203551D01*
X276062Y203444D01*
X276022Y203338D01*
X275977Y203234D01*
X275929Y203131D01*
X275878Y203030D01*
X275823Y202931D01*
X275765Y202834D01*
X275703Y202739D01*
X275638Y202646D01*
X275570Y202556D01*
X275499Y202468D01*
X275424Y202382D01*
X275347Y202299D01*
X275267Y202219D01*
X275184Y202142D01*
X275098Y202067D01*
X275010Y201996D01*
X274920Y201928D01*
X274827Y201863D01*
X274732Y201801D01*
X274635Y201743D01*
X274536Y201688D01*
X274435Y201637D01*
X274332Y201589D01*
X274228Y201544D01*
X274122Y201504D01*
X274015Y201467D01*
X273907Y201434D01*
X273797Y201404D01*
X273687Y201379D01*
X273576Y201357D01*
X273464Y201340D01*
X273351Y201326D01*
X273238Y201316D01*
X273125Y201310D01*
X273012Y201308D01*
X272899Y201310D01*
X272786Y201316D01*
X272673Y201326D01*
X272560Y201340D01*
X272448Y201357D01*
X272337Y201379D01*
X272227Y201404D01*
X272117Y201434D01*
X272009Y201467D01*
X271902Y201504D01*
X271796Y201544D01*
X271692Y201589D01*
X271589Y201637D01*
X271488Y201688D01*
X271389Y201743D01*
X271292Y201801D01*
X271197Y201863D01*
X271104Y201928D01*
X271014Y201996D01*
X270926Y202067D01*
X270840Y202142D01*
X270757Y202219D01*
X270677Y202299D01*
X270600Y202382D01*
X270525Y202468D01*
X270454Y202556D01*
X270386Y202646D01*
X270321Y202739D01*
X270259Y202834D01*
X270201Y202931D01*
X270146Y203030D01*
X270095Y203131D01*
X270047Y203234D01*
X270002Y203338D01*
X269962Y203444D01*
X269925Y203551D01*
X269892Y203659D01*
X269862Y203769D01*
X269837Y203879D01*
X269815Y203990D01*
X269798Y204102D01*
X269784Y204215D01*
X269774Y204328D01*
X269768Y204441D01*
X269766Y204554D01*
X281651Y201308D02*
X281651Y212992D01*
X284896Y212992D01*
X285009Y212990D01*
X285122Y212984D01*
X285235Y212974D01*
X285348Y212960D01*
X285460Y212943D01*
X285571Y212921D01*
X285681Y212896D01*
X285791Y212866D01*
X285899Y212833D01*
X286006Y212796D01*
X286112Y212756D01*
X286216Y212711D01*
X286319Y212663D01*
X286420Y212612D01*
X286519Y212557D01*
X286616Y212499D01*
X286711Y212437D01*
X286804Y212372D01*
X286894Y212304D01*
X286982Y212233D01*
X287068Y212158D01*
X287151Y212081D01*
X287231Y212001D01*
X287308Y211918D01*
X287383Y211832D01*
X287454Y211744D01*
X287522Y211654D01*
X287587Y211561D01*
X287649Y211466D01*
X287707Y211369D01*
X287762Y211270D01*
X287813Y211169D01*
X287861Y211066D01*
X287906Y210962D01*
X287946Y210856D01*
X287983Y210749D01*
X288016Y210641D01*
X288046Y210531D01*
X288071Y210421D01*
X288093Y210310D01*
X288110Y210198D01*
X288124Y210085D01*
X288134Y209972D01*
X288140Y209859D01*
X288142Y209746D01*
X288140Y209633D01*
X288134Y209520D01*
X288124Y209407D01*
X288110Y209294D01*
X288093Y209182D01*
X288071Y209071D01*
X288046Y208961D01*
X288016Y208851D01*
X287983Y208743D01*
X287946Y208636D01*
X287906Y208530D01*
X287861Y208426D01*
X287813Y208323D01*
X287762Y208222D01*
X287707Y208123D01*
X287649Y208026D01*
X287587Y207931D01*
X287522Y207838D01*
X287454Y207748D01*
X287383Y207660D01*
X287308Y207574D01*
X287231Y207491D01*
X287151Y207411D01*
X287068Y207334D01*
X286982Y207259D01*
X286894Y207188D01*
X286804Y207120D01*
X286711Y207055D01*
X286616Y206993D01*
X286519Y206935D01*
X286420Y206880D01*
X286319Y206829D01*
X286216Y206781D01*
X286112Y206736D01*
X286006Y206696D01*
X285899Y206659D01*
X285791Y206626D01*
X285681Y206596D01*
X285571Y206571D01*
X285460Y206549D01*
X285348Y206532D01*
X285235Y206518D01*
X285122Y206508D01*
X285009Y206502D01*
X284896Y206500D01*
X284896Y206501D02*
X281651Y206501D01*
X285545Y206501D02*
X288142Y201308D01*
D11*
X322800Y184700D02*
X322800Y51200D01*
X306800Y200200D02*
X273800Y200200D01*
X317300Y163200D02*
X322300Y168200D01*
X317300Y163200D02*
X322300Y158200D01*
X322300Y143200D02*
X317300Y138200D01*
X322300Y133200D01*
X322300Y118200D02*
X317300Y113200D01*
X322300Y108200D01*
X322300Y93200D02*
X317300Y88200D01*
X322300Y83200D01*
X322800Y184700D02*
X307300Y200200D01*
X273800Y200200D02*
X273800Y51200D01*
X322800Y51200D01*
D13*
X280901Y115361D02*
X280901Y118607D01*
X280900Y118607D02*
X280902Y118720D01*
X280908Y118833D01*
X280918Y118946D01*
X280932Y119059D01*
X280949Y119171D01*
X280971Y119282D01*
X280996Y119392D01*
X281026Y119502D01*
X281059Y119610D01*
X281096Y119717D01*
X281136Y119823D01*
X281181Y119927D01*
X281229Y120030D01*
X281280Y120131D01*
X281335Y120230D01*
X281393Y120327D01*
X281455Y120422D01*
X281520Y120515D01*
X281588Y120605D01*
X281659Y120693D01*
X281734Y120779D01*
X281811Y120862D01*
X281891Y120942D01*
X281974Y121019D01*
X282060Y121094D01*
X282148Y121165D01*
X282238Y121233D01*
X282331Y121298D01*
X282426Y121360D01*
X282523Y121418D01*
X282622Y121473D01*
X282723Y121524D01*
X282826Y121572D01*
X282930Y121617D01*
X283036Y121657D01*
X283143Y121694D01*
X283251Y121727D01*
X283361Y121757D01*
X283471Y121782D01*
X283582Y121804D01*
X283694Y121821D01*
X283807Y121835D01*
X283920Y121845D01*
X284033Y121851D01*
X284146Y121853D01*
X284259Y121851D01*
X284372Y121845D01*
X284485Y121835D01*
X284598Y121821D01*
X284710Y121804D01*
X284821Y121782D01*
X284931Y121757D01*
X285041Y121727D01*
X285149Y121694D01*
X285256Y121657D01*
X285362Y121617D01*
X285466Y121572D01*
X285569Y121524D01*
X285670Y121473D01*
X285769Y121418D01*
X285866Y121360D01*
X285961Y121298D01*
X286054Y121233D01*
X286144Y121165D01*
X286232Y121094D01*
X286318Y121019D01*
X286401Y120942D01*
X286481Y120862D01*
X286558Y120779D01*
X286633Y120693D01*
X286704Y120605D01*
X286772Y120515D01*
X286837Y120422D01*
X286899Y120327D01*
X286957Y120230D01*
X287012Y120131D01*
X287063Y120030D01*
X287111Y119927D01*
X287156Y119823D01*
X287196Y119717D01*
X287233Y119610D01*
X287266Y119502D01*
X287296Y119392D01*
X287321Y119282D01*
X287343Y119171D01*
X287360Y119059D01*
X287374Y118946D01*
X287384Y118833D01*
X287390Y118720D01*
X287392Y118607D01*
X287392Y115361D01*
X275708Y115361D01*
X275708Y118607D01*
X275710Y118708D01*
X275716Y118808D01*
X275726Y118908D01*
X275739Y119008D01*
X275757Y119107D01*
X275778Y119206D01*
X275803Y119303D01*
X275832Y119400D01*
X275865Y119495D01*
X275901Y119589D01*
X275941Y119681D01*
X275984Y119772D01*
X276031Y119861D01*
X276081Y119948D01*
X276135Y120034D01*
X276192Y120117D01*
X276252Y120197D01*
X276315Y120276D01*
X276382Y120352D01*
X276451Y120425D01*
X276523Y120495D01*
X276597Y120563D01*
X276674Y120628D01*
X276754Y120689D01*
X276836Y120748D01*
X276920Y120803D01*
X277006Y120855D01*
X277094Y120904D01*
X277184Y120949D01*
X277276Y120991D01*
X277369Y121029D01*
X277464Y121063D01*
X277559Y121094D01*
X277656Y121121D01*
X277754Y121144D01*
X277853Y121164D01*
X277953Y121179D01*
X278053Y121191D01*
X278153Y121199D01*
X278254Y121203D01*
X278354Y121203D01*
X278455Y121199D01*
X278555Y121191D01*
X278655Y121179D01*
X278755Y121164D01*
X278854Y121144D01*
X278952Y121121D01*
X279049Y121094D01*
X279144Y121063D01*
X279239Y121029D01*
X279332Y120991D01*
X279424Y120949D01*
X279514Y120904D01*
X279602Y120855D01*
X279688Y120803D01*
X279772Y120748D01*
X279854Y120689D01*
X279934Y120628D01*
X280011Y120563D01*
X280085Y120495D01*
X280157Y120425D01*
X280226Y120352D01*
X280293Y120276D01*
X280356Y120197D01*
X280416Y120117D01*
X280473Y120034D01*
X280527Y119948D01*
X280577Y119861D01*
X280624Y119772D01*
X280667Y119681D01*
X280707Y119589D01*
X280743Y119495D01*
X280776Y119400D01*
X280805Y119303D01*
X280830Y119206D01*
X280851Y119107D01*
X280869Y119008D01*
X280882Y118908D01*
X280892Y118808D01*
X280898Y118708D01*
X280900Y118607D01*
X284146Y126622D02*
X275708Y126622D01*
X284146Y126622D02*
X284259Y126624D01*
X284372Y126630D01*
X284485Y126640D01*
X284598Y126654D01*
X284710Y126671D01*
X284821Y126693D01*
X284931Y126718D01*
X285041Y126748D01*
X285149Y126781D01*
X285256Y126818D01*
X285362Y126858D01*
X285466Y126903D01*
X285569Y126951D01*
X285670Y127002D01*
X285769Y127057D01*
X285866Y127115D01*
X285961Y127177D01*
X286054Y127242D01*
X286144Y127310D01*
X286232Y127381D01*
X286318Y127456D01*
X286401Y127533D01*
X286481Y127613D01*
X286558Y127696D01*
X286633Y127782D01*
X286704Y127870D01*
X286772Y127960D01*
X286837Y128053D01*
X286899Y128148D01*
X286957Y128245D01*
X287012Y128344D01*
X287063Y128445D01*
X287111Y128548D01*
X287156Y128652D01*
X287196Y128758D01*
X287233Y128865D01*
X287266Y128973D01*
X287296Y129083D01*
X287321Y129193D01*
X287343Y129304D01*
X287360Y129416D01*
X287374Y129529D01*
X287384Y129642D01*
X287390Y129755D01*
X287392Y129868D01*
X287390Y129981D01*
X287384Y130094D01*
X287374Y130207D01*
X287360Y130320D01*
X287343Y130432D01*
X287321Y130543D01*
X287296Y130653D01*
X287266Y130763D01*
X287233Y130871D01*
X287196Y130978D01*
X287156Y131084D01*
X287111Y131188D01*
X287063Y131291D01*
X287012Y131392D01*
X286957Y131491D01*
X286899Y131588D01*
X286837Y131683D01*
X286772Y131776D01*
X286704Y131866D01*
X286633Y131954D01*
X286558Y132040D01*
X286481Y132123D01*
X286401Y132203D01*
X286318Y132280D01*
X286232Y132355D01*
X286144Y132426D01*
X286054Y132494D01*
X285961Y132559D01*
X285866Y132621D01*
X285769Y132679D01*
X285670Y132734D01*
X285569Y132785D01*
X285466Y132833D01*
X285362Y132878D01*
X285256Y132918D01*
X285149Y132955D01*
X285041Y132988D01*
X284931Y133018D01*
X284821Y133043D01*
X284710Y133065D01*
X284598Y133082D01*
X284485Y133096D01*
X284372Y133106D01*
X284259Y133112D01*
X284146Y133114D01*
X284146Y133113D02*
X275708Y133113D01*
X284796Y144543D02*
X284895Y144541D01*
X284995Y144535D01*
X285094Y144526D01*
X285192Y144513D01*
X285290Y144496D01*
X285388Y144475D01*
X285484Y144450D01*
X285579Y144422D01*
X285673Y144390D01*
X285766Y144355D01*
X285858Y144316D01*
X285948Y144273D01*
X286036Y144228D01*
X286123Y144178D01*
X286207Y144126D01*
X286290Y144070D01*
X286370Y144012D01*
X286448Y143950D01*
X286523Y143885D01*
X286596Y143817D01*
X286666Y143747D01*
X286734Y143674D01*
X286799Y143599D01*
X286861Y143521D01*
X286919Y143441D01*
X286975Y143358D01*
X287027Y143274D01*
X287077Y143187D01*
X287122Y143099D01*
X287165Y143009D01*
X287204Y142917D01*
X287239Y142824D01*
X287271Y142730D01*
X287299Y142635D01*
X287324Y142539D01*
X287345Y142441D01*
X287362Y142343D01*
X287375Y142245D01*
X287384Y142146D01*
X287390Y142046D01*
X287392Y141947D01*
X287390Y141803D01*
X287384Y141658D01*
X287375Y141514D01*
X287362Y141371D01*
X287345Y141227D01*
X287324Y141084D01*
X287299Y140942D01*
X287271Y140801D01*
X287239Y140660D01*
X287203Y140520D01*
X287164Y140381D01*
X287121Y140243D01*
X287074Y140107D01*
X287024Y139971D01*
X286970Y139837D01*
X286913Y139705D01*
X286852Y139574D01*
X286788Y139445D01*
X286720Y139317D01*
X286650Y139191D01*
X286575Y139067D01*
X286498Y138946D01*
X286417Y138826D01*
X286334Y138708D01*
X286247Y138593D01*
X286157Y138480D01*
X286064Y138369D01*
X285969Y138261D01*
X285870Y138155D01*
X285769Y138052D01*
X278304Y138377D02*
X278205Y138379D01*
X278105Y138385D01*
X278006Y138394D01*
X277908Y138407D01*
X277810Y138424D01*
X277712Y138445D01*
X277616Y138470D01*
X277521Y138498D01*
X277427Y138530D01*
X277334Y138565D01*
X277242Y138604D01*
X277152Y138647D01*
X277064Y138692D01*
X276977Y138742D01*
X276893Y138794D01*
X276810Y138850D01*
X276730Y138908D01*
X276652Y138970D01*
X276577Y139035D01*
X276504Y139103D01*
X276434Y139173D01*
X276366Y139246D01*
X276301Y139321D01*
X276239Y139399D01*
X276181Y139479D01*
X276125Y139562D01*
X276073Y139646D01*
X276023Y139733D01*
X275978Y139821D01*
X275935Y139911D01*
X275896Y140003D01*
X275861Y140096D01*
X275829Y140190D01*
X275801Y140285D01*
X275776Y140381D01*
X275755Y140479D01*
X275738Y140577D01*
X275725Y140675D01*
X275716Y140774D01*
X275710Y140874D01*
X275708Y140973D01*
X275710Y141109D01*
X275716Y141245D01*
X275725Y141381D01*
X275738Y141517D01*
X275756Y141652D01*
X275776Y141786D01*
X275801Y141920D01*
X275829Y142054D01*
X275862Y142186D01*
X275897Y142317D01*
X275937Y142448D01*
X275980Y142577D01*
X276026Y142705D01*
X276077Y142831D01*
X276130Y142957D01*
X276188Y143080D01*
X276248Y143202D01*
X276312Y143322D01*
X276380Y143441D01*
X276450Y143557D01*
X276524Y143671D01*
X276601Y143784D01*
X276682Y143894D01*
X280576Y139674D02*
X280523Y139588D01*
X280466Y139504D01*
X280407Y139422D01*
X280344Y139342D01*
X280278Y139265D01*
X280210Y139190D01*
X280138Y139118D01*
X280064Y139049D01*
X279987Y138983D01*
X279908Y138920D01*
X279826Y138860D01*
X279742Y138803D01*
X279656Y138749D01*
X279568Y138699D01*
X279478Y138652D01*
X279387Y138608D01*
X279293Y138569D01*
X279199Y138532D01*
X279103Y138500D01*
X279005Y138471D01*
X278907Y138446D01*
X278808Y138425D01*
X278708Y138407D01*
X278608Y138394D01*
X278507Y138384D01*
X278405Y138378D01*
X278304Y138376D01*
X282524Y143245D02*
X282577Y143331D01*
X282634Y143415D01*
X282693Y143497D01*
X282756Y143577D01*
X282822Y143654D01*
X282890Y143729D01*
X282962Y143801D01*
X283036Y143870D01*
X283113Y143936D01*
X283192Y143999D01*
X283274Y144059D01*
X283358Y144116D01*
X283444Y144170D01*
X283532Y144220D01*
X283622Y144267D01*
X283713Y144311D01*
X283807Y144350D01*
X283901Y144387D01*
X283997Y144419D01*
X284095Y144448D01*
X284193Y144473D01*
X284292Y144494D01*
X284392Y144512D01*
X284492Y144525D01*
X284593Y144535D01*
X284695Y144541D01*
X284796Y144543D01*
X282524Y143245D02*
X280576Y139675D01*
X275708Y152671D02*
X275710Y152778D01*
X275716Y152884D01*
X275726Y152990D01*
X275739Y153096D01*
X275757Y153202D01*
X275778Y153306D01*
X275803Y153410D01*
X275832Y153513D01*
X275864Y153614D01*
X275901Y153714D01*
X275941Y153813D01*
X275984Y153911D01*
X276031Y154007D01*
X276082Y154101D01*
X276136Y154193D01*
X276193Y154283D01*
X276253Y154371D01*
X276317Y154456D01*
X276384Y154539D01*
X276454Y154620D01*
X276526Y154698D01*
X276602Y154774D01*
X276680Y154846D01*
X276761Y154916D01*
X276844Y154983D01*
X276929Y155047D01*
X277017Y155107D01*
X277107Y155164D01*
X277199Y155218D01*
X277293Y155269D01*
X277389Y155316D01*
X277487Y155359D01*
X277586Y155399D01*
X277686Y155436D01*
X277787Y155468D01*
X277890Y155497D01*
X277994Y155522D01*
X278098Y155543D01*
X278204Y155561D01*
X278310Y155574D01*
X278416Y155584D01*
X278522Y155590D01*
X278629Y155592D01*
X275708Y152671D02*
X275710Y152550D01*
X275716Y152429D01*
X275726Y152309D01*
X275739Y152188D01*
X275757Y152069D01*
X275778Y151949D01*
X275803Y151831D01*
X275832Y151714D01*
X275865Y151597D01*
X275901Y151482D01*
X275942Y151368D01*
X275985Y151255D01*
X276033Y151143D01*
X276084Y151034D01*
X276139Y150926D01*
X276197Y150819D01*
X276258Y150715D01*
X276323Y150613D01*
X276391Y150513D01*
X276462Y150415D01*
X276536Y150319D01*
X276613Y150226D01*
X276694Y150136D01*
X276777Y150048D01*
X276863Y149963D01*
X276952Y149880D01*
X277043Y149801D01*
X277137Y149724D01*
X277233Y149651D01*
X277331Y149581D01*
X277432Y149514D01*
X277535Y149450D01*
X277640Y149390D01*
X277747Y149332D01*
X277855Y149279D01*
X277965Y149229D01*
X278077Y149183D01*
X278190Y149140D01*
X278305Y149101D01*
X280901Y154618D02*
X280823Y154697D01*
X280743Y154773D01*
X280660Y154846D01*
X280574Y154916D01*
X280487Y154983D01*
X280396Y155047D01*
X280304Y155107D01*
X280210Y155165D01*
X280113Y155219D01*
X280015Y155269D01*
X279915Y155316D01*
X279814Y155360D01*
X279711Y155400D01*
X279606Y155436D01*
X279501Y155468D01*
X279394Y155497D01*
X279287Y155522D01*
X279178Y155544D01*
X279069Y155561D01*
X278960Y155575D01*
X278850Y155584D01*
X278739Y155590D01*
X278629Y155592D01*
X280901Y154618D02*
X287392Y149101D01*
X287392Y155592D01*
D10*
X85000Y238570D02*
X85000Y241110D01*
X96430Y241110D01*
X96430Y247460D01*
X73570Y247460D01*
X73570Y241110D01*
X85000Y241110D01*
X85000Y256350D02*
X85000Y261430D01*
X76110Y211900D02*
X68490Y211900D01*
X72300Y215710D02*
X72300Y208090D01*
X34200Y250000D02*
X34215Y251247D01*
X34261Y252493D01*
X34338Y253737D01*
X34445Y254979D01*
X34582Y256218D01*
X34750Y257454D01*
X34948Y258685D01*
X35176Y259911D01*
X35434Y261130D01*
X35722Y262343D01*
X36040Y263549D01*
X36387Y264746D01*
X36764Y265935D01*
X37170Y267114D01*
X37604Y268283D01*
X38067Y269440D01*
X38558Y270586D01*
X39077Y271720D01*
X39624Y272840D01*
X40198Y273947D01*
X40800Y275039D01*
X41427Y276116D01*
X42081Y277178D01*
X42761Y278223D01*
X43467Y279251D01*
X44197Y280262D01*
X44952Y281254D01*
X45731Y282227D01*
X46534Y283181D01*
X47360Y284115D01*
X48208Y285029D01*
X49079Y285921D01*
X49971Y286792D01*
X50885Y287640D01*
X51819Y288466D01*
X52773Y289269D01*
X53746Y290048D01*
X54738Y290803D01*
X55749Y291533D01*
X56777Y292239D01*
X57822Y292919D01*
X58884Y293573D01*
X59961Y294200D01*
X61053Y294802D01*
X62160Y295376D01*
X63280Y295923D01*
X64414Y296442D01*
X65560Y296933D01*
X66717Y297396D01*
X67886Y297830D01*
X69065Y298236D01*
X70254Y298613D01*
X71451Y298960D01*
X72657Y299278D01*
X73870Y299566D01*
X75089Y299824D01*
X76315Y300052D01*
X77546Y300250D01*
X78782Y300418D01*
X80021Y300555D01*
X81263Y300662D01*
X82507Y300739D01*
X83753Y300785D01*
X85000Y300800D01*
X86247Y300785D01*
X87493Y300739D01*
X88737Y300662D01*
X89979Y300555D01*
X91218Y300418D01*
X92454Y300250D01*
X93685Y300052D01*
X94911Y299824D01*
X96130Y299566D01*
X97343Y299278D01*
X98549Y298960D01*
X99746Y298613D01*
X100935Y298236D01*
X102114Y297830D01*
X103283Y297396D01*
X104440Y296933D01*
X105586Y296442D01*
X106720Y295923D01*
X107840Y295376D01*
X108947Y294802D01*
X110039Y294200D01*
X111116Y293573D01*
X112178Y292919D01*
X113223Y292239D01*
X114251Y291533D01*
X115262Y290803D01*
X116254Y290048D01*
X117227Y289269D01*
X118181Y288466D01*
X119115Y287640D01*
X120029Y286792D01*
X120921Y285921D01*
X121792Y285029D01*
X122640Y284115D01*
X123466Y283181D01*
X124269Y282227D01*
X125048Y281254D01*
X125803Y280262D01*
X126533Y279251D01*
X127239Y278223D01*
X127919Y277178D01*
X128573Y276116D01*
X129200Y275039D01*
X129802Y273947D01*
X130376Y272840D01*
X130923Y271720D01*
X131442Y270586D01*
X131933Y269440D01*
X132396Y268283D01*
X132830Y267114D01*
X133236Y265935D01*
X133613Y264746D01*
X133960Y263549D01*
X134278Y262343D01*
X134566Y261130D01*
X134824Y259911D01*
X135052Y258685D01*
X135250Y257454D01*
X135418Y256218D01*
X135555Y254979D01*
X135662Y253737D01*
X135739Y252493D01*
X135785Y251247D01*
X135800Y250000D01*
X135785Y248753D01*
X135739Y247507D01*
X135662Y246263D01*
X135555Y245021D01*
X135418Y243782D01*
X135250Y242546D01*
X135052Y241315D01*
X134824Y240089D01*
X134566Y238870D01*
X134278Y237657D01*
X133960Y236451D01*
X133613Y235254D01*
X133236Y234065D01*
X132830Y232886D01*
X132396Y231717D01*
X131933Y230560D01*
X131442Y229414D01*
X130923Y228280D01*
X130376Y227160D01*
X129802Y226053D01*
X129200Y224961D01*
X128573Y223884D01*
X127919Y222822D01*
X127239Y221777D01*
X126533Y220749D01*
X125803Y219738D01*
X125048Y218746D01*
X124269Y217773D01*
X123466Y216819D01*
X122640Y215885D01*
X121792Y214971D01*
X120921Y214079D01*
X120029Y213208D01*
X119115Y212360D01*
X118181Y211534D01*
X117227Y210731D01*
X116254Y209952D01*
X115262Y209197D01*
X114251Y208467D01*
X113223Y207761D01*
X112178Y207081D01*
X111116Y206427D01*
X110039Y205800D01*
X108947Y205198D01*
X107840Y204624D01*
X106720Y204077D01*
X105586Y203558D01*
X104440Y203067D01*
X103283Y202604D01*
X102114Y202170D01*
X100935Y201764D01*
X99746Y201387D01*
X98549Y201040D01*
X97343Y200722D01*
X96130Y200434D01*
X94911Y200176D01*
X93685Y199948D01*
X92454Y199750D01*
X91218Y199582D01*
X89979Y199445D01*
X88737Y199338D01*
X87493Y199261D01*
X86247Y199215D01*
X85000Y199200D01*
X83753Y199215D01*
X82507Y199261D01*
X81263Y199338D01*
X80021Y199445D01*
X78782Y199582D01*
X77546Y199750D01*
X76315Y199948D01*
X75089Y200176D01*
X73870Y200434D01*
X72657Y200722D01*
X71451Y201040D01*
X70254Y201387D01*
X69065Y201764D01*
X67886Y202170D01*
X66717Y202604D01*
X65560Y203067D01*
X64414Y203558D01*
X63280Y204077D01*
X62160Y204624D01*
X61053Y205198D01*
X59961Y205800D01*
X58884Y206427D01*
X57822Y207081D01*
X56777Y207761D01*
X55749Y208467D01*
X54738Y209197D01*
X53746Y209952D01*
X52773Y210731D01*
X51819Y211534D01*
X50885Y212360D01*
X49971Y213208D01*
X49079Y214079D01*
X48208Y214971D01*
X47360Y215885D01*
X46534Y216819D01*
X45731Y217773D01*
X44952Y218746D01*
X44197Y219738D01*
X43467Y220749D01*
X42761Y221777D01*
X42081Y222822D01*
X41427Y223884D01*
X40800Y224961D01*
X40198Y226053D01*
X39624Y227160D01*
X39077Y228280D01*
X38558Y229414D01*
X38067Y230560D01*
X37604Y231717D01*
X37170Y232886D01*
X36764Y234065D01*
X36387Y235254D01*
X36040Y236451D01*
X35722Y237657D01*
X35434Y238870D01*
X35176Y240089D01*
X34948Y241315D01*
X34750Y242546D01*
X34582Y243782D01*
X34445Y245021D01*
X34338Y246263D01*
X34261Y247507D01*
X34215Y248753D01*
X34200Y250000D01*
D14*
X85000Y255715D03*
D11*
X61933Y247705D02*
X61933Y245165D01*
X61931Y245065D01*
X61925Y244966D01*
X61915Y244866D01*
X61902Y244768D01*
X61884Y244669D01*
X61863Y244572D01*
X61838Y244476D01*
X61809Y244380D01*
X61776Y244286D01*
X61740Y244193D01*
X61700Y244102D01*
X61656Y244012D01*
X61609Y243924D01*
X61559Y243838D01*
X61505Y243754D01*
X61448Y243672D01*
X61388Y243593D01*
X61324Y243515D01*
X61258Y243441D01*
X61189Y243369D01*
X61117Y243300D01*
X61043Y243234D01*
X60965Y243170D01*
X60886Y243110D01*
X60804Y243053D01*
X60720Y242999D01*
X60634Y242949D01*
X60546Y242902D01*
X60456Y242858D01*
X60365Y242818D01*
X60272Y242782D01*
X60178Y242749D01*
X60082Y242720D01*
X59986Y242695D01*
X59889Y242674D01*
X59790Y242656D01*
X59692Y242643D01*
X59592Y242633D01*
X59493Y242627D01*
X59393Y242625D01*
X53043Y242625D01*
X52943Y242627D01*
X52844Y242633D01*
X52744Y242643D01*
X52646Y242656D01*
X52547Y242674D01*
X52450Y242695D01*
X52354Y242720D01*
X52258Y242749D01*
X52164Y242782D01*
X52071Y242818D01*
X51980Y242858D01*
X51890Y242902D01*
X51802Y242949D01*
X51716Y242999D01*
X51632Y243053D01*
X51550Y243110D01*
X51471Y243170D01*
X51393Y243234D01*
X51319Y243300D01*
X51247Y243369D01*
X51178Y243441D01*
X51112Y243515D01*
X51048Y243593D01*
X50988Y243672D01*
X50931Y243754D01*
X50877Y243838D01*
X50827Y243924D01*
X50780Y244012D01*
X50736Y244102D01*
X50696Y244193D01*
X50660Y244286D01*
X50627Y244380D01*
X50598Y244476D01*
X50573Y244572D01*
X50552Y244669D01*
X50534Y244768D01*
X50521Y244866D01*
X50511Y244966D01*
X50505Y245065D01*
X50503Y245165D01*
X50503Y247705D01*
X53043Y252187D02*
X50503Y255362D01*
X61933Y255362D01*
X61933Y252187D02*
X61933Y258537D01*
D13*
X265000Y135500D02*
X265133Y135376D01*
X265263Y135248D01*
X265390Y135118D01*
X265514Y134984D01*
X265635Y134848D01*
X265752Y134708D01*
X265865Y134566D01*
X265975Y134421D01*
X266082Y134273D01*
X266185Y134123D01*
X266284Y133970D01*
X266379Y133815D01*
X266471Y133658D01*
X266558Y133498D01*
X266642Y133336D01*
X266722Y133173D01*
X266798Y133007D01*
X266869Y132840D01*
X266937Y132670D01*
X267000Y132500D01*
X267059Y132328D01*
X267114Y132154D01*
X267165Y131979D01*
X267211Y131803D01*
X267253Y131626D01*
X267291Y131448D01*
X267324Y131268D01*
X267353Y131089D01*
X267377Y130908D01*
X267397Y130727D01*
X267413Y130546D01*
X267424Y130364D01*
X267431Y130182D01*
X267433Y130000D01*
X267431Y129818D01*
X267424Y129636D01*
X267413Y129454D01*
X267397Y129273D01*
X267377Y129092D01*
X267353Y128911D01*
X267324Y128732D01*
X267291Y128552D01*
X267253Y128374D01*
X267211Y128197D01*
X267165Y128021D01*
X267114Y127846D01*
X267059Y127672D01*
X267000Y127500D01*
X266937Y127330D01*
X266869Y127160D01*
X266798Y126993D01*
X266722Y126827D01*
X266642Y126664D01*
X266558Y126502D01*
X266471Y126342D01*
X266379Y126185D01*
X266284Y126030D01*
X266185Y125877D01*
X266082Y125727D01*
X265975Y125579D01*
X265865Y125434D01*
X265752Y125292D01*
X265635Y125152D01*
X265514Y125016D01*
X265390Y124882D01*
X265263Y124752D01*
X265133Y124624D01*
X265000Y124500D01*
X255000Y124500D02*
X254867Y124624D01*
X254737Y124752D01*
X254610Y124882D01*
X254486Y125016D01*
X254365Y125152D01*
X254248Y125292D01*
X254135Y125434D01*
X254025Y125579D01*
X253918Y125727D01*
X253815Y125877D01*
X253716Y126030D01*
X253621Y126185D01*
X253529Y126342D01*
X253442Y126502D01*
X253358Y126664D01*
X253278Y126827D01*
X253202Y126993D01*
X253131Y127160D01*
X253063Y127330D01*
X253000Y127500D01*
X252941Y127672D01*
X252886Y127846D01*
X252835Y128021D01*
X252789Y128197D01*
X252747Y128374D01*
X252709Y128552D01*
X252676Y128732D01*
X252647Y128911D01*
X252623Y129092D01*
X252603Y129273D01*
X252587Y129454D01*
X252576Y129636D01*
X252569Y129818D01*
X252567Y130000D01*
X252569Y130182D01*
X252576Y130364D01*
X252587Y130546D01*
X252603Y130727D01*
X252623Y130908D01*
X252647Y131089D01*
X252676Y131268D01*
X252709Y131448D01*
X252747Y131626D01*
X252789Y131803D01*
X252835Y131979D01*
X252886Y132154D01*
X252941Y132328D01*
X253000Y132500D01*
X253063Y132670D01*
X253131Y132840D01*
X253202Y133007D01*
X253278Y133173D01*
X253358Y133336D01*
X253442Y133498D01*
X253529Y133658D01*
X253621Y133815D01*
X253716Y133970D01*
X253815Y134123D01*
X253918Y134273D01*
X254025Y134421D01*
X254135Y134566D01*
X254248Y134708D01*
X254365Y134848D01*
X254486Y134984D01*
X254610Y135118D01*
X254737Y135248D01*
X254867Y135376D01*
X255000Y135500D01*
D15*
X260000Y130000D03*
D16*
X265750Y135250D03*
D13*
X273208Y74345D02*
X284892Y74345D01*
X273208Y74345D02*
X273208Y77590D01*
X273210Y77703D01*
X273216Y77816D01*
X273226Y77929D01*
X273240Y78042D01*
X273257Y78154D01*
X273279Y78265D01*
X273304Y78375D01*
X273334Y78485D01*
X273367Y78593D01*
X273404Y78700D01*
X273444Y78806D01*
X273489Y78910D01*
X273537Y79013D01*
X273588Y79114D01*
X273643Y79213D01*
X273701Y79310D01*
X273763Y79405D01*
X273828Y79498D01*
X273896Y79588D01*
X273967Y79676D01*
X274042Y79762D01*
X274119Y79845D01*
X274199Y79925D01*
X274282Y80002D01*
X274368Y80077D01*
X274456Y80148D01*
X274546Y80216D01*
X274639Y80281D01*
X274734Y80343D01*
X274831Y80401D01*
X274930Y80456D01*
X275031Y80507D01*
X275134Y80555D01*
X275238Y80600D01*
X275344Y80640D01*
X275451Y80677D01*
X275559Y80710D01*
X275669Y80740D01*
X275779Y80765D01*
X275890Y80787D01*
X276002Y80804D01*
X276115Y80818D01*
X276228Y80828D01*
X276341Y80834D01*
X276454Y80836D01*
X276567Y80834D01*
X276680Y80828D01*
X276793Y80818D01*
X276906Y80804D01*
X277018Y80787D01*
X277129Y80765D01*
X277239Y80740D01*
X277349Y80710D01*
X277457Y80677D01*
X277564Y80640D01*
X277670Y80600D01*
X277774Y80555D01*
X277877Y80507D01*
X277978Y80456D01*
X278077Y80401D01*
X278174Y80343D01*
X278269Y80281D01*
X278362Y80216D01*
X278452Y80148D01*
X278540Y80077D01*
X278626Y80002D01*
X278709Y79925D01*
X278789Y79845D01*
X278866Y79762D01*
X278941Y79676D01*
X279012Y79588D01*
X279080Y79498D01*
X279145Y79405D01*
X279207Y79310D01*
X279265Y79213D01*
X279320Y79114D01*
X279371Y79013D01*
X279419Y78910D01*
X279464Y78806D01*
X279504Y78700D01*
X279541Y78593D01*
X279574Y78485D01*
X279604Y78375D01*
X279629Y78265D01*
X279651Y78154D01*
X279668Y78042D01*
X279682Y77929D01*
X279692Y77816D01*
X279698Y77703D01*
X279700Y77590D01*
X279699Y77590D02*
X279699Y74345D01*
X279699Y78239D02*
X284892Y80836D01*
X275804Y85701D02*
X273208Y88946D01*
X284892Y88946D01*
X284892Y85701D02*
X284892Y92192D01*
X85000Y119500D02*
X85133Y119624D01*
X85263Y119752D01*
X85390Y119882D01*
X85514Y120016D01*
X85635Y120152D01*
X85752Y120292D01*
X85865Y120434D01*
X85975Y120579D01*
X86082Y120727D01*
X86185Y120877D01*
X86284Y121030D01*
X86379Y121185D01*
X86471Y121342D01*
X86558Y121502D01*
X86642Y121664D01*
X86722Y121827D01*
X86798Y121993D01*
X86869Y122160D01*
X86937Y122330D01*
X87000Y122500D01*
X87059Y122672D01*
X87114Y122846D01*
X87165Y123021D01*
X87211Y123197D01*
X87253Y123374D01*
X87291Y123552D01*
X87324Y123732D01*
X87353Y123911D01*
X87377Y124092D01*
X87397Y124273D01*
X87413Y124454D01*
X87424Y124636D01*
X87431Y124818D01*
X87433Y125000D01*
X87431Y125182D01*
X87424Y125364D01*
X87413Y125546D01*
X87397Y125727D01*
X87377Y125908D01*
X87353Y126089D01*
X87324Y126268D01*
X87291Y126448D01*
X87253Y126626D01*
X87211Y126803D01*
X87165Y126979D01*
X87114Y127154D01*
X87059Y127328D01*
X87000Y127500D01*
X86937Y127670D01*
X86869Y127840D01*
X86798Y128007D01*
X86722Y128173D01*
X86642Y128336D01*
X86558Y128498D01*
X86471Y128658D01*
X86379Y128815D01*
X86284Y128970D01*
X86185Y129123D01*
X86082Y129273D01*
X85975Y129421D01*
X85865Y129566D01*
X85752Y129708D01*
X85635Y129848D01*
X85514Y129984D01*
X85390Y130118D01*
X85263Y130248D01*
X85133Y130376D01*
X85000Y130500D01*
X75000Y130500D02*
X74867Y130376D01*
X74737Y130248D01*
X74610Y130118D01*
X74486Y129984D01*
X74365Y129848D01*
X74248Y129708D01*
X74135Y129566D01*
X74025Y129421D01*
X73918Y129273D01*
X73815Y129123D01*
X73716Y128970D01*
X73621Y128815D01*
X73529Y128658D01*
X73442Y128498D01*
X73358Y128336D01*
X73278Y128173D01*
X73202Y128007D01*
X73131Y127840D01*
X73063Y127670D01*
X73000Y127500D01*
X72941Y127328D01*
X72886Y127154D01*
X72835Y126979D01*
X72789Y126803D01*
X72747Y126626D01*
X72709Y126448D01*
X72676Y126268D01*
X72647Y126089D01*
X72623Y125908D01*
X72603Y125727D01*
X72587Y125546D01*
X72576Y125364D01*
X72569Y125182D01*
X72567Y125000D01*
X72569Y124818D01*
X72576Y124636D01*
X72587Y124454D01*
X72603Y124273D01*
X72623Y124092D01*
X72647Y123911D01*
X72676Y123732D01*
X72709Y123552D01*
X72747Y123374D01*
X72789Y123197D01*
X72835Y123021D01*
X72886Y122846D01*
X72941Y122672D01*
X73000Y122500D01*
X73063Y122330D01*
X73131Y122160D01*
X73202Y121993D01*
X73278Y121827D01*
X73358Y121664D01*
X73442Y121502D01*
X73529Y121342D01*
X73621Y121185D01*
X73716Y121030D01*
X73815Y120877D01*
X73918Y120727D01*
X74025Y120579D01*
X74135Y120434D01*
X74248Y120292D01*
X74365Y120152D01*
X74486Y120016D01*
X74610Y119882D01*
X74737Y119752D01*
X74867Y119624D01*
X75000Y119500D01*
D15*
X80000Y125000D03*
D16*
X85750Y130250D03*
D13*
X93208Y69345D02*
X104892Y69345D01*
X93208Y69345D02*
X93208Y72590D01*
X93210Y72703D01*
X93216Y72816D01*
X93226Y72929D01*
X93240Y73042D01*
X93257Y73154D01*
X93279Y73265D01*
X93304Y73375D01*
X93334Y73485D01*
X93367Y73593D01*
X93404Y73700D01*
X93444Y73806D01*
X93489Y73910D01*
X93537Y74013D01*
X93588Y74114D01*
X93643Y74213D01*
X93701Y74310D01*
X93763Y74405D01*
X93828Y74498D01*
X93896Y74588D01*
X93967Y74676D01*
X94042Y74762D01*
X94119Y74845D01*
X94199Y74925D01*
X94282Y75002D01*
X94368Y75077D01*
X94456Y75148D01*
X94546Y75216D01*
X94639Y75281D01*
X94734Y75343D01*
X94831Y75401D01*
X94930Y75456D01*
X95031Y75507D01*
X95134Y75555D01*
X95238Y75600D01*
X95344Y75640D01*
X95451Y75677D01*
X95559Y75710D01*
X95669Y75740D01*
X95779Y75765D01*
X95890Y75787D01*
X96002Y75804D01*
X96115Y75818D01*
X96228Y75828D01*
X96341Y75834D01*
X96454Y75836D01*
X96567Y75834D01*
X96680Y75828D01*
X96793Y75818D01*
X96906Y75804D01*
X97018Y75787D01*
X97129Y75765D01*
X97239Y75740D01*
X97349Y75710D01*
X97457Y75677D01*
X97564Y75640D01*
X97670Y75600D01*
X97774Y75555D01*
X97877Y75507D01*
X97978Y75456D01*
X98077Y75401D01*
X98174Y75343D01*
X98269Y75281D01*
X98362Y75216D01*
X98452Y75148D01*
X98540Y75077D01*
X98626Y75002D01*
X98709Y74925D01*
X98789Y74845D01*
X98866Y74762D01*
X98941Y74676D01*
X99012Y74588D01*
X99080Y74498D01*
X99145Y74405D01*
X99207Y74310D01*
X99265Y74213D01*
X99320Y74114D01*
X99371Y74013D01*
X99419Y73910D01*
X99464Y73806D01*
X99504Y73700D01*
X99541Y73593D01*
X99574Y73485D01*
X99604Y73375D01*
X99629Y73265D01*
X99651Y73154D01*
X99668Y73042D01*
X99682Y72929D01*
X99692Y72816D01*
X99698Y72703D01*
X99700Y72590D01*
X99699Y72590D02*
X99699Y69345D01*
X99699Y73239D02*
X104892Y75836D01*
X96129Y87192D02*
X96022Y87190D01*
X95916Y87184D01*
X95810Y87174D01*
X95704Y87161D01*
X95598Y87143D01*
X95494Y87122D01*
X95390Y87097D01*
X95287Y87068D01*
X95186Y87036D01*
X95086Y86999D01*
X94987Y86959D01*
X94889Y86916D01*
X94793Y86869D01*
X94699Y86818D01*
X94607Y86764D01*
X94517Y86707D01*
X94429Y86647D01*
X94344Y86583D01*
X94261Y86516D01*
X94180Y86446D01*
X94102Y86374D01*
X94026Y86298D01*
X93954Y86220D01*
X93884Y86139D01*
X93817Y86056D01*
X93753Y85971D01*
X93693Y85883D01*
X93636Y85793D01*
X93582Y85701D01*
X93531Y85607D01*
X93484Y85511D01*
X93441Y85413D01*
X93401Y85314D01*
X93364Y85214D01*
X93332Y85113D01*
X93303Y85010D01*
X93278Y84906D01*
X93257Y84802D01*
X93239Y84696D01*
X93226Y84590D01*
X93216Y84484D01*
X93210Y84378D01*
X93208Y84271D01*
X93210Y84150D01*
X93216Y84029D01*
X93226Y83909D01*
X93239Y83788D01*
X93257Y83669D01*
X93278Y83549D01*
X93303Y83431D01*
X93332Y83314D01*
X93365Y83197D01*
X93401Y83082D01*
X93442Y82968D01*
X93485Y82855D01*
X93533Y82743D01*
X93584Y82634D01*
X93639Y82526D01*
X93697Y82419D01*
X93758Y82315D01*
X93823Y82213D01*
X93891Y82113D01*
X93962Y82015D01*
X94036Y81919D01*
X94113Y81826D01*
X94194Y81736D01*
X94277Y81648D01*
X94363Y81563D01*
X94452Y81480D01*
X94543Y81401D01*
X94637Y81324D01*
X94733Y81251D01*
X94831Y81181D01*
X94932Y81114D01*
X95035Y81050D01*
X95140Y80990D01*
X95247Y80932D01*
X95355Y80879D01*
X95465Y80829D01*
X95577Y80783D01*
X95690Y80740D01*
X95805Y80701D01*
X98401Y86218D02*
X98323Y86297D01*
X98243Y86373D01*
X98160Y86446D01*
X98074Y86516D01*
X97987Y86583D01*
X97896Y86647D01*
X97804Y86707D01*
X97710Y86765D01*
X97613Y86819D01*
X97515Y86869D01*
X97415Y86916D01*
X97314Y86960D01*
X97211Y87000D01*
X97106Y87036D01*
X97001Y87068D01*
X96894Y87097D01*
X96787Y87122D01*
X96678Y87144D01*
X96569Y87161D01*
X96460Y87175D01*
X96350Y87184D01*
X96239Y87190D01*
X96129Y87192D01*
X98401Y86218D02*
X104892Y80701D01*
X104892Y87192D01*
D11*
X255400Y240790D02*
X255400Y244600D01*
D17*
X268100Y240790D02*
X268100Y270000D01*
X268100Y240790D02*
X255400Y240790D01*
D11*
X252860Y240790D01*
D17*
X255400Y240790D02*
X242700Y240790D01*
X191900Y240790D02*
X191900Y270000D01*
X191900Y240790D02*
X242700Y240790D01*
X268100Y270000D02*
X268100Y299210D01*
D11*
X242700Y299210D01*
D17*
X191900Y299210D02*
X191900Y270000D01*
X198250Y299210D02*
X210950Y299210D01*
X223650Y299210D02*
X236350Y299210D01*
D11*
X242700Y299210D01*
D17*
X261750Y299210D02*
X265560Y299210D01*
X261750Y299210D02*
X261750Y292860D01*
X249050Y292860D01*
X249050Y299210D01*
X261750Y299210D01*
X249050Y299210D02*
X236350Y299210D01*
X236350Y292860D01*
X223650Y292860D01*
X223650Y299210D01*
X210950Y299210D01*
X210950Y292860D01*
X198250Y292860D01*
X198250Y299210D01*
X191900Y299210D01*
X255400Y250950D02*
X255400Y240790D01*
X255400Y250950D02*
X252860Y250950D01*
X207140Y250950D01*
X204600Y250950D01*
X204600Y240790D01*
X252860Y256030D02*
X255400Y250950D01*
X252860Y250950D02*
X252860Y240790D01*
X252860Y256030D02*
X207140Y256030D01*
X204600Y250950D01*
X207140Y250950D02*
X207140Y240790D01*
D18*
X178862Y274065D02*
X181896Y276492D01*
X181896Y265570D01*
X178862Y265570D02*
X184930Y265570D01*
X272842Y265062D02*
X275876Y265062D01*
X275984Y265064D01*
X276092Y265070D01*
X276200Y265079D01*
X276308Y265093D01*
X276415Y265110D01*
X276521Y265131D01*
X276626Y265156D01*
X276731Y265185D01*
X276834Y265217D01*
X276936Y265253D01*
X277037Y265293D01*
X277136Y265336D01*
X277234Y265383D01*
X277330Y265433D01*
X277424Y265487D01*
X277516Y265544D01*
X277606Y265604D01*
X277694Y265667D01*
X277780Y265734D01*
X277863Y265803D01*
X277943Y265875D01*
X278021Y265951D01*
X278097Y266029D01*
X278169Y266109D01*
X278238Y266192D01*
X278305Y266278D01*
X278368Y266366D01*
X278428Y266456D01*
X278485Y266548D01*
X278539Y266642D01*
X278589Y266738D01*
X278636Y266836D01*
X278679Y266935D01*
X278719Y267036D01*
X278755Y267138D01*
X278787Y267241D01*
X278816Y267346D01*
X278841Y267451D01*
X278862Y267557D01*
X278879Y267664D01*
X278893Y267772D01*
X278902Y267880D01*
X278908Y267988D01*
X278910Y268096D01*
X278908Y268204D01*
X278902Y268312D01*
X278893Y268420D01*
X278879Y268528D01*
X278862Y268635D01*
X278841Y268741D01*
X278816Y268846D01*
X278787Y268951D01*
X278755Y269054D01*
X278719Y269156D01*
X278679Y269257D01*
X278636Y269356D01*
X278589Y269454D01*
X278539Y269550D01*
X278485Y269644D01*
X278428Y269736D01*
X278368Y269826D01*
X278305Y269914D01*
X278238Y270000D01*
X278169Y270083D01*
X278097Y270163D01*
X278021Y270241D01*
X277943Y270317D01*
X277863Y270389D01*
X277780Y270458D01*
X277694Y270525D01*
X277606Y270588D01*
X277516Y270648D01*
X277424Y270705D01*
X277330Y270759D01*
X277234Y270809D01*
X277136Y270856D01*
X277037Y270899D01*
X276936Y270939D01*
X276834Y270975D01*
X276731Y271007D01*
X276626Y271036D01*
X276521Y271061D01*
X276415Y271082D01*
X276308Y271099D01*
X276200Y271113D01*
X276092Y271122D01*
X275984Y271128D01*
X275876Y271130D01*
X276483Y275984D02*
X272842Y275984D01*
X276483Y275984D02*
X276581Y275982D01*
X276678Y275976D01*
X276776Y275966D01*
X276872Y275953D01*
X276968Y275935D01*
X277064Y275913D01*
X277158Y275888D01*
X277252Y275859D01*
X277344Y275826D01*
X277434Y275790D01*
X277523Y275750D01*
X277611Y275706D01*
X277697Y275659D01*
X277780Y275608D01*
X277862Y275554D01*
X277941Y275497D01*
X278018Y275437D01*
X278092Y275374D01*
X278164Y275307D01*
X278233Y275238D01*
X278300Y275166D01*
X278363Y275092D01*
X278423Y275015D01*
X278480Y274936D01*
X278534Y274854D01*
X278585Y274771D01*
X278632Y274685D01*
X278676Y274597D01*
X278716Y274508D01*
X278752Y274418D01*
X278785Y274326D01*
X278814Y274232D01*
X278839Y274138D01*
X278861Y274042D01*
X278879Y273946D01*
X278892Y273850D01*
X278902Y273752D01*
X278908Y273655D01*
X278910Y273557D01*
X278908Y273459D01*
X278902Y273362D01*
X278892Y273264D01*
X278879Y273168D01*
X278861Y273072D01*
X278839Y272976D01*
X278814Y272882D01*
X278785Y272788D01*
X278752Y272696D01*
X278716Y272606D01*
X278676Y272517D01*
X278632Y272429D01*
X278585Y272344D01*
X278534Y272260D01*
X278480Y272178D01*
X278423Y272099D01*
X278363Y272022D01*
X278300Y271948D01*
X278233Y271876D01*
X278164Y271807D01*
X278092Y271740D01*
X278018Y271677D01*
X277941Y271617D01*
X277862Y271560D01*
X277780Y271506D01*
X277697Y271455D01*
X277611Y271408D01*
X277523Y271364D01*
X277434Y271324D01*
X277344Y271288D01*
X277252Y271255D01*
X277158Y271226D01*
X277064Y271201D01*
X276968Y271179D01*
X276872Y271161D01*
X276776Y271148D01*
X276678Y271138D01*
X276581Y271132D01*
X276483Y271130D01*
X274056Y271130D01*
D13*
X157916Y246741D02*
X157916Y239629D01*
X157914Y239540D01*
X157908Y239452D01*
X157899Y239364D01*
X157885Y239276D01*
X157868Y239189D01*
X157847Y239103D01*
X157822Y239018D01*
X157793Y238934D01*
X157761Y238851D01*
X157726Y238770D01*
X157686Y238691D01*
X157644Y238613D01*
X157598Y238537D01*
X157549Y238463D01*
X157496Y238392D01*
X157441Y238323D01*
X157382Y238256D01*
X157321Y238192D01*
X157257Y238131D01*
X157190Y238072D01*
X157121Y238017D01*
X157050Y237964D01*
X156976Y237915D01*
X156900Y237869D01*
X156822Y237827D01*
X156743Y237787D01*
X156662Y237752D01*
X156579Y237720D01*
X156495Y237691D01*
X156410Y237666D01*
X156324Y237645D01*
X156237Y237628D01*
X156149Y237614D01*
X156061Y237605D01*
X155973Y237599D01*
X155884Y237597D01*
X154868Y237597D01*
X162243Y244709D02*
X164783Y246741D01*
X164783Y237597D01*
X162243Y237597D02*
X167323Y237597D01*
M02*
