G04 EAGLE Gerber RS-274X export*
G75*
%MOMM*%
%FSLAX34Y34*%
%LPD*%
%AMOC8*
5,1,8,0,0,1.08239X$1,22.5*%
G01*
%ADD10C,3.203200*%
%ADD11R,0.812800X2.413000*%
%ADD12R,1.711200X1.711200*%
%ADD13R,1.524000X1.524000*%
%ADD14C,1.524000*%
%ADD15C,1.511200*%
%ADD16C,2.743200*%
%ADD17P,2.969212X8X112.500000*%
%ADD18R,2.006200X1.803200*%
%ADD19R,2.203200X1.803200*%
%ADD20C,1.727200*%
%ADD21C,0.959600*%


D10*
X20000Y20000D03*
X20000Y280000D03*
X320000Y20000D03*
X320000Y280000D03*
D11*
X208200Y150135D03*
X208200Y98065D03*
X195500Y150135D03*
X182800Y150135D03*
X195500Y98065D03*
X182800Y98065D03*
X170100Y150135D03*
X170100Y98065D03*
X157400Y150135D03*
X144700Y150135D03*
X157400Y98065D03*
X144700Y98065D03*
X132000Y150135D03*
X132000Y98065D03*
D12*
X107400Y61600D03*
X107400Y87000D03*
X107400Y112400D03*
X107400Y137800D03*
X107400Y163200D03*
X107400Y188600D03*
X234400Y61600D03*
X234400Y87000D03*
X234400Y112400D03*
X234400Y137800D03*
X234400Y163200D03*
X234400Y188600D03*
D13*
X117900Y24200D03*
D14*
X137900Y24200D03*
X157900Y24200D03*
X177900Y24200D03*
X197900Y24200D03*
X217900Y24200D03*
D15*
X52640Y170700D02*
X39560Y170700D01*
X39560Y145700D02*
X52640Y145700D01*
X52640Y120700D02*
X39560Y120700D01*
X39560Y95700D02*
X52640Y95700D01*
X52640Y70700D02*
X39560Y70700D01*
D13*
X269700Y225800D03*
D14*
X249700Y225800D03*
X229700Y225800D03*
X209700Y225800D03*
X189700Y225800D03*
X169700Y225800D03*
D15*
X298260Y175700D02*
X311340Y175700D01*
X311340Y150700D02*
X298260Y150700D01*
X298260Y125700D02*
X311340Y125700D01*
X311340Y100700D02*
X298260Y100700D01*
X298260Y75700D02*
X311340Y75700D01*
D16*
X85000Y224600D03*
D17*
X85000Y275400D03*
D18*
X260000Y115780D03*
X260000Y144220D03*
D19*
X260000Y94000D03*
X260000Y66000D03*
D18*
X80000Y110780D03*
X80000Y139220D03*
D19*
X80000Y89000D03*
X80000Y61000D03*
D20*
X255400Y262380D02*
X255400Y277620D01*
X230000Y277620D02*
X230000Y262380D01*
X204600Y262380D02*
X204600Y277620D01*
D21*
X153000Y116000D03*
X124000Y130000D03*
X170000Y132000D03*
X198000Y38000D03*
X189000Y133000D03*
X277000Y88000D03*
X96000Y47000D03*
X198000Y210000D03*
X75000Y204000D03*
X96000Y204000D03*
X170000Y116000D03*
X139000Y217000D03*
M02*
