G75*
%MOIN*%
%OFA0B0*%
%FSLAX25Y25*%
%IPPOS*%
%LPD*%
%AMOC8*
5,1,8,0,0,1.08239X$1,22.5*
%
%ADD10R,0.05918X0.06706*%
%ADD11R,0.06706X0.05918*%
%ADD12C,0.07400*%
%ADD13C,0.07400*%
%ADD14C,0.13800*%
%ADD15R,0.03162X0.09461*%
%ADD16C,0.06800*%
%ADD17OC8,0.06800*%
%ADD18C,0.01421*%
%ADD19R,0.04737X0.05131*%
%ADD20C,0.06800*%
%ADD21C,0.06600*%
%ADD22C,0.11824*%
%ADD23C,0.04800*%
D10*
X0209354Y0284543D03*
X0216047Y0284543D03*
D11*
X0218764Y0272732D03*
X0218764Y0266039D03*
D12*
X0014000Y0010331D03*
X0029669Y0009543D03*
X0029669Y0049543D03*
X0014000Y0050331D03*
X0076992Y0048756D03*
X0090299Y0047969D03*
X0090299Y0007969D03*
X0076992Y0008756D03*
X0075417Y0124898D03*
X0062740Y0125685D03*
X0047858Y0126472D03*
X0062740Y0165685D03*
X0075417Y0164898D03*
X0091165Y0166079D03*
X0091165Y0126079D03*
X0047858Y0166472D03*
X0222661Y0167260D03*
X0238409Y0166079D03*
X0251638Y0166472D03*
X0267386Y0167654D03*
X0267386Y0127654D03*
X0251638Y0126472D03*
X0238409Y0126079D03*
X0222661Y0127260D03*
X0219669Y0048756D03*
X0231953Y0049150D03*
X0231953Y0009150D03*
X0219669Y0008756D03*
X0292031Y0009150D03*
X0303843Y0010331D03*
X0292031Y0049150D03*
X0303843Y0050331D03*
D13*
X0239190Y0264976D02*
X0232590Y0264976D01*
X0232590Y0274976D02*
X0239190Y0274976D01*
X0239190Y0284976D02*
X0232590Y0284976D01*
D14*
X0294890Y0274976D03*
D15*
X0267524Y0114307D03*
X0262524Y0114307D03*
X0257524Y0114307D03*
X0252524Y0114307D03*
X0247524Y0114307D03*
X0242524Y0114307D03*
X0237524Y0114307D03*
X0232524Y0114307D03*
X0227524Y0114307D03*
X0222524Y0114307D03*
X0222524Y0063126D03*
X0227524Y0063126D03*
X0232524Y0063126D03*
X0237524Y0063126D03*
X0242524Y0063126D03*
X0247524Y0063126D03*
X0252524Y0063126D03*
X0257524Y0063126D03*
X0262524Y0063126D03*
X0267524Y0063126D03*
X0094098Y0063126D03*
X0089098Y0063126D03*
X0084098Y0063126D03*
X0079098Y0063126D03*
X0074098Y0063126D03*
X0069098Y0063126D03*
X0064098Y0063126D03*
X0059098Y0063126D03*
X0054098Y0063126D03*
X0049098Y0063126D03*
X0049098Y0114307D03*
X0054098Y0114307D03*
X0059098Y0114307D03*
X0064098Y0114307D03*
X0069098Y0114307D03*
X0074098Y0114307D03*
X0079098Y0114307D03*
X0084098Y0114307D03*
X0089098Y0114307D03*
X0094098Y0114307D03*
D16*
X0094197Y0224504D03*
X0086323Y0224504D03*
X0102071Y0224504D03*
X0109945Y0224504D03*
X0117819Y0224504D03*
X0125693Y0224504D03*
X0133567Y0224504D03*
X0141441Y0224504D03*
X0149315Y0224504D03*
X0157189Y0224504D03*
X0157189Y0311118D03*
X0149315Y0311118D03*
X0141441Y0311118D03*
X0133567Y0311118D03*
X0125693Y0311118D03*
X0117819Y0311118D03*
X0109945Y0311118D03*
X0102071Y0311118D03*
X0094197Y0311118D03*
X0086323Y0311118D03*
D17*
X0099984Y0204268D03*
X0109984Y0204268D03*
X0119984Y0204268D03*
X0129984Y0204268D03*
X0129984Y0194268D03*
X0119984Y0194268D03*
X0109984Y0194268D03*
X0099984Y0194268D03*
X0099984Y0184268D03*
X0109984Y0184268D03*
X0119984Y0184268D03*
X0129984Y0184268D03*
X0139984Y0184268D03*
X0139984Y0194268D03*
X0139984Y0204268D03*
X0149984Y0204268D03*
X0149984Y0194268D03*
X0149984Y0184268D03*
X0176323Y0183008D03*
X0186323Y0183008D03*
X0196323Y0183008D03*
X0206323Y0183008D03*
X0206323Y0193008D03*
X0206323Y0203008D03*
X0196323Y0203008D03*
X0196323Y0193008D03*
X0186323Y0193008D03*
X0186323Y0203008D03*
X0176323Y0203008D03*
X0176323Y0193008D03*
X0216323Y0193008D03*
X0226323Y0193008D03*
X0226323Y0203008D03*
X0216323Y0203008D03*
X0216323Y0183008D03*
X0226323Y0183008D03*
X0292268Y0153638D03*
X0292268Y0143638D03*
X0292268Y0133638D03*
X0302268Y0133638D03*
X0302268Y0143638D03*
X0302268Y0153638D03*
X0302268Y0086276D03*
X0302268Y0076276D03*
X0302268Y0066276D03*
X0292268Y0066276D03*
X0292268Y0076276D03*
X0292268Y0086276D03*
X0026992Y0088402D03*
X0016992Y0088402D03*
X0016992Y0078402D03*
X0026992Y0078402D03*
X0026992Y0068402D03*
X0016992Y0068402D03*
X0016992Y0123087D03*
X0026992Y0123087D03*
X0026992Y0133087D03*
X0026992Y0143087D03*
X0016992Y0143087D03*
X0016992Y0133087D03*
D18*
X0043141Y0234145D02*
X0043141Y0237461D01*
X0046457Y0237461D01*
X0046457Y0234145D01*
X0043141Y0234145D01*
X0043141Y0235565D02*
X0046457Y0235565D01*
X0046457Y0236985D02*
X0043141Y0236985D01*
X0050047Y0237461D02*
X0050047Y0234145D01*
X0050047Y0237461D02*
X0053363Y0237461D01*
X0053363Y0234145D01*
X0050047Y0234145D01*
X0050047Y0235565D02*
X0053363Y0235565D01*
X0053363Y0236985D02*
X0050047Y0236985D01*
X0050047Y0249145D02*
X0050047Y0252461D01*
X0053363Y0252461D01*
X0053363Y0249145D01*
X0050047Y0249145D01*
X0050047Y0250565D02*
X0053363Y0250565D01*
X0053363Y0251985D02*
X0050047Y0251985D01*
X0043141Y0252461D02*
X0043141Y0249145D01*
X0043141Y0252461D02*
X0046457Y0252461D01*
X0046457Y0249145D01*
X0043141Y0249145D01*
X0043141Y0250565D02*
X0046457Y0250565D01*
X0046457Y0251985D02*
X0043141Y0251985D01*
X0043141Y0264145D02*
X0043141Y0267461D01*
X0046457Y0267461D01*
X0046457Y0264145D01*
X0043141Y0264145D01*
X0043141Y0265565D02*
X0046457Y0265565D01*
X0046457Y0266985D02*
X0043141Y0266985D01*
X0050047Y0267461D02*
X0050047Y0264145D01*
X0050047Y0267461D02*
X0053363Y0267461D01*
X0053363Y0264145D01*
X0050047Y0264145D01*
X0050047Y0265565D02*
X0053363Y0265565D01*
X0053363Y0266985D02*
X0050047Y0266985D01*
X0050047Y0279145D02*
X0050047Y0282461D01*
X0053363Y0282461D01*
X0053363Y0279145D01*
X0050047Y0279145D01*
X0050047Y0280565D02*
X0053363Y0280565D01*
X0053363Y0281985D02*
X0050047Y0281985D01*
X0043141Y0282461D02*
X0043141Y0279145D01*
X0043141Y0282461D02*
X0046457Y0282461D01*
X0046457Y0279145D01*
X0043141Y0279145D01*
X0043141Y0280565D02*
X0046457Y0280565D01*
X0046457Y0281985D02*
X0043141Y0281985D01*
X0043141Y0294145D02*
X0043141Y0297461D01*
X0046457Y0297461D01*
X0046457Y0294145D01*
X0043141Y0294145D01*
X0043141Y0295565D02*
X0046457Y0295565D01*
X0046457Y0296985D02*
X0043141Y0296985D01*
X0050047Y0297461D02*
X0050047Y0294145D01*
X0050047Y0297461D02*
X0053363Y0297461D01*
X0053363Y0294145D01*
X0050047Y0294145D01*
X0050047Y0295565D02*
X0053363Y0295565D01*
X0053363Y0296985D02*
X0050047Y0296985D01*
D19*
X0071874Y0295409D03*
X0071874Y0288717D03*
X0071874Y0280409D03*
X0071874Y0273717D03*
X0071874Y0265409D03*
X0071874Y0258717D03*
X0071874Y0250409D03*
X0071874Y0243717D03*
X0071874Y0235409D03*
X0071874Y0228717D03*
D20*
X0022866Y0196709D02*
X0016866Y0196709D01*
X0016866Y0186709D02*
X0022866Y0186709D01*
D21*
X0132150Y0140606D03*
X0142150Y0140606D03*
X0152150Y0140606D03*
X0162150Y0140606D03*
X0162150Y0130606D03*
X0162150Y0120606D03*
X0162150Y0110606D03*
X0162150Y0100606D03*
X0162150Y0090606D03*
X0162150Y0080606D03*
X0162150Y0070606D03*
X0152150Y0070606D03*
X0152150Y0080606D03*
X0152150Y0090606D03*
X0152150Y0100606D03*
X0152150Y0110606D03*
X0152150Y0120606D03*
X0152150Y0130606D03*
X0132150Y0130606D03*
X0132150Y0120606D03*
X0132150Y0110606D03*
X0132150Y0100606D03*
X0132150Y0090606D03*
X0132150Y0080606D03*
X0132150Y0070606D03*
X0132150Y0060606D03*
X0142150Y0060606D03*
X0142150Y0050606D03*
X0142150Y0040606D03*
X0132150Y0040606D03*
X0132150Y0030606D03*
X0132150Y0020606D03*
X0142150Y0020606D03*
X0132150Y0010606D03*
X0132150Y0050606D03*
X0192150Y0050606D03*
X0192150Y0040606D03*
X0192150Y0030606D03*
X0192150Y0020606D03*
X0192150Y0010606D03*
X0192150Y0060606D03*
X0192150Y0070606D03*
X0192150Y0080606D03*
X0192150Y0090606D03*
X0192150Y0100606D03*
X0192150Y0110606D03*
X0192150Y0120606D03*
X0192150Y0130606D03*
X0192150Y0140606D03*
X0182150Y0140606D03*
X0172150Y0140606D03*
D22*
X0265929Y0016748D03*
X0053331Y0016748D03*
X0057268Y0315961D03*
X0261992Y0315961D03*
D23*
X0157661Y0173244D03*
X0146835Y0173244D03*
X0132071Y0176197D03*
X0125181Y0163402D03*
X0101559Y0152575D03*
X0058252Y0184071D03*
X0037583Y0196866D03*
X0066126Y0234268D03*
X0054315Y0245094D03*
X0048409Y0245094D03*
X0041520Y0256906D03*
X0051362Y0259858D03*
X0051362Y0271669D03*
X0047425Y0286433D03*
X0077937Y0286433D03*
X0077937Y0259858D03*
X0077937Y0253953D03*
X0083843Y0256906D03*
X0056283Y0152575D03*
X0088764Y0106315D03*
X0091717Y0097457D03*
X0053331Y0080724D03*
X0053331Y0074819D03*
X0035614Y0088598D03*
X0050378Y0097457D03*
X0071047Y0055134D03*
X0068094Y0037417D03*
X0061205Y0032496D03*
X0074984Y0025606D03*
X0096638Y0052181D03*
X0115339Y0058087D03*
X0148803Y0050213D03*
X0152740Y0056118D03*
X0170457Y0046276D03*
X0178331Y0046276D03*
X0183252Y0075803D03*
X0170457Y0091551D03*
X0197031Y0095488D03*
X0216717Y0116157D03*
X0215732Y0126000D03*
X0229512Y0138795D03*
X0233449Y0130921D03*
X0207858Y0143717D03*
X0196047Y0152575D03*
X0191126Y0156512D03*
X0174394Y0130921D03*
X0175378Y0125016D03*
X0183252Y0126984D03*
X0225575Y0083677D03*
X0225575Y0071866D03*
X0215732Y0071866D03*
X0236402Y0043323D03*
X0240339Y0038402D03*
X0248213Y0045291D03*
X0247228Y0055134D03*
X0255102Y0055134D03*
X0259039Y0050213D03*
X0262976Y0071866D03*
X0207858Y0039386D03*
X0127150Y0015764D03*
X0049394Y0053165D03*
X0044472Y0045291D03*
M02*
