G75*
%MOIN*%
%OFA0B0*%
%FSLAX25Y25*%
%IPPOS*%
%LPD*%
%AMOC8*
5,1,8,0,0,1.08239X$1,22.5*
%
%ADD10C,0.06600*%
%ADD11C,0.06600*%
%ADD12C,0.06000*%
%ADD13OC8,0.06000*%
%ADD14C,0.06000*%
%ADD15C,0.05800*%
%ADD16C,0.04000*%
%ADD17C,0.04000*%
%ADD18C,0.02000*%
D10*
X0014000Y0010331D03*
X0029669Y0009543D03*
X0029669Y0049543D03*
X0014000Y0050331D03*
X0076992Y0048756D03*
X0090299Y0047969D03*
X0090299Y0007969D03*
X0076992Y0008756D03*
X0075417Y0124898D03*
X0062740Y0125685D03*
X0047858Y0126472D03*
X0062740Y0165685D03*
X0075417Y0164898D03*
X0091165Y0166079D03*
X0091165Y0126079D03*
X0047858Y0166472D03*
X0222661Y0167260D03*
X0238409Y0166079D03*
X0251638Y0166472D03*
X0267386Y0167654D03*
X0267386Y0127654D03*
X0251638Y0126472D03*
X0238409Y0126079D03*
X0222661Y0127260D03*
X0219669Y0048756D03*
X0231953Y0049150D03*
X0231953Y0009150D03*
X0219669Y0008756D03*
X0292031Y0009150D03*
X0303843Y0010331D03*
X0292031Y0049150D03*
X0303843Y0050331D03*
D11*
X0239190Y0264976D02*
X0232590Y0264976D01*
X0232590Y0274976D02*
X0239190Y0274976D01*
X0239190Y0284976D02*
X0232590Y0284976D01*
D12*
X0157189Y0311118D03*
X0149315Y0311118D03*
X0141441Y0311118D03*
X0133567Y0311118D03*
X0125693Y0311118D03*
X0117819Y0311118D03*
X0109945Y0311118D03*
X0102071Y0311118D03*
X0094197Y0311118D03*
X0086323Y0311118D03*
X0086323Y0224504D03*
X0094197Y0224504D03*
X0102071Y0224504D03*
X0109945Y0224504D03*
X0117819Y0224504D03*
X0125693Y0224504D03*
X0133567Y0224504D03*
X0141441Y0224504D03*
X0149315Y0224504D03*
X0157189Y0224504D03*
D13*
X0149984Y0204268D03*
X0139984Y0204268D03*
X0139984Y0194268D03*
X0149984Y0194268D03*
X0149984Y0184268D03*
X0139984Y0184268D03*
X0129984Y0184268D03*
X0129984Y0194268D03*
X0129984Y0204268D03*
X0119984Y0204268D03*
X0109984Y0204268D03*
X0099984Y0204268D03*
X0099984Y0194268D03*
X0109984Y0194268D03*
X0119984Y0194268D03*
X0119984Y0184268D03*
X0109984Y0184268D03*
X0099984Y0184268D03*
X0026992Y0143087D03*
X0016992Y0143087D03*
X0016992Y0133087D03*
X0026992Y0133087D03*
X0026992Y0123087D03*
X0016992Y0123087D03*
X0016992Y0088402D03*
X0026992Y0088402D03*
X0026992Y0078402D03*
X0016992Y0078402D03*
X0016992Y0068402D03*
X0026992Y0068402D03*
X0176323Y0183008D03*
X0186323Y0183008D03*
X0196323Y0183008D03*
X0206323Y0183008D03*
X0206323Y0193008D03*
X0206323Y0203008D03*
X0196323Y0203008D03*
X0196323Y0193008D03*
X0186323Y0193008D03*
X0186323Y0203008D03*
X0176323Y0203008D03*
X0176323Y0193008D03*
X0216323Y0193008D03*
X0226323Y0193008D03*
X0226323Y0203008D03*
X0216323Y0203008D03*
X0216323Y0183008D03*
X0226323Y0183008D03*
X0292268Y0153638D03*
X0292268Y0143638D03*
X0292268Y0133638D03*
X0302268Y0133638D03*
X0302268Y0143638D03*
X0302268Y0153638D03*
X0302268Y0086276D03*
X0302268Y0076276D03*
X0302268Y0066276D03*
X0292268Y0066276D03*
X0292268Y0076276D03*
X0292268Y0086276D03*
D14*
X0022866Y0186709D02*
X0016866Y0186709D01*
X0016866Y0196709D02*
X0022866Y0196709D01*
D15*
X0132150Y0140606D03*
X0142150Y0140606D03*
X0152150Y0140606D03*
X0162150Y0140606D03*
X0162150Y0130606D03*
X0162150Y0120606D03*
X0162150Y0110606D03*
X0162150Y0100606D03*
X0162150Y0090606D03*
X0162150Y0080606D03*
X0162150Y0070606D03*
X0152150Y0070606D03*
X0152150Y0080606D03*
X0152150Y0090606D03*
X0152150Y0100606D03*
X0152150Y0110606D03*
X0152150Y0120606D03*
X0152150Y0130606D03*
X0132150Y0130606D03*
X0132150Y0120606D03*
X0132150Y0110606D03*
X0132150Y0100606D03*
X0132150Y0090606D03*
X0132150Y0080606D03*
X0132150Y0070606D03*
X0132150Y0060606D03*
X0142150Y0060606D03*
X0142150Y0050606D03*
X0142150Y0040606D03*
X0132150Y0040606D03*
X0132150Y0030606D03*
X0132150Y0020606D03*
X0142150Y0020606D03*
X0132150Y0010606D03*
X0132150Y0050606D03*
X0192150Y0050606D03*
X0192150Y0040606D03*
X0192150Y0030606D03*
X0192150Y0020606D03*
X0192150Y0010606D03*
X0192150Y0060606D03*
X0192150Y0070606D03*
X0192150Y0080606D03*
X0192150Y0090606D03*
X0192150Y0100606D03*
X0192150Y0110606D03*
X0192150Y0120606D03*
X0192150Y0130606D03*
X0192150Y0140606D03*
X0182150Y0140606D03*
X0172150Y0140606D03*
D16*
X0238409Y0126079D02*
X0239354Y0126984D01*
X0250181Y0126984D01*
X0251638Y0126472D01*
X0259039Y0133874D01*
X0291520Y0133874D01*
X0292268Y0133638D01*
X0283646Y0152575D02*
X0276756Y0159465D01*
X0245260Y0159465D01*
X0239354Y0165370D01*
X0238409Y0166079D01*
X0251638Y0166472D02*
X0252150Y0167339D01*
X0266913Y0167339D01*
X0267386Y0167654D01*
X0240339Y0198835D02*
X0228528Y0210646D01*
X0158646Y0210646D01*
X0073016Y0210646D01*
X0049394Y0187024D01*
X0019866Y0187024D01*
X0019866Y0186709D01*
X0019866Y0196709D02*
X0019866Y0196866D01*
X0052346Y0196866D01*
X0047858Y0166472D02*
X0047425Y0166354D01*
X0017898Y0166354D01*
X0017898Y0143717D01*
X0016992Y0143087D01*
X0026992Y0143087D02*
X0027740Y0142732D01*
X0058252Y0142732D01*
X0053331Y0131906D02*
X0067110Y0131906D01*
X0062740Y0125685D02*
X0063173Y0125016D01*
X0074984Y0125016D01*
X0075417Y0124898D01*
X0084827Y0123047D02*
X0084827Y0134858D01*
X0086795Y0134858D01*
X0084827Y0123047D02*
X0087780Y0120094D01*
X0088764Y0120094D01*
X0088764Y0106315D01*
X0089748Y0089583D02*
X0049394Y0089583D01*
X0036598Y0082693D02*
X0032661Y0082693D01*
X0027740Y0087614D01*
X0026992Y0088402D01*
X0037583Y0060055D02*
X0075969Y0060055D01*
X0080890Y0055134D01*
X0076992Y0048756D02*
X0074984Y0049228D01*
X0071047Y0045291D01*
X0043488Y0045291D01*
X0048409Y0050213D02*
X0029709Y0050213D01*
X0029669Y0049543D01*
X0033646Y0055134D02*
X0032661Y0056118D01*
X0019866Y0056118D01*
X0014945Y0051197D01*
X0014000Y0050331D01*
X0033646Y0055134D02*
X0071047Y0055134D01*
X0076992Y0048756D02*
X0077937Y0048244D01*
X0089748Y0048244D01*
X0090299Y0047969D01*
X0077937Y0020685D02*
X0073016Y0020685D01*
X0077937Y0020685D02*
X0089748Y0008874D01*
X0090299Y0007969D01*
X0047858Y0126472D02*
X0048409Y0126984D01*
X0053331Y0131906D01*
X0075417Y0164898D02*
X0075969Y0165370D01*
X0090732Y0165370D01*
X0091165Y0166079D01*
X0158646Y0210646D02*
X0158646Y0220488D01*
X0157661Y0221472D01*
X0157661Y0224425D01*
X0157189Y0224504D01*
X0235417Y0233283D02*
X0031677Y0233283D01*
X0219669Y0048756D02*
X0219669Y0048244D01*
X0225575Y0042339D01*
X0244276Y0042339D01*
X0247228Y0045291D01*
X0278724Y0045291D01*
X0290535Y0057102D01*
X0296441Y0057102D01*
X0301362Y0062024D01*
X0301362Y0065961D01*
X0302268Y0066276D01*
X0292268Y0066276D02*
X0291520Y0065961D01*
X0278724Y0065961D01*
X0292031Y0049150D02*
X0292504Y0049228D01*
X0293488Y0050213D01*
X0303331Y0050213D01*
X0303843Y0050331D01*
X0258055Y0050213D02*
X0233449Y0050213D01*
X0232465Y0049228D01*
X0231953Y0049150D01*
X0219669Y0031512D02*
X0219669Y0008756D01*
D17*
X0219669Y0031512D03*
X0204906Y0031512D03*
X0212780Y0056118D03*
X0204906Y0060055D03*
X0217701Y0071866D03*
X0227543Y0071866D03*
X0241323Y0055134D03*
X0247228Y0045291D03*
X0258055Y0050213D03*
X0278724Y0065961D03*
X0272819Y0082693D03*
X0272819Y0089583D03*
X0262976Y0105331D03*
X0232465Y0129937D03*
X0228528Y0138795D03*
X0213764Y0147654D03*
X0205890Y0157496D03*
X0209827Y0163402D03*
X0220654Y0174228D03*
X0240339Y0198835D03*
X0235417Y0233283D03*
X0275772Y0221472D03*
X0283646Y0152575D03*
X0227543Y0106315D03*
X0217701Y0097457D03*
X0213764Y0116157D03*
X0209827Y0130921D03*
X0190142Y0149622D03*
X0182268Y0133874D03*
X0181283Y0126984D03*
X0174394Y0131906D03*
X0166520Y0150606D03*
X0148803Y0161433D03*
X0140929Y0163402D03*
X0136992Y0174228D03*
X0158646Y0188008D03*
X0166520Y0177181D03*
X0153724Y0218520D03*
X0112386Y0238205D03*
X0101559Y0271669D03*
X0077937Y0267732D03*
X0077937Y0259858D03*
X0077937Y0238205D03*
X0053331Y0242142D03*
X0051362Y0259858D03*
X0054315Y0271669D03*
X0047425Y0286433D03*
X0077937Y0286433D03*
X0031677Y0233283D03*
X0012976Y0236236D03*
X0052346Y0196866D03*
X0054315Y0170291D03*
X0042504Y0171276D03*
X0042504Y0147654D03*
X0058252Y0142732D03*
X0067110Y0131906D03*
X0086795Y0134858D03*
X0102543Y0141748D03*
X0106480Y0147654D03*
X0118291Y0135843D03*
X0138961Y0128953D03*
X0144866Y0132890D03*
X0127150Y0105331D03*
X0127150Y0095488D03*
X0119276Y0089583D03*
X0110417Y0085646D03*
X0098606Y0085646D03*
X0089748Y0089583D03*
X0098606Y0099425D03*
X0088764Y0106315D03*
X0052346Y0106315D03*
X0049394Y0089583D03*
X0036598Y0082693D03*
X0053331Y0072850D03*
X0037583Y0060055D03*
X0048409Y0050213D03*
X0043488Y0045291D03*
X0055299Y0039386D03*
X0062189Y0030528D03*
X0066126Y0036433D03*
X0073016Y0020685D03*
X0088764Y0040370D03*
X0080890Y0055134D03*
X0071047Y0055134D03*
X0095654Y0020685D03*
X0107465Y0020685D03*
X0118291Y0035449D03*
X0118291Y0042339D03*
X0125181Y0024622D03*
X0141913Y0033480D03*
X0151756Y0048244D03*
X0159630Y0050213D03*
X0159630Y0043323D03*
X0167504Y0039386D03*
X0178331Y0031512D03*
X0163567Y0025606D03*
X0175378Y0052181D03*
X0187189Y0056118D03*
X0175378Y0063992D03*
X0183252Y0078756D03*
X0170457Y0081709D03*
X0174394Y0105331D03*
X0197031Y0105331D03*
X0197031Y0095488D03*
X0140929Y0099425D03*
X0127150Y0074819D03*
X0118291Y0066945D03*
X0106480Y0067929D03*
X0107465Y0060055D03*
X0114354Y0170291D03*
X0290535Y0040370D03*
D18*
X0252150Y0040370D01*
X0247228Y0035449D01*
X0171441Y0035449D01*
X0167504Y0039386D01*
X0161598Y0039386D02*
X0174394Y0052181D01*
X0175378Y0052181D01*
X0165535Y0056118D02*
X0187189Y0056118D01*
X0192110Y0060055D02*
X0192150Y0060606D01*
X0192110Y0060055D02*
X0163567Y0060055D01*
X0151756Y0048244D01*
X0149787Y0043323D02*
X0159630Y0043323D01*
X0161598Y0039386D02*
X0147819Y0039386D01*
X0141913Y0033480D01*
X0136992Y0035449D02*
X0118291Y0035449D01*
X0118291Y0042339D02*
X0091717Y0042339D01*
X0089748Y0040370D01*
X0088764Y0040370D01*
X0056283Y0040370D01*
X0055299Y0039386D01*
X0062189Y0030528D02*
X0068094Y0024622D01*
X0125181Y0024622D01*
X0127150Y0028559D02*
X0130102Y0025606D01*
X0157661Y0025606D01*
X0163567Y0031512D01*
X0178331Y0031512D01*
X0192110Y0020685D02*
X0192150Y0020606D01*
X0192110Y0020685D02*
X0149787Y0020685D01*
X0144866Y0015764D01*
X0112386Y0015764D01*
X0107465Y0020685D01*
X0105496Y0010843D02*
X0132071Y0010843D01*
X0132150Y0010606D01*
X0127150Y0028559D02*
X0074000Y0028559D01*
X0066126Y0036433D01*
X0058252Y0067929D02*
X0106480Y0067929D01*
X0107465Y0060055D02*
X0113370Y0060055D01*
X0132071Y0041354D01*
X0132150Y0040606D01*
X0136992Y0035449D02*
X0136992Y0055134D01*
X0141913Y0060055D01*
X0142150Y0060606D01*
X0142150Y0050606D02*
X0142898Y0050213D01*
X0149787Y0043323D01*
X0159630Y0050213D02*
X0165535Y0056118D01*
X0163567Y0064976D02*
X0157661Y0064976D01*
X0152740Y0069898D01*
X0152150Y0070606D01*
X0147819Y0075803D02*
X0164551Y0075803D01*
X0170457Y0081709D01*
X0174394Y0085646D02*
X0110417Y0085646D01*
X0119276Y0089583D02*
X0131087Y0089583D01*
X0132071Y0090567D01*
X0132150Y0090606D01*
X0127150Y0095488D02*
X0197031Y0095488D01*
X0199000Y0091551D02*
X0193094Y0091551D01*
X0192150Y0090606D01*
X0190142Y0085646D02*
X0268882Y0085646D01*
X0272819Y0089583D01*
X0272819Y0082693D02*
X0238370Y0082693D01*
X0227543Y0071866D01*
X0223606Y0071866D02*
X0223606Y0063008D01*
X0275772Y0063008D01*
X0277740Y0061039D01*
X0294472Y0061039D01*
X0297425Y0063992D01*
X0297425Y0085646D01*
X0301362Y0085646D01*
X0302268Y0086276D01*
X0307268Y0093520D02*
X0200969Y0093520D01*
X0199000Y0091551D01*
X0199000Y0101394D02*
X0193094Y0101394D01*
X0192150Y0100606D01*
X0190142Y0105331D02*
X0197031Y0105331D01*
X0199000Y0101394D02*
X0213764Y0116157D01*
X0223606Y0117142D02*
X0209827Y0130921D01*
X0208843Y0143717D02*
X0291520Y0143717D01*
X0292268Y0143638D01*
X0292268Y0153638D02*
X0291520Y0154543D01*
X0291520Y0194898D01*
X0234433Y0194898D01*
X0226323Y0203008D01*
X0220654Y0174228D02*
X0216717Y0170291D01*
X0136992Y0170291D01*
X0133055Y0166354D01*
X0112386Y0166354D01*
X0107465Y0171276D01*
X0055299Y0171276D01*
X0054315Y0170291D01*
X0042504Y0171276D02*
X0074984Y0203756D01*
X0099591Y0203756D01*
X0099984Y0204268D01*
X0092701Y0218520D02*
X0153724Y0218520D01*
X0149984Y0194268D02*
X0150772Y0193913D01*
X0175378Y0193913D01*
X0176323Y0193008D01*
X0176362Y0192929D01*
X0186205Y0192929D01*
X0186323Y0193008D01*
X0181283Y0188008D02*
X0186205Y0183087D01*
X0186323Y0183008D01*
X0181283Y0188008D02*
X0158646Y0188008D01*
X0159630Y0184071D02*
X0150772Y0184071D01*
X0149984Y0184268D01*
X0159630Y0184071D02*
X0166520Y0177181D01*
X0168488Y0173244D02*
X0175378Y0180134D01*
X0175378Y0182102D01*
X0176323Y0183008D01*
X0168488Y0173244D02*
X0137976Y0173244D01*
X0136992Y0174228D01*
X0138961Y0167339D02*
X0214748Y0167339D01*
X0233449Y0148638D01*
X0304315Y0148638D01*
X0307268Y0145685D01*
X0307268Y0093520D01*
X0296441Y0127969D02*
X0267898Y0127969D01*
X0267386Y0127654D01*
X0266913Y0126984D01*
X0260024Y0120094D01*
X0230496Y0120094D01*
X0223606Y0126984D01*
X0222661Y0127260D01*
X0227543Y0134858D02*
X0197031Y0134858D01*
X0193094Y0130921D01*
X0192150Y0130606D01*
X0187189Y0138795D02*
X0187189Y0145685D01*
X0206874Y0145685D01*
X0208843Y0143717D01*
X0209827Y0147654D02*
X0213764Y0147654D01*
X0209827Y0147654D02*
X0202937Y0154543D01*
X0049394Y0154543D01*
X0042504Y0147654D01*
X0032661Y0138795D02*
X0027740Y0133874D01*
X0026992Y0133087D01*
X0024787Y0127969D02*
X0021835Y0130921D01*
X0021835Y0159465D01*
X0131087Y0159465D01*
X0138961Y0167339D01*
X0140929Y0163402D02*
X0146835Y0157496D01*
X0205890Y0157496D01*
X0207858Y0161433D02*
X0148803Y0161433D01*
X0135024Y0147654D02*
X0106480Y0147654D01*
X0102543Y0151591D02*
X0165535Y0151591D01*
X0166520Y0150606D01*
X0177346Y0149622D02*
X0190142Y0149622D01*
X0192150Y0140606D02*
X0193094Y0139780D01*
X0227543Y0139780D01*
X0228528Y0138795D01*
X0227543Y0134858D02*
X0232465Y0129937D01*
X0223606Y0117142D02*
X0251165Y0117142D01*
X0262976Y0105331D01*
X0227543Y0106315D02*
X0218685Y0097457D01*
X0217701Y0097457D01*
X0219669Y0075803D02*
X0223606Y0071866D01*
X0219669Y0075803D02*
X0187189Y0075803D01*
X0175378Y0063992D01*
X0174394Y0075803D02*
X0163567Y0064976D01*
X0174394Y0075803D02*
X0174394Y0085646D01*
X0183252Y0078756D02*
X0190142Y0085646D01*
X0193094Y0070882D02*
X0192150Y0070606D01*
X0193094Y0070882D02*
X0216717Y0070882D01*
X0217701Y0071866D01*
X0204906Y0060055D02*
X0236402Y0060055D01*
X0241323Y0055134D01*
X0212780Y0056118D02*
X0207858Y0051197D01*
X0193094Y0051197D01*
X0192150Y0050606D01*
X0204906Y0031512D02*
X0199000Y0025606D01*
X0163567Y0025606D01*
X0132150Y0070606D02*
X0132071Y0070882D01*
X0119276Y0070882D01*
X0090732Y0099425D01*
X0033646Y0099425D01*
X0011992Y0121079D01*
X0011992Y0229346D01*
X0261992Y0229346D01*
X0301362Y0189976D01*
X0301362Y0154543D01*
X0302268Y0153638D01*
X0302268Y0133638D02*
X0301362Y0132890D01*
X0296441Y0127969D01*
X0209827Y0163402D02*
X0207858Y0161433D01*
X0187189Y0138795D02*
X0182268Y0133874D01*
X0181283Y0126984D02*
X0168488Y0126984D01*
X0162583Y0121079D01*
X0162150Y0120606D01*
X0162150Y0110606D02*
X0162583Y0110252D01*
X0163567Y0109268D01*
X0186205Y0109268D01*
X0190142Y0105331D01*
X0174394Y0105331D02*
X0146835Y0105331D01*
X0140929Y0099425D01*
X0134039Y0105331D02*
X0127150Y0105331D01*
X0131087Y0109268D02*
X0132071Y0110252D01*
X0132150Y0110606D01*
X0131087Y0109268D02*
X0097622Y0109268D01*
X0090732Y0102378D01*
X0038567Y0102378D01*
X0017898Y0123047D01*
X0016992Y0123087D01*
X0024787Y0127969D02*
X0032661Y0127969D01*
X0032661Y0122063D01*
X0039551Y0115173D01*
X0043488Y0115173D01*
X0052346Y0106315D01*
X0027740Y0078756D02*
X0026992Y0078402D01*
X0027740Y0078756D02*
X0091717Y0078756D01*
X0098606Y0085646D01*
X0098606Y0099425D02*
X0131087Y0099425D01*
X0132071Y0100409D01*
X0132150Y0100606D01*
X0134039Y0105331D02*
X0136992Y0108283D01*
X0149787Y0108283D01*
X0151756Y0110252D01*
X0152150Y0110606D01*
X0152150Y0120606D02*
X0151756Y0121079D01*
X0143882Y0128953D01*
X0138961Y0128953D01*
X0144866Y0132890D02*
X0141913Y0135843D01*
X0118291Y0135843D01*
X0121244Y0131906D02*
X0097622Y0131906D01*
X0090732Y0138795D01*
X0032661Y0138795D01*
X0053331Y0072850D02*
X0058252Y0067929D01*
X0029709Y0063992D02*
X0028724Y0063008D01*
X0022819Y0063008D01*
X0017898Y0067929D01*
X0016992Y0068402D01*
X0029709Y0063992D02*
X0115339Y0063992D01*
X0118291Y0066945D01*
X0127150Y0074819D02*
X0128134Y0075803D01*
X0147819Y0075803D01*
X0151756Y0079740D01*
X0152150Y0080606D01*
X0132150Y0120606D02*
X0132071Y0121079D01*
X0121244Y0131906D01*
X0135024Y0147654D02*
X0141913Y0140764D01*
X0142150Y0140606D01*
X0152150Y0130606D02*
X0152740Y0130921D01*
X0157661Y0135843D01*
X0174394Y0135843D01*
X0177346Y0138795D01*
X0177346Y0149622D01*
X0174394Y0131906D02*
X0163567Y0131906D01*
X0162583Y0130921D01*
X0162150Y0130606D01*
X0114354Y0170291D02*
X0128134Y0184071D01*
X0129118Y0184071D01*
X0129984Y0184268D01*
X0102543Y0151591D02*
X0102543Y0141748D01*
X0092701Y0218520D02*
X0086795Y0224425D01*
X0086323Y0224504D01*
X0077937Y0238205D02*
X0057268Y0238205D01*
X0053331Y0242142D01*
X0051362Y0259858D02*
X0077937Y0259858D01*
X0077937Y0267732D02*
X0107465Y0238205D01*
X0112386Y0238205D01*
X0114354Y0259858D02*
X0102543Y0271669D01*
X0101559Y0271669D01*
X0054315Y0271669D01*
X0059236Y0282496D02*
X0233449Y0282496D01*
X0235417Y0284465D01*
X0235890Y0284976D01*
X0237386Y0259858D02*
X0114354Y0259858D01*
X0077937Y0286433D02*
X0047425Y0286433D01*
X0059236Y0282496D02*
X0012976Y0236236D01*
X0176323Y0203008D02*
X0176362Y0202772D01*
X0186205Y0202772D01*
X0186323Y0203008D01*
X0237386Y0259858D02*
X0275772Y0221472D01*
X0095654Y0020685D02*
X0105496Y0010843D01*
M02*
