%
M48
M72
T01C0.0240
T02C0.0315
T03C0.0380
T04C0.0400
T05C0.0440
T06C0.1102
T07C0.1300
%
T01
X4447Y4529
X4939Y5317
X6120Y3250
X6809Y3742
X7498Y2561
X9664Y5218
X11534Y5809
X14880Y5021
X15274Y5612
X17046Y4628
X17833Y4628
X18325Y7580
X17046Y9155
X19703Y9549
X21672Y11616
X21573Y12600
X22951Y13880
X23345Y13092
X20786Y14372
X19605Y15257
X19113Y15651
X17439Y13092
X17538Y12502
X18325Y12698
X22557Y8368
X22557Y7187
X21573Y7187
X23640Y4332
X24034Y3840
X24821Y4529
X24723Y5513
X25510Y5513
X25904Y5021
X26298Y7187
X20786Y3939
X12715Y1576
X7105Y5513
X5333Y7482
X5333Y8072
X5038Y9746
X3561Y8860
X8876Y10631
X9172Y9746
X10156Y15257
X12518Y16340
X13207Y17620
X14683Y17324
X15766Y17324
X8384Y25691
X7794Y25986
X7794Y25395
X6613Y23427
X5431Y24509
X4841Y24509
X4152Y25691
X5136Y25986
X5136Y27167
X4743Y28643
X7794Y28643
X3758Y19687
X5825Y18407
X5628Y15257
T02
X8632Y22450
X9420Y22450
X10207Y22450
X10994Y22450
X11782Y22450
X12569Y22450
X13357Y22450
X14144Y22450
X14931Y22450
X15719Y22450
X15719Y31112
X14931Y31112
X14144Y31112
X13357Y31112
X12569Y31112
X11782Y31112
X10994Y31112
X10207Y31112
X9420Y31112
X8632Y31112
T03
X13215Y14061
X14215Y14061
X15215Y14061
X16215Y14061
X16215Y13061
X15215Y13061
X15215Y12061
X16215Y12061
X16215Y11061
X15215Y11061
X15215Y10061
X16215Y10061
X16215Y9061
X15215Y9061
X15215Y8061
X16215Y8061
X16215Y7061
X15215Y7061
X14215Y6061
X13215Y6061
X13215Y7061
X13215Y8061
X13215Y9061
X13215Y10061
X13215Y11061
X13215Y12061
X13215Y13061
X17215Y14061
X18215Y14061
X19215Y14061
X19215Y13061
X19215Y12061
X19215Y11061
X19215Y10061
X19215Y9061
X19215Y8061
X19215Y7061
X19215Y6061
X19215Y5061
X19215Y4061
X19215Y3061
X19215Y2061
X19215Y1061
X14215Y2061
X13215Y2061
X13215Y3061
X13215Y4061
X13215Y5061
X14215Y5061
X14215Y4061
X13215Y1061
T04
X2699Y6840
X1699Y6840
X1699Y7840
X1699Y8840
X2699Y8840
X2699Y7840
X2699Y12309
X1699Y12309
X1699Y13309
X1699Y14309
X2699Y14309
X2699Y13309
X1987Y18671
X1987Y19671
X9998Y19427
X9998Y20427
X10998Y20427
X10998Y19427
X10998Y18427
X9998Y18427
X11998Y18427
X11998Y19427
X11998Y20427
X12998Y20427
X12998Y19427
X12998Y18427
X13998Y18427
X13998Y19427
X13998Y20427
X14998Y20427
X14998Y19427
X14998Y18427
X17632Y18301
X17632Y19301
X17632Y20301
X18632Y20301
X18632Y19301
X18632Y18301
X19632Y18301
X19632Y19301
X19632Y20301
X20632Y20301
X20632Y19301
X20632Y18301
X21632Y18301
X21632Y19301
X21632Y20301
X22632Y20301
X22632Y19301
X22632Y18301
X29227Y15364
X29227Y14364
X29227Y13364
X30227Y13364
X30227Y14364
X30227Y15364
X30227Y8628
X30227Y7628
X30227Y6628
X29227Y6628
X29227Y7628
X29227Y8628
T05
X1400Y1033
X2967Y954
X2967Y4954
X1400Y5033
X7699Y4876
X9030Y4797
X9030Y797
X7699Y876
X7542Y12490
X6274Y12569
X4786Y12647
X6274Y16569
X7542Y16490
X9117Y16608
X9117Y12608
X4786Y16647
X22266Y16726
X23841Y16608
X25164Y16647
X26739Y16765
X26739Y12765
X25164Y12647
X23841Y12608
X22266Y12726
X21967Y4876
X23195Y4915
X23195Y915
X21967Y876
X29203Y915
X30384Y1033
X29203Y4915
X30384Y5033
X23589Y26498
X23589Y27498
X23589Y28498
T06
X26199Y31596
X5727Y31596
X5333Y1675
X26593Y1675
T07
X29489Y27498
M30
