G75*
%MOIN*%
%OFA0B0*%
%FSLAX25Y25*%
%IPPOS*%
%LPD*%
%AMOC8*
5,1,8,0,0,1.08239X$1,22.5*
%
%ADD10C,0.00200*%
%ADD11C,0.00500*%
%ADD12C,0.00400*%
%ADD13C,0.00600*%
%ADD14R,0.10000X0.02000*%
%ADD15R,0.03000X0.07500*%
%ADD16R,0.02500X0.03000*%
%ADD17R,0.11000X0.05000*%
%ADD18C,0.00700*%
%ADD19C,0.00800*%
%ADD20C,0.00100*%
%ADD21R,0.03000X0.01800*%
%ADD22C,0.01000*%
D10*
X0031711Y0064092D02*
X0033179Y0064092D01*
X0033546Y0064459D01*
X0033546Y0065193D01*
X0033179Y0065560D01*
X0032445Y0065560D01*
X0032445Y0064826D01*
X0031711Y0064092D02*
X0031344Y0064459D01*
X0031344Y0065193D01*
X0031711Y0065560D01*
X0031344Y0066302D02*
X0033546Y0067770D01*
X0031344Y0067770D01*
X0031344Y0068512D02*
X0031344Y0069613D01*
X0031711Y0069980D01*
X0033179Y0069980D01*
X0033546Y0069613D01*
X0033546Y0068512D01*
X0031344Y0068512D01*
X0031344Y0066302D02*
X0033546Y0066302D01*
X0035648Y0119210D02*
X0037116Y0119210D01*
X0037483Y0119577D01*
X0037483Y0120311D01*
X0037116Y0120678D01*
X0036382Y0120678D01*
X0036382Y0119944D01*
X0035648Y0119210D02*
X0035281Y0119577D01*
X0035281Y0120311D01*
X0035648Y0120678D01*
X0035281Y0121420D02*
X0037483Y0122888D01*
X0035281Y0122888D01*
X0035281Y0123630D02*
X0035281Y0124731D01*
X0035648Y0125098D01*
X0037116Y0125098D01*
X0037483Y0124731D01*
X0037483Y0123630D01*
X0035281Y0123630D01*
X0035281Y0121420D02*
X0037483Y0121420D01*
X0085294Y0182202D02*
X0084927Y0182569D01*
X0085294Y0182202D02*
X0086028Y0182202D01*
X0086395Y0182569D01*
X0086395Y0182936D01*
X0086028Y0183303D01*
X0085294Y0183303D01*
X0084927Y0183670D01*
X0084927Y0184037D01*
X0085294Y0184404D01*
X0086028Y0184404D01*
X0086395Y0184037D01*
X0087137Y0183670D02*
X0087504Y0183670D01*
X0087504Y0182202D01*
X0087137Y0182202D02*
X0087871Y0182202D01*
X0088610Y0182569D02*
X0088977Y0182202D01*
X0090078Y0182202D01*
X0090078Y0181835D02*
X0090078Y0183670D01*
X0088977Y0183670D01*
X0088610Y0183303D01*
X0088610Y0182569D01*
X0089344Y0181468D02*
X0089711Y0181468D01*
X0090078Y0181835D01*
X0090820Y0182202D02*
X0090820Y0183670D01*
X0091921Y0183670D01*
X0092288Y0183303D01*
X0092288Y0182202D01*
X0093030Y0182569D02*
X0093397Y0182936D01*
X0094498Y0182936D01*
X0094498Y0183303D02*
X0094498Y0182202D01*
X0093397Y0182202D01*
X0093030Y0182569D01*
X0093397Y0183670D02*
X0094131Y0183670D01*
X0094498Y0183303D01*
X0095240Y0182202D02*
X0095973Y0182202D01*
X0095607Y0182202D02*
X0095607Y0184404D01*
X0095240Y0184404D01*
X0087504Y0184404D02*
X0087504Y0184771D01*
X0087137Y0194013D02*
X0087137Y0196215D01*
X0088605Y0194013D01*
X0088605Y0196215D01*
X0089347Y0196215D02*
X0090447Y0196215D01*
X0090814Y0195848D01*
X0090814Y0194380D01*
X0090447Y0194013D01*
X0089347Y0194013D01*
X0089347Y0196215D01*
X0086395Y0195848D02*
X0086028Y0196215D01*
X0085294Y0196215D01*
X0084927Y0195848D01*
X0084927Y0194380D01*
X0085294Y0194013D01*
X0086028Y0194013D01*
X0086395Y0194380D01*
X0086395Y0195114D01*
X0085661Y0195114D01*
X0089231Y0201887D02*
X0088864Y0202254D01*
X0089231Y0201887D02*
X0089965Y0201887D01*
X0090332Y0202254D01*
X0090332Y0202988D01*
X0089965Y0203355D01*
X0089598Y0203355D01*
X0088864Y0202988D01*
X0088864Y0204089D01*
X0090332Y0204089D01*
X0091074Y0204089D02*
X0091074Y0202621D01*
X0091808Y0201887D01*
X0092542Y0202621D01*
X0092542Y0204089D01*
X0163667Y0191911D02*
X0163667Y0190443D01*
X0164034Y0190076D01*
X0164768Y0190076D01*
X0165135Y0190443D01*
X0165135Y0191177D01*
X0164401Y0191177D01*
X0165135Y0191911D02*
X0164768Y0192278D01*
X0164034Y0192278D01*
X0163667Y0191911D01*
X0165877Y0192278D02*
X0167345Y0190076D01*
X0167345Y0192278D01*
X0168087Y0192278D02*
X0169188Y0192278D01*
X0169555Y0191911D01*
X0169555Y0190443D01*
X0169188Y0190076D01*
X0168087Y0190076D01*
X0168087Y0192278D01*
X0165877Y0192278D02*
X0165877Y0190076D01*
X0166244Y0184771D02*
X0166244Y0184404D01*
X0166244Y0183670D02*
X0166244Y0182202D01*
X0165877Y0182202D02*
X0166611Y0182202D01*
X0167350Y0182569D02*
X0167717Y0182202D01*
X0168818Y0182202D01*
X0168818Y0181835D02*
X0168818Y0183670D01*
X0167717Y0183670D01*
X0167350Y0183303D01*
X0167350Y0182569D01*
X0168084Y0181468D02*
X0168451Y0181468D01*
X0168818Y0181835D01*
X0169560Y0182202D02*
X0169560Y0183670D01*
X0170661Y0183670D01*
X0171028Y0183303D01*
X0171028Y0182202D01*
X0171770Y0182569D02*
X0172137Y0182936D01*
X0173238Y0182936D01*
X0173238Y0183303D02*
X0173238Y0182202D01*
X0172137Y0182202D01*
X0171770Y0182569D01*
X0172137Y0183670D02*
X0172871Y0183670D01*
X0173238Y0183303D01*
X0173980Y0182202D02*
X0174714Y0182202D01*
X0174347Y0182202D02*
X0174347Y0184404D01*
X0173980Y0184404D01*
X0166244Y0183670D02*
X0165877Y0183670D01*
X0165135Y0184037D02*
X0164768Y0184404D01*
X0164034Y0184404D01*
X0163667Y0184037D01*
X0163667Y0183670D01*
X0164034Y0183303D01*
X0164768Y0183303D01*
X0165135Y0182936D01*
X0165135Y0182569D01*
X0164768Y0182202D01*
X0164034Y0182202D01*
X0163667Y0182569D01*
X0167971Y0205824D02*
X0167604Y0206191D01*
X0167971Y0205824D02*
X0168705Y0205824D01*
X0169072Y0206191D01*
X0169072Y0206925D01*
X0168705Y0207292D01*
X0168338Y0207292D01*
X0167604Y0206925D01*
X0167604Y0208026D01*
X0169072Y0208026D01*
X0169814Y0208026D02*
X0169814Y0206558D01*
X0170548Y0205824D01*
X0171282Y0206558D01*
X0171282Y0208026D01*
X0248390Y0256976D02*
X0280890Y0256976D01*
X0280890Y0292976D01*
X0248390Y0292976D01*
X0248390Y0256976D01*
X0283679Y0156594D02*
X0283312Y0156227D01*
X0283312Y0155126D01*
X0285514Y0155126D01*
X0285514Y0156227D01*
X0285147Y0156594D01*
X0283679Y0156594D01*
X0283312Y0154384D02*
X0285514Y0154384D01*
X0283312Y0152916D01*
X0285514Y0152916D01*
X0285147Y0152174D02*
X0284413Y0152174D01*
X0284413Y0151440D01*
X0283679Y0150706D02*
X0285147Y0150706D01*
X0285514Y0151073D01*
X0285514Y0151807D01*
X0285147Y0152174D01*
X0283679Y0152174D02*
X0283312Y0151807D01*
X0283312Y0151073D01*
X0283679Y0150706D01*
X0283679Y0089665D02*
X0283312Y0089298D01*
X0283312Y0088197D01*
X0285514Y0088197D01*
X0285514Y0089298D01*
X0285147Y0089665D01*
X0283679Y0089665D01*
X0283312Y0087455D02*
X0285514Y0087455D01*
X0283312Y0085987D01*
X0285514Y0085987D01*
X0285147Y0085245D02*
X0284413Y0085245D01*
X0284413Y0084511D01*
X0283679Y0083777D02*
X0285147Y0083777D01*
X0285514Y0084144D01*
X0285514Y0084878D01*
X0285147Y0085245D01*
X0283679Y0085245D02*
X0283312Y0084878D01*
X0283312Y0084144D01*
X0283679Y0083777D01*
D11*
X0310014Y0084570D02*
X0310014Y0082318D01*
X0314518Y0082318D01*
X0313016Y0082318D02*
X0313016Y0084570D01*
X0312266Y0085320D01*
X0310765Y0085320D01*
X0310014Y0084570D01*
X0313016Y0083819D02*
X0314518Y0085320D01*
X0312266Y0086922D02*
X0310014Y0089174D01*
X0314518Y0089174D01*
X0312266Y0089924D02*
X0312266Y0086922D01*
X0313767Y0080716D02*
X0310765Y0080716D01*
X0310014Y0079966D01*
X0310014Y0078464D01*
X0310765Y0077714D01*
X0313767Y0077714D01*
X0314518Y0078464D01*
X0314518Y0079966D01*
X0313767Y0080716D01*
X0310014Y0076112D02*
X0310014Y0073110D01*
X0310014Y0074611D02*
X0314518Y0074611D01*
X0313767Y0071508D02*
X0310765Y0071508D01*
X0310014Y0070758D01*
X0310014Y0069257D01*
X0310765Y0068506D01*
X0313767Y0068506D01*
X0314518Y0069257D01*
X0314518Y0070758D01*
X0313767Y0071508D01*
X0314518Y0066905D02*
X0310014Y0066905D01*
X0311515Y0065403D01*
X0310014Y0063902D01*
X0314518Y0063902D01*
X0314342Y0036979D02*
X0315093Y0036229D01*
X0315093Y0034727D01*
X0314342Y0033977D01*
X0315093Y0032375D02*
X0315093Y0029373D01*
X0315093Y0030874D02*
X0310589Y0030874D01*
X0312090Y0029373D01*
X0311339Y0027771D02*
X0314342Y0027771D01*
X0315093Y0027021D01*
X0315093Y0024769D01*
X0310589Y0024769D01*
X0310589Y0027021D01*
X0311339Y0027771D01*
X0311339Y0033977D02*
X0310589Y0034727D01*
X0310589Y0036229D01*
X0311339Y0036979D01*
X0312090Y0036979D01*
X0312841Y0036229D01*
X0313591Y0036979D01*
X0314342Y0036979D01*
X0312841Y0036229D02*
X0312841Y0035478D01*
X0303281Y0035048D02*
X0298778Y0035048D01*
X0301030Y0032796D01*
X0301030Y0035798D01*
X0303281Y0031194D02*
X0303281Y0028192D01*
X0303281Y0029693D02*
X0298778Y0029693D01*
X0300279Y0028192D01*
X0299528Y0026590D02*
X0298778Y0025840D01*
X0298778Y0023588D01*
X0303281Y0023588D01*
X0303281Y0025840D01*
X0302531Y0026590D01*
X0299528Y0026590D01*
X0230919Y0025446D02*
X0230919Y0023194D01*
X0226415Y0023194D01*
X0226415Y0025446D01*
X0227166Y0026197D01*
X0230169Y0026197D01*
X0230919Y0025446D01*
X0230919Y0027798D02*
X0230919Y0030801D01*
X0230919Y0029299D02*
X0226415Y0029299D01*
X0227917Y0027798D01*
X0225203Y0027505D02*
X0220699Y0027505D01*
X0222200Y0026004D01*
X0221450Y0024402D02*
X0220699Y0023652D01*
X0220699Y0021400D01*
X0225203Y0021400D01*
X0225203Y0023652D01*
X0224452Y0024402D01*
X0221450Y0024402D01*
X0225203Y0026004D02*
X0225203Y0029006D01*
X0224452Y0030607D02*
X0225203Y0031358D01*
X0225203Y0032859D01*
X0224452Y0033610D01*
X0222951Y0033610D01*
X0222200Y0032859D01*
X0222200Y0032109D01*
X0222951Y0030607D01*
X0220699Y0030607D01*
X0220699Y0033610D01*
X0226415Y0035405D02*
X0227166Y0033903D01*
X0228667Y0032402D01*
X0228667Y0034654D01*
X0229418Y0035405D01*
X0230169Y0035405D01*
X0230919Y0034654D01*
X0230919Y0033153D01*
X0230169Y0032402D01*
X0228667Y0032402D01*
X0310014Y0131264D02*
X0311515Y0132765D01*
X0310014Y0134267D01*
X0314518Y0134267D01*
X0313767Y0135868D02*
X0314518Y0136619D01*
X0314518Y0138120D01*
X0313767Y0138871D01*
X0310765Y0138871D01*
X0310014Y0138120D01*
X0310014Y0136619D01*
X0310765Y0135868D01*
X0313767Y0135868D01*
X0314518Y0131264D02*
X0310014Y0131264D01*
X0310014Y0140472D02*
X0310014Y0143475D01*
X0310014Y0141973D02*
X0314518Y0141973D01*
X0313767Y0145076D02*
X0310765Y0145076D01*
X0310014Y0145827D01*
X0310014Y0147328D01*
X0310765Y0148079D01*
X0313767Y0148079D01*
X0314518Y0147328D01*
X0314518Y0145827D01*
X0313767Y0145076D01*
X0313016Y0149680D02*
X0313016Y0151932D01*
X0312266Y0152682D01*
X0310765Y0152682D01*
X0310014Y0151932D01*
X0310014Y0149680D01*
X0314518Y0149680D01*
X0313016Y0151181D02*
X0314518Y0152682D01*
X0313767Y0154284D02*
X0314518Y0155034D01*
X0314518Y0156536D01*
X0313767Y0157286D01*
X0313016Y0157286D01*
X0312266Y0156536D01*
X0312266Y0155785D01*
X0312266Y0156536D02*
X0311515Y0157286D01*
X0310765Y0157286D01*
X0310014Y0156536D01*
X0310014Y0155034D01*
X0310765Y0154284D01*
X0260636Y0152114D02*
X0260636Y0149111D01*
X0257633Y0152114D01*
X0256883Y0152114D01*
X0256132Y0151363D01*
X0256132Y0149862D01*
X0256883Y0149111D01*
X0256132Y0146009D02*
X0260636Y0146009D01*
X0260636Y0147510D02*
X0260636Y0144507D01*
X0259885Y0142906D02*
X0256883Y0142906D01*
X0256132Y0142155D01*
X0256132Y0139904D01*
X0260636Y0139904D01*
X0260636Y0142155D01*
X0259885Y0142906D01*
X0257633Y0144507D02*
X0256132Y0146009D01*
X0249659Y0146622D02*
X0245156Y0146622D01*
X0246657Y0145121D01*
X0245906Y0143520D02*
X0245156Y0142769D01*
X0245156Y0140517D01*
X0249659Y0140517D01*
X0249659Y0142769D01*
X0248909Y0143520D01*
X0245906Y0143520D01*
X0244888Y0143326D02*
X0244888Y0146329D01*
X0244888Y0144828D02*
X0240384Y0144828D01*
X0241885Y0143326D01*
X0241135Y0141725D02*
X0240384Y0140974D01*
X0240384Y0138722D01*
X0244888Y0138722D01*
X0244888Y0140974D01*
X0244137Y0141725D01*
X0241135Y0141725D01*
X0241885Y0147930D02*
X0240384Y0149432D01*
X0244888Y0149432D01*
X0245906Y0149725D02*
X0245156Y0150475D01*
X0245156Y0151977D01*
X0245906Y0152727D01*
X0248909Y0149725D01*
X0249659Y0150475D01*
X0249659Y0151977D01*
X0248909Y0152727D01*
X0245906Y0152727D01*
X0244888Y0150933D02*
X0244888Y0147930D01*
X0245906Y0149725D02*
X0248909Y0149725D01*
X0249659Y0148123D02*
X0249659Y0145121D01*
X0233911Y0146302D02*
X0233911Y0148554D01*
X0233161Y0149305D01*
X0230158Y0149305D01*
X0229408Y0148554D01*
X0229408Y0146302D01*
X0233911Y0146302D01*
X0233161Y0150906D02*
X0233911Y0151657D01*
X0233911Y0153158D01*
X0233161Y0153908D01*
X0230158Y0153908D01*
X0229408Y0153158D01*
X0229408Y0151657D01*
X0230158Y0150906D01*
X0230909Y0150906D01*
X0231659Y0151657D01*
X0231659Y0153908D01*
X0229221Y0170758D02*
X0227720Y0170758D01*
X0226969Y0171509D01*
X0228470Y0173010D02*
X0229221Y0173010D01*
X0229971Y0172259D01*
X0229971Y0171509D01*
X0229221Y0170758D01*
X0229221Y0173010D02*
X0229971Y0173760D01*
X0229971Y0174511D01*
X0229221Y0175262D01*
X0227720Y0175262D01*
X0226969Y0174511D01*
X0225368Y0174511D02*
X0225368Y0173010D01*
X0224617Y0172259D01*
X0222365Y0172259D01*
X0222365Y0170758D02*
X0222365Y0175262D01*
X0224617Y0175262D01*
X0225368Y0174511D01*
X0220764Y0175262D02*
X0219262Y0175262D01*
X0220013Y0175262D02*
X0220013Y0171509D01*
X0219262Y0170758D01*
X0218512Y0170758D01*
X0217761Y0171509D01*
X0247763Y0198100D02*
X0247763Y0201153D01*
X0248780Y0202171D01*
X0250816Y0202171D01*
X0251833Y0201153D01*
X0251833Y0198100D01*
X0253868Y0198100D02*
X0247763Y0198100D01*
X0251833Y0200135D02*
X0253868Y0202171D01*
X0252851Y0204178D02*
X0250816Y0204178D01*
X0249798Y0205195D01*
X0249798Y0207230D01*
X0250816Y0208248D01*
X0252851Y0208248D01*
X0253868Y0207230D01*
X0253868Y0205195D01*
X0252851Y0204178D01*
X0253868Y0210255D02*
X0247763Y0210255D01*
X0249798Y0210255D02*
X0249798Y0213307D01*
X0250816Y0214325D01*
X0252851Y0214325D01*
X0253868Y0213307D01*
X0253868Y0210255D01*
X0252851Y0216332D02*
X0250816Y0216332D01*
X0249798Y0217349D01*
X0249798Y0219385D01*
X0250816Y0220402D01*
X0252851Y0220402D01*
X0253868Y0219385D01*
X0253868Y0217349D01*
X0252851Y0216332D01*
X0247763Y0222409D02*
X0247763Y0226479D01*
X0247763Y0224444D02*
X0253868Y0224444D01*
X0253868Y0228486D02*
X0253868Y0230521D01*
X0253868Y0229504D02*
X0249798Y0229504D01*
X0249798Y0228486D01*
X0247763Y0229504D02*
X0246745Y0229504D01*
X0247763Y0232538D02*
X0247763Y0236608D01*
X0247763Y0234573D02*
X0253868Y0234573D01*
X0252851Y0238615D02*
X0250816Y0238615D01*
X0249798Y0239633D01*
X0249798Y0241668D01*
X0250816Y0242685D01*
X0252851Y0242685D01*
X0253868Y0241668D01*
X0253868Y0239633D01*
X0252851Y0238615D01*
X0153633Y0175771D02*
X0152882Y0176522D01*
X0151381Y0176522D01*
X0150630Y0175771D01*
X0149029Y0175771D02*
X0148278Y0176522D01*
X0146026Y0176522D01*
X0146026Y0172018D01*
X0146026Y0173519D02*
X0148278Y0173519D01*
X0149029Y0174270D01*
X0149029Y0175771D01*
X0150630Y0172018D02*
X0153633Y0175020D01*
X0153633Y0175771D01*
X0153633Y0172018D02*
X0150630Y0172018D01*
X0143674Y0172768D02*
X0143674Y0176522D01*
X0142924Y0176522D02*
X0144425Y0176522D01*
X0143674Y0172768D02*
X0142924Y0172018D01*
X0142173Y0172018D01*
X0141422Y0172768D01*
X0084415Y0145185D02*
X0079912Y0145185D01*
X0082163Y0142933D01*
X0082163Y0145935D01*
X0080662Y0141331D02*
X0079912Y0140581D01*
X0079912Y0138329D01*
X0084415Y0138329D01*
X0084415Y0140581D01*
X0083665Y0141331D01*
X0080662Y0141331D01*
X0073990Y0144727D02*
X0073990Y0146979D01*
X0073240Y0147730D01*
X0070237Y0147730D01*
X0069486Y0146979D01*
X0069486Y0144727D01*
X0073990Y0144727D01*
X0073990Y0149331D02*
X0070988Y0152334D01*
X0070237Y0152334D01*
X0069486Y0151583D01*
X0069486Y0150082D01*
X0070237Y0149331D01*
X0073990Y0149331D02*
X0073990Y0152334D01*
X0067917Y0144754D02*
X0068667Y0144003D01*
X0068667Y0142502D01*
X0067917Y0141752D01*
X0067917Y0140150D02*
X0064914Y0140150D01*
X0064163Y0139400D01*
X0064163Y0137148D01*
X0068667Y0137148D01*
X0068667Y0139400D01*
X0067917Y0140150D01*
X0064914Y0141752D02*
X0064163Y0142502D01*
X0064163Y0144003D01*
X0064914Y0144754D01*
X0065665Y0144754D01*
X0066415Y0144003D01*
X0067166Y0144754D01*
X0067917Y0144754D01*
X0066415Y0144003D02*
X0066415Y0143253D01*
X0041108Y0143326D02*
X0041108Y0146329D01*
X0041108Y0144828D02*
X0036604Y0144828D01*
X0038106Y0143326D01*
X0037355Y0141725D02*
X0036604Y0140974D01*
X0036604Y0138722D01*
X0041108Y0138722D01*
X0041108Y0140974D01*
X0040358Y0141725D01*
X0037355Y0141725D01*
X0009242Y0141356D02*
X0009242Y0144359D01*
X0009242Y0142858D02*
X0004738Y0142858D01*
X0006240Y0141356D01*
X0006990Y0139755D02*
X0005489Y0139755D01*
X0004738Y0139004D01*
X0004738Y0136752D01*
X0009242Y0136752D01*
X0007741Y0136752D02*
X0007741Y0139004D01*
X0006990Y0139755D01*
X0007741Y0138254D02*
X0009242Y0139755D01*
X0008491Y0135151D02*
X0005489Y0135151D01*
X0004738Y0134400D01*
X0004738Y0132899D01*
X0005489Y0132148D01*
X0008491Y0132148D01*
X0009242Y0132899D01*
X0009242Y0134400D01*
X0008491Y0135151D01*
X0004738Y0130547D02*
X0004738Y0127544D01*
X0004738Y0129046D02*
X0009242Y0129046D01*
X0008491Y0125943D02*
X0005489Y0125943D01*
X0004738Y0125192D01*
X0004738Y0123691D01*
X0005489Y0122941D01*
X0008491Y0122941D01*
X0009242Y0123691D01*
X0009242Y0125192D01*
X0008491Y0125943D01*
X0009242Y0121339D02*
X0004738Y0121339D01*
X0006240Y0119838D01*
X0004738Y0118337D01*
X0009242Y0118337D01*
X0009242Y0089674D02*
X0009242Y0086671D01*
X0006240Y0089674D01*
X0005489Y0089674D01*
X0004738Y0088923D01*
X0004738Y0087422D01*
X0005489Y0086671D01*
X0005489Y0085070D02*
X0006990Y0085070D01*
X0007741Y0084319D01*
X0007741Y0082067D01*
X0009242Y0082067D02*
X0004738Y0082067D01*
X0004738Y0084319D01*
X0005489Y0085070D01*
X0007741Y0083569D02*
X0009242Y0085070D01*
X0008491Y0080466D02*
X0005489Y0080466D01*
X0004738Y0079715D01*
X0004738Y0078214D01*
X0005489Y0077463D01*
X0008491Y0077463D01*
X0009242Y0078214D01*
X0009242Y0079715D01*
X0008491Y0080466D01*
X0004738Y0075862D02*
X0004738Y0072859D01*
X0004738Y0074361D02*
X0009242Y0074361D01*
X0008491Y0071258D02*
X0005489Y0071258D01*
X0004738Y0070507D01*
X0004738Y0069006D01*
X0005489Y0068255D01*
X0008491Y0068255D01*
X0009242Y0069006D01*
X0009242Y0070507D01*
X0008491Y0071258D01*
X0009242Y0066654D02*
X0004738Y0066654D01*
X0006240Y0065153D01*
X0004738Y0063652D01*
X0009242Y0063652D01*
X0021497Y0036979D02*
X0022247Y0036979D01*
X0022998Y0036229D01*
X0022998Y0034727D01*
X0022247Y0033977D01*
X0021497Y0033977D01*
X0020746Y0034727D01*
X0020746Y0036229D01*
X0021497Y0036979D01*
X0022998Y0036229D02*
X0023749Y0036979D01*
X0024499Y0036979D01*
X0025250Y0036229D01*
X0025250Y0034727D01*
X0024499Y0033977D01*
X0023749Y0033977D01*
X0022998Y0034727D01*
X0021497Y0032375D02*
X0020746Y0031625D01*
X0020746Y0029373D01*
X0025250Y0029373D01*
X0025250Y0031625D01*
X0024499Y0032375D01*
X0021497Y0032375D01*
X0019166Y0029400D02*
X0018415Y0029400D01*
X0018415Y0026397D01*
X0019166Y0024796D02*
X0018415Y0024045D01*
X0018415Y0021793D01*
X0022919Y0021793D01*
X0022919Y0024045D01*
X0022169Y0024796D01*
X0019166Y0024796D01*
X0022169Y0026397D02*
X0022919Y0026397D01*
X0022169Y0026397D02*
X0019166Y0029400D01*
X0083738Y0030050D02*
X0083738Y0027798D01*
X0088242Y0027798D01*
X0088242Y0030050D01*
X0087491Y0030801D01*
X0084489Y0030801D01*
X0083738Y0030050D01*
X0085990Y0032402D02*
X0084489Y0033903D01*
X0083738Y0035405D01*
X0085990Y0034654D02*
X0085990Y0032402D01*
X0087491Y0032402D01*
X0088242Y0033153D01*
X0088242Y0034654D01*
X0087491Y0035405D01*
X0086741Y0035405D01*
X0085990Y0034654D01*
X0097045Y0034617D02*
X0097045Y0031615D01*
X0099297Y0031615D01*
X0098547Y0033116D01*
X0098547Y0033866D01*
X0099297Y0034617D01*
X0100799Y0034617D01*
X0101549Y0033866D01*
X0101549Y0032365D01*
X0100799Y0031615D01*
X0100799Y0030013D02*
X0097796Y0030013D01*
X0097045Y0029263D01*
X0097045Y0027011D01*
X0101549Y0027011D01*
X0101549Y0029263D01*
X0100799Y0030013D01*
X0031366Y0182709D02*
X0031366Y0184209D01*
X0031366Y0191709D02*
X0031366Y0194209D01*
X0031366Y0199209D02*
X0031366Y0201709D01*
X0009866Y0186709D02*
X0008366Y0186709D01*
X0008366Y0187709D01*
X0008366Y0191709D02*
X0008366Y0201709D01*
D12*
X0006772Y0201631D02*
X0004971Y0201631D01*
X0003769Y0202832D01*
X0003169Y0202832D01*
X0004971Y0201631D02*
X0003769Y0200430D01*
X0003169Y0200430D01*
X0003169Y0196747D02*
X0006772Y0196747D01*
X0006772Y0199149D01*
X0004971Y0195466D02*
X0005571Y0194866D01*
X0005571Y0193064D01*
X0006772Y0193064D02*
X0003169Y0193064D01*
X0003169Y0194866D01*
X0003769Y0195466D01*
X0004971Y0195466D01*
X0004971Y0191783D02*
X0005571Y0191182D01*
X0005571Y0189381D01*
X0006772Y0189381D02*
X0003169Y0189381D01*
X0003169Y0191182D01*
X0003769Y0191783D01*
X0004971Y0191783D01*
X0006172Y0188100D02*
X0003169Y0188100D01*
X0003169Y0185698D02*
X0006172Y0185698D01*
X0006772Y0186298D01*
X0006772Y0187499D01*
X0006172Y0188100D01*
X0006172Y0184417D02*
X0006772Y0183816D01*
X0006772Y0182615D01*
X0006172Y0182015D01*
X0004971Y0182615D02*
X0004971Y0183816D01*
X0005571Y0184417D01*
X0006172Y0184417D01*
X0004971Y0182615D02*
X0004370Y0182015D01*
X0003769Y0182015D01*
X0003169Y0182615D01*
X0003169Y0183816D01*
X0003769Y0184417D01*
X0082021Y0083520D02*
X0083556Y0083520D01*
X0082789Y0083520D02*
X0082789Y0078917D01*
X0083556Y0078917D02*
X0082021Y0078917D01*
X0085091Y0079684D02*
X0085091Y0082753D01*
X0085858Y0083520D01*
X0087393Y0083520D01*
X0088160Y0082753D01*
X0089694Y0082753D02*
X0090462Y0083520D01*
X0091996Y0083520D01*
X0092764Y0082753D01*
X0092764Y0081986D01*
X0089694Y0078917D01*
X0092764Y0078917D01*
X0088160Y0079684D02*
X0087393Y0078917D01*
X0085858Y0078917D01*
X0085091Y0079684D01*
X0163538Y0020410D02*
X0163538Y0016574D01*
X0164305Y0015806D01*
X0165840Y0015806D01*
X0166607Y0016574D01*
X0166607Y0020410D01*
X0168142Y0019643D02*
X0168909Y0020410D01*
X0170444Y0020410D01*
X0171211Y0019643D01*
X0172746Y0019643D02*
X0173513Y0020410D01*
X0175048Y0020410D01*
X0175815Y0019643D01*
X0175815Y0018876D01*
X0172746Y0015806D01*
X0175815Y0015806D01*
X0171211Y0016574D02*
X0171211Y0017341D01*
X0170444Y0018108D01*
X0168909Y0018108D01*
X0168142Y0018876D01*
X0168142Y0019643D01*
X0169676Y0021178D02*
X0169676Y0015039D01*
X0168909Y0015806D02*
X0170444Y0015806D01*
X0171211Y0016574D01*
X0168909Y0015806D02*
X0168142Y0016574D01*
X0255446Y0078917D02*
X0256981Y0078917D01*
X0256214Y0078917D02*
X0256214Y0083520D01*
X0256981Y0083520D02*
X0255446Y0083520D01*
X0258516Y0082753D02*
X0258516Y0079684D01*
X0259283Y0078917D01*
X0260818Y0078917D01*
X0261585Y0079684D01*
X0263120Y0079684D02*
X0263887Y0078917D01*
X0265422Y0078917D01*
X0266189Y0079684D01*
X0266189Y0080451D01*
X0265422Y0081218D01*
X0264654Y0081218D01*
X0265422Y0081218D02*
X0266189Y0081986D01*
X0266189Y0082753D01*
X0265422Y0083520D01*
X0263887Y0083520D01*
X0263120Y0082753D01*
X0261585Y0082753D02*
X0260818Y0083520D01*
X0259283Y0083520D01*
X0258516Y0082753D01*
X0257188Y0198050D02*
X0260257Y0198050D01*
X0261792Y0199585D01*
X0260257Y0201120D01*
X0257188Y0201120D01*
X0258723Y0203422D02*
X0258723Y0204956D01*
X0259490Y0205724D01*
X0260257Y0205724D01*
X0260257Y0202654D01*
X0259490Y0202654D02*
X0258723Y0203422D01*
X0259490Y0202654D02*
X0261025Y0202654D01*
X0261792Y0203422D01*
X0261792Y0204956D01*
X0261792Y0207258D02*
X0258723Y0207258D01*
X0260257Y0207258D02*
X0258723Y0208793D01*
X0258723Y0209560D01*
X0259490Y0211095D02*
X0258723Y0211862D01*
X0258723Y0214164D01*
X0258723Y0215699D02*
X0258723Y0216466D01*
X0261792Y0216466D01*
X0261792Y0215699D02*
X0261792Y0217233D01*
X0261025Y0218768D02*
X0261792Y0219535D01*
X0261792Y0221070D01*
X0261025Y0221837D01*
X0259490Y0221837D01*
X0258723Y0221070D01*
X0258723Y0219535D01*
X0259490Y0218768D01*
X0261025Y0218768D01*
X0261025Y0214164D02*
X0260257Y0213397D01*
X0260257Y0211862D01*
X0259490Y0211095D01*
X0261792Y0211095D02*
X0261792Y0213397D01*
X0261025Y0214164D01*
X0257188Y0216466D02*
X0256421Y0216466D01*
X0258723Y0223372D02*
X0258723Y0225674D01*
X0259490Y0226441D01*
X0261792Y0226441D01*
X0261792Y0223372D02*
X0258723Y0223372D01*
X0257956Y0232580D02*
X0257188Y0233347D01*
X0257188Y0234882D01*
X0257956Y0235649D01*
X0261025Y0232580D01*
X0261792Y0233347D01*
X0261792Y0234882D01*
X0261025Y0235649D01*
X0257956Y0235649D01*
X0257956Y0232580D02*
X0261025Y0232580D01*
X0261025Y0237184D02*
X0261025Y0237951D01*
X0261792Y0237951D01*
X0261792Y0237184D01*
X0261025Y0237184D01*
X0261792Y0239486D02*
X0261792Y0242555D01*
X0261792Y0241020D02*
X0257188Y0241020D01*
X0258723Y0239486D01*
X0214564Y0266853D02*
X0213796Y0266086D01*
X0210727Y0266086D01*
X0209960Y0266853D01*
X0209960Y0268388D01*
X0210727Y0269155D01*
X0210727Y0270690D02*
X0209960Y0271457D01*
X0209960Y0272992D01*
X0210727Y0273759D01*
X0211495Y0273759D01*
X0214564Y0270690D01*
X0214564Y0273759D01*
X0214866Y0275743D02*
X0211797Y0275743D01*
X0213331Y0275743D02*
X0213331Y0280347D01*
X0211797Y0278813D01*
X0210262Y0279580D02*
X0209495Y0280347D01*
X0207960Y0280347D01*
X0207193Y0279580D01*
X0207193Y0276511D01*
X0207960Y0275743D01*
X0209495Y0275743D01*
X0210262Y0276511D01*
X0213796Y0269155D02*
X0214564Y0268388D01*
X0214564Y0266853D01*
D13*
X0245890Y0254476D02*
X0294890Y0254476D01*
X0294890Y0257976D01*
X0300890Y0257976D01*
X0300890Y0254476D01*
X0308390Y0254476D01*
X0308390Y0295476D01*
X0300890Y0295476D01*
X0300890Y0291976D01*
X0294890Y0291976D01*
X0294890Y0295476D01*
X0245890Y0295476D01*
X0245890Y0254476D01*
X0228823Y0208008D02*
X0223823Y0208008D01*
X0221323Y0205508D01*
X0221323Y0180508D01*
X0218823Y0178008D01*
X0213823Y0178008D01*
X0211323Y0180508D01*
X0211323Y0205508D01*
X0208823Y0208008D01*
X0203823Y0208008D01*
X0201323Y0205508D01*
X0201323Y0180508D01*
X0198823Y0178008D01*
X0193823Y0178008D01*
X0191323Y0180508D01*
X0191323Y0205508D01*
X0188823Y0208008D01*
X0183823Y0208008D01*
X0181323Y0205508D01*
X0178823Y0208008D01*
X0173823Y0208008D01*
X0171323Y0205508D01*
X0171323Y0180508D01*
X0173823Y0178008D01*
X0178823Y0178008D01*
X0181323Y0180508D01*
X0181323Y0205508D01*
X0191323Y0205508D02*
X0193823Y0208008D01*
X0198823Y0208008D01*
X0201323Y0205508D01*
X0211323Y0205508D02*
X0213823Y0208008D01*
X0218823Y0208008D01*
X0221323Y0205508D01*
X0228823Y0208008D02*
X0231323Y0205508D01*
X0231323Y0180508D01*
X0228823Y0178008D01*
X0223823Y0178008D01*
X0221323Y0180508D01*
X0211323Y0180508D02*
X0208823Y0178008D01*
X0203823Y0178008D01*
X0201323Y0180508D01*
X0191323Y0180508D02*
X0188823Y0178008D01*
X0183823Y0178008D01*
X0181323Y0180508D01*
X0154984Y0181768D02*
X0152484Y0179268D01*
X0147484Y0179268D01*
X0144984Y0181768D01*
X0144984Y0206768D01*
X0142484Y0209268D01*
X0137484Y0209268D01*
X0134984Y0206768D01*
X0134984Y0181768D01*
X0132484Y0179268D01*
X0127484Y0179268D01*
X0124984Y0181768D01*
X0124984Y0206768D01*
X0122484Y0209268D01*
X0117484Y0209268D01*
X0114984Y0206768D01*
X0114984Y0181768D01*
X0112484Y0179268D01*
X0107484Y0179268D01*
X0104984Y0181768D01*
X0102484Y0179268D01*
X0097484Y0179268D01*
X0094984Y0181768D01*
X0094984Y0206768D01*
X0097484Y0209268D01*
X0102484Y0209268D01*
X0104984Y0206768D01*
X0104984Y0181768D01*
X0114984Y0181768D02*
X0117484Y0179268D01*
X0122484Y0179268D01*
X0124984Y0181768D01*
X0134984Y0181768D02*
X0137484Y0179268D01*
X0142484Y0179268D01*
X0144984Y0181768D01*
X0154984Y0181768D02*
X0154984Y0206768D01*
X0152484Y0209268D01*
X0147484Y0209268D01*
X0144984Y0206768D01*
X0134984Y0206768D02*
X0132484Y0209268D01*
X0127484Y0209268D01*
X0124984Y0206768D01*
X0114984Y0206768D02*
X0112484Y0209268D01*
X0107484Y0209268D01*
X0104984Y0206768D01*
X0096165Y0154079D02*
X0086165Y0154079D01*
X0086165Y0138079D01*
X0096165Y0138079D01*
X0096165Y0154079D01*
X0093665Y0150079D02*
X0091165Y0146079D01*
X0093665Y0146079D01*
X0091165Y0146079D02*
X0088665Y0146079D01*
X0091165Y0146079D02*
X0088665Y0150079D01*
X0093665Y0150079D01*
X0091165Y0152079D02*
X0091165Y0146079D01*
X0091165Y0143579D01*
X0080417Y0136898D02*
X0070417Y0136898D01*
X0070417Y0152898D01*
X0080417Y0152898D01*
X0080417Y0136898D01*
X0075417Y0142398D02*
X0075417Y0144898D01*
X0077917Y0144898D01*
X0075417Y0144898D02*
X0077917Y0148898D01*
X0072917Y0148898D01*
X0075417Y0144898D01*
X0072917Y0144898D01*
X0075417Y0144898D02*
X0075417Y0150898D01*
X0067740Y0153685D02*
X0057740Y0153685D01*
X0057740Y0137685D01*
X0067740Y0137685D01*
X0067740Y0153685D01*
X0062740Y0148185D02*
X0062740Y0145685D01*
X0060240Y0145685D01*
X0062740Y0145685D02*
X0060240Y0141685D01*
X0065240Y0141685D01*
X0062740Y0145685D01*
X0065240Y0145685D01*
X0062740Y0145685D02*
X0062740Y0139685D01*
X0052858Y0138472D02*
X0042858Y0138472D01*
X0042858Y0154472D01*
X0052858Y0154472D01*
X0052858Y0138472D01*
X0047858Y0143972D02*
X0047858Y0146472D01*
X0050358Y0146472D01*
X0047858Y0146472D02*
X0045358Y0146472D01*
X0047858Y0146472D02*
X0045358Y0150472D01*
X0050358Y0150472D01*
X0047858Y0146472D01*
X0047858Y0152472D01*
X0031992Y0145587D02*
X0031992Y0140587D01*
X0029492Y0138087D01*
X0014492Y0138087D01*
X0011992Y0140587D01*
X0011992Y0145587D01*
X0014492Y0148087D01*
X0029492Y0148087D01*
X0031992Y0145587D01*
X0029492Y0138087D02*
X0031992Y0135587D01*
X0031992Y0130587D01*
X0029492Y0128087D01*
X0014492Y0128087D01*
X0011992Y0130587D01*
X0011992Y0135587D01*
X0014492Y0138087D01*
X0014492Y0128087D02*
X0011992Y0125587D01*
X0011992Y0120587D01*
X0014492Y0118087D01*
X0029492Y0118087D01*
X0031992Y0120587D01*
X0031992Y0125587D01*
X0029492Y0128087D01*
X0029492Y0093402D02*
X0014492Y0093402D01*
X0011992Y0090902D01*
X0011992Y0085902D01*
X0014492Y0083402D01*
X0029492Y0083402D01*
X0031992Y0085902D01*
X0031992Y0090902D01*
X0029492Y0093402D01*
X0029492Y0083402D02*
X0031992Y0080902D01*
X0031992Y0075902D01*
X0029492Y0073402D01*
X0014492Y0073402D01*
X0011992Y0075902D01*
X0011992Y0080902D01*
X0014492Y0083402D01*
X0014492Y0073402D02*
X0011992Y0070902D01*
X0011992Y0065902D01*
X0014492Y0063402D01*
X0029492Y0063402D01*
X0031992Y0065902D01*
X0031992Y0070902D01*
X0029492Y0073402D01*
X0024669Y0037543D02*
X0024669Y0021543D01*
X0034669Y0021543D01*
X0034669Y0037543D01*
X0024669Y0037543D01*
X0027169Y0033543D02*
X0029669Y0029543D01*
X0032169Y0029543D01*
X0029669Y0029543D02*
X0027169Y0029543D01*
X0029669Y0029543D02*
X0029669Y0035543D01*
X0027169Y0033543D02*
X0032169Y0033543D01*
X0029669Y0029543D01*
X0029669Y0027043D01*
X0019000Y0022331D02*
X0019000Y0038331D01*
X0009000Y0038331D01*
X0009000Y0022331D01*
X0019000Y0022331D01*
X0016500Y0026331D02*
X0014000Y0030331D01*
X0011500Y0030331D01*
X0014000Y0030331D02*
X0016500Y0030331D01*
X0014000Y0030331D02*
X0014000Y0024331D01*
X0011500Y0026331D02*
X0014000Y0030331D01*
X0014000Y0032831D01*
X0016500Y0026331D02*
X0011500Y0026331D01*
X0041831Y0016748D02*
X0041834Y0017030D01*
X0041845Y0017312D01*
X0041862Y0017594D01*
X0041886Y0017875D01*
X0041917Y0018156D01*
X0041955Y0018435D01*
X0042000Y0018714D01*
X0042052Y0018992D01*
X0042110Y0019268D01*
X0042176Y0019542D01*
X0042248Y0019815D01*
X0042326Y0020086D01*
X0042411Y0020355D01*
X0042503Y0020622D01*
X0042602Y0020887D01*
X0042706Y0021149D01*
X0042818Y0021408D01*
X0042935Y0021665D01*
X0043059Y0021919D01*
X0043189Y0022169D01*
X0043325Y0022416D01*
X0043467Y0022660D01*
X0043615Y0022900D01*
X0043769Y0023137D01*
X0043929Y0023370D01*
X0044094Y0023599D01*
X0044265Y0023823D01*
X0044441Y0024044D01*
X0044623Y0024259D01*
X0044810Y0024471D01*
X0045002Y0024678D01*
X0045199Y0024880D01*
X0045401Y0025077D01*
X0045608Y0025269D01*
X0045820Y0025456D01*
X0046035Y0025638D01*
X0046256Y0025814D01*
X0046480Y0025985D01*
X0046709Y0026150D01*
X0046942Y0026310D01*
X0047179Y0026464D01*
X0047419Y0026612D01*
X0047663Y0026754D01*
X0047910Y0026890D01*
X0048160Y0027020D01*
X0048414Y0027144D01*
X0048671Y0027261D01*
X0048930Y0027373D01*
X0049192Y0027477D01*
X0049457Y0027576D01*
X0049724Y0027668D01*
X0049993Y0027753D01*
X0050264Y0027831D01*
X0050537Y0027903D01*
X0050811Y0027969D01*
X0051087Y0028027D01*
X0051365Y0028079D01*
X0051644Y0028124D01*
X0051923Y0028162D01*
X0052204Y0028193D01*
X0052485Y0028217D01*
X0052767Y0028234D01*
X0053049Y0028245D01*
X0053331Y0028248D01*
X0053613Y0028245D01*
X0053895Y0028234D01*
X0054177Y0028217D01*
X0054458Y0028193D01*
X0054739Y0028162D01*
X0055018Y0028124D01*
X0055297Y0028079D01*
X0055575Y0028027D01*
X0055851Y0027969D01*
X0056125Y0027903D01*
X0056398Y0027831D01*
X0056669Y0027753D01*
X0056938Y0027668D01*
X0057205Y0027576D01*
X0057470Y0027477D01*
X0057732Y0027373D01*
X0057991Y0027261D01*
X0058248Y0027144D01*
X0058502Y0027020D01*
X0058752Y0026890D01*
X0058999Y0026754D01*
X0059243Y0026612D01*
X0059483Y0026464D01*
X0059720Y0026310D01*
X0059953Y0026150D01*
X0060182Y0025985D01*
X0060406Y0025814D01*
X0060627Y0025638D01*
X0060842Y0025456D01*
X0061054Y0025269D01*
X0061261Y0025077D01*
X0061463Y0024880D01*
X0061660Y0024678D01*
X0061852Y0024471D01*
X0062039Y0024259D01*
X0062221Y0024044D01*
X0062397Y0023823D01*
X0062568Y0023599D01*
X0062733Y0023370D01*
X0062893Y0023137D01*
X0063047Y0022900D01*
X0063195Y0022660D01*
X0063337Y0022416D01*
X0063473Y0022169D01*
X0063603Y0021919D01*
X0063727Y0021665D01*
X0063844Y0021408D01*
X0063956Y0021149D01*
X0064060Y0020887D01*
X0064159Y0020622D01*
X0064251Y0020355D01*
X0064336Y0020086D01*
X0064414Y0019815D01*
X0064486Y0019542D01*
X0064552Y0019268D01*
X0064610Y0018992D01*
X0064662Y0018714D01*
X0064707Y0018435D01*
X0064745Y0018156D01*
X0064776Y0017875D01*
X0064800Y0017594D01*
X0064817Y0017312D01*
X0064828Y0017030D01*
X0064831Y0016748D01*
X0064828Y0016466D01*
X0064817Y0016184D01*
X0064800Y0015902D01*
X0064776Y0015621D01*
X0064745Y0015340D01*
X0064707Y0015061D01*
X0064662Y0014782D01*
X0064610Y0014504D01*
X0064552Y0014228D01*
X0064486Y0013954D01*
X0064414Y0013681D01*
X0064336Y0013410D01*
X0064251Y0013141D01*
X0064159Y0012874D01*
X0064060Y0012609D01*
X0063956Y0012347D01*
X0063844Y0012088D01*
X0063727Y0011831D01*
X0063603Y0011577D01*
X0063473Y0011327D01*
X0063337Y0011080D01*
X0063195Y0010836D01*
X0063047Y0010596D01*
X0062893Y0010359D01*
X0062733Y0010126D01*
X0062568Y0009897D01*
X0062397Y0009673D01*
X0062221Y0009452D01*
X0062039Y0009237D01*
X0061852Y0009025D01*
X0061660Y0008818D01*
X0061463Y0008616D01*
X0061261Y0008419D01*
X0061054Y0008227D01*
X0060842Y0008040D01*
X0060627Y0007858D01*
X0060406Y0007682D01*
X0060182Y0007511D01*
X0059953Y0007346D01*
X0059720Y0007186D01*
X0059483Y0007032D01*
X0059243Y0006884D01*
X0058999Y0006742D01*
X0058752Y0006606D01*
X0058502Y0006476D01*
X0058248Y0006352D01*
X0057991Y0006235D01*
X0057732Y0006123D01*
X0057470Y0006019D01*
X0057205Y0005920D01*
X0056938Y0005828D01*
X0056669Y0005743D01*
X0056398Y0005665D01*
X0056125Y0005593D01*
X0055851Y0005527D01*
X0055575Y0005469D01*
X0055297Y0005417D01*
X0055018Y0005372D01*
X0054739Y0005334D01*
X0054458Y0005303D01*
X0054177Y0005279D01*
X0053895Y0005262D01*
X0053613Y0005251D01*
X0053331Y0005248D01*
X0053049Y0005251D01*
X0052767Y0005262D01*
X0052485Y0005279D01*
X0052204Y0005303D01*
X0051923Y0005334D01*
X0051644Y0005372D01*
X0051365Y0005417D01*
X0051087Y0005469D01*
X0050811Y0005527D01*
X0050537Y0005593D01*
X0050264Y0005665D01*
X0049993Y0005743D01*
X0049724Y0005828D01*
X0049457Y0005920D01*
X0049192Y0006019D01*
X0048930Y0006123D01*
X0048671Y0006235D01*
X0048414Y0006352D01*
X0048160Y0006476D01*
X0047910Y0006606D01*
X0047663Y0006742D01*
X0047419Y0006884D01*
X0047179Y0007032D01*
X0046942Y0007186D01*
X0046709Y0007346D01*
X0046480Y0007511D01*
X0046256Y0007682D01*
X0046035Y0007858D01*
X0045820Y0008040D01*
X0045608Y0008227D01*
X0045401Y0008419D01*
X0045199Y0008616D01*
X0045002Y0008818D01*
X0044810Y0009025D01*
X0044623Y0009237D01*
X0044441Y0009452D01*
X0044265Y0009673D01*
X0044094Y0009897D01*
X0043929Y0010126D01*
X0043769Y0010359D01*
X0043615Y0010596D01*
X0043467Y0010836D01*
X0043325Y0011080D01*
X0043189Y0011327D01*
X0043059Y0011577D01*
X0042935Y0011831D01*
X0042818Y0012088D01*
X0042706Y0012347D01*
X0042602Y0012609D01*
X0042503Y0012874D01*
X0042411Y0013141D01*
X0042326Y0013410D01*
X0042248Y0013681D01*
X0042176Y0013954D01*
X0042110Y0014228D01*
X0042052Y0014504D01*
X0042000Y0014782D01*
X0041955Y0015061D01*
X0041917Y0015340D01*
X0041886Y0015621D01*
X0041862Y0015902D01*
X0041845Y0016184D01*
X0041834Y0016466D01*
X0041831Y0016748D01*
X0071992Y0020756D02*
X0081992Y0020756D01*
X0081992Y0036756D01*
X0071992Y0036756D01*
X0071992Y0020756D01*
X0074492Y0024756D02*
X0076992Y0028756D01*
X0074492Y0028756D01*
X0076992Y0028756D02*
X0079492Y0024756D01*
X0074492Y0024756D01*
X0076992Y0022756D02*
X0076992Y0028756D01*
X0079492Y0028756D01*
X0076992Y0028756D02*
X0076992Y0031256D01*
X0085299Y0035969D02*
X0095299Y0035969D01*
X0095299Y0019969D01*
X0085299Y0019969D01*
X0085299Y0035969D01*
X0090299Y0030469D02*
X0090299Y0027969D01*
X0087799Y0027969D01*
X0090299Y0027969D02*
X0087799Y0023969D01*
X0092799Y0023969D01*
X0090299Y0027969D01*
X0092799Y0027969D01*
X0090299Y0027969D02*
X0090299Y0021969D01*
X0214669Y0020756D02*
X0224669Y0020756D01*
X0224669Y0036756D01*
X0214669Y0036756D01*
X0214669Y0020756D01*
X0217169Y0024756D02*
X0219669Y0028756D01*
X0217169Y0028756D01*
X0219669Y0028756D02*
X0222169Y0024756D01*
X0217169Y0024756D01*
X0219669Y0022756D02*
X0219669Y0028756D01*
X0222169Y0028756D01*
X0219669Y0028756D02*
X0219669Y0031256D01*
X0226953Y0037150D02*
X0226953Y0021150D01*
X0236953Y0021150D01*
X0236953Y0037150D01*
X0226953Y0037150D01*
X0231953Y0035150D02*
X0231953Y0029150D01*
X0234453Y0029150D01*
X0231953Y0029150D02*
X0229453Y0033150D01*
X0234453Y0033150D01*
X0231953Y0029150D01*
X0229453Y0029150D01*
X0231953Y0029150D02*
X0231953Y0026650D01*
X0254429Y0016748D02*
X0254432Y0017030D01*
X0254443Y0017312D01*
X0254460Y0017594D01*
X0254484Y0017875D01*
X0254515Y0018156D01*
X0254553Y0018435D01*
X0254598Y0018714D01*
X0254650Y0018992D01*
X0254708Y0019268D01*
X0254774Y0019542D01*
X0254846Y0019815D01*
X0254924Y0020086D01*
X0255009Y0020355D01*
X0255101Y0020622D01*
X0255200Y0020887D01*
X0255304Y0021149D01*
X0255416Y0021408D01*
X0255533Y0021665D01*
X0255657Y0021919D01*
X0255787Y0022169D01*
X0255923Y0022416D01*
X0256065Y0022660D01*
X0256213Y0022900D01*
X0256367Y0023137D01*
X0256527Y0023370D01*
X0256692Y0023599D01*
X0256863Y0023823D01*
X0257039Y0024044D01*
X0257221Y0024259D01*
X0257408Y0024471D01*
X0257600Y0024678D01*
X0257797Y0024880D01*
X0257999Y0025077D01*
X0258206Y0025269D01*
X0258418Y0025456D01*
X0258633Y0025638D01*
X0258854Y0025814D01*
X0259078Y0025985D01*
X0259307Y0026150D01*
X0259540Y0026310D01*
X0259777Y0026464D01*
X0260017Y0026612D01*
X0260261Y0026754D01*
X0260508Y0026890D01*
X0260758Y0027020D01*
X0261012Y0027144D01*
X0261269Y0027261D01*
X0261528Y0027373D01*
X0261790Y0027477D01*
X0262055Y0027576D01*
X0262322Y0027668D01*
X0262591Y0027753D01*
X0262862Y0027831D01*
X0263135Y0027903D01*
X0263409Y0027969D01*
X0263685Y0028027D01*
X0263963Y0028079D01*
X0264242Y0028124D01*
X0264521Y0028162D01*
X0264802Y0028193D01*
X0265083Y0028217D01*
X0265365Y0028234D01*
X0265647Y0028245D01*
X0265929Y0028248D01*
X0266211Y0028245D01*
X0266493Y0028234D01*
X0266775Y0028217D01*
X0267056Y0028193D01*
X0267337Y0028162D01*
X0267616Y0028124D01*
X0267895Y0028079D01*
X0268173Y0028027D01*
X0268449Y0027969D01*
X0268723Y0027903D01*
X0268996Y0027831D01*
X0269267Y0027753D01*
X0269536Y0027668D01*
X0269803Y0027576D01*
X0270068Y0027477D01*
X0270330Y0027373D01*
X0270589Y0027261D01*
X0270846Y0027144D01*
X0271100Y0027020D01*
X0271350Y0026890D01*
X0271597Y0026754D01*
X0271841Y0026612D01*
X0272081Y0026464D01*
X0272318Y0026310D01*
X0272551Y0026150D01*
X0272780Y0025985D01*
X0273004Y0025814D01*
X0273225Y0025638D01*
X0273440Y0025456D01*
X0273652Y0025269D01*
X0273859Y0025077D01*
X0274061Y0024880D01*
X0274258Y0024678D01*
X0274450Y0024471D01*
X0274637Y0024259D01*
X0274819Y0024044D01*
X0274995Y0023823D01*
X0275166Y0023599D01*
X0275331Y0023370D01*
X0275491Y0023137D01*
X0275645Y0022900D01*
X0275793Y0022660D01*
X0275935Y0022416D01*
X0276071Y0022169D01*
X0276201Y0021919D01*
X0276325Y0021665D01*
X0276442Y0021408D01*
X0276554Y0021149D01*
X0276658Y0020887D01*
X0276757Y0020622D01*
X0276849Y0020355D01*
X0276934Y0020086D01*
X0277012Y0019815D01*
X0277084Y0019542D01*
X0277150Y0019268D01*
X0277208Y0018992D01*
X0277260Y0018714D01*
X0277305Y0018435D01*
X0277343Y0018156D01*
X0277374Y0017875D01*
X0277398Y0017594D01*
X0277415Y0017312D01*
X0277426Y0017030D01*
X0277429Y0016748D01*
X0277426Y0016466D01*
X0277415Y0016184D01*
X0277398Y0015902D01*
X0277374Y0015621D01*
X0277343Y0015340D01*
X0277305Y0015061D01*
X0277260Y0014782D01*
X0277208Y0014504D01*
X0277150Y0014228D01*
X0277084Y0013954D01*
X0277012Y0013681D01*
X0276934Y0013410D01*
X0276849Y0013141D01*
X0276757Y0012874D01*
X0276658Y0012609D01*
X0276554Y0012347D01*
X0276442Y0012088D01*
X0276325Y0011831D01*
X0276201Y0011577D01*
X0276071Y0011327D01*
X0275935Y0011080D01*
X0275793Y0010836D01*
X0275645Y0010596D01*
X0275491Y0010359D01*
X0275331Y0010126D01*
X0275166Y0009897D01*
X0274995Y0009673D01*
X0274819Y0009452D01*
X0274637Y0009237D01*
X0274450Y0009025D01*
X0274258Y0008818D01*
X0274061Y0008616D01*
X0273859Y0008419D01*
X0273652Y0008227D01*
X0273440Y0008040D01*
X0273225Y0007858D01*
X0273004Y0007682D01*
X0272780Y0007511D01*
X0272551Y0007346D01*
X0272318Y0007186D01*
X0272081Y0007032D01*
X0271841Y0006884D01*
X0271597Y0006742D01*
X0271350Y0006606D01*
X0271100Y0006476D01*
X0270846Y0006352D01*
X0270589Y0006235D01*
X0270330Y0006123D01*
X0270068Y0006019D01*
X0269803Y0005920D01*
X0269536Y0005828D01*
X0269267Y0005743D01*
X0268996Y0005665D01*
X0268723Y0005593D01*
X0268449Y0005527D01*
X0268173Y0005469D01*
X0267895Y0005417D01*
X0267616Y0005372D01*
X0267337Y0005334D01*
X0267056Y0005303D01*
X0266775Y0005279D01*
X0266493Y0005262D01*
X0266211Y0005251D01*
X0265929Y0005248D01*
X0265647Y0005251D01*
X0265365Y0005262D01*
X0265083Y0005279D01*
X0264802Y0005303D01*
X0264521Y0005334D01*
X0264242Y0005372D01*
X0263963Y0005417D01*
X0263685Y0005469D01*
X0263409Y0005527D01*
X0263135Y0005593D01*
X0262862Y0005665D01*
X0262591Y0005743D01*
X0262322Y0005828D01*
X0262055Y0005920D01*
X0261790Y0006019D01*
X0261528Y0006123D01*
X0261269Y0006235D01*
X0261012Y0006352D01*
X0260758Y0006476D01*
X0260508Y0006606D01*
X0260261Y0006742D01*
X0260017Y0006884D01*
X0259777Y0007032D01*
X0259540Y0007186D01*
X0259307Y0007346D01*
X0259078Y0007511D01*
X0258854Y0007682D01*
X0258633Y0007858D01*
X0258418Y0008040D01*
X0258206Y0008227D01*
X0257999Y0008419D01*
X0257797Y0008616D01*
X0257600Y0008818D01*
X0257408Y0009025D01*
X0257221Y0009237D01*
X0257039Y0009452D01*
X0256863Y0009673D01*
X0256692Y0009897D01*
X0256527Y0010126D01*
X0256367Y0010359D01*
X0256213Y0010596D01*
X0256065Y0010836D01*
X0255923Y0011080D01*
X0255787Y0011327D01*
X0255657Y0011577D01*
X0255533Y0011831D01*
X0255416Y0012088D01*
X0255304Y0012347D01*
X0255200Y0012609D01*
X0255101Y0012874D01*
X0255009Y0013141D01*
X0254924Y0013410D01*
X0254846Y0013681D01*
X0254774Y0013954D01*
X0254708Y0014228D01*
X0254650Y0014504D01*
X0254598Y0014782D01*
X0254553Y0015061D01*
X0254515Y0015340D01*
X0254484Y0015621D01*
X0254460Y0015902D01*
X0254443Y0016184D01*
X0254432Y0016466D01*
X0254429Y0016748D01*
X0287031Y0021150D02*
X0297031Y0021150D01*
X0297031Y0037150D01*
X0287031Y0037150D01*
X0287031Y0021150D01*
X0289531Y0025150D02*
X0292031Y0029150D01*
X0289531Y0029150D01*
X0292031Y0029150D02*
X0294531Y0029150D01*
X0292031Y0029150D02*
X0292031Y0031650D01*
X0292031Y0029150D02*
X0294531Y0025150D01*
X0289531Y0025150D01*
X0292031Y0023150D02*
X0292031Y0029150D01*
X0298843Y0022331D02*
X0308843Y0022331D01*
X0308843Y0038331D01*
X0298843Y0038331D01*
X0298843Y0022331D01*
X0301343Y0026331D02*
X0303843Y0030331D01*
X0301343Y0030331D01*
X0303843Y0030331D02*
X0306343Y0030331D01*
X0303843Y0030331D02*
X0306343Y0026331D01*
X0301343Y0026331D01*
X0303843Y0024331D02*
X0303843Y0030331D01*
X0303843Y0032831D01*
X0304768Y0061276D02*
X0289768Y0061276D01*
X0287268Y0063776D01*
X0287268Y0068776D01*
X0289768Y0071276D01*
X0304768Y0071276D01*
X0307268Y0068776D01*
X0307268Y0063776D01*
X0304768Y0061276D01*
X0304768Y0071276D02*
X0307268Y0073776D01*
X0307268Y0078776D01*
X0304768Y0081276D01*
X0289768Y0081276D01*
X0287268Y0078776D01*
X0287268Y0073776D01*
X0289768Y0071276D01*
X0289768Y0081276D02*
X0287268Y0083776D01*
X0287268Y0088776D01*
X0289768Y0091276D01*
X0304768Y0091276D01*
X0307268Y0088776D01*
X0307268Y0083776D01*
X0304768Y0081276D01*
X0304768Y0128638D02*
X0289768Y0128638D01*
X0287268Y0131138D01*
X0287268Y0136138D01*
X0289768Y0138638D01*
X0304768Y0138638D01*
X0307268Y0136138D01*
X0307268Y0131138D01*
X0304768Y0128638D01*
X0304768Y0138638D02*
X0307268Y0141138D01*
X0307268Y0146138D01*
X0304768Y0148638D01*
X0289768Y0148638D01*
X0287268Y0146138D01*
X0287268Y0141138D01*
X0289768Y0138638D01*
X0289768Y0148638D02*
X0287268Y0151138D01*
X0287268Y0156138D01*
X0289768Y0158638D01*
X0304768Y0158638D01*
X0307268Y0156138D01*
X0307268Y0151138D01*
X0304768Y0148638D01*
X0272386Y0155654D02*
X0272386Y0139654D01*
X0262386Y0139654D01*
X0262386Y0155654D01*
X0272386Y0155654D01*
X0269886Y0151654D02*
X0267386Y0147654D01*
X0269886Y0147654D01*
X0267386Y0147654D02*
X0264886Y0147654D01*
X0267386Y0147654D02*
X0264886Y0151654D01*
X0269886Y0151654D01*
X0267386Y0153654D02*
X0267386Y0147654D01*
X0267386Y0145154D01*
X0256638Y0138472D02*
X0246638Y0138472D01*
X0246638Y0154472D01*
X0256638Y0154472D01*
X0256638Y0138472D01*
X0251638Y0143972D02*
X0251638Y0146472D01*
X0254138Y0146472D01*
X0251638Y0146472D02*
X0249138Y0146472D01*
X0251638Y0146472D02*
X0249138Y0150472D01*
X0254138Y0150472D01*
X0251638Y0146472D01*
X0251638Y0152472D01*
X0243409Y0154079D02*
X0233409Y0154079D01*
X0233409Y0138079D01*
X0243409Y0138079D01*
X0243409Y0154079D01*
X0238409Y0148579D02*
X0238409Y0146079D01*
X0235909Y0146079D01*
X0238409Y0146079D02*
X0240909Y0146079D01*
X0238409Y0146079D02*
X0238409Y0140079D01*
X0235909Y0142079D02*
X0238409Y0146079D01*
X0240909Y0142079D01*
X0235909Y0142079D01*
X0227661Y0139260D02*
X0227661Y0155260D01*
X0217661Y0155260D01*
X0217661Y0139260D01*
X0227661Y0139260D01*
X0225161Y0143260D02*
X0220161Y0143260D01*
X0222661Y0147260D01*
X0220161Y0147260D01*
X0222661Y0147260D02*
X0225161Y0147260D01*
X0222661Y0147260D02*
X0222661Y0149760D01*
X0222661Y0147260D02*
X0225161Y0143260D01*
X0222661Y0141260D02*
X0222661Y0147260D01*
X0287790Y0274976D02*
X0287792Y0275150D01*
X0287799Y0275324D01*
X0287809Y0275498D01*
X0287824Y0275672D01*
X0287843Y0275845D01*
X0287867Y0276018D01*
X0287895Y0276190D01*
X0287926Y0276361D01*
X0287963Y0276532D01*
X0288003Y0276701D01*
X0288047Y0276870D01*
X0288096Y0277037D01*
X0288148Y0277203D01*
X0288205Y0277368D01*
X0288266Y0277531D01*
X0288330Y0277693D01*
X0288399Y0277853D01*
X0288472Y0278012D01*
X0288548Y0278168D01*
X0288628Y0278323D01*
X0288712Y0278476D01*
X0288800Y0278626D01*
X0288892Y0278774D01*
X0288987Y0278921D01*
X0289085Y0279064D01*
X0289187Y0279205D01*
X0289293Y0279344D01*
X0289402Y0279480D01*
X0289514Y0279614D01*
X0289629Y0279744D01*
X0289748Y0279872D01*
X0289870Y0279996D01*
X0289994Y0280118D01*
X0290122Y0280237D01*
X0290252Y0280352D01*
X0290386Y0280464D01*
X0290522Y0280573D01*
X0290661Y0280679D01*
X0290802Y0280781D01*
X0290945Y0280879D01*
X0291092Y0280974D01*
X0291240Y0281066D01*
X0291390Y0281154D01*
X0291543Y0281238D01*
X0291698Y0281318D01*
X0291854Y0281394D01*
X0292013Y0281467D01*
X0292173Y0281536D01*
X0292335Y0281600D01*
X0292498Y0281661D01*
X0292663Y0281718D01*
X0292829Y0281770D01*
X0292996Y0281819D01*
X0293165Y0281863D01*
X0293334Y0281903D01*
X0293505Y0281940D01*
X0293676Y0281971D01*
X0293848Y0281999D01*
X0294021Y0282023D01*
X0294194Y0282042D01*
X0294368Y0282057D01*
X0294542Y0282067D01*
X0294716Y0282074D01*
X0294890Y0282076D01*
X0295064Y0282074D01*
X0295238Y0282067D01*
X0295412Y0282057D01*
X0295586Y0282042D01*
X0295759Y0282023D01*
X0295932Y0281999D01*
X0296104Y0281971D01*
X0296275Y0281940D01*
X0296446Y0281903D01*
X0296615Y0281863D01*
X0296784Y0281819D01*
X0296951Y0281770D01*
X0297117Y0281718D01*
X0297282Y0281661D01*
X0297445Y0281600D01*
X0297607Y0281536D01*
X0297767Y0281467D01*
X0297926Y0281394D01*
X0298082Y0281318D01*
X0298237Y0281238D01*
X0298390Y0281154D01*
X0298540Y0281066D01*
X0298688Y0280974D01*
X0298835Y0280879D01*
X0298978Y0280781D01*
X0299119Y0280679D01*
X0299258Y0280573D01*
X0299394Y0280464D01*
X0299528Y0280352D01*
X0299658Y0280237D01*
X0299786Y0280118D01*
X0299910Y0279996D01*
X0300032Y0279872D01*
X0300151Y0279744D01*
X0300266Y0279614D01*
X0300378Y0279480D01*
X0300487Y0279344D01*
X0300593Y0279205D01*
X0300695Y0279064D01*
X0300793Y0278921D01*
X0300888Y0278774D01*
X0300980Y0278626D01*
X0301068Y0278476D01*
X0301152Y0278323D01*
X0301232Y0278168D01*
X0301308Y0278012D01*
X0301381Y0277853D01*
X0301450Y0277693D01*
X0301514Y0277531D01*
X0301575Y0277368D01*
X0301632Y0277203D01*
X0301684Y0277037D01*
X0301733Y0276870D01*
X0301777Y0276701D01*
X0301817Y0276532D01*
X0301854Y0276361D01*
X0301885Y0276190D01*
X0301913Y0276018D01*
X0301937Y0275845D01*
X0301956Y0275672D01*
X0301971Y0275498D01*
X0301981Y0275324D01*
X0301988Y0275150D01*
X0301990Y0274976D01*
X0301988Y0274802D01*
X0301981Y0274628D01*
X0301971Y0274454D01*
X0301956Y0274280D01*
X0301937Y0274107D01*
X0301913Y0273934D01*
X0301885Y0273762D01*
X0301854Y0273591D01*
X0301817Y0273420D01*
X0301777Y0273251D01*
X0301733Y0273082D01*
X0301684Y0272915D01*
X0301632Y0272749D01*
X0301575Y0272584D01*
X0301514Y0272421D01*
X0301450Y0272259D01*
X0301381Y0272099D01*
X0301308Y0271940D01*
X0301232Y0271784D01*
X0301152Y0271629D01*
X0301068Y0271476D01*
X0300980Y0271326D01*
X0300888Y0271178D01*
X0300793Y0271031D01*
X0300695Y0270888D01*
X0300593Y0270747D01*
X0300487Y0270608D01*
X0300378Y0270472D01*
X0300266Y0270338D01*
X0300151Y0270208D01*
X0300032Y0270080D01*
X0299910Y0269956D01*
X0299786Y0269834D01*
X0299658Y0269715D01*
X0299528Y0269600D01*
X0299394Y0269488D01*
X0299258Y0269379D01*
X0299119Y0269273D01*
X0298978Y0269171D01*
X0298835Y0269073D01*
X0298688Y0268978D01*
X0298540Y0268886D01*
X0298390Y0268798D01*
X0298237Y0268714D01*
X0298082Y0268634D01*
X0297926Y0268558D01*
X0297767Y0268485D01*
X0297607Y0268416D01*
X0297445Y0268352D01*
X0297282Y0268291D01*
X0297117Y0268234D01*
X0296951Y0268182D01*
X0296784Y0268133D01*
X0296615Y0268089D01*
X0296446Y0268049D01*
X0296275Y0268012D01*
X0296104Y0267981D01*
X0295932Y0267953D01*
X0295759Y0267929D01*
X0295586Y0267910D01*
X0295412Y0267895D01*
X0295238Y0267885D01*
X0295064Y0267878D01*
X0294890Y0267876D01*
X0294716Y0267878D01*
X0294542Y0267885D01*
X0294368Y0267895D01*
X0294194Y0267910D01*
X0294021Y0267929D01*
X0293848Y0267953D01*
X0293676Y0267981D01*
X0293505Y0268012D01*
X0293334Y0268049D01*
X0293165Y0268089D01*
X0292996Y0268133D01*
X0292829Y0268182D01*
X0292663Y0268234D01*
X0292498Y0268291D01*
X0292335Y0268352D01*
X0292173Y0268416D01*
X0292013Y0268485D01*
X0291854Y0268558D01*
X0291698Y0268634D01*
X0291543Y0268714D01*
X0291390Y0268798D01*
X0291240Y0268886D01*
X0291092Y0268978D01*
X0290945Y0269073D01*
X0290802Y0269171D01*
X0290661Y0269273D01*
X0290522Y0269379D01*
X0290386Y0269488D01*
X0290252Y0269600D01*
X0290122Y0269715D01*
X0289994Y0269834D01*
X0289870Y0269956D01*
X0289748Y0270080D01*
X0289629Y0270208D01*
X0289514Y0270338D01*
X0289402Y0270472D01*
X0289293Y0270608D01*
X0289187Y0270747D01*
X0289085Y0270888D01*
X0288987Y0271031D01*
X0288892Y0271178D01*
X0288800Y0271326D01*
X0288712Y0271476D01*
X0288628Y0271629D01*
X0288548Y0271784D01*
X0288472Y0271940D01*
X0288399Y0272099D01*
X0288330Y0272259D01*
X0288266Y0272421D01*
X0288205Y0272584D01*
X0288148Y0272749D01*
X0288096Y0272915D01*
X0288047Y0273082D01*
X0288003Y0273251D01*
X0287963Y0273420D01*
X0287926Y0273591D01*
X0287895Y0273762D01*
X0287867Y0273934D01*
X0287843Y0274107D01*
X0287824Y0274280D01*
X0287809Y0274454D01*
X0287799Y0274628D01*
X0287792Y0274802D01*
X0287790Y0274976D01*
X0250492Y0315961D02*
X0250495Y0316243D01*
X0250506Y0316525D01*
X0250523Y0316807D01*
X0250547Y0317088D01*
X0250578Y0317369D01*
X0250616Y0317648D01*
X0250661Y0317927D01*
X0250713Y0318205D01*
X0250771Y0318481D01*
X0250837Y0318755D01*
X0250909Y0319028D01*
X0250987Y0319299D01*
X0251072Y0319568D01*
X0251164Y0319835D01*
X0251263Y0320100D01*
X0251367Y0320362D01*
X0251479Y0320621D01*
X0251596Y0320878D01*
X0251720Y0321132D01*
X0251850Y0321382D01*
X0251986Y0321629D01*
X0252128Y0321873D01*
X0252276Y0322113D01*
X0252430Y0322350D01*
X0252590Y0322583D01*
X0252755Y0322812D01*
X0252926Y0323036D01*
X0253102Y0323257D01*
X0253284Y0323472D01*
X0253471Y0323684D01*
X0253663Y0323891D01*
X0253860Y0324093D01*
X0254062Y0324290D01*
X0254269Y0324482D01*
X0254481Y0324669D01*
X0254696Y0324851D01*
X0254917Y0325027D01*
X0255141Y0325198D01*
X0255370Y0325363D01*
X0255603Y0325523D01*
X0255840Y0325677D01*
X0256080Y0325825D01*
X0256324Y0325967D01*
X0256571Y0326103D01*
X0256821Y0326233D01*
X0257075Y0326357D01*
X0257332Y0326474D01*
X0257591Y0326586D01*
X0257853Y0326690D01*
X0258118Y0326789D01*
X0258385Y0326881D01*
X0258654Y0326966D01*
X0258925Y0327044D01*
X0259198Y0327116D01*
X0259472Y0327182D01*
X0259748Y0327240D01*
X0260026Y0327292D01*
X0260305Y0327337D01*
X0260584Y0327375D01*
X0260865Y0327406D01*
X0261146Y0327430D01*
X0261428Y0327447D01*
X0261710Y0327458D01*
X0261992Y0327461D01*
X0262274Y0327458D01*
X0262556Y0327447D01*
X0262838Y0327430D01*
X0263119Y0327406D01*
X0263400Y0327375D01*
X0263679Y0327337D01*
X0263958Y0327292D01*
X0264236Y0327240D01*
X0264512Y0327182D01*
X0264786Y0327116D01*
X0265059Y0327044D01*
X0265330Y0326966D01*
X0265599Y0326881D01*
X0265866Y0326789D01*
X0266131Y0326690D01*
X0266393Y0326586D01*
X0266652Y0326474D01*
X0266909Y0326357D01*
X0267163Y0326233D01*
X0267413Y0326103D01*
X0267660Y0325967D01*
X0267904Y0325825D01*
X0268144Y0325677D01*
X0268381Y0325523D01*
X0268614Y0325363D01*
X0268843Y0325198D01*
X0269067Y0325027D01*
X0269288Y0324851D01*
X0269503Y0324669D01*
X0269715Y0324482D01*
X0269922Y0324290D01*
X0270124Y0324093D01*
X0270321Y0323891D01*
X0270513Y0323684D01*
X0270700Y0323472D01*
X0270882Y0323257D01*
X0271058Y0323036D01*
X0271229Y0322812D01*
X0271394Y0322583D01*
X0271554Y0322350D01*
X0271708Y0322113D01*
X0271856Y0321873D01*
X0271998Y0321629D01*
X0272134Y0321382D01*
X0272264Y0321132D01*
X0272388Y0320878D01*
X0272505Y0320621D01*
X0272617Y0320362D01*
X0272721Y0320100D01*
X0272820Y0319835D01*
X0272912Y0319568D01*
X0272997Y0319299D01*
X0273075Y0319028D01*
X0273147Y0318755D01*
X0273213Y0318481D01*
X0273271Y0318205D01*
X0273323Y0317927D01*
X0273368Y0317648D01*
X0273406Y0317369D01*
X0273437Y0317088D01*
X0273461Y0316807D01*
X0273478Y0316525D01*
X0273489Y0316243D01*
X0273492Y0315961D01*
X0273489Y0315679D01*
X0273478Y0315397D01*
X0273461Y0315115D01*
X0273437Y0314834D01*
X0273406Y0314553D01*
X0273368Y0314274D01*
X0273323Y0313995D01*
X0273271Y0313717D01*
X0273213Y0313441D01*
X0273147Y0313167D01*
X0273075Y0312894D01*
X0272997Y0312623D01*
X0272912Y0312354D01*
X0272820Y0312087D01*
X0272721Y0311822D01*
X0272617Y0311560D01*
X0272505Y0311301D01*
X0272388Y0311044D01*
X0272264Y0310790D01*
X0272134Y0310540D01*
X0271998Y0310293D01*
X0271856Y0310049D01*
X0271708Y0309809D01*
X0271554Y0309572D01*
X0271394Y0309339D01*
X0271229Y0309110D01*
X0271058Y0308886D01*
X0270882Y0308665D01*
X0270700Y0308450D01*
X0270513Y0308238D01*
X0270321Y0308031D01*
X0270124Y0307829D01*
X0269922Y0307632D01*
X0269715Y0307440D01*
X0269503Y0307253D01*
X0269288Y0307071D01*
X0269067Y0306895D01*
X0268843Y0306724D01*
X0268614Y0306559D01*
X0268381Y0306399D01*
X0268144Y0306245D01*
X0267904Y0306097D01*
X0267660Y0305955D01*
X0267413Y0305819D01*
X0267163Y0305689D01*
X0266909Y0305565D01*
X0266652Y0305448D01*
X0266393Y0305336D01*
X0266131Y0305232D01*
X0265866Y0305133D01*
X0265599Y0305041D01*
X0265330Y0304956D01*
X0265059Y0304878D01*
X0264786Y0304806D01*
X0264512Y0304740D01*
X0264236Y0304682D01*
X0263958Y0304630D01*
X0263679Y0304585D01*
X0263400Y0304547D01*
X0263119Y0304516D01*
X0262838Y0304492D01*
X0262556Y0304475D01*
X0262274Y0304464D01*
X0261992Y0304461D01*
X0261710Y0304464D01*
X0261428Y0304475D01*
X0261146Y0304492D01*
X0260865Y0304516D01*
X0260584Y0304547D01*
X0260305Y0304585D01*
X0260026Y0304630D01*
X0259748Y0304682D01*
X0259472Y0304740D01*
X0259198Y0304806D01*
X0258925Y0304878D01*
X0258654Y0304956D01*
X0258385Y0305041D01*
X0258118Y0305133D01*
X0257853Y0305232D01*
X0257591Y0305336D01*
X0257332Y0305448D01*
X0257075Y0305565D01*
X0256821Y0305689D01*
X0256571Y0305819D01*
X0256324Y0305955D01*
X0256080Y0306097D01*
X0255840Y0306245D01*
X0255603Y0306399D01*
X0255370Y0306559D01*
X0255141Y0306724D01*
X0254917Y0306895D01*
X0254696Y0307071D01*
X0254481Y0307253D01*
X0254269Y0307440D01*
X0254062Y0307632D01*
X0253860Y0307829D01*
X0253663Y0308031D01*
X0253471Y0308238D01*
X0253284Y0308450D01*
X0253102Y0308665D01*
X0252926Y0308886D01*
X0252755Y0309110D01*
X0252590Y0309339D01*
X0252430Y0309572D01*
X0252276Y0309809D01*
X0252128Y0310049D01*
X0251986Y0310293D01*
X0251850Y0310540D01*
X0251720Y0310790D01*
X0251596Y0311044D01*
X0251479Y0311301D01*
X0251367Y0311560D01*
X0251263Y0311822D01*
X0251164Y0312087D01*
X0251072Y0312354D01*
X0250987Y0312623D01*
X0250909Y0312894D01*
X0250837Y0313167D01*
X0250771Y0313441D01*
X0250713Y0313717D01*
X0250661Y0313995D01*
X0250616Y0314274D01*
X0250578Y0314553D01*
X0250547Y0314834D01*
X0250523Y0315115D01*
X0250506Y0315397D01*
X0250495Y0315679D01*
X0250492Y0315961D01*
X0045768Y0315961D02*
X0045771Y0316243D01*
X0045782Y0316525D01*
X0045799Y0316807D01*
X0045823Y0317088D01*
X0045854Y0317369D01*
X0045892Y0317648D01*
X0045937Y0317927D01*
X0045989Y0318205D01*
X0046047Y0318481D01*
X0046113Y0318755D01*
X0046185Y0319028D01*
X0046263Y0319299D01*
X0046348Y0319568D01*
X0046440Y0319835D01*
X0046539Y0320100D01*
X0046643Y0320362D01*
X0046755Y0320621D01*
X0046872Y0320878D01*
X0046996Y0321132D01*
X0047126Y0321382D01*
X0047262Y0321629D01*
X0047404Y0321873D01*
X0047552Y0322113D01*
X0047706Y0322350D01*
X0047866Y0322583D01*
X0048031Y0322812D01*
X0048202Y0323036D01*
X0048378Y0323257D01*
X0048560Y0323472D01*
X0048747Y0323684D01*
X0048939Y0323891D01*
X0049136Y0324093D01*
X0049338Y0324290D01*
X0049545Y0324482D01*
X0049757Y0324669D01*
X0049972Y0324851D01*
X0050193Y0325027D01*
X0050417Y0325198D01*
X0050646Y0325363D01*
X0050879Y0325523D01*
X0051116Y0325677D01*
X0051356Y0325825D01*
X0051600Y0325967D01*
X0051847Y0326103D01*
X0052097Y0326233D01*
X0052351Y0326357D01*
X0052608Y0326474D01*
X0052867Y0326586D01*
X0053129Y0326690D01*
X0053394Y0326789D01*
X0053661Y0326881D01*
X0053930Y0326966D01*
X0054201Y0327044D01*
X0054474Y0327116D01*
X0054748Y0327182D01*
X0055024Y0327240D01*
X0055302Y0327292D01*
X0055581Y0327337D01*
X0055860Y0327375D01*
X0056141Y0327406D01*
X0056422Y0327430D01*
X0056704Y0327447D01*
X0056986Y0327458D01*
X0057268Y0327461D01*
X0057550Y0327458D01*
X0057832Y0327447D01*
X0058114Y0327430D01*
X0058395Y0327406D01*
X0058676Y0327375D01*
X0058955Y0327337D01*
X0059234Y0327292D01*
X0059512Y0327240D01*
X0059788Y0327182D01*
X0060062Y0327116D01*
X0060335Y0327044D01*
X0060606Y0326966D01*
X0060875Y0326881D01*
X0061142Y0326789D01*
X0061407Y0326690D01*
X0061669Y0326586D01*
X0061928Y0326474D01*
X0062185Y0326357D01*
X0062439Y0326233D01*
X0062689Y0326103D01*
X0062936Y0325967D01*
X0063180Y0325825D01*
X0063420Y0325677D01*
X0063657Y0325523D01*
X0063890Y0325363D01*
X0064119Y0325198D01*
X0064343Y0325027D01*
X0064564Y0324851D01*
X0064779Y0324669D01*
X0064991Y0324482D01*
X0065198Y0324290D01*
X0065400Y0324093D01*
X0065597Y0323891D01*
X0065789Y0323684D01*
X0065976Y0323472D01*
X0066158Y0323257D01*
X0066334Y0323036D01*
X0066505Y0322812D01*
X0066670Y0322583D01*
X0066830Y0322350D01*
X0066984Y0322113D01*
X0067132Y0321873D01*
X0067274Y0321629D01*
X0067410Y0321382D01*
X0067540Y0321132D01*
X0067664Y0320878D01*
X0067781Y0320621D01*
X0067893Y0320362D01*
X0067997Y0320100D01*
X0068096Y0319835D01*
X0068188Y0319568D01*
X0068273Y0319299D01*
X0068351Y0319028D01*
X0068423Y0318755D01*
X0068489Y0318481D01*
X0068547Y0318205D01*
X0068599Y0317927D01*
X0068644Y0317648D01*
X0068682Y0317369D01*
X0068713Y0317088D01*
X0068737Y0316807D01*
X0068754Y0316525D01*
X0068765Y0316243D01*
X0068768Y0315961D01*
X0068765Y0315679D01*
X0068754Y0315397D01*
X0068737Y0315115D01*
X0068713Y0314834D01*
X0068682Y0314553D01*
X0068644Y0314274D01*
X0068599Y0313995D01*
X0068547Y0313717D01*
X0068489Y0313441D01*
X0068423Y0313167D01*
X0068351Y0312894D01*
X0068273Y0312623D01*
X0068188Y0312354D01*
X0068096Y0312087D01*
X0067997Y0311822D01*
X0067893Y0311560D01*
X0067781Y0311301D01*
X0067664Y0311044D01*
X0067540Y0310790D01*
X0067410Y0310540D01*
X0067274Y0310293D01*
X0067132Y0310049D01*
X0066984Y0309809D01*
X0066830Y0309572D01*
X0066670Y0309339D01*
X0066505Y0309110D01*
X0066334Y0308886D01*
X0066158Y0308665D01*
X0065976Y0308450D01*
X0065789Y0308238D01*
X0065597Y0308031D01*
X0065400Y0307829D01*
X0065198Y0307632D01*
X0064991Y0307440D01*
X0064779Y0307253D01*
X0064564Y0307071D01*
X0064343Y0306895D01*
X0064119Y0306724D01*
X0063890Y0306559D01*
X0063657Y0306399D01*
X0063420Y0306245D01*
X0063180Y0306097D01*
X0062936Y0305955D01*
X0062689Y0305819D01*
X0062439Y0305689D01*
X0062185Y0305565D01*
X0061928Y0305448D01*
X0061669Y0305336D01*
X0061407Y0305232D01*
X0061142Y0305133D01*
X0060875Y0305041D01*
X0060606Y0304956D01*
X0060335Y0304878D01*
X0060062Y0304806D01*
X0059788Y0304740D01*
X0059512Y0304682D01*
X0059234Y0304630D01*
X0058955Y0304585D01*
X0058676Y0304547D01*
X0058395Y0304516D01*
X0058114Y0304492D01*
X0057832Y0304475D01*
X0057550Y0304464D01*
X0057268Y0304461D01*
X0056986Y0304464D01*
X0056704Y0304475D01*
X0056422Y0304492D01*
X0056141Y0304516D01*
X0055860Y0304547D01*
X0055581Y0304585D01*
X0055302Y0304630D01*
X0055024Y0304682D01*
X0054748Y0304740D01*
X0054474Y0304806D01*
X0054201Y0304878D01*
X0053930Y0304956D01*
X0053661Y0305041D01*
X0053394Y0305133D01*
X0053129Y0305232D01*
X0052867Y0305336D01*
X0052608Y0305448D01*
X0052351Y0305565D01*
X0052097Y0305689D01*
X0051847Y0305819D01*
X0051600Y0305955D01*
X0051356Y0306097D01*
X0051116Y0306245D01*
X0050879Y0306399D01*
X0050646Y0306559D01*
X0050417Y0306724D01*
X0050193Y0306895D01*
X0049972Y0307071D01*
X0049757Y0307253D01*
X0049545Y0307440D01*
X0049338Y0307632D01*
X0049136Y0307829D01*
X0048939Y0308031D01*
X0048747Y0308238D01*
X0048560Y0308450D01*
X0048378Y0308665D01*
X0048202Y0308886D01*
X0048031Y0309110D01*
X0047866Y0309339D01*
X0047706Y0309572D01*
X0047552Y0309809D01*
X0047404Y0310049D01*
X0047262Y0310293D01*
X0047126Y0310540D01*
X0046996Y0310790D01*
X0046872Y0311044D01*
X0046755Y0311301D01*
X0046643Y0311560D01*
X0046539Y0311822D01*
X0046440Y0312087D01*
X0046348Y0312354D01*
X0046263Y0312623D01*
X0046185Y0312894D01*
X0046113Y0313167D01*
X0046047Y0313441D01*
X0045989Y0313717D01*
X0045937Y0313995D01*
X0045892Y0314274D01*
X0045854Y0314553D01*
X0045823Y0314834D01*
X0045799Y0315115D01*
X0045782Y0315397D01*
X0045771Y0315679D01*
X0045768Y0315961D01*
D14*
X0062740Y0151185D03*
X0075417Y0139398D03*
X0091165Y0140579D03*
X0047858Y0140972D03*
X0014000Y0035831D03*
X0029669Y0024043D03*
X0076992Y0034256D03*
X0090299Y0033469D03*
X0219669Y0034256D03*
X0231953Y0023650D03*
X0292031Y0034650D03*
X0303843Y0035831D03*
X0267386Y0142154D03*
X0251638Y0140972D03*
X0238409Y0151579D03*
X0222661Y0152760D03*
D15*
X0014000Y0018581D03*
X0029669Y0017793D03*
X0029669Y0041293D03*
X0014000Y0042081D03*
X0076992Y0040506D03*
X0090299Y0039719D03*
X0076992Y0017006D03*
X0090299Y0016219D03*
X0075417Y0133148D03*
X0062740Y0133935D03*
X0047858Y0134722D03*
X0047858Y0158222D03*
X0062740Y0157435D03*
X0075417Y0156648D03*
X0091165Y0157829D03*
X0091165Y0134329D03*
X0222661Y0135510D03*
X0238409Y0134329D03*
X0251638Y0134722D03*
X0267386Y0135904D03*
X0267386Y0159404D03*
X0251638Y0158222D03*
X0238409Y0157829D03*
X0222661Y0159010D03*
X0231953Y0040900D03*
X0219669Y0040506D03*
X0219669Y0017006D03*
X0231953Y0017400D03*
X0292031Y0017400D03*
X0303843Y0018581D03*
X0303843Y0042081D03*
X0292031Y0040900D03*
D16*
X0233640Y0264976D03*
X0233640Y0274976D03*
X0233640Y0284976D03*
D17*
X0240390Y0284976D03*
X0240390Y0274976D03*
X0240390Y0264976D03*
D18*
X0240689Y0296826D02*
X0241740Y0297877D01*
X0240689Y0296826D02*
X0238588Y0296826D01*
X0237537Y0297877D01*
X0237537Y0302081D01*
X0238588Y0303132D01*
X0240689Y0303132D01*
X0241740Y0302081D01*
X0243982Y0301030D02*
X0246084Y0303132D01*
X0246084Y0296826D01*
X0243982Y0296826D02*
X0248186Y0296826D01*
X0235342Y0296826D02*
X0233240Y0296826D01*
X0234291Y0296826D02*
X0234291Y0303132D01*
X0233240Y0303132D02*
X0235342Y0303132D01*
X0021922Y0207822D02*
X0021922Y0204953D01*
X0021922Y0206387D02*
X0017618Y0206387D01*
X0019053Y0204953D01*
X0019353Y0180322D02*
X0018636Y0180322D01*
X0017918Y0179605D01*
X0017918Y0178170D01*
X0018636Y0177453D01*
X0019353Y0180322D02*
X0022222Y0177453D01*
X0022222Y0180322D01*
D19*
X0037042Y0177001D02*
X0039144Y0174899D01*
X0039144Y0177702D01*
X0041246Y0177001D02*
X0037042Y0177001D01*
X0037042Y0173098D02*
X0041246Y0173098D01*
X0039144Y0173098D02*
X0039144Y0170295D01*
X0039844Y0168494D02*
X0040545Y0168494D01*
X0041246Y0167793D01*
X0041246Y0166392D01*
X0040545Y0165691D01*
X0039144Y0166392D02*
X0038443Y0165691D01*
X0037743Y0165691D01*
X0037042Y0166392D01*
X0037042Y0167793D01*
X0037743Y0168494D01*
X0039144Y0167793D02*
X0039844Y0168494D01*
X0039144Y0167793D02*
X0039144Y0166392D01*
X0041246Y0170295D02*
X0037042Y0170295D01*
X0024797Y0205061D02*
X0025498Y0205762D01*
X0025498Y0207163D01*
X0024797Y0207864D01*
X0024096Y0207864D01*
X0023396Y0207163D01*
X0023396Y0205762D01*
X0022695Y0205061D01*
X0021995Y0205061D01*
X0021294Y0205762D01*
X0021294Y0207163D01*
X0021995Y0207864D01*
X0021294Y0209665D02*
X0025498Y0209665D01*
X0023396Y0209665D02*
X0023396Y0212468D01*
X0021294Y0212468D02*
X0025498Y0212468D01*
X0024797Y0214269D02*
X0025498Y0214970D01*
X0025498Y0216371D01*
X0024797Y0217072D01*
X0024096Y0217072D01*
X0023396Y0216371D01*
X0023396Y0215670D01*
X0023396Y0216371D02*
X0022695Y0217072D01*
X0021995Y0217072D01*
X0021294Y0216371D01*
X0021294Y0214970D01*
X0021995Y0214269D01*
X0047701Y0234883D02*
X0048921Y0235803D01*
X0048921Y0237614D01*
X0047701Y0236663D02*
X0048861Y0235903D01*
X0048921Y0235803D02*
X0048921Y0233992D01*
X0048921Y0248992D02*
X0048921Y0250803D01*
X0047701Y0249883D01*
X0048921Y0250803D02*
X0048921Y0252614D01*
X0047701Y0251663D02*
X0048861Y0250903D01*
X0048921Y0263992D02*
X0048921Y0265803D01*
X0047701Y0264883D01*
X0048921Y0265803D02*
X0048921Y0267614D01*
X0047701Y0266663D02*
X0048861Y0265903D01*
X0048921Y0278992D02*
X0048921Y0280803D01*
X0047701Y0279883D01*
X0048921Y0280803D02*
X0048921Y0282614D01*
X0047701Y0281663D02*
X0048861Y0280903D01*
X0048921Y0293992D02*
X0048921Y0295803D01*
X0047701Y0294883D01*
X0048921Y0295803D02*
X0048921Y0297614D01*
X0047701Y0296663D02*
X0048861Y0295903D01*
X0051362Y0315961D02*
X0051364Y0316114D01*
X0051370Y0316268D01*
X0051380Y0316421D01*
X0051394Y0316573D01*
X0051412Y0316726D01*
X0051434Y0316877D01*
X0051459Y0317028D01*
X0051489Y0317179D01*
X0051523Y0317329D01*
X0051560Y0317477D01*
X0051601Y0317625D01*
X0051646Y0317771D01*
X0051695Y0317917D01*
X0051748Y0318061D01*
X0051804Y0318203D01*
X0051864Y0318344D01*
X0051928Y0318484D01*
X0051995Y0318622D01*
X0052066Y0318758D01*
X0052141Y0318892D01*
X0052218Y0319024D01*
X0052300Y0319154D01*
X0052384Y0319282D01*
X0052472Y0319408D01*
X0052563Y0319531D01*
X0052657Y0319652D01*
X0052755Y0319770D01*
X0052855Y0319886D01*
X0052959Y0319999D01*
X0053065Y0320110D01*
X0053174Y0320218D01*
X0053286Y0320323D01*
X0053400Y0320424D01*
X0053518Y0320523D01*
X0053637Y0320619D01*
X0053759Y0320712D01*
X0053884Y0320801D01*
X0054011Y0320888D01*
X0054140Y0320970D01*
X0054271Y0321050D01*
X0054404Y0321126D01*
X0054539Y0321199D01*
X0054676Y0321268D01*
X0054815Y0321333D01*
X0054955Y0321395D01*
X0055097Y0321453D01*
X0055240Y0321508D01*
X0055385Y0321559D01*
X0055531Y0321606D01*
X0055678Y0321649D01*
X0055826Y0321688D01*
X0055975Y0321724D01*
X0056125Y0321755D01*
X0056276Y0321783D01*
X0056427Y0321807D01*
X0056580Y0321827D01*
X0056732Y0321843D01*
X0056885Y0321855D01*
X0057038Y0321863D01*
X0057191Y0321867D01*
X0057345Y0321867D01*
X0057498Y0321863D01*
X0057651Y0321855D01*
X0057804Y0321843D01*
X0057956Y0321827D01*
X0058109Y0321807D01*
X0058260Y0321783D01*
X0058411Y0321755D01*
X0058561Y0321724D01*
X0058710Y0321688D01*
X0058858Y0321649D01*
X0059005Y0321606D01*
X0059151Y0321559D01*
X0059296Y0321508D01*
X0059439Y0321453D01*
X0059581Y0321395D01*
X0059721Y0321333D01*
X0059860Y0321268D01*
X0059997Y0321199D01*
X0060132Y0321126D01*
X0060265Y0321050D01*
X0060396Y0320970D01*
X0060525Y0320888D01*
X0060652Y0320801D01*
X0060777Y0320712D01*
X0060899Y0320619D01*
X0061018Y0320523D01*
X0061136Y0320424D01*
X0061250Y0320323D01*
X0061362Y0320218D01*
X0061471Y0320110D01*
X0061577Y0319999D01*
X0061681Y0319886D01*
X0061781Y0319770D01*
X0061879Y0319652D01*
X0061973Y0319531D01*
X0062064Y0319408D01*
X0062152Y0319282D01*
X0062236Y0319154D01*
X0062318Y0319024D01*
X0062395Y0318892D01*
X0062470Y0318758D01*
X0062541Y0318622D01*
X0062608Y0318484D01*
X0062672Y0318344D01*
X0062732Y0318203D01*
X0062788Y0318061D01*
X0062841Y0317917D01*
X0062890Y0317771D01*
X0062935Y0317625D01*
X0062976Y0317477D01*
X0063013Y0317329D01*
X0063047Y0317179D01*
X0063077Y0317028D01*
X0063102Y0316877D01*
X0063124Y0316726D01*
X0063142Y0316573D01*
X0063156Y0316421D01*
X0063166Y0316268D01*
X0063172Y0316114D01*
X0063174Y0315961D01*
X0063172Y0315808D01*
X0063166Y0315654D01*
X0063156Y0315501D01*
X0063142Y0315349D01*
X0063124Y0315196D01*
X0063102Y0315045D01*
X0063077Y0314894D01*
X0063047Y0314743D01*
X0063013Y0314593D01*
X0062976Y0314445D01*
X0062935Y0314297D01*
X0062890Y0314151D01*
X0062841Y0314005D01*
X0062788Y0313861D01*
X0062732Y0313719D01*
X0062672Y0313578D01*
X0062608Y0313438D01*
X0062541Y0313300D01*
X0062470Y0313164D01*
X0062395Y0313030D01*
X0062318Y0312898D01*
X0062236Y0312768D01*
X0062152Y0312640D01*
X0062064Y0312514D01*
X0061973Y0312391D01*
X0061879Y0312270D01*
X0061781Y0312152D01*
X0061681Y0312036D01*
X0061577Y0311923D01*
X0061471Y0311812D01*
X0061362Y0311704D01*
X0061250Y0311599D01*
X0061136Y0311498D01*
X0061018Y0311399D01*
X0060899Y0311303D01*
X0060777Y0311210D01*
X0060652Y0311121D01*
X0060525Y0311034D01*
X0060396Y0310952D01*
X0060265Y0310872D01*
X0060132Y0310796D01*
X0059997Y0310723D01*
X0059860Y0310654D01*
X0059721Y0310589D01*
X0059581Y0310527D01*
X0059439Y0310469D01*
X0059296Y0310414D01*
X0059151Y0310363D01*
X0059005Y0310316D01*
X0058858Y0310273D01*
X0058710Y0310234D01*
X0058561Y0310198D01*
X0058411Y0310167D01*
X0058260Y0310139D01*
X0058109Y0310115D01*
X0057956Y0310095D01*
X0057804Y0310079D01*
X0057651Y0310067D01*
X0057498Y0310059D01*
X0057345Y0310055D01*
X0057191Y0310055D01*
X0057038Y0310059D01*
X0056885Y0310067D01*
X0056732Y0310079D01*
X0056580Y0310095D01*
X0056427Y0310115D01*
X0056276Y0310139D01*
X0056125Y0310167D01*
X0055975Y0310198D01*
X0055826Y0310234D01*
X0055678Y0310273D01*
X0055531Y0310316D01*
X0055385Y0310363D01*
X0055240Y0310414D01*
X0055097Y0310469D01*
X0054955Y0310527D01*
X0054815Y0310589D01*
X0054676Y0310654D01*
X0054539Y0310723D01*
X0054404Y0310796D01*
X0054271Y0310872D01*
X0054140Y0310952D01*
X0054011Y0311034D01*
X0053884Y0311121D01*
X0053759Y0311210D01*
X0053637Y0311303D01*
X0053518Y0311399D01*
X0053400Y0311498D01*
X0053286Y0311599D01*
X0053174Y0311704D01*
X0053065Y0311812D01*
X0052959Y0311923D01*
X0052855Y0312036D01*
X0052755Y0312152D01*
X0052657Y0312270D01*
X0052563Y0312391D01*
X0052472Y0312514D01*
X0052384Y0312640D01*
X0052300Y0312768D01*
X0052218Y0312898D01*
X0052141Y0313030D01*
X0052066Y0313164D01*
X0051995Y0313300D01*
X0051928Y0313438D01*
X0051864Y0313578D01*
X0051804Y0313719D01*
X0051748Y0313861D01*
X0051695Y0314005D01*
X0051646Y0314151D01*
X0051601Y0314297D01*
X0051560Y0314445D01*
X0051523Y0314593D01*
X0051489Y0314743D01*
X0051459Y0314894D01*
X0051434Y0315045D01*
X0051412Y0315196D01*
X0051394Y0315349D01*
X0051380Y0315501D01*
X0051370Y0315654D01*
X0051364Y0315808D01*
X0051362Y0315961D01*
X0081402Y0316039D02*
X0081402Y0306197D01*
X0162110Y0306197D01*
X0162110Y0316039D01*
X0081402Y0316039D01*
X0081402Y0229425D02*
X0162110Y0229425D01*
X0162110Y0219583D01*
X0081402Y0219583D01*
X0081402Y0229425D01*
X0127150Y0145606D02*
X0197150Y0145606D01*
X0197150Y0005606D01*
X0167150Y0005606D01*
X0167150Y0010606D01*
X0157150Y0010606D01*
X0157150Y0005606D01*
X0127150Y0005606D01*
X0127150Y0145606D01*
X0097425Y0110764D02*
X0102543Y0105646D01*
X0102543Y0093835D01*
X0099945Y0093835D01*
X0099945Y0083205D01*
X0102543Y0083205D01*
X0102543Y0066669D01*
X0102307Y0066669D02*
X0096402Y0066669D01*
X0047425Y0016748D02*
X0047427Y0016901D01*
X0047433Y0017055D01*
X0047443Y0017208D01*
X0047457Y0017360D01*
X0047475Y0017513D01*
X0047497Y0017664D01*
X0047522Y0017815D01*
X0047552Y0017966D01*
X0047586Y0018116D01*
X0047623Y0018264D01*
X0047664Y0018412D01*
X0047709Y0018558D01*
X0047758Y0018704D01*
X0047811Y0018848D01*
X0047867Y0018990D01*
X0047927Y0019131D01*
X0047991Y0019271D01*
X0048058Y0019409D01*
X0048129Y0019545D01*
X0048204Y0019679D01*
X0048281Y0019811D01*
X0048363Y0019941D01*
X0048447Y0020069D01*
X0048535Y0020195D01*
X0048626Y0020318D01*
X0048720Y0020439D01*
X0048818Y0020557D01*
X0048918Y0020673D01*
X0049022Y0020786D01*
X0049128Y0020897D01*
X0049237Y0021005D01*
X0049349Y0021110D01*
X0049463Y0021211D01*
X0049581Y0021310D01*
X0049700Y0021406D01*
X0049822Y0021499D01*
X0049947Y0021588D01*
X0050074Y0021675D01*
X0050203Y0021757D01*
X0050334Y0021837D01*
X0050467Y0021913D01*
X0050602Y0021986D01*
X0050739Y0022055D01*
X0050878Y0022120D01*
X0051018Y0022182D01*
X0051160Y0022240D01*
X0051303Y0022295D01*
X0051448Y0022346D01*
X0051594Y0022393D01*
X0051741Y0022436D01*
X0051889Y0022475D01*
X0052038Y0022511D01*
X0052188Y0022542D01*
X0052339Y0022570D01*
X0052490Y0022594D01*
X0052643Y0022614D01*
X0052795Y0022630D01*
X0052948Y0022642D01*
X0053101Y0022650D01*
X0053254Y0022654D01*
X0053408Y0022654D01*
X0053561Y0022650D01*
X0053714Y0022642D01*
X0053867Y0022630D01*
X0054019Y0022614D01*
X0054172Y0022594D01*
X0054323Y0022570D01*
X0054474Y0022542D01*
X0054624Y0022511D01*
X0054773Y0022475D01*
X0054921Y0022436D01*
X0055068Y0022393D01*
X0055214Y0022346D01*
X0055359Y0022295D01*
X0055502Y0022240D01*
X0055644Y0022182D01*
X0055784Y0022120D01*
X0055923Y0022055D01*
X0056060Y0021986D01*
X0056195Y0021913D01*
X0056328Y0021837D01*
X0056459Y0021757D01*
X0056588Y0021675D01*
X0056715Y0021588D01*
X0056840Y0021499D01*
X0056962Y0021406D01*
X0057081Y0021310D01*
X0057199Y0021211D01*
X0057313Y0021110D01*
X0057425Y0021005D01*
X0057534Y0020897D01*
X0057640Y0020786D01*
X0057744Y0020673D01*
X0057844Y0020557D01*
X0057942Y0020439D01*
X0058036Y0020318D01*
X0058127Y0020195D01*
X0058215Y0020069D01*
X0058299Y0019941D01*
X0058381Y0019811D01*
X0058458Y0019679D01*
X0058533Y0019545D01*
X0058604Y0019409D01*
X0058671Y0019271D01*
X0058735Y0019131D01*
X0058795Y0018990D01*
X0058851Y0018848D01*
X0058904Y0018704D01*
X0058953Y0018558D01*
X0058998Y0018412D01*
X0059039Y0018264D01*
X0059076Y0018116D01*
X0059110Y0017966D01*
X0059140Y0017815D01*
X0059165Y0017664D01*
X0059187Y0017513D01*
X0059205Y0017360D01*
X0059219Y0017208D01*
X0059229Y0017055D01*
X0059235Y0016901D01*
X0059237Y0016748D01*
X0059235Y0016595D01*
X0059229Y0016441D01*
X0059219Y0016288D01*
X0059205Y0016136D01*
X0059187Y0015983D01*
X0059165Y0015832D01*
X0059140Y0015681D01*
X0059110Y0015530D01*
X0059076Y0015380D01*
X0059039Y0015232D01*
X0058998Y0015084D01*
X0058953Y0014938D01*
X0058904Y0014792D01*
X0058851Y0014648D01*
X0058795Y0014506D01*
X0058735Y0014365D01*
X0058671Y0014225D01*
X0058604Y0014087D01*
X0058533Y0013951D01*
X0058458Y0013817D01*
X0058381Y0013685D01*
X0058299Y0013555D01*
X0058215Y0013427D01*
X0058127Y0013301D01*
X0058036Y0013178D01*
X0057942Y0013057D01*
X0057844Y0012939D01*
X0057744Y0012823D01*
X0057640Y0012710D01*
X0057534Y0012599D01*
X0057425Y0012491D01*
X0057313Y0012386D01*
X0057199Y0012285D01*
X0057081Y0012186D01*
X0056962Y0012090D01*
X0056840Y0011997D01*
X0056715Y0011908D01*
X0056588Y0011821D01*
X0056459Y0011739D01*
X0056328Y0011659D01*
X0056195Y0011583D01*
X0056060Y0011510D01*
X0055923Y0011441D01*
X0055784Y0011376D01*
X0055644Y0011314D01*
X0055502Y0011256D01*
X0055359Y0011201D01*
X0055214Y0011150D01*
X0055068Y0011103D01*
X0054921Y0011060D01*
X0054773Y0011021D01*
X0054624Y0010985D01*
X0054474Y0010954D01*
X0054323Y0010926D01*
X0054172Y0010902D01*
X0054019Y0010882D01*
X0053867Y0010866D01*
X0053714Y0010854D01*
X0053561Y0010846D01*
X0053408Y0010842D01*
X0053254Y0010842D01*
X0053101Y0010846D01*
X0052948Y0010854D01*
X0052795Y0010866D01*
X0052643Y0010882D01*
X0052490Y0010902D01*
X0052339Y0010926D01*
X0052188Y0010954D01*
X0052038Y0010985D01*
X0051889Y0011021D01*
X0051741Y0011060D01*
X0051594Y0011103D01*
X0051448Y0011150D01*
X0051303Y0011201D01*
X0051160Y0011256D01*
X0051018Y0011314D01*
X0050878Y0011376D01*
X0050739Y0011441D01*
X0050602Y0011510D01*
X0050467Y0011583D01*
X0050334Y0011659D01*
X0050203Y0011739D01*
X0050074Y0011821D01*
X0049947Y0011908D01*
X0049822Y0011997D01*
X0049700Y0012090D01*
X0049581Y0012186D01*
X0049463Y0012285D01*
X0049349Y0012386D01*
X0049237Y0012491D01*
X0049128Y0012599D01*
X0049022Y0012710D01*
X0048918Y0012823D01*
X0048818Y0012939D01*
X0048720Y0013057D01*
X0048626Y0013178D01*
X0048535Y0013301D01*
X0048447Y0013427D01*
X0048363Y0013555D01*
X0048281Y0013685D01*
X0048204Y0013817D01*
X0048129Y0013951D01*
X0048058Y0014087D01*
X0047991Y0014225D01*
X0047927Y0014365D01*
X0047867Y0014506D01*
X0047811Y0014648D01*
X0047758Y0014792D01*
X0047709Y0014938D01*
X0047664Y0015084D01*
X0047623Y0015232D01*
X0047586Y0015380D01*
X0047552Y0015530D01*
X0047522Y0015681D01*
X0047497Y0015832D01*
X0047475Y0015983D01*
X0047457Y0016136D01*
X0047443Y0016288D01*
X0047433Y0016441D01*
X0047427Y0016595D01*
X0047425Y0016748D01*
X0046795Y0066669D02*
X0040890Y0066669D01*
X0040654Y0066669D02*
X0040654Y0083598D01*
X0043252Y0083598D01*
X0043252Y0094228D01*
X0040654Y0094228D01*
X0040654Y0110764D01*
X0040890Y0110764D02*
X0046795Y0110764D01*
X0214079Y0110764D02*
X0214079Y0094228D01*
X0216677Y0094228D01*
X0216677Y0083598D01*
X0214079Y0083598D01*
X0214079Y0066669D01*
X0214315Y0066669D02*
X0220220Y0066669D01*
X0220220Y0110764D02*
X0214315Y0110764D01*
X0269827Y0066669D02*
X0275732Y0066669D01*
X0275969Y0066669D02*
X0275969Y0083205D01*
X0273370Y0083205D01*
X0273370Y0093835D01*
X0275969Y0093835D01*
X0275969Y0105646D01*
X0270850Y0110764D01*
X0260023Y0016748D02*
X0260025Y0016901D01*
X0260031Y0017055D01*
X0260041Y0017208D01*
X0260055Y0017360D01*
X0260073Y0017513D01*
X0260095Y0017664D01*
X0260120Y0017815D01*
X0260150Y0017966D01*
X0260184Y0018116D01*
X0260221Y0018264D01*
X0260262Y0018412D01*
X0260307Y0018558D01*
X0260356Y0018704D01*
X0260409Y0018848D01*
X0260465Y0018990D01*
X0260525Y0019131D01*
X0260589Y0019271D01*
X0260656Y0019409D01*
X0260727Y0019545D01*
X0260802Y0019679D01*
X0260879Y0019811D01*
X0260961Y0019941D01*
X0261045Y0020069D01*
X0261133Y0020195D01*
X0261224Y0020318D01*
X0261318Y0020439D01*
X0261416Y0020557D01*
X0261516Y0020673D01*
X0261620Y0020786D01*
X0261726Y0020897D01*
X0261835Y0021005D01*
X0261947Y0021110D01*
X0262061Y0021211D01*
X0262179Y0021310D01*
X0262298Y0021406D01*
X0262420Y0021499D01*
X0262545Y0021588D01*
X0262672Y0021675D01*
X0262801Y0021757D01*
X0262932Y0021837D01*
X0263065Y0021913D01*
X0263200Y0021986D01*
X0263337Y0022055D01*
X0263476Y0022120D01*
X0263616Y0022182D01*
X0263758Y0022240D01*
X0263901Y0022295D01*
X0264046Y0022346D01*
X0264192Y0022393D01*
X0264339Y0022436D01*
X0264487Y0022475D01*
X0264636Y0022511D01*
X0264786Y0022542D01*
X0264937Y0022570D01*
X0265088Y0022594D01*
X0265241Y0022614D01*
X0265393Y0022630D01*
X0265546Y0022642D01*
X0265699Y0022650D01*
X0265852Y0022654D01*
X0266006Y0022654D01*
X0266159Y0022650D01*
X0266312Y0022642D01*
X0266465Y0022630D01*
X0266617Y0022614D01*
X0266770Y0022594D01*
X0266921Y0022570D01*
X0267072Y0022542D01*
X0267222Y0022511D01*
X0267371Y0022475D01*
X0267519Y0022436D01*
X0267666Y0022393D01*
X0267812Y0022346D01*
X0267957Y0022295D01*
X0268100Y0022240D01*
X0268242Y0022182D01*
X0268382Y0022120D01*
X0268521Y0022055D01*
X0268658Y0021986D01*
X0268793Y0021913D01*
X0268926Y0021837D01*
X0269057Y0021757D01*
X0269186Y0021675D01*
X0269313Y0021588D01*
X0269438Y0021499D01*
X0269560Y0021406D01*
X0269679Y0021310D01*
X0269797Y0021211D01*
X0269911Y0021110D01*
X0270023Y0021005D01*
X0270132Y0020897D01*
X0270238Y0020786D01*
X0270342Y0020673D01*
X0270442Y0020557D01*
X0270540Y0020439D01*
X0270634Y0020318D01*
X0270725Y0020195D01*
X0270813Y0020069D01*
X0270897Y0019941D01*
X0270979Y0019811D01*
X0271056Y0019679D01*
X0271131Y0019545D01*
X0271202Y0019409D01*
X0271269Y0019271D01*
X0271333Y0019131D01*
X0271393Y0018990D01*
X0271449Y0018848D01*
X0271502Y0018704D01*
X0271551Y0018558D01*
X0271596Y0018412D01*
X0271637Y0018264D01*
X0271674Y0018116D01*
X0271708Y0017966D01*
X0271738Y0017815D01*
X0271763Y0017664D01*
X0271785Y0017513D01*
X0271803Y0017360D01*
X0271817Y0017208D01*
X0271827Y0017055D01*
X0271833Y0016901D01*
X0271835Y0016748D01*
X0271833Y0016595D01*
X0271827Y0016441D01*
X0271817Y0016288D01*
X0271803Y0016136D01*
X0271785Y0015983D01*
X0271763Y0015832D01*
X0271738Y0015681D01*
X0271708Y0015530D01*
X0271674Y0015380D01*
X0271637Y0015232D01*
X0271596Y0015084D01*
X0271551Y0014938D01*
X0271502Y0014792D01*
X0271449Y0014648D01*
X0271393Y0014506D01*
X0271333Y0014365D01*
X0271269Y0014225D01*
X0271202Y0014087D01*
X0271131Y0013951D01*
X0271056Y0013817D01*
X0270979Y0013685D01*
X0270897Y0013555D01*
X0270813Y0013427D01*
X0270725Y0013301D01*
X0270634Y0013178D01*
X0270540Y0013057D01*
X0270442Y0012939D01*
X0270342Y0012823D01*
X0270238Y0012710D01*
X0270132Y0012599D01*
X0270023Y0012491D01*
X0269911Y0012386D01*
X0269797Y0012285D01*
X0269679Y0012186D01*
X0269560Y0012090D01*
X0269438Y0011997D01*
X0269313Y0011908D01*
X0269186Y0011821D01*
X0269057Y0011739D01*
X0268926Y0011659D01*
X0268793Y0011583D01*
X0268658Y0011510D01*
X0268521Y0011441D01*
X0268382Y0011376D01*
X0268242Y0011314D01*
X0268100Y0011256D01*
X0267957Y0011201D01*
X0267812Y0011150D01*
X0267666Y0011103D01*
X0267519Y0011060D01*
X0267371Y0011021D01*
X0267222Y0010985D01*
X0267072Y0010954D01*
X0266921Y0010926D01*
X0266770Y0010902D01*
X0266617Y0010882D01*
X0266465Y0010866D01*
X0266312Y0010854D01*
X0266159Y0010846D01*
X0266006Y0010842D01*
X0265852Y0010842D01*
X0265699Y0010846D01*
X0265546Y0010854D01*
X0265393Y0010866D01*
X0265241Y0010882D01*
X0265088Y0010902D01*
X0264937Y0010926D01*
X0264786Y0010954D01*
X0264636Y0010985D01*
X0264487Y0011021D01*
X0264339Y0011060D01*
X0264192Y0011103D01*
X0264046Y0011150D01*
X0263901Y0011201D01*
X0263758Y0011256D01*
X0263616Y0011314D01*
X0263476Y0011376D01*
X0263337Y0011441D01*
X0263200Y0011510D01*
X0263065Y0011583D01*
X0262932Y0011659D01*
X0262801Y0011739D01*
X0262672Y0011821D01*
X0262545Y0011908D01*
X0262420Y0011997D01*
X0262298Y0012090D01*
X0262179Y0012186D01*
X0262061Y0012285D01*
X0261947Y0012386D01*
X0261835Y0012491D01*
X0261726Y0012599D01*
X0261620Y0012710D01*
X0261516Y0012823D01*
X0261416Y0012939D01*
X0261318Y0013057D01*
X0261224Y0013178D01*
X0261133Y0013301D01*
X0261045Y0013427D01*
X0260961Y0013555D01*
X0260879Y0013685D01*
X0260802Y0013817D01*
X0260727Y0013951D01*
X0260656Y0014087D01*
X0260589Y0014225D01*
X0260525Y0014365D01*
X0260465Y0014506D01*
X0260409Y0014648D01*
X0260356Y0014792D01*
X0260307Y0014938D01*
X0260262Y0015084D01*
X0260221Y0015232D01*
X0260184Y0015380D01*
X0260150Y0015530D01*
X0260120Y0015681D01*
X0260095Y0015832D01*
X0260073Y0015983D01*
X0260055Y0016136D01*
X0260041Y0016288D01*
X0260031Y0016441D01*
X0260025Y0016595D01*
X0260023Y0016748D01*
X0256086Y0315961D02*
X0256088Y0316114D01*
X0256094Y0316268D01*
X0256104Y0316421D01*
X0256118Y0316573D01*
X0256136Y0316726D01*
X0256158Y0316877D01*
X0256183Y0317028D01*
X0256213Y0317179D01*
X0256247Y0317329D01*
X0256284Y0317477D01*
X0256325Y0317625D01*
X0256370Y0317771D01*
X0256419Y0317917D01*
X0256472Y0318061D01*
X0256528Y0318203D01*
X0256588Y0318344D01*
X0256652Y0318484D01*
X0256719Y0318622D01*
X0256790Y0318758D01*
X0256865Y0318892D01*
X0256942Y0319024D01*
X0257024Y0319154D01*
X0257108Y0319282D01*
X0257196Y0319408D01*
X0257287Y0319531D01*
X0257381Y0319652D01*
X0257479Y0319770D01*
X0257579Y0319886D01*
X0257683Y0319999D01*
X0257789Y0320110D01*
X0257898Y0320218D01*
X0258010Y0320323D01*
X0258124Y0320424D01*
X0258242Y0320523D01*
X0258361Y0320619D01*
X0258483Y0320712D01*
X0258608Y0320801D01*
X0258735Y0320888D01*
X0258864Y0320970D01*
X0258995Y0321050D01*
X0259128Y0321126D01*
X0259263Y0321199D01*
X0259400Y0321268D01*
X0259539Y0321333D01*
X0259679Y0321395D01*
X0259821Y0321453D01*
X0259964Y0321508D01*
X0260109Y0321559D01*
X0260255Y0321606D01*
X0260402Y0321649D01*
X0260550Y0321688D01*
X0260699Y0321724D01*
X0260849Y0321755D01*
X0261000Y0321783D01*
X0261151Y0321807D01*
X0261304Y0321827D01*
X0261456Y0321843D01*
X0261609Y0321855D01*
X0261762Y0321863D01*
X0261915Y0321867D01*
X0262069Y0321867D01*
X0262222Y0321863D01*
X0262375Y0321855D01*
X0262528Y0321843D01*
X0262680Y0321827D01*
X0262833Y0321807D01*
X0262984Y0321783D01*
X0263135Y0321755D01*
X0263285Y0321724D01*
X0263434Y0321688D01*
X0263582Y0321649D01*
X0263729Y0321606D01*
X0263875Y0321559D01*
X0264020Y0321508D01*
X0264163Y0321453D01*
X0264305Y0321395D01*
X0264445Y0321333D01*
X0264584Y0321268D01*
X0264721Y0321199D01*
X0264856Y0321126D01*
X0264989Y0321050D01*
X0265120Y0320970D01*
X0265249Y0320888D01*
X0265376Y0320801D01*
X0265501Y0320712D01*
X0265623Y0320619D01*
X0265742Y0320523D01*
X0265860Y0320424D01*
X0265974Y0320323D01*
X0266086Y0320218D01*
X0266195Y0320110D01*
X0266301Y0319999D01*
X0266405Y0319886D01*
X0266505Y0319770D01*
X0266603Y0319652D01*
X0266697Y0319531D01*
X0266788Y0319408D01*
X0266876Y0319282D01*
X0266960Y0319154D01*
X0267042Y0319024D01*
X0267119Y0318892D01*
X0267194Y0318758D01*
X0267265Y0318622D01*
X0267332Y0318484D01*
X0267396Y0318344D01*
X0267456Y0318203D01*
X0267512Y0318061D01*
X0267565Y0317917D01*
X0267614Y0317771D01*
X0267659Y0317625D01*
X0267700Y0317477D01*
X0267737Y0317329D01*
X0267771Y0317179D01*
X0267801Y0317028D01*
X0267826Y0316877D01*
X0267848Y0316726D01*
X0267866Y0316573D01*
X0267880Y0316421D01*
X0267890Y0316268D01*
X0267896Y0316114D01*
X0267898Y0315961D01*
X0267896Y0315808D01*
X0267890Y0315654D01*
X0267880Y0315501D01*
X0267866Y0315349D01*
X0267848Y0315196D01*
X0267826Y0315045D01*
X0267801Y0314894D01*
X0267771Y0314743D01*
X0267737Y0314593D01*
X0267700Y0314445D01*
X0267659Y0314297D01*
X0267614Y0314151D01*
X0267565Y0314005D01*
X0267512Y0313861D01*
X0267456Y0313719D01*
X0267396Y0313578D01*
X0267332Y0313438D01*
X0267265Y0313300D01*
X0267194Y0313164D01*
X0267119Y0313030D01*
X0267042Y0312898D01*
X0266960Y0312768D01*
X0266876Y0312640D01*
X0266788Y0312514D01*
X0266697Y0312391D01*
X0266603Y0312270D01*
X0266505Y0312152D01*
X0266405Y0312036D01*
X0266301Y0311923D01*
X0266195Y0311812D01*
X0266086Y0311704D01*
X0265974Y0311599D01*
X0265860Y0311498D01*
X0265742Y0311399D01*
X0265623Y0311303D01*
X0265501Y0311210D01*
X0265376Y0311121D01*
X0265249Y0311034D01*
X0265120Y0310952D01*
X0264989Y0310872D01*
X0264856Y0310796D01*
X0264721Y0310723D01*
X0264584Y0310654D01*
X0264445Y0310589D01*
X0264305Y0310527D01*
X0264163Y0310469D01*
X0264020Y0310414D01*
X0263875Y0310363D01*
X0263729Y0310316D01*
X0263582Y0310273D01*
X0263434Y0310234D01*
X0263285Y0310198D01*
X0263135Y0310167D01*
X0262984Y0310139D01*
X0262833Y0310115D01*
X0262680Y0310095D01*
X0262528Y0310079D01*
X0262375Y0310067D01*
X0262222Y0310059D01*
X0262069Y0310055D01*
X0261915Y0310055D01*
X0261762Y0310059D01*
X0261609Y0310067D01*
X0261456Y0310079D01*
X0261304Y0310095D01*
X0261151Y0310115D01*
X0261000Y0310139D01*
X0260849Y0310167D01*
X0260699Y0310198D01*
X0260550Y0310234D01*
X0260402Y0310273D01*
X0260255Y0310316D01*
X0260109Y0310363D01*
X0259964Y0310414D01*
X0259821Y0310469D01*
X0259679Y0310527D01*
X0259539Y0310589D01*
X0259400Y0310654D01*
X0259263Y0310723D01*
X0259128Y0310796D01*
X0258995Y0310872D01*
X0258864Y0310952D01*
X0258735Y0311034D01*
X0258608Y0311121D01*
X0258483Y0311210D01*
X0258361Y0311303D01*
X0258242Y0311399D01*
X0258124Y0311498D01*
X0258010Y0311599D01*
X0257898Y0311704D01*
X0257789Y0311812D01*
X0257683Y0311923D01*
X0257579Y0312036D01*
X0257479Y0312152D01*
X0257381Y0312270D01*
X0257287Y0312391D01*
X0257196Y0312514D01*
X0257108Y0312640D01*
X0257024Y0312768D01*
X0256942Y0312898D01*
X0256865Y0313030D01*
X0256790Y0313164D01*
X0256719Y0313300D01*
X0256652Y0313438D01*
X0256588Y0313578D01*
X0256528Y0313719D01*
X0256472Y0313861D01*
X0256419Y0314005D01*
X0256370Y0314151D01*
X0256325Y0314297D01*
X0256284Y0314445D01*
X0256247Y0314593D01*
X0256213Y0314743D01*
X0256183Y0314894D01*
X0256158Y0315045D01*
X0256136Y0315196D01*
X0256118Y0315349D01*
X0256104Y0315501D01*
X0256094Y0315654D01*
X0256088Y0315808D01*
X0256086Y0315961D01*
D20*
X0155013Y0236808D02*
X0155013Y0235808D01*
X0155013Y0236308D02*
X0153512Y0236308D01*
X0154012Y0235808D01*
X0153762Y0235335D02*
X0154262Y0235335D01*
X0154513Y0235085D01*
X0154513Y0234334D01*
X0155013Y0234334D02*
X0153512Y0234334D01*
X0153512Y0235085D01*
X0153762Y0235335D01*
X0153512Y0233862D02*
X0153512Y0233361D01*
X0153512Y0233612D02*
X0154763Y0233612D01*
X0155013Y0233361D01*
X0155013Y0233111D01*
X0154763Y0232861D01*
X0076424Y0232666D02*
X0074923Y0232666D01*
X0074923Y0233417D01*
X0075173Y0233667D01*
X0075673Y0233667D01*
X0075924Y0233417D01*
X0075924Y0232666D01*
X0075924Y0233167D02*
X0076424Y0233667D01*
X0076424Y0234140D02*
X0076424Y0235141D01*
X0076424Y0234640D02*
X0074923Y0234640D01*
X0075423Y0234140D01*
X0074923Y0247666D02*
X0074923Y0248417D01*
X0075173Y0248667D01*
X0075673Y0248667D01*
X0075924Y0248417D01*
X0075924Y0247666D01*
X0076424Y0247666D02*
X0074923Y0247666D01*
X0075924Y0248167D02*
X0076424Y0248667D01*
X0076424Y0249140D02*
X0075423Y0250141D01*
X0075173Y0250141D01*
X0074923Y0249890D01*
X0074923Y0249390D01*
X0075173Y0249140D01*
X0076424Y0249140D02*
X0076424Y0250141D01*
X0076424Y0262666D02*
X0074923Y0262666D01*
X0074923Y0263417D01*
X0075173Y0263667D01*
X0075673Y0263667D01*
X0075924Y0263417D01*
X0075924Y0262666D01*
X0075924Y0263167D02*
X0076424Y0263667D01*
X0076174Y0264140D02*
X0076424Y0264390D01*
X0076424Y0264890D01*
X0076174Y0265141D01*
X0075924Y0265141D01*
X0075673Y0264890D01*
X0075673Y0264640D01*
X0075673Y0264890D02*
X0075423Y0265141D01*
X0075173Y0265141D01*
X0074923Y0264890D01*
X0074923Y0264390D01*
X0075173Y0264140D01*
X0074923Y0277666D02*
X0074923Y0278417D01*
X0075173Y0278667D01*
X0075673Y0278667D01*
X0075924Y0278417D01*
X0075924Y0277666D01*
X0076424Y0277666D02*
X0074923Y0277666D01*
X0075924Y0278167D02*
X0076424Y0278667D01*
X0075673Y0279140D02*
X0075673Y0280141D01*
X0074923Y0279890D02*
X0075673Y0279140D01*
X0074923Y0279890D02*
X0076424Y0279890D01*
X0076424Y0291193D02*
X0074923Y0291193D01*
X0074923Y0291944D01*
X0075173Y0292194D01*
X0075673Y0292194D01*
X0075924Y0291944D01*
X0075924Y0291193D01*
X0075924Y0291694D02*
X0076424Y0292194D01*
X0076424Y0292666D02*
X0076424Y0293667D01*
X0076424Y0294140D02*
X0076424Y0295141D01*
X0076424Y0294640D02*
X0074923Y0294640D01*
X0075423Y0294140D01*
X0074923Y0293167D02*
X0076424Y0293167D01*
X0075423Y0292666D02*
X0074923Y0293167D01*
X0050223Y0298853D02*
X0049972Y0298603D01*
X0049472Y0298603D01*
X0049222Y0298853D01*
X0048749Y0298853D02*
X0048749Y0299854D01*
X0048499Y0300104D01*
X0047748Y0300104D01*
X0047748Y0298603D01*
X0048499Y0298603D01*
X0048749Y0298853D01*
X0049222Y0299354D02*
X0049722Y0299604D01*
X0049972Y0299604D01*
X0050223Y0299354D01*
X0050223Y0298853D01*
X0049222Y0299354D02*
X0049222Y0300104D01*
X0050223Y0300104D01*
X0047276Y0300104D02*
X0046275Y0300104D01*
X0046275Y0298603D01*
X0047276Y0298603D01*
X0046776Y0299354D02*
X0046275Y0299354D01*
X0045803Y0298603D02*
X0044802Y0298603D01*
X0044802Y0300104D01*
X0044802Y0285104D02*
X0044802Y0283603D01*
X0045803Y0283603D01*
X0046275Y0283603D02*
X0047276Y0283603D01*
X0047748Y0283603D02*
X0048499Y0283603D01*
X0048749Y0283853D01*
X0048749Y0284854D01*
X0048499Y0285104D01*
X0047748Y0285104D01*
X0047748Y0283603D01*
X0046776Y0284354D02*
X0046275Y0284354D01*
X0046275Y0285104D02*
X0046275Y0283603D01*
X0046275Y0285104D02*
X0047276Y0285104D01*
X0049222Y0284354D02*
X0050223Y0284354D01*
X0049972Y0285104D02*
X0049222Y0284354D01*
X0049972Y0285104D02*
X0049972Y0283603D01*
X0049972Y0270104D02*
X0050223Y0269854D01*
X0050223Y0269604D01*
X0049972Y0269354D01*
X0050223Y0269104D01*
X0050223Y0268853D01*
X0049972Y0268603D01*
X0049472Y0268603D01*
X0049222Y0268853D01*
X0048749Y0268853D02*
X0048749Y0269854D01*
X0048499Y0270104D01*
X0047748Y0270104D01*
X0047748Y0268603D01*
X0048499Y0268603D01*
X0048749Y0268853D01*
X0049722Y0269354D02*
X0049972Y0269354D01*
X0049972Y0270104D02*
X0049472Y0270104D01*
X0049222Y0269854D01*
X0047276Y0270104D02*
X0046275Y0270104D01*
X0046275Y0268603D01*
X0047276Y0268603D01*
X0046776Y0269354D02*
X0046275Y0269354D01*
X0045803Y0268603D02*
X0044802Y0268603D01*
X0044802Y0270104D01*
X0044802Y0255104D02*
X0044802Y0253603D01*
X0045803Y0253603D01*
X0046275Y0253603D02*
X0047276Y0253603D01*
X0047748Y0253603D02*
X0048499Y0253603D01*
X0048749Y0253853D01*
X0048749Y0254854D01*
X0048499Y0255104D01*
X0047748Y0255104D01*
X0047748Y0253603D01*
X0046776Y0254354D02*
X0046275Y0254354D01*
X0046275Y0255104D02*
X0046275Y0253603D01*
X0046275Y0255104D02*
X0047276Y0255104D01*
X0049222Y0254854D02*
X0049472Y0255104D01*
X0049972Y0255104D01*
X0050223Y0254854D01*
X0050223Y0254604D01*
X0049222Y0253603D01*
X0050223Y0253603D01*
X0049722Y0240104D02*
X0049722Y0238603D01*
X0049222Y0238603D02*
X0050223Y0238603D01*
X0049222Y0239604D02*
X0049722Y0240104D01*
X0048749Y0239854D02*
X0048499Y0240104D01*
X0047748Y0240104D01*
X0047748Y0238603D01*
X0048499Y0238603D01*
X0048749Y0238853D01*
X0048749Y0239854D01*
X0047276Y0240104D02*
X0046275Y0240104D01*
X0046275Y0238603D01*
X0047276Y0238603D01*
X0046776Y0239354D02*
X0046275Y0239354D01*
X0045803Y0238603D02*
X0044802Y0238603D01*
X0044802Y0240104D01*
D21*
X0071874Y0247063D03*
X0071874Y0262063D03*
X0071874Y0277063D03*
X0071874Y0292063D03*
X0071874Y0232063D03*
D22*
X0031366Y0201709D02*
X0031366Y0199209D01*
X0028866Y0199209D01*
X0028866Y0194209D01*
X0031366Y0194209D01*
X0031366Y0189209D01*
X0028866Y0189209D01*
X0028866Y0184209D01*
X0031366Y0184209D01*
X0031366Y0181709D01*
X0031366Y0191709D01*
X0031366Y0194209D02*
X0031366Y0199209D01*
X0031366Y0201709D02*
X0019866Y0201709D01*
X0008366Y0201709D01*
X0008366Y0196709D02*
X0012366Y0196709D01*
X0014366Y0195709D01*
X0014366Y0187709D01*
X0012366Y0186709D01*
X0012366Y0187709D01*
X0008366Y0187709D01*
X0008366Y0186709D02*
X0012366Y0186709D01*
X0012366Y0187709D02*
X0012366Y0195709D01*
X0008366Y0195709D01*
X0012366Y0195709D02*
X0012366Y0196709D01*
X0008366Y0191709D02*
X0008366Y0186709D01*
X0008366Y0181709D01*
X0019866Y0181709D01*
X0031366Y0181709D01*
M02*
