%
M48
M72
T01C0.0240
T02C0.0315
T03C0.0320
T04C0.0380
T05C0.0400
T06C0.0440
T07C0.0472
T08C0.1102
T09C0.1300
%
T01
X3663Y7200
X3663Y12105
X8388Y9000
X8789Y10219
X11538Y8685
X11898Y8280
X12753Y9720
X10773Y6705
X12888Y5625
X14508Y6075
X12978Y3780
X14238Y3420
X14463Y2925
X15093Y2250
X17073Y1080
X22338Y9495
X22338Y10755
X20403Y10260
X19053Y11115
X20088Y12375
X18918Y12600
X18873Y13905
X18783Y15435
X18963Y17190
X19908Y19395
X19908Y21060
X16623Y20385
X16803Y23625
X12078Y20520
X10683Y23355
X7488Y20250
X9063Y18540
X8613Y15390
X8748Y13545
X11448Y15165
X12168Y15030
X16263Y17100
X16713Y13455
X21933Y13770
X23283Y17190
X23553Y22095
X23553Y25200
X5373Y21015
X4338Y23805
T02
X15092Y11054
X15092Y10267
X15092Y9479
X15092Y8692
X15092Y7904
X15092Y7117
X15092Y6330
X15092Y5542
X15092Y4755
X15092Y3967
X23753Y3967
X23753Y4755
X23753Y5542
X23753Y6330
X23753Y7117
X23753Y7904
X23753Y8692
X23753Y9479
X23753Y10267
X23753Y11054
T03
X22923Y16180
X19923Y16180
X18923Y16180
X15923Y16180
X13923Y16180
X10923Y16180
X9923Y16180
X6923Y16180
T04
X7423Y14180
X8423Y14180
X9423Y14180
X9423Y13180
X9423Y12180
X9423Y11180
X9423Y10180
X9423Y9180
X9423Y8180
X9423Y7180
X8423Y6180
X8423Y5180
X8423Y4180
X7423Y4180
X7423Y3180
X7423Y2180
X8423Y2180
X7423Y1180
X7423Y5180
X7423Y6180
X7423Y7180
X7423Y8180
X7423Y9180
X7423Y10180
X7423Y11180
X7423Y12180
X7423Y13180
X10423Y13180
X10423Y12180
X10423Y11180
X10423Y10180
X10423Y9180
X10423Y8180
X10423Y7180
X13423Y7180
X13423Y6180
X13423Y5180
X13423Y4180
X13423Y3180
X13423Y2180
X13423Y1180
X13423Y8180
X13423Y9180
X13423Y10180
X13423Y11180
X13423Y12180
X13423Y13180
X13423Y14180
X12423Y14180
X11423Y14180
X10423Y14180
T05
X1923Y1562
X1923Y2562
X1923Y3562
X1923Y5849
X1923Y6849
X1923Y7849
X1923Y10137
X1923Y11137
X1923Y12137
X2088Y14546
X2088Y15546
X2088Y16546
X4478Y16495
X5478Y16495
X5478Y15495
X5478Y14495
X4478Y14495
X4478Y15495
X5316Y12255
X5316Y11255
X5316Y10255
X5316Y7861
X5316Y6861
X5316Y5861
X24423Y14467
X24423Y15467
X24423Y16467
X25423Y16467
X25423Y15467
X25423Y14467
X25923Y12149
X25923Y11149
X25923Y10149
X25773Y7893
X25773Y6893
X25773Y5893
X28923Y5806
X28923Y6806
X28923Y7806
X28879Y10219
X28879Y11219
X28879Y12219
X28879Y14546
X28879Y15546
X28879Y16546
X25423Y28180
X25423Y29180
X24423Y29180
X24423Y28180
X23423Y28180
X23423Y29180
X21423Y31180
X20423Y31180
X6923Y29180
X6923Y28180
X5923Y28180
X5923Y29180
X4923Y29180
X4923Y28180
X28923Y3519
X28923Y2519
X28923Y1519
T06
X21029Y17680
X19529Y17680
X18029Y17680
X16529Y17680
X14604Y17680
X13104Y17680
X11604Y17680
X10104Y17680
X10104Y21680
X10104Y22680
X11604Y22680
X11604Y21680
X13104Y21680
X13104Y22680
X14604Y22680
X14604Y21680
X16529Y21680
X16529Y22680
X18029Y22680
X18029Y21680
X19529Y21680
X19529Y22680
X21029Y22680
X21029Y21680
X21029Y26680
X19529Y26680
X18029Y26680
X16529Y26680
X14604Y26680
X13104Y26680
X11604Y26680
X10104Y26680
X16923Y29680
X16923Y30680
X16923Y31680
T07
X22529Y26180
X22529Y25180
X22529Y24180
X22529Y23180
X22529Y22180
X22529Y21180
X22529Y20180
X22529Y19180
X24529Y19680
X24529Y20680
X24529Y21680
X24529Y22680
X24529Y23680
X24529Y24680
X24529Y25680
X8604Y25180
X8604Y24180
X8604Y23180
X8604Y22180
X8604Y21180
X8604Y20180
X8604Y19180
X6604Y19680
X6604Y20680
X6604Y21680
X6604Y22680
X6604Y23680
X6604Y24680
X6604Y25680
X8604Y26180
T08
X5179Y32074
X25273Y32074
X25667Y2180
X5179Y2180
T09
X11023Y30680
M30
