G75*
%MOIN*%
%OFA0B0*%
%FSLAX25Y25*%
%IPPOS*%
%LPD*%
%AMOC8*
5,1,8,0,0,1.08239X$1,22.5*
%
%ADD10C,0.06600*%
%ADD11C,0.06600*%
%ADD12C,0.06000*%
%ADD13OC8,0.06000*%
%ADD14C,0.06000*%
%ADD15C,0.05800*%
%ADD16C,0.04000*%
%ADD17C,0.04000*%
%ADD18C,0.01000*%
D10*
X0014000Y0010331D03*
X0029669Y0009543D03*
X0029669Y0049543D03*
X0014000Y0050331D03*
X0076992Y0048756D03*
X0090299Y0047969D03*
X0090299Y0007969D03*
X0076992Y0008756D03*
X0075417Y0124898D03*
X0062740Y0125685D03*
X0047858Y0126472D03*
X0062740Y0165685D03*
X0075417Y0164898D03*
X0091165Y0166079D03*
X0091165Y0126079D03*
X0047858Y0166472D03*
X0222661Y0167260D03*
X0238409Y0166079D03*
X0251638Y0166472D03*
X0267386Y0167654D03*
X0267386Y0127654D03*
X0251638Y0126472D03*
X0238409Y0126079D03*
X0222661Y0127260D03*
X0219669Y0048756D03*
X0231953Y0049150D03*
X0231953Y0009150D03*
X0219669Y0008756D03*
X0292031Y0009150D03*
X0303843Y0010331D03*
X0292031Y0049150D03*
X0303843Y0050331D03*
D11*
X0239190Y0264976D02*
X0232590Y0264976D01*
X0232590Y0274976D02*
X0239190Y0274976D01*
X0239190Y0284976D02*
X0232590Y0284976D01*
D12*
X0157189Y0311118D03*
X0149315Y0311118D03*
X0141441Y0311118D03*
X0133567Y0311118D03*
X0125693Y0311118D03*
X0117819Y0311118D03*
X0109945Y0311118D03*
X0102071Y0311118D03*
X0094197Y0311118D03*
X0086323Y0311118D03*
X0086323Y0224504D03*
X0094197Y0224504D03*
X0102071Y0224504D03*
X0109945Y0224504D03*
X0117819Y0224504D03*
X0125693Y0224504D03*
X0133567Y0224504D03*
X0141441Y0224504D03*
X0149315Y0224504D03*
X0157189Y0224504D03*
D13*
X0149984Y0204268D03*
X0139984Y0204268D03*
X0139984Y0194268D03*
X0149984Y0194268D03*
X0149984Y0184268D03*
X0139984Y0184268D03*
X0129984Y0184268D03*
X0129984Y0194268D03*
X0129984Y0204268D03*
X0119984Y0204268D03*
X0109984Y0204268D03*
X0099984Y0204268D03*
X0099984Y0194268D03*
X0109984Y0194268D03*
X0119984Y0194268D03*
X0119984Y0184268D03*
X0109984Y0184268D03*
X0099984Y0184268D03*
X0026992Y0143087D03*
X0016992Y0143087D03*
X0016992Y0133087D03*
X0026992Y0133087D03*
X0026992Y0123087D03*
X0016992Y0123087D03*
X0016992Y0088402D03*
X0026992Y0088402D03*
X0026992Y0078402D03*
X0016992Y0078402D03*
X0016992Y0068402D03*
X0026992Y0068402D03*
X0176323Y0183008D03*
X0186323Y0183008D03*
X0196323Y0183008D03*
X0206323Y0183008D03*
X0206323Y0193008D03*
X0206323Y0203008D03*
X0196323Y0203008D03*
X0196323Y0193008D03*
X0186323Y0193008D03*
X0186323Y0203008D03*
X0176323Y0203008D03*
X0176323Y0193008D03*
X0216323Y0193008D03*
X0226323Y0193008D03*
X0226323Y0203008D03*
X0216323Y0203008D03*
X0216323Y0183008D03*
X0226323Y0183008D03*
X0292268Y0153638D03*
X0292268Y0143638D03*
X0292268Y0133638D03*
X0302268Y0133638D03*
X0302268Y0143638D03*
X0302268Y0153638D03*
X0302268Y0086276D03*
X0302268Y0076276D03*
X0302268Y0066276D03*
X0292268Y0066276D03*
X0292268Y0076276D03*
X0292268Y0086276D03*
D14*
X0022866Y0186709D02*
X0016866Y0186709D01*
X0016866Y0196709D02*
X0022866Y0196709D01*
D15*
X0132150Y0140606D03*
X0142150Y0140606D03*
X0152150Y0140606D03*
X0162150Y0140606D03*
X0162150Y0130606D03*
X0162150Y0120606D03*
X0162150Y0110606D03*
X0162150Y0100606D03*
X0162150Y0090606D03*
X0162150Y0080606D03*
X0162150Y0070606D03*
X0152150Y0070606D03*
X0152150Y0080606D03*
X0152150Y0090606D03*
X0152150Y0100606D03*
X0152150Y0110606D03*
X0152150Y0120606D03*
X0152150Y0130606D03*
X0132150Y0130606D03*
X0132150Y0120606D03*
X0132150Y0110606D03*
X0132150Y0100606D03*
X0132150Y0090606D03*
X0132150Y0080606D03*
X0132150Y0070606D03*
X0132150Y0060606D03*
X0142150Y0060606D03*
X0142150Y0050606D03*
X0142150Y0040606D03*
X0132150Y0040606D03*
X0132150Y0030606D03*
X0132150Y0020606D03*
X0142150Y0020606D03*
X0132150Y0010606D03*
X0132150Y0050606D03*
X0192150Y0050606D03*
X0192150Y0040606D03*
X0192150Y0030606D03*
X0192150Y0020606D03*
X0192150Y0010606D03*
X0192150Y0060606D03*
X0192150Y0070606D03*
X0192150Y0080606D03*
X0192150Y0090606D03*
X0192150Y0100606D03*
X0192150Y0110606D03*
X0192150Y0120606D03*
X0192150Y0130606D03*
X0192150Y0140606D03*
X0182150Y0140606D03*
X0172150Y0140606D03*
D16*
X0222661Y0167260D02*
X0223606Y0166354D01*
X0238370Y0166354D01*
X0238409Y0166079D01*
X0259039Y0133874D02*
X0251638Y0126472D01*
X0250181Y0126000D01*
X0239354Y0126000D01*
X0238409Y0126079D01*
X0245260Y0107299D02*
X0308252Y0107299D01*
X0308252Y0063992D01*
X0304315Y0060055D01*
X0304315Y0052181D01*
X0303843Y0050331D01*
X0303331Y0050213D01*
X0293488Y0050213D01*
X0292504Y0049228D01*
X0292031Y0049150D01*
X0283646Y0058087D02*
X0291520Y0065961D01*
X0292268Y0066276D01*
X0283646Y0058087D02*
X0257071Y0058087D01*
X0255102Y0056118D01*
X0257071Y0051197D02*
X0234433Y0051197D01*
X0233449Y0050213D01*
X0231953Y0049150D01*
X0231480Y0049228D01*
X0228528Y0049228D01*
X0223606Y0054150D01*
X0218685Y0056118D02*
X0221638Y0059071D01*
X0242307Y0059071D01*
X0245260Y0056118D01*
X0247228Y0056118D01*
X0254118Y0063008D01*
X0281677Y0063008D01*
X0219669Y0049228D02*
X0219669Y0048756D01*
X0219669Y0049228D02*
X0218685Y0049228D01*
X0218685Y0056118D01*
X0259039Y0133874D02*
X0291520Y0133874D01*
X0292268Y0133638D01*
X0235417Y0202772D02*
X0227543Y0210646D01*
X0033646Y0210646D01*
X0019866Y0196866D01*
X0019866Y0196709D01*
X0019866Y0186709D02*
X0019866Y0186039D01*
X0032661Y0173244D01*
X0067110Y0173244D01*
X0074984Y0165370D01*
X0075417Y0164898D01*
X0070063Y0151591D02*
X0027740Y0151591D01*
X0026756Y0152575D01*
X0017898Y0143717D01*
X0016992Y0143087D01*
X0026992Y0143087D02*
X0027740Y0142732D01*
X0072031Y0142732D01*
X0078921Y0142732D02*
X0070063Y0151591D01*
X0047858Y0166472D02*
X0047425Y0166354D01*
X0040535Y0166354D01*
X0026756Y0152575D01*
X0062740Y0125685D02*
X0063173Y0125016D01*
X0074984Y0125016D01*
X0075417Y0124898D01*
X0089748Y0101394D02*
X0053331Y0101394D01*
X0035614Y0088598D02*
X0027740Y0088598D01*
X0026992Y0088402D01*
X0021835Y0058087D02*
X0014945Y0051197D01*
X0014000Y0050331D01*
X0021835Y0058087D02*
X0071047Y0058087D01*
X0074000Y0055134D01*
X0092701Y0055134D01*
X0096638Y0051197D01*
X0090299Y0047969D02*
X0089748Y0048244D01*
X0077937Y0048244D01*
X0076992Y0048756D01*
X0074984Y0049228D01*
X0074000Y0048244D01*
X0048409Y0048244D01*
X0046441Y0053165D02*
X0043488Y0050213D01*
X0029709Y0050213D01*
X0029669Y0049543D01*
X0047425Y0033480D02*
X0029709Y0015764D01*
X0029709Y0009858D01*
X0029669Y0009543D01*
X0047425Y0033480D02*
X0058252Y0033480D01*
X0060220Y0031512D01*
X0072031Y0031512D01*
X0240339Y0204740D02*
X0229512Y0215567D01*
X0156677Y0215567D01*
X0075969Y0215567D01*
X0156677Y0215567D02*
X0156677Y0224425D01*
X0157189Y0224504D01*
D17*
X0114354Y0173244D03*
X0110417Y0160449D03*
X0126165Y0140764D03*
X0147819Y0144701D03*
X0157661Y0160449D03*
X0179315Y0126000D03*
X0172425Y0116157D03*
X0172425Y0105331D03*
X0183252Y0114189D03*
X0202937Y0138795D03*
X0215732Y0126000D03*
X0211795Y0116157D03*
X0225575Y0104346D03*
X0245260Y0107299D03*
X0257071Y0122063D03*
X0272819Y0138795D03*
X0233449Y0129937D03*
X0229512Y0137811D03*
X0209827Y0153559D03*
X0200969Y0157496D03*
X0235417Y0202772D03*
X0240339Y0204740D03*
X0231480Y0220488D03*
X0143882Y0091551D03*
X0124197Y0091551D03*
X0121244Y0084661D03*
X0121244Y0076787D03*
X0127150Y0065961D03*
X0137976Y0056118D03*
X0165535Y0085646D03*
X0179315Y0061039D03*
X0196047Y0035449D03*
X0176362Y0031512D03*
X0172425Y0025606D03*
X0223606Y0054150D03*
X0237386Y0045291D03*
X0245260Y0056118D03*
X0255102Y0056118D03*
X0257071Y0051197D03*
X0281677Y0063008D03*
X0225575Y0070882D03*
X0102543Y0040370D03*
X0096638Y0051197D03*
X0074000Y0055134D03*
X0064157Y0036433D03*
X0072031Y0031512D03*
X0068094Y0026591D03*
X0056283Y0043323D03*
X0048409Y0048244D03*
X0046441Y0053165D03*
X0055299Y0070882D03*
X0035614Y0088598D03*
X0053331Y0101394D03*
X0061205Y0107299D03*
X0064157Y0135843D03*
X0072031Y0142732D03*
X0078921Y0142732D03*
X0055299Y0156512D03*
X0075969Y0215567D03*
X0054315Y0241157D03*
X0050378Y0245094D03*
X0041520Y0241157D03*
X0046441Y0260843D03*
X0064157Y0245094D03*
X0076953Y0255921D03*
X0081874Y0258874D03*
X0076953Y0260843D03*
X0075969Y0284465D03*
X0047425Y0285449D03*
X0042504Y0286433D03*
X0089748Y0101394D03*
D18*
X0079906Y0095488D02*
X0177346Y0095488D01*
X0192110Y0110252D01*
X0192150Y0110606D01*
X0191126Y0116157D02*
X0211795Y0116157D01*
X0215732Y0126000D02*
X0191126Y0126000D01*
X0187189Y0122063D01*
X0163567Y0122063D01*
X0162583Y0121079D01*
X0162150Y0120606D01*
X0157661Y0126000D02*
X0179315Y0126000D01*
X0176362Y0134858D02*
X0136992Y0134858D01*
X0133055Y0130921D01*
X0132150Y0130606D01*
X0132071Y0121079D02*
X0132150Y0120606D01*
X0132071Y0121079D02*
X0121244Y0131906D01*
X0028724Y0131906D01*
X0027740Y0132890D01*
X0026992Y0133087D01*
X0021835Y0128953D02*
X0021835Y0137811D01*
X0015929Y0137811D01*
X0011992Y0141748D01*
X0011992Y0191945D01*
X0097622Y0191945D01*
X0099591Y0193913D01*
X0099984Y0194268D01*
X0100575Y0194898D01*
X0109433Y0194898D01*
X0109984Y0194268D01*
X0120260Y0179150D02*
X0135024Y0179150D01*
X0139945Y0184071D01*
X0139984Y0184268D01*
X0142898Y0177181D02*
X0149984Y0184268D01*
X0150772Y0193913D02*
X0149984Y0194268D01*
X0150772Y0193913D02*
X0175378Y0193913D01*
X0176323Y0193008D01*
X0176323Y0203008D02*
X0175378Y0203756D01*
X0150772Y0203756D01*
X0149984Y0204268D01*
X0139984Y0204268D02*
X0139945Y0204740D01*
X0130102Y0204740D01*
X0129984Y0204268D01*
X0130102Y0194898D02*
X0129984Y0194268D01*
X0130102Y0194898D02*
X0139945Y0194898D01*
X0139984Y0194268D01*
X0142898Y0177181D02*
X0127150Y0177181D01*
X0110417Y0160449D01*
X0114354Y0173244D02*
X0120260Y0179150D01*
X0134039Y0153559D02*
X0209827Y0153559D01*
X0200969Y0157496D02*
X0199984Y0156512D01*
X0055299Y0156512D01*
X0067110Y0138795D02*
X0119276Y0138795D01*
X0134039Y0153559D01*
X0135024Y0149622D02*
X0289551Y0149622D01*
X0290535Y0148638D01*
X0296441Y0148638D01*
X0301362Y0153559D01*
X0302268Y0153638D01*
X0292268Y0153638D02*
X0291520Y0154543D01*
X0253134Y0192929D01*
X0226559Y0192929D01*
X0226323Y0193008D01*
X0216323Y0203008D02*
X0215732Y0203756D01*
X0206874Y0203756D01*
X0206323Y0203008D01*
X0196323Y0183008D02*
X0196047Y0182102D01*
X0192110Y0178165D01*
X0175378Y0178165D01*
X0157661Y0160449D01*
X0150772Y0147654D02*
X0287583Y0147654D01*
X0291520Y0143717D01*
X0292268Y0143638D01*
X0301362Y0132890D02*
X0302268Y0133638D01*
X0301362Y0132890D02*
X0296441Y0127969D01*
X0267898Y0127969D01*
X0267386Y0127654D01*
X0266913Y0126984D01*
X0261992Y0126984D01*
X0257071Y0122063D01*
X0256087Y0121079D01*
X0229512Y0121079D01*
X0223606Y0126984D01*
X0222661Y0127260D01*
X0231480Y0131906D02*
X0194079Y0131906D01*
X0193094Y0130921D01*
X0192150Y0130606D01*
X0188173Y0132890D02*
X0191126Y0135843D01*
X0199984Y0135843D01*
X0202937Y0138795D01*
X0195063Y0142732D02*
X0193094Y0140764D01*
X0192150Y0140606D01*
X0195063Y0142732D02*
X0224591Y0142732D01*
X0229512Y0137811D01*
X0231480Y0131906D02*
X0233449Y0129937D01*
X0225575Y0104346D02*
X0206874Y0085646D01*
X0191126Y0085646D01*
X0187189Y0081709D01*
X0187189Y0070882D01*
X0192110Y0070882D01*
X0192150Y0070606D01*
X0193094Y0079740D02*
X0192150Y0080606D01*
X0193094Y0079740D02*
X0216717Y0079740D01*
X0225575Y0070882D01*
X0251165Y0064976D02*
X0261992Y0075803D01*
X0291520Y0075803D01*
X0292268Y0076276D01*
X0297425Y0085646D02*
X0297425Y0064976D01*
X0286598Y0054150D01*
X0275772Y0054150D01*
X0247228Y0025606D01*
X0172425Y0025606D01*
X0167504Y0025606D02*
X0173409Y0031512D01*
X0176362Y0031512D01*
X0167504Y0025606D02*
X0069079Y0025606D01*
X0068094Y0026591D01*
X0065142Y0035449D02*
X0196047Y0035449D01*
X0196047Y0043323D02*
X0193094Y0046276D01*
X0152740Y0046276D01*
X0142898Y0056118D01*
X0137976Y0056118D01*
X0133055Y0061039D02*
X0132150Y0060606D01*
X0133055Y0061039D02*
X0136992Y0064976D01*
X0251165Y0064976D01*
X0237386Y0045291D02*
X0235417Y0043323D01*
X0196047Y0043323D01*
X0192150Y0050606D02*
X0192110Y0051197D01*
X0189157Y0051197D01*
X0179315Y0061039D01*
X0162150Y0070606D02*
X0161598Y0070882D01*
X0156677Y0075803D01*
X0130102Y0075803D01*
X0121244Y0084661D01*
X0117307Y0083677D02*
X0120260Y0080724D01*
X0122228Y0080724D01*
X0132071Y0070882D01*
X0132150Y0070606D01*
X0135024Y0066945D02*
X0134039Y0065961D01*
X0127150Y0065961D01*
X0135024Y0066945D02*
X0148803Y0066945D01*
X0151756Y0069898D01*
X0152150Y0070606D01*
X0152150Y0080606D02*
X0152740Y0080724D01*
X0157661Y0085646D01*
X0165535Y0085646D01*
X0172425Y0105331D02*
X0063173Y0105331D01*
X0061205Y0107299D01*
X0049394Y0097457D02*
X0030693Y0078756D01*
X0027740Y0078756D01*
X0026992Y0078402D01*
X0017898Y0067929D02*
X0016992Y0068402D01*
X0017898Y0067929D02*
X0021835Y0063992D01*
X0108449Y0063992D01*
X0121244Y0076787D01*
X0117307Y0083677D02*
X0117307Y0091551D01*
X0124197Y0091551D01*
X0129118Y0097457D02*
X0049394Y0097457D01*
X0026992Y0123087D02*
X0026756Y0124031D01*
X0021835Y0128953D01*
X0017898Y0123047D02*
X0016992Y0123087D01*
X0017898Y0123047D02*
X0022819Y0118126D01*
X0125181Y0118126D01*
X0132071Y0111236D01*
X0132150Y0110606D01*
X0132150Y0100606D02*
X0132071Y0100409D01*
X0129118Y0097457D01*
X0143882Y0091551D02*
X0133055Y0080724D01*
X0132150Y0080606D01*
X0152150Y0110606D02*
X0152740Y0111236D01*
X0157661Y0116157D01*
X0172425Y0116157D01*
X0183252Y0114189D02*
X0189157Y0120094D01*
X0192110Y0120094D01*
X0192150Y0120606D01*
X0191126Y0116157D02*
X0185220Y0110252D01*
X0162583Y0110252D01*
X0162150Y0110606D01*
X0152740Y0121079D02*
X0152150Y0120606D01*
X0152740Y0121079D02*
X0157661Y0126000D01*
X0162150Y0130606D02*
X0162583Y0130921D01*
X0164551Y0132890D01*
X0188173Y0132890D01*
X0176362Y0134858D02*
X0176362Y0140764D01*
X0181283Y0145685D01*
X0265929Y0145685D01*
X0272819Y0138795D01*
X0297425Y0085646D02*
X0301362Y0085646D01*
X0302268Y0086276D01*
X0231480Y0220488D02*
X0222622Y0229346D01*
X0089748Y0229346D01*
X0093685Y0225409D01*
X0094197Y0224504D01*
X0089748Y0229346D02*
X0066126Y0229346D01*
X0054315Y0241157D01*
X0050378Y0245094D02*
X0064157Y0245094D01*
X0076953Y0255921D02*
X0042504Y0255921D01*
X0042504Y0286433D01*
X0047425Y0285449D02*
X0048409Y0284465D01*
X0075969Y0284465D01*
X0076953Y0260843D02*
X0046441Y0260843D01*
X0041520Y0241157D02*
X0063173Y0219504D01*
X0096638Y0219504D01*
X0101559Y0224425D01*
X0102071Y0224504D01*
X0081874Y0258874D02*
X0125181Y0302181D01*
X0125181Y0311039D01*
X0125693Y0311118D01*
X0135024Y0149622D02*
X0126165Y0140764D01*
X0147819Y0144701D02*
X0150772Y0147654D01*
X0079906Y0095488D02*
X0055299Y0070882D01*
X0056283Y0043323D02*
X0059236Y0040370D01*
X0102543Y0040370D01*
X0065142Y0035449D02*
X0064157Y0036433D01*
X0064157Y0135843D02*
X0067110Y0138795D01*
M02*
