G75*
%MOIN*%
%OFA0B0*%
%FSLAX25Y25*%
%IPPOS*%
%LPD*%
%AMOC8*
5,1,8,0,0,1.08239X$1,22.5*
%
%ADD10OC8,0.06000*%
%ADD11C,0.06600*%
%ADD12C,0.07087*%
%ADD13OC8,0.05200*%
%ADD14C,0.06600*%
%ADD15C,0.06000*%
%ADD16C,0.06000*%
%ADD17C,0.05800*%
%ADD18C,0.01600*%
%ADD19C,0.04000*%
%ADD20C,0.01000*%
D10*
X0044779Y0144950D03*
X0044779Y0154950D03*
X0044779Y0164950D03*
X0054779Y0164950D03*
X0054779Y0154950D03*
X0054779Y0144950D03*
X0059227Y0281800D03*
X0049227Y0281800D03*
X0049227Y0291800D03*
X0059227Y0291800D03*
X0069227Y0291800D03*
X0069227Y0281800D03*
X0234227Y0281800D03*
X0234227Y0291800D03*
X0244227Y0291800D03*
X0244227Y0281800D03*
X0254227Y0281800D03*
X0254227Y0291800D03*
X0254227Y0164674D03*
X0254227Y0154674D03*
X0254227Y0144674D03*
X0244227Y0144674D03*
X0244227Y0154674D03*
X0244227Y0164674D03*
D11*
X0172527Y0296800D02*
X0165927Y0296800D01*
X0165927Y0306800D02*
X0172527Y0306800D01*
X0172527Y0316800D02*
X0165927Y0316800D01*
D12*
X0221747Y0261800D02*
X0228834Y0261800D01*
X0228834Y0251800D02*
X0221747Y0251800D01*
X0221747Y0241800D02*
X0228834Y0241800D01*
X0228834Y0231800D02*
X0221747Y0231800D01*
X0221747Y0221800D02*
X0228834Y0221800D01*
X0228834Y0211800D02*
X0221747Y0211800D01*
X0221747Y0201800D02*
X0228834Y0201800D01*
X0228834Y0191800D02*
X0221747Y0191800D01*
X0241747Y0196800D02*
X0248834Y0196800D01*
X0248834Y0206800D02*
X0241747Y0206800D01*
X0241747Y0216800D02*
X0248834Y0216800D01*
X0248834Y0226800D02*
X0241747Y0226800D01*
X0241747Y0236800D02*
X0248834Y0236800D01*
X0248834Y0246800D02*
X0241747Y0246800D01*
X0241747Y0256800D02*
X0248834Y0256800D01*
X0089582Y0251800D02*
X0082495Y0251800D01*
X0082495Y0241800D02*
X0089582Y0241800D01*
X0089582Y0231800D02*
X0082495Y0231800D01*
X0082495Y0221800D02*
X0089582Y0221800D01*
X0089582Y0211800D02*
X0082495Y0211800D01*
X0082495Y0201800D02*
X0089582Y0201800D01*
X0089582Y0191800D02*
X0082495Y0191800D01*
X0069582Y0196800D02*
X0062495Y0196800D01*
X0062495Y0206800D02*
X0069582Y0206800D01*
X0069582Y0216800D02*
X0062495Y0216800D01*
X0062495Y0226800D02*
X0069582Y0226800D01*
X0069582Y0236800D02*
X0062495Y0236800D01*
X0062495Y0246800D02*
X0069582Y0246800D01*
X0069582Y0256800D02*
X0062495Y0256800D01*
X0082495Y0261800D02*
X0089582Y0261800D01*
D13*
X0099227Y0161800D03*
X0109227Y0161800D03*
X0139227Y0161800D03*
X0159227Y0161800D03*
X0189227Y0161800D03*
X0199227Y0161800D03*
X0229227Y0161800D03*
X0069227Y0161800D03*
D14*
X0101038Y0176800D03*
X0116038Y0176800D03*
X0131038Y0176800D03*
X0146038Y0176800D03*
X0165290Y0176800D03*
X0180290Y0176800D03*
X0195290Y0176800D03*
X0210290Y0176800D03*
X0210290Y0216800D03*
X0210290Y0226800D03*
X0195290Y0226800D03*
X0195290Y0216800D03*
X0180290Y0216800D03*
X0180290Y0226800D03*
X0165290Y0226800D03*
X0165290Y0216800D03*
X0146038Y0216800D03*
X0146038Y0226800D03*
X0131038Y0226800D03*
X0131038Y0216800D03*
X0116038Y0216800D03*
X0116038Y0226800D03*
X0101038Y0226800D03*
X0101038Y0216800D03*
X0101038Y0266800D03*
X0116038Y0266800D03*
X0131038Y0266800D03*
X0146038Y0266800D03*
X0165290Y0266800D03*
X0180290Y0266800D03*
X0195290Y0266800D03*
X0210290Y0266800D03*
D15*
X0022227Y0015619D02*
X0016227Y0015619D01*
X0016227Y0025619D02*
X0022227Y0025619D01*
X0022227Y0035619D02*
X0016227Y0035619D01*
X0016227Y0058493D02*
X0022227Y0058493D01*
X0022227Y0068493D02*
X0016227Y0068493D01*
X0016227Y0078493D02*
X0022227Y0078493D01*
X0022227Y0101367D02*
X0016227Y0101367D01*
X0016227Y0111367D02*
X0022227Y0111367D01*
X0022227Y0121367D02*
X0016227Y0121367D01*
X0017881Y0145461D02*
X0023881Y0145461D01*
X0023881Y0155461D02*
X0017881Y0155461D01*
X0017881Y0165461D02*
X0023881Y0165461D01*
X0050164Y0122548D02*
X0056164Y0122548D01*
X0056164Y0112548D02*
X0050164Y0112548D01*
X0050164Y0102548D02*
X0056164Y0102548D01*
X0056164Y0078611D02*
X0050164Y0078611D01*
X0050164Y0068611D02*
X0056164Y0068611D01*
X0056164Y0058611D02*
X0050164Y0058611D01*
X0254731Y0058926D02*
X0260731Y0058926D01*
X0260731Y0068926D02*
X0254731Y0068926D01*
X0254731Y0078926D02*
X0260731Y0078926D01*
X0262227Y0101485D02*
X0256227Y0101485D01*
X0256227Y0111485D02*
X0262227Y0111485D01*
X0262227Y0121485D02*
X0256227Y0121485D01*
X0285794Y0122194D02*
X0291794Y0122194D01*
X0291794Y0112194D02*
X0285794Y0112194D01*
X0285794Y0102194D02*
X0291794Y0102194D01*
X0292227Y0078060D02*
X0286227Y0078060D01*
X0286227Y0068060D02*
X0292227Y0068060D01*
X0292227Y0058060D02*
X0286227Y0058060D01*
X0286227Y0035186D02*
X0292227Y0035186D01*
X0292227Y0025186D02*
X0286227Y0025186D01*
X0286227Y0015186D02*
X0292227Y0015186D01*
X0291794Y0145461D02*
X0285794Y0145461D01*
X0285794Y0155461D02*
X0291794Y0155461D01*
X0291794Y0165461D02*
X0285794Y0165461D01*
X0214227Y0308800D02*
X0214227Y0314800D01*
X0204227Y0314800D02*
X0204227Y0308800D01*
D16*
X0237535Y0110540D03*
X0237535Y0102666D03*
X0237535Y0094792D03*
X0237535Y0086918D03*
X0237535Y0079044D03*
X0237535Y0071170D03*
X0237535Y0063296D03*
X0237535Y0055422D03*
X0237535Y0047548D03*
X0237535Y0039674D03*
X0150920Y0039674D03*
X0150920Y0047548D03*
X0150920Y0055422D03*
X0150920Y0063296D03*
X0150920Y0071170D03*
X0150920Y0079044D03*
X0150920Y0086918D03*
X0150920Y0094792D03*
X0150920Y0102666D03*
X0150920Y0110540D03*
D17*
X0134227Y0111800D03*
X0134227Y0101800D03*
X0134227Y0091800D03*
X0134227Y0081800D03*
X0134227Y0071800D03*
X0134227Y0061800D03*
X0134227Y0051800D03*
X0134227Y0041800D03*
X0134227Y0031800D03*
X0134227Y0021800D03*
X0134227Y0011800D03*
X0084227Y0021800D03*
X0074227Y0021800D03*
X0074227Y0011800D03*
X0074227Y0031800D03*
X0074227Y0041800D03*
X0074227Y0051800D03*
X0074227Y0061800D03*
X0074227Y0071800D03*
X0074227Y0081800D03*
X0074227Y0091800D03*
X0074227Y0101800D03*
X0074227Y0111800D03*
X0074227Y0121800D03*
X0074227Y0131800D03*
X0074227Y0141800D03*
X0084227Y0141800D03*
X0094227Y0141800D03*
X0094227Y0131800D03*
X0094227Y0121800D03*
X0094227Y0111800D03*
X0094227Y0101800D03*
X0094227Y0091800D03*
X0094227Y0081800D03*
X0094227Y0071800D03*
X0084227Y0061800D03*
X0084227Y0051800D03*
X0084227Y0041800D03*
X0104227Y0071800D03*
X0104227Y0081800D03*
X0104227Y0091800D03*
X0104227Y0101800D03*
X0104227Y0111800D03*
X0104227Y0121800D03*
X0104227Y0131800D03*
X0104227Y0141800D03*
X0114227Y0141800D03*
X0124227Y0141800D03*
X0134227Y0141800D03*
X0134227Y0131800D03*
X0134227Y0121800D03*
D18*
X0157227Y0157500D02*
X0185127Y0157500D01*
X0189177Y0161550D01*
X0189227Y0161800D01*
X0189627Y0171900D02*
X0185127Y0171900D01*
X0180627Y0176400D01*
X0180290Y0176800D01*
X0165327Y0176850D02*
X0165290Y0176800D01*
X0165327Y0176850D02*
X0199077Y0210600D01*
X0202677Y0216450D02*
X0202677Y0184050D01*
X0195477Y0176850D01*
X0195290Y0176800D01*
X0210290Y0176800D02*
X0210327Y0176400D01*
X0210327Y0171900D01*
X0242277Y0139950D01*
X0246327Y0139950D01*
X0249027Y0142650D01*
X0249027Y0146250D01*
X0253977Y0151200D01*
X0253977Y0154350D01*
X0254227Y0154674D01*
X0255777Y0159750D02*
X0259827Y0155700D01*
X0288627Y0155700D01*
X0288794Y0155461D01*
X0255777Y0159750D02*
X0249027Y0159750D01*
X0244527Y0164250D01*
X0244227Y0164674D01*
X0244527Y0165150D01*
X0253977Y0174600D01*
X0253977Y0219150D01*
X0246327Y0226800D01*
X0245290Y0226800D01*
X0225290Y0221800D02*
X0225177Y0221850D01*
X0215277Y0221850D01*
X0210327Y0226800D01*
X0210290Y0226800D01*
X0211227Y0225000D01*
X0202677Y0216450D01*
X0210290Y0216800D02*
X0210327Y0216450D01*
X0210327Y0215550D01*
X0223827Y0202050D01*
X0225177Y0202050D01*
X0225290Y0201800D01*
X0239577Y0191250D02*
X0244977Y0196650D01*
X0245290Y0196800D01*
X0239577Y0191250D02*
X0239577Y0171900D01*
X0232827Y0171900D01*
X0239577Y0171900D02*
X0239577Y0152550D01*
X0244077Y0148050D01*
X0244077Y0144900D01*
X0244227Y0144674D01*
X0259377Y0111600D02*
X0259227Y0111485D01*
X0259377Y0111600D02*
X0288177Y0111600D01*
X0288627Y0112050D01*
X0288794Y0112194D01*
X0289227Y0068060D02*
X0289527Y0067950D01*
X0297177Y0060300D01*
X0297177Y0032850D01*
X0289527Y0025200D01*
X0289227Y0025186D01*
X0249927Y0045450D02*
X0249927Y0061200D01*
X0257577Y0068850D01*
X0257731Y0068926D01*
X0249927Y0045450D02*
X0239127Y0034650D01*
X0235977Y0034650D01*
X0231027Y0039600D01*
X0150927Y0039600D01*
X0150920Y0039674D01*
X0144627Y0029250D02*
X0144627Y0022500D01*
X0134277Y0012150D01*
X0134227Y0011800D01*
X0075327Y0076500D02*
X0060927Y0076500D01*
X0053277Y0068850D01*
X0053164Y0068611D01*
X0052827Y0068400D01*
X0019977Y0068400D01*
X0019227Y0068493D01*
X0019077Y0068400D01*
X0011427Y0060750D01*
X0011427Y0033300D01*
X0019077Y0025650D01*
X0019227Y0025619D01*
X0075327Y0076500D02*
X0080727Y0081900D01*
X0076227Y0086400D01*
X0073077Y0086400D01*
X0069477Y0090000D01*
X0069477Y0096300D01*
X0053277Y0112500D01*
X0053164Y0112548D01*
X0080727Y0081900D02*
X0085227Y0086400D01*
X0096027Y0086400D01*
X0100527Y0081900D01*
X0104127Y0081900D01*
X0104227Y0081800D01*
X0157227Y0157500D02*
X0153177Y0161550D01*
X0153627Y0162000D01*
X0153627Y0211500D01*
X0144177Y0211500D01*
X0139227Y0216450D01*
X0139677Y0216900D01*
X0139677Y0217800D01*
X0143727Y0221850D01*
X0145960Y0221850D01*
X0145960Y0217351D01*
X0146038Y0216800D01*
X0145960Y0221850D02*
X0148227Y0221850D01*
X0151377Y0225000D01*
X0151377Y0261900D01*
X0143727Y0261900D01*
X0139227Y0266400D01*
X0131127Y0266400D01*
X0131038Y0266800D01*
X0131196Y0267548D01*
X0131196Y0271800D01*
X0151377Y0261900D02*
X0175677Y0261900D01*
X0180177Y0266400D01*
X0180290Y0266800D01*
X0179727Y0267300D01*
X0179727Y0296550D01*
X0174327Y0301950D01*
X0173877Y0301950D01*
X0169377Y0306450D01*
X0169227Y0306800D01*
X0164660Y0267548D02*
X0164420Y0267307D01*
X0164660Y0267548D02*
X0165290Y0266800D01*
X0133377Y0231750D02*
X0115827Y0231750D01*
X0115827Y0243000D01*
X0072177Y0286650D01*
X0067677Y0286650D01*
X0062727Y0291600D01*
X0059577Y0291600D01*
X0059227Y0291800D01*
X0060927Y0286650D02*
X0057327Y0286650D01*
X0054627Y0283950D01*
X0054627Y0280350D01*
X0035277Y0261000D01*
X0035277Y0198450D01*
X0044727Y0189000D01*
X0044727Y0165150D01*
X0044779Y0164950D01*
X0054627Y0165150D02*
X0054779Y0164950D01*
X0054627Y0165150D02*
X0054627Y0185400D01*
X0039777Y0200250D01*
X0039777Y0239850D01*
X0056427Y0256500D01*
X0065877Y0256500D01*
X0066038Y0256800D01*
X0064527Y0272250D02*
X0084777Y0252000D01*
X0085677Y0252000D01*
X0086038Y0251800D01*
X0086577Y0251550D01*
X0087477Y0251550D01*
X0095127Y0243900D01*
X0095127Y0225450D01*
X0100977Y0219600D01*
X0100977Y0216900D01*
X0101038Y0216800D01*
X0101877Y0216900D01*
X0141927Y0176850D01*
X0145977Y0176850D01*
X0146038Y0176800D01*
X0139227Y0161800D02*
X0139227Y0161550D01*
X0153177Y0161550D01*
X0153627Y0211500D02*
X0175227Y0211500D01*
X0180177Y0216450D01*
X0180290Y0216800D01*
X0146038Y0226800D02*
X0138327Y0226800D01*
X0133377Y0231750D01*
X0131038Y0216800D02*
X0131127Y0216450D01*
X0139227Y0216450D01*
X0116038Y0226800D02*
X0115827Y0226800D01*
X0115827Y0231750D01*
X0106827Y0233550D02*
X0101427Y0228150D01*
X0101427Y0226800D01*
X0101038Y0226800D01*
X0066038Y0226800D02*
X0064977Y0226800D01*
X0057327Y0219150D01*
X0057327Y0194400D01*
X0089727Y0162000D01*
X0099177Y0162000D01*
X0099227Y0161800D01*
X0090627Y0185400D02*
X0077577Y0185400D01*
X0066327Y0196650D01*
X0066038Y0196800D01*
X0064527Y0272250D02*
X0064527Y0283050D01*
X0060927Y0286650D01*
D19*
X0043377Y0238050D03*
X0053727Y0210150D03*
X0074877Y0202500D03*
X0090627Y0185400D03*
X0086127Y0153900D03*
X0087477Y0135450D03*
X0114477Y0151650D03*
X0121677Y0150300D03*
X0162627Y0171000D03*
X0189627Y0171900D03*
X0187827Y0154350D03*
X0188727Y0139050D03*
X0189177Y0126000D03*
X0200877Y0123750D03*
X0190527Y0111150D03*
X0204027Y0102600D03*
X0223377Y0107550D03*
X0223377Y0094950D03*
X0219327Y0137700D03*
X0232827Y0171900D03*
X0199077Y0193950D03*
X0199077Y0210600D03*
X0166227Y0203850D03*
X0168027Y0236250D03*
X0120777Y0205200D03*
X0106827Y0233550D03*
X0167127Y0134550D03*
X0127527Y0097200D03*
X0115377Y0086850D03*
X0118977Y0082800D03*
X0107727Y0067050D03*
X0128877Y0056250D03*
X0145077Y0060750D03*
X0129777Y0037800D03*
X0142377Y0034200D03*
X0144627Y0029250D03*
X0150927Y0022500D03*
X0170727Y0010800D03*
X0087889Y0102194D03*
X0083877Y0090000D03*
X0036627Y0072000D03*
X0036627Y0121050D03*
X0235527Y0220950D03*
X0235527Y0252000D03*
D20*
X0225627Y0261900D01*
X0225290Y0261800D01*
X0210777Y0266850D02*
X0210290Y0266800D01*
X0209877Y0266400D01*
X0170277Y0226800D01*
X0165290Y0226800D01*
X0168027Y0236250D02*
X0172977Y0236250D01*
X0228327Y0291600D01*
X0234177Y0291600D01*
X0234227Y0291800D01*
X0236427Y0296100D02*
X0239577Y0292950D01*
X0239577Y0286650D01*
X0244077Y0282150D01*
X0244227Y0281800D01*
X0248577Y0282600D02*
X0248577Y0266850D01*
X0210777Y0266850D01*
X0210777Y0296100D02*
X0236427Y0296100D01*
X0248577Y0282600D02*
X0253977Y0288000D01*
X0253977Y0291600D01*
X0254227Y0291800D01*
X0248577Y0266850D02*
X0248577Y0260100D01*
X0245427Y0256950D01*
X0245290Y0256800D01*
X0245427Y0237150D02*
X0245290Y0236800D01*
X0245427Y0237150D02*
X0298077Y0184500D01*
X0298077Y0102150D01*
X0293577Y0097650D01*
X0267027Y0097650D01*
X0250377Y0081000D01*
X0250377Y0076950D01*
X0253077Y0074250D01*
X0261627Y0074250D01*
X0265227Y0070650D01*
X0265227Y0054900D01*
X0217527Y0007200D01*
X0169377Y0007200D01*
X0167127Y0009450D01*
X0167127Y0011700D01*
X0144627Y0034200D01*
X0142377Y0034200D01*
X0144627Y0036900D02*
X0144627Y0037350D01*
X0135627Y0046350D01*
X0133377Y0046350D01*
X0108177Y0071550D01*
X0104577Y0071550D01*
X0104227Y0071800D01*
X0107727Y0067050D02*
X0092877Y0052200D01*
X0084327Y0052200D01*
X0084227Y0051800D01*
X0078477Y0053550D02*
X0074427Y0057600D01*
X0072177Y0057600D01*
X0069927Y0059850D01*
X0069927Y0063450D01*
X0073977Y0067500D01*
X0080277Y0067500D01*
X0094227Y0081450D01*
X0094227Y0081800D01*
X0093777Y0077400D02*
X0123477Y0077400D01*
X0133377Y0087300D01*
X0136077Y0087300D01*
X0144627Y0095850D01*
X0144627Y0117000D01*
X0170277Y0142650D01*
X0214377Y0142650D01*
X0219327Y0137700D01*
X0222927Y0136350D02*
X0222927Y0139050D01*
X0207627Y0154350D01*
X0187827Y0154350D01*
X0183777Y0162000D02*
X0190077Y0168300D01*
X0195027Y0168300D01*
X0218427Y0191700D01*
X0225177Y0191700D01*
X0225290Y0191800D01*
X0229227Y0184950D02*
X0235527Y0191250D01*
X0235527Y0220950D01*
X0234627Y0226800D02*
X0244977Y0216450D01*
X0245290Y0216800D01*
X0234627Y0226800D02*
X0219777Y0226800D01*
X0214827Y0231750D01*
X0208527Y0231750D01*
X0198627Y0221850D01*
X0193677Y0221850D01*
X0175677Y0203850D01*
X0166227Y0203850D01*
X0165290Y0216800D02*
X0164877Y0216900D01*
X0146427Y0216900D01*
X0146038Y0216800D01*
X0120777Y0205200D02*
X0110427Y0215550D01*
X0110427Y0238050D01*
X0087027Y0261450D01*
X0086127Y0261450D01*
X0086038Y0261800D01*
X0101038Y0266800D02*
X0101427Y0266850D01*
X0109527Y0266850D01*
X0114477Y0271800D01*
X0131196Y0271800D01*
X0159927Y0271800D01*
X0164420Y0267307D01*
X0164877Y0266850D01*
X0148227Y0295650D02*
X0163977Y0311400D01*
X0195477Y0311400D01*
X0210777Y0296100D01*
X0148227Y0295650D02*
X0107727Y0295650D01*
X0107277Y0296100D01*
X0057327Y0296100D01*
X0054627Y0293400D01*
X0054627Y0290700D01*
X0051027Y0287100D01*
X0048327Y0287100D01*
X0033027Y0271800D01*
X0033027Y0197550D01*
X0040227Y0190350D01*
X0040227Y0106200D01*
X0064527Y0081900D01*
X0073977Y0081900D01*
X0074227Y0081800D01*
X0074227Y0091800D02*
X0073977Y0091800D01*
X0073977Y0095850D01*
X0060477Y0109350D01*
X0060477Y0129600D01*
X0045177Y0144900D01*
X0044779Y0144950D01*
X0050127Y0143100D02*
X0050127Y0150300D01*
X0054627Y0154800D01*
X0054779Y0154950D01*
X0059127Y0157050D02*
X0055977Y0160200D01*
X0053277Y0160200D01*
X0049227Y0164250D01*
X0049227Y0187650D01*
X0037527Y0199350D01*
X0037527Y0260100D01*
X0059227Y0281800D01*
X0060477Y0241650D02*
X0085677Y0241650D01*
X0086038Y0241800D01*
X0074427Y0229050D02*
X0066327Y0237150D01*
X0066038Y0236800D01*
X0060477Y0241650D02*
X0050127Y0231300D01*
X0050127Y0195750D01*
X0089727Y0156150D01*
X0089727Y0139950D01*
X0092427Y0137250D01*
X0095127Y0137250D01*
X0098727Y0133650D01*
X0098727Y0130950D01*
X0102327Y0127350D01*
X0105027Y0127350D01*
X0108627Y0123750D01*
X0108627Y0111600D01*
X0115377Y0104850D01*
X0115377Y0086850D01*
X0118977Y0082800D02*
X0118977Y0103950D01*
X0110427Y0112500D01*
X0110427Y0131850D01*
X0105027Y0137250D01*
X0102777Y0137250D01*
X0098727Y0141300D01*
X0098727Y0149850D01*
X0053727Y0194850D01*
X0053727Y0210150D01*
X0043377Y0199800D02*
X0043377Y0238050D01*
X0074427Y0229050D02*
X0074427Y0222750D01*
X0080277Y0216900D01*
X0091527Y0216900D01*
X0109527Y0198900D01*
X0109527Y0176400D01*
X0138777Y0147150D01*
X0138777Y0120150D01*
X0134277Y0115650D01*
X0134277Y0112050D01*
X0134227Y0111800D01*
X0134277Y0105750D02*
X0140577Y0112050D01*
X0140577Y0154800D01*
X0120777Y0174600D01*
X0120777Y0190350D01*
X0089727Y0221400D01*
X0086127Y0221400D01*
X0086038Y0221800D01*
X0086038Y0211800D02*
X0086127Y0211500D01*
X0087027Y0211500D01*
X0107727Y0190800D01*
X0107727Y0175500D01*
X0118077Y0165150D01*
X0118077Y0148950D01*
X0118527Y0148500D01*
X0118527Y0111150D01*
X0133827Y0095850D01*
X0133827Y0091800D01*
X0134227Y0091800D01*
X0127527Y0097200D02*
X0127527Y0098100D01*
X0114477Y0111150D01*
X0114477Y0141750D01*
X0114227Y0141800D01*
X0114477Y0151650D02*
X0114477Y0166050D01*
X0105927Y0174600D01*
X0105927Y0182700D01*
X0091977Y0196650D01*
X0080727Y0196650D01*
X0074877Y0202500D01*
X0060927Y0182250D02*
X0043377Y0199800D01*
X0060927Y0182250D02*
X0060927Y0148950D01*
X0072627Y0137250D01*
X0074877Y0137250D01*
X0078477Y0133650D01*
X0078477Y0119700D01*
X0074427Y0115650D01*
X0074427Y0112050D01*
X0074227Y0111800D01*
X0073977Y0105750D02*
X0062277Y0117450D01*
X0062277Y0130950D01*
X0050127Y0143100D01*
X0059127Y0140850D02*
X0059127Y0157050D01*
X0059127Y0140850D02*
X0073977Y0126000D01*
X0073977Y0121950D01*
X0074227Y0121800D01*
X0073977Y0105750D02*
X0073977Y0102150D01*
X0074227Y0101800D01*
X0087889Y0102194D02*
X0087889Y0105146D01*
X0093794Y0111052D01*
X0094227Y0111800D01*
X0098727Y0121050D02*
X0098727Y0123300D01*
X0094677Y0127350D01*
X0092427Y0127350D01*
X0087477Y0132300D01*
X0087477Y0135450D01*
X0084227Y0141800D02*
X0083877Y0141750D01*
X0083877Y0090000D01*
X0093777Y0077400D02*
X0078477Y0062100D01*
X0074427Y0062100D01*
X0074227Y0061800D01*
X0078477Y0053550D02*
X0078477Y0040050D01*
X0074427Y0036000D01*
X0074427Y0031950D01*
X0074227Y0031800D01*
X0069927Y0030150D02*
X0073977Y0026100D01*
X0113577Y0026100D01*
X0132477Y0007200D01*
X0135627Y0007200D01*
X0150927Y0022500D01*
X0151827Y0032400D02*
X0240027Y0032400D01*
X0257577Y0049950D01*
X0257577Y0058500D01*
X0257731Y0058926D01*
X0258027Y0078750D02*
X0257731Y0078926D01*
X0258027Y0078750D02*
X0281877Y0078750D01*
X0281877Y0056250D01*
X0289077Y0049050D01*
X0289077Y0035550D01*
X0289227Y0035186D01*
X0289227Y0078060D02*
X0289077Y0078300D01*
X0288627Y0078750D01*
X0281877Y0078750D01*
X0288794Y0102194D02*
X0288627Y0102600D01*
X0285027Y0106200D01*
X0255327Y0106200D01*
X0246327Y0115200D01*
X0235977Y0115200D01*
X0231927Y0111150D01*
X0190527Y0111150D01*
X0201327Y0114750D02*
X0162627Y0114750D01*
X0150927Y0103050D01*
X0150920Y0102666D01*
X0150920Y0110540D02*
X0150927Y0110700D01*
X0166227Y0126000D01*
X0189177Y0126000D01*
X0188727Y0135900D02*
X0200877Y0123750D01*
X0201327Y0114750D02*
X0222927Y0136350D01*
X0229227Y0161800D02*
X0229227Y0184950D01*
X0199077Y0193950D02*
X0190527Y0193950D01*
X0167577Y0171000D01*
X0162627Y0171000D01*
X0159477Y0162000D02*
X0159227Y0161800D01*
X0159477Y0162000D02*
X0183777Y0162000D01*
X0188727Y0139050D02*
X0188727Y0135900D01*
X0167127Y0134550D02*
X0146427Y0113850D01*
X0146427Y0094950D01*
X0134277Y0082800D01*
X0134277Y0081900D01*
X0134227Y0081800D01*
X0134227Y0071800D02*
X0134277Y0071550D01*
X0145077Y0060750D01*
X0136077Y0056250D02*
X0146427Y0045900D01*
X0146427Y0037800D01*
X0151827Y0032400D01*
X0144627Y0036900D02*
X0170727Y0010800D01*
X0134227Y0021800D02*
X0133827Y0022050D01*
X0133827Y0026100D01*
X0129777Y0030150D01*
X0129777Y0037800D01*
X0128877Y0056250D02*
X0136077Y0056250D01*
X0134227Y0101800D02*
X0134277Y0102150D01*
X0134277Y0105750D01*
X0134227Y0121800D02*
X0133827Y0121950D01*
X0133827Y0126000D01*
X0128427Y0131400D01*
X0128427Y0143550D01*
X0121677Y0150300D01*
X0098727Y0121050D02*
X0104127Y0115650D01*
X0104127Y0112050D01*
X0104227Y0111800D01*
X0074227Y0141800D02*
X0074427Y0142200D01*
X0086127Y0153900D01*
X0036627Y0121050D02*
X0036627Y0072000D01*
X0019227Y0058493D02*
X0019527Y0058050D01*
X0026727Y0050850D01*
X0045177Y0050850D01*
X0052827Y0058500D01*
X0053164Y0058611D01*
X0069927Y0043650D02*
X0069927Y0030150D01*
X0069927Y0043650D02*
X0073977Y0047700D01*
X0073977Y0051750D01*
X0074227Y0051800D01*
X0026727Y0050850D02*
X0026727Y0023850D01*
X0019527Y0016650D01*
X0019527Y0015750D01*
X0019227Y0015619D01*
X0019227Y0101367D02*
X0019527Y0101700D01*
X0026727Y0108900D01*
X0026727Y0123300D01*
X0021327Y0128700D01*
X0021327Y0145350D01*
X0020881Y0145461D01*
X0204027Y0102600D02*
X0206277Y0102600D01*
X0237327Y0071550D01*
X0237535Y0071170D01*
X0223377Y0094950D02*
X0223377Y0107550D01*
X0259227Y0121485D02*
X0259377Y0121500D01*
X0288177Y0121500D01*
X0288627Y0121950D01*
X0288794Y0122194D01*
X0289077Y0122400D01*
X0296277Y0129600D01*
X0296277Y0157950D01*
X0289077Y0165150D01*
X0288794Y0165461D01*
M02*
