G75*
%MOIN*%
%OFA0B0*%
%FSLAX25Y25*%
%IPPOS*%
%LPD*%
%AMOC8*
5,1,8,0,0,1.08239X$1,22.5*
%
%ADD10C,0.01600*%
%ADD11C,0.00000*%
D10*
X0004227Y0001800D02*
X0304227Y0001800D01*
X0304227Y0336800D01*
X0004227Y0336800D01*
X0004227Y0001800D01*
D11*
X0046274Y0021800D02*
X0046276Y0021948D01*
X0046282Y0022096D01*
X0046292Y0022244D01*
X0046306Y0022391D01*
X0046324Y0022538D01*
X0046345Y0022684D01*
X0046371Y0022830D01*
X0046401Y0022975D01*
X0046434Y0023119D01*
X0046472Y0023262D01*
X0046513Y0023404D01*
X0046558Y0023545D01*
X0046606Y0023685D01*
X0046659Y0023824D01*
X0046715Y0023961D01*
X0046775Y0024096D01*
X0046838Y0024230D01*
X0046905Y0024362D01*
X0046976Y0024492D01*
X0047050Y0024620D01*
X0047127Y0024746D01*
X0047208Y0024870D01*
X0047292Y0024992D01*
X0047379Y0025111D01*
X0047470Y0025228D01*
X0047564Y0025343D01*
X0047660Y0025455D01*
X0047760Y0025565D01*
X0047862Y0025671D01*
X0047968Y0025775D01*
X0048076Y0025876D01*
X0048187Y0025974D01*
X0048300Y0026070D01*
X0048416Y0026162D01*
X0048534Y0026251D01*
X0048655Y0026336D01*
X0048778Y0026419D01*
X0048903Y0026498D01*
X0049030Y0026574D01*
X0049159Y0026646D01*
X0049290Y0026715D01*
X0049423Y0026780D01*
X0049558Y0026841D01*
X0049694Y0026899D01*
X0049831Y0026954D01*
X0049970Y0027004D01*
X0050111Y0027051D01*
X0050252Y0027094D01*
X0050395Y0027134D01*
X0050539Y0027169D01*
X0050683Y0027201D01*
X0050829Y0027228D01*
X0050975Y0027252D01*
X0051122Y0027272D01*
X0051269Y0027288D01*
X0051416Y0027300D01*
X0051564Y0027308D01*
X0051712Y0027312D01*
X0051860Y0027312D01*
X0052008Y0027308D01*
X0052156Y0027300D01*
X0052303Y0027288D01*
X0052450Y0027272D01*
X0052597Y0027252D01*
X0052743Y0027228D01*
X0052889Y0027201D01*
X0053033Y0027169D01*
X0053177Y0027134D01*
X0053320Y0027094D01*
X0053461Y0027051D01*
X0053602Y0027004D01*
X0053741Y0026954D01*
X0053878Y0026899D01*
X0054014Y0026841D01*
X0054149Y0026780D01*
X0054282Y0026715D01*
X0054413Y0026646D01*
X0054542Y0026574D01*
X0054669Y0026498D01*
X0054794Y0026419D01*
X0054917Y0026336D01*
X0055038Y0026251D01*
X0055156Y0026162D01*
X0055272Y0026070D01*
X0055385Y0025974D01*
X0055496Y0025876D01*
X0055604Y0025775D01*
X0055710Y0025671D01*
X0055812Y0025565D01*
X0055912Y0025455D01*
X0056008Y0025343D01*
X0056102Y0025228D01*
X0056193Y0025111D01*
X0056280Y0024992D01*
X0056364Y0024870D01*
X0056445Y0024746D01*
X0056522Y0024620D01*
X0056596Y0024492D01*
X0056667Y0024362D01*
X0056734Y0024230D01*
X0056797Y0024096D01*
X0056857Y0023961D01*
X0056913Y0023824D01*
X0056966Y0023685D01*
X0057014Y0023545D01*
X0057059Y0023404D01*
X0057100Y0023262D01*
X0057138Y0023119D01*
X0057171Y0022975D01*
X0057201Y0022830D01*
X0057227Y0022684D01*
X0057248Y0022538D01*
X0057266Y0022391D01*
X0057280Y0022244D01*
X0057290Y0022096D01*
X0057296Y0021948D01*
X0057298Y0021800D01*
X0057296Y0021652D01*
X0057290Y0021504D01*
X0057280Y0021356D01*
X0057266Y0021209D01*
X0057248Y0021062D01*
X0057227Y0020916D01*
X0057201Y0020770D01*
X0057171Y0020625D01*
X0057138Y0020481D01*
X0057100Y0020338D01*
X0057059Y0020196D01*
X0057014Y0020055D01*
X0056966Y0019915D01*
X0056913Y0019776D01*
X0056857Y0019639D01*
X0056797Y0019504D01*
X0056734Y0019370D01*
X0056667Y0019238D01*
X0056596Y0019108D01*
X0056522Y0018980D01*
X0056445Y0018854D01*
X0056364Y0018730D01*
X0056280Y0018608D01*
X0056193Y0018489D01*
X0056102Y0018372D01*
X0056008Y0018257D01*
X0055912Y0018145D01*
X0055812Y0018035D01*
X0055710Y0017929D01*
X0055604Y0017825D01*
X0055496Y0017724D01*
X0055385Y0017626D01*
X0055272Y0017530D01*
X0055156Y0017438D01*
X0055038Y0017349D01*
X0054917Y0017264D01*
X0054794Y0017181D01*
X0054669Y0017102D01*
X0054542Y0017026D01*
X0054413Y0016954D01*
X0054282Y0016885D01*
X0054149Y0016820D01*
X0054014Y0016759D01*
X0053878Y0016701D01*
X0053741Y0016646D01*
X0053602Y0016596D01*
X0053461Y0016549D01*
X0053320Y0016506D01*
X0053177Y0016466D01*
X0053033Y0016431D01*
X0052889Y0016399D01*
X0052743Y0016372D01*
X0052597Y0016348D01*
X0052450Y0016328D01*
X0052303Y0016312D01*
X0052156Y0016300D01*
X0052008Y0016292D01*
X0051860Y0016288D01*
X0051712Y0016288D01*
X0051564Y0016292D01*
X0051416Y0016300D01*
X0051269Y0016312D01*
X0051122Y0016328D01*
X0050975Y0016348D01*
X0050829Y0016372D01*
X0050683Y0016399D01*
X0050539Y0016431D01*
X0050395Y0016466D01*
X0050252Y0016506D01*
X0050111Y0016549D01*
X0049970Y0016596D01*
X0049831Y0016646D01*
X0049694Y0016701D01*
X0049558Y0016759D01*
X0049423Y0016820D01*
X0049290Y0016885D01*
X0049159Y0016954D01*
X0049030Y0017026D01*
X0048903Y0017102D01*
X0048778Y0017181D01*
X0048655Y0017264D01*
X0048534Y0017349D01*
X0048416Y0017438D01*
X0048300Y0017530D01*
X0048187Y0017626D01*
X0048076Y0017724D01*
X0047968Y0017825D01*
X0047862Y0017929D01*
X0047760Y0018035D01*
X0047660Y0018145D01*
X0047564Y0018257D01*
X0047470Y0018372D01*
X0047379Y0018489D01*
X0047292Y0018608D01*
X0047208Y0018730D01*
X0047127Y0018854D01*
X0047050Y0018980D01*
X0046976Y0019108D01*
X0046905Y0019238D01*
X0046838Y0019370D01*
X0046775Y0019504D01*
X0046715Y0019639D01*
X0046659Y0019776D01*
X0046606Y0019915D01*
X0046558Y0020055D01*
X0046513Y0020196D01*
X0046472Y0020338D01*
X0046434Y0020481D01*
X0046401Y0020625D01*
X0046371Y0020770D01*
X0046345Y0020916D01*
X0046324Y0021062D01*
X0046306Y0021209D01*
X0046292Y0021356D01*
X0046282Y0021504D01*
X0046276Y0021652D01*
X0046274Y0021800D01*
X0251156Y0021800D02*
X0251158Y0021948D01*
X0251164Y0022096D01*
X0251174Y0022244D01*
X0251188Y0022391D01*
X0251206Y0022538D01*
X0251227Y0022684D01*
X0251253Y0022830D01*
X0251283Y0022975D01*
X0251316Y0023119D01*
X0251354Y0023262D01*
X0251395Y0023404D01*
X0251440Y0023545D01*
X0251488Y0023685D01*
X0251541Y0023824D01*
X0251597Y0023961D01*
X0251657Y0024096D01*
X0251720Y0024230D01*
X0251787Y0024362D01*
X0251858Y0024492D01*
X0251932Y0024620D01*
X0252009Y0024746D01*
X0252090Y0024870D01*
X0252174Y0024992D01*
X0252261Y0025111D01*
X0252352Y0025228D01*
X0252446Y0025343D01*
X0252542Y0025455D01*
X0252642Y0025565D01*
X0252744Y0025671D01*
X0252850Y0025775D01*
X0252958Y0025876D01*
X0253069Y0025974D01*
X0253182Y0026070D01*
X0253298Y0026162D01*
X0253416Y0026251D01*
X0253537Y0026336D01*
X0253660Y0026419D01*
X0253785Y0026498D01*
X0253912Y0026574D01*
X0254041Y0026646D01*
X0254172Y0026715D01*
X0254305Y0026780D01*
X0254440Y0026841D01*
X0254576Y0026899D01*
X0254713Y0026954D01*
X0254852Y0027004D01*
X0254993Y0027051D01*
X0255134Y0027094D01*
X0255277Y0027134D01*
X0255421Y0027169D01*
X0255565Y0027201D01*
X0255711Y0027228D01*
X0255857Y0027252D01*
X0256004Y0027272D01*
X0256151Y0027288D01*
X0256298Y0027300D01*
X0256446Y0027308D01*
X0256594Y0027312D01*
X0256742Y0027312D01*
X0256890Y0027308D01*
X0257038Y0027300D01*
X0257185Y0027288D01*
X0257332Y0027272D01*
X0257479Y0027252D01*
X0257625Y0027228D01*
X0257771Y0027201D01*
X0257915Y0027169D01*
X0258059Y0027134D01*
X0258202Y0027094D01*
X0258343Y0027051D01*
X0258484Y0027004D01*
X0258623Y0026954D01*
X0258760Y0026899D01*
X0258896Y0026841D01*
X0259031Y0026780D01*
X0259164Y0026715D01*
X0259295Y0026646D01*
X0259424Y0026574D01*
X0259551Y0026498D01*
X0259676Y0026419D01*
X0259799Y0026336D01*
X0259920Y0026251D01*
X0260038Y0026162D01*
X0260154Y0026070D01*
X0260267Y0025974D01*
X0260378Y0025876D01*
X0260486Y0025775D01*
X0260592Y0025671D01*
X0260694Y0025565D01*
X0260794Y0025455D01*
X0260890Y0025343D01*
X0260984Y0025228D01*
X0261075Y0025111D01*
X0261162Y0024992D01*
X0261246Y0024870D01*
X0261327Y0024746D01*
X0261404Y0024620D01*
X0261478Y0024492D01*
X0261549Y0024362D01*
X0261616Y0024230D01*
X0261679Y0024096D01*
X0261739Y0023961D01*
X0261795Y0023824D01*
X0261848Y0023685D01*
X0261896Y0023545D01*
X0261941Y0023404D01*
X0261982Y0023262D01*
X0262020Y0023119D01*
X0262053Y0022975D01*
X0262083Y0022830D01*
X0262109Y0022684D01*
X0262130Y0022538D01*
X0262148Y0022391D01*
X0262162Y0022244D01*
X0262172Y0022096D01*
X0262178Y0021948D01*
X0262180Y0021800D01*
X0262178Y0021652D01*
X0262172Y0021504D01*
X0262162Y0021356D01*
X0262148Y0021209D01*
X0262130Y0021062D01*
X0262109Y0020916D01*
X0262083Y0020770D01*
X0262053Y0020625D01*
X0262020Y0020481D01*
X0261982Y0020338D01*
X0261941Y0020196D01*
X0261896Y0020055D01*
X0261848Y0019915D01*
X0261795Y0019776D01*
X0261739Y0019639D01*
X0261679Y0019504D01*
X0261616Y0019370D01*
X0261549Y0019238D01*
X0261478Y0019108D01*
X0261404Y0018980D01*
X0261327Y0018854D01*
X0261246Y0018730D01*
X0261162Y0018608D01*
X0261075Y0018489D01*
X0260984Y0018372D01*
X0260890Y0018257D01*
X0260794Y0018145D01*
X0260694Y0018035D01*
X0260592Y0017929D01*
X0260486Y0017825D01*
X0260378Y0017724D01*
X0260267Y0017626D01*
X0260154Y0017530D01*
X0260038Y0017438D01*
X0259920Y0017349D01*
X0259799Y0017264D01*
X0259676Y0017181D01*
X0259551Y0017102D01*
X0259424Y0017026D01*
X0259295Y0016954D01*
X0259164Y0016885D01*
X0259031Y0016820D01*
X0258896Y0016759D01*
X0258760Y0016701D01*
X0258623Y0016646D01*
X0258484Y0016596D01*
X0258343Y0016549D01*
X0258202Y0016506D01*
X0258059Y0016466D01*
X0257915Y0016431D01*
X0257771Y0016399D01*
X0257625Y0016372D01*
X0257479Y0016348D01*
X0257332Y0016328D01*
X0257185Y0016312D01*
X0257038Y0016300D01*
X0256890Y0016292D01*
X0256742Y0016288D01*
X0256594Y0016288D01*
X0256446Y0016292D01*
X0256298Y0016300D01*
X0256151Y0016312D01*
X0256004Y0016328D01*
X0255857Y0016348D01*
X0255711Y0016372D01*
X0255565Y0016399D01*
X0255421Y0016431D01*
X0255277Y0016466D01*
X0255134Y0016506D01*
X0254993Y0016549D01*
X0254852Y0016596D01*
X0254713Y0016646D01*
X0254576Y0016701D01*
X0254440Y0016759D01*
X0254305Y0016820D01*
X0254172Y0016885D01*
X0254041Y0016954D01*
X0253912Y0017026D01*
X0253785Y0017102D01*
X0253660Y0017181D01*
X0253537Y0017264D01*
X0253416Y0017349D01*
X0253298Y0017438D01*
X0253182Y0017530D01*
X0253069Y0017626D01*
X0252958Y0017724D01*
X0252850Y0017825D01*
X0252744Y0017929D01*
X0252642Y0018035D01*
X0252542Y0018145D01*
X0252446Y0018257D01*
X0252352Y0018372D01*
X0252261Y0018489D01*
X0252174Y0018608D01*
X0252090Y0018730D01*
X0252009Y0018854D01*
X0251932Y0018980D01*
X0251858Y0019108D01*
X0251787Y0019238D01*
X0251720Y0019370D01*
X0251657Y0019504D01*
X0251597Y0019639D01*
X0251541Y0019776D01*
X0251488Y0019915D01*
X0251440Y0020055D01*
X0251395Y0020196D01*
X0251354Y0020338D01*
X0251316Y0020481D01*
X0251283Y0020625D01*
X0251253Y0020770D01*
X0251227Y0020916D01*
X0251206Y0021062D01*
X0251188Y0021209D01*
X0251174Y0021356D01*
X0251164Y0021504D01*
X0251158Y0021652D01*
X0251156Y0021800D01*
X0103727Y0306800D02*
X0103729Y0306961D01*
X0103735Y0307121D01*
X0103745Y0307282D01*
X0103759Y0307442D01*
X0103777Y0307602D01*
X0103798Y0307761D01*
X0103824Y0307920D01*
X0103854Y0308078D01*
X0103887Y0308235D01*
X0103925Y0308392D01*
X0103966Y0308547D01*
X0104011Y0308701D01*
X0104060Y0308854D01*
X0104113Y0309006D01*
X0104169Y0309157D01*
X0104230Y0309306D01*
X0104293Y0309454D01*
X0104361Y0309600D01*
X0104432Y0309744D01*
X0104506Y0309886D01*
X0104584Y0310027D01*
X0104666Y0310165D01*
X0104751Y0310302D01*
X0104839Y0310436D01*
X0104931Y0310568D01*
X0105026Y0310698D01*
X0105124Y0310826D01*
X0105225Y0310951D01*
X0105329Y0311073D01*
X0105436Y0311193D01*
X0105546Y0311310D01*
X0105659Y0311425D01*
X0105775Y0311536D01*
X0105894Y0311645D01*
X0106015Y0311750D01*
X0106139Y0311853D01*
X0106265Y0311953D01*
X0106393Y0312049D01*
X0106524Y0312142D01*
X0106658Y0312232D01*
X0106793Y0312319D01*
X0106931Y0312402D01*
X0107070Y0312482D01*
X0107212Y0312558D01*
X0107355Y0312631D01*
X0107500Y0312700D01*
X0107647Y0312766D01*
X0107795Y0312828D01*
X0107945Y0312886D01*
X0108096Y0312941D01*
X0108249Y0312992D01*
X0108403Y0313039D01*
X0108558Y0313082D01*
X0108714Y0313121D01*
X0108870Y0313157D01*
X0109028Y0313188D01*
X0109186Y0313216D01*
X0109345Y0313240D01*
X0109505Y0313260D01*
X0109665Y0313276D01*
X0109825Y0313288D01*
X0109986Y0313296D01*
X0110147Y0313300D01*
X0110307Y0313300D01*
X0110468Y0313296D01*
X0110629Y0313288D01*
X0110789Y0313276D01*
X0110949Y0313260D01*
X0111109Y0313240D01*
X0111268Y0313216D01*
X0111426Y0313188D01*
X0111584Y0313157D01*
X0111740Y0313121D01*
X0111896Y0313082D01*
X0112051Y0313039D01*
X0112205Y0312992D01*
X0112358Y0312941D01*
X0112509Y0312886D01*
X0112659Y0312828D01*
X0112807Y0312766D01*
X0112954Y0312700D01*
X0113099Y0312631D01*
X0113242Y0312558D01*
X0113384Y0312482D01*
X0113523Y0312402D01*
X0113661Y0312319D01*
X0113796Y0312232D01*
X0113930Y0312142D01*
X0114061Y0312049D01*
X0114189Y0311953D01*
X0114315Y0311853D01*
X0114439Y0311750D01*
X0114560Y0311645D01*
X0114679Y0311536D01*
X0114795Y0311425D01*
X0114908Y0311310D01*
X0115018Y0311193D01*
X0115125Y0311073D01*
X0115229Y0310951D01*
X0115330Y0310826D01*
X0115428Y0310698D01*
X0115523Y0310568D01*
X0115615Y0310436D01*
X0115703Y0310302D01*
X0115788Y0310165D01*
X0115870Y0310027D01*
X0115948Y0309886D01*
X0116022Y0309744D01*
X0116093Y0309600D01*
X0116161Y0309454D01*
X0116224Y0309306D01*
X0116285Y0309157D01*
X0116341Y0309006D01*
X0116394Y0308854D01*
X0116443Y0308701D01*
X0116488Y0308547D01*
X0116529Y0308392D01*
X0116567Y0308235D01*
X0116600Y0308078D01*
X0116630Y0307920D01*
X0116656Y0307761D01*
X0116677Y0307602D01*
X0116695Y0307442D01*
X0116709Y0307282D01*
X0116719Y0307121D01*
X0116725Y0306961D01*
X0116727Y0306800D01*
X0116725Y0306639D01*
X0116719Y0306479D01*
X0116709Y0306318D01*
X0116695Y0306158D01*
X0116677Y0305998D01*
X0116656Y0305839D01*
X0116630Y0305680D01*
X0116600Y0305522D01*
X0116567Y0305365D01*
X0116529Y0305208D01*
X0116488Y0305053D01*
X0116443Y0304899D01*
X0116394Y0304746D01*
X0116341Y0304594D01*
X0116285Y0304443D01*
X0116224Y0304294D01*
X0116161Y0304146D01*
X0116093Y0304000D01*
X0116022Y0303856D01*
X0115948Y0303714D01*
X0115870Y0303573D01*
X0115788Y0303435D01*
X0115703Y0303298D01*
X0115615Y0303164D01*
X0115523Y0303032D01*
X0115428Y0302902D01*
X0115330Y0302774D01*
X0115229Y0302649D01*
X0115125Y0302527D01*
X0115018Y0302407D01*
X0114908Y0302290D01*
X0114795Y0302175D01*
X0114679Y0302064D01*
X0114560Y0301955D01*
X0114439Y0301850D01*
X0114315Y0301747D01*
X0114189Y0301647D01*
X0114061Y0301551D01*
X0113930Y0301458D01*
X0113796Y0301368D01*
X0113661Y0301281D01*
X0113523Y0301198D01*
X0113384Y0301118D01*
X0113242Y0301042D01*
X0113099Y0300969D01*
X0112954Y0300900D01*
X0112807Y0300834D01*
X0112659Y0300772D01*
X0112509Y0300714D01*
X0112358Y0300659D01*
X0112205Y0300608D01*
X0112051Y0300561D01*
X0111896Y0300518D01*
X0111740Y0300479D01*
X0111584Y0300443D01*
X0111426Y0300412D01*
X0111268Y0300384D01*
X0111109Y0300360D01*
X0110949Y0300340D01*
X0110789Y0300324D01*
X0110629Y0300312D01*
X0110468Y0300304D01*
X0110307Y0300300D01*
X0110147Y0300300D01*
X0109986Y0300304D01*
X0109825Y0300312D01*
X0109665Y0300324D01*
X0109505Y0300340D01*
X0109345Y0300360D01*
X0109186Y0300384D01*
X0109028Y0300412D01*
X0108870Y0300443D01*
X0108714Y0300479D01*
X0108558Y0300518D01*
X0108403Y0300561D01*
X0108249Y0300608D01*
X0108096Y0300659D01*
X0107945Y0300714D01*
X0107795Y0300772D01*
X0107647Y0300834D01*
X0107500Y0300900D01*
X0107355Y0300969D01*
X0107212Y0301042D01*
X0107070Y0301118D01*
X0106931Y0301198D01*
X0106793Y0301281D01*
X0106658Y0301368D01*
X0106524Y0301458D01*
X0106393Y0301551D01*
X0106265Y0301647D01*
X0106139Y0301747D01*
X0106015Y0301850D01*
X0105894Y0301955D01*
X0105775Y0302064D01*
X0105659Y0302175D01*
X0105546Y0302290D01*
X0105436Y0302407D01*
X0105329Y0302527D01*
X0105225Y0302649D01*
X0105124Y0302774D01*
X0105026Y0302902D01*
X0104931Y0303032D01*
X0104839Y0303164D01*
X0104751Y0303298D01*
X0104666Y0303435D01*
X0104584Y0303573D01*
X0104506Y0303714D01*
X0104432Y0303856D01*
X0104361Y0304000D01*
X0104293Y0304146D01*
X0104230Y0304294D01*
X0104169Y0304443D01*
X0104113Y0304594D01*
X0104060Y0304746D01*
X0104011Y0304899D01*
X0103966Y0305053D01*
X0103925Y0305208D01*
X0103887Y0305365D01*
X0103854Y0305522D01*
X0103824Y0305680D01*
X0103798Y0305839D01*
X0103777Y0305998D01*
X0103759Y0306158D01*
X0103745Y0306318D01*
X0103735Y0306479D01*
X0103729Y0306639D01*
X0103727Y0306800D01*
X0046274Y0320737D02*
X0046276Y0320885D01*
X0046282Y0321033D01*
X0046292Y0321181D01*
X0046306Y0321328D01*
X0046324Y0321475D01*
X0046345Y0321621D01*
X0046371Y0321767D01*
X0046401Y0321912D01*
X0046434Y0322056D01*
X0046472Y0322199D01*
X0046513Y0322341D01*
X0046558Y0322482D01*
X0046606Y0322622D01*
X0046659Y0322761D01*
X0046715Y0322898D01*
X0046775Y0323033D01*
X0046838Y0323167D01*
X0046905Y0323299D01*
X0046976Y0323429D01*
X0047050Y0323557D01*
X0047127Y0323683D01*
X0047208Y0323807D01*
X0047292Y0323929D01*
X0047379Y0324048D01*
X0047470Y0324165D01*
X0047564Y0324280D01*
X0047660Y0324392D01*
X0047760Y0324502D01*
X0047862Y0324608D01*
X0047968Y0324712D01*
X0048076Y0324813D01*
X0048187Y0324911D01*
X0048300Y0325007D01*
X0048416Y0325099D01*
X0048534Y0325188D01*
X0048655Y0325273D01*
X0048778Y0325356D01*
X0048903Y0325435D01*
X0049030Y0325511D01*
X0049159Y0325583D01*
X0049290Y0325652D01*
X0049423Y0325717D01*
X0049558Y0325778D01*
X0049694Y0325836D01*
X0049831Y0325891D01*
X0049970Y0325941D01*
X0050111Y0325988D01*
X0050252Y0326031D01*
X0050395Y0326071D01*
X0050539Y0326106D01*
X0050683Y0326138D01*
X0050829Y0326165D01*
X0050975Y0326189D01*
X0051122Y0326209D01*
X0051269Y0326225D01*
X0051416Y0326237D01*
X0051564Y0326245D01*
X0051712Y0326249D01*
X0051860Y0326249D01*
X0052008Y0326245D01*
X0052156Y0326237D01*
X0052303Y0326225D01*
X0052450Y0326209D01*
X0052597Y0326189D01*
X0052743Y0326165D01*
X0052889Y0326138D01*
X0053033Y0326106D01*
X0053177Y0326071D01*
X0053320Y0326031D01*
X0053461Y0325988D01*
X0053602Y0325941D01*
X0053741Y0325891D01*
X0053878Y0325836D01*
X0054014Y0325778D01*
X0054149Y0325717D01*
X0054282Y0325652D01*
X0054413Y0325583D01*
X0054542Y0325511D01*
X0054669Y0325435D01*
X0054794Y0325356D01*
X0054917Y0325273D01*
X0055038Y0325188D01*
X0055156Y0325099D01*
X0055272Y0325007D01*
X0055385Y0324911D01*
X0055496Y0324813D01*
X0055604Y0324712D01*
X0055710Y0324608D01*
X0055812Y0324502D01*
X0055912Y0324392D01*
X0056008Y0324280D01*
X0056102Y0324165D01*
X0056193Y0324048D01*
X0056280Y0323929D01*
X0056364Y0323807D01*
X0056445Y0323683D01*
X0056522Y0323557D01*
X0056596Y0323429D01*
X0056667Y0323299D01*
X0056734Y0323167D01*
X0056797Y0323033D01*
X0056857Y0322898D01*
X0056913Y0322761D01*
X0056966Y0322622D01*
X0057014Y0322482D01*
X0057059Y0322341D01*
X0057100Y0322199D01*
X0057138Y0322056D01*
X0057171Y0321912D01*
X0057201Y0321767D01*
X0057227Y0321621D01*
X0057248Y0321475D01*
X0057266Y0321328D01*
X0057280Y0321181D01*
X0057290Y0321033D01*
X0057296Y0320885D01*
X0057298Y0320737D01*
X0057296Y0320589D01*
X0057290Y0320441D01*
X0057280Y0320293D01*
X0057266Y0320146D01*
X0057248Y0319999D01*
X0057227Y0319853D01*
X0057201Y0319707D01*
X0057171Y0319562D01*
X0057138Y0319418D01*
X0057100Y0319275D01*
X0057059Y0319133D01*
X0057014Y0318992D01*
X0056966Y0318852D01*
X0056913Y0318713D01*
X0056857Y0318576D01*
X0056797Y0318441D01*
X0056734Y0318307D01*
X0056667Y0318175D01*
X0056596Y0318045D01*
X0056522Y0317917D01*
X0056445Y0317791D01*
X0056364Y0317667D01*
X0056280Y0317545D01*
X0056193Y0317426D01*
X0056102Y0317309D01*
X0056008Y0317194D01*
X0055912Y0317082D01*
X0055812Y0316972D01*
X0055710Y0316866D01*
X0055604Y0316762D01*
X0055496Y0316661D01*
X0055385Y0316563D01*
X0055272Y0316467D01*
X0055156Y0316375D01*
X0055038Y0316286D01*
X0054917Y0316201D01*
X0054794Y0316118D01*
X0054669Y0316039D01*
X0054542Y0315963D01*
X0054413Y0315891D01*
X0054282Y0315822D01*
X0054149Y0315757D01*
X0054014Y0315696D01*
X0053878Y0315638D01*
X0053741Y0315583D01*
X0053602Y0315533D01*
X0053461Y0315486D01*
X0053320Y0315443D01*
X0053177Y0315403D01*
X0053033Y0315368D01*
X0052889Y0315336D01*
X0052743Y0315309D01*
X0052597Y0315285D01*
X0052450Y0315265D01*
X0052303Y0315249D01*
X0052156Y0315237D01*
X0052008Y0315229D01*
X0051860Y0315225D01*
X0051712Y0315225D01*
X0051564Y0315229D01*
X0051416Y0315237D01*
X0051269Y0315249D01*
X0051122Y0315265D01*
X0050975Y0315285D01*
X0050829Y0315309D01*
X0050683Y0315336D01*
X0050539Y0315368D01*
X0050395Y0315403D01*
X0050252Y0315443D01*
X0050111Y0315486D01*
X0049970Y0315533D01*
X0049831Y0315583D01*
X0049694Y0315638D01*
X0049558Y0315696D01*
X0049423Y0315757D01*
X0049290Y0315822D01*
X0049159Y0315891D01*
X0049030Y0315963D01*
X0048903Y0316039D01*
X0048778Y0316118D01*
X0048655Y0316201D01*
X0048534Y0316286D01*
X0048416Y0316375D01*
X0048300Y0316467D01*
X0048187Y0316563D01*
X0048076Y0316661D01*
X0047968Y0316762D01*
X0047862Y0316866D01*
X0047760Y0316972D01*
X0047660Y0317082D01*
X0047564Y0317194D01*
X0047470Y0317309D01*
X0047379Y0317426D01*
X0047292Y0317545D01*
X0047208Y0317667D01*
X0047127Y0317791D01*
X0047050Y0317917D01*
X0046976Y0318045D01*
X0046905Y0318175D01*
X0046838Y0318307D01*
X0046775Y0318441D01*
X0046715Y0318576D01*
X0046659Y0318713D01*
X0046606Y0318852D01*
X0046558Y0318992D01*
X0046513Y0319133D01*
X0046472Y0319275D01*
X0046434Y0319418D01*
X0046401Y0319562D01*
X0046371Y0319707D01*
X0046345Y0319853D01*
X0046324Y0319999D01*
X0046306Y0320146D01*
X0046292Y0320293D01*
X0046282Y0320441D01*
X0046276Y0320589D01*
X0046274Y0320737D01*
X0247219Y0320737D02*
X0247221Y0320885D01*
X0247227Y0321033D01*
X0247237Y0321181D01*
X0247251Y0321328D01*
X0247269Y0321475D01*
X0247290Y0321621D01*
X0247316Y0321767D01*
X0247346Y0321912D01*
X0247379Y0322056D01*
X0247417Y0322199D01*
X0247458Y0322341D01*
X0247503Y0322482D01*
X0247551Y0322622D01*
X0247604Y0322761D01*
X0247660Y0322898D01*
X0247720Y0323033D01*
X0247783Y0323167D01*
X0247850Y0323299D01*
X0247921Y0323429D01*
X0247995Y0323557D01*
X0248072Y0323683D01*
X0248153Y0323807D01*
X0248237Y0323929D01*
X0248324Y0324048D01*
X0248415Y0324165D01*
X0248509Y0324280D01*
X0248605Y0324392D01*
X0248705Y0324502D01*
X0248807Y0324608D01*
X0248913Y0324712D01*
X0249021Y0324813D01*
X0249132Y0324911D01*
X0249245Y0325007D01*
X0249361Y0325099D01*
X0249479Y0325188D01*
X0249600Y0325273D01*
X0249723Y0325356D01*
X0249848Y0325435D01*
X0249975Y0325511D01*
X0250104Y0325583D01*
X0250235Y0325652D01*
X0250368Y0325717D01*
X0250503Y0325778D01*
X0250639Y0325836D01*
X0250776Y0325891D01*
X0250915Y0325941D01*
X0251056Y0325988D01*
X0251197Y0326031D01*
X0251340Y0326071D01*
X0251484Y0326106D01*
X0251628Y0326138D01*
X0251774Y0326165D01*
X0251920Y0326189D01*
X0252067Y0326209D01*
X0252214Y0326225D01*
X0252361Y0326237D01*
X0252509Y0326245D01*
X0252657Y0326249D01*
X0252805Y0326249D01*
X0252953Y0326245D01*
X0253101Y0326237D01*
X0253248Y0326225D01*
X0253395Y0326209D01*
X0253542Y0326189D01*
X0253688Y0326165D01*
X0253834Y0326138D01*
X0253978Y0326106D01*
X0254122Y0326071D01*
X0254265Y0326031D01*
X0254406Y0325988D01*
X0254547Y0325941D01*
X0254686Y0325891D01*
X0254823Y0325836D01*
X0254959Y0325778D01*
X0255094Y0325717D01*
X0255227Y0325652D01*
X0255358Y0325583D01*
X0255487Y0325511D01*
X0255614Y0325435D01*
X0255739Y0325356D01*
X0255862Y0325273D01*
X0255983Y0325188D01*
X0256101Y0325099D01*
X0256217Y0325007D01*
X0256330Y0324911D01*
X0256441Y0324813D01*
X0256549Y0324712D01*
X0256655Y0324608D01*
X0256757Y0324502D01*
X0256857Y0324392D01*
X0256953Y0324280D01*
X0257047Y0324165D01*
X0257138Y0324048D01*
X0257225Y0323929D01*
X0257309Y0323807D01*
X0257390Y0323683D01*
X0257467Y0323557D01*
X0257541Y0323429D01*
X0257612Y0323299D01*
X0257679Y0323167D01*
X0257742Y0323033D01*
X0257802Y0322898D01*
X0257858Y0322761D01*
X0257911Y0322622D01*
X0257959Y0322482D01*
X0258004Y0322341D01*
X0258045Y0322199D01*
X0258083Y0322056D01*
X0258116Y0321912D01*
X0258146Y0321767D01*
X0258172Y0321621D01*
X0258193Y0321475D01*
X0258211Y0321328D01*
X0258225Y0321181D01*
X0258235Y0321033D01*
X0258241Y0320885D01*
X0258243Y0320737D01*
X0258241Y0320589D01*
X0258235Y0320441D01*
X0258225Y0320293D01*
X0258211Y0320146D01*
X0258193Y0319999D01*
X0258172Y0319853D01*
X0258146Y0319707D01*
X0258116Y0319562D01*
X0258083Y0319418D01*
X0258045Y0319275D01*
X0258004Y0319133D01*
X0257959Y0318992D01*
X0257911Y0318852D01*
X0257858Y0318713D01*
X0257802Y0318576D01*
X0257742Y0318441D01*
X0257679Y0318307D01*
X0257612Y0318175D01*
X0257541Y0318045D01*
X0257467Y0317917D01*
X0257390Y0317791D01*
X0257309Y0317667D01*
X0257225Y0317545D01*
X0257138Y0317426D01*
X0257047Y0317309D01*
X0256953Y0317194D01*
X0256857Y0317082D01*
X0256757Y0316972D01*
X0256655Y0316866D01*
X0256549Y0316762D01*
X0256441Y0316661D01*
X0256330Y0316563D01*
X0256217Y0316467D01*
X0256101Y0316375D01*
X0255983Y0316286D01*
X0255862Y0316201D01*
X0255739Y0316118D01*
X0255614Y0316039D01*
X0255487Y0315963D01*
X0255358Y0315891D01*
X0255227Y0315822D01*
X0255094Y0315757D01*
X0254959Y0315696D01*
X0254823Y0315638D01*
X0254686Y0315583D01*
X0254547Y0315533D01*
X0254406Y0315486D01*
X0254265Y0315443D01*
X0254122Y0315403D01*
X0253978Y0315368D01*
X0253834Y0315336D01*
X0253688Y0315309D01*
X0253542Y0315285D01*
X0253395Y0315265D01*
X0253248Y0315249D01*
X0253101Y0315237D01*
X0252953Y0315229D01*
X0252805Y0315225D01*
X0252657Y0315225D01*
X0252509Y0315229D01*
X0252361Y0315237D01*
X0252214Y0315249D01*
X0252067Y0315265D01*
X0251920Y0315285D01*
X0251774Y0315309D01*
X0251628Y0315336D01*
X0251484Y0315368D01*
X0251340Y0315403D01*
X0251197Y0315443D01*
X0251056Y0315486D01*
X0250915Y0315533D01*
X0250776Y0315583D01*
X0250639Y0315638D01*
X0250503Y0315696D01*
X0250368Y0315757D01*
X0250235Y0315822D01*
X0250104Y0315891D01*
X0249975Y0315963D01*
X0249848Y0316039D01*
X0249723Y0316118D01*
X0249600Y0316201D01*
X0249479Y0316286D01*
X0249361Y0316375D01*
X0249245Y0316467D01*
X0249132Y0316563D01*
X0249021Y0316661D01*
X0248913Y0316762D01*
X0248807Y0316866D01*
X0248705Y0316972D01*
X0248605Y0317082D01*
X0248509Y0317194D01*
X0248415Y0317309D01*
X0248324Y0317426D01*
X0248237Y0317545D01*
X0248153Y0317667D01*
X0248072Y0317791D01*
X0247995Y0317917D01*
X0247921Y0318045D01*
X0247850Y0318175D01*
X0247783Y0318307D01*
X0247720Y0318441D01*
X0247660Y0318576D01*
X0247604Y0318713D01*
X0247551Y0318852D01*
X0247503Y0318992D01*
X0247458Y0319133D01*
X0247417Y0319275D01*
X0247379Y0319418D01*
X0247346Y0319562D01*
X0247316Y0319707D01*
X0247290Y0319853D01*
X0247269Y0319999D01*
X0247251Y0320146D01*
X0247237Y0320293D01*
X0247227Y0320441D01*
X0247221Y0320589D01*
X0247219Y0320737D01*
M02*
