G75*
%MOIN*%
%OFA0B0*%
%FSLAX25Y25*%
%IPPOS*%
%LPD*%
%AMOC8*
5,1,8,0,0,1.08239X$1,22.5*
%
%ADD10C,0.00300*%
%ADD11C,0.00600*%
%ADD12C,0.00500*%
%ADD13C,0.00200*%
%ADD14C,0.00700*%
%ADD15R,0.02500X0.03000*%
%ADD16R,0.11000X0.05000*%
%ADD17C,0.00400*%
%ADD18R,0.06594X0.74606*%
%ADD19R,0.01500X0.02000*%
%ADD20R,0.10000X0.02000*%
%ADD21R,0.03000X0.07500*%
%ADD22C,0.01000*%
%ADD23C,0.00800*%
%ADD24C,0.00100*%
%ADD25R,0.03000X0.01800*%
D10*
X0059979Y0143682D02*
X0060947Y0143682D01*
X0061431Y0144166D01*
X0061431Y0145134D01*
X0060463Y0145134D01*
X0059496Y0146101D02*
X0059496Y0144166D01*
X0059979Y0143682D01*
X0062442Y0143682D02*
X0062442Y0146585D01*
X0064377Y0143682D01*
X0064377Y0146585D01*
X0065389Y0146585D02*
X0066840Y0146585D01*
X0067324Y0146101D01*
X0067324Y0144166D01*
X0066840Y0143682D01*
X0065389Y0143682D01*
X0065389Y0146585D01*
X0061431Y0146101D02*
X0060947Y0146585D01*
X0059979Y0146585D01*
X0059496Y0146101D01*
X0047155Y0273604D02*
X0045704Y0273604D01*
X0045704Y0276506D01*
X0047155Y0276506D01*
X0047639Y0276022D01*
X0047639Y0274087D01*
X0047155Y0273604D01*
X0044692Y0273604D02*
X0044692Y0276506D01*
X0042757Y0276506D02*
X0042757Y0273604D01*
X0041745Y0274087D02*
X0041745Y0275055D01*
X0040778Y0275055D01*
X0041745Y0276022D02*
X0041262Y0276506D01*
X0040294Y0276506D01*
X0039810Y0276022D01*
X0039810Y0274087D01*
X0040294Y0273604D01*
X0041262Y0273604D01*
X0041745Y0274087D01*
X0042757Y0276506D02*
X0044692Y0273604D01*
X0224850Y0274087D02*
X0225334Y0273604D01*
X0226301Y0273604D01*
X0226785Y0274087D01*
X0226785Y0275055D01*
X0225817Y0275055D01*
X0224850Y0276022D02*
X0224850Y0274087D01*
X0224850Y0276022D02*
X0225334Y0276506D01*
X0226301Y0276506D01*
X0226785Y0276022D01*
X0227796Y0276506D02*
X0229731Y0273604D01*
X0229731Y0276506D01*
X0230743Y0276506D02*
X0232194Y0276506D01*
X0232678Y0276022D01*
X0232678Y0274087D01*
X0232194Y0273604D01*
X0230743Y0273604D01*
X0230743Y0276506D01*
X0227796Y0276506D02*
X0227796Y0273604D01*
X0241082Y0174144D02*
X0240598Y0173660D01*
X0240598Y0171725D01*
X0241082Y0171241D01*
X0242049Y0171241D01*
X0242533Y0171725D01*
X0242533Y0172693D01*
X0241565Y0172693D01*
X0242533Y0173660D02*
X0242049Y0174144D01*
X0241082Y0174144D01*
X0243544Y0174144D02*
X0243544Y0171241D01*
X0245479Y0171241D02*
X0243544Y0174144D01*
X0245479Y0174144D02*
X0245479Y0171241D01*
X0246491Y0171241D02*
X0247942Y0171241D01*
X0248426Y0171725D01*
X0248426Y0173660D01*
X0247942Y0174144D01*
X0246491Y0174144D01*
X0246491Y0171241D01*
D11*
X0241727Y0169674D02*
X0239227Y0167174D01*
X0239227Y0162174D01*
X0241727Y0159674D01*
X0256727Y0159674D01*
X0259227Y0157174D01*
X0259227Y0152174D01*
X0256727Y0149674D01*
X0259227Y0147174D01*
X0259227Y0142174D01*
X0256727Y0139674D01*
X0241727Y0139674D01*
X0239227Y0142174D01*
X0239227Y0147174D01*
X0241727Y0149674D01*
X0256727Y0149674D01*
X0256727Y0159674D02*
X0259227Y0162174D01*
X0259227Y0167174D01*
X0256727Y0169674D01*
X0241727Y0169674D01*
X0241727Y0159674D02*
X0239227Y0157174D01*
X0239227Y0152174D01*
X0241727Y0149674D01*
X0224227Y0158800D02*
X0224227Y0164800D01*
X0224225Y0164860D01*
X0224220Y0164921D01*
X0224211Y0164980D01*
X0224198Y0165039D01*
X0224182Y0165098D01*
X0224162Y0165155D01*
X0224139Y0165210D01*
X0224112Y0165265D01*
X0224083Y0165317D01*
X0224050Y0165368D01*
X0224014Y0165417D01*
X0223976Y0165463D01*
X0223934Y0165507D01*
X0223890Y0165549D01*
X0223844Y0165587D01*
X0223795Y0165623D01*
X0223744Y0165656D01*
X0223692Y0165685D01*
X0223637Y0165712D01*
X0223582Y0165735D01*
X0223525Y0165755D01*
X0223466Y0165771D01*
X0223407Y0165784D01*
X0223348Y0165793D01*
X0223287Y0165798D01*
X0223227Y0165800D01*
X0221727Y0165800D01*
X0221227Y0165300D01*
X0207227Y0165300D01*
X0206727Y0165800D01*
X0205227Y0165800D01*
X0205167Y0165798D01*
X0205106Y0165793D01*
X0205047Y0165784D01*
X0204988Y0165771D01*
X0204929Y0165755D01*
X0204872Y0165735D01*
X0204817Y0165712D01*
X0204762Y0165685D01*
X0204710Y0165656D01*
X0204659Y0165623D01*
X0204610Y0165587D01*
X0204564Y0165549D01*
X0204520Y0165507D01*
X0204478Y0165463D01*
X0204440Y0165417D01*
X0204404Y0165368D01*
X0204371Y0165317D01*
X0204342Y0165265D01*
X0204315Y0165210D01*
X0204292Y0165155D01*
X0204272Y0165098D01*
X0204256Y0165039D01*
X0204243Y0164980D01*
X0204234Y0164921D01*
X0204229Y0164860D01*
X0204227Y0164800D01*
X0204227Y0158800D01*
X0204229Y0158740D01*
X0204234Y0158679D01*
X0204243Y0158620D01*
X0204256Y0158561D01*
X0204272Y0158502D01*
X0204292Y0158445D01*
X0204315Y0158390D01*
X0204342Y0158335D01*
X0204371Y0158283D01*
X0204404Y0158232D01*
X0204440Y0158183D01*
X0204478Y0158137D01*
X0204520Y0158093D01*
X0204564Y0158051D01*
X0204610Y0158013D01*
X0204659Y0157977D01*
X0204710Y0157944D01*
X0204762Y0157915D01*
X0204817Y0157888D01*
X0204872Y0157865D01*
X0204929Y0157845D01*
X0204988Y0157829D01*
X0205047Y0157816D01*
X0205106Y0157807D01*
X0205167Y0157802D01*
X0205227Y0157800D01*
X0206727Y0157800D01*
X0207227Y0158300D01*
X0221227Y0158300D01*
X0221727Y0157800D01*
X0223227Y0157800D01*
X0223287Y0157802D01*
X0223348Y0157807D01*
X0223407Y0157816D01*
X0223466Y0157829D01*
X0223525Y0157845D01*
X0223582Y0157865D01*
X0223637Y0157888D01*
X0223692Y0157915D01*
X0223744Y0157944D01*
X0223795Y0157977D01*
X0223844Y0158013D01*
X0223890Y0158051D01*
X0223934Y0158093D01*
X0223976Y0158137D01*
X0224014Y0158183D01*
X0224050Y0158232D01*
X0224083Y0158283D01*
X0224112Y0158335D01*
X0224139Y0158390D01*
X0224162Y0158445D01*
X0224182Y0158502D01*
X0224198Y0158561D01*
X0224211Y0158620D01*
X0224220Y0158679D01*
X0224225Y0158740D01*
X0224227Y0158800D01*
X0215290Y0188800D02*
X0205290Y0188800D01*
X0205290Y0204800D01*
X0215290Y0204800D01*
X0215290Y0188800D01*
X0210290Y0194300D02*
X0210290Y0196800D01*
X0212790Y0196800D01*
X0210290Y0196800D02*
X0210290Y0202800D01*
X0207790Y0200800D02*
X0210290Y0196800D01*
X0207790Y0196800D01*
X0210290Y0196800D02*
X0212790Y0200800D01*
X0207790Y0200800D01*
X0200290Y0204800D02*
X0190290Y0204800D01*
X0190290Y0188800D01*
X0200290Y0188800D01*
X0200290Y0204800D01*
X0197790Y0200800D02*
X0195290Y0196800D01*
X0197790Y0196800D01*
X0195290Y0196800D02*
X0195290Y0194300D01*
X0195290Y0196800D02*
X0192790Y0196800D01*
X0195290Y0196800D02*
X0192790Y0200800D01*
X0197790Y0200800D01*
X0195290Y0202800D02*
X0195290Y0196800D01*
X0185290Y0188800D02*
X0175290Y0188800D01*
X0175290Y0204800D01*
X0185290Y0204800D01*
X0185290Y0188800D01*
X0180290Y0194300D02*
X0180290Y0196800D01*
X0182790Y0196800D01*
X0180290Y0196800D02*
X0177790Y0200800D01*
X0182790Y0200800D01*
X0180290Y0196800D01*
X0177790Y0196800D01*
X0180290Y0196800D02*
X0180290Y0202800D01*
X0170290Y0204800D02*
X0160290Y0204800D01*
X0160290Y0188800D01*
X0170290Y0188800D01*
X0170290Y0204800D01*
X0167790Y0200800D02*
X0165290Y0196800D01*
X0167790Y0196800D01*
X0165290Y0196800D02*
X0162790Y0196800D01*
X0165290Y0196800D02*
X0162790Y0200800D01*
X0167790Y0200800D01*
X0165290Y0202800D02*
X0165290Y0196800D01*
X0165290Y0194300D01*
X0151038Y0188800D02*
X0141038Y0188800D01*
X0141038Y0204800D01*
X0151038Y0204800D01*
X0151038Y0188800D01*
X0146038Y0194300D02*
X0146038Y0196800D01*
X0148538Y0196800D01*
X0146038Y0196800D02*
X0146038Y0202800D01*
X0143538Y0200800D02*
X0146038Y0196800D01*
X0143538Y0196800D01*
X0146038Y0196800D02*
X0148538Y0200800D01*
X0143538Y0200800D01*
X0136038Y0204800D02*
X0126038Y0204800D01*
X0126038Y0188800D01*
X0136038Y0188800D01*
X0136038Y0204800D01*
X0133538Y0200800D02*
X0131038Y0196800D01*
X0133538Y0196800D01*
X0131038Y0196800D02*
X0131038Y0194300D01*
X0131038Y0196800D02*
X0128538Y0196800D01*
X0131038Y0196800D02*
X0128538Y0200800D01*
X0133538Y0200800D01*
X0131038Y0202800D02*
X0131038Y0196800D01*
X0121038Y0188800D02*
X0111038Y0188800D01*
X0111038Y0204800D01*
X0121038Y0204800D01*
X0121038Y0188800D01*
X0116038Y0194300D02*
X0116038Y0196800D01*
X0118538Y0196800D01*
X0116038Y0196800D02*
X0113538Y0200800D01*
X0118538Y0200800D01*
X0116038Y0196800D01*
X0113538Y0196800D01*
X0116038Y0196800D02*
X0116038Y0202800D01*
X0106038Y0204800D02*
X0096038Y0204800D01*
X0096038Y0188800D01*
X0106038Y0188800D01*
X0106038Y0204800D01*
X0103538Y0200800D02*
X0101038Y0196800D01*
X0103538Y0196800D01*
X0101038Y0196800D02*
X0098538Y0196800D01*
X0101038Y0196800D02*
X0098538Y0200800D01*
X0103538Y0200800D01*
X0101038Y0202800D02*
X0101038Y0196800D01*
X0101038Y0194300D01*
X0093227Y0165800D02*
X0091727Y0165800D01*
X0091227Y0165300D01*
X0077227Y0165300D01*
X0076727Y0165800D01*
X0075227Y0165800D01*
X0075167Y0165798D01*
X0075106Y0165793D01*
X0075047Y0165784D01*
X0074988Y0165771D01*
X0074929Y0165755D01*
X0074872Y0165735D01*
X0074817Y0165712D01*
X0074762Y0165685D01*
X0074710Y0165656D01*
X0074659Y0165623D01*
X0074610Y0165587D01*
X0074564Y0165549D01*
X0074520Y0165507D01*
X0074478Y0165463D01*
X0074440Y0165417D01*
X0074404Y0165368D01*
X0074371Y0165317D01*
X0074342Y0165265D01*
X0074315Y0165210D01*
X0074292Y0165155D01*
X0074272Y0165098D01*
X0074256Y0165039D01*
X0074243Y0164980D01*
X0074234Y0164921D01*
X0074229Y0164860D01*
X0074227Y0164800D01*
X0074227Y0158800D01*
X0074229Y0158740D01*
X0074234Y0158679D01*
X0074243Y0158620D01*
X0074256Y0158561D01*
X0074272Y0158502D01*
X0074292Y0158445D01*
X0074315Y0158390D01*
X0074342Y0158335D01*
X0074371Y0158283D01*
X0074404Y0158232D01*
X0074440Y0158183D01*
X0074478Y0158137D01*
X0074520Y0158093D01*
X0074564Y0158051D01*
X0074610Y0158013D01*
X0074659Y0157977D01*
X0074710Y0157944D01*
X0074762Y0157915D01*
X0074817Y0157888D01*
X0074872Y0157865D01*
X0074929Y0157845D01*
X0074988Y0157829D01*
X0075047Y0157816D01*
X0075106Y0157807D01*
X0075167Y0157802D01*
X0075227Y0157800D01*
X0076727Y0157800D01*
X0077227Y0158300D01*
X0091227Y0158300D01*
X0091727Y0157800D01*
X0093227Y0157800D01*
X0093287Y0157802D01*
X0093348Y0157807D01*
X0093407Y0157816D01*
X0093466Y0157829D01*
X0093525Y0157845D01*
X0093582Y0157865D01*
X0093637Y0157888D01*
X0093692Y0157915D01*
X0093744Y0157944D01*
X0093795Y0157977D01*
X0093844Y0158013D01*
X0093890Y0158051D01*
X0093934Y0158093D01*
X0093976Y0158137D01*
X0094014Y0158183D01*
X0094050Y0158232D01*
X0094083Y0158283D01*
X0094112Y0158335D01*
X0094139Y0158390D01*
X0094162Y0158445D01*
X0094182Y0158502D01*
X0094198Y0158561D01*
X0094211Y0158620D01*
X0094220Y0158679D01*
X0094225Y0158740D01*
X0094227Y0158800D01*
X0094227Y0164800D01*
X0094225Y0164860D01*
X0094220Y0164921D01*
X0094211Y0164980D01*
X0094198Y0165039D01*
X0094182Y0165098D01*
X0094162Y0165155D01*
X0094139Y0165210D01*
X0094112Y0165265D01*
X0094083Y0165317D01*
X0094050Y0165368D01*
X0094014Y0165417D01*
X0093976Y0165463D01*
X0093934Y0165507D01*
X0093890Y0165549D01*
X0093844Y0165587D01*
X0093795Y0165623D01*
X0093744Y0165656D01*
X0093692Y0165685D01*
X0093637Y0165712D01*
X0093582Y0165735D01*
X0093525Y0165755D01*
X0093466Y0165771D01*
X0093407Y0165784D01*
X0093348Y0165793D01*
X0093287Y0165798D01*
X0093227Y0165800D01*
X0114227Y0164800D02*
X0114227Y0158800D01*
X0114229Y0158740D01*
X0114234Y0158679D01*
X0114243Y0158620D01*
X0114256Y0158561D01*
X0114272Y0158502D01*
X0114292Y0158445D01*
X0114315Y0158390D01*
X0114342Y0158335D01*
X0114371Y0158283D01*
X0114404Y0158232D01*
X0114440Y0158183D01*
X0114478Y0158137D01*
X0114520Y0158093D01*
X0114564Y0158051D01*
X0114610Y0158013D01*
X0114659Y0157977D01*
X0114710Y0157944D01*
X0114762Y0157915D01*
X0114817Y0157888D01*
X0114872Y0157865D01*
X0114929Y0157845D01*
X0114988Y0157829D01*
X0115047Y0157816D01*
X0115106Y0157807D01*
X0115167Y0157802D01*
X0115227Y0157800D01*
X0116727Y0157800D01*
X0117227Y0158300D01*
X0131227Y0158300D01*
X0131727Y0157800D01*
X0133227Y0157800D01*
X0133287Y0157802D01*
X0133348Y0157807D01*
X0133407Y0157816D01*
X0133466Y0157829D01*
X0133525Y0157845D01*
X0133582Y0157865D01*
X0133637Y0157888D01*
X0133692Y0157915D01*
X0133744Y0157944D01*
X0133795Y0157977D01*
X0133844Y0158013D01*
X0133890Y0158051D01*
X0133934Y0158093D01*
X0133976Y0158137D01*
X0134014Y0158183D01*
X0134050Y0158232D01*
X0134083Y0158283D01*
X0134112Y0158335D01*
X0134139Y0158390D01*
X0134162Y0158445D01*
X0134182Y0158502D01*
X0134198Y0158561D01*
X0134211Y0158620D01*
X0134220Y0158679D01*
X0134225Y0158740D01*
X0134227Y0158800D01*
X0134227Y0164800D01*
X0134225Y0164860D01*
X0134220Y0164921D01*
X0134211Y0164980D01*
X0134198Y0165039D01*
X0134182Y0165098D01*
X0134162Y0165155D01*
X0134139Y0165210D01*
X0134112Y0165265D01*
X0134083Y0165317D01*
X0134050Y0165368D01*
X0134014Y0165417D01*
X0133976Y0165463D01*
X0133934Y0165507D01*
X0133890Y0165549D01*
X0133844Y0165587D01*
X0133795Y0165623D01*
X0133744Y0165656D01*
X0133692Y0165685D01*
X0133637Y0165712D01*
X0133582Y0165735D01*
X0133525Y0165755D01*
X0133466Y0165771D01*
X0133407Y0165784D01*
X0133348Y0165793D01*
X0133287Y0165798D01*
X0133227Y0165800D01*
X0131727Y0165800D01*
X0131227Y0165300D01*
X0117227Y0165300D01*
X0116727Y0165800D01*
X0115227Y0165800D01*
X0115167Y0165798D01*
X0115106Y0165793D01*
X0115047Y0165784D01*
X0114988Y0165771D01*
X0114929Y0165755D01*
X0114872Y0165735D01*
X0114817Y0165712D01*
X0114762Y0165685D01*
X0114710Y0165656D01*
X0114659Y0165623D01*
X0114610Y0165587D01*
X0114564Y0165549D01*
X0114520Y0165507D01*
X0114478Y0165463D01*
X0114440Y0165417D01*
X0114404Y0165368D01*
X0114371Y0165317D01*
X0114342Y0165265D01*
X0114315Y0165210D01*
X0114292Y0165155D01*
X0114272Y0165098D01*
X0114256Y0165039D01*
X0114243Y0164980D01*
X0114234Y0164921D01*
X0114229Y0164860D01*
X0114227Y0164800D01*
X0069038Y0189800D02*
X0055038Y0189800D01*
X0069038Y0189800D02*
X0069038Y0190800D01*
X0057279Y0169950D02*
X0042279Y0169950D01*
X0039779Y0167450D01*
X0039779Y0162450D01*
X0042279Y0159950D01*
X0057279Y0159950D01*
X0059779Y0162450D01*
X0059779Y0167450D01*
X0057279Y0169950D01*
X0057279Y0159950D02*
X0059779Y0157450D01*
X0059779Y0152450D01*
X0057279Y0149950D01*
X0042279Y0149950D01*
X0039779Y0152450D01*
X0039779Y0157450D01*
X0042279Y0159950D01*
X0042279Y0149950D02*
X0039779Y0147450D01*
X0039779Y0142450D01*
X0042279Y0139950D01*
X0057279Y0139950D01*
X0059779Y0142450D01*
X0059779Y0147450D01*
X0057279Y0149950D01*
X0096038Y0238800D02*
X0106038Y0238800D01*
X0106038Y0254800D01*
X0096038Y0254800D01*
X0096038Y0238800D01*
X0101038Y0244300D02*
X0101038Y0246800D01*
X0103538Y0246800D01*
X0101038Y0246800D02*
X0098538Y0246800D01*
X0101038Y0246800D02*
X0098538Y0250800D01*
X0103538Y0250800D01*
X0101038Y0246800D01*
X0101038Y0252800D01*
X0111038Y0254800D02*
X0111038Y0238800D01*
X0121038Y0238800D01*
X0121038Y0254800D01*
X0111038Y0254800D01*
X0116038Y0252800D02*
X0116038Y0246800D01*
X0118538Y0246800D01*
X0116038Y0246800D02*
X0113538Y0250800D01*
X0118538Y0250800D01*
X0116038Y0246800D01*
X0113538Y0246800D01*
X0116038Y0246800D02*
X0116038Y0244300D01*
X0126038Y0238800D02*
X0136038Y0238800D01*
X0136038Y0254800D01*
X0126038Y0254800D01*
X0126038Y0238800D01*
X0131038Y0244300D02*
X0131038Y0246800D01*
X0133538Y0246800D01*
X0131038Y0246800D02*
X0128538Y0250800D01*
X0133538Y0250800D01*
X0131038Y0246800D01*
X0128538Y0246800D01*
X0131038Y0246800D02*
X0131038Y0252800D01*
X0141038Y0254800D02*
X0141038Y0238800D01*
X0151038Y0238800D01*
X0151038Y0254800D01*
X0141038Y0254800D01*
X0146038Y0252800D02*
X0146038Y0246800D01*
X0148538Y0246800D01*
X0146038Y0246800D02*
X0148538Y0250800D01*
X0143538Y0250800D01*
X0146038Y0246800D01*
X0143538Y0246800D01*
X0146038Y0246800D02*
X0146038Y0244300D01*
X0160290Y0238800D02*
X0170290Y0238800D01*
X0170290Y0254800D01*
X0160290Y0254800D01*
X0160290Y0238800D01*
X0165290Y0244300D02*
X0165290Y0246800D01*
X0167790Y0246800D01*
X0165290Y0246800D02*
X0162790Y0246800D01*
X0165290Y0246800D02*
X0162790Y0250800D01*
X0167790Y0250800D01*
X0165290Y0246800D01*
X0165290Y0252800D01*
X0175290Y0254800D02*
X0175290Y0238800D01*
X0185290Y0238800D01*
X0185290Y0254800D01*
X0175290Y0254800D01*
X0180290Y0252800D02*
X0180290Y0246800D01*
X0182790Y0246800D01*
X0180290Y0246800D02*
X0177790Y0250800D01*
X0182790Y0250800D01*
X0180290Y0246800D01*
X0177790Y0246800D01*
X0180290Y0246800D02*
X0180290Y0244300D01*
X0190290Y0238800D02*
X0200290Y0238800D01*
X0200290Y0254800D01*
X0190290Y0254800D01*
X0190290Y0238800D01*
X0195290Y0244300D02*
X0195290Y0246800D01*
X0197790Y0246800D01*
X0195290Y0246800D02*
X0197790Y0250800D01*
X0192790Y0250800D01*
X0195290Y0246800D01*
X0192790Y0246800D01*
X0195290Y0246800D02*
X0195290Y0252800D01*
X0205290Y0254800D02*
X0205290Y0238800D01*
X0215290Y0238800D01*
X0215290Y0254800D01*
X0205290Y0254800D01*
X0210290Y0252800D02*
X0210290Y0246800D01*
X0212790Y0246800D01*
X0210290Y0246800D02*
X0212790Y0250800D01*
X0207790Y0250800D01*
X0210290Y0246800D01*
X0207790Y0246800D01*
X0210290Y0246800D02*
X0210290Y0244300D01*
X0231727Y0276800D02*
X0236727Y0276800D01*
X0239227Y0279300D01*
X0239227Y0294300D01*
X0241727Y0296800D01*
X0246727Y0296800D01*
X0249227Y0294300D01*
X0251727Y0296800D01*
X0256727Y0296800D01*
X0259227Y0294300D01*
X0259227Y0279300D01*
X0256727Y0276800D01*
X0251727Y0276800D01*
X0249227Y0279300D01*
X0249227Y0294300D01*
X0239227Y0294300D02*
X0236727Y0296800D01*
X0231727Y0296800D01*
X0229227Y0294300D01*
X0229227Y0279300D01*
X0231727Y0276800D01*
X0239227Y0279300D02*
X0241727Y0276800D01*
X0246727Y0276800D01*
X0249227Y0279300D01*
X0242290Y0263800D02*
X0256290Y0263800D01*
X0242290Y0263800D02*
X0242290Y0262800D01*
X0215324Y0318128D02*
X0215324Y0322399D01*
X0213189Y0320263D02*
X0217459Y0320263D01*
X0205648Y0320263D02*
X0201378Y0320263D01*
X0159227Y0327300D02*
X0159227Y0286300D01*
X0110227Y0286300D01*
X0110227Y0289800D01*
X0104227Y0289800D01*
X0104227Y0286300D01*
X0096727Y0286300D01*
X0096727Y0327300D01*
X0104227Y0327300D01*
X0104227Y0323800D01*
X0110227Y0323800D01*
X0110227Y0327300D01*
X0159227Y0327300D01*
X0103127Y0306800D02*
X0103129Y0306974D01*
X0103136Y0307148D01*
X0103146Y0307322D01*
X0103161Y0307496D01*
X0103180Y0307669D01*
X0103204Y0307842D01*
X0103232Y0308014D01*
X0103263Y0308185D01*
X0103300Y0308356D01*
X0103340Y0308525D01*
X0103384Y0308694D01*
X0103433Y0308861D01*
X0103485Y0309027D01*
X0103542Y0309192D01*
X0103603Y0309355D01*
X0103667Y0309517D01*
X0103736Y0309677D01*
X0103809Y0309836D01*
X0103885Y0309992D01*
X0103965Y0310147D01*
X0104049Y0310300D01*
X0104137Y0310450D01*
X0104229Y0310598D01*
X0104324Y0310745D01*
X0104422Y0310888D01*
X0104524Y0311029D01*
X0104630Y0311168D01*
X0104739Y0311304D01*
X0104851Y0311438D01*
X0104966Y0311568D01*
X0105085Y0311696D01*
X0105207Y0311820D01*
X0105331Y0311942D01*
X0105459Y0312061D01*
X0105589Y0312176D01*
X0105723Y0312288D01*
X0105859Y0312397D01*
X0105998Y0312503D01*
X0106139Y0312605D01*
X0106282Y0312703D01*
X0106429Y0312798D01*
X0106577Y0312890D01*
X0106727Y0312978D01*
X0106880Y0313062D01*
X0107035Y0313142D01*
X0107191Y0313218D01*
X0107350Y0313291D01*
X0107510Y0313360D01*
X0107672Y0313424D01*
X0107835Y0313485D01*
X0108000Y0313542D01*
X0108166Y0313594D01*
X0108333Y0313643D01*
X0108502Y0313687D01*
X0108671Y0313727D01*
X0108842Y0313764D01*
X0109013Y0313795D01*
X0109185Y0313823D01*
X0109358Y0313847D01*
X0109531Y0313866D01*
X0109705Y0313881D01*
X0109879Y0313891D01*
X0110053Y0313898D01*
X0110227Y0313900D01*
X0110401Y0313898D01*
X0110575Y0313891D01*
X0110749Y0313881D01*
X0110923Y0313866D01*
X0111096Y0313847D01*
X0111269Y0313823D01*
X0111441Y0313795D01*
X0111612Y0313764D01*
X0111783Y0313727D01*
X0111952Y0313687D01*
X0112121Y0313643D01*
X0112288Y0313594D01*
X0112454Y0313542D01*
X0112619Y0313485D01*
X0112782Y0313424D01*
X0112944Y0313360D01*
X0113104Y0313291D01*
X0113263Y0313218D01*
X0113419Y0313142D01*
X0113574Y0313062D01*
X0113727Y0312978D01*
X0113877Y0312890D01*
X0114025Y0312798D01*
X0114172Y0312703D01*
X0114315Y0312605D01*
X0114456Y0312503D01*
X0114595Y0312397D01*
X0114731Y0312288D01*
X0114865Y0312176D01*
X0114995Y0312061D01*
X0115123Y0311942D01*
X0115247Y0311820D01*
X0115369Y0311696D01*
X0115488Y0311568D01*
X0115603Y0311438D01*
X0115715Y0311304D01*
X0115824Y0311168D01*
X0115930Y0311029D01*
X0116032Y0310888D01*
X0116130Y0310745D01*
X0116225Y0310598D01*
X0116317Y0310450D01*
X0116405Y0310300D01*
X0116489Y0310147D01*
X0116569Y0309992D01*
X0116645Y0309836D01*
X0116718Y0309677D01*
X0116787Y0309517D01*
X0116851Y0309355D01*
X0116912Y0309192D01*
X0116969Y0309027D01*
X0117021Y0308861D01*
X0117070Y0308694D01*
X0117114Y0308525D01*
X0117154Y0308356D01*
X0117191Y0308185D01*
X0117222Y0308014D01*
X0117250Y0307842D01*
X0117274Y0307669D01*
X0117293Y0307496D01*
X0117308Y0307322D01*
X0117318Y0307148D01*
X0117325Y0306974D01*
X0117327Y0306800D01*
X0117325Y0306626D01*
X0117318Y0306452D01*
X0117308Y0306278D01*
X0117293Y0306104D01*
X0117274Y0305931D01*
X0117250Y0305758D01*
X0117222Y0305586D01*
X0117191Y0305415D01*
X0117154Y0305244D01*
X0117114Y0305075D01*
X0117070Y0304906D01*
X0117021Y0304739D01*
X0116969Y0304573D01*
X0116912Y0304408D01*
X0116851Y0304245D01*
X0116787Y0304083D01*
X0116718Y0303923D01*
X0116645Y0303764D01*
X0116569Y0303608D01*
X0116489Y0303453D01*
X0116405Y0303300D01*
X0116317Y0303150D01*
X0116225Y0303002D01*
X0116130Y0302855D01*
X0116032Y0302712D01*
X0115930Y0302571D01*
X0115824Y0302432D01*
X0115715Y0302296D01*
X0115603Y0302162D01*
X0115488Y0302032D01*
X0115369Y0301904D01*
X0115247Y0301780D01*
X0115123Y0301658D01*
X0114995Y0301539D01*
X0114865Y0301424D01*
X0114731Y0301312D01*
X0114595Y0301203D01*
X0114456Y0301097D01*
X0114315Y0300995D01*
X0114172Y0300897D01*
X0114025Y0300802D01*
X0113877Y0300710D01*
X0113727Y0300622D01*
X0113574Y0300538D01*
X0113419Y0300458D01*
X0113263Y0300382D01*
X0113104Y0300309D01*
X0112944Y0300240D01*
X0112782Y0300176D01*
X0112619Y0300115D01*
X0112454Y0300058D01*
X0112288Y0300006D01*
X0112121Y0299957D01*
X0111952Y0299913D01*
X0111783Y0299873D01*
X0111612Y0299836D01*
X0111441Y0299805D01*
X0111269Y0299777D01*
X0111096Y0299753D01*
X0110923Y0299734D01*
X0110749Y0299719D01*
X0110575Y0299709D01*
X0110401Y0299702D01*
X0110227Y0299700D01*
X0110053Y0299702D01*
X0109879Y0299709D01*
X0109705Y0299719D01*
X0109531Y0299734D01*
X0109358Y0299753D01*
X0109185Y0299777D01*
X0109013Y0299805D01*
X0108842Y0299836D01*
X0108671Y0299873D01*
X0108502Y0299913D01*
X0108333Y0299957D01*
X0108166Y0300006D01*
X0108000Y0300058D01*
X0107835Y0300115D01*
X0107672Y0300176D01*
X0107510Y0300240D01*
X0107350Y0300309D01*
X0107191Y0300382D01*
X0107035Y0300458D01*
X0106880Y0300538D01*
X0106727Y0300622D01*
X0106577Y0300710D01*
X0106429Y0300802D01*
X0106282Y0300897D01*
X0106139Y0300995D01*
X0105998Y0301097D01*
X0105859Y0301203D01*
X0105723Y0301312D01*
X0105589Y0301424D01*
X0105459Y0301539D01*
X0105331Y0301658D01*
X0105207Y0301780D01*
X0105085Y0301904D01*
X0104966Y0302032D01*
X0104851Y0302162D01*
X0104739Y0302296D01*
X0104630Y0302432D01*
X0104524Y0302571D01*
X0104422Y0302712D01*
X0104324Y0302855D01*
X0104229Y0303002D01*
X0104137Y0303150D01*
X0104049Y0303300D01*
X0103965Y0303453D01*
X0103885Y0303608D01*
X0103809Y0303764D01*
X0103736Y0303923D01*
X0103667Y0304083D01*
X0103603Y0304245D01*
X0103542Y0304408D01*
X0103485Y0304573D01*
X0103433Y0304739D01*
X0103384Y0304906D01*
X0103340Y0305075D01*
X0103300Y0305244D01*
X0103263Y0305415D01*
X0103232Y0305586D01*
X0103204Y0305758D01*
X0103180Y0305931D01*
X0103161Y0306104D01*
X0103146Y0306278D01*
X0103136Y0306452D01*
X0103129Y0306626D01*
X0103127Y0306800D01*
X0074227Y0294300D02*
X0074227Y0279300D01*
X0071727Y0276800D01*
X0066727Y0276800D01*
X0064227Y0279300D01*
X0064227Y0294300D01*
X0066727Y0296800D01*
X0071727Y0296800D01*
X0074227Y0294300D01*
X0064227Y0294300D02*
X0061727Y0296800D01*
X0056727Y0296800D01*
X0054227Y0294300D01*
X0054227Y0279300D01*
X0056727Y0276800D01*
X0061727Y0276800D01*
X0064227Y0279300D01*
X0054227Y0279300D02*
X0051727Y0276800D01*
X0046727Y0276800D01*
X0044227Y0279300D01*
X0044227Y0294300D01*
X0046727Y0296800D01*
X0051727Y0296800D01*
X0054227Y0294300D01*
X0040286Y0320737D02*
X0040289Y0321019D01*
X0040300Y0321301D01*
X0040317Y0321583D01*
X0040341Y0321864D01*
X0040372Y0322145D01*
X0040410Y0322424D01*
X0040455Y0322703D01*
X0040507Y0322981D01*
X0040565Y0323257D01*
X0040631Y0323531D01*
X0040703Y0323804D01*
X0040781Y0324075D01*
X0040866Y0324344D01*
X0040958Y0324611D01*
X0041057Y0324876D01*
X0041161Y0325138D01*
X0041273Y0325397D01*
X0041390Y0325654D01*
X0041514Y0325908D01*
X0041644Y0326158D01*
X0041780Y0326405D01*
X0041922Y0326649D01*
X0042070Y0326889D01*
X0042224Y0327126D01*
X0042384Y0327359D01*
X0042549Y0327588D01*
X0042720Y0327812D01*
X0042896Y0328033D01*
X0043078Y0328248D01*
X0043265Y0328460D01*
X0043457Y0328667D01*
X0043654Y0328869D01*
X0043856Y0329066D01*
X0044063Y0329258D01*
X0044275Y0329445D01*
X0044490Y0329627D01*
X0044711Y0329803D01*
X0044935Y0329974D01*
X0045164Y0330139D01*
X0045397Y0330299D01*
X0045634Y0330453D01*
X0045874Y0330601D01*
X0046118Y0330743D01*
X0046365Y0330879D01*
X0046615Y0331009D01*
X0046869Y0331133D01*
X0047126Y0331250D01*
X0047385Y0331362D01*
X0047647Y0331466D01*
X0047912Y0331565D01*
X0048179Y0331657D01*
X0048448Y0331742D01*
X0048719Y0331820D01*
X0048992Y0331892D01*
X0049266Y0331958D01*
X0049542Y0332016D01*
X0049820Y0332068D01*
X0050099Y0332113D01*
X0050378Y0332151D01*
X0050659Y0332182D01*
X0050940Y0332206D01*
X0051222Y0332223D01*
X0051504Y0332234D01*
X0051786Y0332237D01*
X0052068Y0332234D01*
X0052350Y0332223D01*
X0052632Y0332206D01*
X0052913Y0332182D01*
X0053194Y0332151D01*
X0053473Y0332113D01*
X0053752Y0332068D01*
X0054030Y0332016D01*
X0054306Y0331958D01*
X0054580Y0331892D01*
X0054853Y0331820D01*
X0055124Y0331742D01*
X0055393Y0331657D01*
X0055660Y0331565D01*
X0055925Y0331466D01*
X0056187Y0331362D01*
X0056446Y0331250D01*
X0056703Y0331133D01*
X0056957Y0331009D01*
X0057207Y0330879D01*
X0057454Y0330743D01*
X0057698Y0330601D01*
X0057938Y0330453D01*
X0058175Y0330299D01*
X0058408Y0330139D01*
X0058637Y0329974D01*
X0058861Y0329803D01*
X0059082Y0329627D01*
X0059297Y0329445D01*
X0059509Y0329258D01*
X0059716Y0329066D01*
X0059918Y0328869D01*
X0060115Y0328667D01*
X0060307Y0328460D01*
X0060494Y0328248D01*
X0060676Y0328033D01*
X0060852Y0327812D01*
X0061023Y0327588D01*
X0061188Y0327359D01*
X0061348Y0327126D01*
X0061502Y0326889D01*
X0061650Y0326649D01*
X0061792Y0326405D01*
X0061928Y0326158D01*
X0062058Y0325908D01*
X0062182Y0325654D01*
X0062299Y0325397D01*
X0062411Y0325138D01*
X0062515Y0324876D01*
X0062614Y0324611D01*
X0062706Y0324344D01*
X0062791Y0324075D01*
X0062869Y0323804D01*
X0062941Y0323531D01*
X0063007Y0323257D01*
X0063065Y0322981D01*
X0063117Y0322703D01*
X0063162Y0322424D01*
X0063200Y0322145D01*
X0063231Y0321864D01*
X0063255Y0321583D01*
X0063272Y0321301D01*
X0063283Y0321019D01*
X0063286Y0320737D01*
X0063283Y0320455D01*
X0063272Y0320173D01*
X0063255Y0319891D01*
X0063231Y0319610D01*
X0063200Y0319329D01*
X0063162Y0319050D01*
X0063117Y0318771D01*
X0063065Y0318493D01*
X0063007Y0318217D01*
X0062941Y0317943D01*
X0062869Y0317670D01*
X0062791Y0317399D01*
X0062706Y0317130D01*
X0062614Y0316863D01*
X0062515Y0316598D01*
X0062411Y0316336D01*
X0062299Y0316077D01*
X0062182Y0315820D01*
X0062058Y0315566D01*
X0061928Y0315316D01*
X0061792Y0315069D01*
X0061650Y0314825D01*
X0061502Y0314585D01*
X0061348Y0314348D01*
X0061188Y0314115D01*
X0061023Y0313886D01*
X0060852Y0313662D01*
X0060676Y0313441D01*
X0060494Y0313226D01*
X0060307Y0313014D01*
X0060115Y0312807D01*
X0059918Y0312605D01*
X0059716Y0312408D01*
X0059509Y0312216D01*
X0059297Y0312029D01*
X0059082Y0311847D01*
X0058861Y0311671D01*
X0058637Y0311500D01*
X0058408Y0311335D01*
X0058175Y0311175D01*
X0057938Y0311021D01*
X0057698Y0310873D01*
X0057454Y0310731D01*
X0057207Y0310595D01*
X0056957Y0310465D01*
X0056703Y0310341D01*
X0056446Y0310224D01*
X0056187Y0310112D01*
X0055925Y0310008D01*
X0055660Y0309909D01*
X0055393Y0309817D01*
X0055124Y0309732D01*
X0054853Y0309654D01*
X0054580Y0309582D01*
X0054306Y0309516D01*
X0054030Y0309458D01*
X0053752Y0309406D01*
X0053473Y0309361D01*
X0053194Y0309323D01*
X0052913Y0309292D01*
X0052632Y0309268D01*
X0052350Y0309251D01*
X0052068Y0309240D01*
X0051786Y0309237D01*
X0051504Y0309240D01*
X0051222Y0309251D01*
X0050940Y0309268D01*
X0050659Y0309292D01*
X0050378Y0309323D01*
X0050099Y0309361D01*
X0049820Y0309406D01*
X0049542Y0309458D01*
X0049266Y0309516D01*
X0048992Y0309582D01*
X0048719Y0309654D01*
X0048448Y0309732D01*
X0048179Y0309817D01*
X0047912Y0309909D01*
X0047647Y0310008D01*
X0047385Y0310112D01*
X0047126Y0310224D01*
X0046869Y0310341D01*
X0046615Y0310465D01*
X0046365Y0310595D01*
X0046118Y0310731D01*
X0045874Y0310873D01*
X0045634Y0311021D01*
X0045397Y0311175D01*
X0045164Y0311335D01*
X0044935Y0311500D01*
X0044711Y0311671D01*
X0044490Y0311847D01*
X0044275Y0312029D01*
X0044063Y0312216D01*
X0043856Y0312408D01*
X0043654Y0312605D01*
X0043457Y0312807D01*
X0043265Y0313014D01*
X0043078Y0313226D01*
X0042896Y0313441D01*
X0042720Y0313662D01*
X0042549Y0313886D01*
X0042384Y0314115D01*
X0042224Y0314348D01*
X0042070Y0314585D01*
X0041922Y0314825D01*
X0041780Y0315069D01*
X0041644Y0315316D01*
X0041514Y0315566D01*
X0041390Y0315820D01*
X0041273Y0316077D01*
X0041161Y0316336D01*
X0041057Y0316598D01*
X0040958Y0316863D01*
X0040866Y0317130D01*
X0040781Y0317399D01*
X0040703Y0317670D01*
X0040631Y0317943D01*
X0040565Y0318217D01*
X0040507Y0318493D01*
X0040455Y0318771D01*
X0040410Y0319050D01*
X0040372Y0319329D01*
X0040341Y0319610D01*
X0040317Y0319891D01*
X0040300Y0320173D01*
X0040289Y0320455D01*
X0040286Y0320737D01*
X0055038Y0263800D02*
X0069038Y0263800D01*
X0069038Y0262800D01*
X0165227Y0165800D02*
X0166727Y0165800D01*
X0167227Y0165300D01*
X0181227Y0165300D01*
X0181727Y0165800D01*
X0183227Y0165800D01*
X0183287Y0165798D01*
X0183348Y0165793D01*
X0183407Y0165784D01*
X0183466Y0165771D01*
X0183525Y0165755D01*
X0183582Y0165735D01*
X0183637Y0165712D01*
X0183692Y0165685D01*
X0183744Y0165656D01*
X0183795Y0165623D01*
X0183844Y0165587D01*
X0183890Y0165549D01*
X0183934Y0165507D01*
X0183976Y0165463D01*
X0184014Y0165417D01*
X0184050Y0165368D01*
X0184083Y0165317D01*
X0184112Y0165265D01*
X0184139Y0165210D01*
X0184162Y0165155D01*
X0184182Y0165098D01*
X0184198Y0165039D01*
X0184211Y0164980D01*
X0184220Y0164921D01*
X0184225Y0164860D01*
X0184227Y0164800D01*
X0184227Y0158800D01*
X0184225Y0158740D01*
X0184220Y0158679D01*
X0184211Y0158620D01*
X0184198Y0158561D01*
X0184182Y0158502D01*
X0184162Y0158445D01*
X0184139Y0158390D01*
X0184112Y0158335D01*
X0184083Y0158283D01*
X0184050Y0158232D01*
X0184014Y0158183D01*
X0183976Y0158137D01*
X0183934Y0158093D01*
X0183890Y0158051D01*
X0183844Y0158013D01*
X0183795Y0157977D01*
X0183744Y0157944D01*
X0183692Y0157915D01*
X0183637Y0157888D01*
X0183582Y0157865D01*
X0183525Y0157845D01*
X0183466Y0157829D01*
X0183407Y0157816D01*
X0183348Y0157807D01*
X0183287Y0157802D01*
X0183227Y0157800D01*
X0181727Y0157800D01*
X0181227Y0158300D01*
X0167227Y0158300D01*
X0166727Y0157800D01*
X0165227Y0157800D01*
X0165167Y0157802D01*
X0165106Y0157807D01*
X0165047Y0157816D01*
X0164988Y0157829D01*
X0164929Y0157845D01*
X0164872Y0157865D01*
X0164817Y0157888D01*
X0164762Y0157915D01*
X0164710Y0157944D01*
X0164659Y0157977D01*
X0164610Y0158013D01*
X0164564Y0158051D01*
X0164520Y0158093D01*
X0164478Y0158137D01*
X0164440Y0158183D01*
X0164404Y0158232D01*
X0164371Y0158283D01*
X0164342Y0158335D01*
X0164315Y0158390D01*
X0164292Y0158445D01*
X0164272Y0158502D01*
X0164256Y0158561D01*
X0164243Y0158620D01*
X0164234Y0158679D01*
X0164229Y0158740D01*
X0164227Y0158800D01*
X0164227Y0164800D01*
X0164229Y0164860D01*
X0164234Y0164921D01*
X0164243Y0164980D01*
X0164256Y0165039D01*
X0164272Y0165098D01*
X0164292Y0165155D01*
X0164315Y0165210D01*
X0164342Y0165265D01*
X0164371Y0165317D01*
X0164404Y0165368D01*
X0164440Y0165417D01*
X0164478Y0165463D01*
X0164520Y0165507D01*
X0164564Y0165549D01*
X0164610Y0165587D01*
X0164659Y0165623D01*
X0164710Y0165656D01*
X0164762Y0165685D01*
X0164817Y0165712D01*
X0164872Y0165735D01*
X0164929Y0165755D01*
X0164988Y0165771D01*
X0165047Y0165784D01*
X0165106Y0165793D01*
X0165167Y0165798D01*
X0165227Y0165800D01*
X0242290Y0189800D02*
X0256290Y0189800D01*
X0242290Y0189800D02*
X0242290Y0190800D01*
X0241231Y0320737D02*
X0241234Y0321019D01*
X0241245Y0321301D01*
X0241262Y0321583D01*
X0241286Y0321864D01*
X0241317Y0322145D01*
X0241355Y0322424D01*
X0241400Y0322703D01*
X0241452Y0322981D01*
X0241510Y0323257D01*
X0241576Y0323531D01*
X0241648Y0323804D01*
X0241726Y0324075D01*
X0241811Y0324344D01*
X0241903Y0324611D01*
X0242002Y0324876D01*
X0242106Y0325138D01*
X0242218Y0325397D01*
X0242335Y0325654D01*
X0242459Y0325908D01*
X0242589Y0326158D01*
X0242725Y0326405D01*
X0242867Y0326649D01*
X0243015Y0326889D01*
X0243169Y0327126D01*
X0243329Y0327359D01*
X0243494Y0327588D01*
X0243665Y0327812D01*
X0243841Y0328033D01*
X0244023Y0328248D01*
X0244210Y0328460D01*
X0244402Y0328667D01*
X0244599Y0328869D01*
X0244801Y0329066D01*
X0245008Y0329258D01*
X0245220Y0329445D01*
X0245435Y0329627D01*
X0245656Y0329803D01*
X0245880Y0329974D01*
X0246109Y0330139D01*
X0246342Y0330299D01*
X0246579Y0330453D01*
X0246819Y0330601D01*
X0247063Y0330743D01*
X0247310Y0330879D01*
X0247560Y0331009D01*
X0247814Y0331133D01*
X0248071Y0331250D01*
X0248330Y0331362D01*
X0248592Y0331466D01*
X0248857Y0331565D01*
X0249124Y0331657D01*
X0249393Y0331742D01*
X0249664Y0331820D01*
X0249937Y0331892D01*
X0250211Y0331958D01*
X0250487Y0332016D01*
X0250765Y0332068D01*
X0251044Y0332113D01*
X0251323Y0332151D01*
X0251604Y0332182D01*
X0251885Y0332206D01*
X0252167Y0332223D01*
X0252449Y0332234D01*
X0252731Y0332237D01*
X0253013Y0332234D01*
X0253295Y0332223D01*
X0253577Y0332206D01*
X0253858Y0332182D01*
X0254139Y0332151D01*
X0254418Y0332113D01*
X0254697Y0332068D01*
X0254975Y0332016D01*
X0255251Y0331958D01*
X0255525Y0331892D01*
X0255798Y0331820D01*
X0256069Y0331742D01*
X0256338Y0331657D01*
X0256605Y0331565D01*
X0256870Y0331466D01*
X0257132Y0331362D01*
X0257391Y0331250D01*
X0257648Y0331133D01*
X0257902Y0331009D01*
X0258152Y0330879D01*
X0258399Y0330743D01*
X0258643Y0330601D01*
X0258883Y0330453D01*
X0259120Y0330299D01*
X0259353Y0330139D01*
X0259582Y0329974D01*
X0259806Y0329803D01*
X0260027Y0329627D01*
X0260242Y0329445D01*
X0260454Y0329258D01*
X0260661Y0329066D01*
X0260863Y0328869D01*
X0261060Y0328667D01*
X0261252Y0328460D01*
X0261439Y0328248D01*
X0261621Y0328033D01*
X0261797Y0327812D01*
X0261968Y0327588D01*
X0262133Y0327359D01*
X0262293Y0327126D01*
X0262447Y0326889D01*
X0262595Y0326649D01*
X0262737Y0326405D01*
X0262873Y0326158D01*
X0263003Y0325908D01*
X0263127Y0325654D01*
X0263244Y0325397D01*
X0263356Y0325138D01*
X0263460Y0324876D01*
X0263559Y0324611D01*
X0263651Y0324344D01*
X0263736Y0324075D01*
X0263814Y0323804D01*
X0263886Y0323531D01*
X0263952Y0323257D01*
X0264010Y0322981D01*
X0264062Y0322703D01*
X0264107Y0322424D01*
X0264145Y0322145D01*
X0264176Y0321864D01*
X0264200Y0321583D01*
X0264217Y0321301D01*
X0264228Y0321019D01*
X0264231Y0320737D01*
X0264228Y0320455D01*
X0264217Y0320173D01*
X0264200Y0319891D01*
X0264176Y0319610D01*
X0264145Y0319329D01*
X0264107Y0319050D01*
X0264062Y0318771D01*
X0264010Y0318493D01*
X0263952Y0318217D01*
X0263886Y0317943D01*
X0263814Y0317670D01*
X0263736Y0317399D01*
X0263651Y0317130D01*
X0263559Y0316863D01*
X0263460Y0316598D01*
X0263356Y0316336D01*
X0263244Y0316077D01*
X0263127Y0315820D01*
X0263003Y0315566D01*
X0262873Y0315316D01*
X0262737Y0315069D01*
X0262595Y0314825D01*
X0262447Y0314585D01*
X0262293Y0314348D01*
X0262133Y0314115D01*
X0261968Y0313886D01*
X0261797Y0313662D01*
X0261621Y0313441D01*
X0261439Y0313226D01*
X0261252Y0313014D01*
X0261060Y0312807D01*
X0260863Y0312605D01*
X0260661Y0312408D01*
X0260454Y0312216D01*
X0260242Y0312029D01*
X0260027Y0311847D01*
X0259806Y0311671D01*
X0259582Y0311500D01*
X0259353Y0311335D01*
X0259120Y0311175D01*
X0258883Y0311021D01*
X0258643Y0310873D01*
X0258399Y0310731D01*
X0258152Y0310595D01*
X0257902Y0310465D01*
X0257648Y0310341D01*
X0257391Y0310224D01*
X0257132Y0310112D01*
X0256870Y0310008D01*
X0256605Y0309909D01*
X0256338Y0309817D01*
X0256069Y0309732D01*
X0255798Y0309654D01*
X0255525Y0309582D01*
X0255251Y0309516D01*
X0254975Y0309458D01*
X0254697Y0309406D01*
X0254418Y0309361D01*
X0254139Y0309323D01*
X0253858Y0309292D01*
X0253577Y0309268D01*
X0253295Y0309251D01*
X0253013Y0309240D01*
X0252731Y0309237D01*
X0252449Y0309240D01*
X0252167Y0309251D01*
X0251885Y0309268D01*
X0251604Y0309292D01*
X0251323Y0309323D01*
X0251044Y0309361D01*
X0250765Y0309406D01*
X0250487Y0309458D01*
X0250211Y0309516D01*
X0249937Y0309582D01*
X0249664Y0309654D01*
X0249393Y0309732D01*
X0249124Y0309817D01*
X0248857Y0309909D01*
X0248592Y0310008D01*
X0248330Y0310112D01*
X0248071Y0310224D01*
X0247814Y0310341D01*
X0247560Y0310465D01*
X0247310Y0310595D01*
X0247063Y0310731D01*
X0246819Y0310873D01*
X0246579Y0311021D01*
X0246342Y0311175D01*
X0246109Y0311335D01*
X0245880Y0311500D01*
X0245656Y0311671D01*
X0245435Y0311847D01*
X0245220Y0312029D01*
X0245008Y0312216D01*
X0244801Y0312408D01*
X0244599Y0312605D01*
X0244402Y0312807D01*
X0244210Y0313014D01*
X0244023Y0313226D01*
X0243841Y0313441D01*
X0243665Y0313662D01*
X0243494Y0313886D01*
X0243329Y0314115D01*
X0243169Y0314348D01*
X0243015Y0314585D01*
X0242867Y0314825D01*
X0242725Y0315069D01*
X0242589Y0315316D01*
X0242459Y0315566D01*
X0242335Y0315820D01*
X0242218Y0316077D01*
X0242106Y0316336D01*
X0242002Y0316598D01*
X0241903Y0316863D01*
X0241811Y0317130D01*
X0241726Y0317399D01*
X0241648Y0317670D01*
X0241576Y0317943D01*
X0241510Y0318217D01*
X0241452Y0318493D01*
X0241400Y0318771D01*
X0241355Y0319050D01*
X0241317Y0319329D01*
X0241286Y0319610D01*
X0241262Y0319891D01*
X0241245Y0320173D01*
X0241234Y0320455D01*
X0241231Y0320737D01*
X0245168Y0021800D02*
X0245171Y0022082D01*
X0245182Y0022364D01*
X0245199Y0022646D01*
X0245223Y0022927D01*
X0245254Y0023208D01*
X0245292Y0023487D01*
X0245337Y0023766D01*
X0245389Y0024044D01*
X0245447Y0024320D01*
X0245513Y0024594D01*
X0245585Y0024867D01*
X0245663Y0025138D01*
X0245748Y0025407D01*
X0245840Y0025674D01*
X0245939Y0025939D01*
X0246043Y0026201D01*
X0246155Y0026460D01*
X0246272Y0026717D01*
X0246396Y0026971D01*
X0246526Y0027221D01*
X0246662Y0027468D01*
X0246804Y0027712D01*
X0246952Y0027952D01*
X0247106Y0028189D01*
X0247266Y0028422D01*
X0247431Y0028651D01*
X0247602Y0028875D01*
X0247778Y0029096D01*
X0247960Y0029311D01*
X0248147Y0029523D01*
X0248339Y0029730D01*
X0248536Y0029932D01*
X0248738Y0030129D01*
X0248945Y0030321D01*
X0249157Y0030508D01*
X0249372Y0030690D01*
X0249593Y0030866D01*
X0249817Y0031037D01*
X0250046Y0031202D01*
X0250279Y0031362D01*
X0250516Y0031516D01*
X0250756Y0031664D01*
X0251000Y0031806D01*
X0251247Y0031942D01*
X0251497Y0032072D01*
X0251751Y0032196D01*
X0252008Y0032313D01*
X0252267Y0032425D01*
X0252529Y0032529D01*
X0252794Y0032628D01*
X0253061Y0032720D01*
X0253330Y0032805D01*
X0253601Y0032883D01*
X0253874Y0032955D01*
X0254148Y0033021D01*
X0254424Y0033079D01*
X0254702Y0033131D01*
X0254981Y0033176D01*
X0255260Y0033214D01*
X0255541Y0033245D01*
X0255822Y0033269D01*
X0256104Y0033286D01*
X0256386Y0033297D01*
X0256668Y0033300D01*
X0256950Y0033297D01*
X0257232Y0033286D01*
X0257514Y0033269D01*
X0257795Y0033245D01*
X0258076Y0033214D01*
X0258355Y0033176D01*
X0258634Y0033131D01*
X0258912Y0033079D01*
X0259188Y0033021D01*
X0259462Y0032955D01*
X0259735Y0032883D01*
X0260006Y0032805D01*
X0260275Y0032720D01*
X0260542Y0032628D01*
X0260807Y0032529D01*
X0261069Y0032425D01*
X0261328Y0032313D01*
X0261585Y0032196D01*
X0261839Y0032072D01*
X0262089Y0031942D01*
X0262336Y0031806D01*
X0262580Y0031664D01*
X0262820Y0031516D01*
X0263057Y0031362D01*
X0263290Y0031202D01*
X0263519Y0031037D01*
X0263743Y0030866D01*
X0263964Y0030690D01*
X0264179Y0030508D01*
X0264391Y0030321D01*
X0264598Y0030129D01*
X0264800Y0029932D01*
X0264997Y0029730D01*
X0265189Y0029523D01*
X0265376Y0029311D01*
X0265558Y0029096D01*
X0265734Y0028875D01*
X0265905Y0028651D01*
X0266070Y0028422D01*
X0266230Y0028189D01*
X0266384Y0027952D01*
X0266532Y0027712D01*
X0266674Y0027468D01*
X0266810Y0027221D01*
X0266940Y0026971D01*
X0267064Y0026717D01*
X0267181Y0026460D01*
X0267293Y0026201D01*
X0267397Y0025939D01*
X0267496Y0025674D01*
X0267588Y0025407D01*
X0267673Y0025138D01*
X0267751Y0024867D01*
X0267823Y0024594D01*
X0267889Y0024320D01*
X0267947Y0024044D01*
X0267999Y0023766D01*
X0268044Y0023487D01*
X0268082Y0023208D01*
X0268113Y0022927D01*
X0268137Y0022646D01*
X0268154Y0022364D01*
X0268165Y0022082D01*
X0268168Y0021800D01*
X0268165Y0021518D01*
X0268154Y0021236D01*
X0268137Y0020954D01*
X0268113Y0020673D01*
X0268082Y0020392D01*
X0268044Y0020113D01*
X0267999Y0019834D01*
X0267947Y0019556D01*
X0267889Y0019280D01*
X0267823Y0019006D01*
X0267751Y0018733D01*
X0267673Y0018462D01*
X0267588Y0018193D01*
X0267496Y0017926D01*
X0267397Y0017661D01*
X0267293Y0017399D01*
X0267181Y0017140D01*
X0267064Y0016883D01*
X0266940Y0016629D01*
X0266810Y0016379D01*
X0266674Y0016132D01*
X0266532Y0015888D01*
X0266384Y0015648D01*
X0266230Y0015411D01*
X0266070Y0015178D01*
X0265905Y0014949D01*
X0265734Y0014725D01*
X0265558Y0014504D01*
X0265376Y0014289D01*
X0265189Y0014077D01*
X0264997Y0013870D01*
X0264800Y0013668D01*
X0264598Y0013471D01*
X0264391Y0013279D01*
X0264179Y0013092D01*
X0263964Y0012910D01*
X0263743Y0012734D01*
X0263519Y0012563D01*
X0263290Y0012398D01*
X0263057Y0012238D01*
X0262820Y0012084D01*
X0262580Y0011936D01*
X0262336Y0011794D01*
X0262089Y0011658D01*
X0261839Y0011528D01*
X0261585Y0011404D01*
X0261328Y0011287D01*
X0261069Y0011175D01*
X0260807Y0011071D01*
X0260542Y0010972D01*
X0260275Y0010880D01*
X0260006Y0010795D01*
X0259735Y0010717D01*
X0259462Y0010645D01*
X0259188Y0010579D01*
X0258912Y0010521D01*
X0258634Y0010469D01*
X0258355Y0010424D01*
X0258076Y0010386D01*
X0257795Y0010355D01*
X0257514Y0010331D01*
X0257232Y0010314D01*
X0256950Y0010303D01*
X0256668Y0010300D01*
X0256386Y0010303D01*
X0256104Y0010314D01*
X0255822Y0010331D01*
X0255541Y0010355D01*
X0255260Y0010386D01*
X0254981Y0010424D01*
X0254702Y0010469D01*
X0254424Y0010521D01*
X0254148Y0010579D01*
X0253874Y0010645D01*
X0253601Y0010717D01*
X0253330Y0010795D01*
X0253061Y0010880D01*
X0252794Y0010972D01*
X0252529Y0011071D01*
X0252267Y0011175D01*
X0252008Y0011287D01*
X0251751Y0011404D01*
X0251497Y0011528D01*
X0251247Y0011658D01*
X0251000Y0011794D01*
X0250756Y0011936D01*
X0250516Y0012084D01*
X0250279Y0012238D01*
X0250046Y0012398D01*
X0249817Y0012563D01*
X0249593Y0012734D01*
X0249372Y0012910D01*
X0249157Y0013092D01*
X0248945Y0013279D01*
X0248738Y0013471D01*
X0248536Y0013668D01*
X0248339Y0013870D01*
X0248147Y0014077D01*
X0247960Y0014289D01*
X0247778Y0014504D01*
X0247602Y0014725D01*
X0247431Y0014949D01*
X0247266Y0015178D01*
X0247106Y0015411D01*
X0246952Y0015648D01*
X0246804Y0015888D01*
X0246662Y0016132D01*
X0246526Y0016379D01*
X0246396Y0016629D01*
X0246272Y0016883D01*
X0246155Y0017140D01*
X0246043Y0017399D01*
X0245939Y0017661D01*
X0245840Y0017926D01*
X0245748Y0018193D01*
X0245663Y0018462D01*
X0245585Y0018733D01*
X0245513Y0019006D01*
X0245447Y0019280D01*
X0245389Y0019556D01*
X0245337Y0019834D01*
X0245292Y0020113D01*
X0245254Y0020392D01*
X0245223Y0020673D01*
X0245199Y0020954D01*
X0245182Y0021236D01*
X0245171Y0021518D01*
X0245168Y0021800D01*
X0040286Y0021800D02*
X0040289Y0022082D01*
X0040300Y0022364D01*
X0040317Y0022646D01*
X0040341Y0022927D01*
X0040372Y0023208D01*
X0040410Y0023487D01*
X0040455Y0023766D01*
X0040507Y0024044D01*
X0040565Y0024320D01*
X0040631Y0024594D01*
X0040703Y0024867D01*
X0040781Y0025138D01*
X0040866Y0025407D01*
X0040958Y0025674D01*
X0041057Y0025939D01*
X0041161Y0026201D01*
X0041273Y0026460D01*
X0041390Y0026717D01*
X0041514Y0026971D01*
X0041644Y0027221D01*
X0041780Y0027468D01*
X0041922Y0027712D01*
X0042070Y0027952D01*
X0042224Y0028189D01*
X0042384Y0028422D01*
X0042549Y0028651D01*
X0042720Y0028875D01*
X0042896Y0029096D01*
X0043078Y0029311D01*
X0043265Y0029523D01*
X0043457Y0029730D01*
X0043654Y0029932D01*
X0043856Y0030129D01*
X0044063Y0030321D01*
X0044275Y0030508D01*
X0044490Y0030690D01*
X0044711Y0030866D01*
X0044935Y0031037D01*
X0045164Y0031202D01*
X0045397Y0031362D01*
X0045634Y0031516D01*
X0045874Y0031664D01*
X0046118Y0031806D01*
X0046365Y0031942D01*
X0046615Y0032072D01*
X0046869Y0032196D01*
X0047126Y0032313D01*
X0047385Y0032425D01*
X0047647Y0032529D01*
X0047912Y0032628D01*
X0048179Y0032720D01*
X0048448Y0032805D01*
X0048719Y0032883D01*
X0048992Y0032955D01*
X0049266Y0033021D01*
X0049542Y0033079D01*
X0049820Y0033131D01*
X0050099Y0033176D01*
X0050378Y0033214D01*
X0050659Y0033245D01*
X0050940Y0033269D01*
X0051222Y0033286D01*
X0051504Y0033297D01*
X0051786Y0033300D01*
X0052068Y0033297D01*
X0052350Y0033286D01*
X0052632Y0033269D01*
X0052913Y0033245D01*
X0053194Y0033214D01*
X0053473Y0033176D01*
X0053752Y0033131D01*
X0054030Y0033079D01*
X0054306Y0033021D01*
X0054580Y0032955D01*
X0054853Y0032883D01*
X0055124Y0032805D01*
X0055393Y0032720D01*
X0055660Y0032628D01*
X0055925Y0032529D01*
X0056187Y0032425D01*
X0056446Y0032313D01*
X0056703Y0032196D01*
X0056957Y0032072D01*
X0057207Y0031942D01*
X0057454Y0031806D01*
X0057698Y0031664D01*
X0057938Y0031516D01*
X0058175Y0031362D01*
X0058408Y0031202D01*
X0058637Y0031037D01*
X0058861Y0030866D01*
X0059082Y0030690D01*
X0059297Y0030508D01*
X0059509Y0030321D01*
X0059716Y0030129D01*
X0059918Y0029932D01*
X0060115Y0029730D01*
X0060307Y0029523D01*
X0060494Y0029311D01*
X0060676Y0029096D01*
X0060852Y0028875D01*
X0061023Y0028651D01*
X0061188Y0028422D01*
X0061348Y0028189D01*
X0061502Y0027952D01*
X0061650Y0027712D01*
X0061792Y0027468D01*
X0061928Y0027221D01*
X0062058Y0026971D01*
X0062182Y0026717D01*
X0062299Y0026460D01*
X0062411Y0026201D01*
X0062515Y0025939D01*
X0062614Y0025674D01*
X0062706Y0025407D01*
X0062791Y0025138D01*
X0062869Y0024867D01*
X0062941Y0024594D01*
X0063007Y0024320D01*
X0063065Y0024044D01*
X0063117Y0023766D01*
X0063162Y0023487D01*
X0063200Y0023208D01*
X0063231Y0022927D01*
X0063255Y0022646D01*
X0063272Y0022364D01*
X0063283Y0022082D01*
X0063286Y0021800D01*
X0063283Y0021518D01*
X0063272Y0021236D01*
X0063255Y0020954D01*
X0063231Y0020673D01*
X0063200Y0020392D01*
X0063162Y0020113D01*
X0063117Y0019834D01*
X0063065Y0019556D01*
X0063007Y0019280D01*
X0062941Y0019006D01*
X0062869Y0018733D01*
X0062791Y0018462D01*
X0062706Y0018193D01*
X0062614Y0017926D01*
X0062515Y0017661D01*
X0062411Y0017399D01*
X0062299Y0017140D01*
X0062182Y0016883D01*
X0062058Y0016629D01*
X0061928Y0016379D01*
X0061792Y0016132D01*
X0061650Y0015888D01*
X0061502Y0015648D01*
X0061348Y0015411D01*
X0061188Y0015178D01*
X0061023Y0014949D01*
X0060852Y0014725D01*
X0060676Y0014504D01*
X0060494Y0014289D01*
X0060307Y0014077D01*
X0060115Y0013870D01*
X0059918Y0013668D01*
X0059716Y0013471D01*
X0059509Y0013279D01*
X0059297Y0013092D01*
X0059082Y0012910D01*
X0058861Y0012734D01*
X0058637Y0012563D01*
X0058408Y0012398D01*
X0058175Y0012238D01*
X0057938Y0012084D01*
X0057698Y0011936D01*
X0057454Y0011794D01*
X0057207Y0011658D01*
X0056957Y0011528D01*
X0056703Y0011404D01*
X0056446Y0011287D01*
X0056187Y0011175D01*
X0055925Y0011071D01*
X0055660Y0010972D01*
X0055393Y0010880D01*
X0055124Y0010795D01*
X0054853Y0010717D01*
X0054580Y0010645D01*
X0054306Y0010579D01*
X0054030Y0010521D01*
X0053752Y0010469D01*
X0053473Y0010424D01*
X0053194Y0010386D01*
X0052913Y0010355D01*
X0052632Y0010331D01*
X0052350Y0010314D01*
X0052068Y0010303D01*
X0051786Y0010300D01*
X0051504Y0010303D01*
X0051222Y0010314D01*
X0050940Y0010331D01*
X0050659Y0010355D01*
X0050378Y0010386D01*
X0050099Y0010424D01*
X0049820Y0010469D01*
X0049542Y0010521D01*
X0049266Y0010579D01*
X0048992Y0010645D01*
X0048719Y0010717D01*
X0048448Y0010795D01*
X0048179Y0010880D01*
X0047912Y0010972D01*
X0047647Y0011071D01*
X0047385Y0011175D01*
X0047126Y0011287D01*
X0046869Y0011404D01*
X0046615Y0011528D01*
X0046365Y0011658D01*
X0046118Y0011794D01*
X0045874Y0011936D01*
X0045634Y0012084D01*
X0045397Y0012238D01*
X0045164Y0012398D01*
X0044935Y0012563D01*
X0044711Y0012734D01*
X0044490Y0012910D01*
X0044275Y0013092D01*
X0044063Y0013279D01*
X0043856Y0013471D01*
X0043654Y0013668D01*
X0043457Y0013870D01*
X0043265Y0014077D01*
X0043078Y0014289D01*
X0042896Y0014504D01*
X0042720Y0014725D01*
X0042549Y0014949D01*
X0042384Y0015178D01*
X0042224Y0015411D01*
X0042070Y0015648D01*
X0041922Y0015888D01*
X0041780Y0016132D01*
X0041644Y0016379D01*
X0041514Y0016629D01*
X0041390Y0016883D01*
X0041273Y0017140D01*
X0041161Y0017399D01*
X0041057Y0017661D01*
X0040958Y0017926D01*
X0040866Y0018193D01*
X0040781Y0018462D01*
X0040703Y0018733D01*
X0040631Y0019006D01*
X0040565Y0019280D01*
X0040507Y0019556D01*
X0040455Y0019834D01*
X0040410Y0020113D01*
X0040372Y0020392D01*
X0040341Y0020673D01*
X0040317Y0020954D01*
X0040300Y0021236D01*
X0040289Y0021518D01*
X0040286Y0021800D01*
D12*
X0030727Y0023119D02*
X0030727Y0010619D01*
X0009227Y0015619D02*
X0007727Y0015619D01*
X0007727Y0016619D01*
X0030727Y0053493D02*
X0030727Y0065993D01*
X0041664Y0059611D02*
X0041664Y0058611D01*
X0043164Y0058611D01*
X0064664Y0053611D02*
X0064664Y0066111D01*
X0064664Y0097548D02*
X0064664Y0110048D01*
X0043164Y0102548D02*
X0041664Y0102548D01*
X0041664Y0103548D01*
X0030727Y0108867D02*
X0030727Y0096367D01*
X0009227Y0101367D02*
X0007727Y0101367D01*
X0007727Y0102367D01*
X0032525Y0140200D02*
X0034026Y0141701D01*
X0032525Y0143202D01*
X0037029Y0143202D01*
X0036278Y0144804D02*
X0037029Y0145554D01*
X0037029Y0147055D01*
X0036278Y0147806D01*
X0033275Y0147806D01*
X0032525Y0147055D01*
X0032525Y0145554D01*
X0033275Y0144804D01*
X0036278Y0144804D01*
X0037029Y0140200D02*
X0032525Y0140200D01*
X0032381Y0140461D02*
X0032381Y0152961D01*
X0032525Y0152410D02*
X0032525Y0149407D01*
X0032525Y0150909D02*
X0037029Y0150909D01*
X0036278Y0154011D02*
X0037029Y0154762D01*
X0037029Y0156263D01*
X0036278Y0157014D01*
X0033275Y0157014D01*
X0032525Y0156263D01*
X0032525Y0154762D01*
X0033275Y0154011D01*
X0036278Y0154011D01*
X0037029Y0158615D02*
X0032525Y0158615D01*
X0032525Y0160867D01*
X0033275Y0161618D01*
X0034777Y0161618D01*
X0035527Y0160867D01*
X0035527Y0158615D01*
X0035527Y0160117D02*
X0037029Y0161618D01*
X0037029Y0163219D02*
X0034026Y0166222D01*
X0033275Y0166222D01*
X0032525Y0165471D01*
X0032525Y0163970D01*
X0033275Y0163219D01*
X0037029Y0163219D02*
X0037029Y0166222D01*
X0010881Y0145461D02*
X0009381Y0145461D01*
X0009381Y0146461D01*
X0007727Y0059493D02*
X0007727Y0058493D01*
X0009227Y0058493D01*
X0044477Y0299550D02*
X0044477Y0304054D01*
X0045979Y0302553D01*
X0047480Y0304054D01*
X0047480Y0299550D01*
X0049081Y0300301D02*
X0049081Y0303303D01*
X0049832Y0304054D01*
X0051333Y0304054D01*
X0052084Y0303303D01*
X0052084Y0300301D01*
X0051333Y0299550D01*
X0049832Y0299550D01*
X0049081Y0300301D01*
X0053685Y0304054D02*
X0056688Y0304054D01*
X0055187Y0304054D02*
X0055187Y0299550D01*
X0058289Y0300301D02*
X0058289Y0303303D01*
X0059040Y0304054D01*
X0060541Y0304054D01*
X0061292Y0303303D01*
X0061292Y0300301D01*
X0060541Y0299550D01*
X0059040Y0299550D01*
X0058289Y0300301D01*
X0062893Y0301051D02*
X0065145Y0301051D01*
X0065896Y0301802D01*
X0065896Y0303303D01*
X0065145Y0304054D01*
X0062893Y0304054D01*
X0062893Y0299550D01*
X0064394Y0301051D02*
X0065896Y0299550D01*
X0067497Y0299550D02*
X0070500Y0299550D01*
X0068998Y0299550D02*
X0068998Y0304054D01*
X0067497Y0302553D01*
X0200227Y0300300D02*
X0201727Y0300300D01*
X0209227Y0300300D02*
X0211727Y0300300D01*
X0216727Y0300300D02*
X0219227Y0300300D01*
X0229477Y0299550D02*
X0229477Y0304054D01*
X0230979Y0302553D01*
X0232480Y0304054D01*
X0232480Y0299550D01*
X0234081Y0300301D02*
X0234081Y0303303D01*
X0234832Y0304054D01*
X0236333Y0304054D01*
X0237084Y0303303D01*
X0237084Y0300301D01*
X0236333Y0299550D01*
X0234832Y0299550D01*
X0234081Y0300301D01*
X0238685Y0304054D02*
X0241688Y0304054D01*
X0240187Y0304054D02*
X0240187Y0299550D01*
X0243289Y0300301D02*
X0243289Y0303303D01*
X0244040Y0304054D01*
X0245541Y0304054D01*
X0246292Y0303303D01*
X0246292Y0300301D01*
X0245541Y0299550D01*
X0244040Y0299550D01*
X0243289Y0300301D01*
X0247893Y0301051D02*
X0250145Y0301051D01*
X0250896Y0301802D01*
X0250896Y0303303D01*
X0250145Y0304054D01*
X0247893Y0304054D01*
X0247893Y0299550D01*
X0249394Y0301051D02*
X0250896Y0299550D01*
X0252497Y0300301D02*
X0253248Y0299550D01*
X0254749Y0299550D01*
X0255500Y0300301D01*
X0255500Y0301051D01*
X0254749Y0301802D01*
X0253998Y0301802D01*
X0254749Y0301802D02*
X0255500Y0302553D01*
X0255500Y0303303D01*
X0254749Y0304054D01*
X0253248Y0304054D01*
X0252497Y0303303D01*
X0219227Y0323300D02*
X0209227Y0323300D01*
X0205227Y0323300D02*
X0204227Y0323300D01*
X0204227Y0321800D01*
X0277294Y0170461D02*
X0277294Y0157961D01*
X0266477Y0158364D02*
X0265727Y0159115D01*
X0262724Y0159115D01*
X0261974Y0158364D01*
X0261974Y0156863D01*
X0262724Y0156112D01*
X0265727Y0156112D01*
X0266477Y0156863D01*
X0266477Y0158364D01*
X0266477Y0160716D02*
X0261974Y0160716D01*
X0261974Y0162968D01*
X0262724Y0163719D01*
X0264226Y0163719D01*
X0264976Y0162968D01*
X0264976Y0160716D01*
X0264976Y0162217D02*
X0266477Y0163719D01*
X0264226Y0165320D02*
X0264226Y0168323D01*
X0266477Y0167572D02*
X0261974Y0167572D01*
X0264226Y0165320D01*
X0261974Y0154511D02*
X0261974Y0151508D01*
X0261974Y0153010D02*
X0266477Y0153010D01*
X0265727Y0149907D02*
X0262724Y0149907D01*
X0261974Y0149156D01*
X0261974Y0147655D01*
X0262724Y0146904D01*
X0265727Y0146904D01*
X0266477Y0147655D01*
X0266477Y0149156D01*
X0265727Y0149907D01*
X0266477Y0145303D02*
X0261974Y0145303D01*
X0263475Y0143802D01*
X0261974Y0142300D01*
X0266477Y0142300D01*
X0277294Y0127194D02*
X0277294Y0114694D01*
X0270727Y0120485D02*
X0270727Y0121485D01*
X0269227Y0121485D01*
X0247727Y0126485D02*
X0247727Y0113985D01*
X0246231Y0083926D02*
X0246231Y0071426D01*
X0267731Y0078926D02*
X0269231Y0078926D01*
X0269231Y0077926D01*
X0277727Y0083060D02*
X0277727Y0070560D01*
X0299227Y0078060D02*
X0300727Y0078060D01*
X0300727Y0077060D01*
X0277727Y0040186D02*
X0277727Y0027686D01*
X0299227Y0035186D02*
X0300727Y0035186D01*
X0300727Y0034186D01*
X0300294Y0121194D02*
X0300294Y0122194D01*
X0298794Y0122194D01*
X0300294Y0164461D02*
X0300294Y0165461D01*
X0298794Y0165461D01*
D13*
X0156727Y0288800D02*
X0124227Y0288800D01*
X0124227Y0324800D01*
X0156727Y0324800D01*
X0156727Y0288800D01*
D14*
X0156440Y0284955D02*
X0156440Y0278650D01*
X0155389Y0278650D02*
X0157491Y0278650D01*
X0159686Y0279701D02*
X0159686Y0283904D01*
X0160737Y0284955D01*
X0162839Y0284955D01*
X0163890Y0283904D01*
X0166132Y0282854D02*
X0168234Y0284955D01*
X0168234Y0278650D01*
X0170335Y0278650D02*
X0166132Y0278650D01*
X0163890Y0279701D02*
X0162839Y0278650D01*
X0160737Y0278650D01*
X0159686Y0279701D01*
X0157491Y0284955D02*
X0155389Y0284955D01*
X0194972Y0309444D02*
X0197841Y0312313D01*
X0197841Y0313030D01*
X0197123Y0313748D01*
X0195689Y0313748D01*
X0194972Y0313030D01*
X0194972Y0309444D02*
X0197841Y0309444D01*
X0222472Y0309744D02*
X0225341Y0309744D01*
X0223906Y0309744D02*
X0223906Y0314048D01*
X0222472Y0312613D01*
D15*
X0171477Y0316800D03*
X0171477Y0306800D03*
X0171477Y0296800D03*
D16*
X0164727Y0296800D03*
X0164727Y0306800D03*
X0164727Y0316800D03*
D17*
X0006133Y0011525D02*
X0005533Y0010925D01*
X0006133Y0011525D02*
X0006133Y0012126D01*
X0005533Y0012726D01*
X0002530Y0012726D01*
X0002530Y0012126D02*
X0002530Y0013327D01*
X0003731Y0014608D02*
X0002530Y0015809D01*
X0006133Y0015809D01*
X0006133Y0014608D02*
X0006133Y0017010D01*
X0005533Y0018291D02*
X0006133Y0018892D01*
X0006133Y0020093D01*
X0005533Y0020693D01*
X0003131Y0020693D01*
X0005533Y0018291D01*
X0003131Y0018291D01*
X0002530Y0018892D01*
X0002530Y0020093D01*
X0003131Y0020693D01*
X0029823Y0013121D02*
X0032893Y0013121D01*
X0031358Y0014655D02*
X0031358Y0011586D01*
X0031725Y0021215D02*
X0031725Y0024284D01*
X0039470Y0053917D02*
X0040070Y0054517D01*
X0040070Y0055118D01*
X0039470Y0055718D01*
X0036467Y0055718D01*
X0036467Y0055118D02*
X0036467Y0056319D01*
X0037668Y0057600D02*
X0036467Y0058801D01*
X0040070Y0058801D01*
X0040070Y0057600D02*
X0040070Y0060002D01*
X0040070Y0061283D02*
X0037668Y0063685D01*
X0037068Y0063685D01*
X0036467Y0063085D01*
X0036467Y0061884D01*
X0037068Y0061283D01*
X0040070Y0061283D02*
X0040070Y0063685D01*
X0031725Y0064089D02*
X0031725Y0067158D01*
X0031358Y0057530D02*
X0031358Y0054460D01*
X0029823Y0055995D02*
X0032893Y0055995D01*
X0006133Y0055000D02*
X0005533Y0055600D01*
X0002530Y0055600D01*
X0002530Y0055000D02*
X0002530Y0056201D01*
X0003131Y0057482D02*
X0002530Y0058082D01*
X0002530Y0059284D01*
X0003131Y0059884D01*
X0005533Y0059884D01*
X0006133Y0059284D01*
X0006133Y0058082D01*
X0005533Y0057482D01*
X0004332Y0058082D02*
X0003731Y0057482D01*
X0003131Y0057482D01*
X0004332Y0058082D02*
X0004332Y0059884D01*
X0006133Y0055000D02*
X0006133Y0054399D01*
X0005533Y0053799D01*
X0005533Y0096673D02*
X0006133Y0097273D01*
X0006133Y0097874D01*
X0005533Y0098474D01*
X0002530Y0098474D01*
X0002530Y0097874D02*
X0002530Y0099075D01*
X0003131Y0100356D02*
X0002530Y0100956D01*
X0002530Y0102158D01*
X0003131Y0102758D01*
X0003731Y0102758D01*
X0004332Y0102158D01*
X0004332Y0100956D01*
X0003731Y0100356D01*
X0003131Y0100356D01*
X0004332Y0100956D02*
X0004932Y0100356D01*
X0005533Y0100356D01*
X0006133Y0100956D01*
X0006133Y0102158D01*
X0005533Y0102758D01*
X0004932Y0102758D01*
X0004332Y0102158D01*
X0029823Y0098869D02*
X0032893Y0098869D01*
X0031358Y0100404D02*
X0031358Y0097334D01*
X0036467Y0099055D02*
X0036467Y0100256D01*
X0036467Y0099655D02*
X0039470Y0099655D01*
X0040070Y0099055D01*
X0040070Y0098454D01*
X0039470Y0097854D01*
X0040070Y0101537D02*
X0040070Y0103939D01*
X0040070Y0102738D02*
X0036467Y0102738D01*
X0037668Y0101537D01*
X0037668Y0105220D02*
X0036467Y0106421D01*
X0040070Y0106421D01*
X0040070Y0105220D02*
X0040070Y0107622D01*
X0031725Y0106963D02*
X0031725Y0110032D01*
X0033012Y0141429D02*
X0033012Y0144498D01*
X0031477Y0142963D02*
X0034546Y0142963D01*
X0033379Y0151057D02*
X0033379Y0154127D01*
X0007787Y0144450D02*
X0007186Y0144450D01*
X0004784Y0146853D01*
X0004184Y0146853D01*
X0004184Y0144450D01*
X0004184Y0143169D02*
X0004184Y0141968D01*
X0004184Y0142569D02*
X0007186Y0142569D01*
X0007787Y0141968D01*
X0007787Y0141368D01*
X0007186Y0140767D01*
X0057002Y0194809D02*
X0056235Y0195576D01*
X0056235Y0197111D01*
X0057002Y0197878D01*
X0057769Y0197878D01*
X0060838Y0194809D01*
X0060838Y0197878D01*
X0075011Y0170603D02*
X0074427Y0170019D01*
X0074427Y0169435D01*
X0075011Y0168851D01*
X0076179Y0168851D01*
X0076763Y0168268D01*
X0076763Y0167684D01*
X0076179Y0167100D01*
X0075011Y0167100D01*
X0074427Y0167684D01*
X0075011Y0170603D02*
X0076179Y0170603D01*
X0076763Y0170019D01*
X0078018Y0170603D02*
X0078018Y0167100D01*
X0080354Y0167100D01*
X0081610Y0167100D02*
X0081610Y0170603D01*
X0083945Y0167100D01*
X0083945Y0170603D01*
X0085201Y0170019D02*
X0085201Y0169435D01*
X0085784Y0168851D01*
X0086952Y0168851D01*
X0087536Y0168268D01*
X0087536Y0167684D01*
X0086952Y0167100D01*
X0085784Y0167100D01*
X0085201Y0167684D01*
X0085201Y0170019D02*
X0085784Y0170603D01*
X0086952Y0170603D01*
X0087536Y0170019D01*
X0088792Y0170603D02*
X0088792Y0167100D01*
X0091127Y0167100D01*
X0092383Y0167100D02*
X0094718Y0167100D01*
X0093550Y0167100D02*
X0093550Y0170603D01*
X0092383Y0169435D01*
X0091127Y0170603D02*
X0088792Y0170603D01*
X0088792Y0168851D02*
X0089959Y0168851D01*
X0080354Y0170603D02*
X0078018Y0170603D01*
X0078018Y0168851D02*
X0079186Y0168851D01*
X0093471Y0190278D02*
X0091936Y0191813D01*
X0096540Y0191813D01*
X0096540Y0193347D02*
X0096540Y0190278D01*
X0101235Y0192000D02*
X0101235Y0193535D01*
X0101235Y0192767D02*
X0105838Y0192767D01*
X0105838Y0192000D02*
X0105838Y0193535D01*
X0105071Y0195069D02*
X0105838Y0195837D01*
X0105838Y0197371D01*
X0105071Y0198139D01*
X0105838Y0199673D02*
X0102769Y0202742D01*
X0102002Y0202742D01*
X0101235Y0201975D01*
X0101235Y0200441D01*
X0102002Y0199673D01*
X0102002Y0198139D02*
X0101235Y0197371D01*
X0101235Y0195837D01*
X0102002Y0195069D01*
X0105071Y0195069D01*
X0105838Y0199673D02*
X0105838Y0202742D01*
X0115011Y0170603D02*
X0114427Y0170019D01*
X0114427Y0169435D01*
X0115011Y0168851D01*
X0116179Y0168851D01*
X0116763Y0168268D01*
X0116763Y0167684D01*
X0116179Y0167100D01*
X0115011Y0167100D01*
X0114427Y0167684D01*
X0115011Y0170603D02*
X0116179Y0170603D01*
X0116763Y0170019D01*
X0118018Y0170603D02*
X0118018Y0167100D01*
X0120354Y0167100D01*
X0121610Y0167100D02*
X0121610Y0170603D01*
X0123945Y0167100D01*
X0123945Y0170603D01*
X0125201Y0170019D02*
X0125201Y0169435D01*
X0125784Y0168851D01*
X0126952Y0168851D01*
X0127536Y0168268D01*
X0127536Y0167684D01*
X0126952Y0167100D01*
X0125784Y0167100D01*
X0125201Y0167684D01*
X0125201Y0170019D02*
X0125784Y0170603D01*
X0126952Y0170603D01*
X0127536Y0170019D01*
X0128792Y0170603D02*
X0128792Y0167100D01*
X0131127Y0167100D01*
X0132383Y0167100D02*
X0134718Y0169435D01*
X0134718Y0170019D01*
X0134134Y0170603D01*
X0132967Y0170603D01*
X0132383Y0170019D01*
X0131127Y0170603D02*
X0128792Y0170603D01*
X0128792Y0168851D02*
X0129959Y0168851D01*
X0132383Y0167100D02*
X0134718Y0167100D01*
X0120354Y0170603D02*
X0118018Y0170603D01*
X0118018Y0168851D02*
X0119186Y0168851D01*
X0164427Y0169435D02*
X0165011Y0168851D01*
X0166179Y0168851D01*
X0166763Y0168268D01*
X0166763Y0167684D01*
X0166179Y0167100D01*
X0165011Y0167100D01*
X0164427Y0167684D01*
X0164427Y0169435D02*
X0164427Y0170019D01*
X0165011Y0170603D01*
X0166179Y0170603D01*
X0166763Y0170019D01*
X0168018Y0170603D02*
X0168018Y0167100D01*
X0170354Y0167100D01*
X0171610Y0167100D02*
X0171610Y0170603D01*
X0173945Y0167100D01*
X0173945Y0170603D01*
X0175201Y0170019D02*
X0175201Y0169435D01*
X0175784Y0168851D01*
X0176952Y0168851D01*
X0177536Y0168268D01*
X0177536Y0167684D01*
X0176952Y0167100D01*
X0175784Y0167100D01*
X0175201Y0167684D01*
X0175201Y0170019D02*
X0175784Y0170603D01*
X0176952Y0170603D01*
X0177536Y0170019D01*
X0178792Y0170603D02*
X0178792Y0167100D01*
X0181127Y0167100D01*
X0179959Y0168851D02*
X0178792Y0168851D01*
X0178792Y0170603D02*
X0181127Y0170603D01*
X0182383Y0168851D02*
X0184718Y0168851D01*
X0184134Y0167100D02*
X0184134Y0170603D01*
X0182383Y0168851D01*
X0170354Y0170603D02*
X0168018Y0170603D01*
X0168018Y0168851D02*
X0169186Y0168851D01*
X0202881Y0155919D02*
X0202881Y0155335D01*
X0203465Y0154751D01*
X0204633Y0154751D01*
X0205216Y0154168D01*
X0205216Y0153584D01*
X0204633Y0153000D01*
X0203465Y0153000D01*
X0202881Y0153584D01*
X0202881Y0155919D02*
X0203465Y0156503D01*
X0204633Y0156503D01*
X0205216Y0155919D01*
X0206472Y0156503D02*
X0206472Y0153000D01*
X0208807Y0153000D01*
X0210063Y0153000D02*
X0210063Y0156503D01*
X0212398Y0153000D01*
X0212398Y0156503D01*
X0213654Y0155919D02*
X0213654Y0155335D01*
X0214238Y0154751D01*
X0215406Y0154751D01*
X0215990Y0154168D01*
X0215990Y0153584D01*
X0215406Y0153000D01*
X0214238Y0153000D01*
X0213654Y0153584D01*
X0213654Y0155919D02*
X0214238Y0156503D01*
X0215406Y0156503D01*
X0215990Y0155919D01*
X0217245Y0156503D02*
X0217245Y0153000D01*
X0219581Y0153000D01*
X0220836Y0153584D02*
X0221420Y0153000D01*
X0222588Y0153000D01*
X0223172Y0153584D01*
X0223172Y0154168D01*
X0222588Y0154751D01*
X0222004Y0154751D01*
X0222588Y0154751D02*
X0223172Y0155335D01*
X0223172Y0155919D01*
X0222588Y0156503D01*
X0221420Y0156503D01*
X0220836Y0155919D01*
X0219581Y0156503D02*
X0217245Y0156503D01*
X0217245Y0154751D02*
X0218413Y0154751D01*
X0208807Y0156503D02*
X0206472Y0156503D01*
X0206472Y0154751D02*
X0207640Y0154751D01*
X0216552Y0186069D02*
X0215018Y0187604D01*
X0219622Y0187604D01*
X0219622Y0186069D02*
X0219622Y0189139D01*
X0218854Y0190673D02*
X0219622Y0191441D01*
X0219622Y0192975D01*
X0218854Y0193743D01*
X0217320Y0193743D01*
X0216552Y0192975D01*
X0216552Y0192208D01*
X0217320Y0190673D01*
X0215018Y0190673D01*
X0215018Y0193743D01*
X0250486Y0193073D02*
X0255090Y0193073D01*
X0255090Y0194607D02*
X0255090Y0191538D01*
X0252021Y0191538D02*
X0250486Y0193073D01*
X0252788Y0196142D02*
X0252788Y0199211D01*
X0250486Y0198444D02*
X0252788Y0196142D01*
X0255090Y0198444D02*
X0250486Y0198444D01*
X0275529Y0169498D02*
X0275529Y0166429D01*
X0273994Y0167963D02*
X0277064Y0167963D01*
X0276292Y0158731D02*
X0276292Y0155661D01*
X0297948Y0172264D02*
X0297948Y0173465D01*
X0297948Y0172865D02*
X0300951Y0172865D01*
X0301551Y0172264D01*
X0301551Y0171664D01*
X0300951Y0171063D01*
X0301551Y0174746D02*
X0301551Y0177148D01*
X0301551Y0175947D02*
X0297948Y0175947D01*
X0299149Y0174746D01*
X0299149Y0126007D02*
X0298549Y0126007D01*
X0297948Y0125406D01*
X0297948Y0124205D01*
X0298549Y0123605D01*
X0297948Y0122324D02*
X0297948Y0121123D01*
X0297948Y0121723D02*
X0300951Y0121723D01*
X0301551Y0121123D01*
X0301551Y0120522D01*
X0300951Y0119922D01*
X0301551Y0123605D02*
X0299149Y0126007D01*
X0301551Y0126007D02*
X0301551Y0123605D01*
X0277064Y0124696D02*
X0273994Y0124696D01*
X0274120Y0124698D02*
X0274120Y0122896D01*
X0275321Y0122896D01*
X0275922Y0123496D01*
X0275922Y0124698D01*
X0275321Y0125298D01*
X0274720Y0125298D01*
X0274120Y0124698D01*
X0272919Y0124097D02*
X0274120Y0122896D01*
X0275529Y0123161D02*
X0275529Y0126230D01*
X0272318Y0125298D02*
X0272919Y0124097D01*
X0272318Y0121615D02*
X0272318Y0120414D01*
X0272318Y0121014D02*
X0275321Y0121014D01*
X0275922Y0120414D01*
X0275922Y0119813D01*
X0275321Y0119213D01*
X0276292Y0115463D02*
X0276292Y0112394D01*
X0273825Y0082739D02*
X0274425Y0082138D01*
X0274425Y0080937D01*
X0273825Y0080337D01*
X0274427Y0080562D02*
X0277497Y0080562D01*
X0275962Y0082096D02*
X0275962Y0079027D01*
X0274425Y0077855D02*
X0273825Y0078455D01*
X0270822Y0078455D01*
X0270822Y0077855D02*
X0270822Y0079056D01*
X0270822Y0080337D02*
X0272624Y0080337D01*
X0272023Y0081538D01*
X0272023Y0082138D01*
X0272624Y0082739D01*
X0273825Y0082739D01*
X0270822Y0082739D02*
X0270822Y0080337D01*
X0274425Y0077855D02*
X0274425Y0077254D01*
X0273825Y0076654D01*
X0276725Y0071329D02*
X0276725Y0068260D01*
X0298381Y0076989D02*
X0298381Y0078190D01*
X0298381Y0077589D02*
X0301384Y0077589D01*
X0301985Y0076989D01*
X0301985Y0076388D01*
X0301384Y0075788D01*
X0301384Y0079471D02*
X0301985Y0080071D01*
X0301985Y0081272D01*
X0301384Y0081873D01*
X0300783Y0081873D01*
X0300183Y0081272D01*
X0300183Y0080672D01*
X0300183Y0081272D02*
X0299582Y0081873D01*
X0298982Y0081873D01*
X0298381Y0081272D01*
X0298381Y0080071D01*
X0298982Y0079471D01*
X0300183Y0042936D02*
X0300183Y0040534D01*
X0298381Y0042335D01*
X0301985Y0042335D01*
X0301384Y0038652D02*
X0298381Y0038652D01*
X0298381Y0038052D02*
X0298381Y0039253D01*
X0301384Y0038652D02*
X0301985Y0038052D01*
X0301985Y0037451D01*
X0301384Y0036851D01*
X0277497Y0037688D02*
X0274427Y0037688D01*
X0275962Y0039222D02*
X0275962Y0036153D01*
X0276725Y0028455D02*
X0276725Y0025386D01*
X0245229Y0069126D02*
X0245229Y0072195D01*
X0244466Y0079893D02*
X0244466Y0082963D01*
X0242931Y0081428D02*
X0246001Y0081428D01*
X0246725Y0111685D02*
X0246725Y0114754D01*
X0245962Y0122452D02*
X0245962Y0125522D01*
X0244427Y0123987D02*
X0247497Y0123987D01*
X0210090Y0249723D02*
X0210090Y0251257D01*
X0210090Y0250490D02*
X0205486Y0250490D01*
X0205486Y0249723D02*
X0205486Y0251257D01*
X0206254Y0252792D02*
X0209323Y0252792D01*
X0210090Y0253559D01*
X0210090Y0255094D01*
X0209323Y0255861D01*
X0209323Y0257396D02*
X0210090Y0258163D01*
X0210090Y0259698D01*
X0209323Y0260465D01*
X0208556Y0260465D01*
X0207788Y0259698D01*
X0207788Y0258931D01*
X0207788Y0259698D02*
X0207021Y0260465D01*
X0206254Y0260465D01*
X0205486Y0259698D01*
X0205486Y0258163D01*
X0206254Y0257396D01*
X0206254Y0255861D02*
X0205486Y0255094D01*
X0205486Y0253559D01*
X0206254Y0252792D01*
X0214785Y0260653D02*
X0219388Y0260653D01*
X0219388Y0262187D02*
X0219388Y0259118D01*
X0216319Y0259118D02*
X0214785Y0260653D01*
X0250486Y0256889D02*
X0250486Y0255354D01*
X0251254Y0254587D01*
X0250486Y0256889D02*
X0251254Y0257656D01*
X0252021Y0257656D01*
X0255090Y0254587D01*
X0255090Y0257656D01*
X0219150Y0324894D02*
X0219150Y0326696D01*
X0220351Y0327897D01*
X0220351Y0328497D01*
X0219150Y0326696D02*
X0217949Y0327897D01*
X0217949Y0328497D01*
X0214266Y0328497D02*
X0214266Y0324894D01*
X0216668Y0324894D01*
X0212985Y0326696D02*
X0212384Y0326095D01*
X0210583Y0326095D01*
X0210583Y0324894D02*
X0210583Y0328497D01*
X0212384Y0328497D01*
X0212985Y0327897D01*
X0212985Y0326696D01*
X0209302Y0326696D02*
X0208701Y0326095D01*
X0206900Y0326095D01*
X0206900Y0324894D02*
X0206900Y0328497D01*
X0208701Y0328497D01*
X0209302Y0327897D01*
X0209302Y0326696D01*
X0205619Y0325495D02*
X0205619Y0328497D01*
X0203216Y0328497D02*
X0203216Y0325495D01*
X0203817Y0324894D01*
X0205018Y0324894D01*
X0205619Y0325495D01*
X0201935Y0325495D02*
X0201335Y0324894D01*
X0200134Y0324894D01*
X0199533Y0325495D01*
X0200134Y0326696D02*
X0201335Y0326696D01*
X0201935Y0326095D01*
X0201935Y0325495D01*
X0200134Y0326696D02*
X0199533Y0327296D01*
X0199533Y0327897D01*
X0200134Y0328497D01*
X0201335Y0328497D01*
X0201935Y0327897D01*
X0180027Y0321173D02*
X0180027Y0318104D01*
X0176958Y0321173D01*
X0176191Y0321173D01*
X0175423Y0320406D01*
X0175423Y0318871D01*
X0176191Y0318104D01*
X0176191Y0316569D02*
X0175423Y0315802D01*
X0175423Y0314267D01*
X0176191Y0313500D01*
X0179260Y0313500D01*
X0180027Y0314267D01*
X0180027Y0315802D01*
X0179260Y0316569D01*
X0180027Y0301173D02*
X0180027Y0298104D01*
X0180027Y0299639D02*
X0175423Y0299639D01*
X0176958Y0298104D01*
X0176191Y0296569D02*
X0175423Y0295802D01*
X0175423Y0294267D01*
X0176191Y0293500D01*
X0179260Y0293500D01*
X0180027Y0294267D01*
X0180027Y0295802D01*
X0179260Y0296569D01*
X0096307Y0265629D02*
X0096307Y0264094D01*
X0095540Y0263327D01*
X0094005Y0263327D02*
X0093238Y0264861D01*
X0093238Y0265629D01*
X0094005Y0266396D01*
X0095540Y0266396D01*
X0096307Y0265629D01*
X0094005Y0263327D02*
X0091703Y0263327D01*
X0091703Y0266396D01*
X0091703Y0260257D02*
X0096307Y0260257D01*
X0096307Y0258723D02*
X0096307Y0261792D01*
X0093238Y0258723D02*
X0091703Y0260257D01*
X0060838Y0260160D02*
X0056235Y0260160D01*
X0058536Y0257858D01*
X0058536Y0260927D01*
X0060838Y0256323D02*
X0060838Y0253254D01*
X0060838Y0254789D02*
X0056235Y0254789D01*
X0057769Y0253254D01*
X0065662Y0111213D02*
X0065662Y0108144D01*
X0065295Y0101585D02*
X0065295Y0098515D01*
X0063761Y0100050D02*
X0066830Y0100050D01*
X0065662Y0067276D02*
X0065662Y0064207D01*
X0065295Y0057648D02*
X0065295Y0054578D01*
X0063761Y0056113D02*
X0066830Y0056113D01*
D18*
X0052052Y0226800D03*
X0259277Y0226800D03*
D19*
X0224977Y0161800D03*
X0203477Y0161800D03*
X0184977Y0161800D03*
X0163477Y0161800D03*
X0134977Y0161800D03*
X0113477Y0161800D03*
X0094977Y0161800D03*
X0073477Y0161800D03*
D20*
X0101038Y0191300D03*
X0116038Y0191300D03*
X0131038Y0191300D03*
X0146038Y0191300D03*
X0165290Y0191300D03*
X0180290Y0191300D03*
X0195290Y0191300D03*
X0210290Y0191300D03*
X0210290Y0241300D03*
X0195290Y0241300D03*
X0180290Y0241300D03*
X0165290Y0241300D03*
X0146038Y0241300D03*
X0131038Y0241300D03*
X0116038Y0241300D03*
X0101038Y0241300D03*
D21*
X0101038Y0235050D03*
X0116038Y0235050D03*
X0131038Y0235050D03*
X0146038Y0235050D03*
X0165290Y0235050D03*
X0180290Y0235050D03*
X0195290Y0235050D03*
X0210290Y0235050D03*
X0210290Y0258550D03*
X0195290Y0258550D03*
X0180290Y0258550D03*
X0165290Y0258550D03*
X0146038Y0258550D03*
X0131038Y0258550D03*
X0116038Y0258550D03*
X0101038Y0258550D03*
X0101038Y0208550D03*
X0116038Y0208550D03*
X0131038Y0208550D03*
X0146038Y0208550D03*
X0165290Y0208550D03*
X0180290Y0208550D03*
X0195290Y0208550D03*
X0210290Y0208550D03*
X0210290Y0185050D03*
X0195290Y0185050D03*
X0180290Y0185050D03*
X0165290Y0185050D03*
X0146038Y0185050D03*
X0131038Y0185050D03*
X0116038Y0185050D03*
X0101038Y0185050D03*
D22*
X0064664Y0127548D02*
X0041664Y0127548D01*
X0041664Y0102548D01*
X0045664Y0102548D01*
X0045664Y0103548D01*
X0041664Y0103548D01*
X0041664Y0102548D02*
X0041664Y0097548D01*
X0064664Y0097548D01*
X0064664Y0098548D02*
X0064664Y0100048D01*
X0064664Y0105048D01*
X0064664Y0110048D01*
X0062164Y0110048D01*
X0062164Y0115048D01*
X0064664Y0115048D01*
X0064664Y0120048D01*
X0062164Y0120048D01*
X0062164Y0125048D01*
X0064664Y0125048D01*
X0064664Y0120048D01*
X0064664Y0115048D02*
X0064664Y0110048D01*
X0064664Y0105048D02*
X0062164Y0105048D01*
X0062164Y0100048D01*
X0064664Y0100048D01*
X0064664Y0083611D02*
X0041664Y0083611D01*
X0041664Y0058611D01*
X0045664Y0058611D01*
X0045664Y0059611D01*
X0041664Y0059611D01*
X0041664Y0058611D02*
X0041664Y0053611D01*
X0064664Y0053611D01*
X0064664Y0054611D02*
X0064664Y0056111D01*
X0064664Y0061111D01*
X0064664Y0066111D01*
X0062164Y0066111D01*
X0062164Y0071111D01*
X0064664Y0071111D01*
X0064664Y0076111D01*
X0062164Y0076111D01*
X0062164Y0081111D01*
X0064664Y0081111D01*
X0064664Y0076111D01*
X0064664Y0071111D02*
X0064664Y0066111D01*
X0064664Y0061111D02*
X0062164Y0061111D01*
X0062164Y0056111D01*
X0064664Y0056111D01*
X0045664Y0059611D02*
X0045664Y0077611D01*
X0041664Y0077611D01*
X0041664Y0078611D02*
X0045664Y0078611D01*
X0045664Y0077611D01*
X0030727Y0075993D02*
X0030727Y0070993D01*
X0028227Y0070993D01*
X0028227Y0065993D01*
X0030727Y0065993D01*
X0030727Y0060993D01*
X0030727Y0055993D01*
X0028227Y0055993D01*
X0028227Y0060993D01*
X0030727Y0060993D01*
X0030727Y0055993D02*
X0030727Y0054493D01*
X0030727Y0053493D02*
X0007727Y0053493D01*
X0007727Y0058493D01*
X0011727Y0058493D01*
X0011727Y0059493D01*
X0007727Y0059493D01*
X0007727Y0058493D02*
X0007727Y0083493D01*
X0030727Y0083493D01*
X0030727Y0080993D02*
X0028227Y0080993D01*
X0028227Y0075993D01*
X0030727Y0075993D01*
X0030727Y0080993D01*
X0030727Y0070993D02*
X0030727Y0065993D01*
X0011727Y0059493D02*
X0011727Y0077493D01*
X0007727Y0077493D01*
X0007727Y0078493D02*
X0011727Y0078493D01*
X0011727Y0077493D01*
X0007727Y0096367D02*
X0030727Y0096367D01*
X0030727Y0097367D02*
X0030727Y0098867D01*
X0030727Y0103867D01*
X0030727Y0108867D01*
X0028227Y0108867D01*
X0028227Y0113867D01*
X0030727Y0113867D01*
X0030727Y0118867D01*
X0028227Y0118867D01*
X0028227Y0123867D01*
X0030727Y0123867D01*
X0030727Y0118867D01*
X0030727Y0113867D02*
X0030727Y0108867D01*
X0030727Y0103867D02*
X0028227Y0103867D01*
X0028227Y0098867D01*
X0030727Y0098867D01*
X0045664Y0103548D02*
X0045664Y0121548D01*
X0041664Y0121548D01*
X0041664Y0122548D02*
X0045664Y0122548D01*
X0045664Y0121548D01*
X0030727Y0126367D02*
X0007727Y0126367D01*
X0007727Y0101367D01*
X0011727Y0101367D01*
X0011727Y0102367D01*
X0007727Y0102367D01*
X0007727Y0101367D02*
X0007727Y0096367D01*
X0011727Y0102367D02*
X0011727Y0120367D01*
X0007727Y0120367D01*
X0007727Y0121367D02*
X0011727Y0121367D01*
X0011727Y0120367D01*
X0009381Y0140461D02*
X0032381Y0140461D01*
X0032381Y0141461D02*
X0032381Y0142961D01*
X0032381Y0147961D01*
X0032381Y0152961D01*
X0029881Y0152961D01*
X0029881Y0157961D01*
X0032381Y0157961D01*
X0032381Y0162961D01*
X0029881Y0162961D01*
X0029881Y0167961D01*
X0032381Y0167961D01*
X0032381Y0162961D01*
X0032381Y0157961D02*
X0032381Y0152961D01*
X0032381Y0147961D02*
X0029881Y0147961D01*
X0029881Y0142961D01*
X0032381Y0142961D01*
X0013381Y0145461D02*
X0013381Y0146461D01*
X0009381Y0146461D01*
X0009381Y0145461D02*
X0013381Y0145461D01*
X0013381Y0146461D02*
X0013381Y0164461D01*
X0009381Y0164461D01*
X0009381Y0165461D02*
X0013381Y0165461D01*
X0013381Y0164461D01*
X0009381Y0170461D02*
X0032381Y0170461D01*
X0009381Y0170461D02*
X0009381Y0145461D01*
X0009381Y0140461D01*
X0007727Y0040619D02*
X0030727Y0040619D01*
X0030727Y0038119D02*
X0028227Y0038119D01*
X0028227Y0033119D01*
X0030727Y0033119D01*
X0030727Y0028119D01*
X0028227Y0028119D01*
X0028227Y0023119D01*
X0030727Y0023119D01*
X0030727Y0018119D01*
X0030727Y0013119D01*
X0028227Y0013119D01*
X0028227Y0018119D01*
X0030727Y0018119D01*
X0030727Y0023119D02*
X0030727Y0028119D01*
X0030727Y0033119D02*
X0030727Y0038119D01*
X0011727Y0035619D02*
X0007727Y0035619D01*
X0007727Y0034619D02*
X0011727Y0034619D01*
X0011727Y0035619D01*
X0011727Y0034619D02*
X0011727Y0016619D01*
X0007727Y0016619D01*
X0007727Y0015619D02*
X0011727Y0015619D01*
X0011727Y0016619D01*
X0007727Y0015619D02*
X0007727Y0010619D01*
X0030727Y0010619D01*
X0030727Y0011619D02*
X0030727Y0013119D01*
X0007727Y0015619D02*
X0007727Y0040619D01*
X0199227Y0300300D02*
X0201727Y0300300D01*
X0201727Y0302800D01*
X0206727Y0302800D01*
X0206727Y0300300D01*
X0211727Y0300300D01*
X0211727Y0302800D01*
X0216727Y0302800D01*
X0216727Y0300300D01*
X0219227Y0300300D01*
X0219227Y0311800D01*
X0219227Y0323300D01*
X0214227Y0323300D02*
X0214227Y0319300D01*
X0213227Y0317300D01*
X0205227Y0317300D01*
X0204227Y0319300D01*
X0205227Y0319300D01*
X0205227Y0323300D01*
X0204227Y0323300D02*
X0204227Y0319300D01*
X0205227Y0319300D02*
X0213227Y0319300D01*
X0213227Y0323300D01*
X0209227Y0323300D02*
X0204227Y0323300D01*
X0199227Y0323300D01*
X0199227Y0311800D01*
X0199227Y0300300D01*
X0209227Y0300300D01*
X0211727Y0300300D02*
X0216727Y0300300D01*
X0214227Y0319300D02*
X0213227Y0319300D01*
X0277294Y0170461D02*
X0300294Y0170461D01*
X0300294Y0165461D01*
X0296294Y0165461D01*
X0296294Y0164461D01*
X0300294Y0164461D01*
X0300294Y0165461D02*
X0300294Y0140461D01*
X0277294Y0140461D01*
X0277294Y0142961D02*
X0279794Y0142961D01*
X0279794Y0147961D01*
X0277294Y0147961D01*
X0277294Y0152961D01*
X0279794Y0152961D01*
X0279794Y0157961D01*
X0277294Y0157961D01*
X0277294Y0162961D01*
X0277294Y0167961D01*
X0279794Y0167961D01*
X0279794Y0162961D01*
X0277294Y0162961D01*
X0277294Y0167961D02*
X0277294Y0169461D01*
X0277294Y0157961D02*
X0277294Y0152961D01*
X0277294Y0147961D02*
X0277294Y0142961D01*
X0277294Y0127194D02*
X0300294Y0127194D01*
X0300294Y0122194D01*
X0296294Y0122194D01*
X0296294Y0121194D01*
X0300294Y0121194D01*
X0300294Y0122194D02*
X0300294Y0097194D01*
X0277294Y0097194D01*
X0277294Y0099694D02*
X0279794Y0099694D01*
X0279794Y0104694D01*
X0277294Y0104694D01*
X0277294Y0109694D01*
X0279794Y0109694D01*
X0279794Y0114694D01*
X0277294Y0114694D01*
X0277294Y0119694D01*
X0277294Y0124694D01*
X0279794Y0124694D01*
X0279794Y0119694D01*
X0277294Y0119694D01*
X0277294Y0124694D02*
X0277294Y0126194D01*
X0270727Y0126485D02*
X0270727Y0121485D01*
X0266727Y0121485D01*
X0266727Y0120485D01*
X0270727Y0120485D01*
X0270727Y0121485D02*
X0270727Y0096485D01*
X0247727Y0096485D01*
X0247727Y0098985D02*
X0250227Y0098985D01*
X0250227Y0103985D01*
X0247727Y0103985D01*
X0247727Y0108985D01*
X0250227Y0108985D01*
X0250227Y0113985D01*
X0247727Y0113985D01*
X0247727Y0118985D01*
X0247727Y0123985D01*
X0250227Y0123985D01*
X0250227Y0118985D01*
X0247727Y0118985D01*
X0247727Y0123985D02*
X0247727Y0125485D01*
X0247727Y0126485D02*
X0270727Y0126485D01*
X0266727Y0120485D02*
X0266727Y0102485D01*
X0270727Y0102485D01*
X0270727Y0101485D02*
X0266727Y0101485D01*
X0266727Y0102485D01*
X0277294Y0104694D02*
X0277294Y0099694D01*
X0277294Y0109694D02*
X0277294Y0114694D01*
X0296294Y0121194D02*
X0296294Y0103194D01*
X0300294Y0103194D01*
X0300294Y0102194D02*
X0296294Y0102194D01*
X0296294Y0103194D01*
X0300727Y0083060D02*
X0277727Y0083060D01*
X0277727Y0082060D02*
X0277727Y0080560D01*
X0277727Y0075560D01*
X0277727Y0070560D01*
X0280227Y0070560D01*
X0280227Y0065560D01*
X0277727Y0065560D01*
X0277727Y0060560D01*
X0280227Y0060560D01*
X0280227Y0055560D01*
X0277727Y0055560D01*
X0277727Y0060560D01*
X0277727Y0065560D02*
X0277727Y0070560D01*
X0277727Y0075560D02*
X0280227Y0075560D01*
X0280227Y0080560D01*
X0277727Y0080560D01*
X0269231Y0078926D02*
X0265231Y0078926D01*
X0265231Y0077926D01*
X0269231Y0077926D01*
X0269231Y0078926D02*
X0269231Y0053926D01*
X0246231Y0053926D01*
X0246231Y0056426D02*
X0248731Y0056426D01*
X0248731Y0061426D01*
X0246231Y0061426D01*
X0246231Y0066426D01*
X0248731Y0066426D01*
X0248731Y0071426D01*
X0246231Y0071426D01*
X0246231Y0076426D01*
X0246231Y0081426D01*
X0248731Y0081426D01*
X0248731Y0076426D01*
X0246231Y0076426D01*
X0246231Y0071426D02*
X0246231Y0066426D01*
X0246231Y0061426D02*
X0246231Y0056426D01*
X0265231Y0058926D02*
X0269231Y0058926D01*
X0269231Y0059926D02*
X0265231Y0059926D01*
X0265231Y0058926D01*
X0265231Y0059926D02*
X0265231Y0077926D01*
X0269231Y0078926D02*
X0269231Y0083926D01*
X0246231Y0083926D01*
X0246231Y0082926D02*
X0246231Y0081426D01*
X0247727Y0098985D02*
X0247727Y0103985D01*
X0247727Y0108985D02*
X0247727Y0113985D01*
X0296294Y0145461D02*
X0300294Y0145461D01*
X0300294Y0146461D02*
X0296294Y0146461D01*
X0296294Y0145461D01*
X0296294Y0146461D02*
X0296294Y0164461D01*
X0300727Y0083060D02*
X0300727Y0078060D01*
X0296727Y0078060D01*
X0296727Y0077060D01*
X0300727Y0077060D01*
X0300727Y0078060D02*
X0300727Y0053060D01*
X0277727Y0053060D01*
X0277727Y0040186D02*
X0300727Y0040186D01*
X0300727Y0035186D01*
X0296727Y0035186D01*
X0296727Y0034186D01*
X0300727Y0034186D01*
X0300727Y0035186D02*
X0300727Y0010186D01*
X0277727Y0010186D01*
X0277727Y0012686D02*
X0280227Y0012686D01*
X0280227Y0017686D01*
X0277727Y0017686D01*
X0277727Y0022686D01*
X0280227Y0022686D01*
X0280227Y0027686D01*
X0277727Y0027686D01*
X0277727Y0032686D01*
X0277727Y0037686D01*
X0280227Y0037686D01*
X0280227Y0032686D01*
X0277727Y0032686D01*
X0277727Y0027686D02*
X0277727Y0022686D01*
X0277727Y0017686D02*
X0277727Y0012686D01*
X0296727Y0015186D02*
X0300727Y0015186D01*
X0300727Y0016186D02*
X0296727Y0016186D01*
X0296727Y0015186D01*
X0296727Y0016186D02*
X0296727Y0034186D01*
X0277727Y0037686D02*
X0277727Y0039186D01*
X0296727Y0058060D02*
X0300727Y0058060D01*
X0300727Y0059060D02*
X0296727Y0059060D01*
X0296727Y0058060D01*
X0296727Y0059060D02*
X0296727Y0077060D01*
D23*
X0250762Y0021800D02*
X0250764Y0021953D01*
X0250770Y0022107D01*
X0250780Y0022260D01*
X0250794Y0022412D01*
X0250812Y0022565D01*
X0250834Y0022716D01*
X0250859Y0022867D01*
X0250889Y0023018D01*
X0250923Y0023168D01*
X0250960Y0023316D01*
X0251001Y0023464D01*
X0251046Y0023610D01*
X0251095Y0023756D01*
X0251148Y0023900D01*
X0251204Y0024042D01*
X0251264Y0024183D01*
X0251328Y0024323D01*
X0251395Y0024461D01*
X0251466Y0024597D01*
X0251541Y0024731D01*
X0251618Y0024863D01*
X0251700Y0024993D01*
X0251784Y0025121D01*
X0251872Y0025247D01*
X0251963Y0025370D01*
X0252057Y0025491D01*
X0252155Y0025609D01*
X0252255Y0025725D01*
X0252359Y0025838D01*
X0252465Y0025949D01*
X0252574Y0026057D01*
X0252686Y0026162D01*
X0252800Y0026263D01*
X0252918Y0026362D01*
X0253037Y0026458D01*
X0253159Y0026551D01*
X0253284Y0026640D01*
X0253411Y0026727D01*
X0253540Y0026809D01*
X0253671Y0026889D01*
X0253804Y0026965D01*
X0253939Y0027038D01*
X0254076Y0027107D01*
X0254215Y0027172D01*
X0254355Y0027234D01*
X0254497Y0027292D01*
X0254640Y0027347D01*
X0254785Y0027398D01*
X0254931Y0027445D01*
X0255078Y0027488D01*
X0255226Y0027527D01*
X0255375Y0027563D01*
X0255525Y0027594D01*
X0255676Y0027622D01*
X0255827Y0027646D01*
X0255980Y0027666D01*
X0256132Y0027682D01*
X0256285Y0027694D01*
X0256438Y0027702D01*
X0256591Y0027706D01*
X0256745Y0027706D01*
X0256898Y0027702D01*
X0257051Y0027694D01*
X0257204Y0027682D01*
X0257356Y0027666D01*
X0257509Y0027646D01*
X0257660Y0027622D01*
X0257811Y0027594D01*
X0257961Y0027563D01*
X0258110Y0027527D01*
X0258258Y0027488D01*
X0258405Y0027445D01*
X0258551Y0027398D01*
X0258696Y0027347D01*
X0258839Y0027292D01*
X0258981Y0027234D01*
X0259121Y0027172D01*
X0259260Y0027107D01*
X0259397Y0027038D01*
X0259532Y0026965D01*
X0259665Y0026889D01*
X0259796Y0026809D01*
X0259925Y0026727D01*
X0260052Y0026640D01*
X0260177Y0026551D01*
X0260299Y0026458D01*
X0260418Y0026362D01*
X0260536Y0026263D01*
X0260650Y0026162D01*
X0260762Y0026057D01*
X0260871Y0025949D01*
X0260977Y0025838D01*
X0261081Y0025725D01*
X0261181Y0025609D01*
X0261279Y0025491D01*
X0261373Y0025370D01*
X0261464Y0025247D01*
X0261552Y0025121D01*
X0261636Y0024993D01*
X0261718Y0024863D01*
X0261795Y0024731D01*
X0261870Y0024597D01*
X0261941Y0024461D01*
X0262008Y0024323D01*
X0262072Y0024183D01*
X0262132Y0024042D01*
X0262188Y0023900D01*
X0262241Y0023756D01*
X0262290Y0023610D01*
X0262335Y0023464D01*
X0262376Y0023316D01*
X0262413Y0023168D01*
X0262447Y0023018D01*
X0262477Y0022867D01*
X0262502Y0022716D01*
X0262524Y0022565D01*
X0262542Y0022412D01*
X0262556Y0022260D01*
X0262566Y0022107D01*
X0262572Y0021953D01*
X0262574Y0021800D01*
X0262572Y0021647D01*
X0262566Y0021493D01*
X0262556Y0021340D01*
X0262542Y0021188D01*
X0262524Y0021035D01*
X0262502Y0020884D01*
X0262477Y0020733D01*
X0262447Y0020582D01*
X0262413Y0020432D01*
X0262376Y0020284D01*
X0262335Y0020136D01*
X0262290Y0019990D01*
X0262241Y0019844D01*
X0262188Y0019700D01*
X0262132Y0019558D01*
X0262072Y0019417D01*
X0262008Y0019277D01*
X0261941Y0019139D01*
X0261870Y0019003D01*
X0261795Y0018869D01*
X0261718Y0018737D01*
X0261636Y0018607D01*
X0261552Y0018479D01*
X0261464Y0018353D01*
X0261373Y0018230D01*
X0261279Y0018109D01*
X0261181Y0017991D01*
X0261081Y0017875D01*
X0260977Y0017762D01*
X0260871Y0017651D01*
X0260762Y0017543D01*
X0260650Y0017438D01*
X0260536Y0017337D01*
X0260418Y0017238D01*
X0260299Y0017142D01*
X0260177Y0017049D01*
X0260052Y0016960D01*
X0259925Y0016873D01*
X0259796Y0016791D01*
X0259665Y0016711D01*
X0259532Y0016635D01*
X0259397Y0016562D01*
X0259260Y0016493D01*
X0259121Y0016428D01*
X0258981Y0016366D01*
X0258839Y0016308D01*
X0258696Y0016253D01*
X0258551Y0016202D01*
X0258405Y0016155D01*
X0258258Y0016112D01*
X0258110Y0016073D01*
X0257961Y0016037D01*
X0257811Y0016006D01*
X0257660Y0015978D01*
X0257509Y0015954D01*
X0257356Y0015934D01*
X0257204Y0015918D01*
X0257051Y0015906D01*
X0256898Y0015898D01*
X0256745Y0015894D01*
X0256591Y0015894D01*
X0256438Y0015898D01*
X0256285Y0015906D01*
X0256132Y0015918D01*
X0255980Y0015934D01*
X0255827Y0015954D01*
X0255676Y0015978D01*
X0255525Y0016006D01*
X0255375Y0016037D01*
X0255226Y0016073D01*
X0255078Y0016112D01*
X0254931Y0016155D01*
X0254785Y0016202D01*
X0254640Y0016253D01*
X0254497Y0016308D01*
X0254355Y0016366D01*
X0254215Y0016428D01*
X0254076Y0016493D01*
X0253939Y0016562D01*
X0253804Y0016635D01*
X0253671Y0016711D01*
X0253540Y0016791D01*
X0253411Y0016873D01*
X0253284Y0016960D01*
X0253159Y0017049D01*
X0253037Y0017142D01*
X0252918Y0017238D01*
X0252800Y0017337D01*
X0252686Y0017438D01*
X0252574Y0017543D01*
X0252465Y0017651D01*
X0252359Y0017762D01*
X0252255Y0017875D01*
X0252155Y0017991D01*
X0252057Y0018109D01*
X0251963Y0018230D01*
X0251872Y0018353D01*
X0251784Y0018479D01*
X0251700Y0018607D01*
X0251618Y0018737D01*
X0251541Y0018869D01*
X0251466Y0019003D01*
X0251395Y0019139D01*
X0251328Y0019277D01*
X0251264Y0019417D01*
X0251204Y0019558D01*
X0251148Y0019700D01*
X0251095Y0019844D01*
X0251046Y0019990D01*
X0251001Y0020136D01*
X0250960Y0020284D01*
X0250923Y0020432D01*
X0250889Y0020582D01*
X0250859Y0020733D01*
X0250834Y0020884D01*
X0250812Y0021035D01*
X0250794Y0021188D01*
X0250780Y0021340D01*
X0250770Y0021493D01*
X0250764Y0021647D01*
X0250762Y0021800D01*
X0242456Y0034753D02*
X0232613Y0034753D01*
X0232613Y0115461D01*
X0242456Y0115461D01*
X0242456Y0034753D01*
X0155842Y0034753D02*
X0155842Y0115461D01*
X0145999Y0115461D01*
X0145999Y0034753D01*
X0155842Y0034753D01*
X0139227Y0006800D02*
X0109227Y0006800D01*
X0109227Y0011800D01*
X0099227Y0011800D01*
X0099227Y0006800D01*
X0069227Y0006800D01*
X0069227Y0146800D01*
X0139227Y0146800D01*
X0139227Y0006800D01*
X0045880Y0021800D02*
X0045882Y0021953D01*
X0045888Y0022107D01*
X0045898Y0022260D01*
X0045912Y0022412D01*
X0045930Y0022565D01*
X0045952Y0022716D01*
X0045977Y0022867D01*
X0046007Y0023018D01*
X0046041Y0023168D01*
X0046078Y0023316D01*
X0046119Y0023464D01*
X0046164Y0023610D01*
X0046213Y0023756D01*
X0046266Y0023900D01*
X0046322Y0024042D01*
X0046382Y0024183D01*
X0046446Y0024323D01*
X0046513Y0024461D01*
X0046584Y0024597D01*
X0046659Y0024731D01*
X0046736Y0024863D01*
X0046818Y0024993D01*
X0046902Y0025121D01*
X0046990Y0025247D01*
X0047081Y0025370D01*
X0047175Y0025491D01*
X0047273Y0025609D01*
X0047373Y0025725D01*
X0047477Y0025838D01*
X0047583Y0025949D01*
X0047692Y0026057D01*
X0047804Y0026162D01*
X0047918Y0026263D01*
X0048036Y0026362D01*
X0048155Y0026458D01*
X0048277Y0026551D01*
X0048402Y0026640D01*
X0048529Y0026727D01*
X0048658Y0026809D01*
X0048789Y0026889D01*
X0048922Y0026965D01*
X0049057Y0027038D01*
X0049194Y0027107D01*
X0049333Y0027172D01*
X0049473Y0027234D01*
X0049615Y0027292D01*
X0049758Y0027347D01*
X0049903Y0027398D01*
X0050049Y0027445D01*
X0050196Y0027488D01*
X0050344Y0027527D01*
X0050493Y0027563D01*
X0050643Y0027594D01*
X0050794Y0027622D01*
X0050945Y0027646D01*
X0051098Y0027666D01*
X0051250Y0027682D01*
X0051403Y0027694D01*
X0051556Y0027702D01*
X0051709Y0027706D01*
X0051863Y0027706D01*
X0052016Y0027702D01*
X0052169Y0027694D01*
X0052322Y0027682D01*
X0052474Y0027666D01*
X0052627Y0027646D01*
X0052778Y0027622D01*
X0052929Y0027594D01*
X0053079Y0027563D01*
X0053228Y0027527D01*
X0053376Y0027488D01*
X0053523Y0027445D01*
X0053669Y0027398D01*
X0053814Y0027347D01*
X0053957Y0027292D01*
X0054099Y0027234D01*
X0054239Y0027172D01*
X0054378Y0027107D01*
X0054515Y0027038D01*
X0054650Y0026965D01*
X0054783Y0026889D01*
X0054914Y0026809D01*
X0055043Y0026727D01*
X0055170Y0026640D01*
X0055295Y0026551D01*
X0055417Y0026458D01*
X0055536Y0026362D01*
X0055654Y0026263D01*
X0055768Y0026162D01*
X0055880Y0026057D01*
X0055989Y0025949D01*
X0056095Y0025838D01*
X0056199Y0025725D01*
X0056299Y0025609D01*
X0056397Y0025491D01*
X0056491Y0025370D01*
X0056582Y0025247D01*
X0056670Y0025121D01*
X0056754Y0024993D01*
X0056836Y0024863D01*
X0056913Y0024731D01*
X0056988Y0024597D01*
X0057059Y0024461D01*
X0057126Y0024323D01*
X0057190Y0024183D01*
X0057250Y0024042D01*
X0057306Y0023900D01*
X0057359Y0023756D01*
X0057408Y0023610D01*
X0057453Y0023464D01*
X0057494Y0023316D01*
X0057531Y0023168D01*
X0057565Y0023018D01*
X0057595Y0022867D01*
X0057620Y0022716D01*
X0057642Y0022565D01*
X0057660Y0022412D01*
X0057674Y0022260D01*
X0057684Y0022107D01*
X0057690Y0021953D01*
X0057692Y0021800D01*
X0057690Y0021647D01*
X0057684Y0021493D01*
X0057674Y0021340D01*
X0057660Y0021188D01*
X0057642Y0021035D01*
X0057620Y0020884D01*
X0057595Y0020733D01*
X0057565Y0020582D01*
X0057531Y0020432D01*
X0057494Y0020284D01*
X0057453Y0020136D01*
X0057408Y0019990D01*
X0057359Y0019844D01*
X0057306Y0019700D01*
X0057250Y0019558D01*
X0057190Y0019417D01*
X0057126Y0019277D01*
X0057059Y0019139D01*
X0056988Y0019003D01*
X0056913Y0018869D01*
X0056836Y0018737D01*
X0056754Y0018607D01*
X0056670Y0018479D01*
X0056582Y0018353D01*
X0056491Y0018230D01*
X0056397Y0018109D01*
X0056299Y0017991D01*
X0056199Y0017875D01*
X0056095Y0017762D01*
X0055989Y0017651D01*
X0055880Y0017543D01*
X0055768Y0017438D01*
X0055654Y0017337D01*
X0055536Y0017238D01*
X0055417Y0017142D01*
X0055295Y0017049D01*
X0055170Y0016960D01*
X0055043Y0016873D01*
X0054914Y0016791D01*
X0054783Y0016711D01*
X0054650Y0016635D01*
X0054515Y0016562D01*
X0054378Y0016493D01*
X0054239Y0016428D01*
X0054099Y0016366D01*
X0053957Y0016308D01*
X0053814Y0016253D01*
X0053669Y0016202D01*
X0053523Y0016155D01*
X0053376Y0016112D01*
X0053228Y0016073D01*
X0053079Y0016037D01*
X0052929Y0016006D01*
X0052778Y0015978D01*
X0052627Y0015954D01*
X0052474Y0015934D01*
X0052322Y0015918D01*
X0052169Y0015906D01*
X0052016Y0015898D01*
X0051863Y0015894D01*
X0051709Y0015894D01*
X0051556Y0015898D01*
X0051403Y0015906D01*
X0051250Y0015918D01*
X0051098Y0015934D01*
X0050945Y0015954D01*
X0050794Y0015978D01*
X0050643Y0016006D01*
X0050493Y0016037D01*
X0050344Y0016073D01*
X0050196Y0016112D01*
X0050049Y0016155D01*
X0049903Y0016202D01*
X0049758Y0016253D01*
X0049615Y0016308D01*
X0049473Y0016366D01*
X0049333Y0016428D01*
X0049194Y0016493D01*
X0049057Y0016562D01*
X0048922Y0016635D01*
X0048789Y0016711D01*
X0048658Y0016791D01*
X0048529Y0016873D01*
X0048402Y0016960D01*
X0048277Y0017049D01*
X0048155Y0017142D01*
X0048036Y0017238D01*
X0047918Y0017337D01*
X0047804Y0017438D01*
X0047692Y0017543D01*
X0047583Y0017651D01*
X0047477Y0017762D01*
X0047373Y0017875D01*
X0047273Y0017991D01*
X0047175Y0018109D01*
X0047081Y0018230D01*
X0046990Y0018353D01*
X0046902Y0018479D01*
X0046818Y0018607D01*
X0046736Y0018737D01*
X0046659Y0018869D01*
X0046584Y0019003D01*
X0046513Y0019139D01*
X0046446Y0019277D01*
X0046382Y0019417D01*
X0046322Y0019558D01*
X0046266Y0019700D01*
X0046213Y0019844D01*
X0046164Y0019990D01*
X0046119Y0020136D01*
X0046078Y0020284D01*
X0046041Y0020432D01*
X0046007Y0020582D01*
X0045977Y0020733D01*
X0045952Y0020884D01*
X0045930Y0021035D01*
X0045912Y0021188D01*
X0045898Y0021340D01*
X0045888Y0021493D01*
X0045882Y0021647D01*
X0045880Y0021800D01*
X0173368Y0146249D02*
X0174127Y0147409D01*
X0174227Y0147469D02*
X0175148Y0146249D01*
X0176038Y0147469D02*
X0174227Y0147469D01*
X0172416Y0147469D01*
X0182416Y0147469D02*
X0184227Y0147469D01*
X0185148Y0146249D01*
X0186038Y0147469D02*
X0184227Y0147469D01*
X0184127Y0147409D02*
X0183368Y0146249D01*
X0192416Y0147469D02*
X0194227Y0147469D01*
X0195148Y0146249D01*
X0196038Y0147469D02*
X0194227Y0147469D01*
X0194127Y0147409D02*
X0193368Y0146249D01*
X0202416Y0147469D02*
X0204227Y0147469D01*
X0205148Y0146249D01*
X0206038Y0147469D02*
X0204227Y0147469D01*
X0204127Y0147409D02*
X0203368Y0146249D01*
X0212416Y0147469D02*
X0214227Y0147469D01*
X0215148Y0146249D01*
X0216038Y0147469D02*
X0214227Y0147469D01*
X0214127Y0147409D02*
X0213368Y0146249D01*
X0246825Y0320737D02*
X0246827Y0320890D01*
X0246833Y0321044D01*
X0246843Y0321197D01*
X0246857Y0321349D01*
X0246875Y0321502D01*
X0246897Y0321653D01*
X0246922Y0321804D01*
X0246952Y0321955D01*
X0246986Y0322105D01*
X0247023Y0322253D01*
X0247064Y0322401D01*
X0247109Y0322547D01*
X0247158Y0322693D01*
X0247211Y0322837D01*
X0247267Y0322979D01*
X0247327Y0323120D01*
X0247391Y0323260D01*
X0247458Y0323398D01*
X0247529Y0323534D01*
X0247604Y0323668D01*
X0247681Y0323800D01*
X0247763Y0323930D01*
X0247847Y0324058D01*
X0247935Y0324184D01*
X0248026Y0324307D01*
X0248120Y0324428D01*
X0248218Y0324546D01*
X0248318Y0324662D01*
X0248422Y0324775D01*
X0248528Y0324886D01*
X0248637Y0324994D01*
X0248749Y0325099D01*
X0248863Y0325200D01*
X0248981Y0325299D01*
X0249100Y0325395D01*
X0249222Y0325488D01*
X0249347Y0325577D01*
X0249474Y0325664D01*
X0249603Y0325746D01*
X0249734Y0325826D01*
X0249867Y0325902D01*
X0250002Y0325975D01*
X0250139Y0326044D01*
X0250278Y0326109D01*
X0250418Y0326171D01*
X0250560Y0326229D01*
X0250703Y0326284D01*
X0250848Y0326335D01*
X0250994Y0326382D01*
X0251141Y0326425D01*
X0251289Y0326464D01*
X0251438Y0326500D01*
X0251588Y0326531D01*
X0251739Y0326559D01*
X0251890Y0326583D01*
X0252043Y0326603D01*
X0252195Y0326619D01*
X0252348Y0326631D01*
X0252501Y0326639D01*
X0252654Y0326643D01*
X0252808Y0326643D01*
X0252961Y0326639D01*
X0253114Y0326631D01*
X0253267Y0326619D01*
X0253419Y0326603D01*
X0253572Y0326583D01*
X0253723Y0326559D01*
X0253874Y0326531D01*
X0254024Y0326500D01*
X0254173Y0326464D01*
X0254321Y0326425D01*
X0254468Y0326382D01*
X0254614Y0326335D01*
X0254759Y0326284D01*
X0254902Y0326229D01*
X0255044Y0326171D01*
X0255184Y0326109D01*
X0255323Y0326044D01*
X0255460Y0325975D01*
X0255595Y0325902D01*
X0255728Y0325826D01*
X0255859Y0325746D01*
X0255988Y0325664D01*
X0256115Y0325577D01*
X0256240Y0325488D01*
X0256362Y0325395D01*
X0256481Y0325299D01*
X0256599Y0325200D01*
X0256713Y0325099D01*
X0256825Y0324994D01*
X0256934Y0324886D01*
X0257040Y0324775D01*
X0257144Y0324662D01*
X0257244Y0324546D01*
X0257342Y0324428D01*
X0257436Y0324307D01*
X0257527Y0324184D01*
X0257615Y0324058D01*
X0257699Y0323930D01*
X0257781Y0323800D01*
X0257858Y0323668D01*
X0257933Y0323534D01*
X0258004Y0323398D01*
X0258071Y0323260D01*
X0258135Y0323120D01*
X0258195Y0322979D01*
X0258251Y0322837D01*
X0258304Y0322693D01*
X0258353Y0322547D01*
X0258398Y0322401D01*
X0258439Y0322253D01*
X0258476Y0322105D01*
X0258510Y0321955D01*
X0258540Y0321804D01*
X0258565Y0321653D01*
X0258587Y0321502D01*
X0258605Y0321349D01*
X0258619Y0321197D01*
X0258629Y0321044D01*
X0258635Y0320890D01*
X0258637Y0320737D01*
X0258635Y0320584D01*
X0258629Y0320430D01*
X0258619Y0320277D01*
X0258605Y0320125D01*
X0258587Y0319972D01*
X0258565Y0319821D01*
X0258540Y0319670D01*
X0258510Y0319519D01*
X0258476Y0319369D01*
X0258439Y0319221D01*
X0258398Y0319073D01*
X0258353Y0318927D01*
X0258304Y0318781D01*
X0258251Y0318637D01*
X0258195Y0318495D01*
X0258135Y0318354D01*
X0258071Y0318214D01*
X0258004Y0318076D01*
X0257933Y0317940D01*
X0257858Y0317806D01*
X0257781Y0317674D01*
X0257699Y0317544D01*
X0257615Y0317416D01*
X0257527Y0317290D01*
X0257436Y0317167D01*
X0257342Y0317046D01*
X0257244Y0316928D01*
X0257144Y0316812D01*
X0257040Y0316699D01*
X0256934Y0316588D01*
X0256825Y0316480D01*
X0256713Y0316375D01*
X0256599Y0316274D01*
X0256481Y0316175D01*
X0256362Y0316079D01*
X0256240Y0315986D01*
X0256115Y0315897D01*
X0255988Y0315810D01*
X0255859Y0315728D01*
X0255728Y0315648D01*
X0255595Y0315572D01*
X0255460Y0315499D01*
X0255323Y0315430D01*
X0255184Y0315365D01*
X0255044Y0315303D01*
X0254902Y0315245D01*
X0254759Y0315190D01*
X0254614Y0315139D01*
X0254468Y0315092D01*
X0254321Y0315049D01*
X0254173Y0315010D01*
X0254024Y0314974D01*
X0253874Y0314943D01*
X0253723Y0314915D01*
X0253572Y0314891D01*
X0253419Y0314871D01*
X0253267Y0314855D01*
X0253114Y0314843D01*
X0252961Y0314835D01*
X0252808Y0314831D01*
X0252654Y0314831D01*
X0252501Y0314835D01*
X0252348Y0314843D01*
X0252195Y0314855D01*
X0252043Y0314871D01*
X0251890Y0314891D01*
X0251739Y0314915D01*
X0251588Y0314943D01*
X0251438Y0314974D01*
X0251289Y0315010D01*
X0251141Y0315049D01*
X0250994Y0315092D01*
X0250848Y0315139D01*
X0250703Y0315190D01*
X0250560Y0315245D01*
X0250418Y0315303D01*
X0250278Y0315365D01*
X0250139Y0315430D01*
X0250002Y0315499D01*
X0249867Y0315572D01*
X0249734Y0315648D01*
X0249603Y0315728D01*
X0249474Y0315810D01*
X0249347Y0315897D01*
X0249222Y0315986D01*
X0249100Y0316079D01*
X0248981Y0316175D01*
X0248863Y0316274D01*
X0248749Y0316375D01*
X0248637Y0316480D01*
X0248528Y0316588D01*
X0248422Y0316699D01*
X0248318Y0316812D01*
X0248218Y0316928D01*
X0248120Y0317046D01*
X0248026Y0317167D01*
X0247935Y0317290D01*
X0247847Y0317416D01*
X0247763Y0317544D01*
X0247681Y0317674D01*
X0247604Y0317806D01*
X0247529Y0317940D01*
X0247458Y0318076D01*
X0247391Y0318214D01*
X0247327Y0318354D01*
X0247267Y0318495D01*
X0247211Y0318637D01*
X0247158Y0318781D01*
X0247109Y0318927D01*
X0247064Y0319073D01*
X0247023Y0319221D01*
X0246986Y0319369D01*
X0246952Y0319519D01*
X0246922Y0319670D01*
X0246897Y0319821D01*
X0246875Y0319972D01*
X0246857Y0320125D01*
X0246843Y0320277D01*
X0246833Y0320430D01*
X0246827Y0320584D01*
X0246825Y0320737D01*
X0045880Y0320737D02*
X0045882Y0320890D01*
X0045888Y0321044D01*
X0045898Y0321197D01*
X0045912Y0321349D01*
X0045930Y0321502D01*
X0045952Y0321653D01*
X0045977Y0321804D01*
X0046007Y0321955D01*
X0046041Y0322105D01*
X0046078Y0322253D01*
X0046119Y0322401D01*
X0046164Y0322547D01*
X0046213Y0322693D01*
X0046266Y0322837D01*
X0046322Y0322979D01*
X0046382Y0323120D01*
X0046446Y0323260D01*
X0046513Y0323398D01*
X0046584Y0323534D01*
X0046659Y0323668D01*
X0046736Y0323800D01*
X0046818Y0323930D01*
X0046902Y0324058D01*
X0046990Y0324184D01*
X0047081Y0324307D01*
X0047175Y0324428D01*
X0047273Y0324546D01*
X0047373Y0324662D01*
X0047477Y0324775D01*
X0047583Y0324886D01*
X0047692Y0324994D01*
X0047804Y0325099D01*
X0047918Y0325200D01*
X0048036Y0325299D01*
X0048155Y0325395D01*
X0048277Y0325488D01*
X0048402Y0325577D01*
X0048529Y0325664D01*
X0048658Y0325746D01*
X0048789Y0325826D01*
X0048922Y0325902D01*
X0049057Y0325975D01*
X0049194Y0326044D01*
X0049333Y0326109D01*
X0049473Y0326171D01*
X0049615Y0326229D01*
X0049758Y0326284D01*
X0049903Y0326335D01*
X0050049Y0326382D01*
X0050196Y0326425D01*
X0050344Y0326464D01*
X0050493Y0326500D01*
X0050643Y0326531D01*
X0050794Y0326559D01*
X0050945Y0326583D01*
X0051098Y0326603D01*
X0051250Y0326619D01*
X0051403Y0326631D01*
X0051556Y0326639D01*
X0051709Y0326643D01*
X0051863Y0326643D01*
X0052016Y0326639D01*
X0052169Y0326631D01*
X0052322Y0326619D01*
X0052474Y0326603D01*
X0052627Y0326583D01*
X0052778Y0326559D01*
X0052929Y0326531D01*
X0053079Y0326500D01*
X0053228Y0326464D01*
X0053376Y0326425D01*
X0053523Y0326382D01*
X0053669Y0326335D01*
X0053814Y0326284D01*
X0053957Y0326229D01*
X0054099Y0326171D01*
X0054239Y0326109D01*
X0054378Y0326044D01*
X0054515Y0325975D01*
X0054650Y0325902D01*
X0054783Y0325826D01*
X0054914Y0325746D01*
X0055043Y0325664D01*
X0055170Y0325577D01*
X0055295Y0325488D01*
X0055417Y0325395D01*
X0055536Y0325299D01*
X0055654Y0325200D01*
X0055768Y0325099D01*
X0055880Y0324994D01*
X0055989Y0324886D01*
X0056095Y0324775D01*
X0056199Y0324662D01*
X0056299Y0324546D01*
X0056397Y0324428D01*
X0056491Y0324307D01*
X0056582Y0324184D01*
X0056670Y0324058D01*
X0056754Y0323930D01*
X0056836Y0323800D01*
X0056913Y0323668D01*
X0056988Y0323534D01*
X0057059Y0323398D01*
X0057126Y0323260D01*
X0057190Y0323120D01*
X0057250Y0322979D01*
X0057306Y0322837D01*
X0057359Y0322693D01*
X0057408Y0322547D01*
X0057453Y0322401D01*
X0057494Y0322253D01*
X0057531Y0322105D01*
X0057565Y0321955D01*
X0057595Y0321804D01*
X0057620Y0321653D01*
X0057642Y0321502D01*
X0057660Y0321349D01*
X0057674Y0321197D01*
X0057684Y0321044D01*
X0057690Y0320890D01*
X0057692Y0320737D01*
X0057690Y0320584D01*
X0057684Y0320430D01*
X0057674Y0320277D01*
X0057660Y0320125D01*
X0057642Y0319972D01*
X0057620Y0319821D01*
X0057595Y0319670D01*
X0057565Y0319519D01*
X0057531Y0319369D01*
X0057494Y0319221D01*
X0057453Y0319073D01*
X0057408Y0318927D01*
X0057359Y0318781D01*
X0057306Y0318637D01*
X0057250Y0318495D01*
X0057190Y0318354D01*
X0057126Y0318214D01*
X0057059Y0318076D01*
X0056988Y0317940D01*
X0056913Y0317806D01*
X0056836Y0317674D01*
X0056754Y0317544D01*
X0056670Y0317416D01*
X0056582Y0317290D01*
X0056491Y0317167D01*
X0056397Y0317046D01*
X0056299Y0316928D01*
X0056199Y0316812D01*
X0056095Y0316699D01*
X0055989Y0316588D01*
X0055880Y0316480D01*
X0055768Y0316375D01*
X0055654Y0316274D01*
X0055536Y0316175D01*
X0055417Y0316079D01*
X0055295Y0315986D01*
X0055170Y0315897D01*
X0055043Y0315810D01*
X0054914Y0315728D01*
X0054783Y0315648D01*
X0054650Y0315572D01*
X0054515Y0315499D01*
X0054378Y0315430D01*
X0054239Y0315365D01*
X0054099Y0315303D01*
X0053957Y0315245D01*
X0053814Y0315190D01*
X0053669Y0315139D01*
X0053523Y0315092D01*
X0053376Y0315049D01*
X0053228Y0315010D01*
X0053079Y0314974D01*
X0052929Y0314943D01*
X0052778Y0314915D01*
X0052627Y0314891D01*
X0052474Y0314871D01*
X0052322Y0314855D01*
X0052169Y0314843D01*
X0052016Y0314835D01*
X0051863Y0314831D01*
X0051709Y0314831D01*
X0051556Y0314835D01*
X0051403Y0314843D01*
X0051250Y0314855D01*
X0051098Y0314871D01*
X0050945Y0314891D01*
X0050794Y0314915D01*
X0050643Y0314943D01*
X0050493Y0314974D01*
X0050344Y0315010D01*
X0050196Y0315049D01*
X0050049Y0315092D01*
X0049903Y0315139D01*
X0049758Y0315190D01*
X0049615Y0315245D01*
X0049473Y0315303D01*
X0049333Y0315365D01*
X0049194Y0315430D01*
X0049057Y0315499D01*
X0048922Y0315572D01*
X0048789Y0315648D01*
X0048658Y0315728D01*
X0048529Y0315810D01*
X0048402Y0315897D01*
X0048277Y0315986D01*
X0048155Y0316079D01*
X0048036Y0316175D01*
X0047918Y0316274D01*
X0047804Y0316375D01*
X0047692Y0316480D01*
X0047583Y0316588D01*
X0047477Y0316699D01*
X0047373Y0316812D01*
X0047273Y0316928D01*
X0047175Y0317046D01*
X0047081Y0317167D01*
X0046990Y0317290D01*
X0046902Y0317416D01*
X0046818Y0317544D01*
X0046736Y0317674D01*
X0046659Y0317806D01*
X0046584Y0317940D01*
X0046513Y0318076D01*
X0046446Y0318214D01*
X0046382Y0318354D01*
X0046322Y0318495D01*
X0046266Y0318637D01*
X0046213Y0318781D01*
X0046164Y0318927D01*
X0046119Y0319073D01*
X0046078Y0319221D01*
X0046041Y0319369D01*
X0046007Y0319519D01*
X0045977Y0319670D01*
X0045952Y0319821D01*
X0045930Y0319972D01*
X0045912Y0320125D01*
X0045898Y0320277D01*
X0045888Y0320430D01*
X0045882Y0320584D01*
X0045880Y0320737D01*
D24*
X0169926Y0148270D02*
X0171427Y0148270D01*
X0171427Y0147770D02*
X0171427Y0148771D01*
X0170427Y0147770D02*
X0169926Y0148270D01*
X0170176Y0147297D02*
X0169926Y0147047D01*
X0169926Y0146297D01*
X0171427Y0146297D01*
X0171427Y0147047D01*
X0171177Y0147297D01*
X0170176Y0147297D01*
X0169926Y0145824D02*
X0169926Y0144823D01*
X0171427Y0144823D01*
X0171427Y0145824D01*
X0170677Y0145324D02*
X0170677Y0144823D01*
X0171427Y0144351D02*
X0171427Y0143350D01*
X0169926Y0143350D01*
X0179926Y0143350D02*
X0181427Y0143350D01*
X0181427Y0144351D01*
X0181427Y0144823D02*
X0181427Y0145824D01*
X0181427Y0146297D02*
X0179926Y0146297D01*
X0179926Y0147047D01*
X0180176Y0147297D01*
X0181177Y0147297D01*
X0181427Y0147047D01*
X0181427Y0146297D01*
X0180677Y0145324D02*
X0180677Y0144823D01*
X0181427Y0144823D02*
X0179926Y0144823D01*
X0179926Y0145824D01*
X0180176Y0147770D02*
X0179926Y0148020D01*
X0179926Y0148520D01*
X0180176Y0148771D01*
X0180427Y0148771D01*
X0181427Y0147770D01*
X0181427Y0148771D01*
X0189926Y0148520D02*
X0190176Y0148771D01*
X0190427Y0148771D01*
X0190677Y0148520D01*
X0190927Y0148771D01*
X0191177Y0148771D01*
X0191427Y0148520D01*
X0191427Y0148020D01*
X0191177Y0147770D01*
X0191177Y0147297D02*
X0190176Y0147297D01*
X0189926Y0147047D01*
X0189926Y0146297D01*
X0191427Y0146297D01*
X0191427Y0147047D01*
X0191177Y0147297D01*
X0190677Y0148270D02*
X0190677Y0148520D01*
X0189926Y0148520D02*
X0189926Y0148020D01*
X0190176Y0147770D01*
X0189926Y0145824D02*
X0189926Y0144823D01*
X0191427Y0144823D01*
X0191427Y0145824D01*
X0190677Y0145324D02*
X0190677Y0144823D01*
X0191427Y0144351D02*
X0191427Y0143350D01*
X0189926Y0143350D01*
X0199926Y0143350D02*
X0201427Y0143350D01*
X0201427Y0144351D01*
X0201427Y0144823D02*
X0201427Y0145824D01*
X0201427Y0146297D02*
X0201427Y0147047D01*
X0201177Y0147297D01*
X0200176Y0147297D01*
X0199926Y0147047D01*
X0199926Y0146297D01*
X0201427Y0146297D01*
X0200677Y0145324D02*
X0200677Y0144823D01*
X0201427Y0144823D02*
X0199926Y0144823D01*
X0199926Y0145824D01*
X0200677Y0147770D02*
X0200677Y0148771D01*
X0201427Y0148520D02*
X0199926Y0148520D01*
X0200677Y0147770D01*
X0209926Y0147770D02*
X0210677Y0147770D01*
X0210427Y0148270D01*
X0210427Y0148520D01*
X0210677Y0148771D01*
X0211177Y0148771D01*
X0211427Y0148520D01*
X0211427Y0148020D01*
X0211177Y0147770D01*
X0211177Y0147297D02*
X0210176Y0147297D01*
X0209926Y0147047D01*
X0209926Y0146297D01*
X0211427Y0146297D01*
X0211427Y0147047D01*
X0211177Y0147297D01*
X0209926Y0147770D02*
X0209926Y0148771D01*
X0209926Y0145824D02*
X0209926Y0144823D01*
X0211427Y0144823D01*
X0211427Y0145824D01*
X0210677Y0145324D02*
X0210677Y0144823D01*
X0211427Y0144351D02*
X0211427Y0143350D01*
X0209926Y0143350D01*
X0208777Y0134878D02*
X0208777Y0133877D01*
X0208777Y0133404D02*
X0208277Y0132904D01*
X0208277Y0133154D02*
X0208277Y0132403D01*
X0208777Y0132403D02*
X0207276Y0132403D01*
X0207276Y0133154D01*
X0207526Y0133404D01*
X0208027Y0133404D01*
X0208277Y0133154D01*
X0207777Y0133877D02*
X0207276Y0134377D01*
X0208777Y0134377D01*
X0209676Y0130574D02*
X0210427Y0129823D01*
X0210427Y0130824D01*
X0211177Y0130574D02*
X0209676Y0130574D01*
X0209926Y0129351D02*
X0210427Y0129351D01*
X0210677Y0129101D01*
X0210677Y0128350D01*
X0210677Y0128850D02*
X0211177Y0129351D01*
X0211177Y0128350D02*
X0209676Y0128350D01*
X0209676Y0129101D01*
X0209926Y0129351D01*
X0198777Y0132403D02*
X0197276Y0132403D01*
X0197276Y0133154D01*
X0197526Y0133404D01*
X0198027Y0133404D01*
X0198277Y0133154D01*
X0198277Y0132403D01*
X0198277Y0132904D02*
X0198777Y0133404D01*
X0198527Y0133877D02*
X0198777Y0134127D01*
X0198777Y0134627D01*
X0198527Y0134878D01*
X0198277Y0134878D01*
X0198027Y0134627D01*
X0198027Y0134377D01*
X0198027Y0134627D02*
X0197777Y0134878D01*
X0197526Y0134878D01*
X0197276Y0134627D01*
X0197276Y0134127D01*
X0197526Y0133877D01*
X0181177Y0132297D02*
X0181177Y0131297D01*
X0181177Y0130824D02*
X0181177Y0129823D01*
X0181177Y0129351D02*
X0180677Y0128850D01*
X0180677Y0129101D02*
X0180677Y0128350D01*
X0181177Y0128350D02*
X0179676Y0128350D01*
X0179676Y0129101D01*
X0179926Y0129351D01*
X0180427Y0129351D01*
X0180677Y0129101D01*
X0180177Y0129823D02*
X0179676Y0130324D01*
X0181177Y0130324D01*
X0180177Y0131297D02*
X0179676Y0131797D01*
X0181177Y0131797D01*
X0171177Y0130824D02*
X0171177Y0129823D01*
X0170177Y0130824D01*
X0169926Y0130824D01*
X0169676Y0130574D01*
X0169676Y0130073D01*
X0169926Y0129823D01*
X0169926Y0129351D02*
X0170427Y0129351D01*
X0170677Y0129101D01*
X0170677Y0128350D01*
X0170677Y0128850D02*
X0171177Y0129351D01*
X0171177Y0128350D02*
X0169676Y0128350D01*
X0169676Y0129101D01*
X0169926Y0129351D01*
X0162724Y0043351D02*
X0162724Y0041850D01*
X0162224Y0041850D02*
X0163225Y0041850D01*
X0162224Y0042851D02*
X0162724Y0043351D01*
X0161752Y0043101D02*
X0161752Y0042601D01*
X0161501Y0042350D01*
X0160751Y0042350D01*
X0160751Y0041850D02*
X0160751Y0043351D01*
X0161501Y0043351D01*
X0161752Y0043101D01*
X0160278Y0043351D02*
X0159778Y0043351D01*
X0160028Y0043351D02*
X0160028Y0042100D01*
X0159778Y0041850D01*
X0159528Y0041850D01*
X0159277Y0042100D01*
D25*
X0174227Y0131800D03*
X0184227Y0131800D03*
X0194227Y0131800D03*
X0204227Y0131800D03*
X0214227Y0131800D03*
M02*
