G04 EAGLE Gerber X2 export*
%TF.Part,Single*%
%TF.FileFunction,Legend,Top,1*%
%TF.FilePolarity,Positive*%
%TF.GenerationSoftware,Autodesk,EAGLE,9.1.0*%
%TF.CreationDate,2018-11-25T22:57:03Z*%
G75*
%MOMM*%
%FSLAX34Y34*%
%LPD*%
%AMOC8*
5,1,8,0,0,1.08239X$1,22.5*%
G01*
%ADD10C,0.101600*%
%ADD11C,0.127000*%
%ADD12R,0.500000X1.000000*%
%ADD13C,0.152400*%
%ADD14C,0.076200*%
%ADD15C,0.203200*%
%ADD16R,0.250000X0.225000*%


D10*
X109756Y286192D02*
X109756Y274508D01*
X108458Y274508D02*
X111054Y274508D01*
X111054Y286192D02*
X108458Y286192D01*
X118218Y274508D02*
X120814Y274508D01*
X118218Y274508D02*
X118119Y274510D01*
X118019Y274516D01*
X117920Y274525D01*
X117822Y274538D01*
X117724Y274555D01*
X117626Y274576D01*
X117530Y274601D01*
X117435Y274629D01*
X117341Y274661D01*
X117248Y274696D01*
X117156Y274735D01*
X117066Y274778D01*
X116978Y274823D01*
X116891Y274873D01*
X116807Y274925D01*
X116724Y274981D01*
X116644Y275039D01*
X116566Y275101D01*
X116491Y275166D01*
X116418Y275234D01*
X116348Y275304D01*
X116280Y275377D01*
X116215Y275452D01*
X116153Y275530D01*
X116095Y275610D01*
X116039Y275693D01*
X115987Y275777D01*
X115937Y275864D01*
X115892Y275952D01*
X115849Y276042D01*
X115810Y276134D01*
X115775Y276227D01*
X115743Y276321D01*
X115715Y276416D01*
X115690Y276512D01*
X115669Y276610D01*
X115652Y276708D01*
X115639Y276806D01*
X115630Y276905D01*
X115624Y277005D01*
X115622Y277104D01*
X115621Y277104D02*
X115621Y283596D01*
X115622Y283596D02*
X115624Y283695D01*
X115630Y283795D01*
X115639Y283894D01*
X115652Y283992D01*
X115669Y284090D01*
X115690Y284188D01*
X115715Y284284D01*
X115743Y284379D01*
X115775Y284473D01*
X115810Y284566D01*
X115849Y284658D01*
X115892Y284748D01*
X115937Y284836D01*
X115987Y284923D01*
X116039Y285007D01*
X116095Y285090D01*
X116153Y285170D01*
X116215Y285248D01*
X116280Y285323D01*
X116348Y285396D01*
X116418Y285466D01*
X116491Y285534D01*
X116566Y285599D01*
X116644Y285661D01*
X116724Y285719D01*
X116807Y285775D01*
X116891Y285827D01*
X116978Y285877D01*
X117066Y285922D01*
X117156Y285965D01*
X117248Y286004D01*
X117340Y286039D01*
X117435Y286071D01*
X117530Y286099D01*
X117626Y286124D01*
X117724Y286145D01*
X117822Y286162D01*
X117920Y286175D01*
X118019Y286184D01*
X118119Y286190D01*
X118218Y286192D01*
X120814Y286192D01*
X125180Y283596D02*
X128425Y286192D01*
X128425Y274508D01*
X125180Y274508D02*
X131671Y274508D01*
D11*
X286700Y344000D02*
X286700Y204000D01*
X286700Y344000D02*
X241700Y344000D01*
X241700Y204000D02*
X286700Y204000D01*
X241700Y204000D02*
X241700Y344000D01*
D10*
X289508Y204508D02*
X301192Y204508D01*
X295999Y208403D02*
X289508Y204508D01*
X295999Y208403D02*
X289508Y212297D01*
X301192Y212297D01*
X297946Y217730D02*
X292754Y217730D01*
X292641Y217732D01*
X292528Y217738D01*
X292415Y217748D01*
X292302Y217762D01*
X292190Y217779D01*
X292079Y217801D01*
X291969Y217826D01*
X291859Y217856D01*
X291751Y217889D01*
X291644Y217926D01*
X291538Y217966D01*
X291434Y218011D01*
X291331Y218059D01*
X291230Y218110D01*
X291131Y218165D01*
X291034Y218223D01*
X290939Y218285D01*
X290846Y218350D01*
X290756Y218418D01*
X290668Y218489D01*
X290582Y218564D01*
X290499Y218641D01*
X290419Y218721D01*
X290342Y218804D01*
X290267Y218890D01*
X290196Y218978D01*
X290128Y219068D01*
X290063Y219161D01*
X290001Y219256D01*
X289943Y219353D01*
X289888Y219452D01*
X289837Y219553D01*
X289789Y219656D01*
X289744Y219760D01*
X289704Y219866D01*
X289667Y219973D01*
X289634Y220081D01*
X289604Y220191D01*
X289579Y220301D01*
X289557Y220412D01*
X289540Y220524D01*
X289526Y220637D01*
X289516Y220750D01*
X289510Y220863D01*
X289508Y220976D01*
X289510Y221089D01*
X289516Y221202D01*
X289526Y221315D01*
X289540Y221428D01*
X289557Y221540D01*
X289579Y221651D01*
X289604Y221761D01*
X289634Y221871D01*
X289667Y221979D01*
X289704Y222086D01*
X289744Y222192D01*
X289789Y222296D01*
X289837Y222399D01*
X289888Y222500D01*
X289943Y222599D01*
X290001Y222696D01*
X290063Y222791D01*
X290128Y222884D01*
X290196Y222974D01*
X290267Y223062D01*
X290342Y223148D01*
X290419Y223231D01*
X290499Y223311D01*
X290582Y223388D01*
X290668Y223463D01*
X290756Y223534D01*
X290846Y223602D01*
X290939Y223667D01*
X291034Y223729D01*
X291131Y223787D01*
X291230Y223842D01*
X291331Y223893D01*
X291434Y223941D01*
X291538Y223986D01*
X291644Y224026D01*
X291751Y224063D01*
X291859Y224096D01*
X291969Y224126D01*
X292079Y224151D01*
X292190Y224173D01*
X292302Y224190D01*
X292415Y224204D01*
X292528Y224214D01*
X292641Y224220D01*
X292754Y224222D01*
X292754Y224221D02*
X297946Y224221D01*
X297946Y224222D02*
X298059Y224220D01*
X298172Y224214D01*
X298285Y224204D01*
X298398Y224190D01*
X298510Y224173D01*
X298621Y224151D01*
X298731Y224126D01*
X298841Y224096D01*
X298949Y224063D01*
X299056Y224026D01*
X299162Y223986D01*
X299266Y223941D01*
X299369Y223893D01*
X299470Y223842D01*
X299569Y223787D01*
X299666Y223729D01*
X299761Y223667D01*
X299854Y223602D01*
X299944Y223534D01*
X300032Y223463D01*
X300118Y223388D01*
X300201Y223311D01*
X300281Y223231D01*
X300358Y223148D01*
X300433Y223062D01*
X300504Y222974D01*
X300572Y222884D01*
X300637Y222791D01*
X300699Y222696D01*
X300757Y222599D01*
X300812Y222500D01*
X300863Y222399D01*
X300911Y222296D01*
X300956Y222192D01*
X300996Y222086D01*
X301033Y221979D01*
X301066Y221871D01*
X301096Y221761D01*
X301121Y221651D01*
X301143Y221540D01*
X301160Y221428D01*
X301174Y221315D01*
X301184Y221202D01*
X301190Y221089D01*
X301192Y220976D01*
X301190Y220863D01*
X301184Y220750D01*
X301174Y220637D01*
X301160Y220524D01*
X301143Y220412D01*
X301121Y220301D01*
X301096Y220191D01*
X301066Y220081D01*
X301033Y219973D01*
X300996Y219866D01*
X300956Y219760D01*
X300911Y219656D01*
X300863Y219553D01*
X300812Y219452D01*
X300757Y219353D01*
X300699Y219256D01*
X300637Y219161D01*
X300572Y219068D01*
X300504Y218978D01*
X300433Y218890D01*
X300358Y218804D01*
X300281Y218721D01*
X300201Y218641D01*
X300118Y218564D01*
X300032Y218489D01*
X299944Y218418D01*
X299854Y218350D01*
X299761Y218285D01*
X299666Y218223D01*
X299569Y218165D01*
X299470Y218110D01*
X299369Y218059D01*
X299266Y218011D01*
X299162Y217966D01*
X299056Y217926D01*
X298949Y217889D01*
X298841Y217856D01*
X298731Y217826D01*
X298621Y217801D01*
X298510Y217779D01*
X298398Y217762D01*
X298285Y217748D01*
X298172Y217738D01*
X298059Y217732D01*
X297946Y217730D01*
X301192Y231644D02*
X289508Y231644D01*
X289508Y234889D02*
X289508Y228398D01*
X292754Y239066D02*
X297946Y239066D01*
X292754Y239066D02*
X292641Y239068D01*
X292528Y239074D01*
X292415Y239084D01*
X292302Y239098D01*
X292190Y239115D01*
X292079Y239137D01*
X291969Y239162D01*
X291859Y239192D01*
X291751Y239225D01*
X291644Y239262D01*
X291538Y239302D01*
X291434Y239347D01*
X291331Y239395D01*
X291230Y239446D01*
X291131Y239501D01*
X291034Y239559D01*
X290939Y239621D01*
X290846Y239686D01*
X290756Y239754D01*
X290668Y239825D01*
X290582Y239900D01*
X290499Y239977D01*
X290419Y240057D01*
X290342Y240140D01*
X290267Y240226D01*
X290196Y240314D01*
X290128Y240404D01*
X290063Y240497D01*
X290001Y240592D01*
X289943Y240689D01*
X289888Y240788D01*
X289837Y240889D01*
X289789Y240992D01*
X289744Y241096D01*
X289704Y241202D01*
X289667Y241309D01*
X289634Y241417D01*
X289604Y241527D01*
X289579Y241637D01*
X289557Y241748D01*
X289540Y241860D01*
X289526Y241973D01*
X289516Y242086D01*
X289510Y242199D01*
X289508Y242312D01*
X289510Y242425D01*
X289516Y242538D01*
X289526Y242651D01*
X289540Y242764D01*
X289557Y242876D01*
X289579Y242987D01*
X289604Y243097D01*
X289634Y243207D01*
X289667Y243315D01*
X289704Y243422D01*
X289744Y243528D01*
X289789Y243632D01*
X289837Y243735D01*
X289888Y243836D01*
X289943Y243935D01*
X290001Y244032D01*
X290063Y244127D01*
X290128Y244220D01*
X290196Y244310D01*
X290267Y244398D01*
X290342Y244484D01*
X290419Y244567D01*
X290499Y244647D01*
X290582Y244724D01*
X290668Y244799D01*
X290756Y244870D01*
X290846Y244938D01*
X290939Y245003D01*
X291034Y245065D01*
X291131Y245123D01*
X291230Y245178D01*
X291331Y245229D01*
X291434Y245277D01*
X291538Y245322D01*
X291644Y245362D01*
X291751Y245399D01*
X291859Y245432D01*
X291969Y245462D01*
X292079Y245487D01*
X292190Y245509D01*
X292302Y245526D01*
X292415Y245540D01*
X292528Y245550D01*
X292641Y245556D01*
X292754Y245558D01*
X292754Y245557D02*
X297946Y245557D01*
X297946Y245558D02*
X298059Y245556D01*
X298172Y245550D01*
X298285Y245540D01*
X298398Y245526D01*
X298510Y245509D01*
X298621Y245487D01*
X298731Y245462D01*
X298841Y245432D01*
X298949Y245399D01*
X299056Y245362D01*
X299162Y245322D01*
X299266Y245277D01*
X299369Y245229D01*
X299470Y245178D01*
X299569Y245123D01*
X299666Y245065D01*
X299761Y245003D01*
X299854Y244938D01*
X299944Y244870D01*
X300032Y244799D01*
X300118Y244724D01*
X300201Y244647D01*
X300281Y244567D01*
X300358Y244484D01*
X300433Y244398D01*
X300504Y244310D01*
X300572Y244220D01*
X300637Y244127D01*
X300699Y244032D01*
X300757Y243935D01*
X300812Y243836D01*
X300863Y243735D01*
X300911Y243632D01*
X300956Y243528D01*
X300996Y243422D01*
X301033Y243315D01*
X301066Y243207D01*
X301096Y243097D01*
X301121Y242987D01*
X301143Y242876D01*
X301160Y242764D01*
X301174Y242651D01*
X301184Y242538D01*
X301190Y242425D01*
X301192Y242312D01*
X301190Y242199D01*
X301184Y242086D01*
X301174Y241973D01*
X301160Y241860D01*
X301143Y241748D01*
X301121Y241637D01*
X301096Y241527D01*
X301066Y241417D01*
X301033Y241309D01*
X300996Y241202D01*
X300956Y241096D01*
X300911Y240992D01*
X300863Y240889D01*
X300812Y240788D01*
X300757Y240689D01*
X300699Y240592D01*
X300637Y240497D01*
X300572Y240404D01*
X300504Y240314D01*
X300433Y240226D01*
X300358Y240140D01*
X300281Y240057D01*
X300201Y239977D01*
X300118Y239900D01*
X300032Y239825D01*
X299944Y239754D01*
X299854Y239686D01*
X299761Y239621D01*
X299666Y239559D01*
X299569Y239501D01*
X299470Y239446D01*
X299369Y239395D01*
X299266Y239347D01*
X299162Y239302D01*
X299056Y239262D01*
X298949Y239225D01*
X298841Y239192D01*
X298731Y239162D01*
X298621Y239137D01*
X298510Y239115D01*
X298398Y239098D01*
X298285Y239084D01*
X298172Y239074D01*
X298059Y239068D01*
X297946Y239066D01*
X301192Y250951D02*
X289508Y250951D01*
X289508Y254196D01*
X289510Y254309D01*
X289516Y254422D01*
X289526Y254535D01*
X289540Y254648D01*
X289557Y254760D01*
X289579Y254871D01*
X289604Y254981D01*
X289634Y255091D01*
X289667Y255199D01*
X289704Y255306D01*
X289744Y255412D01*
X289789Y255516D01*
X289837Y255619D01*
X289888Y255720D01*
X289943Y255819D01*
X290001Y255916D01*
X290063Y256011D01*
X290128Y256104D01*
X290196Y256194D01*
X290267Y256282D01*
X290342Y256368D01*
X290419Y256451D01*
X290499Y256531D01*
X290582Y256608D01*
X290668Y256683D01*
X290756Y256754D01*
X290846Y256822D01*
X290939Y256887D01*
X291034Y256949D01*
X291131Y257007D01*
X291230Y257062D01*
X291331Y257113D01*
X291434Y257161D01*
X291538Y257206D01*
X291644Y257246D01*
X291751Y257283D01*
X291859Y257316D01*
X291969Y257346D01*
X292079Y257371D01*
X292190Y257393D01*
X292302Y257410D01*
X292415Y257424D01*
X292528Y257434D01*
X292641Y257440D01*
X292754Y257442D01*
X292867Y257440D01*
X292980Y257434D01*
X293093Y257424D01*
X293206Y257410D01*
X293318Y257393D01*
X293429Y257371D01*
X293539Y257346D01*
X293649Y257316D01*
X293757Y257283D01*
X293864Y257246D01*
X293970Y257206D01*
X294074Y257161D01*
X294177Y257113D01*
X294278Y257062D01*
X294377Y257007D01*
X294474Y256949D01*
X294569Y256887D01*
X294662Y256822D01*
X294752Y256754D01*
X294840Y256683D01*
X294926Y256608D01*
X295009Y256531D01*
X295089Y256451D01*
X295166Y256368D01*
X295241Y256282D01*
X295312Y256194D01*
X295380Y256104D01*
X295445Y256011D01*
X295507Y255916D01*
X295565Y255819D01*
X295620Y255720D01*
X295671Y255619D01*
X295719Y255516D01*
X295764Y255412D01*
X295804Y255306D01*
X295841Y255199D01*
X295874Y255091D01*
X295904Y254981D01*
X295929Y254871D01*
X295951Y254760D01*
X295968Y254648D01*
X295982Y254535D01*
X295992Y254422D01*
X295998Y254309D01*
X296000Y254196D01*
X295999Y254196D02*
X295999Y250951D01*
X295999Y254845D02*
X301192Y257442D01*
X292104Y262307D02*
X289508Y265553D01*
X301192Y265553D01*
X301192Y268798D02*
X301192Y262307D01*
D12*
X284200Y274000D03*
D11*
X83500Y204000D02*
X83500Y344000D01*
X38500Y344000D01*
X38500Y204000D02*
X83500Y204000D01*
X38500Y204000D02*
X38500Y344000D01*
D10*
X86308Y204508D02*
X97992Y204508D01*
X92799Y208403D02*
X86308Y204508D01*
X92799Y208403D02*
X86308Y212297D01*
X97992Y212297D01*
X94746Y217730D02*
X89554Y217730D01*
X89441Y217732D01*
X89328Y217738D01*
X89215Y217748D01*
X89102Y217762D01*
X88990Y217779D01*
X88879Y217801D01*
X88769Y217826D01*
X88659Y217856D01*
X88551Y217889D01*
X88444Y217926D01*
X88338Y217966D01*
X88234Y218011D01*
X88131Y218059D01*
X88030Y218110D01*
X87931Y218165D01*
X87834Y218223D01*
X87739Y218285D01*
X87646Y218350D01*
X87556Y218418D01*
X87468Y218489D01*
X87382Y218564D01*
X87299Y218641D01*
X87219Y218721D01*
X87142Y218804D01*
X87067Y218890D01*
X86996Y218978D01*
X86928Y219068D01*
X86863Y219161D01*
X86801Y219256D01*
X86743Y219353D01*
X86688Y219452D01*
X86637Y219553D01*
X86589Y219656D01*
X86544Y219760D01*
X86504Y219866D01*
X86467Y219973D01*
X86434Y220081D01*
X86404Y220191D01*
X86379Y220301D01*
X86357Y220412D01*
X86340Y220524D01*
X86326Y220637D01*
X86316Y220750D01*
X86310Y220863D01*
X86308Y220976D01*
X86310Y221089D01*
X86316Y221202D01*
X86326Y221315D01*
X86340Y221428D01*
X86357Y221540D01*
X86379Y221651D01*
X86404Y221761D01*
X86434Y221871D01*
X86467Y221979D01*
X86504Y222086D01*
X86544Y222192D01*
X86589Y222296D01*
X86637Y222399D01*
X86688Y222500D01*
X86743Y222599D01*
X86801Y222696D01*
X86863Y222791D01*
X86928Y222884D01*
X86996Y222974D01*
X87067Y223062D01*
X87142Y223148D01*
X87219Y223231D01*
X87299Y223311D01*
X87382Y223388D01*
X87468Y223463D01*
X87556Y223534D01*
X87646Y223602D01*
X87739Y223667D01*
X87834Y223729D01*
X87931Y223787D01*
X88030Y223842D01*
X88131Y223893D01*
X88234Y223941D01*
X88338Y223986D01*
X88444Y224026D01*
X88551Y224063D01*
X88659Y224096D01*
X88769Y224126D01*
X88879Y224151D01*
X88990Y224173D01*
X89102Y224190D01*
X89215Y224204D01*
X89328Y224214D01*
X89441Y224220D01*
X89554Y224222D01*
X89554Y224221D02*
X94746Y224221D01*
X94746Y224222D02*
X94859Y224220D01*
X94972Y224214D01*
X95085Y224204D01*
X95198Y224190D01*
X95310Y224173D01*
X95421Y224151D01*
X95531Y224126D01*
X95641Y224096D01*
X95749Y224063D01*
X95856Y224026D01*
X95962Y223986D01*
X96066Y223941D01*
X96169Y223893D01*
X96270Y223842D01*
X96369Y223787D01*
X96466Y223729D01*
X96561Y223667D01*
X96654Y223602D01*
X96744Y223534D01*
X96832Y223463D01*
X96918Y223388D01*
X97001Y223311D01*
X97081Y223231D01*
X97158Y223148D01*
X97233Y223062D01*
X97304Y222974D01*
X97372Y222884D01*
X97437Y222791D01*
X97499Y222696D01*
X97557Y222599D01*
X97612Y222500D01*
X97663Y222399D01*
X97711Y222296D01*
X97756Y222192D01*
X97796Y222086D01*
X97833Y221979D01*
X97866Y221871D01*
X97896Y221761D01*
X97921Y221651D01*
X97943Y221540D01*
X97960Y221428D01*
X97974Y221315D01*
X97984Y221202D01*
X97990Y221089D01*
X97992Y220976D01*
X97990Y220863D01*
X97984Y220750D01*
X97974Y220637D01*
X97960Y220524D01*
X97943Y220412D01*
X97921Y220301D01*
X97896Y220191D01*
X97866Y220081D01*
X97833Y219973D01*
X97796Y219866D01*
X97756Y219760D01*
X97711Y219656D01*
X97663Y219553D01*
X97612Y219452D01*
X97557Y219353D01*
X97499Y219256D01*
X97437Y219161D01*
X97372Y219068D01*
X97304Y218978D01*
X97233Y218890D01*
X97158Y218804D01*
X97081Y218721D01*
X97001Y218641D01*
X96918Y218564D01*
X96832Y218489D01*
X96744Y218418D01*
X96654Y218350D01*
X96561Y218285D01*
X96466Y218223D01*
X96369Y218165D01*
X96270Y218110D01*
X96169Y218059D01*
X96066Y218011D01*
X95962Y217966D01*
X95856Y217926D01*
X95749Y217889D01*
X95641Y217856D01*
X95531Y217826D01*
X95421Y217801D01*
X95310Y217779D01*
X95198Y217762D01*
X95085Y217748D01*
X94972Y217738D01*
X94859Y217732D01*
X94746Y217730D01*
X97992Y231644D02*
X86308Y231644D01*
X86308Y234889D02*
X86308Y228398D01*
X89554Y239066D02*
X94746Y239066D01*
X89554Y239066D02*
X89441Y239068D01*
X89328Y239074D01*
X89215Y239084D01*
X89102Y239098D01*
X88990Y239115D01*
X88879Y239137D01*
X88769Y239162D01*
X88659Y239192D01*
X88551Y239225D01*
X88444Y239262D01*
X88338Y239302D01*
X88234Y239347D01*
X88131Y239395D01*
X88030Y239446D01*
X87931Y239501D01*
X87834Y239559D01*
X87739Y239621D01*
X87646Y239686D01*
X87556Y239754D01*
X87468Y239825D01*
X87382Y239900D01*
X87299Y239977D01*
X87219Y240057D01*
X87142Y240140D01*
X87067Y240226D01*
X86996Y240314D01*
X86928Y240404D01*
X86863Y240497D01*
X86801Y240592D01*
X86743Y240689D01*
X86688Y240788D01*
X86637Y240889D01*
X86589Y240992D01*
X86544Y241096D01*
X86504Y241202D01*
X86467Y241309D01*
X86434Y241417D01*
X86404Y241527D01*
X86379Y241637D01*
X86357Y241748D01*
X86340Y241860D01*
X86326Y241973D01*
X86316Y242086D01*
X86310Y242199D01*
X86308Y242312D01*
X86310Y242425D01*
X86316Y242538D01*
X86326Y242651D01*
X86340Y242764D01*
X86357Y242876D01*
X86379Y242987D01*
X86404Y243097D01*
X86434Y243207D01*
X86467Y243315D01*
X86504Y243422D01*
X86544Y243528D01*
X86589Y243632D01*
X86637Y243735D01*
X86688Y243836D01*
X86743Y243935D01*
X86801Y244032D01*
X86863Y244127D01*
X86928Y244220D01*
X86996Y244310D01*
X87067Y244398D01*
X87142Y244484D01*
X87219Y244567D01*
X87299Y244647D01*
X87382Y244724D01*
X87468Y244799D01*
X87556Y244870D01*
X87646Y244938D01*
X87739Y245003D01*
X87834Y245065D01*
X87931Y245123D01*
X88030Y245178D01*
X88131Y245229D01*
X88234Y245277D01*
X88338Y245322D01*
X88444Y245362D01*
X88551Y245399D01*
X88659Y245432D01*
X88769Y245462D01*
X88879Y245487D01*
X88990Y245509D01*
X89102Y245526D01*
X89215Y245540D01*
X89328Y245550D01*
X89441Y245556D01*
X89554Y245558D01*
X89554Y245557D02*
X94746Y245557D01*
X94746Y245558D02*
X94859Y245556D01*
X94972Y245550D01*
X95085Y245540D01*
X95198Y245526D01*
X95310Y245509D01*
X95421Y245487D01*
X95531Y245462D01*
X95641Y245432D01*
X95749Y245399D01*
X95856Y245362D01*
X95962Y245322D01*
X96066Y245277D01*
X96169Y245229D01*
X96270Y245178D01*
X96369Y245123D01*
X96466Y245065D01*
X96561Y245003D01*
X96654Y244938D01*
X96744Y244870D01*
X96832Y244799D01*
X96918Y244724D01*
X97001Y244647D01*
X97081Y244567D01*
X97158Y244484D01*
X97233Y244398D01*
X97304Y244310D01*
X97372Y244220D01*
X97437Y244127D01*
X97499Y244032D01*
X97557Y243935D01*
X97612Y243836D01*
X97663Y243735D01*
X97711Y243632D01*
X97756Y243528D01*
X97796Y243422D01*
X97833Y243315D01*
X97866Y243207D01*
X97896Y243097D01*
X97921Y242987D01*
X97943Y242876D01*
X97960Y242764D01*
X97974Y242651D01*
X97984Y242538D01*
X97990Y242425D01*
X97992Y242312D01*
X97990Y242199D01*
X97984Y242086D01*
X97974Y241973D01*
X97960Y241860D01*
X97943Y241748D01*
X97921Y241637D01*
X97896Y241527D01*
X97866Y241417D01*
X97833Y241309D01*
X97796Y241202D01*
X97756Y241096D01*
X97711Y240992D01*
X97663Y240889D01*
X97612Y240788D01*
X97557Y240689D01*
X97499Y240592D01*
X97437Y240497D01*
X97372Y240404D01*
X97304Y240314D01*
X97233Y240226D01*
X97158Y240140D01*
X97081Y240057D01*
X97001Y239977D01*
X96918Y239900D01*
X96832Y239825D01*
X96744Y239754D01*
X96654Y239686D01*
X96561Y239621D01*
X96466Y239559D01*
X96369Y239501D01*
X96270Y239446D01*
X96169Y239395D01*
X96066Y239347D01*
X95962Y239302D01*
X95856Y239262D01*
X95749Y239225D01*
X95641Y239192D01*
X95531Y239162D01*
X95421Y239137D01*
X95310Y239115D01*
X95198Y239098D01*
X95085Y239084D01*
X94972Y239074D01*
X94859Y239068D01*
X94746Y239066D01*
X97992Y250951D02*
X86308Y250951D01*
X86308Y254196D01*
X86310Y254309D01*
X86316Y254422D01*
X86326Y254535D01*
X86340Y254648D01*
X86357Y254760D01*
X86379Y254871D01*
X86404Y254981D01*
X86434Y255091D01*
X86467Y255199D01*
X86504Y255306D01*
X86544Y255412D01*
X86589Y255516D01*
X86637Y255619D01*
X86688Y255720D01*
X86743Y255819D01*
X86801Y255916D01*
X86863Y256011D01*
X86928Y256104D01*
X86996Y256194D01*
X87067Y256282D01*
X87142Y256368D01*
X87219Y256451D01*
X87299Y256531D01*
X87382Y256608D01*
X87468Y256683D01*
X87556Y256754D01*
X87646Y256822D01*
X87739Y256887D01*
X87834Y256949D01*
X87931Y257007D01*
X88030Y257062D01*
X88131Y257113D01*
X88234Y257161D01*
X88338Y257206D01*
X88444Y257246D01*
X88551Y257283D01*
X88659Y257316D01*
X88769Y257346D01*
X88879Y257371D01*
X88990Y257393D01*
X89102Y257410D01*
X89215Y257424D01*
X89328Y257434D01*
X89441Y257440D01*
X89554Y257442D01*
X89667Y257440D01*
X89780Y257434D01*
X89893Y257424D01*
X90006Y257410D01*
X90118Y257393D01*
X90229Y257371D01*
X90339Y257346D01*
X90449Y257316D01*
X90557Y257283D01*
X90664Y257246D01*
X90770Y257206D01*
X90874Y257161D01*
X90977Y257113D01*
X91078Y257062D01*
X91177Y257007D01*
X91274Y256949D01*
X91369Y256887D01*
X91462Y256822D01*
X91552Y256754D01*
X91640Y256683D01*
X91726Y256608D01*
X91809Y256531D01*
X91889Y256451D01*
X91966Y256368D01*
X92041Y256282D01*
X92112Y256194D01*
X92180Y256104D01*
X92245Y256011D01*
X92307Y255916D01*
X92365Y255819D01*
X92420Y255720D01*
X92471Y255619D01*
X92519Y255516D01*
X92564Y255412D01*
X92604Y255306D01*
X92641Y255199D01*
X92674Y255091D01*
X92704Y254981D01*
X92729Y254871D01*
X92751Y254760D01*
X92768Y254648D01*
X92782Y254535D01*
X92792Y254422D01*
X92798Y254309D01*
X92800Y254196D01*
X92799Y254196D02*
X92799Y250951D01*
X92799Y254845D02*
X97992Y257442D01*
X89229Y268798D02*
X89122Y268796D01*
X89016Y268790D01*
X88910Y268780D01*
X88804Y268767D01*
X88698Y268749D01*
X88594Y268728D01*
X88490Y268703D01*
X88387Y268674D01*
X88286Y268642D01*
X88186Y268605D01*
X88087Y268565D01*
X87989Y268522D01*
X87893Y268475D01*
X87799Y268424D01*
X87707Y268370D01*
X87617Y268313D01*
X87529Y268253D01*
X87444Y268189D01*
X87361Y268122D01*
X87280Y268052D01*
X87202Y267980D01*
X87126Y267904D01*
X87054Y267826D01*
X86984Y267745D01*
X86917Y267662D01*
X86853Y267577D01*
X86793Y267489D01*
X86736Y267399D01*
X86682Y267307D01*
X86631Y267213D01*
X86584Y267117D01*
X86541Y267019D01*
X86501Y266920D01*
X86464Y266820D01*
X86432Y266719D01*
X86403Y266616D01*
X86378Y266512D01*
X86357Y266408D01*
X86339Y266302D01*
X86326Y266196D01*
X86316Y266090D01*
X86310Y265984D01*
X86308Y265877D01*
X86310Y265756D01*
X86316Y265635D01*
X86326Y265515D01*
X86339Y265394D01*
X86357Y265275D01*
X86378Y265155D01*
X86403Y265037D01*
X86432Y264920D01*
X86465Y264803D01*
X86501Y264688D01*
X86542Y264574D01*
X86585Y264461D01*
X86633Y264349D01*
X86684Y264240D01*
X86739Y264132D01*
X86797Y264025D01*
X86858Y263921D01*
X86923Y263819D01*
X86991Y263719D01*
X87062Y263621D01*
X87136Y263525D01*
X87213Y263432D01*
X87294Y263342D01*
X87377Y263254D01*
X87463Y263169D01*
X87552Y263086D01*
X87643Y263007D01*
X87737Y262930D01*
X87833Y262857D01*
X87931Y262787D01*
X88032Y262720D01*
X88135Y262656D01*
X88240Y262596D01*
X88347Y262538D01*
X88455Y262485D01*
X88565Y262435D01*
X88677Y262389D01*
X88790Y262346D01*
X88905Y262307D01*
X91501Y267824D02*
X91423Y267903D01*
X91343Y267979D01*
X91260Y268052D01*
X91174Y268122D01*
X91087Y268189D01*
X90996Y268253D01*
X90904Y268313D01*
X90810Y268371D01*
X90713Y268425D01*
X90615Y268475D01*
X90515Y268522D01*
X90414Y268566D01*
X90311Y268606D01*
X90206Y268642D01*
X90101Y268674D01*
X89994Y268703D01*
X89887Y268728D01*
X89778Y268750D01*
X89669Y268767D01*
X89560Y268781D01*
X89450Y268790D01*
X89339Y268796D01*
X89229Y268798D01*
X91501Y267824D02*
X97992Y262307D01*
X97992Y268798D01*
D12*
X81000Y274000D03*
D11*
X142600Y141700D02*
X301100Y141700D01*
X316600Y157700D02*
X316600Y190700D01*
X279600Y147200D02*
X284600Y142200D01*
X279600Y147200D02*
X274600Y142200D01*
X259600Y142200D02*
X254600Y147200D01*
X249600Y142200D01*
X234600Y142200D02*
X229600Y147200D01*
X224600Y142200D01*
X209600Y142200D02*
X204600Y147200D01*
X184600Y142200D02*
X179600Y147200D01*
X199600Y142200D02*
X204600Y147200D01*
X179600Y147200D02*
X174600Y142200D01*
X301100Y141700D02*
X316600Y157200D01*
X316600Y190700D02*
X142600Y190700D01*
X142600Y141700D01*
D10*
X275999Y133792D02*
X275999Y122108D01*
X275999Y133792D02*
X279245Y133792D01*
X279358Y133790D01*
X279471Y133784D01*
X279584Y133774D01*
X279697Y133760D01*
X279809Y133743D01*
X279920Y133721D01*
X280030Y133696D01*
X280140Y133666D01*
X280248Y133633D01*
X280355Y133596D01*
X280461Y133556D01*
X280565Y133511D01*
X280668Y133463D01*
X280769Y133412D01*
X280868Y133357D01*
X280965Y133299D01*
X281060Y133237D01*
X281153Y133172D01*
X281243Y133104D01*
X281331Y133033D01*
X281417Y132958D01*
X281500Y132881D01*
X281580Y132801D01*
X281657Y132718D01*
X281732Y132632D01*
X281803Y132544D01*
X281871Y132454D01*
X281936Y132361D01*
X281998Y132266D01*
X282056Y132169D01*
X282111Y132070D01*
X282162Y131969D01*
X282210Y131866D01*
X282255Y131762D01*
X282295Y131656D01*
X282332Y131549D01*
X282365Y131441D01*
X282395Y131331D01*
X282420Y131221D01*
X282442Y131110D01*
X282459Y130998D01*
X282473Y130885D01*
X282483Y130772D01*
X282489Y130659D01*
X282491Y130546D01*
X282489Y130433D01*
X282483Y130320D01*
X282473Y130207D01*
X282459Y130094D01*
X282442Y129982D01*
X282420Y129871D01*
X282395Y129761D01*
X282365Y129651D01*
X282332Y129543D01*
X282295Y129436D01*
X282255Y129330D01*
X282210Y129226D01*
X282162Y129123D01*
X282111Y129022D01*
X282056Y128923D01*
X281998Y128826D01*
X281936Y128731D01*
X281871Y128638D01*
X281803Y128548D01*
X281732Y128460D01*
X281657Y128374D01*
X281580Y128291D01*
X281500Y128211D01*
X281417Y128134D01*
X281331Y128059D01*
X281243Y127988D01*
X281153Y127920D01*
X281060Y127855D01*
X280965Y127793D01*
X280868Y127735D01*
X280769Y127680D01*
X280668Y127629D01*
X280565Y127581D01*
X280461Y127536D01*
X280355Y127496D01*
X280248Y127459D01*
X280140Y127426D01*
X280030Y127396D01*
X279920Y127371D01*
X279809Y127349D01*
X279697Y127332D01*
X279584Y127318D01*
X279471Y127308D01*
X279358Y127302D01*
X279245Y127300D01*
X279245Y127301D02*
X275999Y127301D01*
X287334Y122108D02*
X287334Y133792D01*
X290579Y133792D01*
X290692Y133790D01*
X290805Y133784D01*
X290918Y133774D01*
X291031Y133760D01*
X291143Y133743D01*
X291254Y133721D01*
X291364Y133696D01*
X291474Y133666D01*
X291582Y133633D01*
X291689Y133596D01*
X291795Y133556D01*
X291899Y133511D01*
X292002Y133463D01*
X292103Y133412D01*
X292202Y133357D01*
X292299Y133299D01*
X292394Y133237D01*
X292487Y133172D01*
X292577Y133104D01*
X292665Y133033D01*
X292751Y132958D01*
X292834Y132881D01*
X292914Y132801D01*
X292991Y132718D01*
X293066Y132632D01*
X293137Y132544D01*
X293205Y132454D01*
X293270Y132361D01*
X293332Y132266D01*
X293390Y132169D01*
X293445Y132070D01*
X293496Y131969D01*
X293544Y131866D01*
X293589Y131762D01*
X293629Y131656D01*
X293666Y131549D01*
X293699Y131441D01*
X293729Y131331D01*
X293754Y131221D01*
X293776Y131110D01*
X293793Y130998D01*
X293807Y130885D01*
X293817Y130772D01*
X293823Y130659D01*
X293825Y130546D01*
X293823Y130433D01*
X293817Y130320D01*
X293807Y130207D01*
X293793Y130094D01*
X293776Y129982D01*
X293754Y129871D01*
X293729Y129761D01*
X293699Y129651D01*
X293666Y129543D01*
X293629Y129436D01*
X293589Y129330D01*
X293544Y129226D01*
X293496Y129123D01*
X293445Y129022D01*
X293390Y128923D01*
X293332Y128826D01*
X293270Y128731D01*
X293205Y128638D01*
X293137Y128548D01*
X293066Y128460D01*
X292991Y128374D01*
X292914Y128291D01*
X292834Y128211D01*
X292751Y128134D01*
X292665Y128059D01*
X292577Y127988D01*
X292487Y127920D01*
X292394Y127855D01*
X292299Y127793D01*
X292202Y127735D01*
X292103Y127680D01*
X292002Y127629D01*
X291899Y127581D01*
X291795Y127536D01*
X291689Y127496D01*
X291582Y127459D01*
X291474Y127426D01*
X291364Y127396D01*
X291254Y127371D01*
X291143Y127349D01*
X291031Y127332D01*
X290918Y127318D01*
X290805Y127308D01*
X290692Y127302D01*
X290579Y127300D01*
X290579Y127301D02*
X287334Y127301D01*
X291228Y127301D02*
X293825Y122108D01*
X298690Y125354D02*
X298690Y130546D01*
X298689Y130546D02*
X298691Y130659D01*
X298697Y130772D01*
X298707Y130885D01*
X298721Y130998D01*
X298738Y131110D01*
X298760Y131221D01*
X298785Y131331D01*
X298815Y131441D01*
X298848Y131549D01*
X298885Y131656D01*
X298925Y131762D01*
X298970Y131866D01*
X299018Y131969D01*
X299069Y132070D01*
X299124Y132169D01*
X299182Y132266D01*
X299244Y132361D01*
X299309Y132454D01*
X299377Y132544D01*
X299448Y132632D01*
X299523Y132718D01*
X299600Y132801D01*
X299680Y132881D01*
X299763Y132958D01*
X299849Y133033D01*
X299937Y133104D01*
X300027Y133172D01*
X300120Y133237D01*
X300215Y133299D01*
X300312Y133357D01*
X300411Y133412D01*
X300512Y133463D01*
X300615Y133511D01*
X300719Y133556D01*
X300825Y133596D01*
X300932Y133633D01*
X301040Y133666D01*
X301150Y133696D01*
X301260Y133721D01*
X301371Y133743D01*
X301483Y133760D01*
X301596Y133774D01*
X301709Y133784D01*
X301822Y133790D01*
X301935Y133792D01*
X302048Y133790D01*
X302161Y133784D01*
X302274Y133774D01*
X302387Y133760D01*
X302499Y133743D01*
X302610Y133721D01*
X302720Y133696D01*
X302830Y133666D01*
X302938Y133633D01*
X303045Y133596D01*
X303151Y133556D01*
X303255Y133511D01*
X303358Y133463D01*
X303459Y133412D01*
X303558Y133357D01*
X303655Y133299D01*
X303750Y133237D01*
X303843Y133172D01*
X303933Y133104D01*
X304021Y133033D01*
X304107Y132958D01*
X304190Y132881D01*
X304270Y132801D01*
X304347Y132718D01*
X304422Y132632D01*
X304493Y132544D01*
X304561Y132454D01*
X304626Y132361D01*
X304688Y132266D01*
X304746Y132169D01*
X304801Y132070D01*
X304852Y131969D01*
X304900Y131866D01*
X304945Y131762D01*
X304985Y131656D01*
X305022Y131549D01*
X305055Y131441D01*
X305085Y131331D01*
X305110Y131221D01*
X305132Y131110D01*
X305149Y130998D01*
X305163Y130885D01*
X305173Y130772D01*
X305179Y130659D01*
X305181Y130546D01*
X305181Y125354D01*
X305179Y125241D01*
X305173Y125128D01*
X305163Y125015D01*
X305149Y124902D01*
X305132Y124790D01*
X305110Y124679D01*
X305085Y124569D01*
X305055Y124459D01*
X305022Y124351D01*
X304985Y124244D01*
X304945Y124138D01*
X304900Y124034D01*
X304852Y123931D01*
X304801Y123830D01*
X304746Y123731D01*
X304688Y123634D01*
X304626Y123539D01*
X304561Y123446D01*
X304493Y123356D01*
X304422Y123268D01*
X304347Y123182D01*
X304270Y123099D01*
X304190Y123019D01*
X304107Y122942D01*
X304021Y122867D01*
X303933Y122796D01*
X303843Y122728D01*
X303750Y122663D01*
X303655Y122601D01*
X303558Y122543D01*
X303459Y122488D01*
X303358Y122437D01*
X303255Y122389D01*
X303151Y122344D01*
X303045Y122304D01*
X302938Y122267D01*
X302830Y122234D01*
X302720Y122204D01*
X302610Y122179D01*
X302499Y122157D01*
X302387Y122140D01*
X302274Y122126D01*
X302161Y122116D01*
X302048Y122110D01*
X301935Y122108D01*
X301822Y122110D01*
X301709Y122116D01*
X301596Y122126D01*
X301483Y122140D01*
X301371Y122157D01*
X301260Y122179D01*
X301150Y122204D01*
X301040Y122234D01*
X300932Y122267D01*
X300825Y122304D01*
X300719Y122344D01*
X300615Y122389D01*
X300512Y122437D01*
X300411Y122488D01*
X300312Y122543D01*
X300215Y122601D01*
X300120Y122663D01*
X300027Y122728D01*
X299937Y122796D01*
X299849Y122867D01*
X299763Y122942D01*
X299680Y123019D01*
X299600Y123099D01*
X299523Y123182D01*
X299448Y123268D01*
X299377Y123356D01*
X299309Y123446D01*
X299244Y123539D01*
X299182Y123634D01*
X299124Y123731D01*
X299069Y123830D01*
X299018Y123931D01*
X298970Y124034D01*
X298925Y124138D01*
X298885Y124244D01*
X298848Y124351D01*
X298815Y124459D01*
X298785Y124569D01*
X298760Y124679D01*
X298738Y124790D01*
X298721Y124902D01*
X298707Y125015D01*
X298697Y125128D01*
X298691Y125241D01*
X298689Y125354D01*
X315045Y128599D02*
X316992Y128599D01*
X316992Y122108D01*
X313097Y122108D01*
X312998Y122110D01*
X312898Y122116D01*
X312799Y122125D01*
X312701Y122138D01*
X312603Y122155D01*
X312505Y122176D01*
X312409Y122201D01*
X312314Y122229D01*
X312220Y122261D01*
X312127Y122296D01*
X312035Y122335D01*
X311945Y122378D01*
X311857Y122423D01*
X311770Y122473D01*
X311686Y122525D01*
X311603Y122581D01*
X311523Y122639D01*
X311445Y122701D01*
X311370Y122766D01*
X311297Y122834D01*
X311227Y122904D01*
X311159Y122977D01*
X311094Y123052D01*
X311032Y123130D01*
X310974Y123210D01*
X310918Y123293D01*
X310866Y123377D01*
X310816Y123464D01*
X310771Y123552D01*
X310728Y123642D01*
X310689Y123734D01*
X310654Y123827D01*
X310622Y123921D01*
X310594Y124016D01*
X310569Y124112D01*
X310548Y124210D01*
X310531Y124308D01*
X310518Y124406D01*
X310509Y124505D01*
X310503Y124605D01*
X310501Y124704D01*
X310501Y131196D01*
X310503Y131295D01*
X310509Y131395D01*
X310518Y131494D01*
X310531Y131592D01*
X310548Y131690D01*
X310569Y131788D01*
X310594Y131884D01*
X310622Y131979D01*
X310654Y132073D01*
X310689Y132166D01*
X310728Y132258D01*
X310771Y132348D01*
X310816Y132436D01*
X310866Y132523D01*
X310918Y132607D01*
X310974Y132690D01*
X311032Y132770D01*
X311094Y132848D01*
X311159Y132923D01*
X311227Y132996D01*
X311297Y133066D01*
X311370Y133134D01*
X311445Y133199D01*
X311523Y133261D01*
X311603Y133319D01*
X311686Y133375D01*
X311770Y133427D01*
X311857Y133477D01*
X311945Y133522D01*
X312035Y133565D01*
X312127Y133604D01*
X312219Y133639D01*
X312314Y133671D01*
X312409Y133699D01*
X312505Y133724D01*
X312603Y133745D01*
X312701Y133762D01*
X312799Y133775D01*
X312898Y133784D01*
X312998Y133790D01*
X313097Y133792D01*
X316992Y133792D01*
X255722Y198308D02*
X251827Y198308D01*
X255722Y198308D02*
X255821Y198310D01*
X255921Y198316D01*
X256020Y198325D01*
X256118Y198338D01*
X256216Y198355D01*
X256314Y198376D01*
X256410Y198401D01*
X256505Y198429D01*
X256599Y198461D01*
X256692Y198496D01*
X256784Y198535D01*
X256874Y198578D01*
X256962Y198623D01*
X257049Y198673D01*
X257133Y198725D01*
X257216Y198781D01*
X257296Y198839D01*
X257374Y198901D01*
X257449Y198966D01*
X257522Y199034D01*
X257592Y199104D01*
X257660Y199177D01*
X257725Y199252D01*
X257787Y199330D01*
X257845Y199410D01*
X257901Y199493D01*
X257953Y199577D01*
X258003Y199664D01*
X258048Y199752D01*
X258091Y199842D01*
X258130Y199934D01*
X258165Y200027D01*
X258197Y200121D01*
X258225Y200216D01*
X258250Y200312D01*
X258271Y200410D01*
X258288Y200508D01*
X258301Y200606D01*
X258310Y200705D01*
X258316Y200805D01*
X258318Y200904D01*
X258318Y202203D01*
X258316Y202302D01*
X258310Y202402D01*
X258301Y202501D01*
X258288Y202599D01*
X258271Y202697D01*
X258250Y202795D01*
X258225Y202891D01*
X258197Y202986D01*
X258165Y203080D01*
X258130Y203173D01*
X258091Y203265D01*
X258048Y203355D01*
X258003Y203443D01*
X257953Y203530D01*
X257901Y203614D01*
X257845Y203697D01*
X257787Y203777D01*
X257725Y203855D01*
X257660Y203930D01*
X257592Y204003D01*
X257522Y204073D01*
X257449Y204141D01*
X257374Y204206D01*
X257296Y204268D01*
X257216Y204326D01*
X257133Y204382D01*
X257049Y204434D01*
X256962Y204484D01*
X256874Y204529D01*
X256784Y204572D01*
X256692Y204611D01*
X256599Y204646D01*
X256505Y204678D01*
X256410Y204706D01*
X256314Y204731D01*
X256216Y204752D01*
X256118Y204769D01*
X256020Y204782D01*
X255921Y204791D01*
X255821Y204797D01*
X255722Y204799D01*
X251827Y204799D01*
X251827Y209992D01*
X258318Y209992D01*
X266827Y209992D02*
X266934Y209990D01*
X267040Y209984D01*
X267146Y209974D01*
X267252Y209961D01*
X267358Y209943D01*
X267462Y209922D01*
X267566Y209897D01*
X267669Y209868D01*
X267770Y209836D01*
X267870Y209799D01*
X267969Y209759D01*
X268067Y209716D01*
X268163Y209669D01*
X268257Y209618D01*
X268349Y209564D01*
X268439Y209507D01*
X268527Y209447D01*
X268612Y209383D01*
X268695Y209316D01*
X268776Y209246D01*
X268854Y209174D01*
X268930Y209098D01*
X269002Y209020D01*
X269072Y208939D01*
X269139Y208856D01*
X269203Y208771D01*
X269263Y208683D01*
X269320Y208593D01*
X269374Y208501D01*
X269425Y208407D01*
X269472Y208311D01*
X269515Y208213D01*
X269555Y208114D01*
X269592Y208014D01*
X269624Y207913D01*
X269653Y207810D01*
X269678Y207706D01*
X269699Y207602D01*
X269717Y207496D01*
X269730Y207390D01*
X269740Y207284D01*
X269746Y207178D01*
X269748Y207071D01*
X266827Y209992D02*
X266706Y209990D01*
X266585Y209984D01*
X266465Y209974D01*
X266344Y209961D01*
X266225Y209943D01*
X266105Y209922D01*
X265987Y209897D01*
X265870Y209868D01*
X265753Y209835D01*
X265638Y209799D01*
X265524Y209758D01*
X265411Y209715D01*
X265299Y209667D01*
X265190Y209616D01*
X265082Y209561D01*
X264975Y209503D01*
X264871Y209442D01*
X264769Y209377D01*
X264669Y209309D01*
X264571Y209238D01*
X264475Y209164D01*
X264382Y209087D01*
X264292Y209006D01*
X264204Y208923D01*
X264119Y208837D01*
X264036Y208748D01*
X263957Y208657D01*
X263880Y208563D01*
X263807Y208467D01*
X263737Y208369D01*
X263670Y208268D01*
X263606Y208165D01*
X263546Y208060D01*
X263489Y207953D01*
X263435Y207845D01*
X263385Y207735D01*
X263339Y207623D01*
X263296Y207510D01*
X263257Y207395D01*
X268775Y204799D02*
X268854Y204876D01*
X268930Y204957D01*
X269003Y205040D01*
X269073Y205125D01*
X269140Y205213D01*
X269204Y205303D01*
X269264Y205395D01*
X269321Y205490D01*
X269375Y205586D01*
X269426Y205684D01*
X269473Y205784D01*
X269517Y205886D01*
X269557Y205989D01*
X269593Y206093D01*
X269625Y206199D01*
X269654Y206305D01*
X269679Y206413D01*
X269701Y206521D01*
X269718Y206631D01*
X269732Y206740D01*
X269741Y206850D01*
X269747Y206961D01*
X269749Y207071D01*
X268774Y204799D02*
X263257Y198308D01*
X269748Y198308D01*
X274687Y204799D02*
X278582Y204799D01*
X278681Y204797D01*
X278781Y204791D01*
X278880Y204782D01*
X278978Y204769D01*
X279076Y204752D01*
X279174Y204731D01*
X279270Y204706D01*
X279365Y204678D01*
X279459Y204646D01*
X279552Y204611D01*
X279644Y204572D01*
X279734Y204529D01*
X279822Y204484D01*
X279909Y204434D01*
X279993Y204382D01*
X280076Y204326D01*
X280156Y204268D01*
X280234Y204206D01*
X280309Y204141D01*
X280382Y204073D01*
X280452Y204003D01*
X280520Y203930D01*
X280585Y203855D01*
X280647Y203777D01*
X280705Y203697D01*
X280761Y203614D01*
X280813Y203530D01*
X280863Y203443D01*
X280908Y203355D01*
X280951Y203265D01*
X280990Y203173D01*
X281025Y203080D01*
X281057Y202986D01*
X281085Y202891D01*
X281110Y202795D01*
X281131Y202697D01*
X281148Y202599D01*
X281161Y202501D01*
X281170Y202402D01*
X281176Y202302D01*
X281178Y202203D01*
X281178Y201554D01*
X281179Y201554D02*
X281177Y201441D01*
X281171Y201328D01*
X281161Y201215D01*
X281147Y201102D01*
X281130Y200990D01*
X281108Y200879D01*
X281083Y200769D01*
X281053Y200659D01*
X281020Y200551D01*
X280983Y200444D01*
X280943Y200338D01*
X280898Y200234D01*
X280850Y200131D01*
X280799Y200030D01*
X280744Y199931D01*
X280686Y199834D01*
X280624Y199739D01*
X280559Y199646D01*
X280491Y199556D01*
X280420Y199468D01*
X280345Y199382D01*
X280268Y199299D01*
X280188Y199219D01*
X280105Y199142D01*
X280019Y199067D01*
X279931Y198996D01*
X279841Y198928D01*
X279748Y198863D01*
X279653Y198801D01*
X279556Y198743D01*
X279457Y198688D01*
X279356Y198637D01*
X279253Y198589D01*
X279149Y198544D01*
X279043Y198504D01*
X278936Y198467D01*
X278828Y198434D01*
X278718Y198404D01*
X278608Y198379D01*
X278497Y198357D01*
X278385Y198340D01*
X278272Y198326D01*
X278159Y198316D01*
X278046Y198310D01*
X277933Y198308D01*
X277820Y198310D01*
X277707Y198316D01*
X277594Y198326D01*
X277481Y198340D01*
X277369Y198357D01*
X277258Y198379D01*
X277148Y198404D01*
X277038Y198434D01*
X276930Y198467D01*
X276823Y198504D01*
X276717Y198544D01*
X276613Y198589D01*
X276510Y198637D01*
X276409Y198688D01*
X276310Y198743D01*
X276213Y198801D01*
X276118Y198863D01*
X276025Y198928D01*
X275935Y198996D01*
X275847Y199067D01*
X275761Y199142D01*
X275678Y199219D01*
X275598Y199299D01*
X275521Y199382D01*
X275446Y199468D01*
X275375Y199556D01*
X275307Y199646D01*
X275242Y199739D01*
X275180Y199834D01*
X275122Y199931D01*
X275067Y200030D01*
X275016Y200131D01*
X274968Y200234D01*
X274923Y200338D01*
X274883Y200444D01*
X274846Y200551D01*
X274813Y200659D01*
X274783Y200769D01*
X274758Y200879D01*
X274736Y200990D01*
X274719Y201102D01*
X274705Y201215D01*
X274695Y201328D01*
X274689Y201441D01*
X274687Y201554D01*
X274687Y204799D01*
X274689Y204942D01*
X274695Y205085D01*
X274705Y205228D01*
X274719Y205370D01*
X274736Y205512D01*
X274758Y205654D01*
X274783Y205795D01*
X274813Y205935D01*
X274846Y206074D01*
X274883Y206212D01*
X274924Y206349D01*
X274968Y206485D01*
X275017Y206620D01*
X275069Y206753D01*
X275124Y206885D01*
X275184Y207015D01*
X275247Y207144D01*
X275313Y207271D01*
X275383Y207395D01*
X275456Y207518D01*
X275533Y207639D01*
X275613Y207758D01*
X275696Y207874D01*
X275782Y207989D01*
X275871Y208100D01*
X275964Y208210D01*
X276059Y208316D01*
X276158Y208420D01*
X276259Y208521D01*
X276363Y208620D01*
X276469Y208715D01*
X276579Y208808D01*
X276690Y208897D01*
X276805Y208983D01*
X276921Y209066D01*
X277040Y209146D01*
X277161Y209223D01*
X277283Y209296D01*
X277408Y209366D01*
X277535Y209432D01*
X277664Y209495D01*
X277794Y209555D01*
X277926Y209610D01*
X278059Y209662D01*
X278194Y209711D01*
X278330Y209755D01*
X278467Y209796D01*
X278605Y209833D01*
X278744Y209866D01*
X278884Y209896D01*
X279025Y209921D01*
X279167Y209943D01*
X279309Y209960D01*
X279451Y209974D01*
X279594Y209984D01*
X279737Y209990D01*
X279880Y209992D01*
X286117Y209992D02*
X286117Y208694D01*
X286117Y209992D02*
X292608Y209992D01*
X289362Y198308D01*
X297660Y202852D02*
X305449Y202852D01*
X310501Y204799D02*
X314396Y204799D01*
X314495Y204797D01*
X314595Y204791D01*
X314694Y204782D01*
X314792Y204769D01*
X314890Y204752D01*
X314988Y204731D01*
X315084Y204706D01*
X315179Y204678D01*
X315273Y204646D01*
X315366Y204611D01*
X315458Y204572D01*
X315548Y204529D01*
X315636Y204484D01*
X315723Y204434D01*
X315807Y204382D01*
X315890Y204326D01*
X315970Y204268D01*
X316048Y204206D01*
X316123Y204141D01*
X316196Y204073D01*
X316266Y204003D01*
X316334Y203930D01*
X316399Y203855D01*
X316461Y203777D01*
X316519Y203697D01*
X316575Y203614D01*
X316627Y203530D01*
X316677Y203443D01*
X316722Y203355D01*
X316765Y203265D01*
X316804Y203173D01*
X316839Y203080D01*
X316871Y202986D01*
X316899Y202891D01*
X316924Y202795D01*
X316945Y202697D01*
X316962Y202599D01*
X316975Y202501D01*
X316984Y202402D01*
X316990Y202302D01*
X316992Y202203D01*
X316992Y201554D01*
X316990Y201441D01*
X316984Y201328D01*
X316974Y201215D01*
X316960Y201102D01*
X316943Y200990D01*
X316921Y200879D01*
X316896Y200769D01*
X316866Y200659D01*
X316833Y200551D01*
X316796Y200444D01*
X316756Y200338D01*
X316711Y200234D01*
X316663Y200131D01*
X316612Y200030D01*
X316557Y199931D01*
X316499Y199834D01*
X316437Y199739D01*
X316372Y199646D01*
X316304Y199556D01*
X316233Y199468D01*
X316158Y199382D01*
X316081Y199299D01*
X316001Y199219D01*
X315918Y199142D01*
X315832Y199067D01*
X315744Y198996D01*
X315654Y198928D01*
X315561Y198863D01*
X315466Y198801D01*
X315369Y198743D01*
X315270Y198688D01*
X315169Y198637D01*
X315066Y198589D01*
X314962Y198544D01*
X314856Y198504D01*
X314749Y198467D01*
X314641Y198434D01*
X314531Y198404D01*
X314421Y198379D01*
X314310Y198357D01*
X314198Y198340D01*
X314085Y198326D01*
X313972Y198316D01*
X313859Y198310D01*
X313746Y198308D01*
X313633Y198310D01*
X313520Y198316D01*
X313407Y198326D01*
X313294Y198340D01*
X313182Y198357D01*
X313071Y198379D01*
X312961Y198404D01*
X312851Y198434D01*
X312743Y198467D01*
X312636Y198504D01*
X312530Y198544D01*
X312426Y198589D01*
X312323Y198637D01*
X312222Y198688D01*
X312123Y198743D01*
X312026Y198801D01*
X311931Y198863D01*
X311838Y198928D01*
X311748Y198996D01*
X311660Y199067D01*
X311574Y199142D01*
X311491Y199219D01*
X311411Y199299D01*
X311334Y199382D01*
X311259Y199468D01*
X311188Y199556D01*
X311120Y199646D01*
X311055Y199739D01*
X310993Y199834D01*
X310935Y199931D01*
X310880Y200030D01*
X310829Y200131D01*
X310781Y200234D01*
X310736Y200338D01*
X310696Y200444D01*
X310659Y200551D01*
X310626Y200659D01*
X310596Y200769D01*
X310571Y200879D01*
X310549Y200990D01*
X310532Y201102D01*
X310518Y201215D01*
X310508Y201328D01*
X310502Y201441D01*
X310500Y201554D01*
X310501Y201554D02*
X310501Y204799D01*
X310503Y204942D01*
X310509Y205085D01*
X310519Y205228D01*
X310533Y205370D01*
X310550Y205512D01*
X310572Y205654D01*
X310597Y205795D01*
X310627Y205935D01*
X310660Y206074D01*
X310697Y206212D01*
X310738Y206349D01*
X310782Y206485D01*
X310831Y206620D01*
X310883Y206753D01*
X310938Y206885D01*
X310998Y207015D01*
X311061Y207144D01*
X311127Y207271D01*
X311197Y207395D01*
X311270Y207518D01*
X311347Y207639D01*
X311427Y207758D01*
X311510Y207874D01*
X311596Y207989D01*
X311685Y208100D01*
X311778Y208210D01*
X311873Y208316D01*
X311972Y208420D01*
X312073Y208521D01*
X312177Y208620D01*
X312283Y208715D01*
X312393Y208808D01*
X312504Y208897D01*
X312619Y208983D01*
X312735Y209066D01*
X312854Y209146D01*
X312975Y209223D01*
X313097Y209296D01*
X313222Y209366D01*
X313349Y209432D01*
X313478Y209495D01*
X313608Y209555D01*
X313740Y209610D01*
X313873Y209662D01*
X314008Y209711D01*
X314144Y209755D01*
X314281Y209796D01*
X314419Y209833D01*
X314558Y209866D01*
X314698Y209896D01*
X314839Y209921D01*
X314981Y209943D01*
X315123Y209960D01*
X315265Y209974D01*
X315408Y209984D01*
X315551Y209990D01*
X315694Y209992D01*
D11*
X301100Y40100D02*
X142600Y40100D01*
X316600Y56100D02*
X316600Y89100D01*
X279600Y45600D02*
X284600Y40600D01*
X279600Y45600D02*
X274600Y40600D01*
X259600Y40600D02*
X254600Y45600D01*
X249600Y40600D01*
X234600Y40600D02*
X229600Y45600D01*
X224600Y40600D01*
X209600Y40600D02*
X204600Y45600D01*
X184600Y40600D02*
X179600Y45600D01*
X199600Y40600D02*
X204600Y45600D01*
X179600Y45600D02*
X174600Y40600D01*
X301100Y40100D02*
X316600Y55600D01*
X316600Y89100D02*
X142600Y89100D01*
X142600Y40100D01*
D10*
X202847Y32192D02*
X202847Y20508D01*
X202847Y32192D02*
X206093Y32192D01*
X206206Y32190D01*
X206319Y32184D01*
X206432Y32174D01*
X206545Y32160D01*
X206657Y32143D01*
X206768Y32121D01*
X206878Y32096D01*
X206988Y32066D01*
X207096Y32033D01*
X207203Y31996D01*
X207309Y31956D01*
X207413Y31911D01*
X207516Y31863D01*
X207617Y31812D01*
X207716Y31757D01*
X207813Y31699D01*
X207908Y31637D01*
X208001Y31572D01*
X208091Y31504D01*
X208179Y31433D01*
X208265Y31358D01*
X208348Y31281D01*
X208428Y31201D01*
X208505Y31118D01*
X208580Y31032D01*
X208651Y30944D01*
X208719Y30854D01*
X208784Y30761D01*
X208846Y30666D01*
X208904Y30569D01*
X208959Y30470D01*
X209010Y30369D01*
X209058Y30266D01*
X209103Y30162D01*
X209143Y30056D01*
X209180Y29949D01*
X209213Y29841D01*
X209243Y29731D01*
X209268Y29621D01*
X209290Y29510D01*
X209307Y29398D01*
X209321Y29285D01*
X209331Y29172D01*
X209337Y29059D01*
X209339Y28946D01*
X209337Y28833D01*
X209331Y28720D01*
X209321Y28607D01*
X209307Y28494D01*
X209290Y28382D01*
X209268Y28271D01*
X209243Y28161D01*
X209213Y28051D01*
X209180Y27943D01*
X209143Y27836D01*
X209103Y27730D01*
X209058Y27626D01*
X209010Y27523D01*
X208959Y27422D01*
X208904Y27323D01*
X208846Y27226D01*
X208784Y27131D01*
X208719Y27038D01*
X208651Y26948D01*
X208580Y26860D01*
X208505Y26774D01*
X208428Y26691D01*
X208348Y26611D01*
X208265Y26534D01*
X208179Y26459D01*
X208091Y26388D01*
X208001Y26320D01*
X207908Y26255D01*
X207813Y26193D01*
X207716Y26135D01*
X207617Y26080D01*
X207516Y26029D01*
X207413Y25981D01*
X207309Y25936D01*
X207203Y25896D01*
X207096Y25859D01*
X206988Y25826D01*
X206878Y25796D01*
X206768Y25771D01*
X206657Y25749D01*
X206545Y25732D01*
X206432Y25718D01*
X206319Y25708D01*
X206206Y25702D01*
X206093Y25700D01*
X206093Y25701D02*
X202847Y25701D01*
X213304Y32192D02*
X215900Y20508D01*
X218497Y28297D01*
X221093Y20508D01*
X223689Y32192D01*
X228660Y32192D02*
X228660Y20508D01*
X228660Y32192D02*
X231905Y32192D01*
X232018Y32190D01*
X232131Y32184D01*
X232244Y32174D01*
X232357Y32160D01*
X232469Y32143D01*
X232580Y32121D01*
X232690Y32096D01*
X232800Y32066D01*
X232908Y32033D01*
X233015Y31996D01*
X233121Y31956D01*
X233225Y31911D01*
X233328Y31863D01*
X233429Y31812D01*
X233528Y31757D01*
X233625Y31699D01*
X233720Y31637D01*
X233813Y31572D01*
X233903Y31504D01*
X233991Y31433D01*
X234077Y31358D01*
X234160Y31281D01*
X234240Y31201D01*
X234317Y31118D01*
X234392Y31032D01*
X234463Y30944D01*
X234531Y30854D01*
X234596Y30761D01*
X234658Y30666D01*
X234716Y30569D01*
X234771Y30470D01*
X234822Y30369D01*
X234870Y30266D01*
X234915Y30162D01*
X234955Y30056D01*
X234992Y29949D01*
X235025Y29841D01*
X235055Y29731D01*
X235080Y29621D01*
X235102Y29510D01*
X235119Y29398D01*
X235133Y29285D01*
X235143Y29172D01*
X235149Y29059D01*
X235151Y28946D01*
X235149Y28833D01*
X235143Y28720D01*
X235133Y28607D01*
X235119Y28494D01*
X235102Y28382D01*
X235080Y28271D01*
X235055Y28161D01*
X235025Y28051D01*
X234992Y27943D01*
X234955Y27836D01*
X234915Y27730D01*
X234870Y27626D01*
X234822Y27523D01*
X234771Y27422D01*
X234716Y27323D01*
X234658Y27226D01*
X234596Y27131D01*
X234531Y27038D01*
X234463Y26948D01*
X234392Y26860D01*
X234317Y26774D01*
X234240Y26691D01*
X234160Y26611D01*
X234077Y26534D01*
X233991Y26459D01*
X233903Y26388D01*
X233813Y26320D01*
X233720Y26255D01*
X233625Y26193D01*
X233528Y26135D01*
X233429Y26080D01*
X233328Y26029D01*
X233225Y25981D01*
X233121Y25936D01*
X233015Y25896D01*
X232908Y25859D01*
X232800Y25826D01*
X232690Y25796D01*
X232580Y25771D01*
X232469Y25749D01*
X232357Y25732D01*
X232244Y25718D01*
X232131Y25708D01*
X232018Y25702D01*
X231905Y25700D01*
X231905Y25701D02*
X228660Y25701D01*
X232554Y25701D02*
X235151Y20508D01*
X239522Y19210D02*
X244715Y19210D01*
X249541Y20508D02*
X249541Y32192D01*
X252787Y32192D01*
X252900Y32190D01*
X253013Y32184D01*
X253126Y32174D01*
X253239Y32160D01*
X253351Y32143D01*
X253462Y32121D01*
X253572Y32096D01*
X253682Y32066D01*
X253790Y32033D01*
X253897Y31996D01*
X254003Y31956D01*
X254107Y31911D01*
X254210Y31863D01*
X254311Y31812D01*
X254410Y31757D01*
X254507Y31699D01*
X254602Y31637D01*
X254695Y31572D01*
X254785Y31504D01*
X254873Y31433D01*
X254959Y31358D01*
X255042Y31281D01*
X255122Y31201D01*
X255199Y31118D01*
X255274Y31032D01*
X255345Y30944D01*
X255413Y30854D01*
X255478Y30761D01*
X255540Y30666D01*
X255598Y30569D01*
X255653Y30470D01*
X255704Y30369D01*
X255752Y30266D01*
X255797Y30162D01*
X255837Y30056D01*
X255874Y29949D01*
X255907Y29841D01*
X255937Y29731D01*
X255962Y29621D01*
X255984Y29510D01*
X256001Y29398D01*
X256015Y29285D01*
X256025Y29172D01*
X256031Y29059D01*
X256033Y28946D01*
X256032Y28946D02*
X256032Y23754D01*
X256033Y23754D02*
X256031Y23641D01*
X256025Y23528D01*
X256015Y23415D01*
X256001Y23302D01*
X255984Y23190D01*
X255962Y23079D01*
X255937Y22969D01*
X255907Y22859D01*
X255874Y22751D01*
X255837Y22644D01*
X255797Y22538D01*
X255752Y22434D01*
X255704Y22331D01*
X255653Y22230D01*
X255598Y22131D01*
X255540Y22034D01*
X255478Y21939D01*
X255413Y21846D01*
X255345Y21756D01*
X255274Y21668D01*
X255199Y21582D01*
X255122Y21499D01*
X255042Y21419D01*
X254959Y21342D01*
X254873Y21267D01*
X254785Y21196D01*
X254695Y21128D01*
X254602Y21063D01*
X254507Y21001D01*
X254410Y20943D01*
X254311Y20888D01*
X254210Y20837D01*
X254107Y20789D01*
X254003Y20744D01*
X253897Y20704D01*
X253790Y20667D01*
X253682Y20634D01*
X253572Y20604D01*
X253462Y20579D01*
X253351Y20557D01*
X253239Y20540D01*
X253126Y20526D01*
X253013Y20516D01*
X252900Y20510D01*
X252787Y20508D01*
X249541Y20508D01*
X260703Y20508D02*
X264598Y32192D01*
X268492Y20508D01*
X267519Y23429D02*
X261677Y23429D01*
X275265Y20508D02*
X275265Y32192D01*
X272020Y32192D02*
X278511Y32192D01*
X285933Y32192D02*
X282039Y20508D01*
X289828Y20508D02*
X285933Y32192D01*
X288854Y23429D02*
X283012Y23429D01*
X293624Y19210D02*
X298817Y19210D01*
X304221Y20508D02*
X304221Y32192D01*
X302923Y20508D02*
X305520Y20508D01*
X305520Y32192D02*
X302923Y32192D01*
X310501Y32192D02*
X310501Y20508D01*
X316992Y20508D02*
X310501Y32192D01*
X316992Y32192D02*
X316992Y20508D01*
X255722Y96708D02*
X251827Y96708D01*
X255722Y96708D02*
X255821Y96710D01*
X255921Y96716D01*
X256020Y96725D01*
X256118Y96738D01*
X256216Y96755D01*
X256314Y96776D01*
X256410Y96801D01*
X256505Y96829D01*
X256599Y96861D01*
X256692Y96896D01*
X256784Y96935D01*
X256874Y96978D01*
X256962Y97023D01*
X257049Y97073D01*
X257133Y97125D01*
X257216Y97181D01*
X257296Y97239D01*
X257374Y97301D01*
X257449Y97366D01*
X257522Y97434D01*
X257592Y97504D01*
X257660Y97577D01*
X257725Y97652D01*
X257787Y97730D01*
X257845Y97810D01*
X257901Y97893D01*
X257953Y97977D01*
X258003Y98064D01*
X258048Y98152D01*
X258091Y98242D01*
X258130Y98334D01*
X258165Y98427D01*
X258197Y98521D01*
X258225Y98616D01*
X258250Y98712D01*
X258271Y98810D01*
X258288Y98908D01*
X258301Y99006D01*
X258310Y99105D01*
X258316Y99205D01*
X258318Y99304D01*
X258318Y100603D01*
X258316Y100702D01*
X258310Y100802D01*
X258301Y100901D01*
X258288Y100999D01*
X258271Y101097D01*
X258250Y101195D01*
X258225Y101291D01*
X258197Y101386D01*
X258165Y101480D01*
X258130Y101573D01*
X258091Y101665D01*
X258048Y101755D01*
X258003Y101843D01*
X257953Y101930D01*
X257901Y102014D01*
X257845Y102097D01*
X257787Y102177D01*
X257725Y102255D01*
X257660Y102330D01*
X257592Y102403D01*
X257522Y102473D01*
X257449Y102541D01*
X257374Y102606D01*
X257296Y102668D01*
X257216Y102726D01*
X257133Y102782D01*
X257049Y102834D01*
X256962Y102884D01*
X256874Y102929D01*
X256784Y102972D01*
X256692Y103011D01*
X256599Y103046D01*
X256505Y103078D01*
X256410Y103106D01*
X256314Y103131D01*
X256216Y103152D01*
X256118Y103169D01*
X256020Y103182D01*
X255921Y103191D01*
X255821Y103197D01*
X255722Y103199D01*
X251827Y103199D01*
X251827Y108392D01*
X258318Y108392D01*
X266827Y108392D02*
X266934Y108390D01*
X267040Y108384D01*
X267146Y108374D01*
X267252Y108361D01*
X267358Y108343D01*
X267462Y108322D01*
X267566Y108297D01*
X267669Y108268D01*
X267770Y108236D01*
X267870Y108199D01*
X267969Y108159D01*
X268067Y108116D01*
X268163Y108069D01*
X268257Y108018D01*
X268349Y107964D01*
X268439Y107907D01*
X268527Y107847D01*
X268612Y107783D01*
X268695Y107716D01*
X268776Y107646D01*
X268854Y107574D01*
X268930Y107498D01*
X269002Y107420D01*
X269072Y107339D01*
X269139Y107256D01*
X269203Y107171D01*
X269263Y107083D01*
X269320Y106993D01*
X269374Y106901D01*
X269425Y106807D01*
X269472Y106711D01*
X269515Y106613D01*
X269555Y106514D01*
X269592Y106414D01*
X269624Y106313D01*
X269653Y106210D01*
X269678Y106106D01*
X269699Y106002D01*
X269717Y105896D01*
X269730Y105790D01*
X269740Y105684D01*
X269746Y105578D01*
X269748Y105471D01*
X266827Y108392D02*
X266706Y108390D01*
X266585Y108384D01*
X266465Y108374D01*
X266344Y108361D01*
X266225Y108343D01*
X266105Y108322D01*
X265987Y108297D01*
X265870Y108268D01*
X265753Y108235D01*
X265638Y108199D01*
X265524Y108158D01*
X265411Y108115D01*
X265299Y108067D01*
X265190Y108016D01*
X265082Y107961D01*
X264975Y107903D01*
X264871Y107842D01*
X264769Y107777D01*
X264669Y107709D01*
X264571Y107638D01*
X264475Y107564D01*
X264382Y107487D01*
X264292Y107406D01*
X264204Y107323D01*
X264119Y107237D01*
X264036Y107148D01*
X263957Y107057D01*
X263880Y106963D01*
X263807Y106867D01*
X263737Y106769D01*
X263670Y106668D01*
X263606Y106565D01*
X263546Y106460D01*
X263489Y106353D01*
X263435Y106245D01*
X263385Y106135D01*
X263339Y106023D01*
X263296Y105910D01*
X263257Y105795D01*
X268775Y103199D02*
X268854Y103276D01*
X268930Y103357D01*
X269003Y103440D01*
X269073Y103525D01*
X269140Y103613D01*
X269204Y103703D01*
X269264Y103795D01*
X269321Y103890D01*
X269375Y103986D01*
X269426Y104084D01*
X269473Y104184D01*
X269517Y104286D01*
X269557Y104389D01*
X269593Y104493D01*
X269625Y104599D01*
X269654Y104705D01*
X269679Y104813D01*
X269701Y104921D01*
X269718Y105031D01*
X269732Y105140D01*
X269741Y105250D01*
X269747Y105361D01*
X269749Y105471D01*
X268774Y103199D02*
X263257Y96708D01*
X269748Y96708D01*
X274687Y103199D02*
X278582Y103199D01*
X278681Y103197D01*
X278781Y103191D01*
X278880Y103182D01*
X278978Y103169D01*
X279076Y103152D01*
X279174Y103131D01*
X279270Y103106D01*
X279365Y103078D01*
X279459Y103046D01*
X279552Y103011D01*
X279644Y102972D01*
X279734Y102929D01*
X279822Y102884D01*
X279909Y102834D01*
X279993Y102782D01*
X280076Y102726D01*
X280156Y102668D01*
X280234Y102606D01*
X280309Y102541D01*
X280382Y102473D01*
X280452Y102403D01*
X280520Y102330D01*
X280585Y102255D01*
X280647Y102177D01*
X280705Y102097D01*
X280761Y102014D01*
X280813Y101930D01*
X280863Y101843D01*
X280908Y101755D01*
X280951Y101665D01*
X280990Y101573D01*
X281025Y101480D01*
X281057Y101386D01*
X281085Y101291D01*
X281110Y101195D01*
X281131Y101097D01*
X281148Y100999D01*
X281161Y100901D01*
X281170Y100802D01*
X281176Y100702D01*
X281178Y100603D01*
X281178Y99954D01*
X281179Y99954D02*
X281177Y99841D01*
X281171Y99728D01*
X281161Y99615D01*
X281147Y99502D01*
X281130Y99390D01*
X281108Y99279D01*
X281083Y99169D01*
X281053Y99059D01*
X281020Y98951D01*
X280983Y98844D01*
X280943Y98738D01*
X280898Y98634D01*
X280850Y98531D01*
X280799Y98430D01*
X280744Y98331D01*
X280686Y98234D01*
X280624Y98139D01*
X280559Y98046D01*
X280491Y97956D01*
X280420Y97868D01*
X280345Y97782D01*
X280268Y97699D01*
X280188Y97619D01*
X280105Y97542D01*
X280019Y97467D01*
X279931Y97396D01*
X279841Y97328D01*
X279748Y97263D01*
X279653Y97201D01*
X279556Y97143D01*
X279457Y97088D01*
X279356Y97037D01*
X279253Y96989D01*
X279149Y96944D01*
X279043Y96904D01*
X278936Y96867D01*
X278828Y96834D01*
X278718Y96804D01*
X278608Y96779D01*
X278497Y96757D01*
X278385Y96740D01*
X278272Y96726D01*
X278159Y96716D01*
X278046Y96710D01*
X277933Y96708D01*
X277820Y96710D01*
X277707Y96716D01*
X277594Y96726D01*
X277481Y96740D01*
X277369Y96757D01*
X277258Y96779D01*
X277148Y96804D01*
X277038Y96834D01*
X276930Y96867D01*
X276823Y96904D01*
X276717Y96944D01*
X276613Y96989D01*
X276510Y97037D01*
X276409Y97088D01*
X276310Y97143D01*
X276213Y97201D01*
X276118Y97263D01*
X276025Y97328D01*
X275935Y97396D01*
X275847Y97467D01*
X275761Y97542D01*
X275678Y97619D01*
X275598Y97699D01*
X275521Y97782D01*
X275446Y97868D01*
X275375Y97956D01*
X275307Y98046D01*
X275242Y98139D01*
X275180Y98234D01*
X275122Y98331D01*
X275067Y98430D01*
X275016Y98531D01*
X274968Y98634D01*
X274923Y98738D01*
X274883Y98844D01*
X274846Y98951D01*
X274813Y99059D01*
X274783Y99169D01*
X274758Y99279D01*
X274736Y99390D01*
X274719Y99502D01*
X274705Y99615D01*
X274695Y99728D01*
X274689Y99841D01*
X274687Y99954D01*
X274687Y103199D01*
X274689Y103342D01*
X274695Y103485D01*
X274705Y103628D01*
X274719Y103770D01*
X274736Y103912D01*
X274758Y104054D01*
X274783Y104195D01*
X274813Y104335D01*
X274846Y104474D01*
X274883Y104612D01*
X274924Y104749D01*
X274968Y104885D01*
X275017Y105020D01*
X275069Y105153D01*
X275124Y105285D01*
X275184Y105415D01*
X275247Y105544D01*
X275313Y105671D01*
X275383Y105795D01*
X275456Y105918D01*
X275533Y106039D01*
X275613Y106158D01*
X275696Y106274D01*
X275782Y106389D01*
X275871Y106500D01*
X275964Y106610D01*
X276059Y106716D01*
X276158Y106820D01*
X276259Y106921D01*
X276363Y107020D01*
X276469Y107115D01*
X276579Y107208D01*
X276690Y107297D01*
X276805Y107383D01*
X276921Y107466D01*
X277040Y107546D01*
X277161Y107623D01*
X277283Y107696D01*
X277408Y107766D01*
X277535Y107832D01*
X277664Y107895D01*
X277794Y107955D01*
X277926Y108010D01*
X278059Y108062D01*
X278194Y108111D01*
X278330Y108155D01*
X278467Y108196D01*
X278605Y108233D01*
X278744Y108266D01*
X278884Y108296D01*
X279025Y108321D01*
X279167Y108343D01*
X279309Y108360D01*
X279451Y108374D01*
X279594Y108384D01*
X279737Y108390D01*
X279880Y108392D01*
X286117Y108392D02*
X286117Y107094D01*
X286117Y108392D02*
X292608Y108392D01*
X289362Y96708D01*
X297660Y101252D02*
X305449Y101252D01*
X310501Y103199D02*
X314396Y103199D01*
X314495Y103197D01*
X314595Y103191D01*
X314694Y103182D01*
X314792Y103169D01*
X314890Y103152D01*
X314988Y103131D01*
X315084Y103106D01*
X315179Y103078D01*
X315273Y103046D01*
X315366Y103011D01*
X315458Y102972D01*
X315548Y102929D01*
X315636Y102884D01*
X315723Y102834D01*
X315807Y102782D01*
X315890Y102726D01*
X315970Y102668D01*
X316048Y102606D01*
X316123Y102541D01*
X316196Y102473D01*
X316266Y102403D01*
X316334Y102330D01*
X316399Y102255D01*
X316461Y102177D01*
X316519Y102097D01*
X316575Y102014D01*
X316627Y101930D01*
X316677Y101843D01*
X316722Y101755D01*
X316765Y101665D01*
X316804Y101573D01*
X316839Y101480D01*
X316871Y101386D01*
X316899Y101291D01*
X316924Y101195D01*
X316945Y101097D01*
X316962Y100999D01*
X316975Y100901D01*
X316984Y100802D01*
X316990Y100702D01*
X316992Y100603D01*
X316992Y99954D01*
X316990Y99841D01*
X316984Y99728D01*
X316974Y99615D01*
X316960Y99502D01*
X316943Y99390D01*
X316921Y99279D01*
X316896Y99169D01*
X316866Y99059D01*
X316833Y98951D01*
X316796Y98844D01*
X316756Y98738D01*
X316711Y98634D01*
X316663Y98531D01*
X316612Y98430D01*
X316557Y98331D01*
X316499Y98234D01*
X316437Y98139D01*
X316372Y98046D01*
X316304Y97956D01*
X316233Y97868D01*
X316158Y97782D01*
X316081Y97699D01*
X316001Y97619D01*
X315918Y97542D01*
X315832Y97467D01*
X315744Y97396D01*
X315654Y97328D01*
X315561Y97263D01*
X315466Y97201D01*
X315369Y97143D01*
X315270Y97088D01*
X315169Y97037D01*
X315066Y96989D01*
X314962Y96944D01*
X314856Y96904D01*
X314749Y96867D01*
X314641Y96834D01*
X314531Y96804D01*
X314421Y96779D01*
X314310Y96757D01*
X314198Y96740D01*
X314085Y96726D01*
X313972Y96716D01*
X313859Y96710D01*
X313746Y96708D01*
X313633Y96710D01*
X313520Y96716D01*
X313407Y96726D01*
X313294Y96740D01*
X313182Y96757D01*
X313071Y96779D01*
X312961Y96804D01*
X312851Y96834D01*
X312743Y96867D01*
X312636Y96904D01*
X312530Y96944D01*
X312426Y96989D01*
X312323Y97037D01*
X312222Y97088D01*
X312123Y97143D01*
X312026Y97201D01*
X311931Y97263D01*
X311838Y97328D01*
X311748Y97396D01*
X311660Y97467D01*
X311574Y97542D01*
X311491Y97619D01*
X311411Y97699D01*
X311334Y97782D01*
X311259Y97868D01*
X311188Y97956D01*
X311120Y98046D01*
X311055Y98139D01*
X310993Y98234D01*
X310935Y98331D01*
X310880Y98430D01*
X310829Y98531D01*
X310781Y98634D01*
X310736Y98738D01*
X310696Y98844D01*
X310659Y98951D01*
X310626Y99059D01*
X310596Y99169D01*
X310571Y99279D01*
X310549Y99390D01*
X310532Y99502D01*
X310518Y99615D01*
X310508Y99728D01*
X310502Y99841D01*
X310500Y99954D01*
X310501Y99954D02*
X310501Y103199D01*
X310503Y103342D01*
X310509Y103485D01*
X310519Y103628D01*
X310533Y103770D01*
X310550Y103912D01*
X310572Y104054D01*
X310597Y104195D01*
X310627Y104335D01*
X310660Y104474D01*
X310697Y104612D01*
X310738Y104749D01*
X310782Y104885D01*
X310831Y105020D01*
X310883Y105153D01*
X310938Y105285D01*
X310998Y105415D01*
X311061Y105544D01*
X311127Y105671D01*
X311197Y105795D01*
X311270Y105918D01*
X311347Y106039D01*
X311427Y106158D01*
X311510Y106274D01*
X311596Y106389D01*
X311685Y106500D01*
X311778Y106610D01*
X311873Y106716D01*
X311972Y106820D01*
X312073Y106921D01*
X312177Y107020D01*
X312283Y107115D01*
X312393Y107208D01*
X312504Y107297D01*
X312619Y107383D01*
X312735Y107466D01*
X312854Y107546D01*
X312975Y107623D01*
X313097Y107696D01*
X313222Y107766D01*
X313349Y107832D01*
X313478Y107895D01*
X313608Y107955D01*
X313740Y108010D01*
X313873Y108062D01*
X314008Y108111D01*
X314144Y108155D01*
X314281Y108196D01*
X314419Y108233D01*
X314558Y108266D01*
X314698Y108296D01*
X314839Y108321D01*
X314981Y108343D01*
X315123Y108360D01*
X315265Y108374D01*
X315408Y108384D01*
X315551Y108390D01*
X315694Y108392D01*
D11*
X301100Y90900D02*
X142600Y90900D01*
X316600Y106900D02*
X316600Y139900D01*
X279600Y96400D02*
X284600Y91400D01*
X279600Y96400D02*
X274600Y91400D01*
X259600Y91400D02*
X254600Y96400D01*
X249600Y91400D01*
X234600Y91400D02*
X229600Y96400D01*
X224600Y91400D01*
X209600Y91400D02*
X204600Y96400D01*
X184600Y91400D02*
X179600Y96400D01*
X199600Y91400D02*
X204600Y96400D01*
X179600Y96400D02*
X174600Y91400D01*
X301100Y90900D02*
X316600Y106400D01*
X316600Y139900D02*
X142600Y139900D01*
X142600Y90900D01*
D10*
X187226Y82992D02*
X187226Y71308D01*
X187226Y82992D02*
X190472Y82992D01*
X190585Y82990D01*
X190698Y82984D01*
X190811Y82974D01*
X190924Y82960D01*
X191036Y82943D01*
X191147Y82921D01*
X191257Y82896D01*
X191367Y82866D01*
X191475Y82833D01*
X191582Y82796D01*
X191688Y82756D01*
X191792Y82711D01*
X191895Y82663D01*
X191996Y82612D01*
X192095Y82557D01*
X192192Y82499D01*
X192287Y82437D01*
X192380Y82372D01*
X192470Y82304D01*
X192558Y82233D01*
X192644Y82158D01*
X192727Y82081D01*
X192807Y82001D01*
X192884Y81918D01*
X192959Y81832D01*
X193030Y81744D01*
X193098Y81654D01*
X193163Y81561D01*
X193225Y81466D01*
X193283Y81369D01*
X193338Y81270D01*
X193389Y81169D01*
X193437Y81066D01*
X193482Y80962D01*
X193522Y80856D01*
X193559Y80749D01*
X193592Y80641D01*
X193622Y80531D01*
X193647Y80421D01*
X193669Y80310D01*
X193686Y80198D01*
X193700Y80085D01*
X193710Y79972D01*
X193716Y79859D01*
X193718Y79746D01*
X193716Y79633D01*
X193710Y79520D01*
X193700Y79407D01*
X193686Y79294D01*
X193669Y79182D01*
X193647Y79071D01*
X193622Y78961D01*
X193592Y78851D01*
X193559Y78743D01*
X193522Y78636D01*
X193482Y78530D01*
X193437Y78426D01*
X193389Y78323D01*
X193338Y78222D01*
X193283Y78123D01*
X193225Y78026D01*
X193163Y77931D01*
X193098Y77838D01*
X193030Y77748D01*
X192959Y77660D01*
X192884Y77574D01*
X192807Y77491D01*
X192727Y77411D01*
X192644Y77334D01*
X192558Y77259D01*
X192470Y77188D01*
X192380Y77120D01*
X192287Y77055D01*
X192192Y76993D01*
X192095Y76935D01*
X191996Y76880D01*
X191895Y76829D01*
X191792Y76781D01*
X191688Y76736D01*
X191582Y76696D01*
X191475Y76659D01*
X191367Y76626D01*
X191257Y76596D01*
X191147Y76571D01*
X191036Y76549D01*
X190924Y76532D01*
X190811Y76518D01*
X190698Y76508D01*
X190585Y76502D01*
X190472Y76500D01*
X190472Y76501D02*
X187226Y76501D01*
X197683Y82992D02*
X200279Y71308D01*
X202876Y79097D01*
X205472Y71308D01*
X208069Y82992D01*
X213039Y82992D02*
X213039Y71308D01*
X213039Y82992D02*
X216284Y82992D01*
X216397Y82990D01*
X216510Y82984D01*
X216623Y82974D01*
X216736Y82960D01*
X216848Y82943D01*
X216959Y82921D01*
X217069Y82896D01*
X217179Y82866D01*
X217287Y82833D01*
X217394Y82796D01*
X217500Y82756D01*
X217604Y82711D01*
X217707Y82663D01*
X217808Y82612D01*
X217907Y82557D01*
X218004Y82499D01*
X218099Y82437D01*
X218192Y82372D01*
X218282Y82304D01*
X218370Y82233D01*
X218456Y82158D01*
X218539Y82081D01*
X218619Y82001D01*
X218696Y81918D01*
X218771Y81832D01*
X218842Y81744D01*
X218910Y81654D01*
X218975Y81561D01*
X219037Y81466D01*
X219095Y81369D01*
X219150Y81270D01*
X219201Y81169D01*
X219249Y81066D01*
X219294Y80962D01*
X219334Y80856D01*
X219371Y80749D01*
X219404Y80641D01*
X219434Y80531D01*
X219459Y80421D01*
X219481Y80310D01*
X219498Y80198D01*
X219512Y80085D01*
X219522Y79972D01*
X219528Y79859D01*
X219530Y79746D01*
X219528Y79633D01*
X219522Y79520D01*
X219512Y79407D01*
X219498Y79294D01*
X219481Y79182D01*
X219459Y79071D01*
X219434Y78961D01*
X219404Y78851D01*
X219371Y78743D01*
X219334Y78636D01*
X219294Y78530D01*
X219249Y78426D01*
X219201Y78323D01*
X219150Y78222D01*
X219095Y78123D01*
X219037Y78026D01*
X218975Y77931D01*
X218910Y77838D01*
X218842Y77748D01*
X218771Y77660D01*
X218696Y77574D01*
X218619Y77491D01*
X218539Y77411D01*
X218456Y77334D01*
X218370Y77259D01*
X218282Y77188D01*
X218192Y77120D01*
X218099Y77055D01*
X218004Y76993D01*
X217907Y76935D01*
X217808Y76880D01*
X217707Y76829D01*
X217604Y76781D01*
X217500Y76736D01*
X217394Y76696D01*
X217287Y76659D01*
X217179Y76626D01*
X217069Y76596D01*
X216959Y76571D01*
X216848Y76549D01*
X216736Y76532D01*
X216623Y76518D01*
X216510Y76508D01*
X216397Y76502D01*
X216284Y76500D01*
X216284Y76501D02*
X213039Y76501D01*
X216933Y76501D02*
X219530Y71308D01*
X223901Y70010D02*
X229094Y70010D01*
X233920Y71308D02*
X233920Y82992D01*
X237166Y82992D01*
X237279Y82990D01*
X237392Y82984D01*
X237505Y82974D01*
X237618Y82960D01*
X237730Y82943D01*
X237841Y82921D01*
X237951Y82896D01*
X238061Y82866D01*
X238169Y82833D01*
X238276Y82796D01*
X238382Y82756D01*
X238486Y82711D01*
X238589Y82663D01*
X238690Y82612D01*
X238789Y82557D01*
X238886Y82499D01*
X238981Y82437D01*
X239074Y82372D01*
X239164Y82304D01*
X239252Y82233D01*
X239338Y82158D01*
X239421Y82081D01*
X239501Y82001D01*
X239578Y81918D01*
X239653Y81832D01*
X239724Y81744D01*
X239792Y81654D01*
X239857Y81561D01*
X239919Y81466D01*
X239977Y81369D01*
X240032Y81270D01*
X240083Y81169D01*
X240131Y81066D01*
X240176Y80962D01*
X240216Y80856D01*
X240253Y80749D01*
X240286Y80641D01*
X240316Y80531D01*
X240341Y80421D01*
X240363Y80310D01*
X240380Y80198D01*
X240394Y80085D01*
X240404Y79972D01*
X240410Y79859D01*
X240412Y79746D01*
X240411Y79746D02*
X240411Y74554D01*
X240412Y74554D02*
X240410Y74441D01*
X240404Y74328D01*
X240394Y74215D01*
X240380Y74102D01*
X240363Y73990D01*
X240341Y73879D01*
X240316Y73769D01*
X240286Y73659D01*
X240253Y73551D01*
X240216Y73444D01*
X240176Y73338D01*
X240131Y73234D01*
X240083Y73131D01*
X240032Y73030D01*
X239977Y72931D01*
X239919Y72834D01*
X239857Y72739D01*
X239792Y72646D01*
X239724Y72556D01*
X239653Y72468D01*
X239578Y72382D01*
X239501Y72299D01*
X239421Y72219D01*
X239338Y72142D01*
X239252Y72067D01*
X239164Y71996D01*
X239074Y71928D01*
X238981Y71863D01*
X238886Y71801D01*
X238789Y71743D01*
X238690Y71688D01*
X238589Y71637D01*
X238486Y71589D01*
X238382Y71544D01*
X238276Y71504D01*
X238169Y71467D01*
X238061Y71434D01*
X237951Y71404D01*
X237841Y71379D01*
X237730Y71357D01*
X237618Y71340D01*
X237505Y71326D01*
X237392Y71316D01*
X237279Y71310D01*
X237166Y71308D01*
X233920Y71308D01*
X245082Y71308D02*
X248977Y82992D01*
X252871Y71308D01*
X251898Y74229D02*
X246056Y74229D01*
X259645Y71308D02*
X259645Y82992D01*
X262890Y82992D02*
X256399Y82992D01*
X270313Y82992D02*
X266418Y71308D01*
X274207Y71308D02*
X270313Y82992D01*
X273234Y74229D02*
X267392Y74229D01*
X278003Y70010D02*
X283196Y70010D01*
X287641Y74554D02*
X287641Y79746D01*
X287643Y79859D01*
X287649Y79972D01*
X287659Y80085D01*
X287673Y80198D01*
X287690Y80310D01*
X287712Y80421D01*
X287737Y80531D01*
X287767Y80641D01*
X287800Y80749D01*
X287837Y80856D01*
X287877Y80962D01*
X287922Y81066D01*
X287970Y81169D01*
X288021Y81270D01*
X288076Y81369D01*
X288134Y81466D01*
X288196Y81561D01*
X288261Y81654D01*
X288329Y81744D01*
X288400Y81832D01*
X288475Y81918D01*
X288552Y82001D01*
X288632Y82081D01*
X288715Y82158D01*
X288801Y82233D01*
X288889Y82304D01*
X288979Y82372D01*
X289072Y82437D01*
X289167Y82499D01*
X289264Y82557D01*
X289363Y82612D01*
X289464Y82663D01*
X289567Y82711D01*
X289671Y82756D01*
X289777Y82796D01*
X289884Y82833D01*
X289992Y82866D01*
X290102Y82896D01*
X290212Y82921D01*
X290323Y82943D01*
X290435Y82960D01*
X290548Y82974D01*
X290661Y82984D01*
X290774Y82990D01*
X290887Y82992D01*
X291000Y82990D01*
X291113Y82984D01*
X291226Y82974D01*
X291339Y82960D01*
X291451Y82943D01*
X291562Y82921D01*
X291672Y82896D01*
X291782Y82866D01*
X291890Y82833D01*
X291997Y82796D01*
X292103Y82756D01*
X292207Y82711D01*
X292310Y82663D01*
X292411Y82612D01*
X292510Y82557D01*
X292607Y82499D01*
X292702Y82437D01*
X292795Y82372D01*
X292885Y82304D01*
X292973Y82233D01*
X293059Y82158D01*
X293142Y82081D01*
X293222Y82001D01*
X293299Y81918D01*
X293374Y81832D01*
X293445Y81744D01*
X293513Y81654D01*
X293578Y81561D01*
X293640Y81466D01*
X293698Y81369D01*
X293753Y81270D01*
X293804Y81169D01*
X293852Y81066D01*
X293897Y80962D01*
X293937Y80856D01*
X293974Y80749D01*
X294007Y80641D01*
X294037Y80531D01*
X294062Y80421D01*
X294084Y80310D01*
X294101Y80198D01*
X294115Y80085D01*
X294125Y79972D01*
X294131Y79859D01*
X294133Y79746D01*
X294132Y79746D02*
X294132Y74554D01*
X294133Y74554D02*
X294131Y74441D01*
X294125Y74328D01*
X294115Y74215D01*
X294101Y74102D01*
X294084Y73990D01*
X294062Y73879D01*
X294037Y73769D01*
X294007Y73659D01*
X293974Y73551D01*
X293937Y73444D01*
X293897Y73338D01*
X293852Y73234D01*
X293804Y73131D01*
X293753Y73030D01*
X293698Y72931D01*
X293640Y72834D01*
X293578Y72739D01*
X293513Y72646D01*
X293445Y72556D01*
X293374Y72468D01*
X293299Y72382D01*
X293222Y72299D01*
X293142Y72219D01*
X293059Y72142D01*
X292973Y72067D01*
X292885Y71996D01*
X292795Y71928D01*
X292702Y71863D01*
X292607Y71801D01*
X292510Y71743D01*
X292411Y71688D01*
X292310Y71637D01*
X292207Y71589D01*
X292103Y71544D01*
X291997Y71504D01*
X291890Y71467D01*
X291782Y71434D01*
X291672Y71404D01*
X291562Y71379D01*
X291451Y71357D01*
X291339Y71340D01*
X291226Y71326D01*
X291113Y71316D01*
X291000Y71310D01*
X290887Y71308D01*
X290774Y71310D01*
X290661Y71316D01*
X290548Y71326D01*
X290435Y71340D01*
X290323Y71357D01*
X290212Y71379D01*
X290102Y71404D01*
X289992Y71434D01*
X289884Y71467D01*
X289777Y71504D01*
X289671Y71544D01*
X289567Y71589D01*
X289464Y71637D01*
X289363Y71688D01*
X289264Y71743D01*
X289167Y71801D01*
X289072Y71863D01*
X288979Y71928D01*
X288889Y71996D01*
X288801Y72067D01*
X288715Y72142D01*
X288632Y72219D01*
X288552Y72299D01*
X288475Y72382D01*
X288400Y72468D01*
X288329Y72556D01*
X288261Y72646D01*
X288196Y72739D01*
X288134Y72834D01*
X288076Y72931D01*
X288021Y73030D01*
X287970Y73131D01*
X287922Y73234D01*
X287877Y73338D01*
X287837Y73444D01*
X287800Y73551D01*
X287767Y73659D01*
X287737Y73769D01*
X287712Y73879D01*
X287690Y73990D01*
X287673Y74102D01*
X287659Y74215D01*
X287649Y74328D01*
X287643Y74441D01*
X287641Y74554D01*
X299452Y74554D02*
X299452Y82992D01*
X299451Y74554D02*
X299453Y74441D01*
X299459Y74328D01*
X299469Y74215D01*
X299483Y74102D01*
X299500Y73990D01*
X299522Y73879D01*
X299547Y73769D01*
X299577Y73659D01*
X299610Y73551D01*
X299647Y73444D01*
X299687Y73338D01*
X299732Y73234D01*
X299780Y73131D01*
X299831Y73030D01*
X299886Y72931D01*
X299944Y72834D01*
X300006Y72739D01*
X300071Y72646D01*
X300139Y72556D01*
X300210Y72468D01*
X300285Y72382D01*
X300362Y72299D01*
X300442Y72219D01*
X300525Y72142D01*
X300611Y72067D01*
X300699Y71996D01*
X300789Y71928D01*
X300882Y71863D01*
X300977Y71801D01*
X301074Y71743D01*
X301173Y71688D01*
X301274Y71637D01*
X301377Y71589D01*
X301481Y71544D01*
X301587Y71504D01*
X301694Y71467D01*
X301802Y71434D01*
X301912Y71404D01*
X302022Y71379D01*
X302133Y71357D01*
X302245Y71340D01*
X302358Y71326D01*
X302471Y71316D01*
X302584Y71310D01*
X302697Y71308D01*
X302810Y71310D01*
X302923Y71316D01*
X303036Y71326D01*
X303149Y71340D01*
X303261Y71357D01*
X303372Y71379D01*
X303482Y71404D01*
X303592Y71434D01*
X303700Y71467D01*
X303807Y71504D01*
X303913Y71544D01*
X304017Y71589D01*
X304120Y71637D01*
X304221Y71688D01*
X304320Y71743D01*
X304417Y71801D01*
X304512Y71863D01*
X304605Y71928D01*
X304695Y71996D01*
X304783Y72067D01*
X304869Y72142D01*
X304952Y72219D01*
X305032Y72299D01*
X305109Y72382D01*
X305184Y72468D01*
X305255Y72556D01*
X305323Y72646D01*
X305388Y72739D01*
X305450Y72834D01*
X305508Y72931D01*
X305563Y73030D01*
X305614Y73131D01*
X305662Y73234D01*
X305707Y73338D01*
X305747Y73444D01*
X305784Y73551D01*
X305817Y73659D01*
X305847Y73769D01*
X305872Y73879D01*
X305894Y73990D01*
X305911Y74102D01*
X305925Y74215D01*
X305935Y74328D01*
X305941Y74441D01*
X305943Y74554D01*
X305943Y82992D01*
X313746Y82992D02*
X313746Y71308D01*
X310501Y82992D02*
X316992Y82992D01*
X255722Y147508D02*
X251827Y147508D01*
X255722Y147508D02*
X255821Y147510D01*
X255921Y147516D01*
X256020Y147525D01*
X256118Y147538D01*
X256216Y147555D01*
X256314Y147576D01*
X256410Y147601D01*
X256505Y147629D01*
X256599Y147661D01*
X256692Y147696D01*
X256784Y147735D01*
X256874Y147778D01*
X256962Y147823D01*
X257049Y147873D01*
X257133Y147925D01*
X257216Y147981D01*
X257296Y148039D01*
X257374Y148101D01*
X257449Y148166D01*
X257522Y148234D01*
X257592Y148304D01*
X257660Y148377D01*
X257725Y148452D01*
X257787Y148530D01*
X257845Y148610D01*
X257901Y148693D01*
X257953Y148777D01*
X258003Y148864D01*
X258048Y148952D01*
X258091Y149042D01*
X258130Y149134D01*
X258165Y149227D01*
X258197Y149321D01*
X258225Y149416D01*
X258250Y149512D01*
X258271Y149610D01*
X258288Y149708D01*
X258301Y149806D01*
X258310Y149905D01*
X258316Y150005D01*
X258318Y150104D01*
X258318Y151403D01*
X258316Y151502D01*
X258310Y151602D01*
X258301Y151701D01*
X258288Y151799D01*
X258271Y151897D01*
X258250Y151995D01*
X258225Y152091D01*
X258197Y152186D01*
X258165Y152280D01*
X258130Y152373D01*
X258091Y152465D01*
X258048Y152555D01*
X258003Y152643D01*
X257953Y152730D01*
X257901Y152814D01*
X257845Y152897D01*
X257787Y152977D01*
X257725Y153055D01*
X257660Y153130D01*
X257592Y153203D01*
X257522Y153273D01*
X257449Y153341D01*
X257374Y153406D01*
X257296Y153468D01*
X257216Y153526D01*
X257133Y153582D01*
X257049Y153634D01*
X256962Y153684D01*
X256874Y153729D01*
X256784Y153772D01*
X256692Y153811D01*
X256599Y153846D01*
X256505Y153878D01*
X256410Y153906D01*
X256314Y153931D01*
X256216Y153952D01*
X256118Y153969D01*
X256020Y153982D01*
X255921Y153991D01*
X255821Y153997D01*
X255722Y153999D01*
X251827Y153999D01*
X251827Y159192D01*
X258318Y159192D01*
X266827Y159192D02*
X266934Y159190D01*
X267040Y159184D01*
X267146Y159174D01*
X267252Y159161D01*
X267358Y159143D01*
X267462Y159122D01*
X267566Y159097D01*
X267669Y159068D01*
X267770Y159036D01*
X267870Y158999D01*
X267969Y158959D01*
X268067Y158916D01*
X268163Y158869D01*
X268257Y158818D01*
X268349Y158764D01*
X268439Y158707D01*
X268527Y158647D01*
X268612Y158583D01*
X268695Y158516D01*
X268776Y158446D01*
X268854Y158374D01*
X268930Y158298D01*
X269002Y158220D01*
X269072Y158139D01*
X269139Y158056D01*
X269203Y157971D01*
X269263Y157883D01*
X269320Y157793D01*
X269374Y157701D01*
X269425Y157607D01*
X269472Y157511D01*
X269515Y157413D01*
X269555Y157314D01*
X269592Y157214D01*
X269624Y157113D01*
X269653Y157010D01*
X269678Y156906D01*
X269699Y156802D01*
X269717Y156696D01*
X269730Y156590D01*
X269740Y156484D01*
X269746Y156378D01*
X269748Y156271D01*
X266827Y159192D02*
X266706Y159190D01*
X266585Y159184D01*
X266465Y159174D01*
X266344Y159161D01*
X266225Y159143D01*
X266105Y159122D01*
X265987Y159097D01*
X265870Y159068D01*
X265753Y159035D01*
X265638Y158999D01*
X265524Y158958D01*
X265411Y158915D01*
X265299Y158867D01*
X265190Y158816D01*
X265082Y158761D01*
X264975Y158703D01*
X264871Y158642D01*
X264769Y158577D01*
X264669Y158509D01*
X264571Y158438D01*
X264475Y158364D01*
X264382Y158287D01*
X264292Y158206D01*
X264204Y158123D01*
X264119Y158037D01*
X264036Y157948D01*
X263957Y157857D01*
X263880Y157763D01*
X263807Y157667D01*
X263737Y157569D01*
X263670Y157468D01*
X263606Y157365D01*
X263546Y157260D01*
X263489Y157153D01*
X263435Y157045D01*
X263385Y156935D01*
X263339Y156823D01*
X263296Y156710D01*
X263257Y156595D01*
X268775Y153999D02*
X268854Y154076D01*
X268930Y154157D01*
X269003Y154240D01*
X269073Y154325D01*
X269140Y154413D01*
X269204Y154503D01*
X269264Y154595D01*
X269321Y154690D01*
X269375Y154786D01*
X269426Y154884D01*
X269473Y154984D01*
X269517Y155086D01*
X269557Y155189D01*
X269593Y155293D01*
X269625Y155399D01*
X269654Y155505D01*
X269679Y155613D01*
X269701Y155721D01*
X269718Y155831D01*
X269732Y155940D01*
X269741Y156050D01*
X269747Y156161D01*
X269749Y156271D01*
X268774Y153999D02*
X263257Y147508D01*
X269748Y147508D01*
X274687Y153999D02*
X278582Y153999D01*
X278681Y153997D01*
X278781Y153991D01*
X278880Y153982D01*
X278978Y153969D01*
X279076Y153952D01*
X279174Y153931D01*
X279270Y153906D01*
X279365Y153878D01*
X279459Y153846D01*
X279552Y153811D01*
X279644Y153772D01*
X279734Y153729D01*
X279822Y153684D01*
X279909Y153634D01*
X279993Y153582D01*
X280076Y153526D01*
X280156Y153468D01*
X280234Y153406D01*
X280309Y153341D01*
X280382Y153273D01*
X280452Y153203D01*
X280520Y153130D01*
X280585Y153055D01*
X280647Y152977D01*
X280705Y152897D01*
X280761Y152814D01*
X280813Y152730D01*
X280863Y152643D01*
X280908Y152555D01*
X280951Y152465D01*
X280990Y152373D01*
X281025Y152280D01*
X281057Y152186D01*
X281085Y152091D01*
X281110Y151995D01*
X281131Y151897D01*
X281148Y151799D01*
X281161Y151701D01*
X281170Y151602D01*
X281176Y151502D01*
X281178Y151403D01*
X281178Y150754D01*
X281179Y150754D02*
X281177Y150641D01*
X281171Y150528D01*
X281161Y150415D01*
X281147Y150302D01*
X281130Y150190D01*
X281108Y150079D01*
X281083Y149969D01*
X281053Y149859D01*
X281020Y149751D01*
X280983Y149644D01*
X280943Y149538D01*
X280898Y149434D01*
X280850Y149331D01*
X280799Y149230D01*
X280744Y149131D01*
X280686Y149034D01*
X280624Y148939D01*
X280559Y148846D01*
X280491Y148756D01*
X280420Y148668D01*
X280345Y148582D01*
X280268Y148499D01*
X280188Y148419D01*
X280105Y148342D01*
X280019Y148267D01*
X279931Y148196D01*
X279841Y148128D01*
X279748Y148063D01*
X279653Y148001D01*
X279556Y147943D01*
X279457Y147888D01*
X279356Y147837D01*
X279253Y147789D01*
X279149Y147744D01*
X279043Y147704D01*
X278936Y147667D01*
X278828Y147634D01*
X278718Y147604D01*
X278608Y147579D01*
X278497Y147557D01*
X278385Y147540D01*
X278272Y147526D01*
X278159Y147516D01*
X278046Y147510D01*
X277933Y147508D01*
X277820Y147510D01*
X277707Y147516D01*
X277594Y147526D01*
X277481Y147540D01*
X277369Y147557D01*
X277258Y147579D01*
X277148Y147604D01*
X277038Y147634D01*
X276930Y147667D01*
X276823Y147704D01*
X276717Y147744D01*
X276613Y147789D01*
X276510Y147837D01*
X276409Y147888D01*
X276310Y147943D01*
X276213Y148001D01*
X276118Y148063D01*
X276025Y148128D01*
X275935Y148196D01*
X275847Y148267D01*
X275761Y148342D01*
X275678Y148419D01*
X275598Y148499D01*
X275521Y148582D01*
X275446Y148668D01*
X275375Y148756D01*
X275307Y148846D01*
X275242Y148939D01*
X275180Y149034D01*
X275122Y149131D01*
X275067Y149230D01*
X275016Y149331D01*
X274968Y149434D01*
X274923Y149538D01*
X274883Y149644D01*
X274846Y149751D01*
X274813Y149859D01*
X274783Y149969D01*
X274758Y150079D01*
X274736Y150190D01*
X274719Y150302D01*
X274705Y150415D01*
X274695Y150528D01*
X274689Y150641D01*
X274687Y150754D01*
X274687Y153999D01*
X274689Y154142D01*
X274695Y154285D01*
X274705Y154428D01*
X274719Y154570D01*
X274736Y154712D01*
X274758Y154854D01*
X274783Y154995D01*
X274813Y155135D01*
X274846Y155274D01*
X274883Y155412D01*
X274924Y155549D01*
X274968Y155685D01*
X275017Y155820D01*
X275069Y155953D01*
X275124Y156085D01*
X275184Y156215D01*
X275247Y156344D01*
X275313Y156471D01*
X275383Y156595D01*
X275456Y156718D01*
X275533Y156839D01*
X275613Y156958D01*
X275696Y157074D01*
X275782Y157189D01*
X275871Y157300D01*
X275964Y157410D01*
X276059Y157516D01*
X276158Y157620D01*
X276259Y157721D01*
X276363Y157820D01*
X276469Y157915D01*
X276579Y158008D01*
X276690Y158097D01*
X276805Y158183D01*
X276921Y158266D01*
X277040Y158346D01*
X277161Y158423D01*
X277283Y158496D01*
X277408Y158566D01*
X277535Y158632D01*
X277664Y158695D01*
X277794Y158755D01*
X277926Y158810D01*
X278059Y158862D01*
X278194Y158911D01*
X278330Y158955D01*
X278467Y158996D01*
X278605Y159033D01*
X278744Y159066D01*
X278884Y159096D01*
X279025Y159121D01*
X279167Y159143D01*
X279309Y159160D01*
X279451Y159174D01*
X279594Y159184D01*
X279737Y159190D01*
X279880Y159192D01*
X286117Y159192D02*
X286117Y157894D01*
X286117Y159192D02*
X292608Y159192D01*
X289362Y147508D01*
X297660Y152052D02*
X305449Y152052D01*
X310501Y153999D02*
X314396Y153999D01*
X314495Y153997D01*
X314595Y153991D01*
X314694Y153982D01*
X314792Y153969D01*
X314890Y153952D01*
X314988Y153931D01*
X315084Y153906D01*
X315179Y153878D01*
X315273Y153846D01*
X315366Y153811D01*
X315458Y153772D01*
X315548Y153729D01*
X315636Y153684D01*
X315723Y153634D01*
X315807Y153582D01*
X315890Y153526D01*
X315970Y153468D01*
X316048Y153406D01*
X316123Y153341D01*
X316196Y153273D01*
X316266Y153203D01*
X316334Y153130D01*
X316399Y153055D01*
X316461Y152977D01*
X316519Y152897D01*
X316575Y152814D01*
X316627Y152730D01*
X316677Y152643D01*
X316722Y152555D01*
X316765Y152465D01*
X316804Y152373D01*
X316839Y152280D01*
X316871Y152186D01*
X316899Y152091D01*
X316924Y151995D01*
X316945Y151897D01*
X316962Y151799D01*
X316975Y151701D01*
X316984Y151602D01*
X316990Y151502D01*
X316992Y151403D01*
X316992Y150754D01*
X316990Y150641D01*
X316984Y150528D01*
X316974Y150415D01*
X316960Y150302D01*
X316943Y150190D01*
X316921Y150079D01*
X316896Y149969D01*
X316866Y149859D01*
X316833Y149751D01*
X316796Y149644D01*
X316756Y149538D01*
X316711Y149434D01*
X316663Y149331D01*
X316612Y149230D01*
X316557Y149131D01*
X316499Y149034D01*
X316437Y148939D01*
X316372Y148846D01*
X316304Y148756D01*
X316233Y148668D01*
X316158Y148582D01*
X316081Y148499D01*
X316001Y148419D01*
X315918Y148342D01*
X315832Y148267D01*
X315744Y148196D01*
X315654Y148128D01*
X315561Y148063D01*
X315466Y148001D01*
X315369Y147943D01*
X315270Y147888D01*
X315169Y147837D01*
X315066Y147789D01*
X314962Y147744D01*
X314856Y147704D01*
X314749Y147667D01*
X314641Y147634D01*
X314531Y147604D01*
X314421Y147579D01*
X314310Y147557D01*
X314198Y147540D01*
X314085Y147526D01*
X313972Y147516D01*
X313859Y147510D01*
X313746Y147508D01*
X313633Y147510D01*
X313520Y147516D01*
X313407Y147526D01*
X313294Y147540D01*
X313182Y147557D01*
X313071Y147579D01*
X312961Y147604D01*
X312851Y147634D01*
X312743Y147667D01*
X312636Y147704D01*
X312530Y147744D01*
X312426Y147789D01*
X312323Y147837D01*
X312222Y147888D01*
X312123Y147943D01*
X312026Y148001D01*
X311931Y148063D01*
X311838Y148128D01*
X311748Y148196D01*
X311660Y148267D01*
X311574Y148342D01*
X311491Y148419D01*
X311411Y148499D01*
X311334Y148582D01*
X311259Y148668D01*
X311188Y148756D01*
X311120Y148846D01*
X311055Y148939D01*
X310993Y149034D01*
X310935Y149131D01*
X310880Y149230D01*
X310829Y149331D01*
X310781Y149434D01*
X310736Y149538D01*
X310696Y149644D01*
X310659Y149751D01*
X310626Y149859D01*
X310596Y149969D01*
X310571Y150079D01*
X310549Y150190D01*
X310532Y150302D01*
X310518Y150415D01*
X310508Y150528D01*
X310502Y150641D01*
X310500Y150754D01*
X310501Y150754D02*
X310501Y153999D01*
X310503Y154142D01*
X310509Y154285D01*
X310519Y154428D01*
X310533Y154570D01*
X310550Y154712D01*
X310572Y154854D01*
X310597Y154995D01*
X310627Y155135D01*
X310660Y155274D01*
X310697Y155412D01*
X310738Y155549D01*
X310782Y155685D01*
X310831Y155820D01*
X310883Y155953D01*
X310938Y156085D01*
X310998Y156215D01*
X311061Y156344D01*
X311127Y156471D01*
X311197Y156595D01*
X311270Y156718D01*
X311347Y156839D01*
X311427Y156958D01*
X311510Y157074D01*
X311596Y157189D01*
X311685Y157300D01*
X311778Y157410D01*
X311873Y157516D01*
X311972Y157620D01*
X312073Y157721D01*
X312177Y157820D01*
X312283Y157915D01*
X312393Y158008D01*
X312504Y158097D01*
X312619Y158183D01*
X312735Y158266D01*
X312854Y158346D01*
X312975Y158423D01*
X313097Y158496D01*
X313222Y158566D01*
X313349Y158632D01*
X313478Y158695D01*
X313608Y158755D01*
X313740Y158810D01*
X313873Y158862D01*
X314008Y158911D01*
X314144Y158955D01*
X314281Y158996D01*
X314419Y159033D01*
X314558Y159066D01*
X314698Y159096D01*
X314839Y159121D01*
X314981Y159143D01*
X315123Y159160D01*
X315265Y159174D01*
X315408Y159184D01*
X315551Y159190D01*
X315694Y159192D01*
D13*
X146304Y165542D02*
X136144Y165542D01*
X16256Y50480D02*
X6096Y50480D01*
X38100Y45654D02*
X38100Y43876D01*
X114300Y172146D02*
X114300Y173924D01*
X38100Y173924D01*
X38100Y172146D01*
X38100Y43876D02*
X73152Y43876D01*
X79248Y43876D01*
X114300Y43876D01*
X114300Y45654D01*
X79248Y43876D02*
X79246Y43985D01*
X79240Y44093D01*
X79231Y44202D01*
X79217Y44310D01*
X79200Y44417D01*
X79178Y44524D01*
X79153Y44630D01*
X79125Y44735D01*
X79092Y44839D01*
X79056Y44941D01*
X79016Y45042D01*
X78973Y45142D01*
X78926Y45240D01*
X78875Y45337D01*
X78821Y45431D01*
X78764Y45524D01*
X78704Y45614D01*
X78640Y45703D01*
X78573Y45789D01*
X78504Y45872D01*
X78431Y45953D01*
X78355Y46031D01*
X78277Y46107D01*
X78196Y46180D01*
X78113Y46249D01*
X78027Y46316D01*
X77938Y46380D01*
X77848Y46440D01*
X77755Y46497D01*
X77661Y46551D01*
X77564Y46602D01*
X77466Y46649D01*
X77366Y46692D01*
X77265Y46732D01*
X77163Y46768D01*
X77059Y46801D01*
X76954Y46829D01*
X76848Y46854D01*
X76741Y46876D01*
X76634Y46893D01*
X76526Y46907D01*
X76417Y46916D01*
X76309Y46922D01*
X76200Y46924D01*
X76091Y46922D01*
X75983Y46916D01*
X75874Y46907D01*
X75766Y46893D01*
X75659Y46876D01*
X75552Y46854D01*
X75446Y46829D01*
X75341Y46801D01*
X75237Y46768D01*
X75135Y46732D01*
X75034Y46692D01*
X74934Y46649D01*
X74836Y46602D01*
X74739Y46551D01*
X74645Y46497D01*
X74552Y46440D01*
X74462Y46380D01*
X74373Y46316D01*
X74287Y46249D01*
X74204Y46180D01*
X74123Y46107D01*
X74045Y46031D01*
X73969Y45953D01*
X73896Y45872D01*
X73827Y45789D01*
X73760Y45703D01*
X73696Y45614D01*
X73636Y45524D01*
X73579Y45431D01*
X73525Y45337D01*
X73474Y45240D01*
X73427Y45142D01*
X73384Y45042D01*
X73344Y44941D01*
X73308Y44839D01*
X73275Y44735D01*
X73247Y44630D01*
X73222Y44524D01*
X73200Y44417D01*
X73183Y44310D01*
X73169Y44202D01*
X73160Y44093D01*
X73154Y43985D01*
X73152Y43876D01*
D14*
X127289Y42408D02*
X127289Y38429D01*
X127289Y42408D02*
X124968Y45393D01*
X127289Y42408D02*
X129611Y45393D01*
X127289Y42408D02*
X123642Y41082D01*
X127289Y42408D02*
X130937Y41082D01*
D15*
X117094Y180528D02*
X117094Y194103D01*
X117092Y194246D01*
X117086Y194388D01*
X117076Y194530D01*
X117063Y194672D01*
X117045Y194814D01*
X117024Y194955D01*
X116999Y195095D01*
X116970Y195235D01*
X116937Y195374D01*
X116900Y195512D01*
X116860Y195648D01*
X116816Y195784D01*
X116768Y195918D01*
X116717Y196051D01*
X116662Y196183D01*
X116603Y196313D01*
X116541Y196441D01*
X116475Y196568D01*
X116406Y196693D01*
X116334Y196816D01*
X116258Y196937D01*
X116179Y197055D01*
X116097Y197172D01*
X116011Y197286D01*
X115923Y197398D01*
X115831Y197507D01*
X115737Y197614D01*
X115640Y197718D01*
X115540Y197820D01*
X115437Y197919D01*
X115331Y198015D01*
X115223Y198108D01*
X115112Y198198D01*
X114999Y198285D01*
X114884Y198368D01*
X114766Y198449D01*
X114646Y198526D01*
X114525Y198601D01*
X114401Y198671D01*
X114275Y198739D01*
X114147Y198803D01*
X114018Y198863D01*
X113887Y198920D01*
X113755Y198973D01*
X113621Y199023D01*
X113486Y199068D01*
X113350Y199111D01*
X113213Y199149D01*
X113074Y199184D01*
X112935Y199215D01*
X112795Y199242D01*
X112655Y199265D01*
X112513Y199285D01*
X112371Y199300D01*
X112229Y199312D01*
X112087Y199320D01*
X111944Y199324D01*
X111802Y199324D01*
X111659Y199320D01*
X111517Y199312D01*
X111375Y199300D01*
X111233Y199285D01*
X111091Y199265D01*
X110951Y199242D01*
X110811Y199215D01*
X110672Y199184D01*
X110533Y199149D01*
X110396Y199111D01*
X110260Y199068D01*
X110125Y199023D01*
X109991Y198973D01*
X109859Y198920D01*
X109728Y198863D01*
X109599Y198803D01*
X109471Y198739D01*
X109345Y198671D01*
X109221Y198601D01*
X109100Y198526D01*
X108980Y198449D01*
X108862Y198368D01*
X108747Y198285D01*
X108634Y198198D01*
X108523Y198108D01*
X108415Y198015D01*
X108309Y197919D01*
X108206Y197820D01*
X108106Y197718D01*
X108009Y197614D01*
X107915Y197507D01*
X107823Y197398D01*
X107735Y197286D01*
X107649Y197172D01*
X107567Y197055D01*
X107488Y196937D01*
X107412Y196816D01*
X107340Y196693D01*
X107271Y196568D01*
X107205Y196441D01*
X107143Y196313D01*
X107084Y196183D01*
X107029Y196051D01*
X106978Y195918D01*
X106930Y195784D01*
X106886Y195648D01*
X106846Y195512D01*
X106809Y195374D01*
X106776Y195235D01*
X106747Y195095D01*
X106722Y194955D01*
X106701Y194814D01*
X106683Y194672D01*
X106670Y194530D01*
X106660Y194388D01*
X106654Y194246D01*
X106652Y194103D01*
X106652Y180528D01*
X98665Y184705D02*
X93444Y180528D01*
X93444Y199324D01*
X98665Y199324D02*
X88223Y199324D01*
D10*
X252000Y404500D02*
X256000Y404500D01*
X256000Y397500D02*
X252000Y397500D01*
X244508Y411508D02*
X244508Y423192D01*
X244508Y411508D02*
X249701Y411508D01*
X254414Y411508D02*
X259607Y411508D01*
X254414Y411508D02*
X254414Y423192D01*
X259607Y423192D01*
X258309Y417999D02*
X254414Y417999D01*
X264297Y423192D02*
X264297Y411508D01*
X264297Y423192D02*
X267543Y423192D01*
X267656Y423190D01*
X267769Y423184D01*
X267882Y423174D01*
X267995Y423160D01*
X268107Y423143D01*
X268218Y423121D01*
X268328Y423096D01*
X268438Y423066D01*
X268546Y423033D01*
X268653Y422996D01*
X268759Y422956D01*
X268863Y422911D01*
X268966Y422863D01*
X269067Y422812D01*
X269166Y422757D01*
X269263Y422699D01*
X269358Y422637D01*
X269451Y422572D01*
X269541Y422504D01*
X269629Y422433D01*
X269715Y422358D01*
X269798Y422281D01*
X269878Y422201D01*
X269955Y422118D01*
X270030Y422032D01*
X270101Y421944D01*
X270169Y421854D01*
X270234Y421761D01*
X270296Y421666D01*
X270354Y421569D01*
X270409Y421470D01*
X270460Y421369D01*
X270508Y421266D01*
X270553Y421162D01*
X270593Y421056D01*
X270630Y420949D01*
X270663Y420841D01*
X270693Y420731D01*
X270718Y420621D01*
X270740Y420510D01*
X270757Y420398D01*
X270771Y420285D01*
X270781Y420172D01*
X270787Y420059D01*
X270789Y419946D01*
X270789Y414754D01*
X270787Y414641D01*
X270781Y414528D01*
X270771Y414415D01*
X270757Y414302D01*
X270740Y414190D01*
X270718Y414079D01*
X270693Y413969D01*
X270663Y413859D01*
X270630Y413751D01*
X270593Y413644D01*
X270553Y413538D01*
X270508Y413434D01*
X270460Y413331D01*
X270409Y413230D01*
X270354Y413131D01*
X270296Y413034D01*
X270234Y412939D01*
X270169Y412846D01*
X270101Y412756D01*
X270030Y412668D01*
X269955Y412582D01*
X269878Y412499D01*
X269798Y412419D01*
X269715Y412342D01*
X269629Y412267D01*
X269541Y412196D01*
X269451Y412128D01*
X269358Y412063D01*
X269263Y412001D01*
X269166Y411943D01*
X269067Y411888D01*
X268966Y411837D01*
X268863Y411789D01*
X268759Y411744D01*
X268653Y411704D01*
X268546Y411667D01*
X268438Y411634D01*
X268328Y411604D01*
X268218Y411579D01*
X268107Y411557D01*
X267995Y411540D01*
X267882Y411526D01*
X267769Y411516D01*
X267656Y411510D01*
X267543Y411508D01*
X264297Y411508D01*
X276108Y420596D02*
X279354Y423192D01*
X279354Y411508D01*
X282599Y411508D02*
X276108Y411508D01*
D16*
X252750Y403875D03*
D10*
X252000Y379100D02*
X256000Y379100D01*
X256000Y372100D02*
X252000Y372100D01*
X244508Y386108D02*
X244508Y397792D01*
X244508Y386108D02*
X249701Y386108D01*
X254414Y386108D02*
X259607Y386108D01*
X254414Y386108D02*
X254414Y397792D01*
X259607Y397792D01*
X258309Y392599D02*
X254414Y392599D01*
X264297Y397792D02*
X264297Y386108D01*
X264297Y397792D02*
X267543Y397792D01*
X267656Y397790D01*
X267769Y397784D01*
X267882Y397774D01*
X267995Y397760D01*
X268107Y397743D01*
X268218Y397721D01*
X268328Y397696D01*
X268438Y397666D01*
X268546Y397633D01*
X268653Y397596D01*
X268759Y397556D01*
X268863Y397511D01*
X268966Y397463D01*
X269067Y397412D01*
X269166Y397357D01*
X269263Y397299D01*
X269358Y397237D01*
X269451Y397172D01*
X269541Y397104D01*
X269629Y397033D01*
X269715Y396958D01*
X269798Y396881D01*
X269878Y396801D01*
X269955Y396718D01*
X270030Y396632D01*
X270101Y396544D01*
X270169Y396454D01*
X270234Y396361D01*
X270296Y396266D01*
X270354Y396169D01*
X270409Y396070D01*
X270460Y395969D01*
X270508Y395866D01*
X270553Y395762D01*
X270593Y395656D01*
X270630Y395549D01*
X270663Y395441D01*
X270693Y395331D01*
X270718Y395221D01*
X270740Y395110D01*
X270757Y394998D01*
X270771Y394885D01*
X270781Y394772D01*
X270787Y394659D01*
X270789Y394546D01*
X270789Y389354D01*
X270787Y389241D01*
X270781Y389128D01*
X270771Y389015D01*
X270757Y388902D01*
X270740Y388790D01*
X270718Y388679D01*
X270693Y388569D01*
X270663Y388459D01*
X270630Y388351D01*
X270593Y388244D01*
X270553Y388138D01*
X270508Y388034D01*
X270460Y387931D01*
X270409Y387830D01*
X270354Y387731D01*
X270296Y387634D01*
X270234Y387539D01*
X270169Y387446D01*
X270101Y387356D01*
X270030Y387268D01*
X269955Y387182D01*
X269878Y387099D01*
X269798Y387019D01*
X269715Y386942D01*
X269629Y386867D01*
X269541Y386796D01*
X269451Y386728D01*
X269358Y386663D01*
X269263Y386601D01*
X269166Y386543D01*
X269067Y386488D01*
X268966Y386437D01*
X268863Y386389D01*
X268759Y386344D01*
X268653Y386304D01*
X268546Y386267D01*
X268438Y386234D01*
X268328Y386204D01*
X268218Y386179D01*
X268107Y386157D01*
X267995Y386140D01*
X267882Y386126D01*
X267769Y386116D01*
X267656Y386110D01*
X267543Y386108D01*
X264297Y386108D01*
X279678Y397792D02*
X279785Y397790D01*
X279891Y397784D01*
X279997Y397774D01*
X280103Y397761D01*
X280209Y397743D01*
X280313Y397722D01*
X280417Y397697D01*
X280520Y397668D01*
X280621Y397636D01*
X280721Y397599D01*
X280820Y397559D01*
X280918Y397516D01*
X281014Y397469D01*
X281108Y397418D01*
X281200Y397364D01*
X281290Y397307D01*
X281378Y397247D01*
X281463Y397183D01*
X281546Y397116D01*
X281627Y397046D01*
X281705Y396974D01*
X281781Y396898D01*
X281853Y396820D01*
X281923Y396739D01*
X281990Y396656D01*
X282054Y396571D01*
X282114Y396483D01*
X282171Y396393D01*
X282225Y396301D01*
X282276Y396207D01*
X282323Y396111D01*
X282366Y396013D01*
X282406Y395914D01*
X282443Y395814D01*
X282475Y395713D01*
X282504Y395610D01*
X282529Y395506D01*
X282550Y395402D01*
X282568Y395296D01*
X282581Y395190D01*
X282591Y395084D01*
X282597Y394978D01*
X282599Y394871D01*
X279678Y397792D02*
X279557Y397790D01*
X279436Y397784D01*
X279316Y397774D01*
X279195Y397761D01*
X279076Y397743D01*
X278956Y397722D01*
X278838Y397697D01*
X278721Y397668D01*
X278604Y397635D01*
X278489Y397599D01*
X278375Y397558D01*
X278262Y397515D01*
X278150Y397467D01*
X278041Y397416D01*
X277933Y397361D01*
X277826Y397303D01*
X277722Y397242D01*
X277620Y397177D01*
X277520Y397109D01*
X277422Y397038D01*
X277326Y396964D01*
X277233Y396887D01*
X277143Y396806D01*
X277055Y396723D01*
X276970Y396637D01*
X276887Y396548D01*
X276808Y396457D01*
X276731Y396363D01*
X276658Y396267D01*
X276588Y396169D01*
X276521Y396068D01*
X276457Y395965D01*
X276397Y395860D01*
X276340Y395753D01*
X276286Y395645D01*
X276236Y395535D01*
X276190Y395423D01*
X276147Y395310D01*
X276108Y395195D01*
X281626Y392599D02*
X281705Y392676D01*
X281781Y392757D01*
X281854Y392840D01*
X281924Y392925D01*
X281991Y393013D01*
X282055Y393103D01*
X282115Y393195D01*
X282172Y393290D01*
X282226Y393386D01*
X282277Y393484D01*
X282324Y393584D01*
X282368Y393686D01*
X282408Y393789D01*
X282444Y393893D01*
X282476Y393999D01*
X282505Y394105D01*
X282530Y394213D01*
X282552Y394321D01*
X282569Y394431D01*
X282583Y394540D01*
X282592Y394650D01*
X282598Y394761D01*
X282600Y394871D01*
X281626Y392599D02*
X276108Y386108D01*
X282599Y386108D01*
D16*
X252750Y378475D03*
D10*
X210058Y407858D02*
X210058Y419542D01*
X213304Y419542D01*
X213417Y419540D01*
X213530Y419534D01*
X213643Y419524D01*
X213756Y419510D01*
X213868Y419493D01*
X213979Y419471D01*
X214089Y419446D01*
X214199Y419416D01*
X214307Y419383D01*
X214414Y419346D01*
X214520Y419306D01*
X214624Y419261D01*
X214727Y419213D01*
X214828Y419162D01*
X214927Y419107D01*
X215024Y419049D01*
X215119Y418987D01*
X215212Y418922D01*
X215302Y418854D01*
X215390Y418783D01*
X215476Y418708D01*
X215559Y418631D01*
X215639Y418551D01*
X215716Y418468D01*
X215791Y418382D01*
X215862Y418294D01*
X215930Y418204D01*
X215995Y418111D01*
X216057Y418016D01*
X216115Y417919D01*
X216170Y417820D01*
X216221Y417719D01*
X216269Y417616D01*
X216314Y417512D01*
X216354Y417406D01*
X216391Y417299D01*
X216424Y417191D01*
X216454Y417081D01*
X216479Y416971D01*
X216501Y416860D01*
X216518Y416748D01*
X216532Y416635D01*
X216542Y416522D01*
X216548Y416409D01*
X216550Y416296D01*
X216548Y416183D01*
X216542Y416070D01*
X216532Y415957D01*
X216518Y415844D01*
X216501Y415732D01*
X216479Y415621D01*
X216454Y415511D01*
X216424Y415401D01*
X216391Y415293D01*
X216354Y415186D01*
X216314Y415080D01*
X216269Y414976D01*
X216221Y414873D01*
X216170Y414772D01*
X216115Y414673D01*
X216057Y414576D01*
X215995Y414481D01*
X215930Y414388D01*
X215862Y414298D01*
X215791Y414210D01*
X215716Y414124D01*
X215639Y414041D01*
X215559Y413961D01*
X215476Y413884D01*
X215390Y413809D01*
X215302Y413738D01*
X215212Y413670D01*
X215119Y413605D01*
X215024Y413543D01*
X214927Y413485D01*
X214828Y413430D01*
X214727Y413379D01*
X214624Y413331D01*
X214520Y413286D01*
X214414Y413246D01*
X214307Y413209D01*
X214199Y413176D01*
X214089Y413146D01*
X213979Y413121D01*
X213868Y413099D01*
X213756Y413082D01*
X213643Y413068D01*
X213530Y413058D01*
X213417Y413052D01*
X213304Y413050D01*
X213304Y413051D02*
X210058Y413051D01*
X213953Y413051D02*
X216549Y407858D01*
X221414Y416946D02*
X224660Y419542D01*
X224660Y407858D01*
X227905Y407858D02*
X221414Y407858D01*
X210058Y394142D02*
X210058Y382458D01*
X210058Y394142D02*
X213304Y394142D01*
X213417Y394140D01*
X213530Y394134D01*
X213643Y394124D01*
X213756Y394110D01*
X213868Y394093D01*
X213979Y394071D01*
X214089Y394046D01*
X214199Y394016D01*
X214307Y393983D01*
X214414Y393946D01*
X214520Y393906D01*
X214624Y393861D01*
X214727Y393813D01*
X214828Y393762D01*
X214927Y393707D01*
X215024Y393649D01*
X215119Y393587D01*
X215212Y393522D01*
X215302Y393454D01*
X215390Y393383D01*
X215476Y393308D01*
X215559Y393231D01*
X215639Y393151D01*
X215716Y393068D01*
X215791Y392982D01*
X215862Y392894D01*
X215930Y392804D01*
X215995Y392711D01*
X216057Y392616D01*
X216115Y392519D01*
X216170Y392420D01*
X216221Y392319D01*
X216269Y392216D01*
X216314Y392112D01*
X216354Y392006D01*
X216391Y391899D01*
X216424Y391791D01*
X216454Y391681D01*
X216479Y391571D01*
X216501Y391460D01*
X216518Y391348D01*
X216532Y391235D01*
X216542Y391122D01*
X216548Y391009D01*
X216550Y390896D01*
X216548Y390783D01*
X216542Y390670D01*
X216532Y390557D01*
X216518Y390444D01*
X216501Y390332D01*
X216479Y390221D01*
X216454Y390111D01*
X216424Y390001D01*
X216391Y389893D01*
X216354Y389786D01*
X216314Y389680D01*
X216269Y389576D01*
X216221Y389473D01*
X216170Y389372D01*
X216115Y389273D01*
X216057Y389176D01*
X215995Y389081D01*
X215930Y388988D01*
X215862Y388898D01*
X215791Y388810D01*
X215716Y388724D01*
X215639Y388641D01*
X215559Y388561D01*
X215476Y388484D01*
X215390Y388409D01*
X215302Y388338D01*
X215212Y388270D01*
X215119Y388205D01*
X215024Y388143D01*
X214927Y388085D01*
X214828Y388030D01*
X214727Y387979D01*
X214624Y387931D01*
X214520Y387886D01*
X214414Y387846D01*
X214307Y387809D01*
X214199Y387776D01*
X214089Y387746D01*
X213979Y387721D01*
X213868Y387699D01*
X213756Y387682D01*
X213643Y387668D01*
X213530Y387658D01*
X213417Y387652D01*
X213304Y387650D01*
X213304Y387651D02*
X210058Y387651D01*
X213953Y387651D02*
X216549Y382458D01*
X227905Y391221D02*
X227903Y391328D01*
X227897Y391434D01*
X227887Y391540D01*
X227874Y391646D01*
X227856Y391752D01*
X227835Y391856D01*
X227810Y391960D01*
X227781Y392063D01*
X227749Y392164D01*
X227712Y392264D01*
X227672Y392363D01*
X227629Y392461D01*
X227582Y392557D01*
X227531Y392651D01*
X227477Y392743D01*
X227420Y392833D01*
X227360Y392921D01*
X227296Y393006D01*
X227229Y393089D01*
X227159Y393170D01*
X227087Y393248D01*
X227011Y393324D01*
X226933Y393396D01*
X226852Y393466D01*
X226769Y393533D01*
X226684Y393597D01*
X226596Y393657D01*
X226506Y393714D01*
X226414Y393768D01*
X226320Y393819D01*
X226224Y393866D01*
X226126Y393909D01*
X226027Y393949D01*
X225927Y393986D01*
X225826Y394018D01*
X225723Y394047D01*
X225619Y394072D01*
X225515Y394093D01*
X225409Y394111D01*
X225303Y394124D01*
X225197Y394134D01*
X225091Y394140D01*
X224984Y394142D01*
X224863Y394140D01*
X224742Y394134D01*
X224622Y394124D01*
X224501Y394111D01*
X224382Y394093D01*
X224262Y394072D01*
X224144Y394047D01*
X224027Y394018D01*
X223910Y393985D01*
X223795Y393949D01*
X223681Y393908D01*
X223568Y393865D01*
X223456Y393817D01*
X223347Y393766D01*
X223239Y393711D01*
X223132Y393653D01*
X223028Y393592D01*
X222926Y393527D01*
X222826Y393459D01*
X222728Y393388D01*
X222632Y393314D01*
X222539Y393237D01*
X222449Y393156D01*
X222361Y393073D01*
X222276Y392987D01*
X222193Y392898D01*
X222114Y392807D01*
X222037Y392713D01*
X221964Y392617D01*
X221894Y392519D01*
X221827Y392418D01*
X221763Y392315D01*
X221703Y392210D01*
X221646Y392103D01*
X221592Y391995D01*
X221542Y391885D01*
X221496Y391773D01*
X221453Y391660D01*
X221414Y391545D01*
X226932Y388949D02*
X227011Y389026D01*
X227087Y389107D01*
X227160Y389190D01*
X227230Y389275D01*
X227297Y389363D01*
X227361Y389453D01*
X227421Y389545D01*
X227478Y389640D01*
X227532Y389736D01*
X227583Y389834D01*
X227630Y389934D01*
X227674Y390036D01*
X227714Y390139D01*
X227750Y390243D01*
X227782Y390349D01*
X227811Y390455D01*
X227836Y390563D01*
X227858Y390671D01*
X227875Y390781D01*
X227889Y390890D01*
X227898Y391000D01*
X227904Y391111D01*
X227906Y391221D01*
X226932Y388949D02*
X221414Y382458D01*
X227905Y382458D01*
X252000Y353700D02*
X256000Y353700D01*
X256000Y346700D02*
X252000Y346700D01*
X244508Y360708D02*
X244508Y372392D01*
X244508Y360708D02*
X249701Y360708D01*
X254414Y360708D02*
X259607Y360708D01*
X254414Y360708D02*
X254414Y372392D01*
X259607Y372392D01*
X258309Y367199D02*
X254414Y367199D01*
X264297Y372392D02*
X264297Y360708D01*
X264297Y372392D02*
X267543Y372392D01*
X267656Y372390D01*
X267769Y372384D01*
X267882Y372374D01*
X267995Y372360D01*
X268107Y372343D01*
X268218Y372321D01*
X268328Y372296D01*
X268438Y372266D01*
X268546Y372233D01*
X268653Y372196D01*
X268759Y372156D01*
X268863Y372111D01*
X268966Y372063D01*
X269067Y372012D01*
X269166Y371957D01*
X269263Y371899D01*
X269358Y371837D01*
X269451Y371772D01*
X269541Y371704D01*
X269629Y371633D01*
X269715Y371558D01*
X269798Y371481D01*
X269878Y371401D01*
X269955Y371318D01*
X270030Y371232D01*
X270101Y371144D01*
X270169Y371054D01*
X270234Y370961D01*
X270296Y370866D01*
X270354Y370769D01*
X270409Y370670D01*
X270460Y370569D01*
X270508Y370466D01*
X270553Y370362D01*
X270593Y370256D01*
X270630Y370149D01*
X270663Y370041D01*
X270693Y369931D01*
X270718Y369821D01*
X270740Y369710D01*
X270757Y369598D01*
X270771Y369485D01*
X270781Y369372D01*
X270787Y369259D01*
X270789Y369146D01*
X270789Y363954D01*
X270787Y363841D01*
X270781Y363728D01*
X270771Y363615D01*
X270757Y363502D01*
X270740Y363390D01*
X270718Y363279D01*
X270693Y363169D01*
X270663Y363059D01*
X270630Y362951D01*
X270593Y362844D01*
X270553Y362738D01*
X270508Y362634D01*
X270460Y362531D01*
X270409Y362430D01*
X270354Y362331D01*
X270296Y362234D01*
X270234Y362139D01*
X270169Y362046D01*
X270101Y361956D01*
X270030Y361868D01*
X269955Y361782D01*
X269878Y361699D01*
X269798Y361619D01*
X269715Y361542D01*
X269629Y361467D01*
X269541Y361396D01*
X269451Y361328D01*
X269358Y361263D01*
X269263Y361201D01*
X269166Y361143D01*
X269067Y361088D01*
X268966Y361037D01*
X268863Y360989D01*
X268759Y360944D01*
X268653Y360904D01*
X268546Y360867D01*
X268438Y360834D01*
X268328Y360804D01*
X268218Y360779D01*
X268107Y360757D01*
X267995Y360740D01*
X267882Y360726D01*
X267769Y360716D01*
X267656Y360710D01*
X267543Y360708D01*
X264297Y360708D01*
X276108Y360708D02*
X279354Y360708D01*
X279467Y360710D01*
X279580Y360716D01*
X279693Y360726D01*
X279806Y360740D01*
X279918Y360757D01*
X280029Y360779D01*
X280139Y360804D01*
X280249Y360834D01*
X280357Y360867D01*
X280464Y360904D01*
X280570Y360944D01*
X280674Y360989D01*
X280777Y361037D01*
X280878Y361088D01*
X280977Y361143D01*
X281074Y361201D01*
X281169Y361263D01*
X281262Y361328D01*
X281352Y361396D01*
X281440Y361467D01*
X281526Y361542D01*
X281609Y361619D01*
X281689Y361699D01*
X281766Y361782D01*
X281841Y361868D01*
X281912Y361956D01*
X281980Y362046D01*
X282045Y362139D01*
X282107Y362234D01*
X282165Y362331D01*
X282220Y362430D01*
X282271Y362531D01*
X282319Y362634D01*
X282364Y362738D01*
X282404Y362844D01*
X282441Y362951D01*
X282474Y363059D01*
X282504Y363169D01*
X282529Y363279D01*
X282551Y363390D01*
X282568Y363502D01*
X282582Y363615D01*
X282592Y363728D01*
X282598Y363841D01*
X282600Y363954D01*
X282598Y364067D01*
X282592Y364180D01*
X282582Y364293D01*
X282568Y364406D01*
X282551Y364518D01*
X282529Y364629D01*
X282504Y364739D01*
X282474Y364849D01*
X282441Y364957D01*
X282404Y365064D01*
X282364Y365170D01*
X282319Y365274D01*
X282271Y365377D01*
X282220Y365478D01*
X282165Y365577D01*
X282107Y365674D01*
X282045Y365769D01*
X281980Y365862D01*
X281912Y365952D01*
X281841Y366040D01*
X281766Y366126D01*
X281689Y366209D01*
X281609Y366289D01*
X281526Y366366D01*
X281440Y366441D01*
X281352Y366512D01*
X281262Y366580D01*
X281169Y366645D01*
X281074Y366707D01*
X280977Y366765D01*
X280878Y366820D01*
X280777Y366871D01*
X280674Y366919D01*
X280570Y366964D01*
X280464Y367004D01*
X280357Y367041D01*
X280249Y367074D01*
X280139Y367104D01*
X280029Y367129D01*
X279918Y367151D01*
X279806Y367168D01*
X279693Y367182D01*
X279580Y367192D01*
X279467Y367198D01*
X279354Y367200D01*
X280003Y372392D02*
X276108Y372392D01*
X280003Y372392D02*
X280104Y372390D01*
X280204Y372384D01*
X280304Y372374D01*
X280404Y372361D01*
X280503Y372343D01*
X280602Y372322D01*
X280699Y372297D01*
X280796Y372268D01*
X280891Y372235D01*
X280985Y372199D01*
X281077Y372159D01*
X281168Y372116D01*
X281257Y372069D01*
X281344Y372019D01*
X281430Y371965D01*
X281513Y371908D01*
X281593Y371848D01*
X281672Y371785D01*
X281748Y371718D01*
X281821Y371649D01*
X281891Y371577D01*
X281959Y371503D01*
X282024Y371426D01*
X282085Y371346D01*
X282144Y371264D01*
X282199Y371180D01*
X282251Y371094D01*
X282300Y371006D01*
X282345Y370916D01*
X282387Y370824D01*
X282425Y370731D01*
X282459Y370636D01*
X282490Y370541D01*
X282517Y370444D01*
X282540Y370346D01*
X282560Y370247D01*
X282575Y370147D01*
X282587Y370047D01*
X282595Y369947D01*
X282599Y369846D01*
X282599Y369746D01*
X282595Y369645D01*
X282587Y369545D01*
X282575Y369445D01*
X282560Y369345D01*
X282540Y369246D01*
X282517Y369148D01*
X282490Y369051D01*
X282459Y368956D01*
X282425Y368861D01*
X282387Y368768D01*
X282345Y368676D01*
X282300Y368586D01*
X282251Y368498D01*
X282199Y368412D01*
X282144Y368328D01*
X282085Y368246D01*
X282024Y368166D01*
X281959Y368089D01*
X281891Y368015D01*
X281821Y367943D01*
X281748Y367874D01*
X281672Y367807D01*
X281593Y367744D01*
X281513Y367684D01*
X281430Y367627D01*
X281344Y367573D01*
X281257Y367523D01*
X281168Y367476D01*
X281077Y367433D01*
X280985Y367393D01*
X280891Y367357D01*
X280796Y367324D01*
X280699Y367295D01*
X280602Y367270D01*
X280503Y367249D01*
X280404Y367231D01*
X280304Y367218D01*
X280204Y367208D01*
X280104Y367202D01*
X280003Y367200D01*
X280003Y367199D02*
X277407Y367199D01*
D16*
X252750Y353075D03*
D10*
X210058Y357058D02*
X210058Y368742D01*
X213304Y368742D01*
X213417Y368740D01*
X213530Y368734D01*
X213643Y368724D01*
X213756Y368710D01*
X213868Y368693D01*
X213979Y368671D01*
X214089Y368646D01*
X214199Y368616D01*
X214307Y368583D01*
X214414Y368546D01*
X214520Y368506D01*
X214624Y368461D01*
X214727Y368413D01*
X214828Y368362D01*
X214927Y368307D01*
X215024Y368249D01*
X215119Y368187D01*
X215212Y368122D01*
X215302Y368054D01*
X215390Y367983D01*
X215476Y367908D01*
X215559Y367831D01*
X215639Y367751D01*
X215716Y367668D01*
X215791Y367582D01*
X215862Y367494D01*
X215930Y367404D01*
X215995Y367311D01*
X216057Y367216D01*
X216115Y367119D01*
X216170Y367020D01*
X216221Y366919D01*
X216269Y366816D01*
X216314Y366712D01*
X216354Y366606D01*
X216391Y366499D01*
X216424Y366391D01*
X216454Y366281D01*
X216479Y366171D01*
X216501Y366060D01*
X216518Y365948D01*
X216532Y365835D01*
X216542Y365722D01*
X216548Y365609D01*
X216550Y365496D01*
X216548Y365383D01*
X216542Y365270D01*
X216532Y365157D01*
X216518Y365044D01*
X216501Y364932D01*
X216479Y364821D01*
X216454Y364711D01*
X216424Y364601D01*
X216391Y364493D01*
X216354Y364386D01*
X216314Y364280D01*
X216269Y364176D01*
X216221Y364073D01*
X216170Y363972D01*
X216115Y363873D01*
X216057Y363776D01*
X215995Y363681D01*
X215930Y363588D01*
X215862Y363498D01*
X215791Y363410D01*
X215716Y363324D01*
X215639Y363241D01*
X215559Y363161D01*
X215476Y363084D01*
X215390Y363009D01*
X215302Y362938D01*
X215212Y362870D01*
X215119Y362805D01*
X215024Y362743D01*
X214927Y362685D01*
X214828Y362630D01*
X214727Y362579D01*
X214624Y362531D01*
X214520Y362486D01*
X214414Y362446D01*
X214307Y362409D01*
X214199Y362376D01*
X214089Y362346D01*
X213979Y362321D01*
X213868Y362299D01*
X213756Y362282D01*
X213643Y362268D01*
X213530Y362258D01*
X213417Y362252D01*
X213304Y362250D01*
X213304Y362251D02*
X210058Y362251D01*
X213953Y362251D02*
X216549Y357058D01*
X221414Y357058D02*
X224660Y357058D01*
X224773Y357060D01*
X224886Y357066D01*
X224999Y357076D01*
X225112Y357090D01*
X225224Y357107D01*
X225335Y357129D01*
X225445Y357154D01*
X225555Y357184D01*
X225663Y357217D01*
X225770Y357254D01*
X225876Y357294D01*
X225980Y357339D01*
X226083Y357387D01*
X226184Y357438D01*
X226283Y357493D01*
X226380Y357551D01*
X226475Y357613D01*
X226568Y357678D01*
X226658Y357746D01*
X226746Y357817D01*
X226832Y357892D01*
X226915Y357969D01*
X226995Y358049D01*
X227072Y358132D01*
X227147Y358218D01*
X227218Y358306D01*
X227286Y358396D01*
X227351Y358489D01*
X227413Y358584D01*
X227471Y358681D01*
X227526Y358780D01*
X227577Y358881D01*
X227625Y358984D01*
X227670Y359088D01*
X227710Y359194D01*
X227747Y359301D01*
X227780Y359409D01*
X227810Y359519D01*
X227835Y359629D01*
X227857Y359740D01*
X227874Y359852D01*
X227888Y359965D01*
X227898Y360078D01*
X227904Y360191D01*
X227906Y360304D01*
X227904Y360417D01*
X227898Y360530D01*
X227888Y360643D01*
X227874Y360756D01*
X227857Y360868D01*
X227835Y360979D01*
X227810Y361089D01*
X227780Y361199D01*
X227747Y361307D01*
X227710Y361414D01*
X227670Y361520D01*
X227625Y361624D01*
X227577Y361727D01*
X227526Y361828D01*
X227471Y361927D01*
X227413Y362024D01*
X227351Y362119D01*
X227286Y362212D01*
X227218Y362302D01*
X227147Y362390D01*
X227072Y362476D01*
X226995Y362559D01*
X226915Y362639D01*
X226832Y362716D01*
X226746Y362791D01*
X226658Y362862D01*
X226568Y362930D01*
X226475Y362995D01*
X226380Y363057D01*
X226283Y363115D01*
X226184Y363170D01*
X226083Y363221D01*
X225980Y363269D01*
X225876Y363314D01*
X225770Y363354D01*
X225663Y363391D01*
X225555Y363424D01*
X225445Y363454D01*
X225335Y363479D01*
X225224Y363501D01*
X225112Y363518D01*
X224999Y363532D01*
X224886Y363542D01*
X224773Y363548D01*
X224660Y363550D01*
X225309Y368742D02*
X221414Y368742D01*
X225309Y368742D02*
X225410Y368740D01*
X225510Y368734D01*
X225610Y368724D01*
X225710Y368711D01*
X225809Y368693D01*
X225908Y368672D01*
X226005Y368647D01*
X226102Y368618D01*
X226197Y368585D01*
X226291Y368549D01*
X226383Y368509D01*
X226474Y368466D01*
X226563Y368419D01*
X226650Y368369D01*
X226736Y368315D01*
X226819Y368258D01*
X226899Y368198D01*
X226978Y368135D01*
X227054Y368068D01*
X227127Y367999D01*
X227197Y367927D01*
X227265Y367853D01*
X227330Y367776D01*
X227391Y367696D01*
X227450Y367614D01*
X227505Y367530D01*
X227557Y367444D01*
X227606Y367356D01*
X227651Y367266D01*
X227693Y367174D01*
X227731Y367081D01*
X227765Y366986D01*
X227796Y366891D01*
X227823Y366794D01*
X227846Y366696D01*
X227866Y366597D01*
X227881Y366497D01*
X227893Y366397D01*
X227901Y366297D01*
X227905Y366196D01*
X227905Y366096D01*
X227901Y365995D01*
X227893Y365895D01*
X227881Y365795D01*
X227866Y365695D01*
X227846Y365596D01*
X227823Y365498D01*
X227796Y365401D01*
X227765Y365306D01*
X227731Y365211D01*
X227693Y365118D01*
X227651Y365026D01*
X227606Y364936D01*
X227557Y364848D01*
X227505Y364762D01*
X227450Y364678D01*
X227391Y364596D01*
X227330Y364516D01*
X227265Y364439D01*
X227197Y364365D01*
X227127Y364293D01*
X227054Y364224D01*
X226978Y364157D01*
X226899Y364094D01*
X226819Y364034D01*
X226736Y363977D01*
X226650Y363923D01*
X226563Y363873D01*
X226474Y363826D01*
X226383Y363783D01*
X226291Y363743D01*
X226197Y363707D01*
X226102Y363674D01*
X226005Y363645D01*
X225908Y363620D01*
X225809Y363599D01*
X225710Y363581D01*
X225610Y363568D01*
X225510Y363558D01*
X225410Y363552D01*
X225309Y363550D01*
X225309Y363549D02*
X222713Y363549D01*
D13*
X107950Y388300D02*
X95250Y388300D01*
X88900Y394650D01*
X88900Y407350D02*
X95250Y413700D01*
X88900Y394650D02*
X82550Y388300D01*
X69850Y388300D01*
X63500Y394650D01*
X63500Y407350D02*
X69850Y413700D01*
X82550Y413700D01*
X88900Y407350D01*
X114300Y407350D02*
X114300Y394650D01*
X107950Y388300D01*
X114300Y407350D02*
X107950Y413700D01*
X95250Y413700D01*
X63500Y394650D02*
X57150Y388300D01*
X44450Y388300D01*
X38100Y394650D01*
X38100Y407350D02*
X44450Y413700D01*
X57150Y413700D01*
X63500Y407350D01*
X38100Y407350D02*
X38100Y394650D01*
D11*
X37465Y374965D02*
X37463Y374865D01*
X37457Y374766D01*
X37447Y374666D01*
X37434Y374568D01*
X37416Y374469D01*
X37395Y374372D01*
X37370Y374276D01*
X37341Y374180D01*
X37308Y374086D01*
X37272Y373993D01*
X37232Y373902D01*
X37188Y373812D01*
X37141Y373724D01*
X37091Y373638D01*
X37037Y373554D01*
X36980Y373472D01*
X36920Y373393D01*
X36856Y373315D01*
X36790Y373241D01*
X36721Y373169D01*
X36649Y373100D01*
X36575Y373034D01*
X36497Y372970D01*
X36418Y372910D01*
X36336Y372853D01*
X36252Y372799D01*
X36166Y372749D01*
X36078Y372702D01*
X35988Y372658D01*
X35897Y372618D01*
X35804Y372582D01*
X35710Y372549D01*
X35614Y372520D01*
X35518Y372495D01*
X35421Y372474D01*
X35322Y372456D01*
X35224Y372443D01*
X35124Y372433D01*
X35025Y372427D01*
X34925Y372425D01*
X34784Y372427D01*
X34643Y372432D01*
X34502Y372442D01*
X34361Y372455D01*
X34221Y372471D01*
X34081Y372492D01*
X33942Y372516D01*
X33803Y372544D01*
X33666Y372575D01*
X33529Y372610D01*
X33393Y372648D01*
X33258Y372690D01*
X33125Y372736D01*
X32992Y372785D01*
X32861Y372838D01*
X32732Y372894D01*
X32603Y372953D01*
X32477Y373016D01*
X32352Y373082D01*
X32229Y373151D01*
X32108Y373224D01*
X31989Y373300D01*
X31871Y373379D01*
X31756Y373460D01*
X31644Y373545D01*
X31533Y373633D01*
X31425Y373724D01*
X31319Y373817D01*
X31216Y373914D01*
X31115Y374013D01*
X31433Y381315D02*
X31435Y381415D01*
X31441Y381514D01*
X31451Y381614D01*
X31464Y381712D01*
X31482Y381811D01*
X31503Y381908D01*
X31528Y382004D01*
X31557Y382100D01*
X31590Y382194D01*
X31626Y382287D01*
X31666Y382378D01*
X31710Y382468D01*
X31757Y382556D01*
X31807Y382642D01*
X31861Y382726D01*
X31918Y382808D01*
X31978Y382887D01*
X32042Y382965D01*
X32108Y383039D01*
X32177Y383111D01*
X32249Y383180D01*
X32323Y383246D01*
X32401Y383310D01*
X32480Y383370D01*
X32562Y383427D01*
X32646Y383481D01*
X32732Y383531D01*
X32820Y383578D01*
X32910Y383622D01*
X33001Y383662D01*
X33094Y383698D01*
X33188Y383731D01*
X33284Y383760D01*
X33380Y383785D01*
X33477Y383806D01*
X33576Y383824D01*
X33674Y383837D01*
X33774Y383847D01*
X33873Y383853D01*
X33973Y383855D01*
X33973Y383856D02*
X34106Y383854D01*
X34239Y383849D01*
X34372Y383839D01*
X34505Y383826D01*
X34637Y383809D01*
X34769Y383789D01*
X34900Y383765D01*
X35030Y383737D01*
X35160Y383706D01*
X35288Y383671D01*
X35416Y383632D01*
X35542Y383590D01*
X35667Y383544D01*
X35791Y383495D01*
X35914Y383443D01*
X36035Y383387D01*
X36154Y383327D01*
X36272Y383265D01*
X36387Y383199D01*
X36501Y383130D01*
X36613Y383057D01*
X36723Y382982D01*
X36831Y382903D01*
X32702Y379092D02*
X32618Y379144D01*
X32535Y379199D01*
X32455Y379258D01*
X32377Y379319D01*
X32302Y379383D01*
X32229Y379451D01*
X32158Y379521D01*
X32091Y379593D01*
X32026Y379668D01*
X31964Y379746D01*
X31905Y379826D01*
X31849Y379908D01*
X31797Y379992D01*
X31748Y380078D01*
X31702Y380166D01*
X31659Y380256D01*
X31620Y380347D01*
X31585Y380440D01*
X31553Y380534D01*
X31525Y380629D01*
X31500Y380725D01*
X31480Y380822D01*
X31462Y380920D01*
X31449Y381018D01*
X31440Y381117D01*
X31434Y381216D01*
X31432Y381315D01*
X36195Y377188D02*
X36279Y377136D01*
X36362Y377081D01*
X36442Y377022D01*
X36520Y376961D01*
X36595Y376897D01*
X36668Y376829D01*
X36739Y376759D01*
X36806Y376687D01*
X36871Y376612D01*
X36933Y376534D01*
X36992Y376454D01*
X37048Y376372D01*
X37100Y376288D01*
X37149Y376202D01*
X37195Y376114D01*
X37238Y376024D01*
X37277Y375933D01*
X37312Y375840D01*
X37344Y375746D01*
X37372Y375651D01*
X37397Y375555D01*
X37417Y375458D01*
X37435Y375360D01*
X37448Y375262D01*
X37457Y375163D01*
X37463Y375064D01*
X37465Y374965D01*
X36195Y377188D02*
X32703Y379093D01*
X42570Y372425D02*
X47650Y372425D01*
X42570Y372425D02*
X42570Y383855D01*
X47650Y383855D01*
X46380Y378775D02*
X42570Y378775D01*
X52451Y383855D02*
X52451Y372425D01*
X58801Y372425D02*
X52451Y383855D01*
X58801Y383855D02*
X58801Y372425D01*
X67691Y372425D02*
X67791Y372427D01*
X67890Y372433D01*
X67990Y372443D01*
X68088Y372456D01*
X68187Y372474D01*
X68284Y372495D01*
X68380Y372520D01*
X68476Y372549D01*
X68570Y372582D01*
X68663Y372618D01*
X68754Y372658D01*
X68844Y372702D01*
X68932Y372749D01*
X69018Y372799D01*
X69102Y372853D01*
X69184Y372910D01*
X69263Y372970D01*
X69341Y373034D01*
X69415Y373100D01*
X69487Y373169D01*
X69556Y373241D01*
X69622Y373315D01*
X69686Y373393D01*
X69746Y373472D01*
X69803Y373554D01*
X69857Y373638D01*
X69907Y373724D01*
X69954Y373812D01*
X69998Y373902D01*
X70038Y373993D01*
X70074Y374086D01*
X70107Y374180D01*
X70136Y374276D01*
X70161Y374372D01*
X70182Y374469D01*
X70200Y374568D01*
X70213Y374666D01*
X70223Y374766D01*
X70229Y374865D01*
X70231Y374965D01*
X67691Y372425D02*
X67550Y372427D01*
X67409Y372432D01*
X67268Y372442D01*
X67127Y372455D01*
X66987Y372471D01*
X66847Y372492D01*
X66708Y372516D01*
X66569Y372544D01*
X66432Y372575D01*
X66295Y372610D01*
X66159Y372648D01*
X66024Y372690D01*
X65891Y372736D01*
X65758Y372785D01*
X65627Y372838D01*
X65498Y372894D01*
X65369Y372953D01*
X65243Y373016D01*
X65118Y373082D01*
X64995Y373151D01*
X64874Y373224D01*
X64755Y373300D01*
X64637Y373379D01*
X64522Y373460D01*
X64410Y373545D01*
X64299Y373633D01*
X64191Y373724D01*
X64085Y373817D01*
X63982Y373914D01*
X63881Y374013D01*
X64199Y381315D02*
X64201Y381415D01*
X64207Y381514D01*
X64217Y381614D01*
X64230Y381712D01*
X64248Y381811D01*
X64269Y381908D01*
X64294Y382004D01*
X64323Y382100D01*
X64356Y382194D01*
X64392Y382287D01*
X64432Y382378D01*
X64476Y382468D01*
X64523Y382556D01*
X64573Y382642D01*
X64627Y382726D01*
X64684Y382808D01*
X64744Y382887D01*
X64808Y382965D01*
X64874Y383039D01*
X64943Y383111D01*
X65015Y383180D01*
X65089Y383246D01*
X65167Y383310D01*
X65246Y383370D01*
X65328Y383427D01*
X65412Y383481D01*
X65498Y383531D01*
X65586Y383578D01*
X65676Y383622D01*
X65767Y383662D01*
X65860Y383698D01*
X65954Y383731D01*
X66050Y383760D01*
X66146Y383785D01*
X66243Y383806D01*
X66342Y383824D01*
X66440Y383837D01*
X66540Y383847D01*
X66639Y383853D01*
X66739Y383855D01*
X66739Y383856D02*
X66872Y383854D01*
X67005Y383849D01*
X67138Y383839D01*
X67271Y383826D01*
X67403Y383809D01*
X67535Y383789D01*
X67666Y383765D01*
X67796Y383737D01*
X67926Y383706D01*
X68054Y383671D01*
X68182Y383632D01*
X68308Y383590D01*
X68433Y383544D01*
X68557Y383495D01*
X68680Y383443D01*
X68801Y383387D01*
X68920Y383327D01*
X69038Y383265D01*
X69153Y383199D01*
X69267Y383130D01*
X69379Y383057D01*
X69489Y382982D01*
X69597Y382903D01*
X65468Y379092D02*
X65384Y379144D01*
X65301Y379199D01*
X65221Y379258D01*
X65143Y379319D01*
X65068Y379383D01*
X64995Y379451D01*
X64924Y379521D01*
X64857Y379593D01*
X64792Y379668D01*
X64730Y379746D01*
X64671Y379826D01*
X64615Y379908D01*
X64563Y379992D01*
X64514Y380078D01*
X64468Y380166D01*
X64425Y380256D01*
X64386Y380347D01*
X64351Y380440D01*
X64319Y380534D01*
X64291Y380629D01*
X64266Y380725D01*
X64246Y380822D01*
X64228Y380920D01*
X64215Y381018D01*
X64206Y381117D01*
X64200Y381216D01*
X64198Y381315D01*
X68961Y377188D02*
X69045Y377136D01*
X69128Y377081D01*
X69208Y377022D01*
X69286Y376961D01*
X69361Y376897D01*
X69434Y376829D01*
X69505Y376759D01*
X69572Y376687D01*
X69637Y376612D01*
X69699Y376534D01*
X69758Y376454D01*
X69814Y376372D01*
X69866Y376288D01*
X69915Y376202D01*
X69961Y376114D01*
X70004Y376024D01*
X70043Y375933D01*
X70078Y375840D01*
X70110Y375746D01*
X70138Y375651D01*
X70163Y375555D01*
X70183Y375458D01*
X70201Y375360D01*
X70214Y375262D01*
X70223Y375163D01*
X70229Y375064D01*
X70231Y374965D01*
X68961Y377188D02*
X65469Y379093D01*
X74930Y380680D02*
X74930Y375600D01*
X74930Y380680D02*
X74932Y380791D01*
X74938Y380901D01*
X74947Y381012D01*
X74961Y381122D01*
X74978Y381231D01*
X74999Y381340D01*
X75024Y381448D01*
X75053Y381555D01*
X75085Y381661D01*
X75121Y381766D01*
X75161Y381869D01*
X75204Y381971D01*
X75251Y382072D01*
X75302Y382171D01*
X75355Y382268D01*
X75412Y382362D01*
X75473Y382455D01*
X75536Y382546D01*
X75603Y382635D01*
X75673Y382721D01*
X75746Y382804D01*
X75821Y382886D01*
X75899Y382964D01*
X75981Y383039D01*
X76064Y383112D01*
X76150Y383182D01*
X76239Y383249D01*
X76330Y383312D01*
X76423Y383373D01*
X76518Y383430D01*
X76614Y383483D01*
X76713Y383534D01*
X76814Y383581D01*
X76916Y383624D01*
X77019Y383664D01*
X77124Y383700D01*
X77230Y383732D01*
X77337Y383761D01*
X77445Y383786D01*
X77554Y383807D01*
X77663Y383824D01*
X77773Y383838D01*
X77884Y383847D01*
X77994Y383853D01*
X78105Y383855D01*
X78216Y383853D01*
X78326Y383847D01*
X78437Y383838D01*
X78547Y383824D01*
X78656Y383807D01*
X78765Y383786D01*
X78873Y383761D01*
X78980Y383732D01*
X79086Y383700D01*
X79191Y383664D01*
X79294Y383624D01*
X79396Y383581D01*
X79497Y383534D01*
X79596Y383483D01*
X79693Y383430D01*
X79787Y383373D01*
X79880Y383312D01*
X79971Y383249D01*
X80060Y383182D01*
X80146Y383112D01*
X80229Y383039D01*
X80311Y382964D01*
X80389Y382886D01*
X80464Y382804D01*
X80537Y382721D01*
X80607Y382635D01*
X80674Y382546D01*
X80737Y382455D01*
X80798Y382362D01*
X80855Y382268D01*
X80908Y382171D01*
X80959Y382072D01*
X81006Y381971D01*
X81049Y381869D01*
X81089Y381766D01*
X81125Y381661D01*
X81157Y381555D01*
X81186Y381448D01*
X81211Y381340D01*
X81232Y381231D01*
X81249Y381122D01*
X81263Y381012D01*
X81272Y380901D01*
X81278Y380791D01*
X81280Y380680D01*
X81280Y375600D01*
X81278Y375489D01*
X81272Y375379D01*
X81263Y375268D01*
X81249Y375158D01*
X81232Y375049D01*
X81211Y374940D01*
X81186Y374832D01*
X81157Y374725D01*
X81125Y374619D01*
X81089Y374514D01*
X81049Y374411D01*
X81006Y374309D01*
X80959Y374208D01*
X80908Y374109D01*
X80855Y374012D01*
X80798Y373918D01*
X80737Y373825D01*
X80674Y373734D01*
X80607Y373645D01*
X80537Y373559D01*
X80464Y373476D01*
X80389Y373394D01*
X80311Y373316D01*
X80229Y373241D01*
X80146Y373168D01*
X80060Y373098D01*
X79971Y373031D01*
X79880Y372968D01*
X79787Y372907D01*
X79692Y372850D01*
X79596Y372797D01*
X79497Y372746D01*
X79396Y372699D01*
X79294Y372656D01*
X79191Y372616D01*
X79086Y372580D01*
X78980Y372548D01*
X78873Y372519D01*
X78765Y372494D01*
X78656Y372473D01*
X78547Y372456D01*
X78437Y372442D01*
X78326Y372433D01*
X78216Y372427D01*
X78105Y372425D01*
X77994Y372427D01*
X77884Y372433D01*
X77773Y372442D01*
X77663Y372456D01*
X77554Y372473D01*
X77445Y372494D01*
X77337Y372519D01*
X77230Y372548D01*
X77124Y372580D01*
X77019Y372616D01*
X76916Y372656D01*
X76814Y372699D01*
X76713Y372746D01*
X76614Y372797D01*
X76518Y372850D01*
X76423Y372907D01*
X76330Y372968D01*
X76239Y373031D01*
X76150Y373098D01*
X76064Y373168D01*
X75981Y373241D01*
X75899Y373316D01*
X75821Y373394D01*
X75746Y373476D01*
X75673Y373559D01*
X75603Y373645D01*
X75536Y373734D01*
X75473Y373825D01*
X75412Y373918D01*
X75355Y374013D01*
X75302Y374109D01*
X75251Y374208D01*
X75204Y374309D01*
X75161Y374411D01*
X75121Y374514D01*
X75085Y374619D01*
X75053Y374725D01*
X75024Y374832D01*
X74999Y374940D01*
X74978Y375049D01*
X74961Y375158D01*
X74947Y375268D01*
X74938Y375379D01*
X74932Y375489D01*
X74930Y375600D01*
X86824Y372425D02*
X86824Y383855D01*
X89999Y383855D01*
X90110Y383853D01*
X90220Y383847D01*
X90331Y383838D01*
X90441Y383824D01*
X90550Y383807D01*
X90659Y383786D01*
X90767Y383761D01*
X90874Y383732D01*
X90980Y383700D01*
X91085Y383664D01*
X91188Y383624D01*
X91290Y383581D01*
X91391Y383534D01*
X91490Y383483D01*
X91587Y383430D01*
X91681Y383373D01*
X91774Y383312D01*
X91865Y383249D01*
X91954Y383182D01*
X92040Y383112D01*
X92123Y383039D01*
X92205Y382964D01*
X92283Y382886D01*
X92358Y382804D01*
X92431Y382721D01*
X92501Y382635D01*
X92568Y382546D01*
X92631Y382455D01*
X92692Y382362D01*
X92749Y382267D01*
X92802Y382171D01*
X92853Y382072D01*
X92900Y381971D01*
X92943Y381869D01*
X92983Y381766D01*
X93019Y381661D01*
X93051Y381555D01*
X93080Y381448D01*
X93105Y381340D01*
X93126Y381231D01*
X93143Y381122D01*
X93157Y381012D01*
X93166Y380901D01*
X93172Y380791D01*
X93174Y380680D01*
X93172Y380569D01*
X93166Y380459D01*
X93157Y380348D01*
X93143Y380238D01*
X93126Y380129D01*
X93105Y380020D01*
X93080Y379912D01*
X93051Y379805D01*
X93019Y379699D01*
X92983Y379594D01*
X92943Y379491D01*
X92900Y379389D01*
X92853Y379288D01*
X92802Y379189D01*
X92749Y379092D01*
X92692Y378998D01*
X92631Y378905D01*
X92568Y378814D01*
X92501Y378725D01*
X92431Y378639D01*
X92358Y378556D01*
X92283Y378474D01*
X92205Y378396D01*
X92123Y378321D01*
X92040Y378248D01*
X91954Y378178D01*
X91865Y378111D01*
X91774Y378048D01*
X91681Y377987D01*
X91586Y377930D01*
X91490Y377877D01*
X91391Y377826D01*
X91290Y377779D01*
X91188Y377736D01*
X91085Y377696D01*
X90980Y377660D01*
X90874Y377628D01*
X90767Y377599D01*
X90659Y377574D01*
X90550Y377553D01*
X90441Y377536D01*
X90331Y377522D01*
X90220Y377513D01*
X90110Y377507D01*
X89999Y377505D01*
X86824Y377505D01*
X90634Y377505D02*
X93174Y372425D01*
X97663Y371155D02*
X102743Y371155D01*
X107315Y381315D02*
X110490Y383855D01*
X110490Y372425D01*
X107315Y372425D02*
X113665Y372425D01*
X120015Y404175D02*
X123190Y406715D01*
X123190Y395285D01*
X120015Y395285D02*
X126365Y395285D01*
D13*
X107950Y350200D02*
X95250Y350200D01*
X88900Y356550D01*
X88900Y369250D02*
X95250Y375600D01*
X88900Y356550D02*
X82550Y350200D01*
X69850Y350200D01*
X63500Y356550D01*
X63500Y369250D02*
X69850Y375600D01*
X82550Y375600D01*
X88900Y369250D01*
X114300Y369250D02*
X114300Y356550D01*
X107950Y350200D01*
X114300Y369250D02*
X107950Y375600D01*
X95250Y375600D01*
X63500Y356550D02*
X57150Y350200D01*
X44450Y350200D01*
X38100Y356550D01*
X38100Y369250D02*
X44450Y375600D01*
X57150Y375600D01*
X63500Y369250D01*
X38100Y369250D02*
X38100Y356550D01*
D11*
X46609Y336865D02*
X46607Y336765D01*
X46601Y336666D01*
X46591Y336566D01*
X46578Y336468D01*
X46560Y336369D01*
X46539Y336272D01*
X46514Y336176D01*
X46485Y336080D01*
X46452Y335986D01*
X46416Y335893D01*
X46376Y335802D01*
X46332Y335712D01*
X46285Y335624D01*
X46235Y335538D01*
X46181Y335454D01*
X46124Y335372D01*
X46064Y335293D01*
X46000Y335215D01*
X45934Y335141D01*
X45865Y335069D01*
X45793Y335000D01*
X45719Y334934D01*
X45641Y334870D01*
X45562Y334810D01*
X45480Y334753D01*
X45396Y334699D01*
X45310Y334649D01*
X45222Y334602D01*
X45132Y334558D01*
X45041Y334518D01*
X44948Y334482D01*
X44854Y334449D01*
X44758Y334420D01*
X44662Y334395D01*
X44565Y334374D01*
X44466Y334356D01*
X44368Y334343D01*
X44268Y334333D01*
X44169Y334327D01*
X44069Y334325D01*
X43928Y334327D01*
X43787Y334332D01*
X43646Y334342D01*
X43505Y334355D01*
X43365Y334371D01*
X43225Y334392D01*
X43086Y334416D01*
X42947Y334444D01*
X42810Y334475D01*
X42673Y334510D01*
X42537Y334548D01*
X42402Y334590D01*
X42269Y334636D01*
X42136Y334685D01*
X42005Y334738D01*
X41876Y334794D01*
X41747Y334853D01*
X41621Y334916D01*
X41496Y334982D01*
X41373Y335051D01*
X41252Y335124D01*
X41133Y335200D01*
X41015Y335279D01*
X40900Y335360D01*
X40788Y335445D01*
X40677Y335533D01*
X40569Y335624D01*
X40463Y335717D01*
X40360Y335814D01*
X40259Y335913D01*
X40577Y343215D02*
X40579Y343315D01*
X40585Y343414D01*
X40595Y343514D01*
X40608Y343612D01*
X40626Y343711D01*
X40647Y343808D01*
X40672Y343904D01*
X40701Y344000D01*
X40734Y344094D01*
X40770Y344187D01*
X40810Y344278D01*
X40854Y344368D01*
X40901Y344456D01*
X40951Y344542D01*
X41005Y344626D01*
X41062Y344708D01*
X41122Y344787D01*
X41186Y344865D01*
X41252Y344939D01*
X41321Y345011D01*
X41393Y345080D01*
X41467Y345146D01*
X41545Y345210D01*
X41624Y345270D01*
X41706Y345327D01*
X41790Y345381D01*
X41876Y345431D01*
X41964Y345478D01*
X42054Y345522D01*
X42145Y345562D01*
X42238Y345598D01*
X42332Y345631D01*
X42428Y345660D01*
X42524Y345685D01*
X42621Y345706D01*
X42720Y345724D01*
X42818Y345737D01*
X42918Y345747D01*
X43017Y345753D01*
X43117Y345755D01*
X43117Y345756D02*
X43250Y345754D01*
X43383Y345749D01*
X43516Y345739D01*
X43649Y345726D01*
X43781Y345709D01*
X43913Y345689D01*
X44044Y345665D01*
X44174Y345637D01*
X44304Y345606D01*
X44432Y345571D01*
X44560Y345532D01*
X44686Y345490D01*
X44811Y345444D01*
X44935Y345395D01*
X45058Y345343D01*
X45179Y345287D01*
X45298Y345227D01*
X45416Y345165D01*
X45531Y345099D01*
X45645Y345030D01*
X45757Y344957D01*
X45867Y344882D01*
X45975Y344803D01*
X41846Y340992D02*
X41762Y341044D01*
X41679Y341099D01*
X41599Y341158D01*
X41521Y341219D01*
X41446Y341283D01*
X41373Y341351D01*
X41302Y341421D01*
X41235Y341493D01*
X41170Y341568D01*
X41108Y341646D01*
X41049Y341726D01*
X40993Y341808D01*
X40941Y341892D01*
X40892Y341978D01*
X40846Y342066D01*
X40803Y342156D01*
X40764Y342247D01*
X40729Y342340D01*
X40697Y342434D01*
X40669Y342529D01*
X40644Y342625D01*
X40624Y342722D01*
X40606Y342820D01*
X40593Y342918D01*
X40584Y343017D01*
X40578Y343116D01*
X40576Y343215D01*
X45339Y339088D02*
X45423Y339036D01*
X45506Y338981D01*
X45586Y338922D01*
X45664Y338861D01*
X45739Y338797D01*
X45812Y338729D01*
X45883Y338659D01*
X45950Y338587D01*
X46015Y338512D01*
X46077Y338434D01*
X46136Y338354D01*
X46192Y338272D01*
X46244Y338188D01*
X46293Y338102D01*
X46339Y338014D01*
X46382Y337924D01*
X46421Y337833D01*
X46456Y337740D01*
X46488Y337646D01*
X46516Y337551D01*
X46541Y337455D01*
X46561Y337358D01*
X46579Y337260D01*
X46592Y337162D01*
X46601Y337063D01*
X46607Y336964D01*
X46609Y336865D01*
X45339Y339088D02*
X41847Y340993D01*
X51714Y334325D02*
X56794Y334325D01*
X51714Y334325D02*
X51714Y345755D01*
X56794Y345755D01*
X55524Y340675D02*
X51714Y340675D01*
X61595Y345755D02*
X61595Y334325D01*
X67945Y334325D02*
X61595Y345755D01*
X67945Y345755D02*
X67945Y334325D01*
X76835Y334325D02*
X76935Y334327D01*
X77034Y334333D01*
X77134Y334343D01*
X77232Y334356D01*
X77331Y334374D01*
X77428Y334395D01*
X77524Y334420D01*
X77620Y334449D01*
X77714Y334482D01*
X77807Y334518D01*
X77898Y334558D01*
X77988Y334602D01*
X78076Y334649D01*
X78162Y334699D01*
X78246Y334753D01*
X78328Y334810D01*
X78407Y334870D01*
X78485Y334934D01*
X78559Y335000D01*
X78631Y335069D01*
X78700Y335141D01*
X78766Y335215D01*
X78830Y335293D01*
X78890Y335372D01*
X78947Y335454D01*
X79001Y335538D01*
X79051Y335624D01*
X79098Y335712D01*
X79142Y335802D01*
X79182Y335893D01*
X79218Y335986D01*
X79251Y336080D01*
X79280Y336176D01*
X79305Y336272D01*
X79326Y336369D01*
X79344Y336468D01*
X79357Y336566D01*
X79367Y336666D01*
X79373Y336765D01*
X79375Y336865D01*
X76835Y334325D02*
X76694Y334327D01*
X76553Y334332D01*
X76412Y334342D01*
X76271Y334355D01*
X76131Y334371D01*
X75991Y334392D01*
X75852Y334416D01*
X75713Y334444D01*
X75576Y334475D01*
X75439Y334510D01*
X75303Y334548D01*
X75168Y334590D01*
X75035Y334636D01*
X74902Y334685D01*
X74771Y334738D01*
X74642Y334794D01*
X74513Y334853D01*
X74387Y334916D01*
X74262Y334982D01*
X74139Y335051D01*
X74018Y335124D01*
X73899Y335200D01*
X73781Y335279D01*
X73666Y335360D01*
X73554Y335445D01*
X73443Y335533D01*
X73335Y335624D01*
X73229Y335717D01*
X73126Y335814D01*
X73025Y335913D01*
X73343Y343215D02*
X73345Y343315D01*
X73351Y343414D01*
X73361Y343514D01*
X73374Y343612D01*
X73392Y343711D01*
X73413Y343808D01*
X73438Y343904D01*
X73467Y344000D01*
X73500Y344094D01*
X73536Y344187D01*
X73576Y344278D01*
X73620Y344368D01*
X73667Y344456D01*
X73717Y344542D01*
X73771Y344626D01*
X73828Y344708D01*
X73888Y344787D01*
X73952Y344865D01*
X74018Y344939D01*
X74087Y345011D01*
X74159Y345080D01*
X74233Y345146D01*
X74311Y345210D01*
X74390Y345270D01*
X74472Y345327D01*
X74556Y345381D01*
X74642Y345431D01*
X74730Y345478D01*
X74820Y345522D01*
X74911Y345562D01*
X75004Y345598D01*
X75098Y345631D01*
X75194Y345660D01*
X75290Y345685D01*
X75387Y345706D01*
X75486Y345724D01*
X75584Y345737D01*
X75684Y345747D01*
X75783Y345753D01*
X75883Y345755D01*
X75883Y345756D02*
X76016Y345754D01*
X76149Y345749D01*
X76282Y345739D01*
X76415Y345726D01*
X76547Y345709D01*
X76679Y345689D01*
X76810Y345665D01*
X76940Y345637D01*
X77070Y345606D01*
X77198Y345571D01*
X77326Y345532D01*
X77452Y345490D01*
X77577Y345444D01*
X77701Y345395D01*
X77824Y345343D01*
X77945Y345287D01*
X78064Y345227D01*
X78182Y345165D01*
X78297Y345099D01*
X78411Y345030D01*
X78523Y344957D01*
X78633Y344882D01*
X78741Y344803D01*
X74612Y340992D02*
X74528Y341044D01*
X74445Y341099D01*
X74365Y341158D01*
X74287Y341219D01*
X74212Y341283D01*
X74139Y341351D01*
X74068Y341421D01*
X74001Y341493D01*
X73936Y341568D01*
X73874Y341646D01*
X73815Y341726D01*
X73759Y341808D01*
X73707Y341892D01*
X73658Y341978D01*
X73612Y342066D01*
X73569Y342156D01*
X73530Y342247D01*
X73495Y342340D01*
X73463Y342434D01*
X73435Y342529D01*
X73410Y342625D01*
X73390Y342722D01*
X73372Y342820D01*
X73359Y342918D01*
X73350Y343017D01*
X73344Y343116D01*
X73342Y343215D01*
X78105Y339088D02*
X78189Y339036D01*
X78272Y338981D01*
X78352Y338922D01*
X78430Y338861D01*
X78505Y338797D01*
X78578Y338729D01*
X78649Y338659D01*
X78716Y338587D01*
X78781Y338512D01*
X78843Y338434D01*
X78902Y338354D01*
X78958Y338272D01*
X79010Y338188D01*
X79059Y338102D01*
X79105Y338014D01*
X79148Y337924D01*
X79187Y337833D01*
X79222Y337740D01*
X79254Y337646D01*
X79282Y337551D01*
X79307Y337455D01*
X79327Y337358D01*
X79345Y337260D01*
X79358Y337162D01*
X79367Y337063D01*
X79373Y336964D01*
X79375Y336865D01*
X78105Y339088D02*
X74613Y340993D01*
X84074Y342580D02*
X84074Y337500D01*
X84074Y342580D02*
X84076Y342691D01*
X84082Y342801D01*
X84091Y342912D01*
X84105Y343022D01*
X84122Y343131D01*
X84143Y343240D01*
X84168Y343348D01*
X84197Y343455D01*
X84229Y343561D01*
X84265Y343666D01*
X84305Y343769D01*
X84348Y343871D01*
X84395Y343972D01*
X84446Y344071D01*
X84499Y344168D01*
X84556Y344262D01*
X84617Y344355D01*
X84680Y344446D01*
X84747Y344535D01*
X84817Y344621D01*
X84890Y344704D01*
X84965Y344786D01*
X85043Y344864D01*
X85125Y344939D01*
X85208Y345012D01*
X85294Y345082D01*
X85383Y345149D01*
X85474Y345212D01*
X85567Y345273D01*
X85662Y345330D01*
X85758Y345383D01*
X85857Y345434D01*
X85958Y345481D01*
X86060Y345524D01*
X86163Y345564D01*
X86268Y345600D01*
X86374Y345632D01*
X86481Y345661D01*
X86589Y345686D01*
X86698Y345707D01*
X86807Y345724D01*
X86917Y345738D01*
X87028Y345747D01*
X87138Y345753D01*
X87249Y345755D01*
X87360Y345753D01*
X87470Y345747D01*
X87581Y345738D01*
X87691Y345724D01*
X87800Y345707D01*
X87909Y345686D01*
X88017Y345661D01*
X88124Y345632D01*
X88230Y345600D01*
X88335Y345564D01*
X88438Y345524D01*
X88540Y345481D01*
X88641Y345434D01*
X88740Y345383D01*
X88837Y345330D01*
X88931Y345273D01*
X89024Y345212D01*
X89115Y345149D01*
X89204Y345082D01*
X89290Y345012D01*
X89373Y344939D01*
X89455Y344864D01*
X89533Y344786D01*
X89608Y344704D01*
X89681Y344621D01*
X89751Y344535D01*
X89818Y344446D01*
X89881Y344355D01*
X89942Y344262D01*
X89999Y344168D01*
X90052Y344071D01*
X90103Y343972D01*
X90150Y343871D01*
X90193Y343769D01*
X90233Y343666D01*
X90269Y343561D01*
X90301Y343455D01*
X90330Y343348D01*
X90355Y343240D01*
X90376Y343131D01*
X90393Y343022D01*
X90407Y342912D01*
X90416Y342801D01*
X90422Y342691D01*
X90424Y342580D01*
X90424Y337500D01*
X90422Y337389D01*
X90416Y337279D01*
X90407Y337168D01*
X90393Y337058D01*
X90376Y336949D01*
X90355Y336840D01*
X90330Y336732D01*
X90301Y336625D01*
X90269Y336519D01*
X90233Y336414D01*
X90193Y336311D01*
X90150Y336209D01*
X90103Y336108D01*
X90052Y336009D01*
X89999Y335912D01*
X89942Y335818D01*
X89881Y335725D01*
X89818Y335634D01*
X89751Y335545D01*
X89681Y335459D01*
X89608Y335376D01*
X89533Y335294D01*
X89455Y335216D01*
X89373Y335141D01*
X89290Y335068D01*
X89204Y334998D01*
X89115Y334931D01*
X89024Y334868D01*
X88931Y334807D01*
X88836Y334750D01*
X88740Y334697D01*
X88641Y334646D01*
X88540Y334599D01*
X88438Y334556D01*
X88335Y334516D01*
X88230Y334480D01*
X88124Y334448D01*
X88017Y334419D01*
X87909Y334394D01*
X87800Y334373D01*
X87691Y334356D01*
X87581Y334342D01*
X87470Y334333D01*
X87360Y334327D01*
X87249Y334325D01*
X87138Y334327D01*
X87028Y334333D01*
X86917Y334342D01*
X86807Y334356D01*
X86698Y334373D01*
X86589Y334394D01*
X86481Y334419D01*
X86374Y334448D01*
X86268Y334480D01*
X86163Y334516D01*
X86060Y334556D01*
X85958Y334599D01*
X85857Y334646D01*
X85758Y334697D01*
X85662Y334750D01*
X85567Y334807D01*
X85474Y334868D01*
X85383Y334931D01*
X85294Y334998D01*
X85208Y335068D01*
X85125Y335141D01*
X85043Y335216D01*
X84965Y335294D01*
X84890Y335376D01*
X84817Y335459D01*
X84747Y335545D01*
X84680Y335634D01*
X84617Y335725D01*
X84556Y335818D01*
X84499Y335913D01*
X84446Y336009D01*
X84395Y336108D01*
X84348Y336209D01*
X84305Y336311D01*
X84265Y336414D01*
X84229Y336519D01*
X84197Y336625D01*
X84168Y336732D01*
X84143Y336840D01*
X84122Y336949D01*
X84105Y337058D01*
X84091Y337168D01*
X84082Y337279D01*
X84076Y337389D01*
X84074Y337500D01*
X95968Y334325D02*
X95968Y345755D01*
X99143Y345755D01*
X99254Y345753D01*
X99364Y345747D01*
X99475Y345738D01*
X99585Y345724D01*
X99694Y345707D01*
X99803Y345686D01*
X99911Y345661D01*
X100018Y345632D01*
X100124Y345600D01*
X100229Y345564D01*
X100332Y345524D01*
X100434Y345481D01*
X100535Y345434D01*
X100634Y345383D01*
X100731Y345330D01*
X100825Y345273D01*
X100918Y345212D01*
X101009Y345149D01*
X101098Y345082D01*
X101184Y345012D01*
X101267Y344939D01*
X101349Y344864D01*
X101427Y344786D01*
X101502Y344704D01*
X101575Y344621D01*
X101645Y344535D01*
X101712Y344446D01*
X101775Y344355D01*
X101836Y344262D01*
X101893Y344167D01*
X101946Y344071D01*
X101997Y343972D01*
X102044Y343871D01*
X102087Y343769D01*
X102127Y343666D01*
X102163Y343561D01*
X102195Y343455D01*
X102224Y343348D01*
X102249Y343240D01*
X102270Y343131D01*
X102287Y343022D01*
X102301Y342912D01*
X102310Y342801D01*
X102316Y342691D01*
X102318Y342580D01*
X102316Y342469D01*
X102310Y342359D01*
X102301Y342248D01*
X102287Y342138D01*
X102270Y342029D01*
X102249Y341920D01*
X102224Y341812D01*
X102195Y341705D01*
X102163Y341599D01*
X102127Y341494D01*
X102087Y341391D01*
X102044Y341289D01*
X101997Y341188D01*
X101946Y341089D01*
X101893Y340992D01*
X101836Y340898D01*
X101775Y340805D01*
X101712Y340714D01*
X101645Y340625D01*
X101575Y340539D01*
X101502Y340456D01*
X101427Y340374D01*
X101349Y340296D01*
X101267Y340221D01*
X101184Y340148D01*
X101098Y340078D01*
X101009Y340011D01*
X100918Y339948D01*
X100825Y339887D01*
X100730Y339830D01*
X100634Y339777D01*
X100535Y339726D01*
X100434Y339679D01*
X100332Y339636D01*
X100229Y339596D01*
X100124Y339560D01*
X100018Y339528D01*
X99911Y339499D01*
X99803Y339474D01*
X99694Y339453D01*
X99585Y339436D01*
X99475Y339422D01*
X99364Y339413D01*
X99254Y339407D01*
X99143Y339405D01*
X95968Y339405D01*
X99778Y339405D02*
X102318Y334325D01*
X113666Y342898D02*
X113664Y343002D01*
X113658Y343107D01*
X113649Y343211D01*
X113636Y343314D01*
X113618Y343417D01*
X113598Y343519D01*
X113573Y343621D01*
X113545Y343721D01*
X113513Y343821D01*
X113477Y343919D01*
X113438Y344016D01*
X113396Y344111D01*
X113350Y344205D01*
X113300Y344297D01*
X113248Y344387D01*
X113192Y344475D01*
X113132Y344561D01*
X113070Y344645D01*
X113005Y344726D01*
X112937Y344805D01*
X112865Y344882D01*
X112792Y344955D01*
X112715Y345027D01*
X112636Y345095D01*
X112555Y345160D01*
X112471Y345222D01*
X112385Y345282D01*
X112297Y345338D01*
X112207Y345390D01*
X112115Y345440D01*
X112021Y345486D01*
X111926Y345528D01*
X111829Y345567D01*
X111731Y345603D01*
X111631Y345635D01*
X111531Y345663D01*
X111429Y345688D01*
X111327Y345708D01*
X111224Y345726D01*
X111121Y345739D01*
X111017Y345748D01*
X110912Y345754D01*
X110808Y345756D01*
X110808Y345755D02*
X110690Y345753D01*
X110571Y345747D01*
X110453Y345738D01*
X110336Y345725D01*
X110219Y345707D01*
X110102Y345687D01*
X109986Y345662D01*
X109871Y345634D01*
X109758Y345601D01*
X109645Y345566D01*
X109533Y345526D01*
X109423Y345484D01*
X109314Y345437D01*
X109206Y345387D01*
X109101Y345334D01*
X108997Y345277D01*
X108895Y345217D01*
X108795Y345154D01*
X108697Y345087D01*
X108601Y345018D01*
X108508Y344945D01*
X108417Y344869D01*
X108328Y344791D01*
X108242Y344709D01*
X108159Y344625D01*
X108078Y344539D01*
X108001Y344449D01*
X107926Y344358D01*
X107854Y344264D01*
X107785Y344167D01*
X107720Y344069D01*
X107657Y343968D01*
X107598Y343865D01*
X107542Y343761D01*
X107490Y343655D01*
X107441Y343547D01*
X107396Y343438D01*
X107354Y343327D01*
X107316Y343215D01*
X112713Y340676D02*
X112789Y340751D01*
X112864Y340830D01*
X112935Y340911D01*
X113004Y340995D01*
X113069Y341081D01*
X113131Y341169D01*
X113191Y341259D01*
X113247Y341351D01*
X113300Y341446D01*
X113349Y341542D01*
X113395Y341640D01*
X113438Y341739D01*
X113477Y341840D01*
X113512Y341942D01*
X113544Y342045D01*
X113572Y342149D01*
X113597Y342254D01*
X113618Y342361D01*
X113635Y342467D01*
X113648Y342574D01*
X113657Y342682D01*
X113663Y342790D01*
X113665Y342898D01*
X112713Y340675D02*
X107315Y334325D01*
X113665Y334325D01*
X120015Y366075D02*
X123190Y368615D01*
X123190Y357185D01*
X120015Y357185D02*
X126365Y357185D01*
M02*
