G04 EAGLE Gerber X2 export*
%TF.Part,Single*%
%TF.FileFunction,Soldermask,Bot,1*%
%TF.FilePolarity,Negative*%
%TF.GenerationSoftware,Autodesk,EAGLE,9.1.0*%
%TF.CreationDate,2018-11-25T22:57:03Z*%
G75*
%MOMM*%
%FSLAX34Y34*%
%LPD*%
%AMOC8*
5,1,8,0,0,1.08239X$1,22.5*%
G01*
%ADD10C,3.000000*%
%ADD11R,3.320800X3.320800*%
%ADD12C,3.320800*%
%ADD13C,3.308000*%
%ADD14C,3.524000*%
%ADD15C,2.269200*%


D10*
X20000Y420000D03*
X20000Y20000D03*
X320000Y420000D03*
X320000Y20000D03*
D11*
X266700Y324000D03*
D12*
X266700Y304000D03*
X266700Y284000D03*
X266700Y264000D03*
X266700Y244000D03*
X266700Y224000D03*
D11*
X63500Y324000D03*
D12*
X63500Y304000D03*
X63500Y284000D03*
X63500Y264000D03*
X63500Y244000D03*
X63500Y224000D03*
D13*
X292100Y166240D02*
X292100Y153160D01*
X267100Y153160D02*
X267100Y166240D01*
X242100Y166240D02*
X242100Y153160D01*
X217100Y153160D02*
X217100Y166240D01*
X192100Y166240D02*
X192100Y153160D01*
X167100Y153160D02*
X167100Y166240D01*
X292100Y64640D02*
X292100Y51560D01*
X267100Y51560D02*
X267100Y64640D01*
X242100Y64640D02*
X242100Y51560D01*
X217100Y51560D02*
X217100Y64640D01*
X192100Y64640D02*
X192100Y51560D01*
X167100Y51560D02*
X167100Y64640D01*
X292100Y102360D02*
X292100Y115440D01*
X267100Y115440D02*
X267100Y102360D01*
X242100Y102360D02*
X242100Y115440D01*
X217100Y115440D02*
X217100Y102360D01*
X192100Y102360D02*
X192100Y115440D01*
X167100Y115440D02*
X167100Y102360D01*
D14*
X101600Y393380D02*
X101600Y408620D01*
X76200Y408620D02*
X76200Y393380D01*
X50800Y393380D02*
X50800Y408620D01*
X101600Y370520D02*
X101600Y355280D01*
X76200Y355280D02*
X76200Y370520D01*
X50800Y370520D02*
X50800Y355280D01*
D15*
X177800Y330200D03*
X165100Y330200D03*
X152400Y330200D03*
X152400Y342900D03*
X165100Y342900D03*
X177800Y342900D03*
X177800Y355600D03*
X165100Y355600D03*
X152400Y355600D03*
X48633Y102921D03*
X104052Y115362D03*
X193401Y394719D03*
X178698Y195663D03*
X66729Y83694D03*
X209235Y32799D03*
X206973Y334776D03*
X132327Y272571D03*
X91611Y90480D03*
X95004Y182091D03*
X66729Y206973D03*
X33930Y227331D03*
X128934Y186615D03*
X197925Y255606D03*
X268047Y363051D03*
X132327Y262392D03*
X48633Y71253D03*
X217152Y195663D03*
X50895Y45240D03*
X50895Y55419D03*
X48633Y148161D03*
X197925Y287274D03*
X90480Y162864D03*
X122148Y194532D03*
X63336Y140244D03*
X197925Y235248D03*
M02*
