G75*
%MOIN*%
%OFA0B0*%
%FSLAX25Y25*%
%IPPOS*%
%LPD*%
%AMOC8*
5,1,8,0,0,1.08239X$1,22.5*
%
%ADD10C,0.00000*%
D10*
X0002150Y0001000D02*
X0002150Y0331709D01*
X0317110Y0331709D01*
X0317110Y0001000D01*
X0002150Y0001000D01*
X0047819Y0016748D02*
X0047821Y0016896D01*
X0047827Y0017044D01*
X0047837Y0017192D01*
X0047851Y0017339D01*
X0047869Y0017486D01*
X0047890Y0017632D01*
X0047916Y0017778D01*
X0047946Y0017923D01*
X0047979Y0018067D01*
X0048017Y0018210D01*
X0048058Y0018352D01*
X0048103Y0018493D01*
X0048151Y0018633D01*
X0048204Y0018772D01*
X0048260Y0018909D01*
X0048320Y0019044D01*
X0048383Y0019178D01*
X0048450Y0019310D01*
X0048521Y0019440D01*
X0048595Y0019568D01*
X0048672Y0019694D01*
X0048753Y0019818D01*
X0048837Y0019940D01*
X0048924Y0020059D01*
X0049015Y0020176D01*
X0049109Y0020291D01*
X0049205Y0020403D01*
X0049305Y0020513D01*
X0049407Y0020619D01*
X0049513Y0020723D01*
X0049621Y0020824D01*
X0049732Y0020922D01*
X0049845Y0021018D01*
X0049961Y0021110D01*
X0050079Y0021199D01*
X0050200Y0021284D01*
X0050323Y0021367D01*
X0050448Y0021446D01*
X0050575Y0021522D01*
X0050704Y0021594D01*
X0050835Y0021663D01*
X0050968Y0021728D01*
X0051103Y0021789D01*
X0051239Y0021847D01*
X0051376Y0021902D01*
X0051515Y0021952D01*
X0051656Y0021999D01*
X0051797Y0022042D01*
X0051940Y0022082D01*
X0052084Y0022117D01*
X0052228Y0022149D01*
X0052374Y0022176D01*
X0052520Y0022200D01*
X0052667Y0022220D01*
X0052814Y0022236D01*
X0052961Y0022248D01*
X0053109Y0022256D01*
X0053257Y0022260D01*
X0053405Y0022260D01*
X0053553Y0022256D01*
X0053701Y0022248D01*
X0053848Y0022236D01*
X0053995Y0022220D01*
X0054142Y0022200D01*
X0054288Y0022176D01*
X0054434Y0022149D01*
X0054578Y0022117D01*
X0054722Y0022082D01*
X0054865Y0022042D01*
X0055006Y0021999D01*
X0055147Y0021952D01*
X0055286Y0021902D01*
X0055423Y0021847D01*
X0055559Y0021789D01*
X0055694Y0021728D01*
X0055827Y0021663D01*
X0055958Y0021594D01*
X0056087Y0021522D01*
X0056214Y0021446D01*
X0056339Y0021367D01*
X0056462Y0021284D01*
X0056583Y0021199D01*
X0056701Y0021110D01*
X0056817Y0021018D01*
X0056930Y0020922D01*
X0057041Y0020824D01*
X0057149Y0020723D01*
X0057255Y0020619D01*
X0057357Y0020513D01*
X0057457Y0020403D01*
X0057553Y0020291D01*
X0057647Y0020176D01*
X0057738Y0020059D01*
X0057825Y0019940D01*
X0057909Y0019818D01*
X0057990Y0019694D01*
X0058067Y0019568D01*
X0058141Y0019440D01*
X0058212Y0019310D01*
X0058279Y0019178D01*
X0058342Y0019044D01*
X0058402Y0018909D01*
X0058458Y0018772D01*
X0058511Y0018633D01*
X0058559Y0018493D01*
X0058604Y0018352D01*
X0058645Y0018210D01*
X0058683Y0018067D01*
X0058716Y0017923D01*
X0058746Y0017778D01*
X0058772Y0017632D01*
X0058793Y0017486D01*
X0058811Y0017339D01*
X0058825Y0017192D01*
X0058835Y0017044D01*
X0058841Y0016896D01*
X0058843Y0016748D01*
X0058841Y0016600D01*
X0058835Y0016452D01*
X0058825Y0016304D01*
X0058811Y0016157D01*
X0058793Y0016010D01*
X0058772Y0015864D01*
X0058746Y0015718D01*
X0058716Y0015573D01*
X0058683Y0015429D01*
X0058645Y0015286D01*
X0058604Y0015144D01*
X0058559Y0015003D01*
X0058511Y0014863D01*
X0058458Y0014724D01*
X0058402Y0014587D01*
X0058342Y0014452D01*
X0058279Y0014318D01*
X0058212Y0014186D01*
X0058141Y0014056D01*
X0058067Y0013928D01*
X0057990Y0013802D01*
X0057909Y0013678D01*
X0057825Y0013556D01*
X0057738Y0013437D01*
X0057647Y0013320D01*
X0057553Y0013205D01*
X0057457Y0013093D01*
X0057357Y0012983D01*
X0057255Y0012877D01*
X0057149Y0012773D01*
X0057041Y0012672D01*
X0056930Y0012574D01*
X0056817Y0012478D01*
X0056701Y0012386D01*
X0056583Y0012297D01*
X0056462Y0012212D01*
X0056339Y0012129D01*
X0056214Y0012050D01*
X0056087Y0011974D01*
X0055958Y0011902D01*
X0055827Y0011833D01*
X0055694Y0011768D01*
X0055559Y0011707D01*
X0055423Y0011649D01*
X0055286Y0011594D01*
X0055147Y0011544D01*
X0055006Y0011497D01*
X0054865Y0011454D01*
X0054722Y0011414D01*
X0054578Y0011379D01*
X0054434Y0011347D01*
X0054288Y0011320D01*
X0054142Y0011296D01*
X0053995Y0011276D01*
X0053848Y0011260D01*
X0053701Y0011248D01*
X0053553Y0011240D01*
X0053405Y0011236D01*
X0053257Y0011236D01*
X0053109Y0011240D01*
X0052961Y0011248D01*
X0052814Y0011260D01*
X0052667Y0011276D01*
X0052520Y0011296D01*
X0052374Y0011320D01*
X0052228Y0011347D01*
X0052084Y0011379D01*
X0051940Y0011414D01*
X0051797Y0011454D01*
X0051656Y0011497D01*
X0051515Y0011544D01*
X0051376Y0011594D01*
X0051239Y0011649D01*
X0051103Y0011707D01*
X0050968Y0011768D01*
X0050835Y0011833D01*
X0050704Y0011902D01*
X0050575Y0011974D01*
X0050448Y0012050D01*
X0050323Y0012129D01*
X0050200Y0012212D01*
X0050079Y0012297D01*
X0049961Y0012386D01*
X0049845Y0012478D01*
X0049732Y0012574D01*
X0049621Y0012672D01*
X0049513Y0012773D01*
X0049407Y0012877D01*
X0049305Y0012983D01*
X0049205Y0013093D01*
X0049109Y0013205D01*
X0049015Y0013320D01*
X0048924Y0013437D01*
X0048837Y0013556D01*
X0048753Y0013678D01*
X0048672Y0013802D01*
X0048595Y0013928D01*
X0048521Y0014056D01*
X0048450Y0014186D01*
X0048383Y0014318D01*
X0048320Y0014452D01*
X0048260Y0014587D01*
X0048204Y0014724D01*
X0048151Y0014863D01*
X0048103Y0015003D01*
X0048058Y0015144D01*
X0048017Y0015286D01*
X0047979Y0015429D01*
X0047946Y0015573D01*
X0047916Y0015718D01*
X0047890Y0015864D01*
X0047869Y0016010D01*
X0047851Y0016157D01*
X0047837Y0016304D01*
X0047827Y0016452D01*
X0047821Y0016600D01*
X0047819Y0016748D01*
X0260417Y0016748D02*
X0260419Y0016896D01*
X0260425Y0017044D01*
X0260435Y0017192D01*
X0260449Y0017339D01*
X0260467Y0017486D01*
X0260488Y0017632D01*
X0260514Y0017778D01*
X0260544Y0017923D01*
X0260577Y0018067D01*
X0260615Y0018210D01*
X0260656Y0018352D01*
X0260701Y0018493D01*
X0260749Y0018633D01*
X0260802Y0018772D01*
X0260858Y0018909D01*
X0260918Y0019044D01*
X0260981Y0019178D01*
X0261048Y0019310D01*
X0261119Y0019440D01*
X0261193Y0019568D01*
X0261270Y0019694D01*
X0261351Y0019818D01*
X0261435Y0019940D01*
X0261522Y0020059D01*
X0261613Y0020176D01*
X0261707Y0020291D01*
X0261803Y0020403D01*
X0261903Y0020513D01*
X0262005Y0020619D01*
X0262111Y0020723D01*
X0262219Y0020824D01*
X0262330Y0020922D01*
X0262443Y0021018D01*
X0262559Y0021110D01*
X0262677Y0021199D01*
X0262798Y0021284D01*
X0262921Y0021367D01*
X0263046Y0021446D01*
X0263173Y0021522D01*
X0263302Y0021594D01*
X0263433Y0021663D01*
X0263566Y0021728D01*
X0263701Y0021789D01*
X0263837Y0021847D01*
X0263974Y0021902D01*
X0264113Y0021952D01*
X0264254Y0021999D01*
X0264395Y0022042D01*
X0264538Y0022082D01*
X0264682Y0022117D01*
X0264826Y0022149D01*
X0264972Y0022176D01*
X0265118Y0022200D01*
X0265265Y0022220D01*
X0265412Y0022236D01*
X0265559Y0022248D01*
X0265707Y0022256D01*
X0265855Y0022260D01*
X0266003Y0022260D01*
X0266151Y0022256D01*
X0266299Y0022248D01*
X0266446Y0022236D01*
X0266593Y0022220D01*
X0266740Y0022200D01*
X0266886Y0022176D01*
X0267032Y0022149D01*
X0267176Y0022117D01*
X0267320Y0022082D01*
X0267463Y0022042D01*
X0267604Y0021999D01*
X0267745Y0021952D01*
X0267884Y0021902D01*
X0268021Y0021847D01*
X0268157Y0021789D01*
X0268292Y0021728D01*
X0268425Y0021663D01*
X0268556Y0021594D01*
X0268685Y0021522D01*
X0268812Y0021446D01*
X0268937Y0021367D01*
X0269060Y0021284D01*
X0269181Y0021199D01*
X0269299Y0021110D01*
X0269415Y0021018D01*
X0269528Y0020922D01*
X0269639Y0020824D01*
X0269747Y0020723D01*
X0269853Y0020619D01*
X0269955Y0020513D01*
X0270055Y0020403D01*
X0270151Y0020291D01*
X0270245Y0020176D01*
X0270336Y0020059D01*
X0270423Y0019940D01*
X0270507Y0019818D01*
X0270588Y0019694D01*
X0270665Y0019568D01*
X0270739Y0019440D01*
X0270810Y0019310D01*
X0270877Y0019178D01*
X0270940Y0019044D01*
X0271000Y0018909D01*
X0271056Y0018772D01*
X0271109Y0018633D01*
X0271157Y0018493D01*
X0271202Y0018352D01*
X0271243Y0018210D01*
X0271281Y0018067D01*
X0271314Y0017923D01*
X0271344Y0017778D01*
X0271370Y0017632D01*
X0271391Y0017486D01*
X0271409Y0017339D01*
X0271423Y0017192D01*
X0271433Y0017044D01*
X0271439Y0016896D01*
X0271441Y0016748D01*
X0271439Y0016600D01*
X0271433Y0016452D01*
X0271423Y0016304D01*
X0271409Y0016157D01*
X0271391Y0016010D01*
X0271370Y0015864D01*
X0271344Y0015718D01*
X0271314Y0015573D01*
X0271281Y0015429D01*
X0271243Y0015286D01*
X0271202Y0015144D01*
X0271157Y0015003D01*
X0271109Y0014863D01*
X0271056Y0014724D01*
X0271000Y0014587D01*
X0270940Y0014452D01*
X0270877Y0014318D01*
X0270810Y0014186D01*
X0270739Y0014056D01*
X0270665Y0013928D01*
X0270588Y0013802D01*
X0270507Y0013678D01*
X0270423Y0013556D01*
X0270336Y0013437D01*
X0270245Y0013320D01*
X0270151Y0013205D01*
X0270055Y0013093D01*
X0269955Y0012983D01*
X0269853Y0012877D01*
X0269747Y0012773D01*
X0269639Y0012672D01*
X0269528Y0012574D01*
X0269415Y0012478D01*
X0269299Y0012386D01*
X0269181Y0012297D01*
X0269060Y0012212D01*
X0268937Y0012129D01*
X0268812Y0012050D01*
X0268685Y0011974D01*
X0268556Y0011902D01*
X0268425Y0011833D01*
X0268292Y0011768D01*
X0268157Y0011707D01*
X0268021Y0011649D01*
X0267884Y0011594D01*
X0267745Y0011544D01*
X0267604Y0011497D01*
X0267463Y0011454D01*
X0267320Y0011414D01*
X0267176Y0011379D01*
X0267032Y0011347D01*
X0266886Y0011320D01*
X0266740Y0011296D01*
X0266593Y0011276D01*
X0266446Y0011260D01*
X0266299Y0011248D01*
X0266151Y0011240D01*
X0266003Y0011236D01*
X0265855Y0011236D01*
X0265707Y0011240D01*
X0265559Y0011248D01*
X0265412Y0011260D01*
X0265265Y0011276D01*
X0265118Y0011296D01*
X0264972Y0011320D01*
X0264826Y0011347D01*
X0264682Y0011379D01*
X0264538Y0011414D01*
X0264395Y0011454D01*
X0264254Y0011497D01*
X0264113Y0011544D01*
X0263974Y0011594D01*
X0263837Y0011649D01*
X0263701Y0011707D01*
X0263566Y0011768D01*
X0263433Y0011833D01*
X0263302Y0011902D01*
X0263173Y0011974D01*
X0263046Y0012050D01*
X0262921Y0012129D01*
X0262798Y0012212D01*
X0262677Y0012297D01*
X0262559Y0012386D01*
X0262443Y0012478D01*
X0262330Y0012574D01*
X0262219Y0012672D01*
X0262111Y0012773D01*
X0262005Y0012877D01*
X0261903Y0012983D01*
X0261803Y0013093D01*
X0261707Y0013205D01*
X0261613Y0013320D01*
X0261522Y0013437D01*
X0261435Y0013556D01*
X0261351Y0013678D01*
X0261270Y0013802D01*
X0261193Y0013928D01*
X0261119Y0014056D01*
X0261048Y0014186D01*
X0260981Y0014318D01*
X0260918Y0014452D01*
X0260858Y0014587D01*
X0260802Y0014724D01*
X0260749Y0014863D01*
X0260701Y0015003D01*
X0260656Y0015144D01*
X0260615Y0015286D01*
X0260577Y0015429D01*
X0260544Y0015573D01*
X0260514Y0015718D01*
X0260488Y0015864D01*
X0260467Y0016010D01*
X0260449Y0016157D01*
X0260435Y0016304D01*
X0260425Y0016452D01*
X0260419Y0016600D01*
X0260417Y0016748D01*
X0288390Y0274976D02*
X0288392Y0275137D01*
X0288398Y0275297D01*
X0288408Y0275458D01*
X0288422Y0275618D01*
X0288440Y0275778D01*
X0288461Y0275937D01*
X0288487Y0276096D01*
X0288517Y0276254D01*
X0288550Y0276411D01*
X0288588Y0276568D01*
X0288629Y0276723D01*
X0288674Y0276877D01*
X0288723Y0277030D01*
X0288776Y0277182D01*
X0288832Y0277333D01*
X0288893Y0277482D01*
X0288956Y0277630D01*
X0289024Y0277776D01*
X0289095Y0277920D01*
X0289169Y0278062D01*
X0289247Y0278203D01*
X0289329Y0278341D01*
X0289414Y0278478D01*
X0289502Y0278612D01*
X0289594Y0278744D01*
X0289689Y0278874D01*
X0289787Y0279002D01*
X0289888Y0279127D01*
X0289992Y0279249D01*
X0290099Y0279369D01*
X0290209Y0279486D01*
X0290322Y0279601D01*
X0290438Y0279712D01*
X0290557Y0279821D01*
X0290678Y0279926D01*
X0290802Y0280029D01*
X0290928Y0280129D01*
X0291056Y0280225D01*
X0291187Y0280318D01*
X0291321Y0280408D01*
X0291456Y0280495D01*
X0291594Y0280578D01*
X0291733Y0280658D01*
X0291875Y0280734D01*
X0292018Y0280807D01*
X0292163Y0280876D01*
X0292310Y0280942D01*
X0292458Y0281004D01*
X0292608Y0281062D01*
X0292759Y0281117D01*
X0292912Y0281168D01*
X0293066Y0281215D01*
X0293221Y0281258D01*
X0293377Y0281297D01*
X0293533Y0281333D01*
X0293691Y0281364D01*
X0293849Y0281392D01*
X0294008Y0281416D01*
X0294168Y0281436D01*
X0294328Y0281452D01*
X0294488Y0281464D01*
X0294649Y0281472D01*
X0294810Y0281476D01*
X0294970Y0281476D01*
X0295131Y0281472D01*
X0295292Y0281464D01*
X0295452Y0281452D01*
X0295612Y0281436D01*
X0295772Y0281416D01*
X0295931Y0281392D01*
X0296089Y0281364D01*
X0296247Y0281333D01*
X0296403Y0281297D01*
X0296559Y0281258D01*
X0296714Y0281215D01*
X0296868Y0281168D01*
X0297021Y0281117D01*
X0297172Y0281062D01*
X0297322Y0281004D01*
X0297470Y0280942D01*
X0297617Y0280876D01*
X0297762Y0280807D01*
X0297905Y0280734D01*
X0298047Y0280658D01*
X0298186Y0280578D01*
X0298324Y0280495D01*
X0298459Y0280408D01*
X0298593Y0280318D01*
X0298724Y0280225D01*
X0298852Y0280129D01*
X0298978Y0280029D01*
X0299102Y0279926D01*
X0299223Y0279821D01*
X0299342Y0279712D01*
X0299458Y0279601D01*
X0299571Y0279486D01*
X0299681Y0279369D01*
X0299788Y0279249D01*
X0299892Y0279127D01*
X0299993Y0279002D01*
X0300091Y0278874D01*
X0300186Y0278744D01*
X0300278Y0278612D01*
X0300366Y0278478D01*
X0300451Y0278341D01*
X0300533Y0278203D01*
X0300611Y0278062D01*
X0300685Y0277920D01*
X0300756Y0277776D01*
X0300824Y0277630D01*
X0300887Y0277482D01*
X0300948Y0277333D01*
X0301004Y0277182D01*
X0301057Y0277030D01*
X0301106Y0276877D01*
X0301151Y0276723D01*
X0301192Y0276568D01*
X0301230Y0276411D01*
X0301263Y0276254D01*
X0301293Y0276096D01*
X0301319Y0275937D01*
X0301340Y0275778D01*
X0301358Y0275618D01*
X0301372Y0275458D01*
X0301382Y0275297D01*
X0301388Y0275137D01*
X0301390Y0274976D01*
X0301388Y0274815D01*
X0301382Y0274655D01*
X0301372Y0274494D01*
X0301358Y0274334D01*
X0301340Y0274174D01*
X0301319Y0274015D01*
X0301293Y0273856D01*
X0301263Y0273698D01*
X0301230Y0273541D01*
X0301192Y0273384D01*
X0301151Y0273229D01*
X0301106Y0273075D01*
X0301057Y0272922D01*
X0301004Y0272770D01*
X0300948Y0272619D01*
X0300887Y0272470D01*
X0300824Y0272322D01*
X0300756Y0272176D01*
X0300685Y0272032D01*
X0300611Y0271890D01*
X0300533Y0271749D01*
X0300451Y0271611D01*
X0300366Y0271474D01*
X0300278Y0271340D01*
X0300186Y0271208D01*
X0300091Y0271078D01*
X0299993Y0270950D01*
X0299892Y0270825D01*
X0299788Y0270703D01*
X0299681Y0270583D01*
X0299571Y0270466D01*
X0299458Y0270351D01*
X0299342Y0270240D01*
X0299223Y0270131D01*
X0299102Y0270026D01*
X0298978Y0269923D01*
X0298852Y0269823D01*
X0298724Y0269727D01*
X0298593Y0269634D01*
X0298459Y0269544D01*
X0298324Y0269457D01*
X0298186Y0269374D01*
X0298047Y0269294D01*
X0297905Y0269218D01*
X0297762Y0269145D01*
X0297617Y0269076D01*
X0297470Y0269010D01*
X0297322Y0268948D01*
X0297172Y0268890D01*
X0297021Y0268835D01*
X0296868Y0268784D01*
X0296714Y0268737D01*
X0296559Y0268694D01*
X0296403Y0268655D01*
X0296247Y0268619D01*
X0296089Y0268588D01*
X0295931Y0268560D01*
X0295772Y0268536D01*
X0295612Y0268516D01*
X0295452Y0268500D01*
X0295292Y0268488D01*
X0295131Y0268480D01*
X0294970Y0268476D01*
X0294810Y0268476D01*
X0294649Y0268480D01*
X0294488Y0268488D01*
X0294328Y0268500D01*
X0294168Y0268516D01*
X0294008Y0268536D01*
X0293849Y0268560D01*
X0293691Y0268588D01*
X0293533Y0268619D01*
X0293377Y0268655D01*
X0293221Y0268694D01*
X0293066Y0268737D01*
X0292912Y0268784D01*
X0292759Y0268835D01*
X0292608Y0268890D01*
X0292458Y0268948D01*
X0292310Y0269010D01*
X0292163Y0269076D01*
X0292018Y0269145D01*
X0291875Y0269218D01*
X0291733Y0269294D01*
X0291594Y0269374D01*
X0291456Y0269457D01*
X0291321Y0269544D01*
X0291187Y0269634D01*
X0291056Y0269727D01*
X0290928Y0269823D01*
X0290802Y0269923D01*
X0290678Y0270026D01*
X0290557Y0270131D01*
X0290438Y0270240D01*
X0290322Y0270351D01*
X0290209Y0270466D01*
X0290099Y0270583D01*
X0289992Y0270703D01*
X0289888Y0270825D01*
X0289787Y0270950D01*
X0289689Y0271078D01*
X0289594Y0271208D01*
X0289502Y0271340D01*
X0289414Y0271474D01*
X0289329Y0271611D01*
X0289247Y0271749D01*
X0289169Y0271890D01*
X0289095Y0272032D01*
X0289024Y0272176D01*
X0288956Y0272322D01*
X0288893Y0272470D01*
X0288832Y0272619D01*
X0288776Y0272770D01*
X0288723Y0272922D01*
X0288674Y0273075D01*
X0288629Y0273229D01*
X0288588Y0273384D01*
X0288550Y0273541D01*
X0288517Y0273698D01*
X0288487Y0273856D01*
X0288461Y0274015D01*
X0288440Y0274174D01*
X0288422Y0274334D01*
X0288408Y0274494D01*
X0288398Y0274655D01*
X0288392Y0274815D01*
X0288390Y0274976D01*
X0256480Y0315961D02*
X0256482Y0316109D01*
X0256488Y0316257D01*
X0256498Y0316405D01*
X0256512Y0316552D01*
X0256530Y0316699D01*
X0256551Y0316845D01*
X0256577Y0316991D01*
X0256607Y0317136D01*
X0256640Y0317280D01*
X0256678Y0317423D01*
X0256719Y0317565D01*
X0256764Y0317706D01*
X0256812Y0317846D01*
X0256865Y0317985D01*
X0256921Y0318122D01*
X0256981Y0318257D01*
X0257044Y0318391D01*
X0257111Y0318523D01*
X0257182Y0318653D01*
X0257256Y0318781D01*
X0257333Y0318907D01*
X0257414Y0319031D01*
X0257498Y0319153D01*
X0257585Y0319272D01*
X0257676Y0319389D01*
X0257770Y0319504D01*
X0257866Y0319616D01*
X0257966Y0319726D01*
X0258068Y0319832D01*
X0258174Y0319936D01*
X0258282Y0320037D01*
X0258393Y0320135D01*
X0258506Y0320231D01*
X0258622Y0320323D01*
X0258740Y0320412D01*
X0258861Y0320497D01*
X0258984Y0320580D01*
X0259109Y0320659D01*
X0259236Y0320735D01*
X0259365Y0320807D01*
X0259496Y0320876D01*
X0259629Y0320941D01*
X0259764Y0321002D01*
X0259900Y0321060D01*
X0260037Y0321115D01*
X0260176Y0321165D01*
X0260317Y0321212D01*
X0260458Y0321255D01*
X0260601Y0321295D01*
X0260745Y0321330D01*
X0260889Y0321362D01*
X0261035Y0321389D01*
X0261181Y0321413D01*
X0261328Y0321433D01*
X0261475Y0321449D01*
X0261622Y0321461D01*
X0261770Y0321469D01*
X0261918Y0321473D01*
X0262066Y0321473D01*
X0262214Y0321469D01*
X0262362Y0321461D01*
X0262509Y0321449D01*
X0262656Y0321433D01*
X0262803Y0321413D01*
X0262949Y0321389D01*
X0263095Y0321362D01*
X0263239Y0321330D01*
X0263383Y0321295D01*
X0263526Y0321255D01*
X0263667Y0321212D01*
X0263808Y0321165D01*
X0263947Y0321115D01*
X0264084Y0321060D01*
X0264220Y0321002D01*
X0264355Y0320941D01*
X0264488Y0320876D01*
X0264619Y0320807D01*
X0264748Y0320735D01*
X0264875Y0320659D01*
X0265000Y0320580D01*
X0265123Y0320497D01*
X0265244Y0320412D01*
X0265362Y0320323D01*
X0265478Y0320231D01*
X0265591Y0320135D01*
X0265702Y0320037D01*
X0265810Y0319936D01*
X0265916Y0319832D01*
X0266018Y0319726D01*
X0266118Y0319616D01*
X0266214Y0319504D01*
X0266308Y0319389D01*
X0266399Y0319272D01*
X0266486Y0319153D01*
X0266570Y0319031D01*
X0266651Y0318907D01*
X0266728Y0318781D01*
X0266802Y0318653D01*
X0266873Y0318523D01*
X0266940Y0318391D01*
X0267003Y0318257D01*
X0267063Y0318122D01*
X0267119Y0317985D01*
X0267172Y0317846D01*
X0267220Y0317706D01*
X0267265Y0317565D01*
X0267306Y0317423D01*
X0267344Y0317280D01*
X0267377Y0317136D01*
X0267407Y0316991D01*
X0267433Y0316845D01*
X0267454Y0316699D01*
X0267472Y0316552D01*
X0267486Y0316405D01*
X0267496Y0316257D01*
X0267502Y0316109D01*
X0267504Y0315961D01*
X0267502Y0315813D01*
X0267496Y0315665D01*
X0267486Y0315517D01*
X0267472Y0315370D01*
X0267454Y0315223D01*
X0267433Y0315077D01*
X0267407Y0314931D01*
X0267377Y0314786D01*
X0267344Y0314642D01*
X0267306Y0314499D01*
X0267265Y0314357D01*
X0267220Y0314216D01*
X0267172Y0314076D01*
X0267119Y0313937D01*
X0267063Y0313800D01*
X0267003Y0313665D01*
X0266940Y0313531D01*
X0266873Y0313399D01*
X0266802Y0313269D01*
X0266728Y0313141D01*
X0266651Y0313015D01*
X0266570Y0312891D01*
X0266486Y0312769D01*
X0266399Y0312650D01*
X0266308Y0312533D01*
X0266214Y0312418D01*
X0266118Y0312306D01*
X0266018Y0312196D01*
X0265916Y0312090D01*
X0265810Y0311986D01*
X0265702Y0311885D01*
X0265591Y0311787D01*
X0265478Y0311691D01*
X0265362Y0311599D01*
X0265244Y0311510D01*
X0265123Y0311425D01*
X0265000Y0311342D01*
X0264875Y0311263D01*
X0264748Y0311187D01*
X0264619Y0311115D01*
X0264488Y0311046D01*
X0264355Y0310981D01*
X0264220Y0310920D01*
X0264084Y0310862D01*
X0263947Y0310807D01*
X0263808Y0310757D01*
X0263667Y0310710D01*
X0263526Y0310667D01*
X0263383Y0310627D01*
X0263239Y0310592D01*
X0263095Y0310560D01*
X0262949Y0310533D01*
X0262803Y0310509D01*
X0262656Y0310489D01*
X0262509Y0310473D01*
X0262362Y0310461D01*
X0262214Y0310453D01*
X0262066Y0310449D01*
X0261918Y0310449D01*
X0261770Y0310453D01*
X0261622Y0310461D01*
X0261475Y0310473D01*
X0261328Y0310489D01*
X0261181Y0310509D01*
X0261035Y0310533D01*
X0260889Y0310560D01*
X0260745Y0310592D01*
X0260601Y0310627D01*
X0260458Y0310667D01*
X0260317Y0310710D01*
X0260176Y0310757D01*
X0260037Y0310807D01*
X0259900Y0310862D01*
X0259764Y0310920D01*
X0259629Y0310981D01*
X0259496Y0311046D01*
X0259365Y0311115D01*
X0259236Y0311187D01*
X0259109Y0311263D01*
X0258984Y0311342D01*
X0258861Y0311425D01*
X0258740Y0311510D01*
X0258622Y0311599D01*
X0258506Y0311691D01*
X0258393Y0311787D01*
X0258282Y0311885D01*
X0258174Y0311986D01*
X0258068Y0312090D01*
X0257966Y0312196D01*
X0257866Y0312306D01*
X0257770Y0312418D01*
X0257676Y0312533D01*
X0257585Y0312650D01*
X0257498Y0312769D01*
X0257414Y0312891D01*
X0257333Y0313015D01*
X0257256Y0313141D01*
X0257182Y0313269D01*
X0257111Y0313399D01*
X0257044Y0313531D01*
X0256981Y0313665D01*
X0256921Y0313800D01*
X0256865Y0313937D01*
X0256812Y0314076D01*
X0256764Y0314216D01*
X0256719Y0314357D01*
X0256678Y0314499D01*
X0256640Y0314642D01*
X0256607Y0314786D01*
X0256577Y0314931D01*
X0256551Y0315077D01*
X0256530Y0315223D01*
X0256512Y0315370D01*
X0256498Y0315517D01*
X0256488Y0315665D01*
X0256482Y0315813D01*
X0256480Y0315961D01*
X0051756Y0315961D02*
X0051758Y0316109D01*
X0051764Y0316257D01*
X0051774Y0316405D01*
X0051788Y0316552D01*
X0051806Y0316699D01*
X0051827Y0316845D01*
X0051853Y0316991D01*
X0051883Y0317136D01*
X0051916Y0317280D01*
X0051954Y0317423D01*
X0051995Y0317565D01*
X0052040Y0317706D01*
X0052088Y0317846D01*
X0052141Y0317985D01*
X0052197Y0318122D01*
X0052257Y0318257D01*
X0052320Y0318391D01*
X0052387Y0318523D01*
X0052458Y0318653D01*
X0052532Y0318781D01*
X0052609Y0318907D01*
X0052690Y0319031D01*
X0052774Y0319153D01*
X0052861Y0319272D01*
X0052952Y0319389D01*
X0053046Y0319504D01*
X0053142Y0319616D01*
X0053242Y0319726D01*
X0053344Y0319832D01*
X0053450Y0319936D01*
X0053558Y0320037D01*
X0053669Y0320135D01*
X0053782Y0320231D01*
X0053898Y0320323D01*
X0054016Y0320412D01*
X0054137Y0320497D01*
X0054260Y0320580D01*
X0054385Y0320659D01*
X0054512Y0320735D01*
X0054641Y0320807D01*
X0054772Y0320876D01*
X0054905Y0320941D01*
X0055040Y0321002D01*
X0055176Y0321060D01*
X0055313Y0321115D01*
X0055452Y0321165D01*
X0055593Y0321212D01*
X0055734Y0321255D01*
X0055877Y0321295D01*
X0056021Y0321330D01*
X0056165Y0321362D01*
X0056311Y0321389D01*
X0056457Y0321413D01*
X0056604Y0321433D01*
X0056751Y0321449D01*
X0056898Y0321461D01*
X0057046Y0321469D01*
X0057194Y0321473D01*
X0057342Y0321473D01*
X0057490Y0321469D01*
X0057638Y0321461D01*
X0057785Y0321449D01*
X0057932Y0321433D01*
X0058079Y0321413D01*
X0058225Y0321389D01*
X0058371Y0321362D01*
X0058515Y0321330D01*
X0058659Y0321295D01*
X0058802Y0321255D01*
X0058943Y0321212D01*
X0059084Y0321165D01*
X0059223Y0321115D01*
X0059360Y0321060D01*
X0059496Y0321002D01*
X0059631Y0320941D01*
X0059764Y0320876D01*
X0059895Y0320807D01*
X0060024Y0320735D01*
X0060151Y0320659D01*
X0060276Y0320580D01*
X0060399Y0320497D01*
X0060520Y0320412D01*
X0060638Y0320323D01*
X0060754Y0320231D01*
X0060867Y0320135D01*
X0060978Y0320037D01*
X0061086Y0319936D01*
X0061192Y0319832D01*
X0061294Y0319726D01*
X0061394Y0319616D01*
X0061490Y0319504D01*
X0061584Y0319389D01*
X0061675Y0319272D01*
X0061762Y0319153D01*
X0061846Y0319031D01*
X0061927Y0318907D01*
X0062004Y0318781D01*
X0062078Y0318653D01*
X0062149Y0318523D01*
X0062216Y0318391D01*
X0062279Y0318257D01*
X0062339Y0318122D01*
X0062395Y0317985D01*
X0062448Y0317846D01*
X0062496Y0317706D01*
X0062541Y0317565D01*
X0062582Y0317423D01*
X0062620Y0317280D01*
X0062653Y0317136D01*
X0062683Y0316991D01*
X0062709Y0316845D01*
X0062730Y0316699D01*
X0062748Y0316552D01*
X0062762Y0316405D01*
X0062772Y0316257D01*
X0062778Y0316109D01*
X0062780Y0315961D01*
X0062778Y0315813D01*
X0062772Y0315665D01*
X0062762Y0315517D01*
X0062748Y0315370D01*
X0062730Y0315223D01*
X0062709Y0315077D01*
X0062683Y0314931D01*
X0062653Y0314786D01*
X0062620Y0314642D01*
X0062582Y0314499D01*
X0062541Y0314357D01*
X0062496Y0314216D01*
X0062448Y0314076D01*
X0062395Y0313937D01*
X0062339Y0313800D01*
X0062279Y0313665D01*
X0062216Y0313531D01*
X0062149Y0313399D01*
X0062078Y0313269D01*
X0062004Y0313141D01*
X0061927Y0313015D01*
X0061846Y0312891D01*
X0061762Y0312769D01*
X0061675Y0312650D01*
X0061584Y0312533D01*
X0061490Y0312418D01*
X0061394Y0312306D01*
X0061294Y0312196D01*
X0061192Y0312090D01*
X0061086Y0311986D01*
X0060978Y0311885D01*
X0060867Y0311787D01*
X0060754Y0311691D01*
X0060638Y0311599D01*
X0060520Y0311510D01*
X0060399Y0311425D01*
X0060276Y0311342D01*
X0060151Y0311263D01*
X0060024Y0311187D01*
X0059895Y0311115D01*
X0059764Y0311046D01*
X0059631Y0310981D01*
X0059496Y0310920D01*
X0059360Y0310862D01*
X0059223Y0310807D01*
X0059084Y0310757D01*
X0058943Y0310710D01*
X0058802Y0310667D01*
X0058659Y0310627D01*
X0058515Y0310592D01*
X0058371Y0310560D01*
X0058225Y0310533D01*
X0058079Y0310509D01*
X0057932Y0310489D01*
X0057785Y0310473D01*
X0057638Y0310461D01*
X0057490Y0310453D01*
X0057342Y0310449D01*
X0057194Y0310449D01*
X0057046Y0310453D01*
X0056898Y0310461D01*
X0056751Y0310473D01*
X0056604Y0310489D01*
X0056457Y0310509D01*
X0056311Y0310533D01*
X0056165Y0310560D01*
X0056021Y0310592D01*
X0055877Y0310627D01*
X0055734Y0310667D01*
X0055593Y0310710D01*
X0055452Y0310757D01*
X0055313Y0310807D01*
X0055176Y0310862D01*
X0055040Y0310920D01*
X0054905Y0310981D01*
X0054772Y0311046D01*
X0054641Y0311115D01*
X0054512Y0311187D01*
X0054385Y0311263D01*
X0054260Y0311342D01*
X0054137Y0311425D01*
X0054016Y0311510D01*
X0053898Y0311599D01*
X0053782Y0311691D01*
X0053669Y0311787D01*
X0053558Y0311885D01*
X0053450Y0311986D01*
X0053344Y0312090D01*
X0053242Y0312196D01*
X0053142Y0312306D01*
X0053046Y0312418D01*
X0052952Y0312533D01*
X0052861Y0312650D01*
X0052774Y0312769D01*
X0052690Y0312891D01*
X0052609Y0313015D01*
X0052532Y0313141D01*
X0052458Y0313269D01*
X0052387Y0313399D01*
X0052320Y0313531D01*
X0052257Y0313665D01*
X0052197Y0313800D01*
X0052141Y0313937D01*
X0052088Y0314076D01*
X0052040Y0314216D01*
X0051995Y0314357D01*
X0051954Y0314499D01*
X0051916Y0314642D01*
X0051883Y0314786D01*
X0051853Y0314931D01*
X0051827Y0315077D01*
X0051806Y0315223D01*
X0051788Y0315370D01*
X0051774Y0315517D01*
X0051764Y0315665D01*
X0051758Y0315813D01*
X0051756Y0315961D01*
M02*
