%
M48
M72
T01C0.0240
T02C0.0315
T03C0.0380
T04C0.0400
T05C0.0440
T06C0.1102
T07C0.1300
%
T01
X4349Y4529
X4841Y5021
X5530Y3939
X6219Y3053
X6613Y3643
X7302Y2069
X8876Y4037
X8089Y5513
X7105Y5513
X5333Y7285
X4939Y8958
X3660Y8269
X3758Y6006
X5235Y10631
X6711Y13191
X5825Y14273
X4250Y14765
X4250Y17128
X5431Y17029
X5235Y19687
X3168Y23328
X1298Y23624
X5333Y24214
X5136Y25986
X5431Y27167
X4743Y28643
X7794Y28643
X7794Y26773
X7794Y25986
X7794Y23820
X10156Y27167
X11239Y23820
X15372Y21852
X15865Y18801
X16652Y17718
X14880Y16143
X14093Y16340
X13699Y17423
X11435Y17029
X10648Y14765
X10254Y14175
X11829Y13584
X13896Y12895
X14487Y13289
X16652Y15061
X18227Y13387
X18128Y12698
X17439Y13191
X19014Y14962
X20589Y15750
X20983Y16340
X22065Y17423
X24034Y19883
X23542Y23328
X27577Y22147
X28365Y15257
X26298Y10533
X27282Y8958
X27282Y8269
X27872Y6596
X25806Y5021
X24723Y4529
X24132Y5513
X22754Y7187
X21770Y7187
X20491Y6006
X21278Y5612
X21967Y3151
X20491Y3151
X18719Y5612
X17538Y5218
X17538Y6399
X18325Y7876
X17046Y8171
X17439Y10533
X19703Y10533
X19703Y9549
X21376Y11616
X22754Y10631
X21770Y9746
X20983Y13092
X21376Y14765
X22853Y13880
X23246Y12994
X15963Y5021
X15963Y4332
X16750Y3939
X17833Y3151
X16357Y2561
X14191Y3348
X15176Y4824
X12518Y2462
X11829Y3545
X11829Y4234
X10746Y6006
X10648Y6793
X11829Y6694
X12715Y7482
X11928Y8958
X12715Y9549
X12715Y10533
X14093Y9943
X11042Y8565
X9861Y8565
X8975Y8958
X9861Y9943
X8876Y10631
X8680Y13486
X9565Y2069
X10746Y2069
X29054Y4037
T02
X15719Y22450
X14931Y22450
X14144Y22450
X13357Y22450
X12569Y22450
X11782Y22450
X10994Y22450
X10207Y22450
X9420Y22450
X8632Y22450
X8632Y31112
X9420Y31112
X10207Y31112
X10994Y31112
X11782Y31112
X12569Y31112
X13357Y31112
X14144Y31112
X14931Y31112
X15719Y31112
T03
X16215Y14061
X15215Y14061
X14215Y14061
X13215Y14061
X13215Y13061
X13215Y12061
X13215Y11061
X13215Y10061
X13215Y9061
X13215Y8061
X13215Y7061
X13215Y6061
X14215Y6061
X14215Y5061
X13215Y5061
X13215Y4061
X14215Y4061
X13215Y3061
X13215Y2061
X14215Y2061
X13215Y1061
X15215Y7061
X15215Y8061
X15215Y9061
X15215Y10061
X15215Y11061
X15215Y12061
X15215Y13061
X16215Y13061
X16215Y12061
X16215Y11061
X16215Y10061
X16215Y9061
X16215Y8061
X16215Y7061
X19215Y7061
X19215Y8061
X19215Y9061
X19215Y10061
X19215Y11061
X19215Y12061
X19215Y13061
X19215Y14061
X18215Y14061
X17215Y14061
X19215Y6061
X19215Y5061
X19215Y4061
X19215Y3061
X19215Y2061
X19215Y1061
T04
X29227Y6628
X29227Y7628
X29227Y8628
X30227Y8628
X30227Y7628
X30227Y6628
X30227Y13364
X30227Y14364
X30227Y15364
X29227Y15364
X29227Y14364
X29227Y13364
X22632Y18301
X21632Y18301
X21632Y19301
X21632Y20301
X22632Y20301
X22632Y19301
X20632Y19301
X19632Y19301
X18632Y19301
X17632Y19301
X17632Y20301
X18632Y20301
X19632Y20301
X20632Y20301
X20632Y18301
X19632Y18301
X18632Y18301
X17632Y18301
X14998Y18427
X13998Y18427
X13998Y19427
X13998Y20427
X14998Y20427
X14998Y19427
X12998Y19427
X11998Y19427
X10998Y19427
X9998Y19427
X9998Y20427
X10998Y20427
X11998Y20427
X12998Y20427
X12998Y18427
X11998Y18427
X10998Y18427
X9998Y18427
X2699Y14309
X1699Y14309
X1699Y13309
X2699Y13309
X2699Y12309
X1699Y12309
X1699Y8840
X1699Y7840
X1699Y6840
X2699Y6840
X2699Y7840
X2699Y8840
X1987Y18671
X1987Y19671
T05
X1400Y1033
X2967Y954
X2967Y4954
X1400Y5033
X7699Y4876
X9030Y4797
X9030Y797
X7699Y876
X7542Y12490
X6274Y12569
X4786Y12647
X6274Y16569
X7542Y16490
X9117Y16608
X9117Y12608
X4786Y16647
X22266Y16726
X23841Y16608
X25164Y16647
X26739Y16765
X26739Y12765
X25164Y12647
X23841Y12608
X22266Y12726
X21967Y4876
X23195Y4915
X23195Y915
X21967Y876
X29203Y915
X30384Y1033
X29203Y4915
X30384Y5033
X23589Y26498
X23589Y27498
X23589Y28498
T06
X26199Y31596
X5727Y31596
X5333Y1675
X26593Y1675
T07
X29489Y27498
M30
