G75*
%MOIN*%
%OFA0B0*%
%FSLAX25Y25*%
%IPPOS*%
%LPD*%
%AMOC8*
5,1,8,0,0,1.08239X$1,22.5*
%
%ADD10R,0.05118X0.05906*%
%ADD11R,0.05906X0.05118*%
%ADD12C,0.06600*%
%ADD13C,0.06600*%
%ADD14R,0.02362X0.08661*%
%ADD15C,0.00500*%
%ADD16C,0.06000*%
%ADD17OC8,0.06000*%
%ADD18C,0.01181*%
%ADD19R,0.03937X0.04331*%
%ADD20C,0.06000*%
%ADD21C,0.05800*%
%ADD22R,0.05000X0.05000*%
%ADD23C,0.04000*%
%ADD24C,0.04000*%
%ADD25C,0.02000*%
D10*
X0209354Y0284543D03*
X0216047Y0284543D03*
D11*
X0218764Y0272732D03*
X0218764Y0266039D03*
D12*
X0014000Y0010331D03*
X0029669Y0009543D03*
X0029669Y0049543D03*
X0014000Y0050331D03*
X0076992Y0048756D03*
X0090299Y0047969D03*
X0090299Y0007969D03*
X0076992Y0008756D03*
X0075417Y0124898D03*
X0062740Y0125685D03*
X0047858Y0126472D03*
X0062740Y0165685D03*
X0075417Y0164898D03*
X0091165Y0166079D03*
X0091165Y0126079D03*
X0047858Y0166472D03*
X0222661Y0167260D03*
X0238409Y0166079D03*
X0251638Y0166472D03*
X0267386Y0167654D03*
X0267386Y0127654D03*
X0251638Y0126472D03*
X0238409Y0126079D03*
X0222661Y0127260D03*
X0219669Y0048756D03*
X0231953Y0049150D03*
X0231953Y0009150D03*
X0219669Y0008756D03*
X0292031Y0009150D03*
X0303843Y0010331D03*
X0292031Y0049150D03*
X0303843Y0050331D03*
D13*
X0239190Y0264976D02*
X0232590Y0264976D01*
X0232590Y0274976D02*
X0239190Y0274976D01*
X0239190Y0284976D02*
X0232590Y0284976D01*
D14*
X0232524Y0114307D03*
X0237524Y0114307D03*
X0242524Y0114307D03*
X0247524Y0114307D03*
X0252524Y0114307D03*
X0257524Y0114307D03*
X0262524Y0114307D03*
X0267524Y0114307D03*
X0227524Y0114307D03*
X0222524Y0114307D03*
X0222524Y0063126D03*
X0227524Y0063126D03*
X0232524Y0063126D03*
X0237524Y0063126D03*
X0242524Y0063126D03*
X0247524Y0063126D03*
X0252524Y0063126D03*
X0257524Y0063126D03*
X0262524Y0063126D03*
X0267524Y0063126D03*
X0094098Y0063126D03*
X0089098Y0063126D03*
X0084098Y0063126D03*
X0079098Y0063126D03*
X0074098Y0063126D03*
X0069098Y0063126D03*
X0064098Y0063126D03*
X0059098Y0063126D03*
X0054098Y0063126D03*
X0049098Y0063126D03*
X0049098Y0114307D03*
X0054098Y0114307D03*
X0059098Y0114307D03*
X0064098Y0114307D03*
X0069098Y0114307D03*
X0074098Y0114307D03*
X0079098Y0114307D03*
X0084098Y0114307D03*
X0089098Y0114307D03*
X0094098Y0114307D03*
D15*
X0086598Y0103717D02*
X0056598Y0103717D01*
X0056598Y0073717D01*
X0086598Y0073717D01*
X0086598Y0103717D01*
X0086598Y0103693D02*
X0056598Y0103693D01*
X0056598Y0103195D02*
X0086598Y0103195D01*
X0086598Y0102696D02*
X0056598Y0102696D01*
X0056598Y0102198D02*
X0086598Y0102198D01*
X0086598Y0101699D02*
X0056598Y0101699D01*
X0056598Y0101201D02*
X0086598Y0101201D01*
X0086598Y0100702D02*
X0056598Y0100702D01*
X0056598Y0100204D02*
X0086598Y0100204D01*
X0086598Y0099705D02*
X0056598Y0099705D01*
X0056598Y0099207D02*
X0086598Y0099207D01*
X0086598Y0098708D02*
X0056598Y0098708D01*
X0056598Y0098210D02*
X0086598Y0098210D01*
X0086598Y0097711D02*
X0056598Y0097711D01*
X0056598Y0097213D02*
X0086598Y0097213D01*
X0086598Y0096714D02*
X0056598Y0096714D01*
X0056598Y0096216D02*
X0086598Y0096216D01*
X0086598Y0095717D02*
X0056598Y0095717D01*
X0056598Y0095219D02*
X0086598Y0095219D01*
X0086598Y0094720D02*
X0056598Y0094720D01*
X0056598Y0094222D02*
X0086598Y0094222D01*
X0086598Y0093723D02*
X0056598Y0093723D01*
X0056598Y0093225D02*
X0086598Y0093225D01*
X0086598Y0092726D02*
X0056598Y0092726D01*
X0056598Y0092228D02*
X0086598Y0092228D01*
X0086598Y0091729D02*
X0056598Y0091729D01*
X0056598Y0091231D02*
X0086598Y0091231D01*
X0086598Y0090732D02*
X0056598Y0090732D01*
X0056598Y0090234D02*
X0086598Y0090234D01*
X0086598Y0089735D02*
X0056598Y0089735D01*
X0056598Y0089237D02*
X0086598Y0089237D01*
X0086598Y0088738D02*
X0056598Y0088738D01*
X0056598Y0088239D02*
X0086598Y0088239D01*
X0086598Y0087741D02*
X0056598Y0087741D01*
X0056598Y0087242D02*
X0086598Y0087242D01*
X0086598Y0086744D02*
X0056598Y0086744D01*
X0056598Y0086245D02*
X0086598Y0086245D01*
X0086598Y0085747D02*
X0056598Y0085747D01*
X0056598Y0085248D02*
X0086598Y0085248D01*
X0086598Y0084750D02*
X0056598Y0084750D01*
X0056598Y0084251D02*
X0086598Y0084251D01*
X0086598Y0083753D02*
X0056598Y0083753D01*
X0056598Y0083254D02*
X0086598Y0083254D01*
X0086598Y0082756D02*
X0056598Y0082756D01*
X0056598Y0082257D02*
X0086598Y0082257D01*
X0086598Y0081759D02*
X0056598Y0081759D01*
X0056598Y0081260D02*
X0086598Y0081260D01*
X0086598Y0080762D02*
X0056598Y0080762D01*
X0056598Y0080263D02*
X0086598Y0080263D01*
X0086598Y0079765D02*
X0056598Y0079765D01*
X0056598Y0079266D02*
X0086598Y0079266D01*
X0086598Y0078768D02*
X0056598Y0078768D01*
X0056598Y0078269D02*
X0086598Y0078269D01*
X0086598Y0077771D02*
X0056598Y0077771D01*
X0056598Y0077272D02*
X0086598Y0077272D01*
X0086598Y0076774D02*
X0056598Y0076774D01*
X0056598Y0076275D02*
X0086598Y0076275D01*
X0086598Y0075777D02*
X0056598Y0075777D01*
X0056598Y0075278D02*
X0086598Y0075278D01*
X0086598Y0074780D02*
X0056598Y0074780D01*
X0056598Y0074281D02*
X0086598Y0074281D01*
X0086598Y0073783D02*
X0056598Y0073783D01*
X0230024Y0073783D02*
X0260024Y0073783D01*
X0260024Y0073717D02*
X0230024Y0073717D01*
X0230024Y0103717D01*
X0260024Y0103717D01*
X0260024Y0073717D01*
X0260024Y0074281D02*
X0230024Y0074281D01*
X0230024Y0074780D02*
X0260024Y0074780D01*
X0260024Y0075278D02*
X0230024Y0075278D01*
X0230024Y0075777D02*
X0260024Y0075777D01*
X0260024Y0076275D02*
X0230024Y0076275D01*
X0230024Y0076774D02*
X0260024Y0076774D01*
X0260024Y0077272D02*
X0230024Y0077272D01*
X0230024Y0077771D02*
X0260024Y0077771D01*
X0260024Y0078269D02*
X0230024Y0078269D01*
X0230024Y0078768D02*
X0260024Y0078768D01*
X0260024Y0079266D02*
X0230024Y0079266D01*
X0230024Y0079765D02*
X0260024Y0079765D01*
X0260024Y0080263D02*
X0230024Y0080263D01*
X0230024Y0080762D02*
X0260024Y0080762D01*
X0260024Y0081260D02*
X0230024Y0081260D01*
X0230024Y0081759D02*
X0260024Y0081759D01*
X0260024Y0082257D02*
X0230024Y0082257D01*
X0230024Y0082756D02*
X0260024Y0082756D01*
X0260024Y0083254D02*
X0230024Y0083254D01*
X0230024Y0083753D02*
X0260024Y0083753D01*
X0260024Y0084251D02*
X0230024Y0084251D01*
X0230024Y0084750D02*
X0260024Y0084750D01*
X0260024Y0085248D02*
X0230024Y0085248D01*
X0230024Y0085747D02*
X0260024Y0085747D01*
X0260024Y0086245D02*
X0230024Y0086245D01*
X0230024Y0086744D02*
X0260024Y0086744D01*
X0260024Y0087242D02*
X0230024Y0087242D01*
X0230024Y0087741D02*
X0260024Y0087741D01*
X0260024Y0088239D02*
X0230024Y0088239D01*
X0230024Y0088738D02*
X0260024Y0088738D01*
X0260024Y0089237D02*
X0230024Y0089237D01*
X0230024Y0089735D02*
X0260024Y0089735D01*
X0260024Y0090234D02*
X0230024Y0090234D01*
X0230024Y0090732D02*
X0260024Y0090732D01*
X0260024Y0091231D02*
X0230024Y0091231D01*
X0230024Y0091729D02*
X0260024Y0091729D01*
X0260024Y0092228D02*
X0230024Y0092228D01*
X0230024Y0092726D02*
X0260024Y0092726D01*
X0260024Y0093225D02*
X0230024Y0093225D01*
X0230024Y0093723D02*
X0260024Y0093723D01*
X0260024Y0094222D02*
X0230024Y0094222D01*
X0230024Y0094720D02*
X0260024Y0094720D01*
X0260024Y0095219D02*
X0230024Y0095219D01*
X0230024Y0095717D02*
X0260024Y0095717D01*
X0260024Y0096216D02*
X0230024Y0096216D01*
X0230024Y0096714D02*
X0260024Y0096714D01*
X0260024Y0097213D02*
X0230024Y0097213D01*
X0230024Y0097711D02*
X0260024Y0097711D01*
X0260024Y0098210D02*
X0230024Y0098210D01*
X0230024Y0098708D02*
X0260024Y0098708D01*
X0260024Y0099207D02*
X0230024Y0099207D01*
X0230024Y0099705D02*
X0260024Y0099705D01*
X0260024Y0100204D02*
X0230024Y0100204D01*
X0230024Y0100702D02*
X0260024Y0100702D01*
X0260024Y0101201D02*
X0230024Y0101201D01*
X0230024Y0101699D02*
X0260024Y0101699D01*
X0260024Y0102198D02*
X0230024Y0102198D01*
X0230024Y0102696D02*
X0260024Y0102696D01*
X0260024Y0103195D02*
X0230024Y0103195D01*
X0230024Y0103693D02*
X0260024Y0103693D01*
D16*
X0157189Y0224504D03*
X0149315Y0224504D03*
X0141441Y0224504D03*
X0133567Y0224504D03*
X0125693Y0224504D03*
X0117819Y0224504D03*
X0109945Y0224504D03*
X0102071Y0224504D03*
X0094197Y0224504D03*
X0086323Y0224504D03*
X0086323Y0311118D03*
X0094197Y0311118D03*
X0102071Y0311118D03*
X0109945Y0311118D03*
X0117819Y0311118D03*
X0125693Y0311118D03*
X0133567Y0311118D03*
X0141441Y0311118D03*
X0149315Y0311118D03*
X0157189Y0311118D03*
D17*
X0149984Y0204268D03*
X0139984Y0204268D03*
X0139984Y0194268D03*
X0149984Y0194268D03*
X0149984Y0184268D03*
X0139984Y0184268D03*
X0129984Y0184268D03*
X0129984Y0194268D03*
X0129984Y0204268D03*
X0119984Y0204268D03*
X0109984Y0204268D03*
X0099984Y0204268D03*
X0099984Y0194268D03*
X0109984Y0194268D03*
X0119984Y0194268D03*
X0119984Y0184268D03*
X0109984Y0184268D03*
X0099984Y0184268D03*
X0026992Y0143087D03*
X0016992Y0143087D03*
X0016992Y0133087D03*
X0026992Y0133087D03*
X0026992Y0123087D03*
X0016992Y0123087D03*
X0016992Y0088402D03*
X0026992Y0088402D03*
X0026992Y0078402D03*
X0016992Y0078402D03*
X0016992Y0068402D03*
X0026992Y0068402D03*
X0176323Y0183008D03*
X0186323Y0183008D03*
X0196323Y0183008D03*
X0206323Y0183008D03*
X0206323Y0193008D03*
X0206323Y0203008D03*
X0196323Y0203008D03*
X0196323Y0193008D03*
X0186323Y0193008D03*
X0186323Y0203008D03*
X0176323Y0203008D03*
X0176323Y0193008D03*
X0216323Y0193008D03*
X0226323Y0193008D03*
X0226323Y0203008D03*
X0216323Y0203008D03*
X0216323Y0183008D03*
X0226323Y0183008D03*
X0292268Y0153638D03*
X0292268Y0143638D03*
X0292268Y0133638D03*
X0302268Y0133638D03*
X0302268Y0143638D03*
X0302268Y0153638D03*
X0302268Y0086276D03*
X0302268Y0076276D03*
X0302268Y0066276D03*
X0292268Y0066276D03*
X0292268Y0076276D03*
X0292268Y0086276D03*
D18*
X0050327Y0234425D02*
X0050327Y0237181D01*
X0053083Y0237181D01*
X0053083Y0234425D01*
X0050327Y0234425D01*
X0050327Y0235605D02*
X0053083Y0235605D01*
X0053083Y0236785D02*
X0050327Y0236785D01*
X0043421Y0237181D02*
X0043421Y0234425D01*
X0043421Y0237181D02*
X0046177Y0237181D01*
X0046177Y0234425D01*
X0043421Y0234425D01*
X0043421Y0235605D02*
X0046177Y0235605D01*
X0046177Y0236785D02*
X0043421Y0236785D01*
X0043421Y0249425D02*
X0043421Y0252181D01*
X0046177Y0252181D01*
X0046177Y0249425D01*
X0043421Y0249425D01*
X0043421Y0250605D02*
X0046177Y0250605D01*
X0046177Y0251785D02*
X0043421Y0251785D01*
X0050327Y0252181D02*
X0050327Y0249425D01*
X0050327Y0252181D02*
X0053083Y0252181D01*
X0053083Y0249425D01*
X0050327Y0249425D01*
X0050327Y0250605D02*
X0053083Y0250605D01*
X0053083Y0251785D02*
X0050327Y0251785D01*
X0050327Y0264425D02*
X0050327Y0267181D01*
X0053083Y0267181D01*
X0053083Y0264425D01*
X0050327Y0264425D01*
X0050327Y0265605D02*
X0053083Y0265605D01*
X0053083Y0266785D02*
X0050327Y0266785D01*
X0043421Y0267181D02*
X0043421Y0264425D01*
X0043421Y0267181D02*
X0046177Y0267181D01*
X0046177Y0264425D01*
X0043421Y0264425D01*
X0043421Y0265605D02*
X0046177Y0265605D01*
X0046177Y0266785D02*
X0043421Y0266785D01*
X0043421Y0279425D02*
X0043421Y0282181D01*
X0046177Y0282181D01*
X0046177Y0279425D01*
X0043421Y0279425D01*
X0043421Y0280605D02*
X0046177Y0280605D01*
X0046177Y0281785D02*
X0043421Y0281785D01*
X0050327Y0282181D02*
X0050327Y0279425D01*
X0050327Y0282181D02*
X0053083Y0282181D01*
X0053083Y0279425D01*
X0050327Y0279425D01*
X0050327Y0280605D02*
X0053083Y0280605D01*
X0053083Y0281785D02*
X0050327Y0281785D01*
X0050327Y0294425D02*
X0050327Y0297181D01*
X0053083Y0297181D01*
X0053083Y0294425D01*
X0050327Y0294425D01*
X0050327Y0295605D02*
X0053083Y0295605D01*
X0053083Y0296785D02*
X0050327Y0296785D01*
X0043421Y0297181D02*
X0043421Y0294425D01*
X0043421Y0297181D02*
X0046177Y0297181D01*
X0046177Y0294425D01*
X0043421Y0294425D01*
X0043421Y0295605D02*
X0046177Y0295605D01*
X0046177Y0296785D02*
X0043421Y0296785D01*
D19*
X0071874Y0295409D03*
X0071874Y0288717D03*
X0071874Y0280409D03*
X0071874Y0273717D03*
X0071874Y0265409D03*
X0071874Y0258717D03*
X0071874Y0250409D03*
X0071874Y0243717D03*
X0071874Y0235409D03*
X0071874Y0228717D03*
D20*
X0022866Y0196709D02*
X0016866Y0196709D01*
X0016866Y0186709D02*
X0022866Y0186709D01*
D21*
X0132150Y0140606D03*
X0142150Y0140606D03*
X0152150Y0140606D03*
X0162150Y0140606D03*
X0162150Y0130606D03*
X0162150Y0120606D03*
X0162150Y0110606D03*
X0162150Y0100606D03*
X0162150Y0090606D03*
X0162150Y0080606D03*
X0162150Y0070606D03*
X0152150Y0070606D03*
X0152150Y0080606D03*
X0152150Y0090606D03*
X0152150Y0100606D03*
X0152150Y0110606D03*
X0152150Y0120606D03*
X0152150Y0130606D03*
X0132150Y0130606D03*
X0132150Y0120606D03*
X0132150Y0110606D03*
X0132150Y0100606D03*
X0132150Y0090606D03*
X0132150Y0080606D03*
X0132150Y0070606D03*
X0132150Y0060606D03*
X0142150Y0060606D03*
X0142150Y0050606D03*
X0142150Y0040606D03*
X0132150Y0040606D03*
X0132150Y0030606D03*
X0132150Y0020606D03*
X0142150Y0020606D03*
X0132150Y0010606D03*
X0132150Y0050606D03*
X0192150Y0050606D03*
X0192150Y0040606D03*
X0192150Y0030606D03*
X0192150Y0020606D03*
X0192150Y0010606D03*
X0192150Y0060606D03*
X0192150Y0070606D03*
X0192150Y0080606D03*
X0192150Y0090606D03*
X0192150Y0100606D03*
X0192150Y0110606D03*
X0192150Y0120606D03*
X0192150Y0130606D03*
X0192150Y0140606D03*
X0182150Y0140606D03*
X0172150Y0140606D03*
D22*
X0033646Y0167791D03*
X0033646Y0172791D03*
X0017898Y0207161D03*
X0017898Y0212161D03*
D23*
X0017898Y0212614D01*
X0023803Y0212614D01*
X0023803Y0225409D01*
X0031677Y0233283D01*
X0051705Y0235803D02*
X0052346Y0236236D01*
X0059236Y0236236D01*
X0059236Y0273638D01*
X0052346Y0280528D01*
X0051705Y0280803D01*
X0050378Y0279543D01*
X0050378Y0278559D01*
X0042504Y0270685D01*
X0036598Y0270685D01*
X0036598Y0206709D01*
X0056283Y0206709D01*
X0072031Y0190961D01*
X0072031Y0185055D01*
X0090732Y0166354D01*
X0091165Y0166079D01*
X0090732Y0164386D01*
X0090732Y0138795D01*
X0086795Y0134858D01*
X0081874Y0131906D02*
X0085811Y0127969D01*
X0085811Y0126000D01*
X0090732Y0126000D01*
X0091165Y0126079D01*
X0085811Y0126000D02*
X0079906Y0120094D01*
X0079906Y0115173D01*
X0079098Y0114307D01*
X0074098Y0114307D02*
X0074000Y0115173D01*
X0074000Y0123047D01*
X0074984Y0124031D01*
X0075417Y0124898D01*
X0069079Y0131906D02*
X0067110Y0131906D01*
X0069079Y0131906D02*
X0069079Y0115173D01*
X0069098Y0114307D01*
X0062740Y0125685D02*
X0062189Y0126000D01*
X0062189Y0138795D01*
X0058252Y0142732D01*
X0069079Y0131906D02*
X0069079Y0159465D01*
X0063173Y0165370D01*
X0062740Y0165685D01*
X0062189Y0167339D01*
X0062189Y0187024D01*
X0052346Y0196866D01*
X0054315Y0201787D02*
X0047425Y0201787D01*
X0047425Y0167339D01*
X0047858Y0166472D01*
X0047425Y0152575D02*
X0040535Y0152575D01*
X0037583Y0149622D01*
X0037583Y0123047D01*
X0042504Y0118126D01*
X0042504Y0046276D01*
X0043488Y0045291D01*
X0048409Y0050213D02*
X0048409Y0062024D01*
X0049098Y0063126D01*
X0048409Y0063992D01*
X0047425Y0064976D01*
X0047425Y0089583D01*
X0049394Y0089583D01*
X0047425Y0089583D02*
X0047425Y0113205D01*
X0048409Y0114189D01*
X0049098Y0114307D01*
X0047858Y0126472D02*
X0047425Y0126984D01*
X0047425Y0152575D01*
X0033646Y0172791D02*
X0033646Y0173244D01*
X0027740Y0179150D01*
X0028724Y0180134D01*
X0028724Y0206709D01*
X0036598Y0206709D01*
X0023803Y0212614D02*
X0023803Y0200803D01*
X0019866Y0196866D01*
X0019866Y0196709D01*
X0019866Y0187024D02*
X0019866Y0186709D01*
X0019866Y0187024D02*
X0027740Y0179150D01*
X0054315Y0201787D02*
X0067110Y0188992D01*
X0067110Y0183087D01*
X0081874Y0168323D01*
X0081874Y0131906D01*
X0089748Y0115173D02*
X0089098Y0114307D01*
X0089748Y0115173D02*
X0090732Y0115173D01*
X0090732Y0106315D01*
X0088764Y0106315D01*
X0090732Y0106315D02*
X0090732Y0089583D01*
X0089748Y0089583D01*
X0090732Y0089583D02*
X0090732Y0063992D01*
X0089748Y0063992D01*
X0089098Y0063126D01*
X0090732Y0063992D02*
X0093685Y0063992D01*
X0094098Y0063126D01*
X0083843Y0051197D02*
X0083843Y0014780D01*
X0077937Y0008874D01*
X0076992Y0008756D01*
X0073016Y0020685D02*
X0071047Y0022654D01*
X0071047Y0046276D01*
X0070063Y0047260D01*
X0070063Y0050213D01*
X0071047Y0051197D01*
X0071047Y0055134D01*
X0074000Y0058087D01*
X0074000Y0063008D01*
X0074098Y0063126D01*
X0079098Y0063126D02*
X0079906Y0063008D01*
X0079906Y0055134D01*
X0080890Y0055134D01*
X0079906Y0055134D02*
X0083843Y0051197D01*
X0037583Y0060055D02*
X0036598Y0060055D01*
X0036598Y0082693D01*
X0016913Y0087614D02*
X0016992Y0088402D01*
X0016913Y0087614D02*
X0011008Y0081709D01*
X0011008Y0054150D01*
X0013961Y0051197D01*
X0014000Y0050331D01*
X0028724Y0049228D02*
X0029669Y0049543D01*
X0028724Y0049228D02*
X0028724Y0024622D01*
X0014945Y0010843D01*
X0014000Y0010331D01*
X0029669Y0009543D02*
X0029709Y0009858D01*
X0036598Y0016748D01*
X0036598Y0060055D01*
X0090732Y0115173D02*
X0093685Y0115173D01*
X0094098Y0114307D01*
X0222524Y0114307D02*
X0222622Y0114189D01*
X0222622Y0064976D01*
X0222524Y0063126D01*
X0222622Y0063008D01*
X0222622Y0058087D01*
X0231480Y0049228D01*
X0231953Y0049150D01*
X0231480Y0047260D01*
X0231480Y0043323D01*
X0219669Y0031512D01*
X0232465Y0009858D02*
X0231953Y0009150D01*
X0232465Y0009858D02*
X0253134Y0030528D01*
X0253134Y0040370D01*
X0255102Y0040370D01*
X0260024Y0045291D01*
X0282661Y0022654D01*
X0282661Y0018717D01*
X0291520Y0009858D01*
X0292031Y0009150D01*
X0303843Y0010331D02*
X0304315Y0010843D01*
X0310220Y0016748D01*
X0310220Y0058087D01*
X0302346Y0065961D01*
X0302268Y0066276D01*
X0292031Y0049150D02*
X0291520Y0049228D01*
X0283646Y0057102D01*
X0283646Y0152575D01*
X0267386Y0167654D02*
X0266913Y0167339D01*
X0261008Y0161433D01*
X0261008Y0121079D01*
X0262976Y0119110D01*
X0262976Y0117142D01*
X0262524Y0114307D01*
X0262976Y0115173D01*
X0266913Y0115173D01*
X0267524Y0114307D01*
X0267898Y0112220D01*
X0267898Y0066945D01*
X0266913Y0065961D01*
X0267524Y0063126D01*
X0266913Y0063992D01*
X0262976Y0063992D01*
X0262524Y0063126D01*
X0261992Y0062024D01*
X0261992Y0054150D01*
X0258055Y0050213D01*
X0260024Y0045291D02*
X0271835Y0057102D01*
X0271835Y0059071D01*
X0278724Y0065961D01*
X0253134Y0063008D02*
X0253134Y0040370D01*
X0247228Y0045291D02*
X0247228Y0063008D01*
X0247524Y0063126D01*
X0252524Y0063126D02*
X0253134Y0063008D01*
X0247524Y0114307D02*
X0248213Y0115173D01*
X0248213Y0120094D01*
X0251165Y0123047D01*
X0251165Y0126000D01*
X0251638Y0126472D01*
X0245260Y0124031D02*
X0245260Y0159465D01*
X0239354Y0165370D01*
X0238409Y0166079D01*
X0236402Y0166354D01*
X0235417Y0166354D01*
X0235417Y0233283D01*
X0240339Y0198835D02*
X0240339Y0178165D01*
X0251165Y0167339D01*
X0251638Y0166472D01*
X0235417Y0166354D02*
X0223606Y0166354D01*
X0222661Y0167260D01*
X0245260Y0124031D02*
X0242307Y0121079D01*
X0242307Y0115173D01*
X0242524Y0114307D01*
X0051705Y0280803D02*
X0052346Y0282496D01*
X0052346Y0295291D01*
X0051705Y0295803D01*
D24*
X0047425Y0286433D03*
X0054315Y0271669D03*
X0051362Y0259858D03*
X0053331Y0242142D03*
X0031677Y0233283D03*
X0012976Y0236236D03*
X0052346Y0196866D03*
X0054315Y0170291D03*
X0042504Y0171276D03*
X0042504Y0147654D03*
X0058252Y0142732D03*
X0067110Y0131906D03*
X0086795Y0134858D03*
X0102543Y0141748D03*
X0106480Y0147654D03*
X0118291Y0135843D03*
X0138961Y0128953D03*
X0144866Y0132890D03*
X0166520Y0150606D03*
X0182268Y0133874D03*
X0181283Y0126984D03*
X0174394Y0131906D03*
X0190142Y0149622D03*
X0205890Y0157496D03*
X0209827Y0163402D03*
X0220654Y0174228D03*
X0240339Y0198835D03*
X0235417Y0233283D03*
X0275772Y0221472D03*
X0283646Y0152575D03*
X0262976Y0105331D03*
X0272819Y0089583D03*
X0272819Y0082693D03*
X0278724Y0065961D03*
X0258055Y0050213D03*
X0247228Y0045291D03*
X0241323Y0055134D03*
X0227543Y0071866D03*
X0217701Y0071866D03*
X0204906Y0060055D03*
X0212780Y0056118D03*
X0219669Y0031512D03*
X0204906Y0031512D03*
X0187189Y0056118D03*
X0175378Y0052181D03*
X0175378Y0063992D03*
X0183252Y0078756D03*
X0170457Y0081709D03*
X0174394Y0105331D03*
X0197031Y0105331D03*
X0197031Y0095488D03*
X0213764Y0116157D03*
X0227543Y0106315D03*
X0217701Y0097457D03*
X0209827Y0130921D03*
X0213764Y0147654D03*
X0228528Y0138795D03*
X0232465Y0129937D03*
X0166520Y0177181D03*
X0158646Y0188008D03*
X0136992Y0174228D03*
X0140929Y0163402D03*
X0148803Y0161433D03*
X0114354Y0170291D03*
X0153724Y0218520D03*
X0112386Y0238205D03*
X0101559Y0271669D03*
X0077937Y0267732D03*
X0077937Y0259858D03*
X0077937Y0238205D03*
X0077937Y0286433D03*
X0088764Y0106315D03*
X0098606Y0099425D03*
X0089748Y0089583D03*
X0098606Y0085646D03*
X0110417Y0085646D03*
X0119276Y0089583D03*
X0127150Y0095488D03*
X0127150Y0105331D03*
X0140929Y0099425D03*
X0127150Y0074819D03*
X0118291Y0066945D03*
X0106480Y0067929D03*
X0107465Y0060055D03*
X0118291Y0042339D03*
X0118291Y0035449D03*
X0125181Y0024622D03*
X0141913Y0033480D03*
X0151756Y0048244D03*
X0159630Y0050213D03*
X0159630Y0043323D03*
X0167504Y0039386D03*
X0178331Y0031512D03*
X0163567Y0025606D03*
X0107465Y0020685D03*
X0095654Y0020685D03*
X0088764Y0040370D03*
X0080890Y0055134D03*
X0071047Y0055134D03*
X0055299Y0039386D03*
X0062189Y0030528D03*
X0066126Y0036433D03*
X0073016Y0020685D03*
X0048409Y0050213D03*
X0043488Y0045291D03*
X0037583Y0060055D03*
X0053331Y0072850D03*
X0049394Y0089583D03*
X0036598Y0082693D03*
X0052346Y0106315D03*
X0290535Y0040370D03*
D25*
X0297425Y0047260D01*
X0297425Y0070882D01*
X0292504Y0075803D01*
X0292268Y0076276D01*
X0292268Y0086276D02*
X0292504Y0086630D01*
X0297425Y0091551D01*
X0297425Y0148638D01*
X0292504Y0153559D01*
X0292268Y0153638D01*
X0302268Y0143638D02*
X0302346Y0142732D01*
X0307268Y0137811D01*
X0307268Y0155528D01*
X0282661Y0180134D01*
X0282661Y0284465D01*
X0236402Y0284465D01*
X0235890Y0284976D01*
X0235417Y0284465D01*
X0216717Y0284465D01*
X0216047Y0284543D01*
X0210811Y0283480D02*
X0210811Y0281512D01*
X0218685Y0273638D01*
X0218764Y0272732D01*
X0217701Y0273638D01*
X0213764Y0269701D01*
X0213764Y0203756D01*
X0216323Y0203008D01*
X0215732Y0202772D01*
X0206874Y0202772D01*
X0206323Y0203008D01*
X0205890Y0202772D01*
X0197031Y0202772D01*
X0196323Y0203008D01*
X0196047Y0202772D01*
X0187189Y0202772D01*
X0186323Y0203008D01*
X0186323Y0193008D02*
X0187189Y0192929D01*
X0196047Y0192929D01*
X0196323Y0193008D01*
X0197031Y0192929D01*
X0205890Y0192929D01*
X0206323Y0193008D01*
X0206874Y0192929D01*
X0215732Y0192929D01*
X0216323Y0193008D01*
X0216717Y0192929D01*
X0225575Y0192929D01*
X0226323Y0193008D01*
X0226559Y0193913D01*
X0231480Y0198835D01*
X0231480Y0235252D01*
X0249689Y0253461D01*
X0279709Y0223441D01*
X0279709Y0089583D01*
X0272819Y0082693D01*
X0272819Y0089583D02*
X0275772Y0092535D01*
X0275772Y0221472D01*
X0249689Y0253461D02*
X0238370Y0264780D01*
X0236402Y0264780D01*
X0235890Y0264976D01*
X0235417Y0265764D01*
X0219669Y0265764D01*
X0218764Y0266039D01*
X0218764Y0272732D02*
X0219669Y0273638D01*
X0235417Y0273638D01*
X0235417Y0274622D01*
X0235890Y0274976D01*
X0210811Y0283480D02*
X0209827Y0284465D01*
X0209354Y0284543D01*
X0181283Y0218520D02*
X0153724Y0218520D01*
X0149787Y0204740D02*
X0140929Y0204740D01*
X0139984Y0204268D01*
X0139945Y0204740D01*
X0130102Y0204740D01*
X0129984Y0204268D01*
X0129118Y0204740D01*
X0120260Y0204740D01*
X0119984Y0204268D01*
X0119276Y0204740D01*
X0110417Y0204740D01*
X0109984Y0204268D01*
X0109433Y0204740D01*
X0100575Y0204740D01*
X0099984Y0204268D01*
X0100575Y0194898D02*
X0099984Y0194268D01*
X0100575Y0194898D02*
X0109433Y0194898D01*
X0109984Y0194268D01*
X0110417Y0194898D01*
X0119276Y0194898D01*
X0119984Y0194268D01*
X0120260Y0194898D01*
X0125181Y0194898D01*
X0125181Y0182102D01*
X0123213Y0180134D01*
X0123213Y0047260D01*
X0118291Y0042339D01*
X0114354Y0039386D02*
X0118291Y0035449D01*
X0114354Y0039386D02*
X0114354Y0170291D01*
X0127150Y0164386D02*
X0136992Y0174228D01*
X0139984Y0184268D02*
X0140929Y0184071D01*
X0140929Y0163402D01*
X0148803Y0161433D02*
X0133055Y0145685D01*
X0133055Y0140764D01*
X0132150Y0140606D01*
X0136992Y0143717D02*
X0158646Y0165370D01*
X0158646Y0188008D01*
X0149984Y0194268D02*
X0149787Y0194898D01*
X0140929Y0194898D01*
X0139984Y0194268D01*
X0139945Y0194898D01*
X0130102Y0194898D01*
X0129984Y0194268D01*
X0129118Y0194898D01*
X0125181Y0194898D01*
X0119984Y0184268D02*
X0119276Y0184071D01*
X0119276Y0136827D01*
X0118291Y0135843D01*
X0132150Y0130606D02*
X0133055Y0129937D01*
X0133055Y0128953D01*
X0136992Y0125016D01*
X0136992Y0095488D01*
X0127150Y0095488D01*
X0119276Y0089583D02*
X0118291Y0088598D01*
X0118291Y0066945D01*
X0111402Y0063008D02*
X0111402Y0015764D01*
X0119276Y0007890D01*
X0127150Y0007890D01*
X0127150Y0012811D01*
X0130102Y0015764D01*
X0155693Y0015764D01*
X0155693Y0046276D01*
X0159630Y0050213D01*
X0159630Y0043323D02*
X0163567Y0039386D01*
X0163567Y0025606D01*
X0151756Y0025606D02*
X0151756Y0048244D01*
X0136992Y0046276D02*
X0136992Y0038402D01*
X0141913Y0033480D01*
X0132071Y0031512D02*
X0132150Y0030606D01*
X0132071Y0031512D02*
X0127150Y0036433D01*
X0127150Y0074819D01*
X0132150Y0080606D02*
X0133055Y0080724D01*
X0140929Y0088598D01*
X0140929Y0099425D01*
X0127150Y0105331D02*
X0127150Y0164386D01*
X0136992Y0143717D02*
X0136992Y0130921D01*
X0138961Y0128953D01*
X0144866Y0132890D02*
X0144866Y0075803D01*
X0156677Y0075803D01*
X0161598Y0070882D01*
X0162150Y0070606D01*
X0162583Y0079740D02*
X0162150Y0080606D01*
X0162583Y0080724D01*
X0167504Y0085646D01*
X0167504Y0134858D01*
X0162583Y0139780D01*
X0162150Y0140606D01*
X0162583Y0140764D01*
X0162583Y0203756D01*
X0150772Y0203756D01*
X0149984Y0204268D01*
X0149787Y0204740D01*
X0162583Y0203756D02*
X0175378Y0203756D01*
X0176323Y0203008D01*
X0181283Y0218520D02*
X0181283Y0151591D01*
X0172425Y0142732D01*
X0172425Y0140764D01*
X0172150Y0140606D01*
X0171441Y0139780D01*
X0170457Y0138795D01*
X0170457Y0081709D01*
X0162583Y0079740D02*
X0171441Y0070882D01*
X0171441Y0010843D01*
X0192110Y0010843D01*
X0192150Y0010606D01*
X0200969Y0027575D02*
X0200969Y0071866D01*
X0193094Y0079740D01*
X0192150Y0080606D01*
X0183252Y0078756D02*
X0183252Y0031512D01*
X0192110Y0031512D01*
X0192150Y0030606D01*
X0200969Y0027575D02*
X0221638Y0027575D01*
X0237386Y0043323D01*
X0237386Y0063008D01*
X0237524Y0063126D01*
X0234433Y0064976D02*
X0234433Y0068913D01*
X0236402Y0070882D01*
X0262976Y0070882D01*
X0262976Y0105331D01*
X0252524Y0114307D02*
X0253134Y0115173D01*
X0254118Y0116157D01*
X0254118Y0120094D01*
X0257071Y0123047D01*
X0257071Y0165370D01*
X0264945Y0173244D01*
X0272819Y0173244D01*
X0272819Y0132890D01*
X0267898Y0127969D01*
X0267386Y0127654D01*
X0236402Y0120094D02*
X0236402Y0116157D01*
X0237386Y0115173D01*
X0237524Y0114307D01*
X0232524Y0114307D02*
X0232465Y0114189D01*
X0231480Y0113205D01*
X0231480Y0109268D01*
X0228528Y0106315D01*
X0227543Y0106315D01*
X0227524Y0114307D02*
X0227543Y0115173D01*
X0228528Y0116157D01*
X0228528Y0138795D01*
X0232465Y0129937D02*
X0232465Y0124031D01*
X0236402Y0120094D01*
X0217701Y0118126D02*
X0217701Y0103362D01*
X0212780Y0098441D01*
X0212780Y0056118D01*
X0204906Y0060055D02*
X0203921Y0061039D01*
X0203921Y0088598D01*
X0197031Y0095488D01*
X0197031Y0105331D02*
X0201953Y0110252D01*
X0201953Y0161433D01*
X0222622Y0182102D01*
X0225575Y0182102D01*
X0226323Y0183008D01*
X0216323Y0183008D02*
X0215732Y0182102D01*
X0199000Y0165370D01*
X0199000Y0135843D01*
X0190142Y0135843D01*
X0181283Y0126984D01*
X0177346Y0128953D02*
X0182268Y0133874D01*
X0177346Y0134858D02*
X0177346Y0142732D01*
X0191126Y0156512D01*
X0191126Y0185055D01*
X0194079Y0188008D01*
X0205890Y0188008D01*
X0205890Y0183087D01*
X0206323Y0183008D01*
X0196323Y0183008D02*
X0196047Y0182102D01*
X0196047Y0155528D01*
X0190142Y0149622D01*
X0177346Y0134858D02*
X0174394Y0131906D01*
X0177346Y0128953D02*
X0177346Y0108283D01*
X0174394Y0105331D01*
X0179315Y0105331D02*
X0192110Y0118126D01*
X0192110Y0120094D01*
X0192150Y0120606D01*
X0192150Y0110606D02*
X0192110Y0110252D01*
X0187189Y0105331D01*
X0187189Y0056118D01*
X0175378Y0052181D02*
X0175378Y0063992D01*
X0167504Y0048244D02*
X0167504Y0039386D01*
X0167504Y0048244D02*
X0149787Y0065961D01*
X0137976Y0065961D01*
X0133055Y0061039D01*
X0132150Y0060606D01*
X0132150Y0050606D02*
X0133055Y0050213D01*
X0136992Y0046276D01*
X0130102Y0025606D02*
X0151756Y0025606D01*
X0130102Y0025606D02*
X0129118Y0024622D01*
X0125181Y0024622D01*
X0107465Y0020685D02*
X0098606Y0029543D01*
X0098606Y0079740D01*
X0094669Y0083677D01*
X0094669Y0106315D01*
X0098606Y0110252D01*
X0098606Y0150606D01*
X0096638Y0152575D01*
X0096638Y0180134D01*
X0093685Y0183087D01*
X0093685Y0219504D01*
X0093685Y0224425D01*
X0094197Y0224504D01*
X0093685Y0219504D02*
X0054315Y0219504D01*
X0040535Y0233283D01*
X0040535Y0254937D01*
X0047425Y0254937D01*
X0051362Y0251000D01*
X0051705Y0250803D01*
X0045457Y0250016D02*
X0044799Y0250803D01*
X0045457Y0250016D02*
X0053331Y0242142D01*
X0045457Y0235252D02*
X0044799Y0235803D01*
X0045457Y0235252D02*
X0049394Y0231315D01*
X0065142Y0231315D01*
X0065142Y0289386D01*
X0071047Y0295291D01*
X0071874Y0295409D01*
X0071874Y0288717D02*
X0071047Y0288402D01*
X0068094Y0285449D01*
X0068094Y0261827D01*
X0071047Y0264780D01*
X0071874Y0265409D01*
X0068094Y0261827D02*
X0068094Y0239189D01*
X0068587Y0238697D01*
X0068094Y0238205D01*
X0068094Y0224425D01*
X0085811Y0224425D01*
X0086323Y0224504D01*
X0075969Y0232299D02*
X0075969Y0236236D01*
X0077937Y0238205D01*
X0075969Y0232299D02*
X0072031Y0228362D01*
X0071874Y0228717D01*
X0071874Y0235409D02*
X0068587Y0238697D01*
X0071874Y0243717D02*
X0072031Y0244110D01*
X0097622Y0244110D01*
X0097622Y0283480D01*
X0125181Y0311039D01*
X0125693Y0311118D01*
X0101559Y0271669D02*
X0101559Y0225409D01*
X0102071Y0224504D01*
X0112386Y0238205D02*
X0125181Y0225409D01*
X0125693Y0224504D01*
X0109984Y0184268D02*
X0110417Y0184071D01*
X0110417Y0085646D01*
X0098606Y0085646D02*
X0098606Y0099425D01*
X0106480Y0067929D02*
X0111402Y0063008D01*
X0107465Y0060055D02*
X0102543Y0064976D01*
X0102543Y0141748D01*
X0106480Y0147654D02*
X0100575Y0153559D01*
X0100575Y0184071D01*
X0099984Y0184268D01*
X0054315Y0170291D02*
X0054315Y0130921D01*
X0057268Y0127969D01*
X0057268Y0116157D01*
X0058252Y0115173D01*
X0059098Y0114307D01*
X0062189Y0113205D02*
X0062189Y0109268D01*
X0059236Y0106315D01*
X0052346Y0106315D01*
X0054098Y0114307D02*
X0053331Y0115173D01*
X0053331Y0119110D01*
X0051362Y0121079D01*
X0045457Y0121079D01*
X0042504Y0124031D01*
X0042504Y0147654D01*
X0042504Y0167339D02*
X0034630Y0167339D01*
X0033646Y0167791D01*
X0033646Y0167339D01*
X0032661Y0166354D01*
X0032661Y0128953D01*
X0032661Y0073835D01*
X0027740Y0068913D01*
X0026992Y0068402D01*
X0017898Y0078756D02*
X0016992Y0078402D01*
X0017898Y0078756D02*
X0021835Y0082693D01*
X0021835Y0128953D01*
X0017898Y0132890D01*
X0016992Y0133087D01*
X0016913Y0133874D01*
X0011992Y0138795D01*
X0011992Y0200803D01*
X0017898Y0206709D01*
X0017898Y0207161D01*
X0015929Y0205724D01*
X0012976Y0208677D01*
X0012976Y0236236D01*
X0044799Y0265803D02*
X0045457Y0265764D01*
X0051362Y0259858D01*
X0051705Y0265803D02*
X0052346Y0266748D01*
X0054315Y0268717D01*
X0054315Y0271669D01*
X0044799Y0280803D02*
X0045457Y0281512D01*
X0047425Y0283480D01*
X0047425Y0286433D01*
X0044799Y0295803D02*
X0045457Y0296276D01*
X0049394Y0300213D01*
X0081874Y0300213D01*
X0081874Y0257890D01*
X0074984Y0251000D01*
X0072031Y0251000D01*
X0071874Y0250409D01*
X0071874Y0258717D02*
X0072031Y0258874D01*
X0072031Y0259858D01*
X0077937Y0259858D01*
X0077937Y0267732D02*
X0072031Y0273638D01*
X0071874Y0273717D01*
X0071874Y0280409D02*
X0072031Y0280528D01*
X0077937Y0286433D01*
X0166520Y0177181D02*
X0166520Y0150606D01*
X0205890Y0157496D02*
X0205890Y0128953D01*
X0208843Y0126000D01*
X0208843Y0035449D01*
X0204906Y0031512D01*
X0179315Y0032496D02*
X0179315Y0105331D01*
X0209827Y0130921D02*
X0209827Y0163402D01*
X0216717Y0170291D02*
X0216717Y0150606D01*
X0217701Y0149622D01*
X0217701Y0129937D01*
X0216717Y0128953D01*
X0216717Y0119110D01*
X0217701Y0118126D01*
X0213764Y0116157D02*
X0213764Y0147654D01*
X0216717Y0170291D02*
X0220654Y0174228D01*
X0216717Y0202772D02*
X0216323Y0203008D01*
X0216717Y0202772D02*
X0225575Y0202772D01*
X0226323Y0203008D01*
X0307268Y0137811D02*
X0307268Y0081709D01*
X0302346Y0076787D01*
X0302268Y0076276D01*
X0242524Y0063126D02*
X0242307Y0063008D01*
X0241323Y0062024D01*
X0241323Y0055134D01*
X0233449Y0063992D02*
X0232524Y0063126D01*
X0233449Y0063992D02*
X0234433Y0064976D01*
X0227543Y0063992D02*
X0227543Y0071866D01*
X0227543Y0063992D02*
X0227524Y0063126D01*
X0217701Y0071866D02*
X0217701Y0097457D01*
X0179315Y0032496D02*
X0178331Y0031512D01*
X0095654Y0033480D02*
X0095654Y0020685D01*
X0095654Y0033480D02*
X0088764Y0040370D01*
X0067110Y0053165D02*
X0067110Y0061039D01*
X0069079Y0063008D01*
X0069098Y0063126D01*
X0064098Y0063126D02*
X0063173Y0063008D01*
X0062189Y0062024D01*
X0062189Y0030528D01*
X0066126Y0036433D02*
X0066126Y0052181D01*
X0067110Y0053165D01*
X0059098Y0063126D02*
X0058252Y0063992D01*
X0057268Y0064976D01*
X0057268Y0068913D01*
X0053331Y0072850D01*
X0054098Y0063126D02*
X0054315Y0063008D01*
X0055299Y0062024D01*
X0055299Y0039386D01*
X0062189Y0113205D02*
X0063173Y0114189D01*
X0064098Y0114307D01*
X0032661Y0128953D02*
X0027740Y0124031D01*
X0026992Y0123087D01*
X0042504Y0167339D02*
X0042504Y0171276D01*
M02*
