G75*
%MOIN*%
%OFA0B0*%
%FSLAX25Y25*%
%IPPOS*%
%LPD*%
%AMOC8*
5,1,8,0,0,1.08239X$1,22.5*
%
%ADD10R,0.05118X0.05906*%
%ADD11R,0.05906X0.05118*%
%ADD12R,0.02362X0.08661*%
%ADD13C,0.01181*%
%ADD14R,0.03937X0.04331*%
D10*
X0209354Y0284543D03*
X0216047Y0284543D03*
D11*
X0218764Y0272732D03*
X0218764Y0266039D03*
D12*
X0049098Y0063126D03*
X0054098Y0063126D03*
X0059098Y0063126D03*
X0064098Y0063126D03*
X0069098Y0063126D03*
X0074098Y0063126D03*
X0079098Y0063126D03*
X0084098Y0063126D03*
X0089098Y0063126D03*
X0094098Y0063126D03*
X0094098Y0114307D03*
X0089098Y0114307D03*
X0084098Y0114307D03*
X0079098Y0114307D03*
X0074098Y0114307D03*
X0069098Y0114307D03*
X0064098Y0114307D03*
X0059098Y0114307D03*
X0054098Y0114307D03*
X0049098Y0114307D03*
X0222524Y0114307D03*
X0227524Y0114307D03*
X0232524Y0114307D03*
X0237524Y0114307D03*
X0242524Y0114307D03*
X0247524Y0114307D03*
X0252524Y0114307D03*
X0257524Y0114307D03*
X0262524Y0114307D03*
X0267524Y0114307D03*
X0267524Y0063126D03*
X0262524Y0063126D03*
X0257524Y0063126D03*
X0252524Y0063126D03*
X0247524Y0063126D03*
X0242524Y0063126D03*
X0237524Y0063126D03*
X0232524Y0063126D03*
X0227524Y0063126D03*
X0222524Y0063126D03*
D13*
X0050327Y0234425D02*
X0050327Y0237181D01*
X0053083Y0237181D01*
X0053083Y0234425D01*
X0050327Y0234425D01*
X0050327Y0235605D02*
X0053083Y0235605D01*
X0053083Y0236785D02*
X0050327Y0236785D01*
X0043421Y0237181D02*
X0043421Y0234425D01*
X0043421Y0237181D02*
X0046177Y0237181D01*
X0046177Y0234425D01*
X0043421Y0234425D01*
X0043421Y0235605D02*
X0046177Y0235605D01*
X0046177Y0236785D02*
X0043421Y0236785D01*
X0043421Y0249425D02*
X0043421Y0252181D01*
X0046177Y0252181D01*
X0046177Y0249425D01*
X0043421Y0249425D01*
X0043421Y0250605D02*
X0046177Y0250605D01*
X0046177Y0251785D02*
X0043421Y0251785D01*
X0050327Y0252181D02*
X0050327Y0249425D01*
X0050327Y0252181D02*
X0053083Y0252181D01*
X0053083Y0249425D01*
X0050327Y0249425D01*
X0050327Y0250605D02*
X0053083Y0250605D01*
X0053083Y0251785D02*
X0050327Y0251785D01*
X0050327Y0264425D02*
X0050327Y0267181D01*
X0053083Y0267181D01*
X0053083Y0264425D01*
X0050327Y0264425D01*
X0050327Y0265605D02*
X0053083Y0265605D01*
X0053083Y0266785D02*
X0050327Y0266785D01*
X0043421Y0267181D02*
X0043421Y0264425D01*
X0043421Y0267181D02*
X0046177Y0267181D01*
X0046177Y0264425D01*
X0043421Y0264425D01*
X0043421Y0265605D02*
X0046177Y0265605D01*
X0046177Y0266785D02*
X0043421Y0266785D01*
X0043421Y0279425D02*
X0043421Y0282181D01*
X0046177Y0282181D01*
X0046177Y0279425D01*
X0043421Y0279425D01*
X0043421Y0280605D02*
X0046177Y0280605D01*
X0046177Y0281785D02*
X0043421Y0281785D01*
X0050327Y0282181D02*
X0050327Y0279425D01*
X0050327Y0282181D02*
X0053083Y0282181D01*
X0053083Y0279425D01*
X0050327Y0279425D01*
X0050327Y0280605D02*
X0053083Y0280605D01*
X0053083Y0281785D02*
X0050327Y0281785D01*
X0050327Y0294425D02*
X0050327Y0297181D01*
X0053083Y0297181D01*
X0053083Y0294425D01*
X0050327Y0294425D01*
X0050327Y0295605D02*
X0053083Y0295605D01*
X0053083Y0296785D02*
X0050327Y0296785D01*
X0043421Y0297181D02*
X0043421Y0294425D01*
X0043421Y0297181D02*
X0046177Y0297181D01*
X0046177Y0294425D01*
X0043421Y0294425D01*
X0043421Y0295605D02*
X0046177Y0295605D01*
X0046177Y0296785D02*
X0043421Y0296785D01*
D14*
X0071874Y0295409D03*
X0071874Y0288717D03*
X0071874Y0280409D03*
X0071874Y0273717D03*
X0071874Y0265409D03*
X0071874Y0258717D03*
X0071874Y0250409D03*
X0071874Y0243717D03*
X0071874Y0235409D03*
X0071874Y0228717D03*
M02*
