M48
;GenerationSoftware,Autodesk,EAGLE,9.1.0*%
;CreationDate,2018-11-27T18:07:30Z*%
FMAT,2
ICI,OFF
METRIC,TZ,000.000
T5C0.350
T4C0.800
T3C1.000
T2C1.016
%
G90
M71
T2
X12000Y9000
X9000Y9000
X12000Y12000
X9000Y12000
T3
X2000Y25000
X17000Y25000
X17000Y5000
X2000Y5000
T4
X4500Y21500
X7000Y21500
X9500Y21500
X12000Y21500
X14500Y21500
X17000Y21500
T5
X7525Y16800
X14000Y13650
X14875Y6300
X7350Y10850
X4200Y6300
X7350Y18200
X13825Y7525
X9625Y17675
X10500Y10325
M30