M48
;GenerationSoftware,Autodesk,EAGLE,9.1.0*%
;CreationDate,2018-11-28T00:36:44Z*%
FMAT,2
ICI,OFF
METRIC,TZ,000.000
T6C0.350
T5C0.800
T4C0.813
T3C1.000
T2C1.016
%
G90
M71
T2
X5080Y36290
X7620Y36290
X10160Y36290
X5080Y40100
X7620Y40100
X10160Y40100
T3
X32000Y42000
X32000Y2000
X2000Y2000
X2000Y42000
T4
X6350Y30400
X6350Y22400
X6350Y24400
X6350Y26400
X6350Y28400
X26670Y32400
X26670Y30400
X26670Y28400
X26670Y26400
X26670Y24400
X26670Y22400
X6350Y32400
T5
X29210Y5810
X29210Y15970
X26710Y15970
X24210Y15970
X21710Y15970
X19210Y15970
X16710Y15970
X26710Y5810
X16710Y10890
X19210Y10890
X21710Y10890
X24210Y10890
X26710Y10890
X29210Y10890
X16710Y5810
X19210Y5810
X21710Y5810
X24210Y5810
T6
X16510Y33020
X17780Y35560
X17780Y34290
X16510Y34290
X15240Y34290
X15240Y33020
X10405Y11536
X13233Y26239
X19340Y39472
X17870Y19566
X6673Y8369
X20924Y3280
X20697Y33478
X13233Y27757
X9161Y9048
X9500Y18209
X6673Y20697
X3393Y22733
X12893Y18162
X19793Y25561
X26805Y36305
X16510Y35560
X4863Y7125
X21715Y19566
X5589Y4024
X5090Y5542
X4863Y14816
X19793Y28727
X9048Y16286
X12215Y19453
X6334Y14024
X19793Y23525
X4863Y10292
X15240Y35560
X17780Y33020
M30