G04 EAGLE Gerber RS-274X export*
G75*
%MOMM*%
%FSLAX34Y34*%
%LPD*%
%AMOC8*
5,1,8,0,0,1.08239X$1,22.5*%
G01*
%ADD10R,1.508000X1.508000*%
%ADD11R,1.320800X1.320800*%
%ADD12C,1.320800*%
%ADD13C,1.308000*%
%ADD14C,2.540000*%
%ADD15P,2.749271X8X112.500000*%
%ADD16C,1.524000*%
%ADD17C,1.000000*%
%ADD18C,0.200000*%
%ADD19C,0.756400*%

G36*
X184281Y10012D02*
X184281Y10012D01*
X184353Y10014D01*
X184402Y10032D01*
X184453Y10040D01*
X184517Y10074D01*
X184584Y10099D01*
X184625Y10131D01*
X184671Y10156D01*
X184720Y10207D01*
X184776Y10252D01*
X184804Y10296D01*
X184840Y10334D01*
X184870Y10399D01*
X184909Y10459D01*
X184922Y10510D01*
X184944Y10557D01*
X184952Y10628D01*
X184969Y10698D01*
X184965Y10750D01*
X184971Y10801D01*
X184956Y10872D01*
X184950Y10943D01*
X184930Y10991D01*
X184919Y11042D01*
X184882Y11103D01*
X184854Y11169D01*
X184809Y11225D01*
X184792Y11253D01*
X184775Y11268D01*
X184749Y11300D01*
X181332Y14717D01*
X181238Y14784D01*
X181144Y14855D01*
X181138Y14857D01*
X181133Y14860D01*
X181022Y14895D01*
X180910Y14931D01*
X180903Y14931D01*
X180897Y14933D01*
X180781Y14930D01*
X180664Y14929D01*
X180657Y14927D01*
X180652Y14926D01*
X180634Y14920D01*
X180503Y14882D01*
X179810Y14595D01*
X175990Y14595D01*
X172459Y16058D01*
X169758Y18759D01*
X168603Y21546D01*
X168565Y21607D01*
X168536Y21672D01*
X168501Y21711D01*
X168474Y21755D01*
X168418Y21801D01*
X168370Y21853D01*
X168324Y21879D01*
X168284Y21912D01*
X168217Y21937D01*
X168154Y21972D01*
X168103Y21981D01*
X168055Y22000D01*
X167983Y22003D01*
X167912Y22016D01*
X167861Y22008D01*
X167809Y22010D01*
X167740Y21990D01*
X167669Y21980D01*
X167623Y21956D01*
X167573Y21942D01*
X167514Y21901D01*
X167450Y21868D01*
X167413Y21831D01*
X167371Y21802D01*
X167328Y21744D01*
X167278Y21693D01*
X167243Y21630D01*
X167224Y21604D01*
X167217Y21582D01*
X167197Y21546D01*
X166042Y18759D01*
X163341Y16058D01*
X159810Y14595D01*
X155990Y14595D01*
X152459Y16058D01*
X149758Y18759D01*
X148603Y21546D01*
X148565Y21607D01*
X148536Y21672D01*
X148501Y21711D01*
X148474Y21755D01*
X148418Y21801D01*
X148370Y21853D01*
X148324Y21879D01*
X148284Y21912D01*
X148217Y21937D01*
X148154Y21972D01*
X148103Y21981D01*
X148055Y22000D01*
X147983Y22003D01*
X147912Y22016D01*
X147861Y22008D01*
X147809Y22010D01*
X147740Y21990D01*
X147669Y21980D01*
X147623Y21956D01*
X147573Y21942D01*
X147514Y21901D01*
X147450Y21868D01*
X147413Y21831D01*
X147371Y21802D01*
X147328Y21744D01*
X147278Y21693D01*
X147243Y21630D01*
X147224Y21604D01*
X147217Y21582D01*
X147197Y21546D01*
X146042Y18759D01*
X143341Y16058D01*
X139810Y14595D01*
X135990Y14595D01*
X132459Y16058D01*
X129758Y18759D01*
X128509Y21773D01*
X128458Y21856D01*
X128412Y21942D01*
X128393Y21960D01*
X128380Y21982D01*
X128305Y22044D01*
X128234Y22111D01*
X128210Y22122D01*
X128190Y22139D01*
X128099Y22174D01*
X128011Y22215D01*
X127985Y22218D01*
X127961Y22227D01*
X127863Y22231D01*
X127767Y22242D01*
X127741Y22236D01*
X127715Y22237D01*
X127621Y22210D01*
X127526Y22189D01*
X127504Y22176D01*
X127479Y22169D01*
X127399Y22113D01*
X127315Y22063D01*
X127298Y22043D01*
X127277Y22029D01*
X127218Y21950D01*
X127155Y21876D01*
X127145Y21852D01*
X127130Y21831D01*
X127100Y21739D01*
X127063Y21648D01*
X127060Y21616D01*
X127054Y21597D01*
X127054Y21564D01*
X127045Y21482D01*
X127045Y17262D01*
X126872Y16615D01*
X126537Y16036D01*
X126064Y15563D01*
X125485Y15228D01*
X124838Y15055D01*
X119423Y15055D01*
X119423Y23438D01*
X119420Y23458D01*
X119422Y23477D01*
X119400Y23579D01*
X119383Y23681D01*
X119374Y23698D01*
X119370Y23718D01*
X119317Y23807D01*
X119268Y23898D01*
X119254Y23912D01*
X119244Y23929D01*
X119165Y23996D01*
X119090Y24067D01*
X119072Y24076D01*
X119057Y24089D01*
X118961Y24127D01*
X118867Y24171D01*
X118847Y24173D01*
X118829Y24181D01*
X118662Y24199D01*
X117899Y24199D01*
X117899Y24201D01*
X118662Y24201D01*
X118682Y24204D01*
X118701Y24202D01*
X118803Y24224D01*
X118905Y24241D01*
X118922Y24250D01*
X118942Y24254D01*
X119031Y24307D01*
X119122Y24356D01*
X119136Y24370D01*
X119153Y24380D01*
X119220Y24459D01*
X119291Y24534D01*
X119300Y24552D01*
X119313Y24567D01*
X119352Y24663D01*
X119395Y24757D01*
X119397Y24777D01*
X119405Y24795D01*
X119423Y24962D01*
X119423Y33345D01*
X124838Y33345D01*
X125485Y33172D01*
X126064Y32837D01*
X126537Y32364D01*
X126872Y31785D01*
X127045Y31138D01*
X127045Y26918D01*
X127060Y26822D01*
X127070Y26725D01*
X127080Y26702D01*
X127084Y26676D01*
X127130Y26590D01*
X127170Y26501D01*
X127187Y26481D01*
X127200Y26458D01*
X127270Y26391D01*
X127336Y26320D01*
X127359Y26307D01*
X127378Y26289D01*
X127466Y26248D01*
X127552Y26201D01*
X127577Y26196D01*
X127601Y26185D01*
X127698Y26175D01*
X127794Y26157D01*
X127820Y26161D01*
X127845Y26158D01*
X127941Y26179D01*
X128037Y26193D01*
X128060Y26205D01*
X128086Y26211D01*
X128169Y26260D01*
X128256Y26305D01*
X128275Y26323D01*
X128297Y26337D01*
X128360Y26411D01*
X128428Y26480D01*
X128444Y26509D01*
X128457Y26524D01*
X128469Y26554D01*
X128509Y26627D01*
X129758Y29641D01*
X130216Y30099D01*
X130228Y30116D01*
X130244Y30128D01*
X130300Y30215D01*
X130360Y30299D01*
X130366Y30318D01*
X130377Y30335D01*
X130402Y30435D01*
X130432Y30534D01*
X130432Y30554D01*
X130437Y30574D01*
X130429Y30677D01*
X130426Y30780D01*
X130419Y30799D01*
X130417Y30819D01*
X130377Y30914D01*
X130341Y31011D01*
X130329Y31027D01*
X130321Y31045D01*
X130216Y31176D01*
X129641Y31751D01*
X128499Y34508D01*
X128499Y123383D01*
X128492Y123428D01*
X128494Y123474D01*
X128472Y123549D01*
X128460Y123626D01*
X128438Y123666D01*
X128425Y123710D01*
X128381Y123774D01*
X128344Y123843D01*
X128311Y123874D01*
X128285Y123912D01*
X128222Y123959D01*
X128166Y124012D01*
X128124Y124032D01*
X128088Y124059D01*
X128014Y124083D01*
X127943Y124116D01*
X127897Y124121D01*
X127854Y124135D01*
X127776Y124134D01*
X127699Y124143D01*
X127654Y124133D01*
X127608Y124133D01*
X127476Y124095D01*
X127458Y124091D01*
X127454Y124088D01*
X127447Y124086D01*
X125349Y123217D01*
X122651Y123217D01*
X120658Y124043D01*
X120545Y124069D01*
X120431Y124098D01*
X120425Y124097D01*
X120419Y124099D01*
X120302Y124088D01*
X120186Y124079D01*
X120180Y124076D01*
X120174Y124076D01*
X120066Y124028D01*
X119959Y123982D01*
X119954Y123978D01*
X119949Y123976D01*
X119935Y123963D01*
X119828Y123878D01*
X118076Y122125D01*
X118064Y122109D01*
X118048Y122096D01*
X117992Y122009D01*
X117932Y121925D01*
X117926Y121906D01*
X117915Y121889D01*
X117890Y121789D01*
X117860Y121690D01*
X117860Y121670D01*
X117855Y121651D01*
X117863Y121547D01*
X117866Y121444D01*
X117873Y121425D01*
X117874Y121405D01*
X117915Y121311D01*
X117941Y121239D01*
X117941Y103617D01*
X116183Y101859D01*
X98564Y101859D01*
X98552Y101868D01*
X98533Y101874D01*
X98516Y101885D01*
X98416Y101910D01*
X98317Y101940D01*
X98297Y101940D01*
X98278Y101945D01*
X98175Y101937D01*
X98071Y101934D01*
X98052Y101927D01*
X98033Y101926D01*
X97938Y101885D01*
X97840Y101850D01*
X97825Y101837D01*
X97806Y101829D01*
X97675Y101724D01*
X94724Y98773D01*
X94671Y98699D01*
X94611Y98629D01*
X94599Y98599D01*
X94580Y98573D01*
X94553Y98486D01*
X94519Y98401D01*
X94515Y98360D01*
X94508Y98338D01*
X94509Y98306D01*
X94501Y98235D01*
X94501Y54544D01*
X94504Y54524D01*
X94502Y54505D01*
X94524Y54403D01*
X94540Y54301D01*
X94550Y54284D01*
X94554Y54264D01*
X94607Y54175D01*
X94656Y54084D01*
X94670Y54070D01*
X94680Y54053D01*
X94759Y53986D01*
X94834Y53914D01*
X94852Y53906D01*
X94867Y53893D01*
X94963Y53854D01*
X95057Y53811D01*
X95077Y53809D01*
X95095Y53801D01*
X95262Y53783D01*
X96558Y53783D01*
X96578Y53786D01*
X96597Y53784D01*
X96699Y53806D01*
X96801Y53822D01*
X96818Y53832D01*
X96838Y53836D01*
X96927Y53889D01*
X97018Y53938D01*
X97032Y53952D01*
X97049Y53962D01*
X97116Y54041D01*
X97188Y54116D01*
X97196Y54134D01*
X97209Y54149D01*
X97248Y54245D01*
X97291Y54339D01*
X97293Y54359D01*
X97301Y54377D01*
X97319Y54544D01*
X97319Y60077D01*
X105877Y60077D01*
X105877Y51519D01*
X102609Y51519D01*
X102564Y51512D01*
X102518Y51514D01*
X102443Y51492D01*
X102366Y51480D01*
X102326Y51458D01*
X102282Y51445D01*
X102218Y51401D01*
X102149Y51364D01*
X102117Y51331D01*
X102079Y51305D01*
X102033Y51242D01*
X101979Y51186D01*
X101960Y51144D01*
X101933Y51108D01*
X101909Y51034D01*
X101876Y50963D01*
X101871Y50917D01*
X101857Y50874D01*
X101857Y50796D01*
X101849Y50719D01*
X101858Y50674D01*
X101859Y50628D01*
X101897Y50496D01*
X101901Y50478D01*
X101904Y50474D01*
X101906Y50467D01*
X102783Y48349D01*
X102783Y45651D01*
X101750Y43158D01*
X99842Y41250D01*
X97349Y40217D01*
X94651Y40217D01*
X92158Y41250D01*
X90250Y43158D01*
X89217Y45651D01*
X89217Y48440D01*
X89219Y48448D01*
X89219Y48454D01*
X89220Y48460D01*
X89217Y48491D01*
X89217Y48501D01*
X89215Y48514D01*
X89209Y48577D01*
X89200Y48693D01*
X89198Y48699D01*
X89197Y48705D01*
X89149Y48813D01*
X89104Y48919D01*
X89099Y48925D01*
X89097Y48930D01*
X89084Y48944D01*
X88999Y49050D01*
X87499Y50550D01*
X87499Y101450D01*
X96636Y110587D01*
X96689Y110661D01*
X96749Y110731D01*
X96761Y110761D01*
X96780Y110787D01*
X96807Y110874D01*
X96841Y110959D01*
X96845Y111000D01*
X96852Y111022D01*
X96851Y111054D01*
X96859Y111125D01*
X96859Y116071D01*
X96848Y116141D01*
X96846Y116213D01*
X96828Y116262D01*
X96820Y116313D01*
X96786Y116377D01*
X96761Y116444D01*
X96729Y116485D01*
X96704Y116531D01*
X96652Y116580D01*
X96608Y116636D01*
X96564Y116664D01*
X96526Y116700D01*
X96461Y116730D01*
X96401Y116769D01*
X96350Y116782D01*
X96303Y116804D01*
X96232Y116812D01*
X96162Y116829D01*
X96110Y116825D01*
X96059Y116831D01*
X95988Y116816D01*
X95917Y116810D01*
X95869Y116790D01*
X95818Y116779D01*
X95757Y116742D01*
X95691Y116714D01*
X95635Y116669D01*
X95607Y116652D01*
X95592Y116635D01*
X95560Y116609D01*
X94724Y115773D01*
X94671Y115699D01*
X94611Y115629D01*
X94599Y115599D01*
X94580Y115573D01*
X94553Y115486D01*
X94519Y115401D01*
X94515Y115360D01*
X94508Y115338D01*
X94509Y115306D01*
X94501Y115235D01*
X94501Y111550D01*
X92227Y109276D01*
X60430Y77479D01*
X60418Y77463D01*
X60403Y77451D01*
X60347Y77363D01*
X60286Y77279D01*
X60281Y77260D01*
X60270Y77244D01*
X60245Y77143D01*
X60214Y77044D01*
X60215Y77024D01*
X60210Y77005D01*
X60218Y76902D01*
X60220Y76799D01*
X60227Y76780D01*
X60229Y76760D01*
X60269Y76665D01*
X60305Y76567D01*
X60317Y76552D01*
X60325Y76534D01*
X60430Y76403D01*
X60728Y76104D01*
X62181Y72598D01*
X62181Y68802D01*
X60728Y65296D01*
X58044Y62612D01*
X54538Y61159D01*
X37662Y61159D01*
X34156Y62612D01*
X31472Y65296D01*
X30019Y68802D01*
X30019Y72598D01*
X31472Y76104D01*
X34156Y78788D01*
X37662Y80241D01*
X52975Y80241D01*
X53065Y80255D01*
X53156Y80263D01*
X53185Y80275D01*
X53217Y80280D01*
X53298Y80323D01*
X53382Y80359D01*
X53414Y80385D01*
X53435Y80396D01*
X53457Y80419D01*
X53513Y80464D01*
X87276Y114227D01*
X87329Y114301D01*
X87389Y114371D01*
X87401Y114401D01*
X87420Y114427D01*
X87447Y114514D01*
X87481Y114599D01*
X87485Y114640D01*
X87492Y114662D01*
X87491Y114694D01*
X87499Y114765D01*
X87499Y118450D01*
X96552Y127503D01*
X96609Y127512D01*
X96680Y127514D01*
X96729Y127532D01*
X96781Y127540D01*
X96844Y127574D01*
X96911Y127599D01*
X96952Y127631D01*
X96998Y127656D01*
X97047Y127707D01*
X97103Y127752D01*
X97131Y127796D01*
X97167Y127834D01*
X97198Y127899D01*
X97236Y127959D01*
X97249Y128010D01*
X97271Y128057D01*
X97279Y128128D01*
X97296Y128198D01*
X97292Y128250D01*
X97298Y128301D01*
X97283Y128372D01*
X97277Y128443D01*
X97257Y128491D01*
X97246Y128542D01*
X97209Y128603D01*
X97181Y128669D01*
X97136Y128725D01*
X97120Y128753D01*
X97102Y128768D01*
X97076Y128800D01*
X96859Y129017D01*
X96859Y146583D01*
X98617Y148341D01*
X116183Y148341D01*
X117941Y146583D01*
X117941Y135371D01*
X117952Y135300D01*
X117954Y135228D01*
X117972Y135179D01*
X117980Y135128D01*
X118014Y135065D01*
X118039Y134997D01*
X118071Y134957D01*
X118096Y134911D01*
X118148Y134861D01*
X118192Y134805D01*
X118236Y134777D01*
X118274Y134741D01*
X118339Y134711D01*
X118399Y134672D01*
X118450Y134660D01*
X118497Y134638D01*
X118568Y134630D01*
X118638Y134612D01*
X118690Y134616D01*
X118741Y134611D01*
X118812Y134626D01*
X118883Y134631D01*
X118931Y134652D01*
X118982Y134663D01*
X119043Y134700D01*
X119109Y134728D01*
X119165Y134772D01*
X119193Y134789D01*
X119208Y134807D01*
X119240Y134832D01*
X120158Y135750D01*
X122651Y136783D01*
X125349Y136783D01*
X127447Y135914D01*
X127491Y135903D01*
X127533Y135884D01*
X127610Y135876D01*
X127686Y135858D01*
X127732Y135862D01*
X127777Y135857D01*
X127854Y135874D01*
X127931Y135881D01*
X127973Y135899D01*
X128018Y135909D01*
X128085Y135949D01*
X128156Y135981D01*
X128190Y136012D01*
X128229Y136035D01*
X128280Y136095D01*
X128337Y136147D01*
X128359Y136187D01*
X128389Y136222D01*
X128418Y136295D01*
X128455Y136363D01*
X128464Y136408D01*
X128481Y136450D01*
X128496Y136586D01*
X128499Y136605D01*
X128498Y136610D01*
X128499Y136617D01*
X128499Y170578D01*
X128485Y170668D01*
X128477Y170759D01*
X128465Y170789D01*
X128460Y170821D01*
X128417Y170901D01*
X128381Y170985D01*
X128355Y171017D01*
X128344Y171038D01*
X128321Y171060D01*
X128276Y171116D01*
X119240Y180152D01*
X119182Y180194D01*
X119130Y180243D01*
X119083Y180265D01*
X119041Y180296D01*
X118972Y180317D01*
X118907Y180347D01*
X118855Y180353D01*
X118805Y180368D01*
X118734Y180366D01*
X118663Y180374D01*
X118612Y180363D01*
X118560Y180362D01*
X118492Y180337D01*
X118422Y180322D01*
X118377Y180295D01*
X118329Y180277D01*
X118273Y180232D01*
X118211Y180196D01*
X118177Y180156D01*
X118137Y180123D01*
X118098Y180063D01*
X118051Y180009D01*
X118032Y179960D01*
X118004Y179917D01*
X117991Y179867D01*
X116183Y178059D01*
X98617Y178059D01*
X98180Y178496D01*
X98164Y178508D01*
X98152Y178523D01*
X98065Y178579D01*
X97981Y178640D01*
X97962Y178645D01*
X97945Y178656D01*
X97844Y178682D01*
X97745Y178712D01*
X97726Y178711D01*
X97706Y178716D01*
X97603Y178708D01*
X97500Y178706D01*
X97481Y178699D01*
X97461Y178697D01*
X97366Y178657D01*
X97269Y178621D01*
X97253Y178609D01*
X97235Y178601D01*
X97104Y178496D01*
X64249Y145641D01*
X62682Y144992D01*
X62626Y144957D01*
X62565Y144932D01*
X62501Y144880D01*
X62473Y144862D01*
X62460Y144847D01*
X62434Y144827D01*
X62403Y144796D01*
X62350Y144722D01*
X62291Y144653D01*
X62279Y144622D01*
X62260Y144596D01*
X62233Y144509D01*
X62199Y144424D01*
X62195Y144383D01*
X62188Y144361D01*
X62189Y144329D01*
X62181Y144258D01*
X62181Y143802D01*
X60728Y140296D01*
X58044Y137612D01*
X54538Y136159D01*
X37662Y136159D01*
X34156Y137612D01*
X31472Y140296D01*
X30019Y143802D01*
X30019Y147598D01*
X31472Y151104D01*
X34156Y153788D01*
X37662Y155241D01*
X51318Y155241D01*
X51408Y155255D01*
X51499Y155263D01*
X51529Y155275D01*
X51561Y155280D01*
X51641Y155323D01*
X51725Y155359D01*
X51757Y155385D01*
X51778Y155396D01*
X51800Y155419D01*
X51856Y155464D01*
X54751Y158359D01*
X56318Y159008D01*
X56374Y159043D01*
X56434Y159068D01*
X56499Y159120D01*
X56527Y159138D01*
X56540Y159153D01*
X56565Y159173D01*
X89534Y192142D01*
X91751Y194359D01*
X94508Y195501D01*
X96098Y195501D01*
X96118Y195504D01*
X96137Y195502D01*
X96239Y195524D01*
X96341Y195540D01*
X96358Y195550D01*
X96378Y195554D01*
X96467Y195607D01*
X96558Y195656D01*
X96572Y195670D01*
X96589Y195680D01*
X96656Y195759D01*
X96728Y195834D01*
X96736Y195852D01*
X96749Y195867D01*
X96788Y195963D01*
X96831Y196057D01*
X96833Y196077D01*
X96841Y196095D01*
X96859Y196262D01*
X96859Y196456D01*
X96856Y196476D01*
X96858Y196495D01*
X96836Y196597D01*
X96820Y196699D01*
X96810Y196716D01*
X96806Y196736D01*
X96753Y196825D01*
X96704Y196916D01*
X96690Y196930D01*
X96680Y196947D01*
X96601Y197014D01*
X96526Y197086D01*
X96508Y197094D01*
X96493Y197107D01*
X96397Y197146D01*
X96303Y197189D01*
X96283Y197191D01*
X96265Y197199D01*
X96098Y197217D01*
X94651Y197217D01*
X92158Y198250D01*
X90250Y200158D01*
X89217Y202651D01*
X89217Y205349D01*
X90250Y207842D01*
X90852Y208445D01*
X90909Y208524D01*
X90971Y208599D01*
X90981Y208623D01*
X90996Y208644D01*
X91024Y208737D01*
X91059Y208828D01*
X91060Y208854D01*
X91068Y208879D01*
X91066Y208977D01*
X91070Y209074D01*
X91063Y209099D01*
X91062Y209125D01*
X91028Y209217D01*
X91001Y209310D01*
X90986Y209332D01*
X90977Y209356D01*
X90916Y209432D01*
X90861Y209512D01*
X90840Y209528D01*
X90824Y209548D01*
X90742Y209601D01*
X90664Y209659D01*
X90639Y209667D01*
X90617Y209681D01*
X90522Y209705D01*
X90430Y209735D01*
X90404Y209735D01*
X90378Y209741D01*
X90281Y209734D01*
X90184Y209733D01*
X90152Y209724D01*
X90133Y209722D01*
X90103Y209709D01*
X90023Y209686D01*
X88123Y208899D01*
X81877Y208899D01*
X81684Y208979D01*
X81605Y208998D01*
X81550Y209019D01*
X81528Y209020D01*
X81492Y209031D01*
X81468Y209030D01*
X81445Y209035D01*
X81357Y209027D01*
X81304Y209029D01*
X81286Y209024D01*
X81246Y209023D01*
X81224Y209014D01*
X81200Y209012D01*
X81115Y208974D01*
X81068Y208961D01*
X81055Y208951D01*
X81015Y208937D01*
X80997Y208922D01*
X80975Y208912D01*
X80905Y208847D01*
X80866Y208820D01*
X80857Y208808D01*
X80824Y208782D01*
X80812Y208762D01*
X80794Y208746D01*
X80748Y208661D01*
X80719Y208623D01*
X80715Y208608D01*
X80693Y208574D01*
X80687Y208551D01*
X80676Y208530D01*
X80659Y208438D01*
X80643Y208389D01*
X80643Y208372D01*
X80634Y208335D01*
X80636Y208311D01*
X80632Y208288D01*
X80645Y208200D01*
X80645Y208143D01*
X80652Y208119D01*
X80655Y208090D01*
X80664Y208068D01*
X80668Y208045D01*
X80682Y208016D01*
X80692Y207982D01*
X81783Y205349D01*
X81783Y202651D01*
X80750Y200158D01*
X78842Y198250D01*
X76349Y197217D01*
X73651Y197217D01*
X71158Y198250D01*
X69250Y200158D01*
X68217Y202651D01*
X68217Y205440D01*
X68219Y205448D01*
X68219Y205454D01*
X68220Y205460D01*
X68217Y205491D01*
X68217Y205501D01*
X68215Y205514D01*
X68209Y205577D01*
X68200Y205693D01*
X68198Y205699D01*
X68197Y205705D01*
X68149Y205813D01*
X68104Y205919D01*
X68099Y205925D01*
X68097Y205930D01*
X68084Y205944D01*
X67999Y206050D01*
X59499Y214550D01*
X59499Y234450D01*
X83550Y258501D01*
X151235Y258501D01*
X151325Y258515D01*
X151416Y258523D01*
X151445Y258535D01*
X151477Y258540D01*
X151558Y258583D01*
X151642Y258619D01*
X151674Y258645D01*
X151695Y258656D01*
X151717Y258679D01*
X151773Y258724D01*
X154550Y261501D01*
X188450Y261501D01*
X201227Y248724D01*
X201301Y248671D01*
X201371Y248611D01*
X201401Y248599D01*
X201427Y248580D01*
X201514Y248553D01*
X201599Y248519D01*
X201640Y248515D01*
X201662Y248508D01*
X201694Y248509D01*
X201765Y248501D01*
X233450Y248501D01*
X246551Y235400D01*
X246645Y235332D01*
X246739Y235262D01*
X246745Y235260D01*
X246750Y235257D01*
X246861Y235222D01*
X246973Y235186D01*
X246979Y235186D01*
X246985Y235184D01*
X247102Y235187D01*
X247219Y235188D01*
X247226Y235191D01*
X247231Y235191D01*
X247249Y235197D01*
X247380Y235235D01*
X247790Y235405D01*
X251610Y235405D01*
X255141Y233942D01*
X257842Y231241D01*
X259091Y228227D01*
X259142Y228144D01*
X259188Y228058D01*
X259207Y228040D01*
X259220Y228018D01*
X259295Y227956D01*
X259366Y227889D01*
X259390Y227878D01*
X259410Y227861D01*
X259501Y227826D01*
X259589Y227785D01*
X259615Y227782D01*
X259639Y227773D01*
X259737Y227769D01*
X259833Y227758D01*
X259859Y227764D01*
X259885Y227763D01*
X259979Y227790D01*
X260074Y227811D01*
X260096Y227824D01*
X260121Y227831D01*
X260201Y227887D01*
X260285Y227937D01*
X260302Y227957D01*
X260323Y227971D01*
X260382Y228050D01*
X260445Y228124D01*
X260455Y228148D01*
X260470Y228169D01*
X260500Y228261D01*
X260537Y228352D01*
X260540Y228384D01*
X260546Y228403D01*
X260546Y228436D01*
X260555Y228518D01*
X260555Y232738D01*
X260728Y233385D01*
X261063Y233964D01*
X261536Y234437D01*
X262115Y234772D01*
X262762Y234945D01*
X268177Y234945D01*
X268177Y226562D01*
X268180Y226542D01*
X268178Y226523D01*
X268200Y226421D01*
X268217Y226319D01*
X268226Y226302D01*
X268230Y226282D01*
X268283Y226193D01*
X268332Y226102D01*
X268346Y226088D01*
X268356Y226071D01*
X268435Y226004D01*
X268510Y225933D01*
X268528Y225924D01*
X268543Y225911D01*
X268639Y225873D01*
X268733Y225829D01*
X268753Y225827D01*
X268771Y225819D01*
X268938Y225801D01*
X269701Y225801D01*
X269701Y225799D01*
X268938Y225799D01*
X268918Y225796D01*
X268899Y225798D01*
X268797Y225776D01*
X268695Y225759D01*
X268678Y225750D01*
X268658Y225746D01*
X268569Y225693D01*
X268478Y225644D01*
X268464Y225630D01*
X268447Y225620D01*
X268380Y225541D01*
X268309Y225466D01*
X268300Y225448D01*
X268287Y225433D01*
X268248Y225337D01*
X268205Y225243D01*
X268203Y225223D01*
X268195Y225205D01*
X268177Y225038D01*
X268177Y216655D01*
X262762Y216655D01*
X262115Y216828D01*
X261536Y217163D01*
X261063Y217636D01*
X260728Y218215D01*
X260555Y218862D01*
X260555Y223082D01*
X260540Y223178D01*
X260530Y223275D01*
X260520Y223299D01*
X260516Y223324D01*
X260470Y223410D01*
X260430Y223499D01*
X260413Y223519D01*
X260400Y223542D01*
X260330Y223609D01*
X260264Y223680D01*
X260241Y223693D01*
X260222Y223711D01*
X260134Y223752D01*
X260048Y223799D01*
X260023Y223804D01*
X259999Y223815D01*
X259902Y223825D01*
X259806Y223843D01*
X259780Y223839D01*
X259755Y223842D01*
X259659Y223821D01*
X259563Y223807D01*
X259540Y223795D01*
X259514Y223790D01*
X259431Y223740D01*
X259344Y223695D01*
X259325Y223677D01*
X259303Y223663D01*
X259240Y223589D01*
X259172Y223520D01*
X259156Y223491D01*
X259143Y223476D01*
X259131Y223446D01*
X259091Y223373D01*
X257842Y220359D01*
X255141Y217658D01*
X251610Y216195D01*
X247790Y216195D01*
X244259Y217658D01*
X241558Y220359D01*
X240403Y223146D01*
X240365Y223207D01*
X240336Y223272D01*
X240301Y223311D01*
X240274Y223355D01*
X240218Y223401D01*
X240170Y223453D01*
X240124Y223479D01*
X240084Y223512D01*
X240017Y223537D01*
X239954Y223572D01*
X239903Y223581D01*
X239855Y223600D01*
X239783Y223603D01*
X239712Y223616D01*
X239661Y223608D01*
X239609Y223610D01*
X239540Y223590D01*
X239469Y223580D01*
X239423Y223556D01*
X239373Y223542D01*
X239314Y223501D01*
X239250Y223468D01*
X239213Y223431D01*
X239171Y223402D01*
X239128Y223344D01*
X239078Y223293D01*
X239043Y223230D01*
X239024Y223204D01*
X239017Y223182D01*
X238997Y223146D01*
X237842Y220359D01*
X235141Y217658D01*
X231610Y216195D01*
X227790Y216195D01*
X224259Y217658D01*
X221558Y220359D01*
X220403Y223146D01*
X220365Y223207D01*
X220336Y223272D01*
X220301Y223311D01*
X220274Y223355D01*
X220218Y223401D01*
X220170Y223453D01*
X220124Y223479D01*
X220084Y223512D01*
X220017Y223537D01*
X219954Y223572D01*
X219903Y223581D01*
X219855Y223600D01*
X219783Y223603D01*
X219712Y223616D01*
X219661Y223608D01*
X219609Y223610D01*
X219540Y223590D01*
X219469Y223580D01*
X219423Y223556D01*
X219373Y223542D01*
X219314Y223501D01*
X219250Y223468D01*
X219213Y223431D01*
X219171Y223402D01*
X219128Y223344D01*
X219078Y223293D01*
X219043Y223230D01*
X219024Y223204D01*
X219017Y223182D01*
X218997Y223146D01*
X217842Y220359D01*
X215141Y217658D01*
X211610Y216195D01*
X207790Y216195D01*
X204259Y217658D01*
X201558Y220359D01*
X200403Y223146D01*
X200365Y223207D01*
X200336Y223272D01*
X200301Y223311D01*
X200274Y223355D01*
X200218Y223401D01*
X200170Y223453D01*
X200124Y223479D01*
X200084Y223512D01*
X200017Y223537D01*
X199954Y223572D01*
X199903Y223581D01*
X199855Y223600D01*
X199783Y223603D01*
X199712Y223616D01*
X199661Y223608D01*
X199609Y223610D01*
X199540Y223590D01*
X199469Y223580D01*
X199423Y223556D01*
X199373Y223542D01*
X199314Y223501D01*
X199250Y223468D01*
X199213Y223431D01*
X199171Y223402D01*
X199128Y223344D01*
X199078Y223293D01*
X199043Y223230D01*
X199024Y223204D01*
X199017Y223182D01*
X198997Y223146D01*
X197842Y220359D01*
X196283Y218800D01*
X196242Y218742D01*
X196192Y218690D01*
X196170Y218643D01*
X196140Y218601D01*
X196119Y218532D01*
X196089Y218467D01*
X196083Y218415D01*
X196067Y218365D01*
X196069Y218294D01*
X196061Y218223D01*
X196073Y218172D01*
X196074Y218120D01*
X196098Y218052D01*
X196114Y217982D01*
X196140Y217937D01*
X196158Y217889D01*
X196203Y217833D01*
X196240Y217771D01*
X196279Y217737D01*
X196312Y217697D01*
X196372Y217658D01*
X196427Y217611D01*
X196475Y217592D01*
X196519Y217564D01*
X196588Y217546D01*
X196655Y217519D01*
X196726Y217511D01*
X196757Y217503D01*
X196781Y217505D01*
X196822Y217501D01*
X199492Y217501D01*
X202249Y216359D01*
X203884Y214724D01*
X203958Y214671D01*
X204027Y214611D01*
X204058Y214599D01*
X204084Y214580D01*
X204171Y214553D01*
X204256Y214519D01*
X204296Y214515D01*
X204319Y214508D01*
X204351Y214509D01*
X204422Y214501D01*
X211942Y214501D01*
X212007Y214511D01*
X212073Y214512D01*
X212153Y214535D01*
X212185Y214540D01*
X212202Y214550D01*
X212234Y214559D01*
X214508Y215501D01*
X224492Y215501D01*
X226766Y214559D01*
X226830Y214544D01*
X226891Y214519D01*
X226974Y214510D01*
X227006Y214503D01*
X227025Y214504D01*
X227058Y214501D01*
X232578Y214501D01*
X232668Y214515D01*
X232759Y214523D01*
X232789Y214535D01*
X232821Y214540D01*
X232901Y214583D01*
X232985Y214619D01*
X233017Y214645D01*
X233038Y214656D01*
X233060Y214679D01*
X233116Y214724D01*
X233751Y215359D01*
X236508Y216501D01*
X241492Y216501D01*
X244249Y215359D01*
X244884Y214724D01*
X244958Y214671D01*
X245027Y214611D01*
X245058Y214599D01*
X245084Y214580D01*
X245171Y214553D01*
X245256Y214519D01*
X245296Y214515D01*
X245319Y214508D01*
X245351Y214509D01*
X245422Y214501D01*
X250492Y214501D01*
X253249Y213359D01*
X255466Y211142D01*
X260359Y206249D01*
X261501Y203492D01*
X261501Y146262D01*
X261504Y146243D01*
X261502Y146225D01*
X261502Y146224D01*
X261502Y146223D01*
X261524Y146121D01*
X261540Y146019D01*
X261550Y146002D01*
X261554Y145982D01*
X261607Y145893D01*
X261656Y145802D01*
X261670Y145788D01*
X261680Y145771D01*
X261759Y145704D01*
X261834Y145632D01*
X261852Y145624D01*
X261867Y145611D01*
X261963Y145572D01*
X262057Y145529D01*
X262077Y145527D01*
X262095Y145519D01*
X262262Y145501D01*
X285492Y145501D01*
X288249Y144359D01*
X292884Y139724D01*
X292958Y139671D01*
X293027Y139611D01*
X293058Y139599D01*
X293084Y139580D01*
X293171Y139553D01*
X293256Y139519D01*
X293296Y139515D01*
X293319Y139508D01*
X293351Y139509D01*
X293422Y139501D01*
X293492Y139501D01*
X296249Y138359D01*
X299144Y135464D01*
X299218Y135411D01*
X299287Y135351D01*
X299318Y135339D01*
X299344Y135320D01*
X299431Y135293D01*
X299516Y135259D01*
X299556Y135255D01*
X299579Y135248D01*
X299611Y135249D01*
X299682Y135241D01*
X313238Y135241D01*
X316744Y133788D01*
X319428Y131104D01*
X320881Y127598D01*
X320881Y123802D01*
X319428Y120296D01*
X316744Y117612D01*
X313238Y116159D01*
X296362Y116159D01*
X292856Y117612D01*
X290172Y120296D01*
X288719Y123802D01*
X288719Y123903D01*
X288700Y124018D01*
X288683Y124134D01*
X288681Y124140D01*
X288680Y124146D01*
X288625Y124248D01*
X288572Y124353D01*
X288567Y124358D01*
X288564Y124363D01*
X288480Y124443D01*
X288396Y124526D01*
X288390Y124529D01*
X288386Y124533D01*
X288369Y124540D01*
X288249Y124606D01*
X285751Y125641D01*
X281116Y130276D01*
X281042Y130329D01*
X280973Y130389D01*
X280942Y130401D01*
X280916Y130420D01*
X280829Y130447D01*
X280744Y130481D01*
X280704Y130485D01*
X280681Y130492D01*
X280649Y130491D01*
X280578Y130499D01*
X245702Y130499D01*
X245682Y130496D01*
X245663Y130498D01*
X245561Y130476D01*
X245459Y130460D01*
X245442Y130450D01*
X245422Y130446D01*
X245333Y130393D01*
X245242Y130344D01*
X245228Y130330D01*
X245211Y130320D01*
X245144Y130241D01*
X245072Y130166D01*
X245064Y130148D01*
X245051Y130133D01*
X245012Y130037D01*
X244969Y129943D01*
X244967Y129923D01*
X244959Y129905D01*
X244941Y129738D01*
X244941Y129017D01*
X243183Y127259D01*
X225617Y127259D01*
X223859Y129017D01*
X223859Y146583D01*
X225617Y148341D01*
X243183Y148341D01*
X244941Y146583D01*
X244941Y146262D01*
X244944Y146243D01*
X244942Y146225D01*
X244942Y146224D01*
X244942Y146223D01*
X244964Y146121D01*
X244980Y146019D01*
X244990Y146002D01*
X244994Y145982D01*
X245047Y145893D01*
X245096Y145802D01*
X245110Y145788D01*
X245120Y145771D01*
X245199Y145704D01*
X245274Y145632D01*
X245292Y145624D01*
X245307Y145611D01*
X245403Y145572D01*
X245497Y145529D01*
X245517Y145527D01*
X245535Y145519D01*
X245702Y145501D01*
X245738Y145501D01*
X245758Y145504D01*
X245777Y145502D01*
X245879Y145524D01*
X245981Y145540D01*
X245998Y145550D01*
X246018Y145554D01*
X246107Y145607D01*
X246198Y145656D01*
X246212Y145670D01*
X246229Y145680D01*
X246296Y145759D01*
X246368Y145834D01*
X246376Y145852D01*
X246389Y145867D01*
X246428Y145963D01*
X246471Y146057D01*
X246473Y146077D01*
X246481Y146095D01*
X246499Y146262D01*
X246499Y198578D01*
X246485Y198668D01*
X246477Y198759D01*
X246465Y198789D01*
X246460Y198821D01*
X246417Y198901D01*
X246381Y198985D01*
X246355Y199017D01*
X246344Y199038D01*
X246321Y199060D01*
X246276Y199116D01*
X246116Y199276D01*
X246042Y199329D01*
X245973Y199389D01*
X245943Y199401D01*
X245916Y199420D01*
X245829Y199447D01*
X245745Y199481D01*
X245704Y199485D01*
X245681Y199492D01*
X245649Y199491D01*
X245578Y199499D01*
X244662Y199499D01*
X244591Y199488D01*
X244520Y199486D01*
X244471Y199468D01*
X244419Y199460D01*
X244356Y199426D01*
X244289Y199401D01*
X244248Y199369D01*
X244202Y199344D01*
X244153Y199292D01*
X244097Y199248D01*
X244069Y199204D01*
X244033Y199166D01*
X244002Y199101D01*
X243964Y199041D01*
X243951Y198990D01*
X243929Y198943D01*
X243921Y198872D01*
X243904Y198802D01*
X243908Y198750D01*
X243902Y198699D01*
X243917Y198628D01*
X243923Y198557D01*
X243943Y198509D01*
X243954Y198458D01*
X243991Y198397D01*
X244019Y198331D01*
X244064Y198275D01*
X244080Y198247D01*
X244098Y198232D01*
X244124Y198200D01*
X244941Y197383D01*
X244941Y179817D01*
X243183Y178059D01*
X225617Y178059D01*
X223859Y179817D01*
X223859Y197383D01*
X224676Y198200D01*
X224718Y198258D01*
X224767Y198310D01*
X224789Y198357D01*
X224820Y198399D01*
X224841Y198468D01*
X224871Y198533D01*
X224877Y198585D01*
X224892Y198635D01*
X224890Y198706D01*
X224898Y198777D01*
X224887Y198828D01*
X224886Y198880D01*
X224861Y198948D01*
X224846Y199018D01*
X224819Y199063D01*
X224801Y199111D01*
X224756Y199167D01*
X224720Y199229D01*
X224680Y199263D01*
X224647Y199303D01*
X224587Y199342D01*
X224533Y199389D01*
X224484Y199408D01*
X224441Y199436D01*
X224371Y199454D01*
X224305Y199481D01*
X224233Y199489D01*
X224202Y199497D01*
X224179Y199495D01*
X224138Y199499D01*
X222508Y199499D01*
X220234Y200441D01*
X220170Y200456D01*
X220109Y200481D01*
X220026Y200490D01*
X219994Y200497D01*
X219975Y200496D01*
X219942Y200499D01*
X219058Y200499D01*
X218993Y200489D01*
X218927Y200488D01*
X218847Y200465D01*
X218815Y200460D01*
X218798Y200450D01*
X218766Y200441D01*
X216492Y199499D01*
X201946Y199499D01*
X201875Y199488D01*
X201804Y199486D01*
X201755Y199468D01*
X201703Y199460D01*
X201640Y199426D01*
X201573Y199401D01*
X201532Y199369D01*
X201486Y199344D01*
X201437Y199292D01*
X201381Y199248D01*
X201353Y199204D01*
X201317Y199166D01*
X201286Y199101D01*
X201248Y199041D01*
X201235Y198990D01*
X201213Y198943D01*
X201205Y198872D01*
X201188Y198802D01*
X201192Y198750D01*
X201186Y198699D01*
X201201Y198628D01*
X201207Y198557D01*
X201227Y198509D01*
X201238Y198458D01*
X201275Y198397D01*
X201303Y198331D01*
X201348Y198275D01*
X201364Y198247D01*
X201382Y198232D01*
X201408Y198200D01*
X218142Y181466D01*
X220359Y179249D01*
X221501Y176492D01*
X221501Y121422D01*
X221515Y121332D01*
X221523Y121241D01*
X221535Y121211D01*
X221540Y121179D01*
X221583Y121099D01*
X221619Y121015D01*
X221645Y120983D01*
X221656Y120962D01*
X221679Y120940D01*
X221724Y120884D01*
X221884Y120724D01*
X221958Y120671D01*
X222027Y120611D01*
X222058Y120599D01*
X222084Y120580D01*
X222171Y120553D01*
X222256Y120519D01*
X222296Y120515D01*
X222319Y120508D01*
X222351Y120509D01*
X222422Y120501D01*
X223098Y120501D01*
X223118Y120504D01*
X223137Y120502D01*
X223239Y120524D01*
X223341Y120540D01*
X223358Y120550D01*
X223378Y120554D01*
X223467Y120607D01*
X223558Y120656D01*
X223572Y120670D01*
X223589Y120680D01*
X223656Y120759D01*
X223728Y120834D01*
X223736Y120852D01*
X223749Y120867D01*
X223788Y120963D01*
X223831Y121057D01*
X223833Y121077D01*
X223841Y121095D01*
X223849Y121173D01*
X225617Y122941D01*
X243183Y122941D01*
X244941Y121183D01*
X244941Y103617D01*
X243183Y101859D01*
X225617Y101859D01*
X223859Y103617D01*
X223859Y104738D01*
X223856Y104758D01*
X223858Y104777D01*
X223836Y104879D01*
X223820Y104981D01*
X223810Y104998D01*
X223806Y105018D01*
X223753Y105107D01*
X223704Y105198D01*
X223690Y105212D01*
X223680Y105229D01*
X223601Y105296D01*
X223526Y105368D01*
X223508Y105376D01*
X223493Y105389D01*
X223397Y105428D01*
X223303Y105471D01*
X223283Y105473D01*
X223265Y105481D01*
X223098Y105499D01*
X217508Y105499D01*
X214751Y106641D01*
X212534Y108858D01*
X209800Y111592D01*
X209742Y111634D01*
X209690Y111683D01*
X209643Y111705D01*
X209601Y111736D01*
X209532Y111757D01*
X209467Y111787D01*
X209415Y111793D01*
X209365Y111808D01*
X209294Y111806D01*
X209223Y111814D01*
X209172Y111803D01*
X209120Y111802D01*
X209052Y111777D01*
X208982Y111762D01*
X208937Y111735D01*
X208889Y111717D01*
X208833Y111672D01*
X208771Y111636D01*
X208737Y111596D01*
X208697Y111563D01*
X208658Y111503D01*
X208611Y111449D01*
X208592Y111400D01*
X208564Y111357D01*
X208546Y111287D01*
X208519Y111221D01*
X208511Y111149D01*
X208503Y111118D01*
X208505Y111095D01*
X208501Y111054D01*
X208501Y109422D01*
X208515Y109332D01*
X208523Y109241D01*
X208535Y109211D01*
X208540Y109179D01*
X208583Y109099D01*
X208619Y109015D01*
X208645Y108983D01*
X208656Y108962D01*
X208679Y108940D01*
X208724Y108884D01*
X222560Y95048D01*
X222618Y95006D01*
X222670Y94957D01*
X222717Y94935D01*
X222759Y94904D01*
X222828Y94883D01*
X222893Y94853D01*
X222945Y94847D01*
X222995Y94832D01*
X223066Y94834D01*
X223137Y94826D01*
X223188Y94837D01*
X223240Y94838D01*
X223308Y94863D01*
X223378Y94878D01*
X223423Y94905D01*
X223471Y94923D01*
X223527Y94968D01*
X223589Y95004D01*
X223623Y95044D01*
X223663Y95077D01*
X223702Y95137D01*
X223749Y95191D01*
X223768Y95240D01*
X223796Y95283D01*
X223814Y95353D01*
X223841Y95419D01*
X223849Y95491D01*
X223857Y95522D01*
X223855Y95545D01*
X223859Y95586D01*
X223859Y95783D01*
X225617Y97541D01*
X243183Y97541D01*
X244941Y95783D01*
X244941Y78217D01*
X243183Y76459D01*
X225617Y76459D01*
X223859Y78217D01*
X223859Y78738D01*
X223856Y78758D01*
X223858Y78777D01*
X223836Y78879D01*
X223820Y78981D01*
X223810Y78998D01*
X223806Y79018D01*
X223753Y79107D01*
X223704Y79198D01*
X223690Y79212D01*
X223680Y79229D01*
X223601Y79296D01*
X223526Y79368D01*
X223508Y79376D01*
X223493Y79389D01*
X223397Y79428D01*
X223303Y79471D01*
X223283Y79473D01*
X223265Y79481D01*
X223098Y79499D01*
X218508Y79499D01*
X215751Y80641D01*
X213534Y82858D01*
X196800Y99592D01*
X196742Y99634D01*
X196690Y99683D01*
X196643Y99705D01*
X196601Y99736D01*
X196532Y99757D01*
X196467Y99787D01*
X196415Y99793D01*
X196365Y99808D01*
X196294Y99806D01*
X196223Y99814D01*
X196172Y99803D01*
X196120Y99802D01*
X196052Y99777D01*
X195982Y99762D01*
X195937Y99735D01*
X195889Y99717D01*
X195833Y99672D01*
X195771Y99636D01*
X195737Y99596D01*
X195697Y99563D01*
X195658Y99503D01*
X195611Y99449D01*
X195592Y99400D01*
X195564Y99357D01*
X195546Y99287D01*
X195519Y99221D01*
X195511Y99149D01*
X195503Y99118D01*
X195505Y99095D01*
X195501Y99054D01*
X195501Y79765D01*
X195515Y79675D01*
X195523Y79584D01*
X195535Y79555D01*
X195540Y79523D01*
X195583Y79442D01*
X195619Y79358D01*
X195645Y79326D01*
X195656Y79305D01*
X195679Y79283D01*
X195724Y79227D01*
X225227Y49724D01*
X225301Y49671D01*
X225371Y49611D01*
X225401Y49599D01*
X225427Y49580D01*
X225514Y49553D01*
X225599Y49519D01*
X225640Y49515D01*
X225662Y49508D01*
X225694Y49509D01*
X225765Y49501D01*
X243235Y49501D01*
X243325Y49515D01*
X243416Y49523D01*
X243445Y49535D01*
X243477Y49540D01*
X243558Y49583D01*
X243642Y49619D01*
X243674Y49645D01*
X243695Y49656D01*
X243717Y49679D01*
X243773Y49724D01*
X273276Y79227D01*
X273329Y79301D01*
X273389Y79371D01*
X273401Y79401D01*
X273420Y79427D01*
X273447Y79514D01*
X273481Y79599D01*
X273485Y79640D01*
X273492Y79662D01*
X273491Y79694D01*
X273499Y79765D01*
X273499Y81600D01*
X273480Y81715D01*
X273463Y81831D01*
X273460Y81837D01*
X273460Y81843D01*
X273405Y81945D01*
X273352Y82051D01*
X273347Y82055D01*
X273344Y82060D01*
X273289Y82112D01*
X273265Y82143D01*
X271250Y84158D01*
X270217Y86651D01*
X270217Y89349D01*
X271250Y91842D01*
X273158Y93750D01*
X275651Y94783D01*
X278349Y94783D01*
X280842Y93750D01*
X282750Y91842D01*
X283820Y89259D01*
X283844Y89220D01*
X283860Y89177D01*
X283909Y89116D01*
X283950Y89050D01*
X283985Y89021D01*
X284014Y88985D01*
X284079Y88943D01*
X284139Y88893D01*
X284182Y88877D01*
X284221Y88852D01*
X284296Y88833D01*
X284369Y88805D01*
X284415Y88803D01*
X284459Y88792D01*
X284537Y88798D01*
X284614Y88795D01*
X284659Y88808D01*
X284704Y88811D01*
X284776Y88842D01*
X284851Y88863D01*
X284888Y88890D01*
X284931Y88908D01*
X285037Y88993D01*
X285053Y89004D01*
X285056Y89008D01*
X285062Y89012D01*
X290220Y94171D01*
X290232Y94187D01*
X290247Y94199D01*
X290303Y94287D01*
X290364Y94371D01*
X290369Y94390D01*
X290380Y94406D01*
X290406Y94507D01*
X290436Y94606D01*
X290435Y94626D01*
X290440Y94645D01*
X290432Y94748D01*
X290430Y94852D01*
X290423Y94870D01*
X290421Y94890D01*
X290381Y94985D01*
X290345Y95083D01*
X290333Y95098D01*
X290325Y95116D01*
X290220Y95247D01*
X290172Y95296D01*
X288719Y98802D01*
X288719Y102598D01*
X290172Y106104D01*
X292856Y108788D01*
X296362Y110241D01*
X313238Y110241D01*
X316744Y108788D01*
X319428Y106104D01*
X320881Y102598D01*
X320881Y98802D01*
X319428Y95296D01*
X316744Y92612D01*
X313238Y91159D01*
X297425Y91159D01*
X297335Y91145D01*
X297244Y91137D01*
X297215Y91125D01*
X297183Y91120D01*
X297102Y91077D01*
X297018Y91041D01*
X296986Y91015D01*
X296965Y91004D01*
X296943Y90981D01*
X296887Y90936D01*
X284724Y78773D01*
X284671Y78699D01*
X284611Y78629D01*
X284599Y78599D01*
X284580Y78573D01*
X284553Y78486D01*
X284519Y78401D01*
X284515Y78360D01*
X284508Y78338D01*
X284509Y78306D01*
X284501Y78235D01*
X284501Y74550D01*
X246450Y36499D01*
X213765Y36499D01*
X213675Y36485D01*
X213584Y36477D01*
X213555Y36465D01*
X213523Y36460D01*
X213442Y36417D01*
X213358Y36381D01*
X213326Y36355D01*
X213305Y36344D01*
X213283Y36321D01*
X213227Y36276D01*
X206563Y29612D01*
X206495Y29518D01*
X206425Y29423D01*
X206423Y29417D01*
X206419Y29412D01*
X206385Y29302D01*
X206349Y29190D01*
X206349Y29183D01*
X206347Y29177D01*
X206350Y29061D01*
X206351Y28944D01*
X206353Y28936D01*
X206353Y28931D01*
X206360Y28914D01*
X206398Y28783D01*
X207197Y26854D01*
X207235Y26793D01*
X207264Y26728D01*
X207299Y26689D01*
X207326Y26645D01*
X207382Y26599D01*
X207430Y26547D01*
X207476Y26521D01*
X207516Y26488D01*
X207583Y26463D01*
X207646Y26428D01*
X207697Y26419D01*
X207745Y26400D01*
X207817Y26397D01*
X207888Y26384D01*
X207939Y26392D01*
X207991Y26390D01*
X208060Y26410D01*
X208131Y26420D01*
X208177Y26444D01*
X208227Y26458D01*
X208286Y26499D01*
X208350Y26532D01*
X208387Y26569D01*
X208429Y26598D01*
X208472Y26656D01*
X208522Y26707D01*
X208557Y26770D01*
X208576Y26796D01*
X208583Y26818D01*
X208603Y26854D01*
X209758Y29641D01*
X212459Y32342D01*
X215990Y33805D01*
X219810Y33805D01*
X223341Y32342D01*
X226042Y29641D01*
X227505Y26110D01*
X227505Y22290D01*
X226042Y18759D01*
X223341Y16057D01*
X223118Y15965D01*
X223035Y15914D01*
X222949Y15868D01*
X222931Y15850D01*
X222909Y15836D01*
X222847Y15761D01*
X222780Y15690D01*
X222769Y15666D01*
X222752Y15646D01*
X222717Y15555D01*
X222676Y15467D01*
X222673Y15441D01*
X222664Y15417D01*
X222660Y15319D01*
X222649Y15223D01*
X222655Y15197D01*
X222653Y15171D01*
X222681Y15077D01*
X222701Y14982D01*
X222715Y14960D01*
X222722Y14935D01*
X222778Y14855D01*
X222827Y14771D01*
X222847Y14754D01*
X222862Y14733D01*
X222940Y14674D01*
X223014Y14611D01*
X223039Y14601D01*
X223060Y14586D01*
X223152Y14556D01*
X223243Y14519D01*
X223275Y14516D01*
X223293Y14510D01*
X223326Y14510D01*
X223409Y14501D01*
X224235Y14501D01*
X224325Y14515D01*
X224416Y14523D01*
X224445Y14535D01*
X224477Y14540D01*
X224558Y14583D01*
X224642Y14619D01*
X224674Y14645D01*
X224695Y14656D01*
X224717Y14679D01*
X224773Y14724D01*
X227276Y17227D01*
X229550Y19501D01*
X233235Y19501D01*
X233325Y19515D01*
X233416Y19523D01*
X233445Y19535D01*
X233477Y19540D01*
X233558Y19583D01*
X233642Y19619D01*
X233674Y19645D01*
X233695Y19656D01*
X233717Y19679D01*
X233773Y19724D01*
X288496Y74447D01*
X288549Y74521D01*
X288609Y74591D01*
X288621Y74621D01*
X288640Y74647D01*
X288667Y74734D01*
X288701Y74819D01*
X288705Y74860D01*
X288712Y74882D01*
X288711Y74914D01*
X288719Y74985D01*
X288719Y77598D01*
X290172Y81104D01*
X292856Y83788D01*
X296362Y85241D01*
X313238Y85241D01*
X316744Y83788D01*
X319428Y81104D01*
X320881Y77598D01*
X320881Y73802D01*
X319428Y70296D01*
X316744Y67612D01*
X313238Y66159D01*
X296362Y66159D01*
X292856Y67612D01*
X292747Y67720D01*
X292731Y67732D01*
X292719Y67747D01*
X292632Y67803D01*
X292548Y67864D01*
X292529Y67869D01*
X292512Y67880D01*
X292412Y67905D01*
X292313Y67936D01*
X292293Y67935D01*
X292273Y67940D01*
X292170Y67932D01*
X292067Y67930D01*
X292048Y67923D01*
X292028Y67921D01*
X291933Y67881D01*
X291836Y67845D01*
X291820Y67833D01*
X291802Y67825D01*
X291671Y67720D01*
X238724Y14773D01*
X236450Y12499D01*
X232765Y12499D01*
X232675Y12485D01*
X232584Y12477D01*
X232555Y12465D01*
X232523Y12460D01*
X232442Y12417D01*
X232358Y12381D01*
X232326Y12355D01*
X232305Y12344D01*
X232283Y12321D01*
X232227Y12276D01*
X231251Y11300D01*
X231209Y11242D01*
X231160Y11190D01*
X231138Y11143D01*
X231108Y11101D01*
X231086Y11032D01*
X231056Y10967D01*
X231050Y10915D01*
X231035Y10865D01*
X231037Y10794D01*
X231029Y10723D01*
X231040Y10672D01*
X231042Y10620D01*
X231066Y10552D01*
X231081Y10482D01*
X231108Y10438D01*
X231126Y10389D01*
X231171Y10333D01*
X231208Y10271D01*
X231247Y10237D01*
X231280Y10197D01*
X231340Y10158D01*
X231394Y10111D01*
X231443Y10092D01*
X231487Y10064D01*
X231556Y10046D01*
X231623Y10019D01*
X231694Y10011D01*
X231725Y10003D01*
X231748Y10005D01*
X231789Y10001D01*
X295805Y10001D01*
X295922Y10020D01*
X296039Y10038D01*
X296043Y10040D01*
X296047Y10040D01*
X296153Y10096D01*
X296258Y10151D01*
X296261Y10154D01*
X296265Y10156D01*
X296347Y10242D01*
X296429Y10327D01*
X296431Y10331D01*
X296434Y10334D01*
X296484Y10442D01*
X296535Y10549D01*
X296536Y10553D01*
X296538Y10557D01*
X296551Y10674D01*
X296565Y10793D01*
X296564Y10798D01*
X296565Y10801D01*
X296562Y10815D01*
X296540Y10959D01*
X294999Y16709D01*
X294999Y23291D01*
X296703Y29650D01*
X299994Y35351D01*
X304649Y40006D01*
X310350Y43297D01*
X316709Y45001D01*
X323291Y45001D01*
X329041Y43460D01*
X329160Y43448D01*
X329277Y43435D01*
X329282Y43436D01*
X329286Y43436D01*
X329401Y43462D01*
X329518Y43487D01*
X329521Y43490D01*
X329526Y43491D01*
X329627Y43553D01*
X329729Y43614D01*
X329732Y43617D01*
X329735Y43619D01*
X329812Y43711D01*
X329889Y43801D01*
X329890Y43804D01*
X329893Y43808D01*
X329936Y43918D01*
X329981Y44029D01*
X329981Y44034D01*
X329983Y44037D01*
X329983Y44050D01*
X329999Y44195D01*
X329999Y255805D01*
X329980Y255922D01*
X329962Y256039D01*
X329960Y256043D01*
X329960Y256047D01*
X329904Y256152D01*
X329849Y256258D01*
X329846Y256261D01*
X329844Y256265D01*
X329758Y256347D01*
X329673Y256429D01*
X329669Y256431D01*
X329666Y256434D01*
X329558Y256484D01*
X329451Y256535D01*
X329447Y256536D01*
X329443Y256538D01*
X329326Y256551D01*
X329207Y256565D01*
X329202Y256564D01*
X329199Y256565D01*
X329185Y256562D01*
X329041Y256540D01*
X323291Y254999D01*
X316709Y254999D01*
X310350Y256703D01*
X304649Y259994D01*
X299994Y264649D01*
X296703Y270350D01*
X294999Y276709D01*
X294999Y283291D01*
X296540Y289041D01*
X296552Y289160D01*
X296565Y289277D01*
X296564Y289282D01*
X296564Y289286D01*
X296538Y289401D01*
X296513Y289518D01*
X296510Y289521D01*
X296509Y289526D01*
X296447Y289627D01*
X296386Y289729D01*
X296383Y289732D01*
X296381Y289735D01*
X296289Y289812D01*
X296199Y289889D01*
X296196Y289890D01*
X296192Y289893D01*
X296082Y289936D01*
X295971Y289981D01*
X295966Y289981D01*
X295963Y289983D01*
X295950Y289983D01*
X295805Y289999D01*
X93792Y289999D01*
X93721Y289988D01*
X93650Y289986D01*
X93601Y289968D01*
X93549Y289960D01*
X93486Y289926D01*
X93419Y289901D01*
X93378Y289869D01*
X93332Y289844D01*
X93283Y289792D01*
X93227Y289748D01*
X93199Y289704D01*
X93163Y289666D01*
X93132Y289601D01*
X93094Y289541D01*
X93081Y289490D01*
X93059Y289443D01*
X93051Y289372D01*
X93034Y289302D01*
X93038Y289250D01*
X93032Y289199D01*
X93047Y289128D01*
X93053Y289057D01*
X93073Y289009D01*
X93084Y288958D01*
X93121Y288897D01*
X93149Y288831D01*
X93194Y288775D01*
X93210Y288747D01*
X93228Y288732D01*
X93254Y288700D01*
X100241Y281713D01*
X100241Y276923D01*
X85762Y276923D01*
X85742Y276920D01*
X85723Y276922D01*
X85621Y276900D01*
X85519Y276883D01*
X85502Y276874D01*
X85482Y276870D01*
X85393Y276817D01*
X85302Y276768D01*
X85288Y276754D01*
X85271Y276744D01*
X85204Y276665D01*
X85133Y276590D01*
X85124Y276572D01*
X85111Y276557D01*
X85073Y276461D01*
X85029Y276367D01*
X85027Y276347D01*
X85019Y276329D01*
X85001Y276162D01*
X85001Y275399D01*
X84999Y275399D01*
X84999Y276162D01*
X84996Y276182D01*
X84998Y276201D01*
X84976Y276303D01*
X84959Y276405D01*
X84950Y276422D01*
X84946Y276442D01*
X84893Y276531D01*
X84844Y276622D01*
X84830Y276636D01*
X84820Y276653D01*
X84741Y276720D01*
X84666Y276791D01*
X84648Y276800D01*
X84633Y276813D01*
X84537Y276852D01*
X84443Y276895D01*
X84423Y276897D01*
X84405Y276905D01*
X84238Y276923D01*
X69759Y276923D01*
X69759Y281713D01*
X76746Y288700D01*
X76788Y288758D01*
X76837Y288810D01*
X76859Y288857D01*
X76890Y288899D01*
X76911Y288968D01*
X76941Y289033D01*
X76947Y289085D01*
X76962Y289135D01*
X76960Y289206D01*
X76968Y289277D01*
X76957Y289328D01*
X76956Y289380D01*
X76931Y289448D01*
X76916Y289518D01*
X76889Y289563D01*
X76871Y289611D01*
X76826Y289667D01*
X76790Y289729D01*
X76750Y289763D01*
X76717Y289803D01*
X76657Y289842D01*
X76603Y289889D01*
X76554Y289908D01*
X76511Y289936D01*
X76441Y289954D01*
X76375Y289981D01*
X76303Y289989D01*
X76272Y289997D01*
X76249Y289995D01*
X76208Y289999D01*
X44195Y289999D01*
X44078Y289980D01*
X43961Y289962D01*
X43957Y289960D01*
X43953Y289960D01*
X43847Y289904D01*
X43742Y289849D01*
X43739Y289846D01*
X43735Y289844D01*
X43653Y289758D01*
X43571Y289673D01*
X43569Y289669D01*
X43566Y289666D01*
X43516Y289558D01*
X43465Y289451D01*
X43464Y289447D01*
X43462Y289443D01*
X43449Y289326D01*
X43435Y289207D01*
X43436Y289202D01*
X43435Y289199D01*
X43438Y289185D01*
X43460Y289041D01*
X45001Y283291D01*
X45001Y276709D01*
X43297Y270350D01*
X40006Y264649D01*
X35351Y259994D01*
X29650Y256703D01*
X23291Y254999D01*
X16709Y254999D01*
X10959Y256540D01*
X10840Y256552D01*
X10723Y256565D01*
X10718Y256564D01*
X10714Y256564D01*
X10599Y256538D01*
X10482Y256513D01*
X10479Y256510D01*
X10474Y256509D01*
X10373Y256447D01*
X10271Y256386D01*
X10268Y256383D01*
X10265Y256381D01*
X10188Y256289D01*
X10111Y256199D01*
X10110Y256196D01*
X10107Y256192D01*
X10064Y256082D01*
X10019Y255971D01*
X10019Y255966D01*
X10017Y255963D01*
X10017Y255950D01*
X10001Y255805D01*
X10001Y44195D01*
X10020Y44078D01*
X10038Y43961D01*
X10040Y43957D01*
X10040Y43953D01*
X10096Y43847D01*
X10151Y43742D01*
X10154Y43739D01*
X10156Y43735D01*
X10242Y43653D01*
X10327Y43571D01*
X10331Y43569D01*
X10334Y43566D01*
X10442Y43516D01*
X10549Y43465D01*
X10553Y43464D01*
X10557Y43462D01*
X10674Y43449D01*
X10793Y43435D01*
X10798Y43436D01*
X10801Y43435D01*
X10815Y43438D01*
X10959Y43460D01*
X16709Y45001D01*
X23291Y45001D01*
X29650Y43297D01*
X35351Y40006D01*
X40006Y35351D01*
X43297Y29650D01*
X45001Y23291D01*
X45001Y16709D01*
X43460Y10959D01*
X43448Y10840D01*
X43435Y10723D01*
X43436Y10718D01*
X43436Y10714D01*
X43462Y10599D01*
X43487Y10482D01*
X43490Y10479D01*
X43491Y10474D01*
X43553Y10373D01*
X43614Y10271D01*
X43617Y10268D01*
X43619Y10265D01*
X43711Y10188D01*
X43801Y10111D01*
X43804Y10110D01*
X43808Y10107D01*
X43918Y10064D01*
X44029Y10019D01*
X44034Y10019D01*
X44037Y10017D01*
X44050Y10017D01*
X44195Y10001D01*
X184211Y10001D01*
X184281Y10012D01*
G37*
%LPC*%
G36*
X227887Y251759D02*
X227887Y251759D01*
X223984Y253376D01*
X220996Y256364D01*
X219379Y260267D01*
X219379Y279733D01*
X220996Y283636D01*
X223984Y286624D01*
X227887Y288241D01*
X232113Y288241D01*
X236016Y286624D01*
X239004Y283636D01*
X240621Y279733D01*
X240621Y260267D01*
X239004Y256364D01*
X236016Y253376D01*
X232113Y251759D01*
X227887Y251759D01*
G37*
%LPD*%
%LPC*%
G36*
X253287Y251759D02*
X253287Y251759D01*
X249384Y253376D01*
X246396Y256364D01*
X244779Y260267D01*
X244779Y279733D01*
X246396Y283636D01*
X249384Y286624D01*
X253287Y288241D01*
X257513Y288241D01*
X261416Y286624D01*
X264404Y283636D01*
X266021Y279733D01*
X266021Y260267D01*
X264404Y256364D01*
X261416Y253376D01*
X257513Y251759D01*
X253287Y251759D01*
G37*
%LPD*%
%LPC*%
G36*
X37662Y86159D02*
X37662Y86159D01*
X34156Y87612D01*
X31472Y90296D01*
X30019Y93802D01*
X30019Y97598D01*
X31472Y101104D01*
X34156Y103788D01*
X37662Y105241D01*
X54538Y105241D01*
X58044Y103788D01*
X60728Y101104D01*
X62181Y97598D01*
X62181Y93802D01*
X60728Y90296D01*
X58044Y87612D01*
X54538Y86159D01*
X37662Y86159D01*
G37*
%LPD*%
%LPC*%
G36*
X37662Y111159D02*
X37662Y111159D01*
X34156Y112612D01*
X31472Y115296D01*
X30019Y118802D01*
X30019Y122598D01*
X31472Y126104D01*
X34156Y128788D01*
X37662Y130241D01*
X54538Y130241D01*
X58044Y128788D01*
X60728Y126104D01*
X62181Y122598D01*
X62181Y118802D01*
X60728Y115296D01*
X58044Y112612D01*
X54538Y111159D01*
X37662Y111159D01*
G37*
%LPD*%
%LPC*%
G36*
X296362Y141159D02*
X296362Y141159D01*
X292856Y142612D01*
X290172Y145296D01*
X288719Y148802D01*
X288719Y152598D01*
X290172Y156104D01*
X292856Y158788D01*
X296362Y160241D01*
X313238Y160241D01*
X316744Y158788D01*
X319428Y156104D01*
X320881Y152598D01*
X320881Y148802D01*
X319428Y145296D01*
X316744Y142612D01*
X313238Y141159D01*
X296362Y141159D01*
G37*
%LPD*%
%LPC*%
G36*
X225617Y152659D02*
X225617Y152659D01*
X223859Y154417D01*
X223859Y171983D01*
X225617Y173741D01*
X243183Y173741D01*
X244941Y171983D01*
X244941Y154417D01*
X243183Y152659D01*
X225617Y152659D01*
G37*
%LPD*%
%LPC*%
G36*
X98617Y76459D02*
X98617Y76459D01*
X96859Y78217D01*
X96859Y95783D01*
X98617Y97541D01*
X116183Y97541D01*
X117941Y95783D01*
X117941Y78217D01*
X116183Y76459D01*
X98617Y76459D01*
G37*
%LPD*%
%LPC*%
G36*
X98617Y152659D02*
X98617Y152659D01*
X96859Y154417D01*
X96859Y171983D01*
X98617Y173741D01*
X116183Y173741D01*
X117941Y171983D01*
X117941Y154417D01*
X116183Y152659D01*
X98617Y152659D01*
G37*
%LPD*%
%LPC*%
G36*
X86523Y273877D02*
X86523Y273877D01*
X100241Y273877D01*
X100241Y269087D01*
X91313Y260159D01*
X86523Y260159D01*
X86523Y273877D01*
G37*
%LPD*%
%LPC*%
G36*
X78687Y260159D02*
X78687Y260159D01*
X69759Y269087D01*
X69759Y273877D01*
X83477Y273877D01*
X83477Y260159D01*
X78687Y260159D01*
G37*
%LPD*%
%LPC*%
G36*
X206123Y271523D02*
X206123Y271523D01*
X206123Y287666D01*
X206979Y287531D01*
X208500Y287036D01*
X209925Y286310D01*
X211219Y285370D01*
X212350Y284239D01*
X213290Y282945D01*
X214016Y281520D01*
X214511Y279999D01*
X214761Y278420D01*
X214761Y271523D01*
X206123Y271523D01*
G37*
%LPD*%
%LPC*%
G36*
X206123Y268477D02*
X206123Y268477D01*
X214761Y268477D01*
X214761Y261580D01*
X214511Y260001D01*
X214016Y258480D01*
X213290Y257055D01*
X212350Y255761D01*
X211219Y254630D01*
X209925Y253690D01*
X208500Y252964D01*
X206979Y252469D01*
X206123Y252334D01*
X206123Y268477D01*
G37*
%LPD*%
%LPC*%
G36*
X194439Y271523D02*
X194439Y271523D01*
X194439Y278420D01*
X194689Y279999D01*
X195184Y281520D01*
X195910Y282945D01*
X196850Y284239D01*
X197981Y285370D01*
X199275Y286310D01*
X200700Y287036D01*
X202221Y287531D01*
X203077Y287666D01*
X203077Y271523D01*
X194439Y271523D01*
G37*
%LPD*%
%LPC*%
G36*
X202221Y252469D02*
X202221Y252469D01*
X200700Y252964D01*
X199275Y253690D01*
X197981Y254630D01*
X196850Y255761D01*
X195910Y257055D01*
X195184Y258480D01*
X194689Y260001D01*
X194439Y261580D01*
X194439Y268477D01*
X203077Y268477D01*
X203077Y252334D01*
X202221Y252469D01*
G37*
%LPD*%
%LPC*%
G36*
X306323Y177223D02*
X306323Y177223D01*
X306323Y184781D01*
X312234Y184781D01*
X313989Y184432D01*
X315641Y183747D01*
X317129Y182753D01*
X318393Y181489D01*
X319387Y180001D01*
X320072Y178349D01*
X320296Y177223D01*
X306323Y177223D01*
G37*
%LPD*%
%LPC*%
G36*
X47623Y172223D02*
X47623Y172223D01*
X47623Y179781D01*
X53534Y179781D01*
X55289Y179432D01*
X56941Y178747D01*
X58429Y177753D01*
X59693Y176489D01*
X60687Y175001D01*
X61372Y173349D01*
X61596Y172223D01*
X47623Y172223D01*
G37*
%LPD*%
%LPC*%
G36*
X289304Y177223D02*
X289304Y177223D01*
X289528Y178349D01*
X290213Y180001D01*
X291207Y181489D01*
X292471Y182753D01*
X293959Y183747D01*
X295611Y184432D01*
X297366Y184781D01*
X303277Y184781D01*
X303277Y177223D01*
X289304Y177223D01*
G37*
%LPD*%
%LPC*%
G36*
X30604Y172223D02*
X30604Y172223D01*
X30828Y173349D01*
X31513Y175001D01*
X32507Y176489D01*
X33771Y177753D01*
X35259Y178747D01*
X36911Y179432D01*
X38666Y179781D01*
X44577Y179781D01*
X44577Y172223D01*
X30604Y172223D01*
G37*
%LPD*%
%LPC*%
G36*
X306323Y166619D02*
X306323Y166619D01*
X306323Y174177D01*
X320296Y174177D01*
X320072Y173051D01*
X319387Y171399D01*
X318393Y169911D01*
X317129Y168647D01*
X315641Y167653D01*
X313989Y166968D01*
X312234Y166619D01*
X306323Y166619D01*
G37*
%LPD*%
%LPC*%
G36*
X47623Y161619D02*
X47623Y161619D01*
X47623Y169177D01*
X61596Y169177D01*
X61372Y168051D01*
X60687Y166399D01*
X59693Y164911D01*
X58429Y163647D01*
X56941Y162653D01*
X55289Y161968D01*
X53534Y161619D01*
X47623Y161619D01*
G37*
%LPD*%
%LPC*%
G36*
X297366Y166619D02*
X297366Y166619D01*
X295611Y166968D01*
X293959Y167653D01*
X292471Y168647D01*
X291207Y169911D01*
X290213Y171399D01*
X289528Y173051D01*
X289304Y174177D01*
X303277Y174177D01*
X303277Y166619D01*
X297366Y166619D01*
G37*
%LPD*%
%LPC*%
G36*
X38666Y161619D02*
X38666Y161619D01*
X36911Y161968D01*
X35259Y162653D01*
X33771Y163647D01*
X32507Y164911D01*
X31513Y166399D01*
X30828Y168051D01*
X30604Y169177D01*
X44577Y169177D01*
X44577Y161619D01*
X38666Y161619D01*
G37*
%LPD*%
%LPC*%
G36*
X108923Y63123D02*
X108923Y63123D01*
X108923Y71681D01*
X115274Y71681D01*
X115921Y71508D01*
X116500Y71173D01*
X116973Y70700D01*
X117308Y70121D01*
X117481Y69474D01*
X117481Y63123D01*
X108923Y63123D01*
G37*
%LPD*%
%LPC*%
G36*
X235923Y63123D02*
X235923Y63123D01*
X235923Y71681D01*
X242274Y71681D01*
X242921Y71508D01*
X243500Y71173D01*
X243973Y70700D01*
X244308Y70121D01*
X244481Y69474D01*
X244481Y63123D01*
X235923Y63123D01*
G37*
%LPD*%
%LPC*%
G36*
X224319Y63123D02*
X224319Y63123D01*
X224319Y69474D01*
X224492Y70121D01*
X224827Y70700D01*
X225300Y71173D01*
X225879Y71508D01*
X226526Y71681D01*
X232877Y71681D01*
X232877Y63123D01*
X224319Y63123D01*
G37*
%LPD*%
%LPC*%
G36*
X97319Y63123D02*
X97319Y63123D01*
X97319Y69474D01*
X97492Y70121D01*
X97827Y70700D01*
X98300Y71173D01*
X98879Y71508D01*
X99526Y71681D01*
X105877Y71681D01*
X105877Y63123D01*
X97319Y63123D01*
G37*
%LPD*%
%LPC*%
G36*
X235923Y51519D02*
X235923Y51519D01*
X235923Y60077D01*
X244481Y60077D01*
X244481Y53726D01*
X244308Y53079D01*
X243973Y52500D01*
X243500Y52027D01*
X242921Y51692D01*
X242274Y51519D01*
X235923Y51519D01*
G37*
%LPD*%
%LPC*%
G36*
X108923Y51519D02*
X108923Y51519D01*
X108923Y60077D01*
X117481Y60077D01*
X117481Y53726D01*
X117308Y53079D01*
X116973Y52500D01*
X116500Y52027D01*
X115921Y51692D01*
X115274Y51519D01*
X108923Y51519D01*
G37*
%LPD*%
%LPC*%
G36*
X226526Y51519D02*
X226526Y51519D01*
X225879Y51692D01*
X225300Y52027D01*
X224827Y52500D01*
X224492Y53079D01*
X224319Y53726D01*
X224319Y60077D01*
X232877Y60077D01*
X232877Y51519D01*
X226526Y51519D01*
G37*
%LPD*%
%LPC*%
G36*
X271223Y227323D02*
X271223Y227323D01*
X271223Y234945D01*
X276638Y234945D01*
X277285Y234772D01*
X277864Y234437D01*
X278337Y233964D01*
X278672Y233385D01*
X278845Y232738D01*
X278845Y227323D01*
X271223Y227323D01*
G37*
%LPD*%
%LPC*%
G36*
X108755Y25723D02*
X108755Y25723D01*
X108755Y31138D01*
X108928Y31785D01*
X109263Y32364D01*
X109736Y32837D01*
X110315Y33172D01*
X110962Y33345D01*
X116377Y33345D01*
X116377Y25723D01*
X108755Y25723D01*
G37*
%LPD*%
%LPC*%
G36*
X271223Y216655D02*
X271223Y216655D01*
X271223Y224277D01*
X278845Y224277D01*
X278845Y218862D01*
X278672Y218215D01*
X278337Y217636D01*
X277864Y217163D01*
X277285Y216828D01*
X276638Y216655D01*
X271223Y216655D01*
G37*
%LPD*%
%LPC*%
G36*
X110962Y15055D02*
X110962Y15055D01*
X110315Y15228D01*
X109736Y15563D01*
X109263Y16036D01*
X108928Y16615D01*
X108755Y17262D01*
X108755Y22677D01*
X116377Y22677D01*
X116377Y15055D01*
X110962Y15055D01*
G37*
%LPD*%
%LPC*%
G36*
X46099Y170699D02*
X46099Y170699D01*
X46099Y170701D01*
X46101Y170701D01*
X46101Y170699D01*
X46099Y170699D01*
G37*
%LPD*%
%LPC*%
G36*
X107399Y61599D02*
X107399Y61599D01*
X107399Y61601D01*
X107401Y61601D01*
X107401Y61599D01*
X107399Y61599D01*
G37*
%LPD*%
%LPC*%
G36*
X234399Y61599D02*
X234399Y61599D01*
X234399Y61601D01*
X234401Y61601D01*
X234401Y61599D01*
X234399Y61599D01*
G37*
%LPD*%
%LPC*%
G36*
X204599Y269999D02*
X204599Y269999D01*
X204599Y270001D01*
X204601Y270001D01*
X204601Y269999D01*
X204599Y269999D01*
G37*
%LPD*%
%LPC*%
G36*
X304799Y175699D02*
X304799Y175699D01*
X304799Y175701D01*
X304801Y175701D01*
X304801Y175699D01*
X304799Y175699D01*
G37*
%LPD*%
D10*
X107400Y61600D03*
X107400Y87000D03*
X107400Y112400D03*
X107400Y137800D03*
X107400Y163200D03*
X107400Y188600D03*
X234400Y61600D03*
X234400Y87000D03*
X234400Y112400D03*
X234400Y137800D03*
X234400Y163200D03*
X234400Y188600D03*
D11*
X117900Y24200D03*
D12*
X137900Y24200D03*
X157900Y24200D03*
X177900Y24200D03*
X197900Y24200D03*
X217900Y24200D03*
D13*
X52640Y170700D02*
X39560Y170700D01*
X39560Y145700D02*
X52640Y145700D01*
X52640Y120700D02*
X39560Y120700D01*
X39560Y95700D02*
X52640Y95700D01*
X52640Y70700D02*
X39560Y70700D01*
D11*
X269700Y225800D03*
D12*
X249700Y225800D03*
X229700Y225800D03*
X209700Y225800D03*
X189700Y225800D03*
X169700Y225800D03*
D13*
X298260Y175700D02*
X311340Y175700D01*
X311340Y150700D02*
X298260Y150700D01*
X298260Y125700D02*
X311340Y125700D01*
X311340Y100700D02*
X298260Y100700D01*
X298260Y75700D02*
X311340Y75700D01*
D14*
X85000Y224600D03*
D15*
X85000Y275400D03*
D16*
X255400Y277620D02*
X255400Y262380D01*
X230000Y262380D02*
X230000Y277620D01*
X204600Y277620D02*
X204600Y262380D01*
D17*
X53000Y146000D02*
X47000Y146000D01*
X53000Y146000D02*
X59000Y152000D01*
X60000Y152000D01*
X96000Y188000D01*
X107000Y188000D01*
X47000Y146000D02*
X46100Y145700D01*
X107000Y188000D02*
X107400Y188600D01*
X138000Y34000D02*
X138000Y25000D01*
X138000Y34000D02*
X136000Y36000D01*
X136000Y174000D01*
X122000Y188000D01*
X112000Y188000D01*
X138000Y25000D02*
X137900Y24200D01*
X112000Y188000D02*
X107400Y188600D01*
D18*
X153000Y116000D02*
X153000Y51000D01*
X177000Y27000D01*
X177000Y25000D01*
X177900Y24200D01*
X49000Y71000D02*
X47000Y71000D01*
X49000Y71000D02*
X91000Y113000D01*
X91000Y117000D01*
X98000Y124000D01*
X115000Y124000D01*
X119000Y128000D01*
X122000Y128000D01*
X124000Y130000D01*
X47000Y71000D02*
X46100Y70700D01*
X294000Y75000D02*
X304000Y75000D01*
X294000Y75000D02*
X235000Y16000D01*
X231000Y16000D01*
X226000Y11000D01*
X190000Y11000D01*
X177000Y24000D01*
X304000Y75000D02*
X304800Y75700D01*
X177900Y24200D02*
X177000Y24000D01*
D19*
X153000Y116000D03*
X124000Y130000D03*
D18*
X170000Y128000D02*
X170000Y132000D01*
X170000Y128000D02*
X188000Y110000D01*
X188000Y48000D01*
X198000Y38000D01*
D19*
X170000Y132000D03*
X198000Y38000D03*
D18*
X189000Y115000D02*
X189000Y133000D01*
X189000Y115000D02*
X192000Y112000D01*
X192000Y78000D01*
X224000Y46000D01*
X245000Y46000D01*
X277000Y78000D01*
X277000Y88000D01*
X96000Y47000D02*
X91000Y52000D01*
X91000Y100000D01*
X103000Y112000D01*
X107000Y112000D01*
X107400Y112400D01*
D19*
X189000Y133000D03*
X277000Y88000D03*
X96000Y47000D03*
D17*
X298000Y126000D02*
X304000Y126000D01*
X298000Y126000D02*
X292000Y132000D01*
X290000Y132000D01*
X284000Y138000D01*
X254000Y138000D02*
X235000Y138000D01*
X254000Y138000D02*
X284000Y138000D01*
X304000Y126000D02*
X304800Y125700D01*
X235000Y138000D02*
X234400Y137800D01*
X254000Y142000D02*
X254000Y202000D01*
X249000Y207000D01*
X242000Y207000D01*
X240000Y209000D01*
X238000Y209000D01*
X236000Y207000D01*
X224000Y207000D01*
X223000Y208000D01*
X216000Y208000D01*
X215000Y207000D01*
X201000Y207000D01*
X198000Y210000D01*
X254000Y142000D02*
X254000Y138000D01*
D19*
X198000Y210000D03*
D18*
X75000Y204000D02*
X63000Y216000D01*
X63000Y233000D01*
X85000Y255000D01*
X153000Y255000D01*
X156000Y258000D01*
X187000Y258000D01*
X200000Y245000D01*
X232000Y245000D01*
X249000Y228000D01*
X249000Y226000D01*
X249700Y225800D01*
D19*
X75000Y204000D03*
D18*
X96000Y204000D02*
X143000Y251000D01*
X155000Y251000D01*
X158000Y254000D01*
X185000Y254000D01*
X198000Y241000D01*
X216000Y241000D01*
X229000Y228000D01*
X229000Y226000D01*
X229700Y225800D01*
D19*
X96000Y204000D03*
D17*
X190000Y226000D02*
X190000Y235000D01*
X180000Y245000D01*
X162000Y245000D01*
X151000Y234000D01*
X151000Y213000D01*
X201000Y163000D01*
X201000Y106000D01*
X220000Y87000D01*
X234000Y87000D01*
X189700Y225800D02*
X190000Y226000D01*
X234000Y87000D02*
X234400Y87000D01*
X170000Y219000D02*
X170000Y225000D01*
X170000Y219000D02*
X214000Y175000D01*
X214000Y118000D01*
X219000Y113000D01*
X234000Y113000D01*
X170000Y225000D02*
X169700Y225800D01*
X234000Y113000D02*
X234400Y112400D01*
D18*
X170000Y116000D02*
X170000Y120000D01*
X145000Y145000D01*
X145000Y206000D01*
X139000Y212000D01*
X139000Y217000D01*
D19*
X170000Y116000D03*
X139000Y217000D03*
D18*
X301000Y100000D02*
X304000Y100000D01*
X301000Y100000D02*
X281000Y80000D01*
X281000Y76000D01*
X245000Y40000D01*
X212000Y40000D01*
X197000Y25000D01*
X304000Y100000D02*
X304800Y100700D01*
X197900Y24200D02*
X197000Y25000D01*
M02*
