G04 EAGLE Gerber X2 export*
%TF.Part,Single*%
%TF.FileFunction,Copper,L1,Top,Mixed*%
%TF.FilePolarity,Positive*%
%TF.GenerationSoftware,Autodesk,EAGLE,9.1.0*%
%TF.CreationDate,2018-11-27T18:12:10Z*%
G75*
%MOMM*%
%FSLAX34Y34*%
%LPD*%
%AMOC8*
5,1,8,0,0,1.08239X$1,22.5*%
G01*
%ADD10R,0.600000X2.200000*%
%ADD11R,1.320800X1.320800*%
%ADD12C,1.320800*%
%ADD13C,1.308000*%
%ADD14R,1.981200X0.558800*%
%ADD15R,0.800000X0.800000*%
%ADD16R,1.000000X1.100000*%
%ADD17C,1.524000*%
%ADD18C,0.756400*%
%ADD19C,0.700000*%
%ADD20C,0.300000*%

G36*
X190520Y197042D02*
X190520Y197042D01*
X190539Y197040D01*
X190641Y197062D01*
X190743Y197079D01*
X190760Y197088D01*
X190780Y197092D01*
X190869Y197145D01*
X190960Y197194D01*
X190974Y197208D01*
X190991Y197218D01*
X191058Y197297D01*
X191130Y197372D01*
X191138Y197390D01*
X191151Y197405D01*
X191190Y197501D01*
X191233Y197595D01*
X191235Y197615D01*
X191243Y197633D01*
X191261Y197800D01*
X191261Y373300D01*
X191258Y373320D01*
X191260Y373339D01*
X191238Y373441D01*
X191222Y373543D01*
X191212Y373560D01*
X191208Y373580D01*
X191155Y373669D01*
X191106Y373760D01*
X191092Y373774D01*
X191082Y373791D01*
X191003Y373858D01*
X190928Y373930D01*
X190910Y373938D01*
X190895Y373951D01*
X190799Y373990D01*
X190705Y374033D01*
X190685Y374035D01*
X190667Y374043D01*
X190500Y374061D01*
X139700Y374061D01*
X139680Y374058D01*
X139661Y374060D01*
X139559Y374038D01*
X139457Y374022D01*
X139440Y374012D01*
X139420Y374008D01*
X139331Y373955D01*
X139240Y373906D01*
X139226Y373892D01*
X139209Y373882D01*
X139142Y373803D01*
X139071Y373728D01*
X139062Y373710D01*
X139049Y373695D01*
X139010Y373599D01*
X138967Y373505D01*
X138965Y373485D01*
X138957Y373467D01*
X138939Y373300D01*
X138939Y197800D01*
X138942Y197780D01*
X138940Y197761D01*
X138962Y197659D01*
X138979Y197557D01*
X138988Y197540D01*
X138992Y197520D01*
X139045Y197431D01*
X139094Y197340D01*
X139108Y197326D01*
X139118Y197309D01*
X139197Y197242D01*
X139272Y197171D01*
X139290Y197162D01*
X139305Y197149D01*
X139401Y197110D01*
X139495Y197067D01*
X139515Y197065D01*
X139533Y197057D01*
X139700Y197039D01*
X190500Y197039D01*
X190520Y197042D01*
G37*
D10*
X120650Y215300D03*
X196850Y307300D03*
X107950Y215300D03*
X133350Y215300D03*
X146050Y215300D03*
X184150Y307300D03*
X209550Y307300D03*
X222250Y307300D03*
X171450Y215300D03*
X209550Y215300D03*
X158750Y215300D03*
X184150Y215300D03*
X222250Y215300D03*
X196850Y215300D03*
X171450Y307300D03*
X158750Y307300D03*
X146050Y307300D03*
X133350Y307300D03*
X120650Y307300D03*
X107950Y307300D03*
D11*
X266700Y324000D03*
D12*
X266700Y304000D03*
X266700Y284000D03*
X266700Y264000D03*
X266700Y244000D03*
X266700Y224000D03*
D11*
X63500Y324000D03*
D12*
X63500Y304000D03*
X63500Y284000D03*
X63500Y264000D03*
X63500Y244000D03*
X63500Y224000D03*
D13*
X292100Y166240D02*
X292100Y153160D01*
X267100Y153160D02*
X267100Y166240D01*
X242100Y166240D02*
X242100Y153160D01*
X217100Y153160D02*
X217100Y166240D01*
X192100Y166240D02*
X192100Y153160D01*
X167100Y153160D02*
X167100Y166240D01*
X292100Y64640D02*
X292100Y51560D01*
X267100Y51560D02*
X267100Y64640D01*
X242100Y64640D02*
X242100Y51560D01*
X217100Y51560D02*
X217100Y64640D01*
X192100Y64640D02*
X192100Y51560D01*
X167100Y51560D02*
X167100Y64640D01*
X292100Y102360D02*
X292100Y115440D01*
X267100Y115440D02*
X267100Y102360D01*
X242100Y102360D02*
X242100Y115440D01*
X217100Y115440D02*
X217100Y102360D01*
X192100Y102360D02*
X192100Y115440D01*
X167100Y115440D02*
X167100Y102360D01*
D14*
X123190Y51750D03*
X123190Y64450D03*
X123190Y77150D03*
X123190Y89850D03*
X123190Y102550D03*
X123190Y115250D03*
X123190Y127950D03*
X123190Y140650D03*
X123190Y153350D03*
X123190Y166050D03*
X29210Y166050D03*
X29210Y153350D03*
X29210Y140650D03*
X29210Y127950D03*
X29210Y115250D03*
X29210Y102550D03*
X29210Y89850D03*
X29210Y77150D03*
X29210Y64450D03*
X29210Y51750D03*
D15*
X246500Y401000D03*
X261500Y401000D03*
X246500Y375600D03*
X261500Y375600D03*
D16*
X207400Y401000D03*
X224400Y401000D03*
X207400Y375600D03*
X224400Y375600D03*
D15*
X246500Y350200D03*
X261500Y350200D03*
D16*
X207400Y350200D03*
X224400Y350200D03*
D17*
X101600Y393380D02*
X101600Y408620D01*
X76200Y408620D02*
X76200Y393380D01*
X50800Y393380D02*
X50800Y408620D01*
X101600Y370520D02*
X101600Y355280D01*
X76200Y355280D02*
X76200Y370520D01*
X50800Y370520D02*
X50800Y355280D01*
D18*
X177800Y330200D03*
X165100Y330200D03*
X152400Y330200D03*
X152400Y342900D03*
X165100Y342900D03*
X177800Y342900D03*
X177800Y355600D03*
X165100Y355600D03*
X152400Y355600D03*
D19*
X206973Y350610D02*
X206973Y375492D01*
X206973Y350610D02*
X207400Y350200D01*
X206973Y375492D02*
X207400Y375600D01*
X206973Y378885D02*
X206973Y394719D01*
X206973Y400374D01*
X207400Y401000D01*
X206973Y378885D02*
X207400Y375600D01*
X48633Y102921D02*
X29406Y102921D01*
X29210Y102550D01*
X104052Y115362D02*
X122148Y115362D01*
X123190Y115250D01*
X193401Y394719D02*
X203580Y394719D01*
X206973Y394719D01*
D18*
X48633Y102921D03*
X104052Y115362D03*
X193401Y394719D03*
D19*
X178698Y197925D02*
X178698Y195663D01*
X66729Y83694D02*
X49764Y100659D01*
X48633Y102921D01*
D18*
X178698Y195663D03*
X66729Y83694D03*
D20*
X266916Y108576D02*
X266916Y58812D01*
X267100Y58100D01*
X266916Y108576D02*
X267100Y108900D01*
X266916Y109707D02*
X266916Y159471D01*
X267100Y159700D01*
X266916Y109707D02*
X267100Y108900D01*
X265785Y264654D02*
X265785Y270309D01*
X256737Y279357D01*
X256737Y288405D01*
X262392Y294060D01*
X270309Y294060D01*
X281619Y282750D01*
X281619Y174174D01*
X268047Y160602D01*
X266700Y264000D02*
X265785Y264654D01*
X268047Y160602D02*
X267100Y159700D01*
X101790Y363051D02*
X101790Y400374D01*
X101790Y363051D02*
X101600Y362900D01*
X101790Y400374D02*
X101600Y401000D01*
X28275Y115362D02*
X23751Y115362D01*
X15834Y123279D01*
X15834Y132327D01*
X18096Y134589D01*
X58812Y134589D01*
X61074Y132327D01*
X65598Y132327D01*
X71253Y137982D01*
X71253Y192270D01*
X53157Y210366D01*
X53157Y253344D01*
X63336Y263523D01*
X29210Y115250D02*
X28275Y115362D01*
X63336Y263523D02*
X63500Y264000D01*
X123279Y101790D02*
X128934Y101790D01*
X136851Y93873D01*
X136851Y85956D01*
X134589Y83694D01*
X111969Y83694D01*
X109707Y81432D01*
X109707Y73515D01*
X111969Y71253D01*
X133458Y71253D01*
X136851Y67860D01*
X136851Y61074D01*
X133458Y57681D01*
X104052Y57681D01*
X46371Y115362D01*
X30537Y115362D01*
X123190Y102550D02*
X123279Y101790D01*
X30537Y115362D02*
X29210Y115250D01*
X64467Y263523D02*
X107445Y306501D01*
X107950Y307300D01*
X64467Y263523D02*
X63500Y264000D01*
X166257Y32799D02*
X209235Y32799D01*
X166257Y32799D02*
X137982Y61074D01*
X136851Y61074D01*
D18*
X209235Y32799D03*
D19*
X222807Y216021D02*
X222807Y286143D01*
X254475Y317811D01*
X254475Y332514D01*
X257868Y335907D01*
X275964Y335907D01*
X304239Y307632D01*
X304239Y93873D01*
X279357Y68991D01*
X279357Y46371D01*
X272571Y39585D01*
X261261Y39585D01*
X243165Y57681D01*
X222250Y215300D02*
X222807Y216021D01*
X242100Y58100D02*
X243165Y57681D01*
X242034Y61074D02*
X242034Y108576D01*
X242100Y108900D01*
X242034Y61074D02*
X242100Y58100D01*
D20*
X261261Y387933D02*
X261261Y400374D01*
X261261Y387933D02*
X254475Y381147D01*
X254475Y370968D01*
X243165Y359658D01*
X218283Y359658D01*
X216021Y357396D01*
X216021Y343824D01*
X206973Y334776D01*
X132327Y277571D02*
X108576Y253820D01*
X108576Y216021D01*
X261261Y400374D02*
X261500Y401000D01*
X108576Y216021D02*
X107950Y215300D01*
X122148Y90480D02*
X91611Y90480D01*
X95004Y182091D02*
X95004Y202449D01*
X107445Y214890D01*
X122148Y90480D02*
X123190Y89850D01*
X107445Y214890D02*
X107950Y215300D01*
D18*
X206973Y334776D03*
X132327Y277571D03*
X91611Y90480D03*
X95004Y182091D03*
D20*
X110838Y128934D02*
X122148Y128934D01*
X110838Y128934D02*
X98397Y141375D01*
X98397Y168519D01*
X75777Y191139D01*
X75777Y197925D01*
X66729Y206973D01*
X33930Y227331D02*
X33930Y322335D01*
X64467Y352872D01*
X64467Y389064D01*
X75777Y400374D01*
X122148Y128934D02*
X123190Y127950D01*
X75777Y400374D02*
X76200Y401000D01*
D18*
X66729Y206973D03*
X33930Y227331D03*
D20*
X261261Y366444D02*
X261261Y375492D01*
X261261Y366444D02*
X254475Y359658D01*
X254475Y342693D01*
X222807Y311025D01*
X222807Y307632D01*
X261261Y375492D02*
X261500Y375600D01*
X222807Y307632D02*
X222250Y307300D01*
X122148Y141375D02*
X117624Y141375D01*
X109707Y149292D01*
X109707Y169650D01*
X121672Y181615D01*
X128934Y181615D01*
X197925Y255606D02*
X197925Y277095D01*
X221676Y300846D01*
X221676Y306501D01*
X122148Y141375D02*
X123190Y140650D01*
X221676Y306501D02*
X222250Y307300D01*
D18*
X128934Y181615D03*
X197925Y255606D03*
D20*
X262392Y350610D02*
X262392Y357396D01*
X268047Y363051D01*
X132327Y262392D02*
X132327Y245427D01*
X114231Y227331D01*
X114231Y180960D01*
X105183Y171912D01*
X105183Y141375D01*
X111969Y134589D01*
X134589Y134589D01*
X136851Y136851D01*
X136851Y144768D01*
X128934Y152685D01*
X123279Y152685D01*
X261500Y350200D02*
X262392Y350610D01*
X123190Y153350D02*
X123279Y152685D01*
D18*
X268047Y363051D03*
X132327Y262392D03*
D20*
X41847Y64467D02*
X29406Y64467D01*
X41847Y64467D02*
X48633Y71253D01*
X29406Y64467D02*
X29210Y64450D01*
D18*
X48633Y71253D03*
D20*
X35061Y50895D02*
X29406Y50895D01*
X35061Y50895D02*
X65598Y20358D01*
X213759Y20358D01*
X231855Y38454D01*
X231855Y128934D01*
X256737Y153816D01*
X256737Y200187D01*
X277095Y220545D01*
X277095Y273702D01*
X266916Y283881D01*
X29210Y51750D02*
X29406Y50895D01*
X266700Y284000D02*
X266916Y283881D01*
D19*
X132327Y214890D02*
X132327Y196794D01*
X142506Y186615D01*
X221676Y186615D01*
X254475Y219414D01*
X254475Y231855D01*
X265785Y243165D01*
X133350Y215300D02*
X132327Y214890D01*
X265785Y243165D02*
X266700Y244000D01*
X197925Y214890D02*
X197925Y204711D01*
X206973Y195663D01*
X217152Y195663D01*
X197925Y214890D02*
X196850Y215300D01*
D18*
X217152Y195663D03*
D20*
X40716Y89349D02*
X29406Y89349D01*
X40716Y89349D02*
X58812Y71253D01*
X58812Y43157D01*
X55895Y40240D01*
X29406Y89349D02*
X29210Y89850D01*
D18*
X55895Y40240D03*
D20*
X28275Y76908D02*
X23751Y76908D01*
X15834Y68991D01*
X15834Y59943D01*
X18096Y57681D01*
X48633Y57681D01*
X50895Y55419D01*
X48633Y148161D02*
X48633Y269178D01*
X63336Y283881D01*
X29210Y77150D02*
X28275Y76908D01*
X63336Y283881D02*
X63500Y284000D01*
D18*
X50895Y55419D03*
X48633Y148161D03*
D19*
X197925Y287274D02*
X197925Y306501D01*
X196850Y307300D01*
D18*
X197925Y287274D03*
D19*
X132327Y292929D02*
X132327Y306501D01*
X132327Y292929D02*
X64467Y225069D01*
X132327Y306501D02*
X133350Y307300D01*
X64467Y225069D02*
X63500Y224000D01*
D20*
X123279Y165126D02*
X161733Y165126D01*
X166257Y160602D01*
X123279Y165126D02*
X123190Y166050D01*
X166257Y160602D02*
X167100Y159700D01*
X141375Y50895D02*
X123279Y50895D01*
X141375Y50895D02*
X167388Y24882D01*
X211497Y24882D01*
X217152Y30537D01*
X217152Y57681D01*
X123279Y50895D02*
X123190Y51750D01*
X217100Y58100D02*
X217152Y57681D01*
X217152Y58812D02*
X217152Y108576D01*
X217100Y108900D01*
X217152Y58812D02*
X217100Y58100D01*
X217152Y109707D02*
X217152Y159471D01*
X217100Y159700D01*
X217152Y109707D02*
X217100Y108900D01*
X173043Y76908D02*
X123279Y76908D01*
X173043Y76908D02*
X191139Y58812D01*
X123279Y76908D02*
X123190Y77150D01*
X191139Y58812D02*
X192100Y58100D01*
X191139Y96135D02*
X191139Y108576D01*
X191139Y96135D02*
X173043Y78039D01*
X191139Y108576D02*
X192100Y108900D01*
X173043Y78039D02*
X173043Y76908D01*
X192270Y109707D02*
X192270Y159471D01*
X192100Y159700D01*
X192270Y109707D02*
X192100Y108900D01*
X67860Y127803D02*
X29406Y127803D01*
X67860Y127803D02*
X90480Y150423D01*
X90480Y162864D01*
X122148Y194532D02*
X122148Y213759D01*
X121017Y214890D01*
X29406Y127803D02*
X29210Y127950D01*
X121017Y214890D02*
X120650Y215300D01*
D18*
X90480Y162864D03*
X122148Y194532D03*
D20*
X63336Y140244D02*
X29406Y140244D01*
X197925Y232986D02*
X197925Y235248D01*
X197925Y232986D02*
X209235Y221676D01*
X209235Y216021D01*
X29406Y140244D02*
X29210Y140650D01*
X209235Y216021D02*
X209550Y215300D01*
D18*
X63336Y140244D03*
X197925Y235248D03*
D20*
X28275Y153816D02*
X23751Y153816D01*
X15834Y161733D01*
X15834Y389064D01*
X46371Y419601D01*
X158340Y419601D01*
X199056Y378885D01*
X199056Y323466D01*
X209235Y313287D01*
X209235Y307632D01*
X29210Y153350D02*
X28275Y153816D01*
X209235Y307632D02*
X209550Y307300D01*
X29406Y212628D02*
X29406Y166257D01*
X29406Y212628D02*
X44109Y227331D01*
X44109Y278226D01*
X59943Y294060D01*
X75777Y294060D01*
X104052Y322335D01*
X111969Y322335D01*
X119886Y314418D01*
X119886Y307632D01*
X29406Y166257D02*
X29210Y166050D01*
X119886Y307632D02*
X120650Y307300D01*
X225069Y401505D02*
X245427Y401505D01*
X246500Y401000D01*
X225069Y401505D02*
X224400Y401000D01*
X225069Y375492D02*
X245427Y375492D01*
X246500Y375600D01*
X225069Y375492D02*
X224400Y375600D01*
X225069Y350610D02*
X245427Y350610D01*
X246500Y350200D01*
X225069Y350610D02*
X224400Y350200D01*
X122148Y64467D02*
X107445Y64467D01*
X83694Y88218D01*
X83694Y92742D01*
X98397Y107445D01*
X110838Y107445D01*
X111969Y108576D01*
X136851Y108576D01*
X182091Y153816D01*
X182091Y170781D01*
X187746Y176436D01*
X226200Y176436D01*
X242034Y160602D01*
X123190Y64450D02*
X122148Y64467D01*
X242100Y159700D02*
X242034Y160602D01*
M02*
