M48
;GenerationSoftware,Autodesk,EAGLE,9.1.0*%
;CreationDate,2018-12-20T05:45:18Z*%
FMAT,2
ICI,OFF
METRIC,TZ,000.000
T6C0.350
T5C0.800
T4C0.813
T3C1.016
T2C2.500
%
G90
M71
T2
X32000Y2000
X32000Y42000
X2000Y2000
X2000Y42000
T3
X5080Y36290
X7620Y36290
X10160Y36290
X5080Y40100
X7620Y40100
X10160Y40100
T4
X6650Y24100
X6650Y32100
X6650Y30100
X6650Y28100
X6650Y26100
X26670Y32400
X26670Y30400
X26670Y28400
X26670Y26400
X26670Y24400
X26670Y22400
X6650Y22100
T5
X29210Y5810
X29210Y15970
X26710Y15970
X24210Y15970
X21710Y15970
X19210Y15970
X16710Y15970
X26710Y5810
X16710Y10890
X19210Y10890
X21710Y10890
X24210Y10890
X26710Y10890
X29210Y10890
X16710Y5810
X19210Y5810
X21710Y5810
X24210Y5810
T6
X17780Y33020
X17780Y34290
X16510Y34290
X15240Y34290
X15240Y33020
X16510Y33020
X10405Y11536
X8030Y11310
X14980Y27240
X15980Y27240
X14980Y26240
X6560Y16739
X8596Y16060
X26805Y13459
X8596Y12893
X4185Y27483
X6899Y20471
X9274Y18096
X20132Y28727
X20132Y24430
X14477Y18775
X17780Y35560
X18209Y19114
X24882Y23185
X7012Y12554
X5655Y12102
X19114Y28727
X11423Y32686
X6560Y14137
X12893Y17870
X6107Y17644
X7351Y18888
X4863Y10292
X15240Y35560
X16510Y35560
M30