G04 EAGLE Gerber X2 export*
%TF.Part,Single*%
%TF.FileFunction,Profile,NP*%
%TF.FilePolarity,Positive*%
%TF.GenerationSoftware,Autodesk,EAGLE,9.1.0*%
%TF.CreationDate,2018-12-20T05:45:18Z*%
G75*
%MOMM*%
%FSLAX34Y34*%
%LPD*%
%AMOC8*
5,1,8,0,0,1.08239X$1,22.5*%
G01*
%ADD10C,0.254000*%


D10*
X0Y0D02*
X336900Y0D01*
X336900Y439000D01*
X0Y439000D01*
X0Y0D01*
X32500Y419509D02*
X32423Y418530D01*
X32269Y417560D01*
X32040Y416604D01*
X31736Y415670D01*
X31361Y414763D01*
X30915Y413888D01*
X30401Y413050D01*
X29824Y412255D01*
X29186Y411508D01*
X28492Y410814D01*
X27745Y410176D01*
X26950Y409599D01*
X26112Y409085D01*
X25237Y408639D01*
X24330Y408264D01*
X23396Y407960D01*
X22441Y407731D01*
X21470Y407577D01*
X20491Y407500D01*
X19509Y407500D01*
X18530Y407577D01*
X17560Y407731D01*
X16604Y407960D01*
X15670Y408264D01*
X14763Y408639D01*
X13888Y409085D01*
X13050Y409599D01*
X12255Y410176D01*
X11508Y410814D01*
X10814Y411508D01*
X10176Y412255D01*
X9599Y413050D01*
X9085Y413888D01*
X8639Y414763D01*
X8264Y415670D01*
X7960Y416604D01*
X7731Y417560D01*
X7577Y418530D01*
X7500Y419509D01*
X7500Y420491D01*
X7577Y421470D01*
X7731Y422441D01*
X7960Y423396D01*
X8264Y424330D01*
X8639Y425237D01*
X9085Y426112D01*
X9599Y426950D01*
X10176Y427745D01*
X10814Y428492D01*
X11508Y429186D01*
X12255Y429824D01*
X13050Y430401D01*
X13888Y430915D01*
X14763Y431361D01*
X15670Y431736D01*
X16604Y432040D01*
X17560Y432269D01*
X18530Y432423D01*
X19509Y432500D01*
X20491Y432500D01*
X21470Y432423D01*
X22441Y432269D01*
X23396Y432040D01*
X24330Y431736D01*
X25237Y431361D01*
X26112Y430915D01*
X26950Y430401D01*
X27745Y429824D01*
X28492Y429186D01*
X29186Y428492D01*
X29824Y427745D01*
X30401Y426950D01*
X30915Y426112D01*
X31361Y425237D01*
X31736Y424330D01*
X32040Y423396D01*
X32269Y422441D01*
X32423Y421470D01*
X32500Y420491D01*
X32500Y419509D01*
X32500Y19509D02*
X32423Y18530D01*
X32269Y17560D01*
X32040Y16604D01*
X31736Y15670D01*
X31361Y14763D01*
X30915Y13888D01*
X30401Y13050D01*
X29824Y12255D01*
X29186Y11508D01*
X28492Y10814D01*
X27745Y10176D01*
X26950Y9599D01*
X26112Y9085D01*
X25237Y8639D01*
X24330Y8264D01*
X23396Y7960D01*
X22441Y7731D01*
X21470Y7577D01*
X20491Y7500D01*
X19509Y7500D01*
X18530Y7577D01*
X17560Y7731D01*
X16604Y7960D01*
X15670Y8264D01*
X14763Y8639D01*
X13888Y9085D01*
X13050Y9599D01*
X12255Y10176D01*
X11508Y10814D01*
X10814Y11508D01*
X10176Y12255D01*
X9599Y13050D01*
X9085Y13888D01*
X8639Y14763D01*
X8264Y15670D01*
X7960Y16604D01*
X7731Y17560D01*
X7577Y18530D01*
X7500Y19509D01*
X7500Y20491D01*
X7577Y21470D01*
X7731Y22441D01*
X7960Y23396D01*
X8264Y24330D01*
X8639Y25237D01*
X9085Y26112D01*
X9599Y26950D01*
X10176Y27745D01*
X10814Y28492D01*
X11508Y29186D01*
X12255Y29824D01*
X13050Y30401D01*
X13888Y30915D01*
X14763Y31361D01*
X15670Y31736D01*
X16604Y32040D01*
X17560Y32269D01*
X18530Y32423D01*
X19509Y32500D01*
X20491Y32500D01*
X21470Y32423D01*
X22441Y32269D01*
X23396Y32040D01*
X24330Y31736D01*
X25237Y31361D01*
X26112Y30915D01*
X26950Y30401D01*
X27745Y29824D01*
X28492Y29186D01*
X29186Y28492D01*
X29824Y27745D01*
X30401Y26950D01*
X30915Y26112D01*
X31361Y25237D01*
X31736Y24330D01*
X32040Y23396D01*
X32269Y22441D01*
X32423Y21470D01*
X32500Y20491D01*
X32500Y19509D01*
X332500Y419509D02*
X332423Y418530D01*
X332269Y417560D01*
X332040Y416604D01*
X331736Y415670D01*
X331361Y414763D01*
X330915Y413888D01*
X330401Y413050D01*
X329824Y412255D01*
X329186Y411508D01*
X328492Y410814D01*
X327745Y410176D01*
X326950Y409599D01*
X326112Y409085D01*
X325237Y408639D01*
X324330Y408264D01*
X323396Y407960D01*
X322441Y407731D01*
X321470Y407577D01*
X320491Y407500D01*
X319509Y407500D01*
X318530Y407577D01*
X317560Y407731D01*
X316604Y407960D01*
X315670Y408264D01*
X314763Y408639D01*
X313888Y409085D01*
X313050Y409599D01*
X312255Y410176D01*
X311508Y410814D01*
X310814Y411508D01*
X310176Y412255D01*
X309599Y413050D01*
X309085Y413888D01*
X308639Y414763D01*
X308264Y415670D01*
X307960Y416604D01*
X307731Y417560D01*
X307577Y418530D01*
X307500Y419509D01*
X307500Y420491D01*
X307577Y421470D01*
X307731Y422441D01*
X307960Y423396D01*
X308264Y424330D01*
X308639Y425237D01*
X309085Y426112D01*
X309599Y426950D01*
X310176Y427745D01*
X310814Y428492D01*
X311508Y429186D01*
X312255Y429824D01*
X313050Y430401D01*
X313888Y430915D01*
X314763Y431361D01*
X315670Y431736D01*
X316604Y432040D01*
X317560Y432269D01*
X318530Y432423D01*
X319509Y432500D01*
X320491Y432500D01*
X321470Y432423D01*
X322441Y432269D01*
X323396Y432040D01*
X324330Y431736D01*
X325237Y431361D01*
X326112Y430915D01*
X326950Y430401D01*
X327745Y429824D01*
X328492Y429186D01*
X329186Y428492D01*
X329824Y427745D01*
X330401Y426950D01*
X330915Y426112D01*
X331361Y425237D01*
X331736Y424330D01*
X332040Y423396D01*
X332269Y422441D01*
X332423Y421470D01*
X332500Y420491D01*
X332500Y419509D01*
X332500Y19509D02*
X332423Y18530D01*
X332269Y17560D01*
X332040Y16604D01*
X331736Y15670D01*
X331361Y14763D01*
X330915Y13888D01*
X330401Y13050D01*
X329824Y12255D01*
X329186Y11508D01*
X328492Y10814D01*
X327745Y10176D01*
X326950Y9599D01*
X326112Y9085D01*
X325237Y8639D01*
X324330Y8264D01*
X323396Y7960D01*
X322441Y7731D01*
X321470Y7577D01*
X320491Y7500D01*
X319509Y7500D01*
X318530Y7577D01*
X317560Y7731D01*
X316604Y7960D01*
X315670Y8264D01*
X314763Y8639D01*
X313888Y9085D01*
X313050Y9599D01*
X312255Y10176D01*
X311508Y10814D01*
X310814Y11508D01*
X310176Y12255D01*
X309599Y13050D01*
X309085Y13888D01*
X308639Y14763D01*
X308264Y15670D01*
X307960Y16604D01*
X307731Y17560D01*
X307577Y18530D01*
X307500Y19509D01*
X307500Y20491D01*
X307577Y21470D01*
X307731Y22441D01*
X307960Y23396D01*
X308264Y24330D01*
X308639Y25237D01*
X309085Y26112D01*
X309599Y26950D01*
X310176Y27745D01*
X310814Y28492D01*
X311508Y29186D01*
X312255Y29824D01*
X313050Y30401D01*
X313888Y30915D01*
X314763Y31361D01*
X315670Y31736D01*
X316604Y32040D01*
X317560Y32269D01*
X318530Y32423D01*
X319509Y32500D01*
X320491Y32500D01*
X321470Y32423D01*
X322441Y32269D01*
X323396Y32040D01*
X324330Y31736D01*
X325237Y31361D01*
X326112Y30915D01*
X326950Y30401D01*
X327745Y29824D01*
X328492Y29186D01*
X329186Y28492D01*
X329824Y27745D01*
X330401Y26950D01*
X330915Y26112D01*
X331361Y25237D01*
X331736Y24330D01*
X332040Y23396D01*
X332269Y22441D01*
X332423Y21470D01*
X332500Y20491D01*
X332500Y19509D01*
M02*
