G04 EAGLE Gerber X2 export*
%TF.Part,Single*%
%TF.FileFunction,Copper,L2,Bot,Mixed*%
%TF.FilePolarity,Positive*%
%TF.GenerationSoftware,Autodesk,EAGLE,9.1.0*%
%TF.CreationDate,2018-12-20T06:16:38Z*%
G75*
%MOMM*%
%FSLAX34Y34*%
%LPD*%
%AMOC8*
5,1,8,0,0,1.08239X$1,22.5*%
G01*
%ADD10R,1.320800X1.320800*%
%ADD11C,1.320800*%
%ADD12C,1.308000*%
%ADD13C,1.524000*%
%ADD14C,0.756400*%
%ADD15C,0.700000*%
%ADD16C,0.300000*%

G36*
X298454Y10168D02*
X298454Y10168D01*
X298500Y10166D01*
X298574Y10188D01*
X298651Y10200D01*
X298692Y10222D01*
X298736Y10235D01*
X298800Y10279D01*
X298869Y10316D01*
X298900Y10349D01*
X298938Y10375D01*
X298984Y10438D01*
X299038Y10494D01*
X299057Y10536D01*
X299085Y10572D01*
X299109Y10646D01*
X299142Y10717D01*
X299147Y10763D01*
X299161Y10806D01*
X299160Y10884D01*
X299169Y10961D01*
X299159Y11006D01*
X299159Y11052D01*
X299120Y11184D01*
X299116Y11202D01*
X299114Y11206D01*
X299112Y11213D01*
X297339Y15493D01*
X297339Y24507D01*
X300789Y32836D01*
X307164Y39211D01*
X315493Y42661D01*
X324507Y42661D01*
X325687Y42172D01*
X325731Y42162D01*
X325773Y42142D01*
X325850Y42134D01*
X325926Y42116D01*
X325972Y42120D01*
X326017Y42115D01*
X326094Y42132D01*
X326171Y42139D01*
X326213Y42158D01*
X326258Y42168D01*
X326325Y42208D01*
X326396Y42239D01*
X326430Y42270D01*
X326469Y42294D01*
X326520Y42353D01*
X326577Y42406D01*
X326599Y42446D01*
X326629Y42481D01*
X326658Y42553D01*
X326695Y42621D01*
X326704Y42666D01*
X326721Y42709D01*
X326736Y42845D01*
X326739Y42863D01*
X326738Y42868D01*
X326739Y42876D01*
X326739Y397124D01*
X326732Y397170D01*
X326734Y397216D01*
X326712Y397290D01*
X326700Y397367D01*
X326678Y397408D01*
X326665Y397452D01*
X326621Y397516D01*
X326584Y397585D01*
X326551Y397616D01*
X326525Y397654D01*
X326463Y397700D01*
X326406Y397754D01*
X326364Y397773D01*
X326328Y397801D01*
X326254Y397825D01*
X326183Y397858D01*
X326137Y397863D01*
X326094Y397877D01*
X326016Y397876D01*
X325939Y397885D01*
X325894Y397875D01*
X325848Y397874D01*
X325716Y397836D01*
X325698Y397832D01*
X325694Y397830D01*
X325687Y397828D01*
X324507Y397339D01*
X315493Y397339D01*
X307164Y400789D01*
X300789Y407164D01*
X297339Y415493D01*
X297339Y424507D01*
X298698Y427787D01*
X298708Y427831D01*
X298727Y427873D01*
X298736Y427950D01*
X298754Y428026D01*
X298749Y428072D01*
X298754Y428117D01*
X298738Y428194D01*
X298731Y428271D01*
X298712Y428313D01*
X298702Y428358D01*
X298662Y428425D01*
X298631Y428496D01*
X298600Y428530D01*
X298576Y428569D01*
X298517Y428620D01*
X298464Y428677D01*
X298424Y428699D01*
X298389Y428729D01*
X298317Y428758D01*
X298249Y428795D01*
X298204Y428804D01*
X298161Y428821D01*
X298025Y428836D01*
X298007Y428839D01*
X298002Y428838D01*
X297994Y428839D01*
X42006Y428839D01*
X41960Y428832D01*
X41915Y428834D01*
X41840Y428812D01*
X41763Y428800D01*
X41722Y428778D01*
X41678Y428765D01*
X41614Y428721D01*
X41546Y428684D01*
X41514Y428651D01*
X41476Y428625D01*
X41430Y428562D01*
X41376Y428506D01*
X41357Y428464D01*
X41330Y428428D01*
X41305Y428354D01*
X41273Y428283D01*
X41268Y428237D01*
X41253Y428194D01*
X41254Y428116D01*
X41246Y428039D01*
X41255Y427994D01*
X41256Y427948D01*
X41294Y427816D01*
X41298Y427798D01*
X41300Y427794D01*
X41302Y427787D01*
X42661Y424507D01*
X42661Y416688D01*
X42672Y416617D01*
X42674Y416546D01*
X42692Y416497D01*
X42700Y416445D01*
X42734Y416382D01*
X42759Y416315D01*
X42791Y416274D01*
X42816Y416228D01*
X42867Y416179D01*
X42912Y416122D01*
X42956Y416094D01*
X42994Y416058D01*
X43059Y416028D01*
X43119Y415990D01*
X43170Y415977D01*
X43217Y415955D01*
X43288Y415947D01*
X43358Y415929D01*
X43410Y415934D01*
X43461Y415928D01*
X43532Y415943D01*
X43603Y415949D01*
X43651Y415969D01*
X43702Y415980D01*
X43763Y416017D01*
X43829Y416045D01*
X43885Y416090D01*
X43913Y416106D01*
X43928Y416124D01*
X43960Y416150D01*
X44181Y416370D01*
X45475Y417310D01*
X46900Y418036D01*
X48421Y418531D01*
X49277Y418666D01*
X49277Y402523D01*
X40639Y402523D01*
X40639Y406785D01*
X40637Y406800D01*
X40638Y406811D01*
X40625Y406872D01*
X40623Y406882D01*
X40614Y406979D01*
X40604Y407002D01*
X40600Y407028D01*
X40554Y407114D01*
X40514Y407203D01*
X40497Y407222D01*
X40484Y407245D01*
X40414Y407312D01*
X40348Y407384D01*
X40325Y407397D01*
X40306Y407415D01*
X40218Y407456D01*
X40132Y407503D01*
X40107Y407507D01*
X40083Y407518D01*
X39986Y407529D01*
X39890Y407546D01*
X39864Y407543D01*
X39839Y407545D01*
X39743Y407525D01*
X39647Y407511D01*
X39624Y407499D01*
X39598Y407493D01*
X39514Y407443D01*
X39428Y407399D01*
X39409Y407380D01*
X39387Y407367D01*
X39324Y407293D01*
X39255Y407223D01*
X39240Y407195D01*
X39227Y407180D01*
X32836Y400789D01*
X24507Y397339D01*
X15493Y397339D01*
X11213Y399112D01*
X11169Y399122D01*
X11127Y399142D01*
X11050Y399150D01*
X10974Y399168D01*
X10928Y399164D01*
X10883Y399169D01*
X10806Y399152D01*
X10729Y399145D01*
X10687Y399126D01*
X10642Y399116D01*
X10575Y399076D01*
X10504Y399045D01*
X10470Y399014D01*
X10431Y398990D01*
X10380Y398931D01*
X10323Y398878D01*
X10301Y398838D01*
X10271Y398803D01*
X10242Y398731D01*
X10205Y398663D01*
X10197Y398620D01*
X10189Y398603D01*
X10188Y398598D01*
X10179Y398575D01*
X10164Y398439D01*
X10161Y398421D01*
X10162Y398416D01*
X10161Y398408D01*
X10161Y41592D01*
X10168Y41546D01*
X10166Y41500D01*
X10188Y41426D01*
X10200Y41349D01*
X10222Y41308D01*
X10235Y41264D01*
X10279Y41200D01*
X10316Y41131D01*
X10349Y41100D01*
X10375Y41062D01*
X10438Y41016D01*
X10494Y40962D01*
X10536Y40943D01*
X10572Y40915D01*
X10646Y40891D01*
X10717Y40858D01*
X10763Y40853D01*
X10806Y40839D01*
X10884Y40840D01*
X10961Y40831D01*
X11006Y40841D01*
X11052Y40841D01*
X11184Y40880D01*
X11202Y40884D01*
X11206Y40886D01*
X11213Y40888D01*
X15493Y42661D01*
X24507Y42661D01*
X32836Y39211D01*
X39211Y32836D01*
X42661Y24507D01*
X42661Y15493D01*
X40888Y11213D01*
X40878Y11169D01*
X40858Y11127D01*
X40850Y11050D01*
X40832Y10974D01*
X40836Y10928D01*
X40831Y10883D01*
X40848Y10806D01*
X40855Y10729D01*
X40874Y10687D01*
X40884Y10642D01*
X40924Y10575D01*
X40955Y10504D01*
X40986Y10470D01*
X41010Y10431D01*
X41069Y10380D01*
X41122Y10323D01*
X41162Y10301D01*
X41197Y10271D01*
X41269Y10242D01*
X41337Y10205D01*
X41382Y10196D01*
X41425Y10179D01*
X41561Y10164D01*
X41579Y10161D01*
X41584Y10162D01*
X41592Y10161D01*
X298408Y10161D01*
X298454Y10168D01*
G37*
%LPC*%
G36*
X78740Y105253D02*
X78740Y105253D01*
X75856Y106448D01*
X74092Y108212D01*
X73998Y108280D01*
X73903Y108350D01*
X73897Y108352D01*
X73892Y108356D01*
X73781Y108390D01*
X73669Y108427D01*
X73663Y108426D01*
X73657Y108428D01*
X73540Y108425D01*
X73423Y108424D01*
X73416Y108422D01*
X73411Y108422D01*
X73393Y108416D01*
X73262Y108377D01*
X71229Y107535D01*
X53181Y107535D01*
X51136Y108382D01*
X35998Y123520D01*
X35151Y125565D01*
X35151Y270342D01*
X35141Y270407D01*
X35140Y270472D01*
X35117Y270552D01*
X35112Y270585D01*
X35102Y270602D01*
X35093Y270633D01*
X34000Y273272D01*
X34000Y276394D01*
X35195Y279278D01*
X37402Y281485D01*
X40286Y282680D01*
X43408Y282680D01*
X46292Y281485D01*
X48499Y279278D01*
X49694Y276394D01*
X49694Y273272D01*
X48499Y270388D01*
X46504Y268393D01*
X46451Y268319D01*
X46391Y268249D01*
X46379Y268219D01*
X46360Y268193D01*
X46333Y268106D01*
X46299Y268021D01*
X46295Y267980D01*
X46288Y267958D01*
X46289Y267926D01*
X46281Y267854D01*
X46281Y257306D01*
X46292Y257236D01*
X46294Y257164D01*
X46312Y257115D01*
X46320Y257064D01*
X46354Y257000D01*
X46379Y256933D01*
X46411Y256892D01*
X46436Y256846D01*
X46488Y256797D01*
X46532Y256741D01*
X46576Y256713D01*
X46614Y256677D01*
X46679Y256647D01*
X46739Y256608D01*
X46790Y256595D01*
X46837Y256573D01*
X46908Y256565D01*
X46978Y256548D01*
X47030Y256552D01*
X47081Y256546D01*
X47152Y256561D01*
X47223Y256567D01*
X47271Y256587D01*
X47322Y256598D01*
X47383Y256635D01*
X47449Y256663D01*
X47505Y256708D01*
X47533Y256724D01*
X47548Y256742D01*
X47580Y256768D01*
X50594Y259782D01*
X52267Y261455D01*
X54312Y262302D01*
X55061Y262302D01*
X55151Y262316D01*
X55242Y262324D01*
X55271Y262336D01*
X55303Y262341D01*
X55344Y262363D01*
X55350Y262364D01*
X55375Y262379D01*
X55384Y262384D01*
X55468Y262420D01*
X55500Y262446D01*
X55521Y262457D01*
X55543Y262480D01*
X55561Y262491D01*
X55571Y262502D01*
X55599Y262525D01*
X55608Y262534D01*
X55652Y262594D01*
X55690Y262635D01*
X55697Y262649D01*
X55721Y262677D01*
X55733Y262708D01*
X55752Y262734D01*
X55779Y262821D01*
X55792Y262855D01*
X55794Y262858D01*
X55794Y262859D01*
X55813Y262906D01*
X55817Y262947D01*
X55824Y262969D01*
X55823Y263001D01*
X55831Y263072D01*
X55831Y263122D01*
X57455Y267043D01*
X60457Y270045D01*
X61065Y270297D01*
X61126Y270334D01*
X61192Y270364D01*
X61230Y270399D01*
X61274Y270426D01*
X61320Y270482D01*
X61373Y270530D01*
X61398Y270576D01*
X61431Y270616D01*
X61457Y270683D01*
X61492Y270746D01*
X61501Y270797D01*
X61520Y270845D01*
X61523Y270917D01*
X61535Y270988D01*
X61528Y271039D01*
X61530Y271091D01*
X61510Y271160D01*
X61500Y271231D01*
X61476Y271277D01*
X61461Y271327D01*
X61421Y271386D01*
X61388Y271450D01*
X61351Y271487D01*
X61321Y271529D01*
X61264Y271572D01*
X61212Y271622D01*
X61150Y271657D01*
X61124Y271676D01*
X61101Y271683D01*
X61065Y271703D01*
X60457Y271955D01*
X57455Y274957D01*
X55831Y278878D01*
X55831Y283122D01*
X57455Y287043D01*
X60457Y290045D01*
X61065Y290297D01*
X61126Y290334D01*
X61192Y290364D01*
X61230Y290399D01*
X61274Y290426D01*
X61320Y290482D01*
X61373Y290530D01*
X61398Y290576D01*
X61431Y290616D01*
X61457Y290683D01*
X61492Y290746D01*
X61501Y290797D01*
X61520Y290845D01*
X61523Y290917D01*
X61535Y290988D01*
X61528Y291039D01*
X61530Y291091D01*
X61510Y291160D01*
X61500Y291231D01*
X61476Y291277D01*
X61461Y291327D01*
X61421Y291386D01*
X61388Y291450D01*
X61351Y291487D01*
X61321Y291529D01*
X61264Y291572D01*
X61212Y291622D01*
X61150Y291657D01*
X61124Y291676D01*
X61101Y291683D01*
X61065Y291703D01*
X60457Y291955D01*
X57455Y294957D01*
X55831Y298878D01*
X55831Y303122D01*
X57455Y307043D01*
X60457Y310045D01*
X61065Y310297D01*
X61126Y310334D01*
X61192Y310364D01*
X61230Y310399D01*
X61274Y310426D01*
X61320Y310482D01*
X61373Y310530D01*
X61398Y310576D01*
X61431Y310616D01*
X61457Y310683D01*
X61492Y310746D01*
X61501Y310797D01*
X61520Y310845D01*
X61523Y310917D01*
X61535Y310988D01*
X61528Y311039D01*
X61530Y311091D01*
X61510Y311160D01*
X61500Y311231D01*
X61476Y311277D01*
X61461Y311327D01*
X61421Y311386D01*
X61388Y311450D01*
X61351Y311487D01*
X61321Y311529D01*
X61264Y311572D01*
X61212Y311622D01*
X61150Y311657D01*
X61124Y311676D01*
X61101Y311683D01*
X61065Y311703D01*
X60457Y311955D01*
X57455Y314957D01*
X55831Y318878D01*
X55831Y323122D01*
X57455Y327043D01*
X60457Y330045D01*
X64378Y331669D01*
X66180Y331669D01*
X66270Y331683D01*
X66361Y331691D01*
X66391Y331703D01*
X66423Y331708D01*
X66504Y331751D01*
X66588Y331787D01*
X66620Y331813D01*
X66640Y331824D01*
X66663Y331847D01*
X66719Y331892D01*
X68099Y333272D01*
X70879Y334424D01*
X111838Y334424D01*
X111903Y334434D01*
X111968Y334435D01*
X112048Y334458D01*
X112081Y334463D01*
X112098Y334473D01*
X112129Y334482D01*
X112670Y334706D01*
X115792Y334706D01*
X118676Y333511D01*
X120883Y331304D01*
X122078Y328420D01*
X122078Y325298D01*
X120883Y322414D01*
X118676Y320207D01*
X115792Y319012D01*
X112670Y319012D01*
X112129Y319236D01*
X112066Y319251D01*
X112005Y319276D01*
X111922Y319285D01*
X111890Y319292D01*
X111871Y319291D01*
X111838Y319294D01*
X77850Y319294D01*
X77735Y319275D01*
X77619Y319258D01*
X77613Y319256D01*
X77607Y319255D01*
X77504Y319200D01*
X77400Y319147D01*
X77395Y319142D01*
X77390Y319139D01*
X77310Y319055D01*
X77227Y318971D01*
X77224Y318965D01*
X77220Y318961D01*
X77213Y318944D01*
X77147Y318824D01*
X75545Y314957D01*
X72543Y311955D01*
X71935Y311703D01*
X71874Y311666D01*
X71808Y311636D01*
X71770Y311601D01*
X71725Y311574D01*
X71680Y311518D01*
X71627Y311470D01*
X71602Y311424D01*
X71569Y311384D01*
X71543Y311317D01*
X71508Y311254D01*
X71499Y311203D01*
X71480Y311155D01*
X71477Y311083D01*
X71465Y311012D01*
X71472Y310961D01*
X71470Y310909D01*
X71490Y310840D01*
X71500Y310769D01*
X71524Y310723D01*
X71539Y310673D01*
X71579Y310614D01*
X71612Y310550D01*
X71649Y310513D01*
X71679Y310471D01*
X71736Y310428D01*
X71788Y310378D01*
X71850Y310343D01*
X71876Y310324D01*
X71899Y310316D01*
X71935Y310297D01*
X72543Y310045D01*
X75545Y307043D01*
X77169Y303122D01*
X77169Y301420D01*
X77183Y301330D01*
X77191Y301239D01*
X77203Y301209D01*
X77208Y301177D01*
X77251Y301096D01*
X77287Y301012D01*
X77313Y300980D01*
X77324Y300960D01*
X77347Y300937D01*
X77392Y300881D01*
X83211Y295062D01*
X83285Y295009D01*
X83355Y294949D01*
X83385Y294937D01*
X83411Y294918D01*
X83498Y294891D01*
X83583Y294857D01*
X83624Y294853D01*
X83646Y294846D01*
X83678Y294847D01*
X83750Y294839D01*
X188746Y294839D01*
X188811Y294849D01*
X188876Y294850D01*
X188956Y294873D01*
X188989Y294878D01*
X189006Y294888D01*
X189037Y294897D01*
X189578Y295121D01*
X192700Y295121D01*
X195584Y293926D01*
X195690Y293820D01*
X195706Y293808D01*
X195719Y293793D01*
X195806Y293736D01*
X195890Y293676D01*
X195909Y293670D01*
X195926Y293660D01*
X196026Y293634D01*
X196125Y293604D01*
X196145Y293604D01*
X196164Y293599D01*
X196267Y293608D01*
X196371Y293610D01*
X196390Y293617D01*
X196410Y293619D01*
X196504Y293659D01*
X196602Y293695D01*
X196618Y293707D01*
X196636Y293715D01*
X196767Y293820D01*
X196873Y293926D01*
X199757Y295121D01*
X202879Y295121D01*
X205763Y293926D01*
X207970Y291719D01*
X209165Y288835D01*
X209165Y285713D01*
X207970Y282829D01*
X205763Y280622D01*
X202879Y279427D01*
X201656Y279427D01*
X201566Y279413D01*
X201475Y279405D01*
X201446Y279393D01*
X201414Y279388D01*
X201333Y279345D01*
X201249Y279309D01*
X201217Y279283D01*
X201196Y279272D01*
X201174Y279249D01*
X201118Y279204D01*
X100184Y178270D01*
X100146Y178217D01*
X100100Y178170D01*
X100059Y178097D01*
X100040Y178070D01*
X100034Y178052D01*
X100019Y178023D01*
X99394Y176515D01*
X97187Y174308D01*
X94303Y173113D01*
X91181Y173113D01*
X88297Y174308D01*
X86090Y176515D01*
X84895Y179399D01*
X84895Y180622D01*
X84881Y180712D01*
X84873Y180803D01*
X84861Y180832D01*
X84856Y180864D01*
X84813Y180945D01*
X84777Y181029D01*
X84751Y181061D01*
X84740Y181082D01*
X84717Y181104D01*
X84672Y181160D01*
X81322Y184510D01*
X81306Y184522D01*
X81293Y184538D01*
X81206Y184594D01*
X81122Y184654D01*
X81103Y184660D01*
X81086Y184671D01*
X80986Y184696D01*
X80887Y184726D01*
X80867Y184726D01*
X80848Y184731D01*
X80745Y184723D01*
X80641Y184720D01*
X80622Y184713D01*
X80603Y184712D01*
X80508Y184671D01*
X80410Y184635D01*
X80395Y184623D01*
X80376Y184615D01*
X80245Y184510D01*
X77960Y182225D01*
X75076Y181030D01*
X73853Y181030D01*
X73763Y181016D01*
X73672Y181008D01*
X73643Y180996D01*
X73611Y180991D01*
X73530Y180948D01*
X73446Y180912D01*
X73414Y180886D01*
X73393Y180875D01*
X73371Y180852D01*
X73315Y180807D01*
X69144Y176636D01*
X69099Y176574D01*
X69068Y176541D01*
X69062Y176529D01*
X69031Y176493D01*
X69019Y176462D01*
X69000Y176436D01*
X68973Y176349D01*
X68939Y176264D01*
X68935Y176223D01*
X68928Y176201D01*
X68929Y176169D01*
X68921Y176098D01*
X68921Y175014D01*
X68940Y174899D01*
X68957Y174783D01*
X68959Y174777D01*
X68960Y174771D01*
X69015Y174669D01*
X69068Y174563D01*
X69073Y174559D01*
X69076Y174553D01*
X69160Y174473D01*
X69244Y174391D01*
X69250Y174388D01*
X69254Y174384D01*
X69271Y174376D01*
X69391Y174310D01*
X70043Y174040D01*
X70907Y173176D01*
X70981Y173123D01*
X71051Y173063D01*
X71081Y173051D01*
X71107Y173032D01*
X71194Y173005D01*
X71279Y172971D01*
X71320Y172967D01*
X71342Y172960D01*
X71374Y172961D01*
X71446Y172953D01*
X80277Y172953D01*
X82322Y172106D01*
X83995Y170433D01*
X85756Y168672D01*
X85830Y168619D01*
X85899Y168559D01*
X85930Y168547D01*
X85956Y168528D01*
X86043Y168501D01*
X86128Y168467D01*
X86169Y168463D01*
X86191Y168456D01*
X86223Y168457D01*
X86294Y168449D01*
X87517Y168449D01*
X90401Y167254D01*
X92608Y165047D01*
X93803Y162163D01*
X93803Y159041D01*
X92608Y156157D01*
X90401Y153950D01*
X87517Y152755D01*
X84395Y152755D01*
X81511Y153950D01*
X79304Y156157D01*
X78109Y159041D01*
X78109Y160264D01*
X78095Y160354D01*
X78087Y160445D01*
X78075Y160474D01*
X78070Y160506D01*
X78027Y160587D01*
X77991Y160671D01*
X77965Y160703D01*
X77954Y160724D01*
X77931Y160746D01*
X77886Y160802D01*
X77088Y161600D01*
X77014Y161653D01*
X76945Y161713D01*
X76914Y161725D01*
X76888Y161744D01*
X76801Y161771D01*
X76716Y161805D01*
X76675Y161809D01*
X76653Y161816D01*
X76621Y161815D01*
X76550Y161823D01*
X71446Y161823D01*
X71355Y161809D01*
X71265Y161801D01*
X71235Y161789D01*
X71203Y161784D01*
X71122Y161741D01*
X71038Y161705D01*
X71006Y161679D01*
X70985Y161668D01*
X70963Y161645D01*
X70907Y161600D01*
X70043Y160736D01*
X67159Y159541D01*
X64037Y159541D01*
X61153Y160736D01*
X58946Y162943D01*
X57751Y165827D01*
X57751Y168810D01*
X57732Y168925D01*
X57715Y169041D01*
X57713Y169047D01*
X57712Y169053D01*
X57657Y169155D01*
X57604Y169261D01*
X57599Y169265D01*
X57596Y169271D01*
X57512Y169351D01*
X57428Y169433D01*
X57422Y169436D01*
X57418Y169440D01*
X57401Y169448D01*
X57281Y169514D01*
X56629Y169784D01*
X56628Y169785D01*
X56570Y169827D01*
X56518Y169876D01*
X56471Y169898D01*
X56429Y169928D01*
X56360Y169949D01*
X56295Y169980D01*
X56243Y169985D01*
X56194Y170001D01*
X56122Y169999D01*
X56051Y170007D01*
X56000Y169996D01*
X55948Y169994D01*
X55880Y169970D01*
X55810Y169954D01*
X55765Y169928D01*
X55717Y169910D01*
X55661Y169865D01*
X55599Y169828D01*
X55565Y169789D01*
X55525Y169756D01*
X55486Y169696D01*
X55439Y169641D01*
X55420Y169593D01*
X55392Y169549D01*
X55374Y169480D01*
X55347Y169413D01*
X55339Y169342D01*
X55331Y169311D01*
X55333Y169287D01*
X55329Y169247D01*
X55329Y149650D01*
X55343Y149560D01*
X55351Y149469D01*
X55363Y149440D01*
X55368Y149408D01*
X55411Y149327D01*
X55447Y149243D01*
X55473Y149211D01*
X55484Y149190D01*
X55507Y149168D01*
X55552Y149112D01*
X58357Y146307D01*
X58373Y146295D01*
X58385Y146280D01*
X58472Y146224D01*
X58556Y146164D01*
X58575Y146158D01*
X58592Y146147D01*
X58693Y146122D01*
X58791Y146091D01*
X58811Y146092D01*
X58831Y146087D01*
X58934Y146095D01*
X59037Y146098D01*
X59056Y146104D01*
X59076Y146106D01*
X59171Y146146D01*
X59268Y146182D01*
X59284Y146195D01*
X59302Y146202D01*
X59433Y146307D01*
X61153Y148027D01*
X64037Y149222D01*
X67159Y149222D01*
X70043Y148027D01*
X70907Y147163D01*
X70981Y147110D01*
X71051Y147050D01*
X71081Y147038D01*
X71107Y147019D01*
X71194Y146992D01*
X71279Y146958D01*
X71320Y146954D01*
X71342Y146947D01*
X71374Y146948D01*
X71446Y146940D01*
X88991Y146940D01*
X89081Y146954D01*
X89172Y146962D01*
X89201Y146974D01*
X89233Y146979D01*
X89314Y147022D01*
X89398Y147058D01*
X89430Y147084D01*
X89451Y147095D01*
X89473Y147118D01*
X89529Y147163D01*
X120864Y178498D01*
X120917Y178572D01*
X120977Y178641D01*
X120989Y178672D01*
X121008Y178698D01*
X121035Y178785D01*
X121069Y178870D01*
X121073Y178911D01*
X121080Y178933D01*
X121079Y178965D01*
X121087Y179036D01*
X121087Y180259D01*
X122282Y183143D01*
X124489Y185350D01*
X127373Y186545D01*
X130495Y186545D01*
X133379Y185350D01*
X135586Y183143D01*
X136781Y180259D01*
X136781Y179287D01*
X136792Y179217D01*
X136794Y179145D01*
X136812Y179096D01*
X136820Y179045D01*
X136854Y178981D01*
X136879Y178914D01*
X136911Y178873D01*
X136936Y178827D01*
X136987Y178778D01*
X137032Y178722D01*
X137076Y178694D01*
X137114Y178658D01*
X137179Y178628D01*
X137239Y178589D01*
X137290Y178576D01*
X137337Y178554D01*
X137408Y178546D01*
X137478Y178529D01*
X137530Y178533D01*
X137581Y178527D01*
X137652Y178542D01*
X137723Y178548D01*
X137771Y178568D01*
X137822Y178579D01*
X137883Y178616D01*
X137949Y178644D01*
X138005Y178689D01*
X138033Y178705D01*
X138048Y178723D01*
X138080Y178749D01*
X139836Y180505D01*
X139848Y180521D01*
X139863Y180533D01*
X139919Y180621D01*
X139979Y180704D01*
X139985Y180723D01*
X139996Y180740D01*
X140021Y180841D01*
X140052Y180939D01*
X140051Y180959D01*
X140056Y180979D01*
X140048Y181082D01*
X140045Y181185D01*
X140039Y181204D01*
X140037Y181224D01*
X139997Y181319D01*
X139961Y181416D01*
X139948Y181432D01*
X139941Y181450D01*
X139836Y181581D01*
X138116Y183301D01*
X136921Y186185D01*
X136921Y189307D01*
X138116Y192191D01*
X140323Y194398D01*
X143207Y195593D01*
X144430Y195593D01*
X144520Y195607D01*
X144611Y195615D01*
X144640Y195627D01*
X144672Y195632D01*
X144753Y195675D01*
X144837Y195711D01*
X144869Y195737D01*
X144890Y195748D01*
X144912Y195771D01*
X144968Y195816D01*
X193248Y244096D01*
X193291Y244156D01*
X193331Y244198D01*
X193338Y244213D01*
X193361Y244239D01*
X193373Y244270D01*
X193392Y244296D01*
X193419Y244383D01*
X193430Y244410D01*
X193435Y244421D01*
X193435Y244423D01*
X193453Y244468D01*
X193457Y244509D01*
X193464Y244531D01*
X193463Y244563D01*
X193471Y244634D01*
X193471Y245857D01*
X194666Y248741D01*
X196873Y250948D01*
X199757Y252143D01*
X202879Y252143D01*
X205763Y250948D01*
X207483Y249228D01*
X207499Y249216D01*
X207511Y249201D01*
X207599Y249145D01*
X207683Y249085D01*
X207702Y249079D01*
X207718Y249068D01*
X207819Y249043D01*
X207918Y249012D01*
X207938Y249013D01*
X207957Y249008D01*
X208060Y249016D01*
X208164Y249019D01*
X208182Y249025D01*
X208202Y249027D01*
X208297Y249067D01*
X208395Y249103D01*
X208410Y249116D01*
X208428Y249123D01*
X208559Y249228D01*
X243032Y283701D01*
X243078Y283765D01*
X243095Y283783D01*
X243098Y283790D01*
X243145Y283844D01*
X243157Y283875D01*
X243176Y283901D01*
X243203Y283988D01*
X243237Y284073D01*
X243241Y284114D01*
X243248Y284136D01*
X243247Y284168D01*
X243255Y284239D01*
X243255Y294036D01*
X244102Y296081D01*
X252454Y304433D01*
X254499Y305280D01*
X255248Y305280D01*
X255338Y305294D01*
X255429Y305302D01*
X255458Y305314D01*
X255490Y305319D01*
X255571Y305362D01*
X255655Y305398D01*
X255687Y305424D01*
X255708Y305435D01*
X255730Y305458D01*
X255755Y305478D01*
X255761Y305482D01*
X255764Y305485D01*
X255786Y305503D01*
X255808Y305525D01*
X255854Y305588D01*
X255877Y305613D01*
X255882Y305623D01*
X255921Y305668D01*
X255933Y305699D01*
X255952Y305725D01*
X255979Y305812D01*
X256013Y305897D01*
X256017Y305938D01*
X256024Y305960D01*
X256023Y305992D01*
X256031Y306063D01*
X256031Y306122D01*
X257655Y310043D01*
X260657Y313045D01*
X261492Y313391D01*
X261575Y313442D01*
X261661Y313488D01*
X261679Y313507D01*
X261701Y313520D01*
X261764Y313595D01*
X261831Y313666D01*
X261842Y313690D01*
X261858Y313710D01*
X261893Y313801D01*
X261934Y313889D01*
X261937Y313915D01*
X261947Y313939D01*
X261951Y314037D01*
X261961Y314133D01*
X261956Y314159D01*
X261957Y314185D01*
X261930Y314279D01*
X261909Y314374D01*
X261896Y314396D01*
X261888Y314421D01*
X261833Y314501D01*
X261783Y314585D01*
X261763Y314602D01*
X261748Y314623D01*
X261670Y314682D01*
X261596Y314745D01*
X261572Y314755D01*
X261551Y314770D01*
X261458Y314800D01*
X261368Y314837D01*
X261335Y314840D01*
X261317Y314846D01*
X261284Y314846D01*
X261201Y314855D01*
X259762Y314855D01*
X259115Y315028D01*
X258536Y315363D01*
X258063Y315836D01*
X257728Y316415D01*
X257555Y317062D01*
X257555Y322477D01*
X265938Y322477D01*
X265958Y322480D01*
X265977Y322478D01*
X266079Y322500D01*
X266181Y322517D01*
X266198Y322526D01*
X266218Y322530D01*
X266307Y322583D01*
X266398Y322632D01*
X266412Y322646D01*
X266429Y322656D01*
X266496Y322735D01*
X266567Y322810D01*
X266576Y322828D01*
X266589Y322843D01*
X266627Y322939D01*
X266671Y323033D01*
X266673Y323053D01*
X266681Y323071D01*
X266699Y323238D01*
X266699Y324001D01*
X266701Y324001D01*
X266701Y323238D01*
X266704Y323218D01*
X266702Y323199D01*
X266724Y323097D01*
X266741Y322995D01*
X266750Y322978D01*
X266754Y322958D01*
X266807Y322869D01*
X266856Y322778D01*
X266870Y322764D01*
X266880Y322747D01*
X266959Y322680D01*
X267034Y322609D01*
X267052Y322600D01*
X267067Y322587D01*
X267163Y322548D01*
X267257Y322505D01*
X267277Y322503D01*
X267295Y322495D01*
X267462Y322477D01*
X275845Y322477D01*
X275845Y317062D01*
X275672Y316415D01*
X275337Y315836D01*
X274864Y315363D01*
X274285Y315028D01*
X273638Y314855D01*
X272199Y314855D01*
X272103Y314840D01*
X272006Y314830D01*
X271982Y314820D01*
X271956Y314816D01*
X271870Y314770D01*
X271781Y314730D01*
X271762Y314713D01*
X271739Y314700D01*
X271672Y314630D01*
X271600Y314564D01*
X271587Y314541D01*
X271569Y314522D01*
X271528Y314434D01*
X271481Y314348D01*
X271477Y314323D01*
X271466Y314299D01*
X271455Y314202D01*
X271438Y314106D01*
X271442Y314080D01*
X271439Y314055D01*
X271459Y313960D01*
X271473Y313863D01*
X271485Y313840D01*
X271491Y313814D01*
X271541Y313730D01*
X271585Y313644D01*
X271604Y313626D01*
X271617Y313603D01*
X271691Y313540D01*
X271761Y313472D01*
X271789Y313456D01*
X271804Y313443D01*
X271835Y313431D01*
X271908Y313391D01*
X272743Y313045D01*
X275745Y310043D01*
X277369Y306122D01*
X277369Y301878D01*
X275745Y297957D01*
X272743Y294955D01*
X272135Y294703D01*
X272074Y294666D01*
X272008Y294636D01*
X271970Y294601D01*
X271926Y294574D01*
X271880Y294518D01*
X271827Y294470D01*
X271802Y294424D01*
X271769Y294384D01*
X271743Y294317D01*
X271708Y294254D01*
X271699Y294203D01*
X271680Y294155D01*
X271677Y294083D01*
X271665Y294012D01*
X271672Y293961D01*
X271670Y293909D01*
X271690Y293840D01*
X271700Y293769D01*
X271724Y293723D01*
X271739Y293673D01*
X271779Y293614D01*
X271812Y293550D01*
X271849Y293513D01*
X271879Y293471D01*
X271936Y293428D01*
X271988Y293378D01*
X272050Y293343D01*
X272076Y293324D01*
X272099Y293317D01*
X272135Y293297D01*
X272743Y293045D01*
X275745Y290043D01*
X277369Y286122D01*
X277369Y281878D01*
X275745Y277957D01*
X272743Y274955D01*
X272135Y274703D01*
X272074Y274666D01*
X272008Y274636D01*
X271970Y274601D01*
X271926Y274574D01*
X271880Y274518D01*
X271827Y274470D01*
X271802Y274424D01*
X271769Y274384D01*
X271743Y274317D01*
X271708Y274254D01*
X271699Y274203D01*
X271680Y274155D01*
X271677Y274083D01*
X271665Y274012D01*
X271672Y273961D01*
X271670Y273909D01*
X271690Y273840D01*
X271700Y273769D01*
X271724Y273723D01*
X271739Y273673D01*
X271779Y273614D01*
X271812Y273550D01*
X271849Y273513D01*
X271879Y273471D01*
X271936Y273428D01*
X271988Y273378D01*
X272050Y273343D01*
X272076Y273324D01*
X272099Y273317D01*
X272135Y273297D01*
X272743Y273045D01*
X275745Y270043D01*
X277369Y266122D01*
X277369Y261878D01*
X275745Y257957D01*
X272743Y254955D01*
X272135Y254703D01*
X272074Y254666D01*
X272008Y254636D01*
X271970Y254601D01*
X271926Y254574D01*
X271880Y254518D01*
X271827Y254470D01*
X271802Y254424D01*
X271769Y254384D01*
X271743Y254317D01*
X271708Y254254D01*
X271699Y254203D01*
X271680Y254155D01*
X271677Y254083D01*
X271665Y254012D01*
X271672Y253961D01*
X271670Y253909D01*
X271690Y253840D01*
X271700Y253769D01*
X271724Y253723D01*
X271739Y253673D01*
X271779Y253614D01*
X271812Y253550D01*
X271849Y253513D01*
X271879Y253471D01*
X271936Y253428D01*
X271988Y253378D01*
X272050Y253343D01*
X272076Y253324D01*
X272099Y253317D01*
X272135Y253297D01*
X272743Y253045D01*
X275745Y250043D01*
X277369Y246122D01*
X277369Y241878D01*
X275745Y237957D01*
X272743Y234955D01*
X272135Y234703D01*
X272074Y234666D01*
X272008Y234636D01*
X271970Y234601D01*
X271926Y234574D01*
X271880Y234518D01*
X271827Y234470D01*
X271802Y234424D01*
X271769Y234384D01*
X271743Y234317D01*
X271708Y234254D01*
X271699Y234203D01*
X271680Y234155D01*
X271677Y234083D01*
X271665Y234012D01*
X271672Y233961D01*
X271670Y233909D01*
X271690Y233840D01*
X271700Y233769D01*
X271724Y233723D01*
X271739Y233673D01*
X271779Y233614D01*
X271812Y233550D01*
X271849Y233513D01*
X271879Y233471D01*
X271936Y233428D01*
X271988Y233378D01*
X272050Y233343D01*
X272076Y233324D01*
X272099Y233317D01*
X272135Y233297D01*
X272743Y233045D01*
X275745Y230043D01*
X277369Y226122D01*
X277369Y221878D01*
X275745Y217957D01*
X272743Y214955D01*
X268822Y213331D01*
X264578Y213331D01*
X260657Y214955D01*
X257655Y217957D01*
X256031Y221878D01*
X256031Y223529D01*
X256028Y223549D01*
X256030Y223568D01*
X256008Y223670D01*
X255992Y223772D01*
X255982Y223789D01*
X255978Y223809D01*
X255925Y223898D01*
X255876Y223989D01*
X255862Y224003D01*
X255852Y224020D01*
X255773Y224087D01*
X255698Y224159D01*
X255680Y224167D01*
X255665Y224180D01*
X255569Y224219D01*
X255475Y224262D01*
X255455Y224264D01*
X255437Y224272D01*
X255270Y224290D01*
X251213Y224290D01*
X251148Y224280D01*
X251083Y224279D01*
X251003Y224256D01*
X250970Y224251D01*
X250953Y224241D01*
X250922Y224232D01*
X250381Y224008D01*
X247259Y224008D01*
X244375Y225203D01*
X242373Y227205D01*
X242357Y227217D01*
X242344Y227232D01*
X242257Y227289D01*
X242173Y227349D01*
X242154Y227355D01*
X242137Y227365D01*
X242037Y227391D01*
X241938Y227421D01*
X241918Y227421D01*
X241899Y227425D01*
X241796Y227417D01*
X241692Y227415D01*
X241673Y227408D01*
X241654Y227406D01*
X241559Y227366D01*
X241461Y227330D01*
X241445Y227318D01*
X241427Y227310D01*
X241296Y227205D01*
X201052Y186961D01*
X198817Y184726D01*
X196037Y183574D01*
X184484Y183574D01*
X184419Y183564D01*
X184354Y183563D01*
X184274Y183540D01*
X184241Y183535D01*
X184224Y183525D01*
X184193Y183516D01*
X183652Y183292D01*
X180530Y183292D01*
X177646Y184487D01*
X175439Y186694D01*
X174244Y189578D01*
X174244Y192700D01*
X175439Y195584D01*
X177646Y197791D01*
X180530Y198986D01*
X183652Y198986D01*
X184193Y198762D01*
X184256Y198747D01*
X184317Y198722D01*
X184400Y198713D01*
X184432Y198706D01*
X184451Y198707D01*
X184484Y198704D01*
X191083Y198704D01*
X191173Y198718D01*
X191264Y198726D01*
X191294Y198738D01*
X191326Y198743D01*
X191407Y198786D01*
X191491Y198822D01*
X191523Y198848D01*
X191543Y198859D01*
X191566Y198882D01*
X191622Y198927D01*
X240038Y247343D01*
X242273Y249578D01*
X245053Y250730D01*
X258027Y250730D01*
X258117Y250744D01*
X258208Y250752D01*
X258237Y250764D01*
X258269Y250769D01*
X258350Y250812D01*
X258434Y250848D01*
X258466Y250874D01*
X258487Y250885D01*
X258509Y250908D01*
X258565Y250953D01*
X260657Y253045D01*
X261265Y253297D01*
X261326Y253334D01*
X261392Y253364D01*
X261430Y253399D01*
X261475Y253426D01*
X261520Y253482D01*
X261573Y253530D01*
X261598Y253576D01*
X261631Y253616D01*
X261657Y253683D01*
X261692Y253746D01*
X261701Y253797D01*
X261720Y253845D01*
X261723Y253917D01*
X261735Y253988D01*
X261728Y254039D01*
X261730Y254091D01*
X261710Y254160D01*
X261700Y254231D01*
X261676Y254277D01*
X261661Y254327D01*
X261621Y254386D01*
X261588Y254450D01*
X261551Y254487D01*
X261521Y254529D01*
X261464Y254572D01*
X261412Y254622D01*
X261350Y254657D01*
X261324Y254676D01*
X261301Y254684D01*
X261265Y254703D01*
X260657Y254955D01*
X257655Y257957D01*
X256031Y261878D01*
X256031Y266122D01*
X257655Y270043D01*
X260657Y273045D01*
X261265Y273297D01*
X261326Y273334D01*
X261392Y273364D01*
X261430Y273399D01*
X261475Y273426D01*
X261520Y273482D01*
X261573Y273530D01*
X261598Y273576D01*
X261631Y273616D01*
X261657Y273683D01*
X261692Y273746D01*
X261701Y273797D01*
X261720Y273845D01*
X261723Y273917D01*
X261735Y273988D01*
X261728Y274039D01*
X261730Y274091D01*
X261710Y274160D01*
X261700Y274231D01*
X261676Y274277D01*
X261661Y274327D01*
X261621Y274386D01*
X261588Y274450D01*
X261551Y274487D01*
X261521Y274529D01*
X261464Y274572D01*
X261412Y274622D01*
X261350Y274657D01*
X261324Y274676D01*
X261301Y274684D01*
X261265Y274703D01*
X260657Y274955D01*
X257655Y277957D01*
X256031Y281878D01*
X256031Y286122D01*
X257655Y290043D01*
X260657Y293045D01*
X261265Y293297D01*
X261326Y293334D01*
X261392Y293364D01*
X261430Y293399D01*
X261475Y293426D01*
X261520Y293481D01*
X261573Y293530D01*
X261598Y293576D01*
X261631Y293616D01*
X261657Y293683D01*
X261692Y293746D01*
X261701Y293797D01*
X261720Y293845D01*
X261723Y293917D01*
X261735Y293988D01*
X261728Y294039D01*
X261730Y294091D01*
X261710Y294160D01*
X261700Y294231D01*
X261676Y294277D01*
X261661Y294327D01*
X261621Y294386D01*
X261588Y294450D01*
X261551Y294487D01*
X261521Y294529D01*
X261464Y294572D01*
X261412Y294622D01*
X261350Y294657D01*
X261324Y294676D01*
X261301Y294684D01*
X261265Y294703D01*
X261079Y294781D01*
X260990Y294801D01*
X260904Y294830D01*
X260871Y294829D01*
X260840Y294837D01*
X260749Y294828D01*
X260658Y294827D01*
X260618Y294816D01*
X260595Y294814D01*
X260565Y294800D01*
X260496Y294781D01*
X258975Y294150D01*
X258226Y294150D01*
X258136Y294136D01*
X258045Y294128D01*
X258016Y294116D01*
X257984Y294111D01*
X257903Y294068D01*
X257819Y294032D01*
X257787Y294006D01*
X257766Y293995D01*
X257744Y293972D01*
X257688Y293927D01*
X254608Y290847D01*
X254555Y290773D01*
X254519Y290732D01*
X254516Y290729D01*
X254516Y290728D01*
X254495Y290704D01*
X254483Y290673D01*
X254464Y290647D01*
X254437Y290560D01*
X254432Y290547D01*
X254413Y290506D01*
X254412Y290497D01*
X254403Y290475D01*
X254399Y290434D01*
X254392Y290412D01*
X254393Y290380D01*
X254385Y290309D01*
X254385Y280512D01*
X253538Y278467D01*
X88371Y113300D01*
X88318Y113226D01*
X88258Y113157D01*
X88246Y113126D01*
X88227Y113100D01*
X88200Y113013D01*
X88166Y112928D01*
X88162Y112887D01*
X88155Y112865D01*
X88156Y112833D01*
X88148Y112762D01*
X88148Y111539D01*
X86953Y108655D01*
X84746Y106448D01*
X81862Y105253D01*
X78740Y105253D01*
G37*
%LPD*%
G36*
X94668Y188758D02*
X94668Y188758D01*
X94785Y188767D01*
X94790Y188769D01*
X94797Y188770D01*
X94904Y188817D01*
X95011Y188863D01*
X95017Y188868D01*
X95021Y188870D01*
X95035Y188882D01*
X95142Y188968D01*
X184584Y278410D01*
X184626Y278468D01*
X184675Y278520D01*
X184697Y278567D01*
X184728Y278609D01*
X184749Y278678D01*
X184779Y278743D01*
X184785Y278795D01*
X184800Y278845D01*
X184798Y278916D01*
X184806Y278987D01*
X184795Y279038D01*
X184794Y279090D01*
X184769Y279158D01*
X184754Y279228D01*
X184727Y279272D01*
X184709Y279321D01*
X184664Y279377D01*
X184628Y279439D01*
X184588Y279473D01*
X184555Y279513D01*
X184495Y279552D01*
X184441Y279599D01*
X184392Y279618D01*
X184348Y279646D01*
X184279Y279664D01*
X184212Y279691D01*
X184141Y279699D01*
X184110Y279707D01*
X184087Y279705D01*
X184046Y279709D01*
X78796Y279709D01*
X78221Y279947D01*
X78177Y279958D01*
X78135Y279977D01*
X78058Y279986D01*
X77982Y280004D01*
X77936Y279999D01*
X77891Y280004D01*
X77814Y279988D01*
X77737Y279981D01*
X77695Y279962D01*
X77650Y279952D01*
X77583Y279912D01*
X77512Y279881D01*
X77478Y279849D01*
X77439Y279826D01*
X77388Y279767D01*
X77331Y279714D01*
X77309Y279674D01*
X77279Y279639D01*
X77250Y279567D01*
X77213Y279499D01*
X77204Y279453D01*
X77187Y279411D01*
X77172Y279275D01*
X77169Y279257D01*
X77170Y279252D01*
X77169Y279244D01*
X77169Y278878D01*
X75545Y274957D01*
X72543Y271955D01*
X71935Y271703D01*
X71874Y271666D01*
X71808Y271636D01*
X71770Y271601D01*
X71725Y271574D01*
X71680Y271518D01*
X71627Y271470D01*
X71602Y271424D01*
X71569Y271384D01*
X71543Y271317D01*
X71508Y271254D01*
X71499Y271203D01*
X71480Y271155D01*
X71477Y271083D01*
X71465Y271012D01*
X71472Y270961D01*
X71470Y270909D01*
X71490Y270840D01*
X71500Y270769D01*
X71524Y270723D01*
X71539Y270673D01*
X71579Y270614D01*
X71612Y270550D01*
X71649Y270513D01*
X71679Y270471D01*
X71736Y270428D01*
X71788Y270378D01*
X71850Y270343D01*
X71876Y270324D01*
X71899Y270316D01*
X71935Y270297D01*
X72543Y270045D01*
X75545Y267043D01*
X77169Y263122D01*
X77169Y258878D01*
X75545Y254957D01*
X72543Y251955D01*
X71935Y251703D01*
X71874Y251666D01*
X71808Y251636D01*
X71770Y251601D01*
X71725Y251574D01*
X71680Y251518D01*
X71627Y251470D01*
X71602Y251424D01*
X71569Y251384D01*
X71543Y251317D01*
X71508Y251254D01*
X71499Y251203D01*
X71480Y251155D01*
X71477Y251083D01*
X71465Y251012D01*
X71472Y250961D01*
X71470Y250909D01*
X71490Y250840D01*
X71500Y250769D01*
X71524Y250723D01*
X71539Y250673D01*
X71579Y250614D01*
X71612Y250550D01*
X71649Y250513D01*
X71679Y250471D01*
X71736Y250428D01*
X71788Y250378D01*
X71850Y250343D01*
X71876Y250324D01*
X71899Y250316D01*
X71935Y250297D01*
X72543Y250045D01*
X75545Y247043D01*
X77169Y243122D01*
X77169Y238878D01*
X75545Y234957D01*
X72543Y231955D01*
X71708Y231609D01*
X71625Y231558D01*
X71539Y231512D01*
X71521Y231493D01*
X71499Y231480D01*
X71436Y231405D01*
X71369Y231334D01*
X71358Y231310D01*
X71342Y231290D01*
X71307Y231199D01*
X71266Y231111D01*
X71263Y231085D01*
X71253Y231061D01*
X71249Y230963D01*
X71239Y230867D01*
X71244Y230841D01*
X71243Y230815D01*
X71270Y230721D01*
X71291Y230626D01*
X71304Y230604D01*
X71312Y230579D01*
X71367Y230499D01*
X71417Y230415D01*
X71437Y230398D01*
X71452Y230377D01*
X71530Y230318D01*
X71604Y230255D01*
X71628Y230245D01*
X71649Y230230D01*
X71742Y230200D01*
X71832Y230163D01*
X71865Y230160D01*
X71883Y230154D01*
X71916Y230154D01*
X71999Y230145D01*
X73438Y230145D01*
X74085Y229972D01*
X74664Y229637D01*
X75137Y229164D01*
X75472Y228585D01*
X75645Y227938D01*
X75645Y222523D01*
X67262Y222523D01*
X67242Y222520D01*
X67223Y222522D01*
X67121Y222500D01*
X67019Y222483D01*
X67002Y222474D01*
X66982Y222470D01*
X66893Y222417D01*
X66802Y222368D01*
X66788Y222354D01*
X66771Y222344D01*
X66704Y222265D01*
X66633Y222190D01*
X66624Y222172D01*
X66611Y222157D01*
X66573Y222061D01*
X66529Y221967D01*
X66527Y221947D01*
X66519Y221929D01*
X66501Y221762D01*
X66501Y220238D01*
X66502Y220230D01*
X66502Y220226D01*
X66504Y220217D01*
X66502Y220199D01*
X66524Y220097D01*
X66541Y219995D01*
X66550Y219978D01*
X66554Y219958D01*
X66607Y219869D01*
X66656Y219778D01*
X66670Y219764D01*
X66680Y219747D01*
X66759Y219680D01*
X66834Y219609D01*
X66852Y219600D01*
X66867Y219587D01*
X66963Y219548D01*
X67057Y219505D01*
X67077Y219503D01*
X67095Y219495D01*
X67262Y219477D01*
X75645Y219477D01*
X75645Y214062D01*
X75472Y213415D01*
X75137Y212836D01*
X74664Y212363D01*
X74111Y212043D01*
X74019Y211968D01*
X73926Y211894D01*
X73924Y211890D01*
X73920Y211888D01*
X73857Y211787D01*
X73793Y211687D01*
X73792Y211683D01*
X73790Y211679D01*
X73762Y211564D01*
X73733Y211448D01*
X73733Y211444D01*
X73732Y211440D01*
X73743Y211321D01*
X73752Y211203D01*
X73754Y211199D01*
X73754Y211195D01*
X73802Y211085D01*
X73848Y210977D01*
X73851Y210973D01*
X73853Y210970D01*
X73862Y210959D01*
X73953Y210846D01*
X75643Y209156D01*
X76838Y206272D01*
X76838Y205049D01*
X76852Y204959D01*
X76860Y204868D01*
X76872Y204839D01*
X76877Y204807D01*
X76898Y204767D01*
X76900Y204761D01*
X76917Y204731D01*
X76920Y204726D01*
X76956Y204642D01*
X76982Y204610D01*
X76993Y204589D01*
X77015Y204568D01*
X77026Y204550D01*
X77038Y204539D01*
X77061Y204511D01*
X92542Y189030D01*
X92616Y188977D01*
X92685Y188917D01*
X92716Y188905D01*
X92742Y188886D01*
X92829Y188859D01*
X92914Y188825D01*
X92955Y188821D01*
X92977Y188814D01*
X93009Y188815D01*
X93080Y188807D01*
X94303Y188807D01*
X94312Y188803D01*
X94426Y188776D01*
X94540Y188748D01*
X94546Y188748D01*
X94552Y188747D01*
X94668Y188758D01*
G37*
%LPC*%
G36*
X239991Y91755D02*
X239991Y91755D01*
X236093Y93370D01*
X233110Y96353D01*
X231495Y100251D01*
X231495Y117549D01*
X233110Y121447D01*
X236093Y124430D01*
X237521Y125022D01*
X237576Y125056D01*
X237637Y125082D01*
X237702Y125134D01*
X237730Y125151D01*
X237742Y125166D01*
X237768Y125187D01*
X237856Y125275D01*
X253583Y141002D01*
X256363Y142154D01*
X261635Y142154D01*
X263429Y141411D01*
X263517Y141390D01*
X263604Y141362D01*
X263637Y141362D01*
X263668Y141354D01*
X263759Y141363D01*
X263850Y141364D01*
X263890Y141375D01*
X263913Y141378D01*
X263943Y141391D01*
X264011Y141411D01*
X264185Y141482D01*
X264246Y141520D01*
X264311Y141549D01*
X264349Y141585D01*
X264394Y141612D01*
X264440Y141667D01*
X264492Y141716D01*
X264517Y141761D01*
X264551Y141801D01*
X264576Y141868D01*
X264611Y141931D01*
X264620Y141983D01*
X264639Y142031D01*
X264642Y142103D01*
X264655Y142173D01*
X264647Y142225D01*
X264649Y142277D01*
X264629Y142346D01*
X264619Y142417D01*
X264595Y142463D01*
X264581Y142513D01*
X264540Y142572D01*
X264507Y142636D01*
X264470Y142672D01*
X264440Y142715D01*
X264383Y142758D01*
X264332Y142808D01*
X264269Y142843D01*
X264243Y142862D01*
X264221Y142869D01*
X264185Y142889D01*
X261093Y144170D01*
X258110Y147153D01*
X256495Y151051D01*
X256495Y168349D01*
X258110Y172247D01*
X261093Y175230D01*
X264991Y176845D01*
X269209Y176845D01*
X273107Y175230D01*
X276090Y172247D01*
X277705Y168349D01*
X277705Y151051D01*
X276090Y147153D01*
X273107Y144170D01*
X270962Y143281D01*
X270901Y143244D01*
X270836Y143214D01*
X270797Y143179D01*
X270753Y143152D01*
X270707Y143097D01*
X270655Y143048D01*
X270630Y143002D01*
X270596Y142962D01*
X270571Y142895D01*
X270536Y142832D01*
X270527Y142781D01*
X270508Y142733D01*
X270505Y142661D01*
X270492Y142590D01*
X270500Y142539D01*
X270498Y142487D01*
X270518Y142418D01*
X270528Y142347D01*
X270552Y142301D01*
X270566Y142251D01*
X270607Y142192D01*
X270640Y142128D01*
X270677Y142091D01*
X270707Y142049D01*
X270764Y142006D01*
X270815Y141956D01*
X270878Y141921D01*
X270904Y141902D01*
X270926Y141895D01*
X270962Y141875D01*
X272492Y141241D01*
X274699Y139034D01*
X275894Y136150D01*
X275894Y133028D01*
X274699Y130144D01*
X272492Y127937D01*
X271951Y127713D01*
X271895Y127678D01*
X271835Y127653D01*
X271770Y127601D01*
X271742Y127583D01*
X271729Y127568D01*
X271704Y127548D01*
X271201Y127045D01*
X270696Y126836D01*
X270635Y126798D01*
X270569Y126769D01*
X270531Y126734D01*
X270487Y126706D01*
X270441Y126651D01*
X270388Y126602D01*
X270363Y126557D01*
X270330Y126517D01*
X270304Y126450D01*
X270270Y126387D01*
X270260Y126336D01*
X270242Y126287D01*
X270239Y126215D01*
X270226Y126145D01*
X270234Y126093D01*
X270231Y126041D01*
X270251Y125972D01*
X270262Y125901D01*
X270285Y125855D01*
X270300Y125805D01*
X270341Y125746D01*
X270373Y125682D01*
X270410Y125646D01*
X270440Y125603D01*
X270498Y125560D01*
X270549Y125510D01*
X270612Y125475D01*
X270637Y125456D01*
X270660Y125449D01*
X270696Y125429D01*
X273107Y124430D01*
X276090Y121447D01*
X277705Y117549D01*
X277705Y100251D01*
X276090Y96353D01*
X273107Y93370D01*
X269209Y91755D01*
X264991Y91755D01*
X261093Y93370D01*
X258110Y96353D01*
X256495Y100251D01*
X256495Y117549D01*
X258110Y121447D01*
X261095Y124432D01*
X261172Y124480D01*
X261258Y124526D01*
X261276Y124545D01*
X261298Y124558D01*
X261360Y124633D01*
X261427Y124704D01*
X261438Y124728D01*
X261455Y124748D01*
X261490Y124839D01*
X261531Y124927D01*
X261534Y124953D01*
X261543Y124977D01*
X261547Y125075D01*
X261558Y125171D01*
X261553Y125197D01*
X261554Y125223D01*
X261527Y125316D01*
X261506Y125412D01*
X261492Y125434D01*
X261485Y125459D01*
X261430Y125539D01*
X261380Y125623D01*
X261360Y125640D01*
X261345Y125661D01*
X261267Y125720D01*
X261193Y125783D01*
X261169Y125793D01*
X261148Y125808D01*
X261055Y125838D01*
X260965Y125875D01*
X260932Y125878D01*
X260914Y125884D01*
X260881Y125884D01*
X260798Y125893D01*
X260186Y125893D01*
X260096Y125879D01*
X260005Y125871D01*
X259975Y125859D01*
X259943Y125854D01*
X259862Y125811D01*
X259778Y125775D01*
X259746Y125749D01*
X259726Y125738D01*
X259705Y125717D01*
X259703Y125716D01*
X259699Y125711D01*
X259647Y125670D01*
X252719Y118742D01*
X252651Y118648D01*
X252581Y118554D01*
X252579Y118548D01*
X252576Y118542D01*
X252542Y118431D01*
X252505Y118320D01*
X252505Y118313D01*
X252503Y118307D01*
X252506Y118191D01*
X252508Y118074D01*
X252510Y118066D01*
X252510Y118062D01*
X252516Y118044D01*
X252554Y117913D01*
X252705Y117549D01*
X252705Y100251D01*
X251090Y96353D01*
X248107Y93370D01*
X244209Y91755D01*
X239991Y91755D01*
G37*
%LPD*%
%LPC*%
G36*
X99276Y343595D02*
X99276Y343595D01*
X94981Y345374D01*
X91694Y348661D01*
X89915Y352956D01*
X89915Y372844D01*
X91694Y377139D01*
X94981Y380426D01*
X96963Y381247D01*
X97024Y381285D01*
X97089Y381314D01*
X97128Y381349D01*
X97172Y381376D01*
X97218Y381432D01*
X97270Y381480D01*
X97296Y381526D01*
X97329Y381566D01*
X97354Y381633D01*
X97389Y381696D01*
X97398Y381747D01*
X97417Y381795D01*
X97420Y381867D01*
X97433Y381938D01*
X97425Y381989D01*
X97427Y382041D01*
X97407Y382110D01*
X97397Y382181D01*
X97373Y382227D01*
X97359Y382277D01*
X97318Y382336D01*
X97285Y382400D01*
X97248Y382437D01*
X97219Y382479D01*
X97161Y382522D01*
X97110Y382572D01*
X97047Y382607D01*
X97021Y382626D01*
X96999Y382633D01*
X96963Y382653D01*
X94981Y383474D01*
X91694Y386761D01*
X89915Y391056D01*
X89915Y410944D01*
X91694Y415239D01*
X94981Y418526D01*
X99276Y420305D01*
X103924Y420305D01*
X108219Y418526D01*
X111506Y415239D01*
X113285Y410944D01*
X113285Y391056D01*
X111506Y386761D01*
X108219Y383474D01*
X106237Y382653D01*
X106176Y382615D01*
X106111Y382586D01*
X106072Y382551D01*
X106028Y382524D01*
X105982Y382468D01*
X105930Y382420D01*
X105904Y382374D01*
X105871Y382334D01*
X105846Y382267D01*
X105811Y382204D01*
X105802Y382153D01*
X105783Y382105D01*
X105780Y382033D01*
X105767Y381962D01*
X105775Y381911D01*
X105773Y381859D01*
X105793Y381790D01*
X105803Y381719D01*
X105827Y381673D01*
X105841Y381623D01*
X105882Y381564D01*
X105915Y381500D01*
X105952Y381463D01*
X105981Y381421D01*
X106039Y381378D01*
X106090Y381328D01*
X106153Y381293D01*
X106179Y381274D01*
X106201Y381267D01*
X106237Y381247D01*
X108219Y380426D01*
X111506Y377139D01*
X113285Y372844D01*
X113285Y352956D01*
X111506Y348661D01*
X108219Y345374D01*
X103924Y343595D01*
X99276Y343595D01*
G37*
%LPD*%
%LPC*%
G36*
X73876Y343595D02*
X73876Y343595D01*
X69581Y345374D01*
X66294Y348661D01*
X64515Y352956D01*
X64515Y372844D01*
X66294Y377139D01*
X69581Y380426D01*
X71563Y381247D01*
X71624Y381285D01*
X71689Y381314D01*
X71728Y381349D01*
X71772Y381376D01*
X71818Y381432D01*
X71870Y381480D01*
X71896Y381526D01*
X71929Y381566D01*
X71954Y381633D01*
X71989Y381696D01*
X71998Y381747D01*
X72017Y381795D01*
X72020Y381867D01*
X72033Y381938D01*
X72025Y381989D01*
X72027Y382041D01*
X72007Y382110D01*
X71997Y382181D01*
X71973Y382227D01*
X71959Y382277D01*
X71918Y382336D01*
X71885Y382400D01*
X71848Y382437D01*
X71819Y382479D01*
X71761Y382522D01*
X71710Y382572D01*
X71647Y382607D01*
X71621Y382626D01*
X71599Y382633D01*
X71563Y382653D01*
X69581Y383474D01*
X66294Y386761D01*
X64515Y391056D01*
X64515Y410944D01*
X66294Y415239D01*
X69581Y418526D01*
X73876Y420305D01*
X78524Y420305D01*
X82819Y418526D01*
X86106Y415239D01*
X87885Y410944D01*
X87885Y391056D01*
X86106Y386761D01*
X82819Y383474D01*
X80837Y382653D01*
X80776Y382615D01*
X80711Y382586D01*
X80672Y382551D01*
X80628Y382524D01*
X80582Y382468D01*
X80530Y382420D01*
X80504Y382374D01*
X80471Y382334D01*
X80446Y382267D01*
X80411Y382204D01*
X80402Y382153D01*
X80383Y382105D01*
X80380Y382033D01*
X80367Y381962D01*
X80375Y381911D01*
X80373Y381859D01*
X80393Y381790D01*
X80403Y381719D01*
X80427Y381673D01*
X80441Y381623D01*
X80482Y381564D01*
X80515Y381500D01*
X80552Y381463D01*
X80581Y381421D01*
X80639Y381378D01*
X80690Y381328D01*
X80753Y381293D01*
X80779Y381274D01*
X80801Y381267D01*
X80837Y381247D01*
X82819Y380426D01*
X86106Y377139D01*
X87885Y372844D01*
X87885Y352956D01*
X86106Y348661D01*
X82819Y345374D01*
X78524Y343595D01*
X73876Y343595D01*
G37*
%LPD*%
%LPC*%
G36*
X239991Y142555D02*
X239991Y142555D01*
X236093Y144170D01*
X233110Y147153D01*
X231495Y151051D01*
X231495Y168349D01*
X233110Y172247D01*
X236093Y175230D01*
X239991Y176845D01*
X244209Y176845D01*
X248107Y175230D01*
X251090Y172247D01*
X252705Y168349D01*
X252705Y151051D01*
X251090Y147153D01*
X248107Y144170D01*
X244209Y142555D01*
X239991Y142555D01*
G37*
%LPD*%
%LPC*%
G36*
X214991Y142555D02*
X214991Y142555D01*
X211093Y144170D01*
X208110Y147153D01*
X206495Y151051D01*
X206495Y168349D01*
X208110Y172247D01*
X211093Y175230D01*
X214991Y176845D01*
X219209Y176845D01*
X223107Y175230D01*
X226090Y172247D01*
X227705Y168349D01*
X227705Y151051D01*
X226090Y147153D01*
X223107Y144170D01*
X219209Y142555D01*
X214991Y142555D01*
G37*
%LPD*%
%LPC*%
G36*
X189991Y142555D02*
X189991Y142555D01*
X186093Y144170D01*
X183110Y147153D01*
X181495Y151051D01*
X181495Y168349D01*
X183110Y172247D01*
X186093Y175230D01*
X189991Y176845D01*
X194209Y176845D01*
X198107Y175230D01*
X201090Y172247D01*
X202705Y168349D01*
X202705Y151051D01*
X201090Y147153D01*
X198107Y144170D01*
X194209Y142555D01*
X189991Y142555D01*
G37*
%LPD*%
%LPC*%
G36*
X164991Y142555D02*
X164991Y142555D01*
X161093Y144170D01*
X158110Y147153D01*
X156495Y151051D01*
X156495Y168349D01*
X158110Y172247D01*
X161093Y175230D01*
X164991Y176845D01*
X169209Y176845D01*
X173107Y175230D01*
X176090Y172247D01*
X177705Y168349D01*
X177705Y151051D01*
X176090Y147153D01*
X173107Y144170D01*
X169209Y142555D01*
X164991Y142555D01*
G37*
%LPD*%
%LPC*%
G36*
X189991Y40955D02*
X189991Y40955D01*
X186093Y42570D01*
X183110Y45553D01*
X181495Y49451D01*
X181495Y66749D01*
X183110Y70647D01*
X186093Y73630D01*
X189991Y75245D01*
X194209Y75245D01*
X198107Y73630D01*
X201090Y70647D01*
X202705Y66749D01*
X202705Y49451D01*
X201090Y45553D01*
X198107Y42570D01*
X194209Y40955D01*
X189991Y40955D01*
G37*
%LPD*%
%LPC*%
G36*
X214991Y40955D02*
X214991Y40955D01*
X211093Y42570D01*
X208110Y45553D01*
X206495Y49451D01*
X206495Y66749D01*
X208110Y70647D01*
X211093Y73630D01*
X214991Y75245D01*
X219209Y75245D01*
X223107Y73630D01*
X226090Y70647D01*
X227705Y66749D01*
X227705Y49451D01*
X226090Y45553D01*
X223107Y42570D01*
X219209Y40955D01*
X214991Y40955D01*
G37*
%LPD*%
%LPC*%
G36*
X214991Y91755D02*
X214991Y91755D01*
X211093Y93370D01*
X208110Y96353D01*
X206495Y100251D01*
X206495Y117549D01*
X208110Y121447D01*
X211093Y124430D01*
X214991Y126045D01*
X219209Y126045D01*
X223107Y124430D01*
X226090Y121447D01*
X227705Y117549D01*
X227705Y100251D01*
X226090Y96353D01*
X223107Y93370D01*
X219209Y91755D01*
X214991Y91755D01*
G37*
%LPD*%
%LPC*%
G36*
X189991Y91755D02*
X189991Y91755D01*
X186093Y93370D01*
X183110Y96353D01*
X181495Y100251D01*
X181495Y117549D01*
X183110Y121447D01*
X186093Y124430D01*
X189991Y126045D01*
X194209Y126045D01*
X198107Y124430D01*
X201090Y121447D01*
X202705Y117549D01*
X202705Y100251D01*
X201090Y96353D01*
X198107Y93370D01*
X194209Y91755D01*
X189991Y91755D01*
G37*
%LPD*%
%LPC*%
G36*
X164991Y91755D02*
X164991Y91755D01*
X161093Y93370D01*
X158110Y96353D01*
X156495Y100251D01*
X156495Y117549D01*
X158110Y121447D01*
X161093Y124430D01*
X164991Y126045D01*
X169209Y126045D01*
X173107Y124430D01*
X176090Y121447D01*
X177705Y117549D01*
X177705Y100251D01*
X176090Y96353D01*
X173107Y93370D01*
X169209Y91755D01*
X164991Y91755D01*
G37*
%LPD*%
%LPC*%
G36*
X239991Y40955D02*
X239991Y40955D01*
X236093Y42570D01*
X233110Y45553D01*
X231495Y49451D01*
X231495Y66749D01*
X233110Y70647D01*
X236093Y73630D01*
X239991Y75245D01*
X244209Y75245D01*
X248107Y73630D01*
X251090Y70647D01*
X252705Y66749D01*
X252705Y49451D01*
X251090Y45553D01*
X248107Y42570D01*
X244209Y40955D01*
X239991Y40955D01*
G37*
%LPD*%
%LPC*%
G36*
X264991Y40955D02*
X264991Y40955D01*
X261093Y42570D01*
X258110Y45553D01*
X256495Y49451D01*
X256495Y66749D01*
X258110Y70647D01*
X261093Y73630D01*
X264991Y75245D01*
X269209Y75245D01*
X273107Y73630D01*
X276090Y70647D01*
X277705Y66749D01*
X277705Y49451D01*
X276090Y45553D01*
X273107Y42570D01*
X269209Y40955D01*
X264991Y40955D01*
G37*
%LPD*%
%LPC*%
G36*
X164991Y40955D02*
X164991Y40955D01*
X161093Y42570D01*
X158110Y45553D01*
X156495Y49451D01*
X156495Y66749D01*
X158110Y70647D01*
X161093Y73630D01*
X164991Y75245D01*
X169209Y75245D01*
X173107Y73630D01*
X176090Y70647D01*
X177705Y66749D01*
X177705Y49451D01*
X176090Y45553D01*
X173107Y42570D01*
X169209Y40955D01*
X164991Y40955D01*
G37*
%LPD*%
G36*
X56200Y182880D02*
X56200Y182880D01*
X56271Y182886D01*
X56319Y182906D01*
X56370Y182918D01*
X56431Y182954D01*
X56497Y182982D01*
X56553Y183027D01*
X56581Y183044D01*
X56596Y183061D01*
X56628Y183087D01*
X56629Y183088D01*
X59513Y184283D01*
X60736Y184283D01*
X60826Y184297D01*
X60917Y184305D01*
X60946Y184317D01*
X60978Y184322D01*
X61059Y184365D01*
X61143Y184401D01*
X61175Y184427D01*
X61196Y184438D01*
X61218Y184461D01*
X61274Y184506D01*
X65445Y188677D01*
X65498Y188751D01*
X65558Y188820D01*
X65570Y188851D01*
X65589Y188877D01*
X65616Y188964D01*
X65650Y189049D01*
X65654Y189090D01*
X65661Y189112D01*
X65660Y189144D01*
X65668Y189215D01*
X65668Y190438D01*
X66863Y193322D01*
X69106Y195565D01*
X69148Y195623D01*
X69197Y195675D01*
X69219Y195722D01*
X69249Y195764D01*
X69270Y195833D01*
X69301Y195898D01*
X69306Y195950D01*
X69322Y196000D01*
X69320Y196071D01*
X69328Y196142D01*
X69317Y196193D01*
X69315Y196245D01*
X69291Y196313D01*
X69275Y196383D01*
X69249Y196428D01*
X69231Y196476D01*
X69186Y196532D01*
X69149Y196594D01*
X69110Y196628D01*
X69077Y196668D01*
X69017Y196707D01*
X68962Y196754D01*
X68914Y196773D01*
X68870Y196801D01*
X68801Y196819D01*
X68734Y196846D01*
X68663Y196854D01*
X68632Y196862D01*
X68608Y196860D01*
X68568Y196864D01*
X67430Y196864D01*
X64546Y198059D01*
X62339Y200266D01*
X61144Y203150D01*
X61144Y206272D01*
X62339Y209156D01*
X63739Y210556D01*
X63781Y210614D01*
X63830Y210666D01*
X63852Y210713D01*
X63882Y210755D01*
X63903Y210824D01*
X63934Y210889D01*
X63939Y210941D01*
X63955Y210991D01*
X63953Y211062D01*
X63961Y211133D01*
X63950Y211184D01*
X63948Y211236D01*
X63924Y211304D01*
X63908Y211374D01*
X63882Y211418D01*
X63864Y211467D01*
X63819Y211523D01*
X63782Y211585D01*
X63743Y211619D01*
X63710Y211659D01*
X63650Y211698D01*
X63595Y211745D01*
X63547Y211764D01*
X63503Y211792D01*
X63434Y211810D01*
X63367Y211837D01*
X63296Y211845D01*
X63265Y211853D01*
X63241Y211851D01*
X63200Y211855D01*
X59562Y211855D01*
X58915Y212028D01*
X58336Y212363D01*
X57863Y212836D01*
X57528Y213415D01*
X57355Y214062D01*
X57355Y219477D01*
X65738Y219477D01*
X65758Y219480D01*
X65777Y219478D01*
X65879Y219500D01*
X65981Y219517D01*
X65998Y219526D01*
X66018Y219530D01*
X66107Y219583D01*
X66198Y219632D01*
X66212Y219646D01*
X66229Y219656D01*
X66296Y219735D01*
X66367Y219810D01*
X66376Y219828D01*
X66389Y219843D01*
X66427Y219939D01*
X66471Y220033D01*
X66473Y220053D01*
X66481Y220071D01*
X66499Y220238D01*
X66499Y221762D01*
X66496Y221782D01*
X66498Y221801D01*
X66476Y221903D01*
X66459Y222005D01*
X66450Y222022D01*
X66446Y222042D01*
X66393Y222131D01*
X66344Y222222D01*
X66330Y222236D01*
X66320Y222253D01*
X66241Y222320D01*
X66166Y222391D01*
X66148Y222400D01*
X66133Y222413D01*
X66037Y222452D01*
X65943Y222495D01*
X65923Y222497D01*
X65905Y222505D01*
X65738Y222523D01*
X57355Y222523D01*
X57355Y227938D01*
X57528Y228585D01*
X57863Y229164D01*
X58336Y229637D01*
X58915Y229972D01*
X59562Y230145D01*
X61001Y230145D01*
X61097Y230160D01*
X61194Y230170D01*
X61218Y230180D01*
X61244Y230184D01*
X61330Y230230D01*
X61419Y230270D01*
X61438Y230287D01*
X61461Y230300D01*
X61528Y230370D01*
X61600Y230436D01*
X61613Y230459D01*
X61631Y230478D01*
X61672Y230566D01*
X61719Y230652D01*
X61723Y230677D01*
X61734Y230701D01*
X61745Y230798D01*
X61762Y230894D01*
X61758Y230920D01*
X61761Y230945D01*
X61741Y231040D01*
X61727Y231137D01*
X61715Y231160D01*
X61709Y231186D01*
X61659Y231270D01*
X61615Y231356D01*
X61596Y231374D01*
X61583Y231397D01*
X61509Y231460D01*
X61439Y231528D01*
X61411Y231544D01*
X61396Y231557D01*
X61365Y231569D01*
X61292Y231609D01*
X60457Y231955D01*
X59634Y232778D01*
X59618Y232790D01*
X59605Y232806D01*
X59518Y232862D01*
X59434Y232922D01*
X59415Y232928D01*
X59398Y232939D01*
X59298Y232964D01*
X59199Y232994D01*
X59179Y232994D01*
X59160Y232999D01*
X59057Y232991D01*
X58953Y232988D01*
X58934Y232981D01*
X58914Y232980D01*
X58819Y232939D01*
X58722Y232904D01*
X58706Y232891D01*
X58688Y232883D01*
X58557Y232778D01*
X55552Y229773D01*
X55499Y229699D01*
X55439Y229630D01*
X55427Y229599D01*
X55408Y229573D01*
X55381Y229486D01*
X55347Y229401D01*
X55343Y229360D01*
X55336Y229338D01*
X55337Y229306D01*
X55329Y229235D01*
X55329Y183625D01*
X55340Y183555D01*
X55342Y183483D01*
X55360Y183434D01*
X55368Y183383D01*
X55402Y183319D01*
X55427Y183252D01*
X55459Y183211D01*
X55484Y183165D01*
X55536Y183116D01*
X55580Y183060D01*
X55624Y183032D01*
X55662Y182996D01*
X55727Y182966D01*
X55787Y182927D01*
X55838Y182914D01*
X55885Y182892D01*
X55956Y182884D01*
X56026Y182867D01*
X56078Y182871D01*
X56129Y182865D01*
X56200Y182880D01*
G37*
%LPC*%
G36*
X52323Y402523D02*
X52323Y402523D01*
X52323Y418666D01*
X53179Y418531D01*
X54700Y418036D01*
X56125Y417310D01*
X57419Y416370D01*
X58550Y415239D01*
X59490Y413945D01*
X60216Y412520D01*
X60711Y410999D01*
X60961Y409420D01*
X60961Y402523D01*
X52323Y402523D01*
G37*
%LPD*%
%LPC*%
G36*
X52323Y364423D02*
X52323Y364423D01*
X52323Y380566D01*
X53179Y380431D01*
X54700Y379936D01*
X56125Y379210D01*
X57419Y378270D01*
X58550Y377139D01*
X59490Y375845D01*
X60216Y374420D01*
X60711Y372899D01*
X60961Y371320D01*
X60961Y364423D01*
X52323Y364423D01*
G37*
%LPD*%
%LPC*%
G36*
X52323Y361377D02*
X52323Y361377D01*
X60961Y361377D01*
X60961Y354480D01*
X60711Y352901D01*
X60216Y351380D01*
X59490Y349955D01*
X58550Y348661D01*
X57419Y347530D01*
X56125Y346590D01*
X54700Y345864D01*
X53179Y345369D01*
X52323Y345234D01*
X52323Y361377D01*
G37*
%LPD*%
%LPC*%
G36*
X52323Y399477D02*
X52323Y399477D01*
X60961Y399477D01*
X60961Y392580D01*
X60711Y391001D01*
X60216Y389480D01*
X59490Y388055D01*
X58550Y386761D01*
X57419Y385630D01*
X56125Y384690D01*
X54700Y383964D01*
X53179Y383469D01*
X52323Y383334D01*
X52323Y399477D01*
G37*
%LPD*%
%LPC*%
G36*
X40639Y364423D02*
X40639Y364423D01*
X40639Y371320D01*
X40889Y372899D01*
X41384Y374420D01*
X42110Y375845D01*
X43050Y377139D01*
X44181Y378270D01*
X45475Y379210D01*
X46900Y379936D01*
X48421Y380431D01*
X49277Y380566D01*
X49277Y364423D01*
X40639Y364423D01*
G37*
%LPD*%
%LPC*%
G36*
X48421Y345369D02*
X48421Y345369D01*
X46900Y345864D01*
X45475Y346590D01*
X44181Y347530D01*
X43050Y348661D01*
X42110Y349955D01*
X41384Y351380D01*
X40889Y352901D01*
X40639Y354480D01*
X40639Y361377D01*
X49277Y361377D01*
X49277Y345234D01*
X48421Y345369D01*
G37*
%LPD*%
%LPC*%
G36*
X48421Y383469D02*
X48421Y383469D01*
X46900Y383964D01*
X45475Y384690D01*
X44181Y385630D01*
X43050Y386761D01*
X42110Y388055D01*
X41384Y389480D01*
X40889Y391001D01*
X40639Y392580D01*
X40639Y399477D01*
X49277Y399477D01*
X49277Y383334D01*
X48421Y383469D01*
G37*
%LPD*%
%LPC*%
G36*
X293623Y161223D02*
X293623Y161223D01*
X293623Y175196D01*
X294749Y174972D01*
X296401Y174287D01*
X297889Y173293D01*
X299153Y172029D01*
X300147Y170541D01*
X300832Y168889D01*
X301181Y167134D01*
X301181Y161223D01*
X293623Y161223D01*
G37*
%LPD*%
%LPC*%
G36*
X293623Y59623D02*
X293623Y59623D01*
X293623Y73596D01*
X294749Y73372D01*
X296401Y72687D01*
X297889Y71693D01*
X299153Y70429D01*
X300147Y68941D01*
X300832Y67289D01*
X301181Y65534D01*
X301181Y59623D01*
X293623Y59623D01*
G37*
%LPD*%
%LPC*%
G36*
X293623Y110423D02*
X293623Y110423D01*
X293623Y124396D01*
X294749Y124172D01*
X296401Y123487D01*
X297889Y122493D01*
X299153Y121229D01*
X300147Y119741D01*
X300832Y118089D01*
X301181Y116334D01*
X301181Y110423D01*
X293623Y110423D01*
G37*
%LPD*%
%LPC*%
G36*
X293623Y107377D02*
X293623Y107377D01*
X301181Y107377D01*
X301181Y101466D01*
X300832Y99711D01*
X300147Y98059D01*
X299153Y96571D01*
X297889Y95307D01*
X296401Y94313D01*
X294749Y93628D01*
X293623Y93404D01*
X293623Y107377D01*
G37*
%LPD*%
%LPC*%
G36*
X293623Y56577D02*
X293623Y56577D01*
X301181Y56577D01*
X301181Y50666D01*
X300832Y48911D01*
X300147Y47259D01*
X299153Y45771D01*
X297889Y44507D01*
X296401Y43513D01*
X294749Y42828D01*
X293623Y42604D01*
X293623Y56577D01*
G37*
%LPD*%
%LPC*%
G36*
X293623Y158177D02*
X293623Y158177D01*
X301181Y158177D01*
X301181Y152266D01*
X300832Y150511D01*
X300147Y148859D01*
X299153Y147371D01*
X297889Y146107D01*
X296401Y145113D01*
X294749Y144428D01*
X293623Y144204D01*
X293623Y158177D01*
G37*
%LPD*%
%LPC*%
G36*
X283019Y59623D02*
X283019Y59623D01*
X283019Y65534D01*
X283368Y67289D01*
X284053Y68941D01*
X285047Y70429D01*
X286311Y71693D01*
X287799Y72687D01*
X289451Y73372D01*
X290577Y73596D01*
X290577Y59623D01*
X283019Y59623D01*
G37*
%LPD*%
%LPC*%
G36*
X283019Y161223D02*
X283019Y161223D01*
X283019Y167134D01*
X283368Y168889D01*
X284053Y170541D01*
X285047Y172029D01*
X286311Y173293D01*
X287799Y174287D01*
X289451Y174972D01*
X290577Y175196D01*
X290577Y161223D01*
X283019Y161223D01*
G37*
%LPD*%
%LPC*%
G36*
X283019Y110423D02*
X283019Y110423D01*
X283019Y116334D01*
X283368Y118089D01*
X284053Y119741D01*
X285047Y121229D01*
X286311Y122493D01*
X287799Y123487D01*
X289451Y124172D01*
X290577Y124396D01*
X290577Y110423D01*
X283019Y110423D01*
G37*
%LPD*%
%LPC*%
G36*
X289451Y93628D02*
X289451Y93628D01*
X287799Y94313D01*
X286311Y95307D01*
X285047Y96571D01*
X284053Y98059D01*
X283368Y99711D01*
X283019Y101466D01*
X283019Y107377D01*
X290577Y107377D01*
X290577Y93404D01*
X289451Y93628D01*
G37*
%LPD*%
%LPC*%
G36*
X289451Y144428D02*
X289451Y144428D01*
X287799Y145113D01*
X286311Y146107D01*
X285047Y147371D01*
X284053Y148859D01*
X283368Y150511D01*
X283019Y152266D01*
X283019Y158177D01*
X290577Y158177D01*
X290577Y144204D01*
X289451Y144428D01*
G37*
%LPD*%
%LPC*%
G36*
X289451Y42828D02*
X289451Y42828D01*
X287799Y43513D01*
X286311Y44507D01*
X285047Y45771D01*
X284053Y47259D01*
X283368Y48911D01*
X283019Y50666D01*
X283019Y56577D01*
X290577Y56577D01*
X290577Y42604D01*
X289451Y42828D01*
G37*
%LPD*%
%LPC*%
G36*
X268223Y325523D02*
X268223Y325523D01*
X268223Y333145D01*
X273638Y333145D01*
X274285Y332972D01*
X274864Y332637D01*
X275337Y332164D01*
X275672Y331585D01*
X275845Y330938D01*
X275845Y325523D01*
X268223Y325523D01*
G37*
%LPD*%
%LPC*%
G36*
X257555Y325523D02*
X257555Y325523D01*
X257555Y330938D01*
X257728Y331585D01*
X258063Y332164D01*
X258536Y332637D01*
X259115Y332972D01*
X259762Y333145D01*
X265177Y333145D01*
X265177Y325523D01*
X257555Y325523D01*
G37*
%LPD*%
%LPC*%
G36*
X292099Y108899D02*
X292099Y108899D01*
X292099Y108901D01*
X292101Y108901D01*
X292101Y108899D01*
X292099Y108899D01*
G37*
%LPD*%
%LPC*%
G36*
X292099Y159699D02*
X292099Y159699D01*
X292099Y159701D01*
X292101Y159701D01*
X292101Y159699D01*
X292099Y159699D01*
G37*
%LPD*%
%LPC*%
G36*
X50799Y362899D02*
X50799Y362899D01*
X50799Y362901D01*
X50801Y362901D01*
X50801Y362899D01*
X50799Y362899D01*
G37*
%LPD*%
%LPC*%
G36*
X292099Y58099D02*
X292099Y58099D01*
X292099Y58101D01*
X292101Y58101D01*
X292101Y58099D01*
X292099Y58099D01*
G37*
%LPD*%
%LPC*%
G36*
X50799Y400999D02*
X50799Y400999D01*
X50799Y401001D01*
X50801Y401001D01*
X50801Y400999D01*
X50799Y400999D01*
G37*
%LPD*%
D10*
X266700Y324000D03*
D11*
X266700Y304000D03*
X266700Y284000D03*
X266700Y264000D03*
X266700Y244000D03*
X266700Y224000D03*
D10*
X66500Y221000D03*
D11*
X66500Y241000D03*
X66500Y261000D03*
X66500Y281000D03*
X66500Y301000D03*
X66500Y321000D03*
D12*
X292100Y166240D02*
X292100Y153160D01*
X267100Y153160D02*
X267100Y166240D01*
X242100Y166240D02*
X242100Y153160D01*
X217100Y153160D02*
X217100Y166240D01*
X192100Y166240D02*
X192100Y153160D01*
X167100Y153160D02*
X167100Y166240D01*
X292100Y64640D02*
X292100Y51560D01*
X267100Y51560D02*
X267100Y64640D01*
X242100Y64640D02*
X242100Y51560D01*
X217100Y51560D02*
X217100Y64640D01*
X192100Y64640D02*
X192100Y51560D01*
X167100Y51560D02*
X167100Y64640D01*
X292100Y102360D02*
X292100Y115440D01*
X267100Y115440D02*
X267100Y102360D01*
X242100Y102360D02*
X242100Y115440D01*
X217100Y115440D02*
X217100Y102360D01*
X192100Y102360D02*
X192100Y115440D01*
X167100Y115440D02*
X167100Y102360D01*
D13*
X101600Y393380D02*
X101600Y408620D01*
X76200Y408620D02*
X76200Y393380D01*
X50800Y393380D02*
X50800Y408620D01*
X101600Y370520D02*
X101600Y355280D01*
X76200Y355280D02*
X76200Y370520D01*
X50800Y370520D02*
X50800Y355280D01*
D14*
X177800Y330200D03*
X165100Y330200D03*
X152400Y330200D03*
X152400Y342900D03*
X165100Y342900D03*
X177800Y342900D03*
X177800Y355600D03*
X165100Y355600D03*
X152400Y355600D03*
X48633Y102921D03*
X104052Y115362D03*
D15*
X66500Y221000D02*
X65598Y221676D01*
D14*
X149800Y272400D03*
X159800Y272400D03*
X149800Y262400D03*
D16*
X79170Y167388D02*
X65598Y167388D01*
X79170Y167388D02*
X85956Y160602D01*
D14*
X65598Y167388D03*
X85956Y160602D03*
D15*
X266916Y133458D02*
X268047Y134589D01*
X266916Y133458D02*
X261261Y133458D01*
X260130Y134589D01*
X257868Y134589D01*
X242034Y118755D01*
X242034Y109707D01*
X242100Y108900D01*
D14*
X268047Y134589D03*
D16*
X85956Y128934D02*
X70122Y113100D01*
X54288Y113100D01*
X40716Y126672D01*
X40716Y273702D01*
X41847Y274833D01*
D14*
X85956Y128934D03*
X41847Y274833D03*
D16*
X68991Y204711D02*
X92742Y180960D01*
X95004Y180960D02*
X201318Y287274D01*
X95004Y180960D02*
X92742Y180960D01*
D14*
X68991Y204711D03*
X92742Y180960D03*
X201318Y287274D03*
D16*
X201318Y244296D02*
X144768Y187746D01*
D14*
X201318Y244296D03*
X144768Y187746D03*
D16*
X80301Y113100D02*
X248820Y281619D01*
X248820Y292929D01*
X255606Y299715D01*
X257868Y299715D01*
X261261Y303108D01*
X265785Y303108D01*
X266700Y304000D01*
D14*
X80301Y113100D03*
D15*
X182091Y191139D02*
X194532Y191139D01*
X246558Y243165D01*
X265785Y243165D01*
X266700Y244000D01*
D14*
X182091Y191139D03*
D15*
X248820Y231855D02*
X258999Y231855D01*
X265785Y225069D01*
X266700Y224000D01*
D14*
X248820Y231855D03*
D16*
X70122Y125541D02*
X61074Y134589D01*
X61074Y135720D01*
X49764Y147030D01*
X49764Y231855D01*
X58812Y240903D01*
X65598Y240903D01*
X66500Y241000D01*
D14*
X70122Y125541D03*
D16*
X56550Y121017D02*
X56550Y133458D01*
X45240Y144768D01*
X45240Y246558D01*
X55419Y256737D01*
X57681Y256737D01*
X61074Y260130D01*
X65598Y260130D01*
X66500Y261000D01*
D14*
X56550Y121017D03*
D15*
X80301Y287274D02*
X191139Y287274D01*
X80301Y287274D02*
X66729Y300846D01*
X66500Y301000D01*
D14*
X191139Y287274D03*
D15*
X114231Y326859D02*
X72384Y326859D01*
X66729Y321204D01*
X66500Y321000D01*
D14*
X114231Y326859D03*
D16*
X91611Y141375D02*
X65598Y141375D01*
X91611Y141375D02*
X128934Y178698D01*
D14*
X65598Y141375D03*
X128934Y178698D03*
D16*
X73515Y188877D02*
X61074Y176436D01*
D14*
X61074Y176436D03*
X73515Y188877D03*
M02*
