G04 EAGLE Gerber X2 export*
%TF.Part,Single*%
%TF.FileFunction,Legend,Top,1*%
%TF.FilePolarity,Positive*%
%TF.GenerationSoftware,Autodesk,EAGLE,9.1.0*%
%TF.CreationDate,2018-12-20T06:16:38Z*%
G75*
%MOMM*%
%FSLAX34Y34*%
%LPD*%
%AMOC8*
5,1,8,0,0,1.08239X$1,22.5*%
G01*
%ADD10C,0.076200*%
%ADD11C,0.200000*%
%ADD12C,0.150000*%
%ADD13C,0.101600*%
%ADD14C,0.050800*%
%ADD15C,0.127000*%
%ADD16R,0.500000X1.000000*%
%ADD17C,0.152400*%
%ADD18C,0.250000*%
%ADD19R,0.200000X0.200000*%


D10*
X190852Y434619D02*
X190852Y430381D01*
X190381Y430381D02*
X191323Y430381D01*
X191323Y434619D02*
X190381Y434619D01*
X194570Y434620D02*
X194634Y434618D01*
X194698Y434612D01*
X194761Y434603D01*
X194824Y434589D01*
X194885Y434572D01*
X194946Y434551D01*
X195005Y434527D01*
X195063Y434499D01*
X195118Y434467D01*
X195172Y434432D01*
X195224Y434394D01*
X195273Y434353D01*
X195320Y434310D01*
X195363Y434263D01*
X195404Y434214D01*
X195442Y434162D01*
X195477Y434108D01*
X195509Y434053D01*
X195537Y433995D01*
X195561Y433936D01*
X195582Y433875D01*
X195599Y433814D01*
X195613Y433751D01*
X195622Y433688D01*
X195628Y433624D01*
X195630Y433560D01*
X194570Y434619D02*
X194499Y434617D01*
X194428Y434612D01*
X194357Y434602D01*
X194287Y434589D01*
X194217Y434573D01*
X194149Y434552D01*
X194082Y434528D01*
X194016Y434501D01*
X193952Y434470D01*
X193889Y434436D01*
X193828Y434399D01*
X193769Y434359D01*
X193713Y434315D01*
X193659Y434269D01*
X193607Y434220D01*
X193558Y434168D01*
X193512Y434114D01*
X193468Y434057D01*
X193428Y433998D01*
X193391Y433938D01*
X193357Y433875D01*
X193326Y433810D01*
X193299Y433745D01*
X193275Y433677D01*
X195276Y432736D02*
X195322Y432783D01*
X195366Y432832D01*
X195406Y432884D01*
X195444Y432938D01*
X195478Y432994D01*
X195509Y433052D01*
X195537Y433112D01*
X195561Y433173D01*
X195582Y433235D01*
X195599Y433299D01*
X195612Y433364D01*
X195621Y433429D01*
X195627Y433494D01*
X195629Y433560D01*
X195276Y432735D02*
X193275Y430381D01*
X195629Y430381D01*
X198697Y430381D02*
X199639Y430381D01*
X198697Y430381D02*
X198638Y430383D01*
X198579Y430388D01*
X198520Y430398D01*
X198463Y430411D01*
X198406Y430427D01*
X198350Y430447D01*
X198296Y430471D01*
X198243Y430498D01*
X198192Y430528D01*
X198143Y430561D01*
X198097Y430597D01*
X198052Y430636D01*
X198010Y430678D01*
X197971Y430723D01*
X197935Y430769D01*
X197902Y430818D01*
X197872Y430869D01*
X197845Y430922D01*
X197821Y430976D01*
X197801Y431032D01*
X197785Y431089D01*
X197772Y431146D01*
X197762Y431205D01*
X197757Y431264D01*
X197755Y431323D01*
X197756Y431323D02*
X197756Y433677D01*
X197755Y433677D02*
X197757Y433736D01*
X197762Y433795D01*
X197772Y433854D01*
X197785Y433911D01*
X197801Y433968D01*
X197821Y434024D01*
X197845Y434078D01*
X197872Y434131D01*
X197902Y434182D01*
X197935Y434231D01*
X197971Y434277D01*
X198010Y434322D01*
X198052Y434364D01*
X198097Y434403D01*
X198143Y434439D01*
X198192Y434472D01*
X198243Y434502D01*
X198296Y434529D01*
X198350Y434553D01*
X198406Y434573D01*
X198463Y434589D01*
X198520Y434602D01*
X198579Y434612D01*
X198638Y434617D01*
X198697Y434619D01*
X199639Y434619D01*
X201739Y434619D02*
X201739Y430381D01*
X203152Y432265D02*
X201739Y434619D01*
X203152Y432265D02*
X204565Y434619D01*
X204565Y430381D01*
X206860Y431323D02*
X206860Y432265D01*
X206862Y432325D01*
X206868Y432385D01*
X206877Y432445D01*
X206891Y432504D01*
X206908Y432562D01*
X206929Y432619D01*
X206953Y432674D01*
X206981Y432727D01*
X207013Y432779D01*
X207047Y432828D01*
X207085Y432876D01*
X207125Y432920D01*
X207169Y432962D01*
X207215Y433001D01*
X207263Y433038D01*
X207314Y433071D01*
X207366Y433100D01*
X207421Y433126D01*
X207477Y433149D01*
X207534Y433168D01*
X207592Y433183D01*
X207652Y433195D01*
X207712Y433203D01*
X207772Y433207D01*
X207832Y433207D01*
X207892Y433203D01*
X207952Y433195D01*
X208012Y433183D01*
X208070Y433168D01*
X208127Y433149D01*
X208183Y433126D01*
X208238Y433100D01*
X208290Y433071D01*
X208341Y433038D01*
X208389Y433001D01*
X208435Y432962D01*
X208479Y432920D01*
X208519Y432876D01*
X208557Y432828D01*
X208591Y432779D01*
X208623Y432727D01*
X208651Y432674D01*
X208675Y432619D01*
X208696Y432562D01*
X208713Y432504D01*
X208727Y432445D01*
X208736Y432385D01*
X208742Y432325D01*
X208744Y432265D01*
X208744Y431323D01*
X208742Y431263D01*
X208736Y431203D01*
X208727Y431143D01*
X208713Y431084D01*
X208696Y431026D01*
X208675Y430969D01*
X208651Y430914D01*
X208623Y430861D01*
X208591Y430809D01*
X208557Y430760D01*
X208519Y430712D01*
X208479Y430668D01*
X208435Y430626D01*
X208389Y430587D01*
X208341Y430550D01*
X208290Y430517D01*
X208238Y430488D01*
X208183Y430462D01*
X208127Y430439D01*
X208070Y430420D01*
X208012Y430405D01*
X207952Y430393D01*
X207892Y430385D01*
X207832Y430381D01*
X207772Y430381D01*
X207712Y430385D01*
X207652Y430393D01*
X207592Y430405D01*
X207534Y430420D01*
X207477Y430439D01*
X207421Y430462D01*
X207366Y430488D01*
X207314Y430517D01*
X207263Y430550D01*
X207215Y430587D01*
X207169Y430626D01*
X207125Y430668D01*
X207085Y430712D01*
X207047Y430760D01*
X207013Y430809D01*
X206981Y430861D01*
X206953Y430914D01*
X206929Y430969D01*
X206908Y431026D01*
X206891Y431084D01*
X206877Y431143D01*
X206868Y431203D01*
X206862Y431263D01*
X206860Y431323D01*
X210343Y433206D02*
X211755Y433206D01*
X210814Y434619D02*
X210814Y431087D01*
X210816Y431037D01*
X210821Y430987D01*
X210830Y430937D01*
X210843Y430888D01*
X210859Y430840D01*
X210878Y430794D01*
X210900Y430749D01*
X210926Y430705D01*
X210955Y430664D01*
X210986Y430625D01*
X211021Y430588D01*
X211058Y430553D01*
X211097Y430522D01*
X211138Y430493D01*
X211182Y430467D01*
X211227Y430445D01*
X211273Y430426D01*
X211321Y430410D01*
X211370Y430397D01*
X211420Y430388D01*
X211470Y430383D01*
X211520Y430381D01*
X211755Y430381D01*
X213610Y431323D02*
X213610Y432265D01*
X213612Y432325D01*
X213618Y432385D01*
X213627Y432445D01*
X213641Y432504D01*
X213658Y432562D01*
X213679Y432619D01*
X213703Y432674D01*
X213731Y432727D01*
X213763Y432779D01*
X213797Y432828D01*
X213835Y432876D01*
X213875Y432920D01*
X213919Y432962D01*
X213965Y433001D01*
X214013Y433038D01*
X214064Y433071D01*
X214116Y433100D01*
X214171Y433126D01*
X214227Y433149D01*
X214284Y433168D01*
X214342Y433183D01*
X214402Y433195D01*
X214462Y433203D01*
X214522Y433207D01*
X214582Y433207D01*
X214642Y433203D01*
X214702Y433195D01*
X214762Y433183D01*
X214820Y433168D01*
X214877Y433149D01*
X214933Y433126D01*
X214988Y433100D01*
X215040Y433071D01*
X215091Y433038D01*
X215139Y433001D01*
X215185Y432962D01*
X215229Y432920D01*
X215269Y432876D01*
X215307Y432828D01*
X215341Y432779D01*
X215373Y432727D01*
X215401Y432674D01*
X215425Y432619D01*
X215446Y432562D01*
X215463Y432504D01*
X215477Y432445D01*
X215486Y432385D01*
X215492Y432325D01*
X215494Y432265D01*
X215494Y431323D01*
X215492Y431263D01*
X215486Y431203D01*
X215477Y431143D01*
X215463Y431084D01*
X215446Y431026D01*
X215425Y430969D01*
X215401Y430914D01*
X215373Y430861D01*
X215341Y430809D01*
X215307Y430760D01*
X215269Y430712D01*
X215229Y430668D01*
X215185Y430626D01*
X215139Y430587D01*
X215091Y430550D01*
X215040Y430517D01*
X214988Y430488D01*
X214933Y430462D01*
X214877Y430439D01*
X214820Y430420D01*
X214762Y430405D01*
X214702Y430393D01*
X214642Y430385D01*
X214582Y430381D01*
X214522Y430381D01*
X214462Y430385D01*
X214402Y430393D01*
X214342Y430405D01*
X214284Y430420D01*
X214227Y430439D01*
X214171Y430462D01*
X214116Y430488D01*
X214064Y430517D01*
X214013Y430550D01*
X213965Y430587D01*
X213919Y430626D01*
X213875Y430668D01*
X213835Y430712D01*
X213797Y430760D01*
X213763Y430809D01*
X213731Y430861D01*
X213703Y430914D01*
X213679Y430969D01*
X213658Y431026D01*
X213641Y431084D01*
X213627Y431143D01*
X213618Y431203D01*
X213612Y431263D01*
X213610Y431323D01*
X217698Y430381D02*
X217698Y433206D01*
X219111Y433206D01*
X219111Y432735D01*
X221647Y430381D02*
X222589Y430381D01*
X221647Y430381D02*
X221588Y430383D01*
X221529Y430388D01*
X221470Y430398D01*
X221413Y430411D01*
X221356Y430427D01*
X221300Y430447D01*
X221246Y430471D01*
X221193Y430498D01*
X221142Y430528D01*
X221093Y430561D01*
X221047Y430597D01*
X221002Y430636D01*
X220960Y430678D01*
X220921Y430723D01*
X220885Y430769D01*
X220852Y430818D01*
X220822Y430869D01*
X220795Y430922D01*
X220771Y430976D01*
X220751Y431032D01*
X220735Y431089D01*
X220722Y431146D01*
X220712Y431205D01*
X220707Y431264D01*
X220705Y431323D01*
X220706Y431323D02*
X220706Y433677D01*
X220705Y433677D02*
X220707Y433736D01*
X220712Y433795D01*
X220722Y433854D01*
X220735Y433911D01*
X220751Y433968D01*
X220771Y434024D01*
X220795Y434078D01*
X220822Y434131D01*
X220852Y434182D01*
X220885Y434231D01*
X220921Y434277D01*
X220960Y434322D01*
X221002Y434364D01*
X221047Y434403D01*
X221093Y434439D01*
X221142Y434472D01*
X221193Y434502D01*
X221246Y434529D01*
X221300Y434553D01*
X221356Y434573D01*
X221413Y434589D01*
X221470Y434602D01*
X221529Y434612D01*
X221588Y434617D01*
X221647Y434619D01*
X222589Y434619D01*
X223993Y433206D02*
X225405Y433206D01*
X224463Y434619D02*
X224463Y431087D01*
X224464Y431087D02*
X224466Y431037D01*
X224471Y430987D01*
X224480Y430937D01*
X224493Y430888D01*
X224509Y430840D01*
X224528Y430794D01*
X224550Y430749D01*
X224576Y430705D01*
X224605Y430664D01*
X224636Y430625D01*
X224671Y430588D01*
X224708Y430553D01*
X224747Y430522D01*
X224788Y430493D01*
X224832Y430467D01*
X224877Y430445D01*
X224923Y430426D01*
X224971Y430410D01*
X225020Y430397D01*
X225070Y430388D01*
X225120Y430383D01*
X225170Y430381D01*
X225405Y430381D01*
X227448Y430381D02*
X227448Y433206D01*
X228861Y433206D01*
X228861Y432735D01*
X230428Y431087D02*
X230428Y434619D01*
X230428Y431087D02*
X230430Y431037D01*
X230435Y430987D01*
X230444Y430937D01*
X230457Y430888D01*
X230473Y430840D01*
X230492Y430794D01*
X230514Y430749D01*
X230540Y430705D01*
X230569Y430664D01*
X230600Y430625D01*
X230635Y430588D01*
X230672Y430553D01*
X230711Y430522D01*
X230752Y430493D01*
X230796Y430467D01*
X230841Y430445D01*
X230887Y430426D01*
X230935Y430410D01*
X230984Y430397D01*
X231034Y430388D01*
X231084Y430383D01*
X231134Y430381D01*
X190381Y424619D02*
X190381Y420381D01*
X192735Y420381D02*
X190381Y424619D01*
X192735Y424619D02*
X192735Y420381D01*
X194966Y421323D02*
X194966Y422265D01*
X194968Y422325D01*
X194974Y422385D01*
X194983Y422445D01*
X194997Y422504D01*
X195014Y422562D01*
X195035Y422619D01*
X195059Y422674D01*
X195087Y422727D01*
X195119Y422779D01*
X195153Y422828D01*
X195191Y422876D01*
X195231Y422920D01*
X195275Y422962D01*
X195321Y423001D01*
X195369Y423038D01*
X195420Y423071D01*
X195472Y423100D01*
X195527Y423126D01*
X195583Y423149D01*
X195640Y423168D01*
X195698Y423183D01*
X195758Y423195D01*
X195818Y423203D01*
X195878Y423207D01*
X195938Y423207D01*
X195998Y423203D01*
X196058Y423195D01*
X196118Y423183D01*
X196176Y423168D01*
X196233Y423149D01*
X196289Y423126D01*
X196344Y423100D01*
X196396Y423071D01*
X196447Y423038D01*
X196495Y423001D01*
X196541Y422962D01*
X196585Y422920D01*
X196625Y422876D01*
X196663Y422828D01*
X196697Y422779D01*
X196729Y422727D01*
X196757Y422674D01*
X196781Y422619D01*
X196802Y422562D01*
X196819Y422504D01*
X196833Y422445D01*
X196842Y422385D01*
X196848Y422325D01*
X196850Y422265D01*
X196850Y421323D01*
X196848Y421263D01*
X196842Y421203D01*
X196833Y421143D01*
X196819Y421084D01*
X196802Y421026D01*
X196781Y420969D01*
X196757Y420914D01*
X196729Y420861D01*
X196697Y420809D01*
X196663Y420760D01*
X196625Y420712D01*
X196585Y420668D01*
X196541Y420626D01*
X196495Y420587D01*
X196447Y420550D01*
X196396Y420517D01*
X196344Y420488D01*
X196289Y420462D01*
X196233Y420439D01*
X196176Y420420D01*
X196118Y420405D01*
X196058Y420393D01*
X195998Y420385D01*
X195938Y420381D01*
X195878Y420381D01*
X195818Y420385D01*
X195758Y420393D01*
X195698Y420405D01*
X195640Y420420D01*
X195583Y420439D01*
X195527Y420462D01*
X195472Y420488D01*
X195420Y420517D01*
X195369Y420550D01*
X195321Y420587D01*
X195275Y420626D01*
X195231Y420668D01*
X195191Y420712D01*
X195153Y420760D01*
X195119Y420809D01*
X195087Y420861D01*
X195059Y420914D01*
X195035Y420969D01*
X195014Y421026D01*
X194997Y421084D01*
X194983Y421143D01*
X194974Y421203D01*
X194968Y421263D01*
X194966Y421323D01*
X198716Y423206D02*
X199658Y420381D01*
X200600Y423206D01*
X206226Y424620D02*
X206290Y424618D01*
X206354Y424612D01*
X206417Y424603D01*
X206480Y424589D01*
X206541Y424572D01*
X206602Y424551D01*
X206661Y424527D01*
X206719Y424499D01*
X206774Y424467D01*
X206828Y424432D01*
X206880Y424394D01*
X206929Y424353D01*
X206976Y424310D01*
X207019Y424263D01*
X207060Y424214D01*
X207098Y424162D01*
X207133Y424108D01*
X207165Y424053D01*
X207193Y423995D01*
X207217Y423936D01*
X207238Y423875D01*
X207255Y423814D01*
X207269Y423751D01*
X207278Y423688D01*
X207284Y423624D01*
X207286Y423560D01*
X206226Y424619D02*
X206155Y424617D01*
X206084Y424612D01*
X206013Y424602D01*
X205943Y424589D01*
X205873Y424573D01*
X205805Y424552D01*
X205738Y424528D01*
X205672Y424501D01*
X205608Y424470D01*
X205545Y424436D01*
X205484Y424399D01*
X205425Y424359D01*
X205369Y424315D01*
X205315Y424269D01*
X205263Y424220D01*
X205214Y424168D01*
X205168Y424114D01*
X205124Y424057D01*
X205084Y423998D01*
X205047Y423938D01*
X205013Y423875D01*
X204982Y423810D01*
X204955Y423745D01*
X204931Y423677D01*
X206932Y422736D02*
X206978Y422783D01*
X207022Y422832D01*
X207062Y422884D01*
X207100Y422938D01*
X207134Y422994D01*
X207165Y423052D01*
X207193Y423112D01*
X207217Y423173D01*
X207238Y423235D01*
X207255Y423299D01*
X207268Y423364D01*
X207277Y423429D01*
X207283Y423494D01*
X207285Y423560D01*
X206932Y422735D02*
X204931Y420381D01*
X207285Y420381D01*
X209431Y424148D02*
X209431Y424619D01*
X211785Y424619D01*
X210608Y420381D01*
X216395Y422029D02*
X219221Y422029D01*
X223616Y423206D02*
X224558Y420381D01*
X225500Y423206D01*
X227431Y423677D02*
X228608Y424619D01*
X228608Y420381D01*
X227431Y420381D02*
X229785Y420381D01*
X49558Y39036D02*
X47208Y39036D01*
X47208Y39035D02*
X47124Y39033D01*
X47039Y39027D01*
X46956Y39017D01*
X46872Y39004D01*
X46790Y38986D01*
X46708Y38965D01*
X46627Y38940D01*
X46548Y38912D01*
X46470Y38879D01*
X46394Y38843D01*
X46319Y38804D01*
X46246Y38761D01*
X46175Y38715D01*
X46107Y38666D01*
X46041Y38614D01*
X45977Y38558D01*
X45916Y38500D01*
X45858Y38439D01*
X45802Y38375D01*
X45750Y38309D01*
X45701Y38241D01*
X45655Y38170D01*
X45612Y38097D01*
X45573Y38022D01*
X45537Y37946D01*
X45504Y37868D01*
X45476Y37789D01*
X45451Y37708D01*
X45430Y37626D01*
X45412Y37544D01*
X45399Y37460D01*
X45389Y37377D01*
X45383Y37292D01*
X45381Y37208D01*
X45383Y37124D01*
X45389Y37039D01*
X45399Y36956D01*
X45412Y36872D01*
X45430Y36790D01*
X45451Y36708D01*
X45476Y36627D01*
X45504Y36548D01*
X45537Y36470D01*
X45573Y36394D01*
X45612Y36319D01*
X45655Y36246D01*
X45701Y36175D01*
X45750Y36107D01*
X45802Y36041D01*
X45858Y35977D01*
X45916Y35916D01*
X45977Y35858D01*
X46041Y35802D01*
X46107Y35750D01*
X46175Y35701D01*
X46246Y35655D01*
X46319Y35612D01*
X46394Y35573D01*
X46470Y35537D01*
X46548Y35504D01*
X46627Y35476D01*
X46708Y35451D01*
X46790Y35430D01*
X46872Y35412D01*
X46956Y35399D01*
X47039Y35389D01*
X47124Y35383D01*
X47208Y35381D01*
X49558Y35381D01*
X49558Y40080D01*
X49556Y40157D01*
X49550Y40233D01*
X49541Y40310D01*
X49528Y40386D01*
X49511Y40461D01*
X49491Y40535D01*
X49466Y40608D01*
X49439Y40679D01*
X49408Y40750D01*
X49373Y40818D01*
X49335Y40885D01*
X49294Y40950D01*
X49250Y41013D01*
X49203Y41073D01*
X49152Y41132D01*
X49099Y41187D01*
X49044Y41240D01*
X48985Y41291D01*
X48925Y41338D01*
X48862Y41382D01*
X48797Y41423D01*
X48730Y41461D01*
X48662Y41496D01*
X48591Y41527D01*
X48520Y41554D01*
X48447Y41579D01*
X48373Y41599D01*
X48298Y41616D01*
X48222Y41629D01*
X48145Y41638D01*
X48069Y41644D01*
X47992Y41646D01*
X45903Y41646D01*
X52888Y41646D02*
X56020Y41646D01*
X53932Y44779D02*
X53932Y36947D01*
X53934Y36870D01*
X53940Y36794D01*
X53949Y36717D01*
X53962Y36641D01*
X53979Y36566D01*
X53999Y36492D01*
X54024Y36419D01*
X54051Y36348D01*
X54082Y36277D01*
X54117Y36209D01*
X54155Y36142D01*
X54196Y36077D01*
X54240Y36014D01*
X54287Y35954D01*
X54338Y35895D01*
X54391Y35840D01*
X54446Y35787D01*
X54505Y35736D01*
X54565Y35689D01*
X54628Y35645D01*
X54693Y35604D01*
X54760Y35566D01*
X54828Y35531D01*
X54899Y35500D01*
X54970Y35473D01*
X55043Y35448D01*
X55117Y35428D01*
X55192Y35411D01*
X55268Y35398D01*
X55345Y35389D01*
X55421Y35383D01*
X55498Y35381D01*
X56020Y35381D01*
X58679Y41646D02*
X61811Y41646D01*
X59723Y44779D02*
X59723Y36947D01*
X59725Y36870D01*
X59731Y36794D01*
X59740Y36717D01*
X59753Y36641D01*
X59770Y36566D01*
X59790Y36492D01*
X59815Y36419D01*
X59842Y36348D01*
X59873Y36277D01*
X59908Y36209D01*
X59946Y36142D01*
X59987Y36077D01*
X60031Y36014D01*
X60078Y35954D01*
X60129Y35895D01*
X60182Y35840D01*
X60237Y35787D01*
X60296Y35736D01*
X60356Y35689D01*
X60419Y35645D01*
X60484Y35604D01*
X60551Y35566D01*
X60619Y35531D01*
X60690Y35500D01*
X60761Y35473D01*
X60834Y35448D01*
X60908Y35428D01*
X60983Y35411D01*
X61059Y35398D01*
X61136Y35389D01*
X61212Y35383D01*
X61289Y35381D01*
X61811Y35381D01*
X65193Y35381D02*
X65193Y41646D01*
X64932Y44257D02*
X64932Y44779D01*
X65454Y44779D01*
X65454Y44257D01*
X64932Y44257D01*
X69201Y41646D02*
X69201Y35381D01*
X69201Y41646D02*
X71811Y41646D01*
X71888Y41644D01*
X71964Y41638D01*
X72041Y41629D01*
X72117Y41616D01*
X72192Y41599D01*
X72266Y41579D01*
X72339Y41554D01*
X72410Y41527D01*
X72481Y41496D01*
X72549Y41461D01*
X72616Y41423D01*
X72681Y41382D01*
X72744Y41338D01*
X72804Y41291D01*
X72863Y41240D01*
X72918Y41187D01*
X72971Y41132D01*
X73022Y41073D01*
X73069Y41013D01*
X73113Y40950D01*
X73154Y40885D01*
X73192Y40818D01*
X73227Y40750D01*
X73258Y40679D01*
X73285Y40608D01*
X73310Y40535D01*
X73330Y40461D01*
X73347Y40386D01*
X73360Y40310D01*
X73369Y40234D01*
X73375Y40157D01*
X73377Y40080D01*
X73378Y40080D02*
X73378Y35381D01*
X77126Y32248D02*
X78170Y32248D01*
X81303Y41646D01*
X77126Y41646D02*
X79214Y35381D01*
X84833Y37992D02*
X84835Y38093D01*
X84841Y38194D01*
X84851Y38295D01*
X84864Y38395D01*
X84882Y38495D01*
X84903Y38594D01*
X84929Y38692D01*
X84958Y38789D01*
X84990Y38885D01*
X85027Y38979D01*
X85067Y39072D01*
X85111Y39164D01*
X85158Y39253D01*
X85209Y39341D01*
X85263Y39427D01*
X85320Y39510D01*
X85380Y39592D01*
X85444Y39670D01*
X85510Y39747D01*
X85580Y39820D01*
X85652Y39891D01*
X85727Y39959D01*
X85805Y40024D01*
X85885Y40086D01*
X85967Y40145D01*
X86052Y40201D01*
X86139Y40253D01*
X86227Y40302D01*
X86318Y40348D01*
X86410Y40389D01*
X86504Y40428D01*
X86599Y40462D01*
X86695Y40493D01*
X86793Y40520D01*
X86891Y40544D01*
X86991Y40563D01*
X87091Y40579D01*
X87191Y40591D01*
X87292Y40599D01*
X87393Y40603D01*
X87495Y40603D01*
X87596Y40599D01*
X87697Y40591D01*
X87797Y40579D01*
X87897Y40563D01*
X87997Y40544D01*
X88095Y40520D01*
X88193Y40493D01*
X88289Y40462D01*
X88384Y40428D01*
X88478Y40389D01*
X88570Y40348D01*
X88661Y40302D01*
X88750Y40253D01*
X88836Y40201D01*
X88921Y40145D01*
X89003Y40086D01*
X89083Y40024D01*
X89161Y39959D01*
X89236Y39891D01*
X89308Y39820D01*
X89378Y39747D01*
X89444Y39670D01*
X89508Y39592D01*
X89568Y39510D01*
X89625Y39427D01*
X89679Y39341D01*
X89730Y39253D01*
X89777Y39164D01*
X89821Y39072D01*
X89861Y38979D01*
X89898Y38885D01*
X89930Y38789D01*
X89959Y38692D01*
X89985Y38594D01*
X90006Y38495D01*
X90024Y38395D01*
X90037Y38295D01*
X90047Y38194D01*
X90053Y38093D01*
X90055Y37992D01*
X90053Y37891D01*
X90047Y37790D01*
X90037Y37689D01*
X90024Y37589D01*
X90006Y37489D01*
X89985Y37390D01*
X89959Y37292D01*
X89930Y37195D01*
X89898Y37099D01*
X89861Y37005D01*
X89821Y36912D01*
X89777Y36820D01*
X89730Y36731D01*
X89679Y36643D01*
X89625Y36557D01*
X89568Y36474D01*
X89508Y36392D01*
X89444Y36314D01*
X89378Y36237D01*
X89308Y36164D01*
X89236Y36093D01*
X89161Y36025D01*
X89083Y35960D01*
X89003Y35898D01*
X88921Y35839D01*
X88836Y35783D01*
X88749Y35731D01*
X88661Y35682D01*
X88570Y35636D01*
X88478Y35595D01*
X88384Y35556D01*
X88289Y35522D01*
X88193Y35491D01*
X88095Y35464D01*
X87997Y35440D01*
X87897Y35421D01*
X87797Y35405D01*
X87697Y35393D01*
X87596Y35385D01*
X87495Y35381D01*
X87393Y35381D01*
X87292Y35385D01*
X87191Y35393D01*
X87091Y35405D01*
X86991Y35421D01*
X86891Y35440D01*
X86793Y35464D01*
X86695Y35491D01*
X86599Y35522D01*
X86504Y35556D01*
X86410Y35595D01*
X86318Y35636D01*
X86227Y35682D01*
X86139Y35731D01*
X86052Y35783D01*
X85967Y35839D01*
X85885Y35898D01*
X85805Y35960D01*
X85727Y36025D01*
X85652Y36093D01*
X85580Y36164D01*
X85510Y36237D01*
X85444Y36314D01*
X85380Y36392D01*
X85320Y36474D01*
X85263Y36557D01*
X85209Y36643D01*
X85158Y36731D01*
X85111Y36820D01*
X85067Y36912D01*
X85027Y37005D01*
X84990Y37099D01*
X84958Y37195D01*
X84929Y37292D01*
X84903Y37390D01*
X84882Y37489D01*
X84864Y37589D01*
X84851Y37689D01*
X84841Y37790D01*
X84835Y37891D01*
X84833Y37992D01*
X85356Y42691D02*
X85358Y42781D01*
X85364Y42870D01*
X85373Y42960D01*
X85387Y43049D01*
X85404Y43137D01*
X85425Y43224D01*
X85450Y43311D01*
X85479Y43396D01*
X85511Y43480D01*
X85546Y43562D01*
X85586Y43643D01*
X85628Y43722D01*
X85674Y43799D01*
X85724Y43874D01*
X85776Y43947D01*
X85832Y44018D01*
X85890Y44086D01*
X85952Y44151D01*
X86016Y44214D01*
X86083Y44274D01*
X86152Y44331D01*
X86224Y44385D01*
X86298Y44436D01*
X86374Y44484D01*
X86452Y44528D01*
X86532Y44569D01*
X86614Y44607D01*
X86697Y44641D01*
X86782Y44671D01*
X86868Y44698D01*
X86954Y44721D01*
X87042Y44740D01*
X87131Y44755D01*
X87220Y44767D01*
X87309Y44775D01*
X87399Y44779D01*
X87489Y44779D01*
X87579Y44775D01*
X87668Y44767D01*
X87757Y44755D01*
X87846Y44740D01*
X87934Y44721D01*
X88020Y44698D01*
X88106Y44671D01*
X88191Y44641D01*
X88274Y44607D01*
X88356Y44569D01*
X88436Y44528D01*
X88514Y44484D01*
X88590Y44436D01*
X88664Y44385D01*
X88736Y44331D01*
X88805Y44274D01*
X88872Y44214D01*
X88936Y44151D01*
X88998Y44086D01*
X89056Y44018D01*
X89112Y43947D01*
X89164Y43874D01*
X89214Y43799D01*
X89260Y43722D01*
X89302Y43643D01*
X89342Y43562D01*
X89377Y43480D01*
X89409Y43396D01*
X89438Y43311D01*
X89463Y43224D01*
X89484Y43137D01*
X89501Y43049D01*
X89515Y42960D01*
X89524Y42870D01*
X89530Y42781D01*
X89532Y42691D01*
X89530Y42601D01*
X89524Y42512D01*
X89515Y42422D01*
X89501Y42333D01*
X89484Y42245D01*
X89463Y42158D01*
X89438Y42071D01*
X89409Y41986D01*
X89377Y41902D01*
X89342Y41820D01*
X89302Y41739D01*
X89260Y41660D01*
X89214Y41583D01*
X89164Y41508D01*
X89112Y41435D01*
X89056Y41364D01*
X88998Y41296D01*
X88936Y41231D01*
X88872Y41168D01*
X88805Y41108D01*
X88736Y41051D01*
X88664Y40997D01*
X88590Y40946D01*
X88514Y40898D01*
X88436Y40854D01*
X88356Y40813D01*
X88274Y40775D01*
X88191Y40741D01*
X88106Y40711D01*
X88020Y40684D01*
X87934Y40661D01*
X87846Y40642D01*
X87757Y40627D01*
X87668Y40615D01*
X87579Y40607D01*
X87489Y40603D01*
X87399Y40603D01*
X87309Y40607D01*
X87220Y40615D01*
X87131Y40627D01*
X87042Y40642D01*
X86954Y40661D01*
X86868Y40684D01*
X86782Y40711D01*
X86697Y40741D01*
X86614Y40775D01*
X86532Y40813D01*
X86452Y40854D01*
X86374Y40898D01*
X86298Y40946D01*
X86224Y40997D01*
X86152Y41051D01*
X86083Y41108D01*
X86016Y41168D01*
X85952Y41231D01*
X85890Y41296D01*
X85832Y41364D01*
X85776Y41435D01*
X85724Y41508D01*
X85674Y41583D01*
X85628Y41660D01*
X85586Y41739D01*
X85546Y41820D01*
X85511Y41902D01*
X85479Y41986D01*
X85450Y42071D01*
X85425Y42158D01*
X85404Y42245D01*
X85387Y42333D01*
X85373Y42422D01*
X85364Y42512D01*
X85358Y42601D01*
X85356Y42691D01*
X93977Y40602D02*
X97110Y40602D01*
X97199Y40600D01*
X97287Y40594D01*
X97375Y40585D01*
X97463Y40572D01*
X97550Y40555D01*
X97636Y40535D01*
X97721Y40510D01*
X97806Y40483D01*
X97889Y40451D01*
X97970Y40417D01*
X98050Y40378D01*
X98128Y40337D01*
X98205Y40292D01*
X98279Y40244D01*
X98352Y40193D01*
X98422Y40139D01*
X98489Y40081D01*
X98555Y40021D01*
X98617Y39959D01*
X98677Y39893D01*
X98735Y39826D01*
X98789Y39756D01*
X98840Y39683D01*
X98888Y39609D01*
X98933Y39532D01*
X98974Y39454D01*
X99013Y39374D01*
X99047Y39293D01*
X99079Y39210D01*
X99106Y39125D01*
X99131Y39040D01*
X99151Y38954D01*
X99168Y38867D01*
X99181Y38779D01*
X99190Y38691D01*
X99196Y38603D01*
X99198Y38514D01*
X99198Y37992D01*
X99199Y37992D02*
X99197Y37891D01*
X99191Y37790D01*
X99181Y37689D01*
X99168Y37589D01*
X99150Y37489D01*
X99129Y37390D01*
X99103Y37292D01*
X99074Y37195D01*
X99042Y37099D01*
X99005Y37005D01*
X98965Y36912D01*
X98921Y36820D01*
X98874Y36731D01*
X98823Y36643D01*
X98769Y36557D01*
X98712Y36474D01*
X98652Y36392D01*
X98588Y36314D01*
X98522Y36237D01*
X98452Y36164D01*
X98380Y36093D01*
X98305Y36025D01*
X98227Y35960D01*
X98147Y35898D01*
X98065Y35839D01*
X97980Y35783D01*
X97893Y35731D01*
X97805Y35682D01*
X97714Y35636D01*
X97622Y35595D01*
X97528Y35556D01*
X97433Y35522D01*
X97337Y35491D01*
X97239Y35464D01*
X97141Y35440D01*
X97041Y35421D01*
X96941Y35405D01*
X96841Y35393D01*
X96740Y35385D01*
X96639Y35381D01*
X96537Y35381D01*
X96436Y35385D01*
X96335Y35393D01*
X96235Y35405D01*
X96135Y35421D01*
X96035Y35440D01*
X95937Y35464D01*
X95839Y35491D01*
X95743Y35522D01*
X95648Y35556D01*
X95554Y35595D01*
X95462Y35636D01*
X95371Y35682D01*
X95283Y35731D01*
X95196Y35783D01*
X95111Y35839D01*
X95029Y35898D01*
X94949Y35960D01*
X94871Y36025D01*
X94796Y36093D01*
X94724Y36164D01*
X94654Y36237D01*
X94588Y36314D01*
X94524Y36392D01*
X94464Y36474D01*
X94407Y36557D01*
X94353Y36643D01*
X94302Y36731D01*
X94255Y36820D01*
X94211Y36912D01*
X94171Y37005D01*
X94134Y37099D01*
X94102Y37195D01*
X94073Y37292D01*
X94047Y37390D01*
X94026Y37489D01*
X94008Y37589D01*
X93995Y37689D01*
X93985Y37790D01*
X93979Y37891D01*
X93977Y37992D01*
X93977Y40602D01*
X93979Y40731D01*
X93985Y40859D01*
X93995Y40987D01*
X94009Y41115D01*
X94026Y41243D01*
X94048Y41370D01*
X94074Y41496D01*
X94103Y41621D01*
X94136Y41745D01*
X94174Y41868D01*
X94214Y41990D01*
X94259Y42111D01*
X94307Y42230D01*
X94359Y42348D01*
X94415Y42464D01*
X94474Y42578D01*
X94537Y42690D01*
X94603Y42801D01*
X94672Y42909D01*
X94745Y43015D01*
X94821Y43119D01*
X94900Y43221D01*
X94982Y43320D01*
X95067Y43416D01*
X95155Y43510D01*
X95246Y43601D01*
X95340Y43689D01*
X95436Y43774D01*
X95535Y43856D01*
X95637Y43935D01*
X95741Y44011D01*
X95847Y44084D01*
X95955Y44153D01*
X96065Y44219D01*
X96178Y44282D01*
X96292Y44341D01*
X96408Y44397D01*
X96526Y44449D01*
X96645Y44497D01*
X96766Y44542D01*
X96888Y44582D01*
X97011Y44620D01*
X97135Y44653D01*
X97260Y44682D01*
X97386Y44708D01*
X97513Y44730D01*
X97641Y44747D01*
X97769Y44761D01*
X97897Y44771D01*
X98025Y44777D01*
X98154Y44779D01*
X103121Y42691D02*
X105732Y44779D01*
X105732Y35381D01*
X108342Y35381D02*
X103121Y35381D01*
X111743Y35381D02*
X114876Y44779D01*
X118008Y35381D01*
X117225Y37731D02*
X112526Y37731D01*
D11*
X100000Y55000D02*
X100002Y55141D01*
X100008Y55282D01*
X100018Y55422D01*
X100032Y55562D01*
X100050Y55702D01*
X100071Y55841D01*
X100097Y55980D01*
X100126Y56118D01*
X100160Y56254D01*
X100197Y56390D01*
X100238Y56525D01*
X100283Y56659D01*
X100332Y56791D01*
X100384Y56922D01*
X100440Y57051D01*
X100500Y57178D01*
X100563Y57304D01*
X100629Y57428D01*
X100700Y57551D01*
X100773Y57671D01*
X100850Y57789D01*
X100930Y57905D01*
X101014Y58018D01*
X101100Y58129D01*
X101190Y58238D01*
X101283Y58344D01*
X101378Y58447D01*
X101477Y58548D01*
X101578Y58646D01*
X101682Y58741D01*
X101789Y58833D01*
X101898Y58922D01*
X102010Y59007D01*
X102124Y59090D01*
X102240Y59170D01*
X102359Y59246D01*
X102480Y59318D01*
X102602Y59388D01*
X102727Y59453D01*
X102853Y59516D01*
X102981Y59574D01*
X103111Y59629D01*
X103242Y59681D01*
X103375Y59728D01*
X103509Y59772D01*
X103644Y59813D01*
X103780Y59849D01*
X103917Y59881D01*
X104055Y59910D01*
X104193Y59935D01*
X104333Y59955D01*
X104473Y59972D01*
X104613Y59985D01*
X104754Y59994D01*
X104894Y59999D01*
X105035Y60000D01*
X105176Y59997D01*
X105317Y59990D01*
X105457Y59979D01*
X105597Y59964D01*
X105737Y59945D01*
X105876Y59923D01*
X106014Y59896D01*
X106152Y59866D01*
X106288Y59831D01*
X106424Y59793D01*
X106558Y59751D01*
X106692Y59705D01*
X106824Y59656D01*
X106954Y59602D01*
X107083Y59545D01*
X107210Y59485D01*
X107336Y59421D01*
X107459Y59353D01*
X107581Y59282D01*
X107701Y59208D01*
X107818Y59130D01*
X107933Y59049D01*
X108046Y58965D01*
X108157Y58878D01*
X108265Y58787D01*
X108370Y58694D01*
X108473Y58597D01*
X108573Y58498D01*
X108670Y58396D01*
X108764Y58291D01*
X108855Y58184D01*
X108943Y58074D01*
X109028Y57962D01*
X109110Y57847D01*
X109189Y57730D01*
X109264Y57611D01*
X109336Y57490D01*
X109404Y57367D01*
X109469Y57242D01*
X109531Y57115D01*
X109588Y56986D01*
X109643Y56856D01*
X109693Y56725D01*
X109740Y56592D01*
X109783Y56458D01*
X109822Y56322D01*
X109857Y56186D01*
X109889Y56049D01*
X109916Y55911D01*
X109940Y55772D01*
X109960Y55632D01*
X109976Y55492D01*
X109988Y55352D01*
X109996Y55211D01*
X110000Y55070D01*
X110000Y54930D01*
X109996Y54789D01*
X109988Y54648D01*
X109976Y54508D01*
X109960Y54368D01*
X109940Y54228D01*
X109916Y54089D01*
X109889Y53951D01*
X109857Y53814D01*
X109822Y53678D01*
X109783Y53542D01*
X109740Y53408D01*
X109693Y53275D01*
X109643Y53144D01*
X109588Y53014D01*
X109531Y52885D01*
X109469Y52758D01*
X109404Y52633D01*
X109336Y52510D01*
X109264Y52389D01*
X109189Y52270D01*
X109110Y52153D01*
X109028Y52038D01*
X108943Y51926D01*
X108855Y51816D01*
X108764Y51709D01*
X108670Y51604D01*
X108573Y51502D01*
X108473Y51403D01*
X108370Y51306D01*
X108265Y51213D01*
X108157Y51122D01*
X108046Y51035D01*
X107933Y50951D01*
X107818Y50870D01*
X107701Y50792D01*
X107581Y50718D01*
X107459Y50647D01*
X107336Y50579D01*
X107210Y50515D01*
X107083Y50455D01*
X106954Y50398D01*
X106824Y50344D01*
X106692Y50295D01*
X106558Y50249D01*
X106424Y50207D01*
X106288Y50169D01*
X106152Y50134D01*
X106014Y50104D01*
X105876Y50077D01*
X105737Y50055D01*
X105597Y50036D01*
X105457Y50021D01*
X105317Y50010D01*
X105176Y50003D01*
X105035Y50000D01*
X104894Y50001D01*
X104754Y50006D01*
X104613Y50015D01*
X104473Y50028D01*
X104333Y50045D01*
X104193Y50065D01*
X104055Y50090D01*
X103917Y50119D01*
X103780Y50151D01*
X103644Y50187D01*
X103509Y50228D01*
X103375Y50272D01*
X103242Y50319D01*
X103111Y50371D01*
X102981Y50426D01*
X102853Y50484D01*
X102727Y50547D01*
X102602Y50612D01*
X102480Y50682D01*
X102359Y50754D01*
X102240Y50830D01*
X102124Y50910D01*
X102010Y50993D01*
X101898Y51078D01*
X101789Y51167D01*
X101682Y51259D01*
X101578Y51354D01*
X101477Y51452D01*
X101378Y51553D01*
X101283Y51656D01*
X101190Y51762D01*
X101100Y51871D01*
X101014Y51982D01*
X100930Y52095D01*
X100850Y52211D01*
X100773Y52329D01*
X100700Y52449D01*
X100629Y52572D01*
X100563Y52696D01*
X100500Y52822D01*
X100440Y52949D01*
X100384Y53078D01*
X100332Y53209D01*
X100283Y53341D01*
X100238Y53475D01*
X100197Y53610D01*
X100160Y53746D01*
X100126Y53882D01*
X100097Y54020D01*
X100071Y54159D01*
X100050Y54298D01*
X100032Y54438D01*
X100018Y54578D01*
X100008Y54718D01*
X100002Y54859D01*
X100000Y55000D01*
X105000Y265000D02*
X105002Y265141D01*
X105008Y265282D01*
X105018Y265422D01*
X105032Y265562D01*
X105050Y265702D01*
X105071Y265841D01*
X105097Y265980D01*
X105126Y266118D01*
X105160Y266254D01*
X105197Y266390D01*
X105238Y266525D01*
X105283Y266659D01*
X105332Y266791D01*
X105384Y266922D01*
X105440Y267051D01*
X105500Y267178D01*
X105563Y267304D01*
X105629Y267428D01*
X105700Y267551D01*
X105773Y267671D01*
X105850Y267789D01*
X105930Y267905D01*
X106014Y268018D01*
X106100Y268129D01*
X106190Y268238D01*
X106283Y268344D01*
X106378Y268447D01*
X106477Y268548D01*
X106578Y268646D01*
X106682Y268741D01*
X106789Y268833D01*
X106898Y268922D01*
X107010Y269007D01*
X107124Y269090D01*
X107240Y269170D01*
X107359Y269246D01*
X107480Y269318D01*
X107602Y269388D01*
X107727Y269453D01*
X107853Y269516D01*
X107981Y269574D01*
X108111Y269629D01*
X108242Y269681D01*
X108375Y269728D01*
X108509Y269772D01*
X108644Y269813D01*
X108780Y269849D01*
X108917Y269881D01*
X109055Y269910D01*
X109193Y269935D01*
X109333Y269955D01*
X109473Y269972D01*
X109613Y269985D01*
X109754Y269994D01*
X109894Y269999D01*
X110035Y270000D01*
X110176Y269997D01*
X110317Y269990D01*
X110457Y269979D01*
X110597Y269964D01*
X110737Y269945D01*
X110876Y269923D01*
X111014Y269896D01*
X111152Y269866D01*
X111288Y269831D01*
X111424Y269793D01*
X111558Y269751D01*
X111692Y269705D01*
X111824Y269656D01*
X111954Y269602D01*
X112083Y269545D01*
X112210Y269485D01*
X112336Y269421D01*
X112459Y269353D01*
X112581Y269282D01*
X112701Y269208D01*
X112818Y269130D01*
X112933Y269049D01*
X113046Y268965D01*
X113157Y268878D01*
X113265Y268787D01*
X113370Y268694D01*
X113473Y268597D01*
X113573Y268498D01*
X113670Y268396D01*
X113764Y268291D01*
X113855Y268184D01*
X113943Y268074D01*
X114028Y267962D01*
X114110Y267847D01*
X114189Y267730D01*
X114264Y267611D01*
X114336Y267490D01*
X114404Y267367D01*
X114469Y267242D01*
X114531Y267115D01*
X114588Y266986D01*
X114643Y266856D01*
X114693Y266725D01*
X114740Y266592D01*
X114783Y266458D01*
X114822Y266322D01*
X114857Y266186D01*
X114889Y266049D01*
X114916Y265911D01*
X114940Y265772D01*
X114960Y265632D01*
X114976Y265492D01*
X114988Y265352D01*
X114996Y265211D01*
X115000Y265070D01*
X115000Y264930D01*
X114996Y264789D01*
X114988Y264648D01*
X114976Y264508D01*
X114960Y264368D01*
X114940Y264228D01*
X114916Y264089D01*
X114889Y263951D01*
X114857Y263814D01*
X114822Y263678D01*
X114783Y263542D01*
X114740Y263408D01*
X114693Y263275D01*
X114643Y263144D01*
X114588Y263014D01*
X114531Y262885D01*
X114469Y262758D01*
X114404Y262633D01*
X114336Y262510D01*
X114264Y262389D01*
X114189Y262270D01*
X114110Y262153D01*
X114028Y262038D01*
X113943Y261926D01*
X113855Y261816D01*
X113764Y261709D01*
X113670Y261604D01*
X113573Y261502D01*
X113473Y261403D01*
X113370Y261306D01*
X113265Y261213D01*
X113157Y261122D01*
X113046Y261035D01*
X112933Y260951D01*
X112818Y260870D01*
X112701Y260792D01*
X112581Y260718D01*
X112459Y260647D01*
X112336Y260579D01*
X112210Y260515D01*
X112083Y260455D01*
X111954Y260398D01*
X111824Y260344D01*
X111692Y260295D01*
X111558Y260249D01*
X111424Y260207D01*
X111288Y260169D01*
X111152Y260134D01*
X111014Y260104D01*
X110876Y260077D01*
X110737Y260055D01*
X110597Y260036D01*
X110457Y260021D01*
X110317Y260010D01*
X110176Y260003D01*
X110035Y260000D01*
X109894Y260001D01*
X109754Y260006D01*
X109613Y260015D01*
X109473Y260028D01*
X109333Y260045D01*
X109193Y260065D01*
X109055Y260090D01*
X108917Y260119D01*
X108780Y260151D01*
X108644Y260187D01*
X108509Y260228D01*
X108375Y260272D01*
X108242Y260319D01*
X108111Y260371D01*
X107981Y260426D01*
X107853Y260484D01*
X107727Y260547D01*
X107602Y260612D01*
X107480Y260682D01*
X107359Y260754D01*
X107240Y260830D01*
X107124Y260910D01*
X107010Y260993D01*
X106898Y261078D01*
X106789Y261167D01*
X106682Y261259D01*
X106578Y261354D01*
X106477Y261452D01*
X106378Y261553D01*
X106283Y261656D01*
X106190Y261762D01*
X106100Y261871D01*
X106014Y261982D01*
X105930Y262095D01*
X105850Y262211D01*
X105773Y262329D01*
X105700Y262449D01*
X105629Y262572D01*
X105563Y262696D01*
X105500Y262822D01*
X105440Y262949D01*
X105384Y263078D01*
X105332Y263209D01*
X105283Y263341D01*
X105238Y263475D01*
X105197Y263610D01*
X105160Y263746D01*
X105126Y263882D01*
X105097Y264020D01*
X105071Y264159D01*
X105050Y264298D01*
X105032Y264438D01*
X105018Y264578D01*
X105008Y264718D01*
X105002Y264859D01*
X105000Y265000D01*
D12*
X250000Y390000D02*
X275000Y395000D01*
D13*
X275000Y385000D01*
D12*
X250000Y390000D01*
X295000Y255000D02*
X290000Y245000D01*
D13*
X300000Y245000D01*
D12*
X295000Y255000D01*
X5000Y255000D02*
X0Y245000D01*
D13*
X10000Y245000D01*
D12*
X5000Y255000D01*
D14*
X105254Y245842D02*
X105254Y240254D01*
X107738Y240254D01*
X112919Y244445D02*
X112917Y244518D01*
X112911Y244591D01*
X112902Y244664D01*
X112888Y244735D01*
X112871Y244807D01*
X112851Y244877D01*
X112826Y244946D01*
X112798Y245013D01*
X112767Y245079D01*
X112732Y245144D01*
X112694Y245206D01*
X112652Y245266D01*
X112608Y245324D01*
X112560Y245380D01*
X112510Y245433D01*
X112457Y245483D01*
X112401Y245531D01*
X112343Y245575D01*
X112283Y245617D01*
X112221Y245655D01*
X112156Y245690D01*
X112090Y245721D01*
X112023Y245749D01*
X111954Y245774D01*
X111884Y245794D01*
X111812Y245811D01*
X111741Y245825D01*
X111668Y245834D01*
X111595Y245840D01*
X111522Y245842D01*
X111438Y245840D01*
X111355Y245834D01*
X111272Y245825D01*
X111190Y245811D01*
X111108Y245794D01*
X111027Y245772D01*
X110947Y245747D01*
X110869Y245719D01*
X110791Y245687D01*
X110716Y245651D01*
X110642Y245612D01*
X110570Y245569D01*
X110500Y245523D01*
X110433Y245474D01*
X110367Y245421D01*
X110305Y245366D01*
X110245Y245308D01*
X110187Y245247D01*
X110133Y245184D01*
X110081Y245118D01*
X110033Y245050D01*
X109988Y244979D01*
X109946Y244907D01*
X109908Y244832D01*
X109873Y244756D01*
X109842Y244679D01*
X109814Y244600D01*
X112453Y243359D02*
X112507Y243412D01*
X112558Y243469D01*
X112606Y243528D01*
X112651Y243589D01*
X112692Y243652D01*
X112731Y243718D01*
X112766Y243785D01*
X112798Y243854D01*
X112826Y243925D01*
X112850Y243996D01*
X112871Y244069D01*
X112888Y244143D01*
X112902Y244218D01*
X112911Y244293D01*
X112917Y244369D01*
X112919Y244445D01*
X112454Y243358D02*
X109815Y240254D01*
X112919Y240254D01*
X116543Y242738D02*
X118406Y242738D01*
X116543Y242737D02*
X116473Y242739D01*
X116404Y242745D01*
X116335Y242755D01*
X116267Y242768D01*
X116199Y242786D01*
X116133Y242807D01*
X116068Y242832D01*
X116004Y242860D01*
X115942Y242892D01*
X115882Y242927D01*
X115824Y242966D01*
X115769Y243008D01*
X115715Y243053D01*
X115665Y243101D01*
X115617Y243151D01*
X115572Y243205D01*
X115530Y243260D01*
X115491Y243318D01*
X115456Y243378D01*
X115424Y243440D01*
X115396Y243504D01*
X115371Y243569D01*
X115350Y243635D01*
X115332Y243703D01*
X115319Y243771D01*
X115309Y243840D01*
X115303Y243909D01*
X115301Y243979D01*
X115301Y244290D01*
X115303Y244367D01*
X115309Y244445D01*
X115318Y244521D01*
X115332Y244598D01*
X115349Y244673D01*
X115370Y244747D01*
X115395Y244821D01*
X115423Y244893D01*
X115455Y244963D01*
X115490Y245032D01*
X115529Y245099D01*
X115571Y245164D01*
X115616Y245227D01*
X115664Y245288D01*
X115715Y245346D01*
X115769Y245401D01*
X115826Y245454D01*
X115885Y245503D01*
X115947Y245550D01*
X116011Y245594D01*
X116077Y245634D01*
X116145Y245671D01*
X116215Y245705D01*
X116286Y245735D01*
X116359Y245761D01*
X116433Y245784D01*
X116508Y245803D01*
X116583Y245818D01*
X116660Y245830D01*
X116737Y245838D01*
X116814Y245842D01*
X116892Y245842D01*
X116969Y245838D01*
X117046Y245830D01*
X117123Y245818D01*
X117198Y245803D01*
X117273Y245784D01*
X117347Y245761D01*
X117420Y245735D01*
X117491Y245705D01*
X117561Y245671D01*
X117629Y245634D01*
X117695Y245594D01*
X117759Y245550D01*
X117821Y245503D01*
X117880Y245454D01*
X117937Y245401D01*
X117991Y245346D01*
X118042Y245288D01*
X118090Y245227D01*
X118135Y245164D01*
X118177Y245099D01*
X118216Y245032D01*
X118251Y244963D01*
X118283Y244893D01*
X118311Y244821D01*
X118336Y244747D01*
X118357Y244673D01*
X118374Y244598D01*
X118388Y244521D01*
X118397Y244445D01*
X118403Y244367D01*
X118405Y244290D01*
X118406Y244290D02*
X118406Y242738D01*
X118404Y242640D01*
X118398Y242543D01*
X118389Y242446D01*
X118375Y242349D01*
X118358Y242253D01*
X118337Y242158D01*
X118313Y242064D01*
X118284Y241970D01*
X118252Y241878D01*
X118217Y241787D01*
X118178Y241698D01*
X118135Y241610D01*
X118089Y241524D01*
X118040Y241440D01*
X117987Y241358D01*
X117932Y241278D01*
X117873Y241200D01*
X117811Y241125D01*
X117746Y241052D01*
X117678Y240982D01*
X117608Y240914D01*
X117535Y240849D01*
X117460Y240787D01*
X117382Y240728D01*
X117302Y240673D01*
X117220Y240620D01*
X117136Y240571D01*
X117050Y240525D01*
X116962Y240482D01*
X116873Y240443D01*
X116782Y240408D01*
X116690Y240376D01*
X116596Y240347D01*
X116502Y240323D01*
X116407Y240302D01*
X116311Y240285D01*
X116214Y240271D01*
X116117Y240262D01*
X116019Y240256D01*
X115922Y240254D01*
X120788Y240254D02*
X122340Y240254D01*
X122417Y240256D01*
X122495Y240262D01*
X122571Y240271D01*
X122648Y240285D01*
X122723Y240302D01*
X122797Y240323D01*
X122871Y240348D01*
X122943Y240376D01*
X123013Y240408D01*
X123082Y240443D01*
X123149Y240482D01*
X123214Y240524D01*
X123277Y240569D01*
X123338Y240617D01*
X123396Y240668D01*
X123451Y240722D01*
X123504Y240779D01*
X123553Y240838D01*
X123600Y240900D01*
X123644Y240964D01*
X123684Y241030D01*
X123721Y241098D01*
X123755Y241168D01*
X123785Y241239D01*
X123811Y241312D01*
X123834Y241386D01*
X123853Y241461D01*
X123868Y241536D01*
X123880Y241613D01*
X123888Y241690D01*
X123892Y241767D01*
X123892Y241845D01*
X123888Y241922D01*
X123880Y241999D01*
X123868Y242076D01*
X123853Y242151D01*
X123834Y242226D01*
X123811Y242300D01*
X123785Y242373D01*
X123755Y242444D01*
X123721Y242514D01*
X123684Y242582D01*
X123644Y242648D01*
X123600Y242712D01*
X123553Y242774D01*
X123504Y242833D01*
X123451Y242890D01*
X123396Y242944D01*
X123338Y242995D01*
X123277Y243043D01*
X123214Y243088D01*
X123149Y243130D01*
X123082Y243169D01*
X123013Y243204D01*
X122943Y243236D01*
X122871Y243264D01*
X122797Y243289D01*
X122723Y243310D01*
X122648Y243327D01*
X122571Y243341D01*
X122495Y243350D01*
X122417Y243356D01*
X122340Y243358D01*
X122650Y245842D02*
X120788Y245842D01*
X122650Y245842D02*
X122720Y245840D01*
X122789Y245834D01*
X122858Y245824D01*
X122926Y245811D01*
X122994Y245793D01*
X123060Y245772D01*
X123125Y245747D01*
X123189Y245719D01*
X123251Y245687D01*
X123311Y245652D01*
X123369Y245613D01*
X123424Y245571D01*
X123478Y245526D01*
X123528Y245478D01*
X123576Y245428D01*
X123621Y245374D01*
X123663Y245319D01*
X123702Y245261D01*
X123737Y245201D01*
X123769Y245139D01*
X123797Y245075D01*
X123822Y245010D01*
X123843Y244944D01*
X123861Y244876D01*
X123874Y244808D01*
X123884Y244739D01*
X123890Y244670D01*
X123892Y244600D01*
X123890Y244530D01*
X123884Y244461D01*
X123874Y244392D01*
X123861Y244324D01*
X123843Y244256D01*
X123822Y244190D01*
X123797Y244125D01*
X123769Y244061D01*
X123737Y243999D01*
X123702Y243939D01*
X123663Y243881D01*
X123621Y243826D01*
X123576Y243772D01*
X123528Y243722D01*
X123478Y243674D01*
X123424Y243629D01*
X123369Y243587D01*
X123311Y243548D01*
X123251Y243513D01*
X123189Y243481D01*
X123125Y243453D01*
X123060Y243428D01*
X122994Y243407D01*
X122926Y243389D01*
X122858Y243376D01*
X122789Y243366D01*
X122720Y243360D01*
X122650Y243358D01*
X121409Y243358D01*
X126457Y245842D02*
X126457Y240254D01*
X126457Y245842D02*
X128009Y245842D01*
X128085Y245840D01*
X128161Y245835D01*
X128237Y245825D01*
X128312Y245812D01*
X128386Y245795D01*
X128460Y245775D01*
X128532Y245751D01*
X128603Y245724D01*
X128673Y245693D01*
X128741Y245659D01*
X128807Y245621D01*
X128871Y245580D01*
X128934Y245537D01*
X128994Y245490D01*
X129051Y245440D01*
X129106Y245387D01*
X129159Y245332D01*
X129209Y245275D01*
X129256Y245215D01*
X129299Y245152D01*
X129340Y245088D01*
X129378Y245022D01*
X129412Y244954D01*
X129443Y244884D01*
X129470Y244813D01*
X129494Y244740D01*
X129514Y244667D01*
X129531Y244593D01*
X129544Y244518D01*
X129554Y244442D01*
X129559Y244366D01*
X129561Y244290D01*
X129561Y241806D01*
X129559Y241727D01*
X129553Y241649D01*
X129543Y241571D01*
X129529Y241494D01*
X129511Y241417D01*
X129490Y241341D01*
X129464Y241267D01*
X129435Y241194D01*
X129402Y241123D01*
X129366Y241053D01*
X129326Y240985D01*
X129283Y240919D01*
X129236Y240856D01*
X129187Y240795D01*
X129134Y240737D01*
X129078Y240681D01*
X129020Y240628D01*
X128959Y240579D01*
X128896Y240532D01*
X128830Y240489D01*
X128762Y240449D01*
X128693Y240413D01*
X128621Y240380D01*
X128548Y240351D01*
X128474Y240325D01*
X128398Y240304D01*
X128321Y240286D01*
X128244Y240272D01*
X128166Y240262D01*
X128088Y240256D01*
X128009Y240254D01*
X126457Y240254D01*
X132309Y240254D02*
X132309Y245842D01*
X133861Y245842D01*
X133937Y245840D01*
X134013Y245835D01*
X134089Y245825D01*
X134164Y245812D01*
X134238Y245795D01*
X134312Y245775D01*
X134384Y245751D01*
X134455Y245724D01*
X134525Y245693D01*
X134593Y245659D01*
X134659Y245621D01*
X134723Y245580D01*
X134786Y245537D01*
X134846Y245490D01*
X134903Y245440D01*
X134958Y245387D01*
X135011Y245332D01*
X135061Y245275D01*
X135108Y245215D01*
X135151Y245152D01*
X135192Y245088D01*
X135230Y245022D01*
X135264Y244954D01*
X135295Y244884D01*
X135322Y244813D01*
X135346Y244740D01*
X135366Y244667D01*
X135383Y244593D01*
X135396Y244518D01*
X135406Y244442D01*
X135411Y244366D01*
X135413Y244290D01*
X135413Y241806D01*
X135411Y241727D01*
X135405Y241649D01*
X135395Y241571D01*
X135381Y241494D01*
X135363Y241417D01*
X135342Y241341D01*
X135316Y241267D01*
X135287Y241194D01*
X135254Y241123D01*
X135218Y241053D01*
X135178Y240985D01*
X135135Y240919D01*
X135088Y240856D01*
X135039Y240795D01*
X134986Y240737D01*
X134930Y240681D01*
X134872Y240628D01*
X134811Y240579D01*
X134748Y240532D01*
X134682Y240489D01*
X134614Y240449D01*
X134545Y240413D01*
X134473Y240380D01*
X134400Y240351D01*
X134326Y240325D01*
X134250Y240304D01*
X134173Y240286D01*
X134096Y240272D01*
X134018Y240262D01*
X133940Y240256D01*
X133861Y240254D01*
X132309Y240254D01*
D15*
X286700Y204000D02*
X286700Y344000D01*
X241700Y344000D01*
X241700Y204000D02*
X286700Y204000D01*
X241700Y204000D02*
X241700Y344000D01*
D16*
X284200Y274000D03*
D14*
X251446Y269254D02*
X246954Y269254D01*
X249450Y270751D01*
X246954Y272249D01*
X251446Y272249D01*
X250198Y274454D02*
X248202Y274454D01*
X248202Y274453D02*
X248133Y274455D01*
X248065Y274461D01*
X247997Y274470D01*
X247929Y274483D01*
X247862Y274500D01*
X247797Y274521D01*
X247732Y274545D01*
X247669Y274572D01*
X247608Y274603D01*
X247548Y274638D01*
X247491Y274675D01*
X247435Y274716D01*
X247382Y274760D01*
X247332Y274806D01*
X247284Y274856D01*
X247239Y274908D01*
X247196Y274962D01*
X247157Y275018D01*
X247121Y275077D01*
X247088Y275137D01*
X247059Y275200D01*
X247033Y275263D01*
X247011Y275328D01*
X246992Y275395D01*
X246977Y275462D01*
X246966Y275530D01*
X246958Y275598D01*
X246954Y275667D01*
X246954Y275735D01*
X246958Y275804D01*
X246966Y275872D01*
X246977Y275940D01*
X246992Y276007D01*
X247011Y276074D01*
X247033Y276139D01*
X247059Y276202D01*
X247088Y276265D01*
X247121Y276325D01*
X247157Y276384D01*
X247196Y276440D01*
X247239Y276494D01*
X247284Y276546D01*
X247332Y276596D01*
X247382Y276642D01*
X247435Y276686D01*
X247491Y276727D01*
X247548Y276764D01*
X247608Y276799D01*
X247669Y276830D01*
X247732Y276857D01*
X247797Y276881D01*
X247862Y276902D01*
X247929Y276919D01*
X247997Y276932D01*
X248065Y276941D01*
X248133Y276947D01*
X248202Y276949D01*
X250198Y276949D01*
X250267Y276947D01*
X250335Y276941D01*
X250403Y276932D01*
X250471Y276919D01*
X250538Y276902D01*
X250603Y276881D01*
X250668Y276857D01*
X250731Y276830D01*
X250792Y276799D01*
X250852Y276764D01*
X250909Y276727D01*
X250965Y276686D01*
X251018Y276642D01*
X251068Y276596D01*
X251116Y276546D01*
X251161Y276494D01*
X251204Y276440D01*
X251243Y276384D01*
X251279Y276325D01*
X251312Y276265D01*
X251341Y276202D01*
X251367Y276139D01*
X251389Y276074D01*
X251408Y276007D01*
X251423Y275940D01*
X251434Y275872D01*
X251442Y275804D01*
X251446Y275735D01*
X251446Y275667D01*
X251442Y275598D01*
X251434Y275530D01*
X251423Y275462D01*
X251408Y275395D01*
X251389Y275328D01*
X251367Y275263D01*
X251341Y275200D01*
X251312Y275137D01*
X251279Y275077D01*
X251243Y275018D01*
X251204Y274962D01*
X251161Y274908D01*
X251116Y274856D01*
X251068Y274806D01*
X251018Y274760D01*
X250965Y274716D01*
X250909Y274675D01*
X250852Y274638D01*
X250792Y274603D01*
X250731Y274572D01*
X250668Y274545D01*
X250603Y274521D01*
X250538Y274500D01*
X250471Y274483D01*
X250403Y274470D01*
X250335Y274461D01*
X250267Y274455D01*
X250198Y274453D01*
X251446Y279901D02*
X246954Y279901D01*
X246954Y278654D02*
X246954Y281149D01*
X248202Y282853D02*
X250198Y282853D01*
X248202Y282853D02*
X248133Y282855D01*
X248065Y282861D01*
X247997Y282870D01*
X247929Y282883D01*
X247862Y282900D01*
X247797Y282921D01*
X247732Y282945D01*
X247669Y282972D01*
X247608Y283003D01*
X247548Y283038D01*
X247491Y283075D01*
X247435Y283116D01*
X247382Y283160D01*
X247332Y283206D01*
X247284Y283256D01*
X247239Y283308D01*
X247196Y283362D01*
X247157Y283418D01*
X247121Y283477D01*
X247088Y283537D01*
X247059Y283600D01*
X247033Y283663D01*
X247011Y283728D01*
X246992Y283795D01*
X246977Y283862D01*
X246966Y283930D01*
X246958Y283998D01*
X246954Y284067D01*
X246954Y284135D01*
X246958Y284204D01*
X246966Y284272D01*
X246977Y284340D01*
X246992Y284407D01*
X247011Y284474D01*
X247033Y284539D01*
X247059Y284602D01*
X247088Y284665D01*
X247121Y284725D01*
X247157Y284784D01*
X247196Y284840D01*
X247239Y284894D01*
X247284Y284946D01*
X247332Y284996D01*
X247382Y285042D01*
X247435Y285086D01*
X247491Y285127D01*
X247548Y285164D01*
X247608Y285199D01*
X247669Y285230D01*
X247732Y285257D01*
X247797Y285281D01*
X247862Y285302D01*
X247929Y285319D01*
X247997Y285332D01*
X248065Y285341D01*
X248133Y285347D01*
X248202Y285349D01*
X250198Y285349D01*
X250267Y285347D01*
X250335Y285341D01*
X250403Y285332D01*
X250471Y285319D01*
X250538Y285302D01*
X250603Y285281D01*
X250668Y285257D01*
X250731Y285230D01*
X250792Y285199D01*
X250852Y285164D01*
X250909Y285127D01*
X250965Y285086D01*
X251018Y285042D01*
X251068Y284996D01*
X251116Y284946D01*
X251161Y284894D01*
X251204Y284840D01*
X251243Y284784D01*
X251279Y284725D01*
X251312Y284665D01*
X251341Y284602D01*
X251367Y284539D01*
X251389Y284474D01*
X251408Y284407D01*
X251423Y284340D01*
X251434Y284272D01*
X251442Y284204D01*
X251446Y284135D01*
X251446Y284067D01*
X251442Y283998D01*
X251434Y283930D01*
X251423Y283862D01*
X251408Y283795D01*
X251389Y283728D01*
X251367Y283663D01*
X251341Y283600D01*
X251312Y283537D01*
X251279Y283477D01*
X251243Y283418D01*
X251204Y283362D01*
X251161Y283308D01*
X251116Y283256D01*
X251068Y283206D01*
X251018Y283160D01*
X250965Y283116D01*
X250909Y283075D01*
X250852Y283038D01*
X250792Y283003D01*
X250731Y282972D01*
X250668Y282945D01*
X250603Y282921D01*
X250538Y282900D01*
X250471Y282883D01*
X250403Y282870D01*
X250335Y282861D01*
X250267Y282855D01*
X250198Y282853D01*
X251446Y287536D02*
X246954Y287536D01*
X246954Y288784D01*
X246956Y288853D01*
X246962Y288921D01*
X246971Y288989D01*
X246984Y289057D01*
X247001Y289124D01*
X247022Y289189D01*
X247046Y289254D01*
X247073Y289317D01*
X247104Y289378D01*
X247139Y289438D01*
X247176Y289495D01*
X247217Y289551D01*
X247261Y289604D01*
X247307Y289654D01*
X247357Y289702D01*
X247409Y289747D01*
X247463Y289790D01*
X247519Y289829D01*
X247578Y289865D01*
X247638Y289898D01*
X247701Y289927D01*
X247764Y289953D01*
X247829Y289975D01*
X247896Y289994D01*
X247963Y290009D01*
X248031Y290020D01*
X248099Y290028D01*
X248168Y290032D01*
X248236Y290032D01*
X248305Y290028D01*
X248373Y290020D01*
X248441Y290009D01*
X248508Y289994D01*
X248575Y289975D01*
X248640Y289953D01*
X248703Y289927D01*
X248766Y289898D01*
X248826Y289865D01*
X248885Y289829D01*
X248941Y289790D01*
X248995Y289747D01*
X249047Y289702D01*
X249097Y289654D01*
X249143Y289604D01*
X249187Y289551D01*
X249228Y289495D01*
X249265Y289438D01*
X249300Y289378D01*
X249331Y289317D01*
X249358Y289254D01*
X249382Y289189D01*
X249403Y289124D01*
X249420Y289057D01*
X249433Y288989D01*
X249442Y288921D01*
X249448Y288853D01*
X249450Y288784D01*
X249450Y287536D01*
X249450Y289034D02*
X251446Y290032D01*
X247952Y292003D02*
X246954Y293251D01*
X251446Y293251D01*
X251446Y292003D02*
X251446Y294499D01*
D15*
X46500Y341000D02*
X46500Y201000D01*
X91500Y201000D01*
X91500Y341000D02*
X46500Y341000D01*
X91500Y341000D02*
X91500Y201000D01*
D16*
X49000Y271000D03*
D14*
X81754Y310501D02*
X86246Y310501D01*
X84250Y311998D02*
X81754Y310501D01*
X84250Y311998D02*
X81754Y313496D01*
X86246Y313496D01*
X84998Y315701D02*
X83002Y315701D01*
X83002Y315700D02*
X82933Y315702D01*
X82865Y315708D01*
X82797Y315717D01*
X82729Y315730D01*
X82662Y315747D01*
X82597Y315768D01*
X82532Y315792D01*
X82469Y315819D01*
X82408Y315850D01*
X82348Y315885D01*
X82291Y315922D01*
X82235Y315963D01*
X82182Y316007D01*
X82132Y316053D01*
X82084Y316103D01*
X82039Y316155D01*
X81996Y316209D01*
X81957Y316265D01*
X81921Y316324D01*
X81888Y316384D01*
X81859Y316447D01*
X81833Y316510D01*
X81811Y316575D01*
X81792Y316642D01*
X81777Y316709D01*
X81766Y316777D01*
X81758Y316845D01*
X81754Y316914D01*
X81754Y316982D01*
X81758Y317051D01*
X81766Y317119D01*
X81777Y317187D01*
X81792Y317254D01*
X81811Y317321D01*
X81833Y317386D01*
X81859Y317449D01*
X81888Y317512D01*
X81921Y317572D01*
X81957Y317631D01*
X81996Y317687D01*
X82039Y317741D01*
X82084Y317793D01*
X82132Y317843D01*
X82182Y317889D01*
X82235Y317933D01*
X82291Y317974D01*
X82348Y318011D01*
X82408Y318046D01*
X82469Y318077D01*
X82532Y318104D01*
X82597Y318128D01*
X82662Y318149D01*
X82729Y318166D01*
X82797Y318179D01*
X82865Y318188D01*
X82933Y318194D01*
X83002Y318196D01*
X84998Y318196D01*
X85067Y318194D01*
X85135Y318188D01*
X85203Y318179D01*
X85271Y318166D01*
X85338Y318149D01*
X85403Y318128D01*
X85468Y318104D01*
X85531Y318077D01*
X85592Y318046D01*
X85652Y318011D01*
X85709Y317974D01*
X85765Y317933D01*
X85818Y317889D01*
X85868Y317843D01*
X85916Y317793D01*
X85961Y317741D01*
X86004Y317687D01*
X86043Y317631D01*
X86079Y317572D01*
X86112Y317512D01*
X86141Y317449D01*
X86167Y317386D01*
X86189Y317321D01*
X86208Y317254D01*
X86223Y317187D01*
X86234Y317119D01*
X86242Y317051D01*
X86246Y316982D01*
X86246Y316914D01*
X86242Y316845D01*
X86234Y316777D01*
X86223Y316709D01*
X86208Y316642D01*
X86189Y316575D01*
X86167Y316510D01*
X86141Y316447D01*
X86112Y316384D01*
X86079Y316324D01*
X86043Y316265D01*
X86004Y316209D01*
X85961Y316155D01*
X85916Y316103D01*
X85868Y316053D01*
X85818Y316007D01*
X85765Y315963D01*
X85709Y315922D01*
X85652Y315885D01*
X85592Y315850D01*
X85531Y315819D01*
X85468Y315792D01*
X85403Y315768D01*
X85338Y315747D01*
X85271Y315730D01*
X85203Y315717D01*
X85135Y315708D01*
X85067Y315702D01*
X84998Y315700D01*
X86246Y321148D02*
X81754Y321148D01*
X81754Y319901D02*
X81754Y322396D01*
X83002Y324101D02*
X84998Y324101D01*
X83002Y324100D02*
X82933Y324102D01*
X82865Y324108D01*
X82797Y324117D01*
X82729Y324130D01*
X82662Y324147D01*
X82597Y324168D01*
X82532Y324192D01*
X82469Y324219D01*
X82408Y324250D01*
X82348Y324285D01*
X82291Y324322D01*
X82235Y324363D01*
X82182Y324407D01*
X82132Y324453D01*
X82084Y324503D01*
X82039Y324555D01*
X81996Y324609D01*
X81957Y324665D01*
X81921Y324724D01*
X81888Y324784D01*
X81859Y324847D01*
X81833Y324910D01*
X81811Y324975D01*
X81792Y325042D01*
X81777Y325109D01*
X81766Y325177D01*
X81758Y325245D01*
X81754Y325314D01*
X81754Y325382D01*
X81758Y325451D01*
X81766Y325519D01*
X81777Y325587D01*
X81792Y325654D01*
X81811Y325721D01*
X81833Y325786D01*
X81859Y325849D01*
X81888Y325912D01*
X81921Y325972D01*
X81957Y326031D01*
X81996Y326087D01*
X82039Y326141D01*
X82084Y326193D01*
X82132Y326243D01*
X82182Y326289D01*
X82235Y326333D01*
X82291Y326374D01*
X82348Y326411D01*
X82408Y326446D01*
X82469Y326477D01*
X82532Y326504D01*
X82597Y326528D01*
X82662Y326549D01*
X82729Y326566D01*
X82797Y326579D01*
X82865Y326588D01*
X82933Y326594D01*
X83002Y326596D01*
X84998Y326596D01*
X85067Y326594D01*
X85135Y326588D01*
X85203Y326579D01*
X85271Y326566D01*
X85338Y326549D01*
X85403Y326528D01*
X85468Y326504D01*
X85531Y326477D01*
X85592Y326446D01*
X85652Y326411D01*
X85709Y326374D01*
X85765Y326333D01*
X85818Y326289D01*
X85868Y326243D01*
X85916Y326193D01*
X85961Y326141D01*
X86004Y326087D01*
X86043Y326031D01*
X86079Y325972D01*
X86112Y325912D01*
X86141Y325849D01*
X86167Y325786D01*
X86189Y325721D01*
X86208Y325654D01*
X86223Y325587D01*
X86234Y325519D01*
X86242Y325451D01*
X86246Y325382D01*
X86246Y325314D01*
X86242Y325245D01*
X86234Y325177D01*
X86223Y325109D01*
X86208Y325042D01*
X86189Y324975D01*
X86167Y324910D01*
X86141Y324847D01*
X86112Y324784D01*
X86079Y324724D01*
X86043Y324665D01*
X86004Y324609D01*
X85961Y324555D01*
X85916Y324503D01*
X85868Y324453D01*
X85818Y324407D01*
X85765Y324363D01*
X85709Y324322D01*
X85652Y324285D01*
X85592Y324250D01*
X85531Y324219D01*
X85468Y324192D01*
X85403Y324168D01*
X85338Y324147D01*
X85271Y324130D01*
X85203Y324117D01*
X85135Y324108D01*
X85067Y324102D01*
X84998Y324100D01*
X86246Y328783D02*
X81754Y328783D01*
X81754Y330031D01*
X81756Y330100D01*
X81762Y330168D01*
X81771Y330236D01*
X81784Y330304D01*
X81801Y330371D01*
X81822Y330436D01*
X81846Y330501D01*
X81873Y330564D01*
X81904Y330625D01*
X81939Y330685D01*
X81976Y330742D01*
X82017Y330798D01*
X82061Y330851D01*
X82107Y330901D01*
X82157Y330949D01*
X82209Y330994D01*
X82263Y331037D01*
X82319Y331076D01*
X82378Y331112D01*
X82438Y331145D01*
X82501Y331174D01*
X82564Y331200D01*
X82629Y331222D01*
X82696Y331241D01*
X82763Y331256D01*
X82831Y331267D01*
X82899Y331275D01*
X82968Y331279D01*
X83036Y331279D01*
X83105Y331275D01*
X83173Y331267D01*
X83241Y331256D01*
X83308Y331241D01*
X83375Y331222D01*
X83440Y331200D01*
X83503Y331174D01*
X83566Y331145D01*
X83626Y331112D01*
X83685Y331076D01*
X83741Y331037D01*
X83795Y330994D01*
X83847Y330949D01*
X83897Y330901D01*
X83943Y330851D01*
X83987Y330798D01*
X84028Y330742D01*
X84065Y330685D01*
X84100Y330625D01*
X84131Y330564D01*
X84158Y330501D01*
X84182Y330436D01*
X84203Y330371D01*
X84220Y330304D01*
X84233Y330236D01*
X84242Y330168D01*
X84248Y330100D01*
X84250Y330031D01*
X84250Y328783D01*
X84250Y330281D02*
X86246Y331279D01*
X82877Y335746D02*
X82812Y335744D01*
X82747Y335738D01*
X82682Y335729D01*
X82618Y335716D01*
X82555Y335699D01*
X82493Y335678D01*
X82432Y335654D01*
X82373Y335627D01*
X82316Y335596D01*
X82260Y335561D01*
X82206Y335524D01*
X82155Y335483D01*
X82106Y335440D01*
X82060Y335394D01*
X82017Y335345D01*
X81976Y335294D01*
X81939Y335240D01*
X81904Y335185D01*
X81873Y335127D01*
X81846Y335068D01*
X81822Y335007D01*
X81801Y334945D01*
X81784Y334882D01*
X81771Y334818D01*
X81762Y334753D01*
X81756Y334688D01*
X81754Y334623D01*
X81756Y334550D01*
X81761Y334478D01*
X81770Y334406D01*
X81783Y334335D01*
X81799Y334264D01*
X81819Y334194D01*
X81843Y334125D01*
X81869Y334058D01*
X81899Y333992D01*
X81933Y333927D01*
X81969Y333865D01*
X82009Y333804D01*
X82052Y333745D01*
X82097Y333689D01*
X82146Y333635D01*
X82197Y333583D01*
X82250Y333534D01*
X82306Y333488D01*
X82364Y333444D01*
X82425Y333404D01*
X82487Y333367D01*
X82551Y333333D01*
X82617Y333302D01*
X82684Y333274D01*
X82752Y333250D01*
X83750Y335372D02*
X83704Y335418D01*
X83656Y335461D01*
X83605Y335502D01*
X83552Y335540D01*
X83497Y335575D01*
X83440Y335606D01*
X83382Y335635D01*
X83322Y335661D01*
X83261Y335683D01*
X83199Y335702D01*
X83135Y335718D01*
X83071Y335730D01*
X83007Y335739D01*
X82942Y335744D01*
X82877Y335746D01*
X83750Y335372D02*
X86246Y333250D01*
X86246Y335746D01*
D15*
X142600Y141700D02*
X301100Y141700D01*
X316600Y157700D02*
X316600Y190700D01*
X279600Y147200D02*
X284600Y142200D01*
X279600Y147200D02*
X274600Y142200D01*
X259600Y142200D02*
X254600Y147200D01*
X249600Y142200D01*
X234600Y142200D02*
X229600Y147200D01*
X224600Y142200D01*
X209600Y142200D02*
X204600Y147200D01*
X184600Y142200D02*
X179600Y147200D01*
X199600Y142200D02*
X204600Y147200D01*
X179600Y147200D02*
X174600Y142200D01*
X301100Y141700D02*
X316600Y157200D01*
X316600Y190700D02*
X142600Y190700D01*
X142600Y141700D01*
D14*
X151176Y184554D02*
X151176Y189046D01*
X152424Y189046D01*
X152493Y189044D01*
X152561Y189038D01*
X152629Y189029D01*
X152697Y189016D01*
X152764Y188999D01*
X152829Y188978D01*
X152894Y188954D01*
X152957Y188927D01*
X153018Y188896D01*
X153078Y188861D01*
X153135Y188824D01*
X153191Y188783D01*
X153244Y188739D01*
X153294Y188693D01*
X153342Y188643D01*
X153387Y188591D01*
X153430Y188537D01*
X153469Y188481D01*
X153505Y188422D01*
X153538Y188362D01*
X153567Y188299D01*
X153593Y188236D01*
X153615Y188171D01*
X153634Y188104D01*
X153649Y188037D01*
X153660Y187969D01*
X153668Y187901D01*
X153672Y187832D01*
X153672Y187764D01*
X153668Y187695D01*
X153660Y187627D01*
X153649Y187559D01*
X153634Y187492D01*
X153615Y187425D01*
X153593Y187360D01*
X153567Y187297D01*
X153538Y187234D01*
X153505Y187174D01*
X153469Y187115D01*
X153430Y187059D01*
X153387Y187005D01*
X153342Y186953D01*
X153294Y186903D01*
X153244Y186857D01*
X153191Y186813D01*
X153135Y186772D01*
X153078Y186735D01*
X153018Y186700D01*
X152957Y186669D01*
X152894Y186642D01*
X152829Y186618D01*
X152764Y186597D01*
X152697Y186580D01*
X152629Y186567D01*
X152561Y186558D01*
X152493Y186552D01*
X152424Y186550D01*
X151176Y186550D01*
X155633Y184554D02*
X155633Y189046D01*
X156881Y189046D01*
X156950Y189044D01*
X157018Y189038D01*
X157086Y189029D01*
X157154Y189016D01*
X157221Y188999D01*
X157286Y188978D01*
X157351Y188954D01*
X157414Y188927D01*
X157475Y188896D01*
X157535Y188861D01*
X157592Y188824D01*
X157648Y188783D01*
X157701Y188739D01*
X157751Y188693D01*
X157799Y188643D01*
X157844Y188591D01*
X157887Y188537D01*
X157926Y188481D01*
X157962Y188422D01*
X157995Y188362D01*
X158024Y188299D01*
X158050Y188236D01*
X158072Y188171D01*
X158091Y188104D01*
X158106Y188037D01*
X158117Y187969D01*
X158125Y187901D01*
X158129Y187832D01*
X158129Y187764D01*
X158125Y187695D01*
X158117Y187627D01*
X158106Y187559D01*
X158091Y187492D01*
X158072Y187425D01*
X158050Y187360D01*
X158024Y187297D01*
X157995Y187234D01*
X157962Y187174D01*
X157926Y187115D01*
X157887Y187059D01*
X157844Y187005D01*
X157799Y186953D01*
X157751Y186903D01*
X157701Y186857D01*
X157648Y186813D01*
X157592Y186772D01*
X157535Y186735D01*
X157475Y186700D01*
X157414Y186669D01*
X157351Y186642D01*
X157286Y186618D01*
X157221Y186597D01*
X157154Y186580D01*
X157086Y186567D01*
X157018Y186558D01*
X156950Y186552D01*
X156881Y186550D01*
X155633Y186550D01*
X157131Y186550D02*
X158129Y184554D01*
X160101Y185802D02*
X160101Y187798D01*
X160100Y187798D02*
X160102Y187867D01*
X160108Y187935D01*
X160117Y188003D01*
X160130Y188071D01*
X160147Y188138D01*
X160168Y188203D01*
X160192Y188268D01*
X160219Y188331D01*
X160250Y188392D01*
X160285Y188452D01*
X160322Y188509D01*
X160363Y188565D01*
X160407Y188618D01*
X160453Y188668D01*
X160503Y188716D01*
X160555Y188761D01*
X160609Y188804D01*
X160665Y188843D01*
X160724Y188879D01*
X160784Y188912D01*
X160847Y188941D01*
X160910Y188967D01*
X160975Y188989D01*
X161042Y189008D01*
X161109Y189023D01*
X161177Y189034D01*
X161245Y189042D01*
X161314Y189046D01*
X161382Y189046D01*
X161451Y189042D01*
X161519Y189034D01*
X161587Y189023D01*
X161654Y189008D01*
X161721Y188989D01*
X161786Y188967D01*
X161849Y188941D01*
X161912Y188912D01*
X161972Y188879D01*
X162031Y188843D01*
X162087Y188804D01*
X162141Y188761D01*
X162193Y188716D01*
X162243Y188668D01*
X162289Y188618D01*
X162333Y188565D01*
X162374Y188509D01*
X162411Y188452D01*
X162446Y188392D01*
X162477Y188331D01*
X162504Y188268D01*
X162528Y188203D01*
X162549Y188138D01*
X162566Y188071D01*
X162579Y188003D01*
X162588Y187935D01*
X162594Y187867D01*
X162596Y187798D01*
X162596Y185802D01*
X162594Y185733D01*
X162588Y185665D01*
X162579Y185597D01*
X162566Y185529D01*
X162549Y185462D01*
X162528Y185397D01*
X162504Y185332D01*
X162477Y185269D01*
X162446Y185208D01*
X162411Y185148D01*
X162374Y185091D01*
X162333Y185035D01*
X162289Y184982D01*
X162243Y184932D01*
X162193Y184884D01*
X162141Y184839D01*
X162087Y184796D01*
X162031Y184757D01*
X161972Y184721D01*
X161912Y184688D01*
X161849Y184659D01*
X161786Y184633D01*
X161721Y184611D01*
X161654Y184592D01*
X161587Y184577D01*
X161519Y184566D01*
X161451Y184558D01*
X161382Y184554D01*
X161314Y184554D01*
X161245Y184558D01*
X161177Y184566D01*
X161109Y184577D01*
X161042Y184592D01*
X160975Y184611D01*
X160910Y184633D01*
X160847Y184659D01*
X160784Y184688D01*
X160724Y184721D01*
X160665Y184757D01*
X160609Y184796D01*
X160555Y184839D01*
X160503Y184884D01*
X160453Y184932D01*
X160407Y184982D01*
X160363Y185035D01*
X160322Y185091D01*
X160285Y185148D01*
X160250Y185208D01*
X160219Y185269D01*
X160192Y185332D01*
X160168Y185397D01*
X160147Y185462D01*
X160130Y185529D01*
X160117Y185597D01*
X160108Y185665D01*
X160102Y185733D01*
X160100Y185802D01*
X166497Y187050D02*
X167246Y187050D01*
X167246Y184554D01*
X165749Y184554D01*
X165689Y184556D01*
X165629Y184561D01*
X165569Y184570D01*
X165510Y184583D01*
X165452Y184599D01*
X165395Y184619D01*
X165339Y184642D01*
X165285Y184668D01*
X165233Y184698D01*
X165182Y184731D01*
X165134Y184766D01*
X165087Y184805D01*
X165043Y184846D01*
X165002Y184890D01*
X164963Y184937D01*
X164928Y184985D01*
X164895Y185036D01*
X164865Y185088D01*
X164839Y185142D01*
X164816Y185198D01*
X164796Y185255D01*
X164780Y185313D01*
X164767Y185372D01*
X164758Y185432D01*
X164753Y185492D01*
X164751Y185552D01*
X164750Y185552D02*
X164750Y188048D01*
X164751Y188048D02*
X164753Y188111D01*
X164759Y188173D01*
X164769Y188235D01*
X164782Y188296D01*
X164800Y188356D01*
X164821Y188415D01*
X164846Y188473D01*
X164874Y188529D01*
X164906Y188583D01*
X164942Y188635D01*
X164980Y188684D01*
X165021Y188731D01*
X165066Y188775D01*
X165113Y188817D01*
X165162Y188855D01*
X165214Y188891D01*
X165268Y188923D01*
X165324Y188951D01*
X165382Y188976D01*
X165441Y188997D01*
X165501Y189015D01*
X165562Y189028D01*
X165624Y189038D01*
X165686Y189044D01*
X165749Y189046D01*
X167246Y189046D01*
D15*
X142600Y40100D02*
X301100Y40100D01*
X316600Y56100D02*
X316600Y89100D01*
X279600Y45600D02*
X284600Y40600D01*
X279600Y45600D02*
X274600Y40600D01*
X259600Y40600D02*
X254600Y45600D01*
X249600Y40600D01*
X234600Y40600D02*
X229600Y45600D01*
X224600Y40600D01*
X209600Y40600D02*
X204600Y45600D01*
X184600Y40600D02*
X179600Y45600D01*
X199600Y40600D02*
X204600Y45600D01*
X179600Y45600D02*
X174600Y40600D01*
X301100Y40100D02*
X316600Y55600D01*
X316600Y89100D02*
X142600Y89100D01*
X142600Y40100D01*
D14*
X147376Y77954D02*
X147376Y82446D01*
X148624Y82446D01*
X148693Y82444D01*
X148761Y82438D01*
X148829Y82429D01*
X148897Y82416D01*
X148964Y82399D01*
X149029Y82378D01*
X149094Y82354D01*
X149157Y82327D01*
X149218Y82296D01*
X149278Y82261D01*
X149335Y82224D01*
X149391Y82183D01*
X149444Y82139D01*
X149494Y82093D01*
X149542Y82043D01*
X149587Y81991D01*
X149630Y81937D01*
X149669Y81881D01*
X149705Y81822D01*
X149738Y81762D01*
X149767Y81699D01*
X149793Y81636D01*
X149815Y81571D01*
X149834Y81504D01*
X149849Y81437D01*
X149860Y81369D01*
X149868Y81301D01*
X149872Y81232D01*
X149872Y81164D01*
X149868Y81095D01*
X149860Y81027D01*
X149849Y80959D01*
X149834Y80892D01*
X149815Y80825D01*
X149793Y80760D01*
X149767Y80697D01*
X149738Y80634D01*
X149705Y80574D01*
X149669Y80515D01*
X149630Y80459D01*
X149587Y80405D01*
X149542Y80353D01*
X149494Y80303D01*
X149444Y80257D01*
X149391Y80213D01*
X149335Y80172D01*
X149278Y80135D01*
X149218Y80100D01*
X149157Y80069D01*
X149094Y80042D01*
X149029Y80018D01*
X148964Y79997D01*
X148897Y79980D01*
X148829Y79967D01*
X148761Y79958D01*
X148693Y79952D01*
X148624Y79950D01*
X147376Y79950D01*
X151502Y82446D02*
X152500Y77954D01*
X153498Y80949D01*
X154497Y77954D01*
X155495Y82446D01*
X157534Y82446D02*
X157534Y77954D01*
X157534Y82446D02*
X158781Y82446D01*
X158850Y82444D01*
X158918Y82438D01*
X158986Y82429D01*
X159054Y82416D01*
X159121Y82399D01*
X159186Y82378D01*
X159251Y82354D01*
X159314Y82327D01*
X159375Y82296D01*
X159435Y82261D01*
X159492Y82224D01*
X159548Y82183D01*
X159601Y82139D01*
X159651Y82093D01*
X159699Y82043D01*
X159744Y81991D01*
X159787Y81937D01*
X159826Y81881D01*
X159862Y81822D01*
X159895Y81762D01*
X159924Y81699D01*
X159950Y81636D01*
X159972Y81571D01*
X159991Y81504D01*
X160006Y81437D01*
X160017Y81369D01*
X160025Y81301D01*
X160029Y81232D01*
X160029Y81164D01*
X160025Y81095D01*
X160017Y81027D01*
X160006Y80959D01*
X159991Y80892D01*
X159972Y80825D01*
X159950Y80760D01*
X159924Y80697D01*
X159895Y80634D01*
X159862Y80574D01*
X159826Y80515D01*
X159787Y80459D01*
X159744Y80405D01*
X159699Y80353D01*
X159651Y80303D01*
X159601Y80257D01*
X159548Y80213D01*
X159492Y80172D01*
X159435Y80135D01*
X159375Y80100D01*
X159314Y80069D01*
X159251Y80042D01*
X159186Y80018D01*
X159121Y79997D01*
X159054Y79980D01*
X158986Y79967D01*
X158918Y79958D01*
X158850Y79952D01*
X158781Y79950D01*
X157534Y79950D01*
X159031Y79950D02*
X160029Y77954D01*
X161800Y77455D02*
X163797Y77455D01*
X165751Y77954D02*
X165751Y82446D01*
X166998Y82446D01*
X167066Y82444D01*
X167133Y82439D01*
X167200Y82430D01*
X167266Y82417D01*
X167332Y82401D01*
X167396Y82381D01*
X167460Y82357D01*
X167522Y82331D01*
X167583Y82301D01*
X167641Y82267D01*
X167698Y82231D01*
X167753Y82192D01*
X167806Y82149D01*
X167856Y82104D01*
X167904Y82056D01*
X167949Y82006D01*
X167992Y81953D01*
X168031Y81898D01*
X168067Y81841D01*
X168101Y81783D01*
X168131Y81722D01*
X168157Y81660D01*
X168181Y81596D01*
X168201Y81532D01*
X168217Y81466D01*
X168230Y81400D01*
X168239Y81333D01*
X168244Y81266D01*
X168246Y81198D01*
X168246Y79202D01*
X168244Y79134D01*
X168239Y79067D01*
X168230Y79000D01*
X168217Y78934D01*
X168201Y78868D01*
X168181Y78804D01*
X168157Y78740D01*
X168131Y78678D01*
X168101Y78617D01*
X168067Y78559D01*
X168031Y78502D01*
X167992Y78447D01*
X167949Y78394D01*
X167904Y78344D01*
X167856Y78296D01*
X167806Y78251D01*
X167753Y78208D01*
X167698Y78169D01*
X167641Y78133D01*
X167583Y78099D01*
X167522Y78069D01*
X167460Y78043D01*
X167396Y78019D01*
X167332Y77999D01*
X167266Y77983D01*
X167200Y77970D01*
X167133Y77961D01*
X167066Y77956D01*
X166998Y77954D01*
X165751Y77954D01*
X170151Y77954D02*
X171648Y82446D01*
X173146Y77954D01*
X172771Y79077D02*
X170525Y79077D01*
X175848Y77954D02*
X175848Y82446D01*
X174601Y82446D02*
X177096Y82446D01*
X180048Y82446D02*
X178551Y77954D01*
X181546Y77954D02*
X180048Y82446D01*
X181171Y79077D02*
X178925Y79077D01*
X183100Y77455D02*
X185097Y77455D01*
X187248Y77954D02*
X187248Y82446D01*
X186749Y77954D02*
X187747Y77954D01*
X187747Y82446D02*
X186749Y82446D01*
X189750Y82446D02*
X189750Y77954D01*
X192246Y77954D02*
X189750Y82446D01*
X192246Y82446D02*
X192246Y77954D01*
D15*
X142600Y90900D02*
X301100Y90900D01*
X316600Y106900D02*
X316600Y139900D01*
X279600Y96400D02*
X284600Y91400D01*
X279600Y96400D02*
X274600Y91400D01*
X259600Y91400D02*
X254600Y96400D01*
X249600Y91400D01*
X234600Y91400D02*
X229600Y96400D01*
X224600Y91400D01*
X209600Y91400D02*
X204600Y96400D01*
X184600Y91400D02*
X179600Y96400D01*
X199600Y91400D02*
X204600Y96400D01*
X179600Y96400D02*
X174600Y91400D01*
X301100Y90900D02*
X316600Y106400D01*
X316600Y139900D02*
X142600Y139900D01*
X142600Y90900D01*
D14*
X151226Y128754D02*
X151226Y133246D01*
X152474Y133246D01*
X152543Y133244D01*
X152611Y133238D01*
X152679Y133229D01*
X152747Y133216D01*
X152814Y133199D01*
X152879Y133178D01*
X152944Y133154D01*
X153007Y133127D01*
X153068Y133096D01*
X153128Y133061D01*
X153185Y133024D01*
X153241Y132983D01*
X153294Y132939D01*
X153344Y132893D01*
X153392Y132843D01*
X153437Y132791D01*
X153480Y132737D01*
X153519Y132681D01*
X153555Y132622D01*
X153588Y132562D01*
X153617Y132499D01*
X153643Y132436D01*
X153665Y132371D01*
X153684Y132304D01*
X153699Y132237D01*
X153710Y132169D01*
X153718Y132101D01*
X153722Y132032D01*
X153722Y131964D01*
X153718Y131895D01*
X153710Y131827D01*
X153699Y131759D01*
X153684Y131692D01*
X153665Y131625D01*
X153643Y131560D01*
X153617Y131497D01*
X153588Y131434D01*
X153555Y131374D01*
X153519Y131315D01*
X153480Y131259D01*
X153437Y131205D01*
X153392Y131153D01*
X153344Y131103D01*
X153294Y131057D01*
X153241Y131013D01*
X153185Y130972D01*
X153128Y130935D01*
X153068Y130900D01*
X153007Y130869D01*
X152944Y130842D01*
X152879Y130818D01*
X152814Y130797D01*
X152747Y130780D01*
X152679Y130767D01*
X152611Y130758D01*
X152543Y130752D01*
X152474Y130750D01*
X151226Y130750D01*
X155352Y133246D02*
X156350Y128754D01*
X157348Y131749D01*
X158347Y128754D01*
X159345Y133246D01*
X161384Y133246D02*
X161384Y128754D01*
X161384Y133246D02*
X162631Y133246D01*
X162700Y133244D01*
X162768Y133238D01*
X162836Y133229D01*
X162904Y133216D01*
X162971Y133199D01*
X163036Y133178D01*
X163101Y133154D01*
X163164Y133127D01*
X163225Y133096D01*
X163285Y133061D01*
X163342Y133024D01*
X163398Y132983D01*
X163451Y132939D01*
X163501Y132893D01*
X163549Y132843D01*
X163594Y132791D01*
X163637Y132737D01*
X163676Y132681D01*
X163712Y132622D01*
X163745Y132562D01*
X163774Y132499D01*
X163800Y132436D01*
X163822Y132371D01*
X163841Y132304D01*
X163856Y132237D01*
X163867Y132169D01*
X163875Y132101D01*
X163879Y132032D01*
X163879Y131964D01*
X163875Y131895D01*
X163867Y131827D01*
X163856Y131759D01*
X163841Y131692D01*
X163822Y131625D01*
X163800Y131560D01*
X163774Y131497D01*
X163745Y131434D01*
X163712Y131374D01*
X163676Y131315D01*
X163637Y131259D01*
X163594Y131205D01*
X163549Y131153D01*
X163501Y131103D01*
X163451Y131057D01*
X163398Y131013D01*
X163342Y130972D01*
X163285Y130935D01*
X163225Y130900D01*
X163164Y130869D01*
X163101Y130842D01*
X163036Y130818D01*
X162971Y130797D01*
X162904Y130780D01*
X162836Y130767D01*
X162768Y130758D01*
X162700Y130752D01*
X162631Y130750D01*
X161384Y130750D01*
X162881Y130750D02*
X163879Y128754D01*
X165650Y128255D02*
X167647Y128255D01*
X169601Y128754D02*
X169601Y133246D01*
X170848Y133246D01*
X170916Y133244D01*
X170983Y133239D01*
X171050Y133230D01*
X171116Y133217D01*
X171182Y133201D01*
X171246Y133181D01*
X171310Y133157D01*
X171372Y133131D01*
X171433Y133101D01*
X171491Y133067D01*
X171548Y133031D01*
X171603Y132992D01*
X171656Y132949D01*
X171706Y132904D01*
X171754Y132856D01*
X171799Y132806D01*
X171842Y132753D01*
X171881Y132698D01*
X171917Y132641D01*
X171951Y132583D01*
X171981Y132522D01*
X172007Y132460D01*
X172031Y132396D01*
X172051Y132332D01*
X172067Y132266D01*
X172080Y132200D01*
X172089Y132133D01*
X172094Y132066D01*
X172096Y131998D01*
X172096Y130002D01*
X172094Y129934D01*
X172089Y129867D01*
X172080Y129800D01*
X172067Y129734D01*
X172051Y129668D01*
X172031Y129604D01*
X172007Y129540D01*
X171981Y129478D01*
X171951Y129417D01*
X171917Y129359D01*
X171881Y129302D01*
X171842Y129247D01*
X171799Y129194D01*
X171754Y129144D01*
X171706Y129096D01*
X171656Y129051D01*
X171603Y129008D01*
X171548Y128969D01*
X171491Y128933D01*
X171433Y128899D01*
X171372Y128869D01*
X171310Y128843D01*
X171246Y128819D01*
X171182Y128799D01*
X171116Y128783D01*
X171050Y128770D01*
X170983Y128761D01*
X170916Y128756D01*
X170848Y128754D01*
X169601Y128754D01*
X174001Y128754D02*
X175498Y133246D01*
X176996Y128754D01*
X176621Y129877D02*
X174375Y129877D01*
X179698Y128754D02*
X179698Y133246D01*
X178451Y133246D02*
X180946Y133246D01*
X183898Y133246D02*
X182401Y128754D01*
X185396Y128754D02*
X183898Y133246D01*
X185021Y129877D02*
X182775Y129877D01*
X186950Y128255D02*
X188947Y128255D01*
X190751Y130002D02*
X190751Y131998D01*
X190750Y131998D02*
X190752Y132067D01*
X190758Y132135D01*
X190767Y132203D01*
X190780Y132271D01*
X190797Y132338D01*
X190818Y132403D01*
X190842Y132468D01*
X190869Y132531D01*
X190900Y132592D01*
X190935Y132652D01*
X190972Y132709D01*
X191013Y132765D01*
X191057Y132818D01*
X191103Y132868D01*
X191153Y132916D01*
X191205Y132961D01*
X191259Y133004D01*
X191315Y133043D01*
X191374Y133079D01*
X191434Y133112D01*
X191497Y133141D01*
X191560Y133167D01*
X191625Y133189D01*
X191692Y133208D01*
X191759Y133223D01*
X191827Y133234D01*
X191895Y133242D01*
X191964Y133246D01*
X192032Y133246D01*
X192101Y133242D01*
X192169Y133234D01*
X192237Y133223D01*
X192304Y133208D01*
X192371Y133189D01*
X192436Y133167D01*
X192499Y133141D01*
X192562Y133112D01*
X192622Y133079D01*
X192681Y133043D01*
X192737Y133004D01*
X192791Y132961D01*
X192843Y132916D01*
X192893Y132868D01*
X192939Y132818D01*
X192983Y132765D01*
X193024Y132709D01*
X193061Y132652D01*
X193096Y132592D01*
X193127Y132531D01*
X193154Y132468D01*
X193178Y132403D01*
X193199Y132338D01*
X193216Y132271D01*
X193229Y132203D01*
X193238Y132135D01*
X193244Y132067D01*
X193246Y131998D01*
X193246Y130002D01*
X193244Y129933D01*
X193238Y129865D01*
X193229Y129797D01*
X193216Y129729D01*
X193199Y129662D01*
X193178Y129597D01*
X193154Y129532D01*
X193127Y129469D01*
X193096Y129408D01*
X193061Y129348D01*
X193024Y129291D01*
X192983Y129235D01*
X192939Y129182D01*
X192893Y129132D01*
X192843Y129084D01*
X192791Y129039D01*
X192737Y128996D01*
X192681Y128957D01*
X192622Y128921D01*
X192562Y128888D01*
X192499Y128859D01*
X192436Y128833D01*
X192371Y128811D01*
X192304Y128792D01*
X192237Y128777D01*
X192169Y128766D01*
X192101Y128758D01*
X192032Y128754D01*
X191964Y128754D01*
X191895Y128758D01*
X191827Y128766D01*
X191759Y128777D01*
X191692Y128792D01*
X191625Y128811D01*
X191560Y128833D01*
X191497Y128859D01*
X191434Y128888D01*
X191374Y128921D01*
X191315Y128957D01*
X191259Y128996D01*
X191205Y129039D01*
X191153Y129084D01*
X191103Y129132D01*
X191057Y129182D01*
X191013Y129235D01*
X190972Y129291D01*
X190935Y129348D01*
X190900Y129408D01*
X190869Y129469D01*
X190842Y129532D01*
X190818Y129597D01*
X190797Y129662D01*
X190780Y129729D01*
X190767Y129797D01*
X190758Y129865D01*
X190752Y129933D01*
X190750Y130002D01*
X195401Y130002D02*
X195401Y133246D01*
X195400Y130002D02*
X195402Y129933D01*
X195408Y129865D01*
X195417Y129797D01*
X195430Y129729D01*
X195447Y129662D01*
X195468Y129597D01*
X195492Y129532D01*
X195519Y129469D01*
X195550Y129408D01*
X195585Y129348D01*
X195622Y129291D01*
X195663Y129235D01*
X195707Y129182D01*
X195753Y129132D01*
X195803Y129084D01*
X195855Y129039D01*
X195909Y128996D01*
X195965Y128957D01*
X196024Y128921D01*
X196084Y128888D01*
X196147Y128859D01*
X196210Y128833D01*
X196275Y128811D01*
X196342Y128792D01*
X196409Y128777D01*
X196477Y128766D01*
X196545Y128758D01*
X196614Y128754D01*
X196682Y128754D01*
X196751Y128758D01*
X196819Y128766D01*
X196887Y128777D01*
X196954Y128792D01*
X197021Y128811D01*
X197086Y128833D01*
X197149Y128859D01*
X197212Y128888D01*
X197272Y128921D01*
X197331Y128957D01*
X197387Y128996D01*
X197441Y129039D01*
X197493Y129084D01*
X197543Y129132D01*
X197589Y129182D01*
X197633Y129235D01*
X197674Y129291D01*
X197711Y129348D01*
X197746Y129408D01*
X197777Y129469D01*
X197804Y129532D01*
X197828Y129597D01*
X197849Y129662D01*
X197866Y129729D01*
X197879Y129797D01*
X197888Y129865D01*
X197894Y129933D01*
X197896Y130002D01*
X197896Y133246D01*
X200998Y133246D02*
X200998Y128754D01*
X199750Y133246D02*
X202246Y133246D01*
D17*
X146304Y165542D02*
X136144Y165542D01*
X16256Y50480D02*
X6096Y50480D01*
X38100Y45654D02*
X38100Y43876D01*
X114300Y172146D02*
X114300Y173924D01*
X38100Y173924D01*
X38100Y172146D01*
X38100Y43876D02*
X73152Y43876D01*
X79248Y43876D01*
X114300Y43876D01*
X114300Y45654D01*
X79248Y43876D02*
X79246Y43985D01*
X79240Y44093D01*
X79231Y44202D01*
X79217Y44310D01*
X79200Y44417D01*
X79178Y44524D01*
X79153Y44630D01*
X79125Y44735D01*
X79092Y44839D01*
X79056Y44941D01*
X79016Y45042D01*
X78973Y45142D01*
X78926Y45240D01*
X78875Y45337D01*
X78821Y45431D01*
X78764Y45524D01*
X78704Y45614D01*
X78640Y45703D01*
X78573Y45789D01*
X78504Y45872D01*
X78431Y45953D01*
X78355Y46031D01*
X78277Y46107D01*
X78196Y46180D01*
X78113Y46249D01*
X78027Y46316D01*
X77938Y46380D01*
X77848Y46440D01*
X77755Y46497D01*
X77661Y46551D01*
X77564Y46602D01*
X77466Y46649D01*
X77366Y46692D01*
X77265Y46732D01*
X77163Y46768D01*
X77059Y46801D01*
X76954Y46829D01*
X76848Y46854D01*
X76741Y46876D01*
X76634Y46893D01*
X76526Y46907D01*
X76417Y46916D01*
X76309Y46922D01*
X76200Y46924D01*
X76091Y46922D01*
X75983Y46916D01*
X75874Y46907D01*
X75766Y46893D01*
X75659Y46876D01*
X75552Y46854D01*
X75446Y46829D01*
X75341Y46801D01*
X75237Y46768D01*
X75135Y46732D01*
X75034Y46692D01*
X74934Y46649D01*
X74836Y46602D01*
X74739Y46551D01*
X74645Y46497D01*
X74552Y46440D01*
X74462Y46380D01*
X74373Y46316D01*
X74287Y46249D01*
X74204Y46180D01*
X74123Y46107D01*
X74045Y46031D01*
X73969Y45953D01*
X73896Y45872D01*
X73827Y45789D01*
X73760Y45703D01*
X73696Y45614D01*
X73636Y45524D01*
X73579Y45431D01*
X73525Y45337D01*
X73474Y45240D01*
X73427Y45142D01*
X73384Y45042D01*
X73344Y44941D01*
X73308Y44839D01*
X73275Y44735D01*
X73247Y44630D01*
X73222Y44524D01*
X73200Y44417D01*
X73183Y44310D01*
X73169Y44202D01*
X73160Y44093D01*
X73154Y43985D01*
X73152Y43876D01*
D10*
X127289Y42408D02*
X127289Y38429D01*
X127289Y42408D02*
X124968Y45393D01*
X127289Y42408D02*
X129611Y45393D01*
X127289Y42408D02*
X123642Y41082D01*
X127289Y42408D02*
X130937Y41082D01*
D17*
X107950Y388300D02*
X95250Y388300D01*
X88900Y394650D01*
X88900Y407350D02*
X95250Y413700D01*
X88900Y394650D02*
X82550Y388300D01*
X69850Y388300D01*
X63500Y394650D01*
X63500Y407350D02*
X69850Y413700D01*
X82550Y413700D01*
X88900Y407350D01*
X114300Y407350D02*
X114300Y394650D01*
X107950Y388300D01*
X114300Y407350D02*
X107950Y413700D01*
X95250Y413700D01*
X63500Y394650D02*
X57150Y388300D01*
X44450Y388300D01*
X38100Y394650D01*
X38100Y407350D02*
X44450Y413700D01*
X57150Y413700D01*
X63500Y407350D01*
X38100Y407350D02*
X38100Y394650D01*
D15*
X120015Y404175D02*
X123190Y406715D01*
X123190Y395285D01*
X120015Y395285D02*
X126365Y395285D01*
D14*
X84046Y380742D02*
X84044Y380679D01*
X84038Y380617D01*
X84028Y380555D01*
X84015Y380494D01*
X83997Y380434D01*
X83976Y380375D01*
X83951Y380317D01*
X83923Y380261D01*
X83891Y380207D01*
X83855Y380155D01*
X83817Y380106D01*
X83776Y380059D01*
X83731Y380015D01*
X83684Y379973D01*
X83635Y379935D01*
X83583Y379899D01*
X83529Y379867D01*
X83473Y379839D01*
X83415Y379814D01*
X83356Y379793D01*
X83296Y379775D01*
X83235Y379762D01*
X83173Y379752D01*
X83111Y379746D01*
X83048Y379744D01*
X82960Y379746D01*
X82873Y379751D01*
X82786Y379760D01*
X82699Y379773D01*
X82613Y379789D01*
X82528Y379809D01*
X82443Y379833D01*
X82360Y379859D01*
X82277Y379890D01*
X82197Y379924D01*
X82117Y379961D01*
X82039Y380001D01*
X81963Y380044D01*
X81889Y380091D01*
X81817Y380141D01*
X81747Y380193D01*
X81679Y380249D01*
X81613Y380307D01*
X81550Y380368D01*
X81676Y383238D02*
X81678Y383298D01*
X81683Y383358D01*
X81692Y383418D01*
X81705Y383477D01*
X81721Y383535D01*
X81741Y383592D01*
X81764Y383648D01*
X81790Y383702D01*
X81820Y383754D01*
X81853Y383805D01*
X81888Y383853D01*
X81927Y383900D01*
X81968Y383944D01*
X82012Y383985D01*
X82059Y384024D01*
X82107Y384059D01*
X82158Y384092D01*
X82210Y384122D01*
X82264Y384148D01*
X82320Y384171D01*
X82377Y384191D01*
X82435Y384207D01*
X82494Y384220D01*
X82554Y384229D01*
X82614Y384234D01*
X82674Y384236D01*
X82760Y384234D01*
X82846Y384228D01*
X82931Y384218D01*
X83016Y384204D01*
X83100Y384187D01*
X83184Y384165D01*
X83266Y384140D01*
X83347Y384111D01*
X83427Y384078D01*
X83504Y384042D01*
X83581Y384002D01*
X83655Y383958D01*
X83727Y383912D01*
X83797Y383862D01*
X82174Y382364D02*
X82122Y382397D01*
X82072Y382434D01*
X82024Y382473D01*
X81978Y382515D01*
X81935Y382560D01*
X81895Y382607D01*
X81858Y382656D01*
X81824Y382708D01*
X81794Y382762D01*
X81766Y382818D01*
X81742Y382875D01*
X81722Y382933D01*
X81705Y382993D01*
X81692Y383053D01*
X81683Y383114D01*
X81677Y383176D01*
X81675Y383238D01*
X83547Y381616D02*
X83599Y381583D01*
X83649Y381546D01*
X83697Y381507D01*
X83743Y381465D01*
X83786Y381420D01*
X83826Y381373D01*
X83863Y381324D01*
X83897Y381272D01*
X83927Y381218D01*
X83955Y381162D01*
X83979Y381105D01*
X83999Y381047D01*
X84016Y380987D01*
X84029Y380927D01*
X84038Y380866D01*
X84044Y380804D01*
X84046Y380742D01*
X83547Y381616D02*
X82175Y382364D01*
X86061Y379744D02*
X88057Y379744D01*
X86061Y379744D02*
X86061Y384236D01*
X88057Y384236D01*
X87558Y382240D02*
X86061Y382240D01*
X89951Y384236D02*
X89951Y379744D01*
X92446Y379744D02*
X89951Y384236D01*
X92446Y384236D02*
X92446Y379744D01*
X95948Y379744D02*
X96011Y379746D01*
X96073Y379752D01*
X96135Y379762D01*
X96196Y379775D01*
X96256Y379793D01*
X96315Y379814D01*
X96373Y379839D01*
X96429Y379867D01*
X96483Y379899D01*
X96535Y379935D01*
X96584Y379973D01*
X96631Y380015D01*
X96676Y380059D01*
X96717Y380106D01*
X96755Y380155D01*
X96791Y380207D01*
X96823Y380261D01*
X96851Y380317D01*
X96876Y380375D01*
X96897Y380434D01*
X96915Y380494D01*
X96928Y380555D01*
X96938Y380617D01*
X96944Y380679D01*
X96946Y380742D01*
X95948Y379744D02*
X95860Y379746D01*
X95773Y379751D01*
X95686Y379760D01*
X95599Y379773D01*
X95513Y379789D01*
X95428Y379809D01*
X95343Y379833D01*
X95260Y379859D01*
X95177Y379890D01*
X95097Y379924D01*
X95017Y379961D01*
X94939Y380001D01*
X94863Y380044D01*
X94789Y380091D01*
X94717Y380141D01*
X94647Y380193D01*
X94579Y380249D01*
X94513Y380307D01*
X94450Y380368D01*
X94576Y383238D02*
X94578Y383298D01*
X94583Y383358D01*
X94592Y383418D01*
X94605Y383477D01*
X94621Y383535D01*
X94641Y383592D01*
X94664Y383648D01*
X94690Y383702D01*
X94720Y383754D01*
X94753Y383805D01*
X94788Y383853D01*
X94827Y383900D01*
X94868Y383944D01*
X94912Y383985D01*
X94959Y384024D01*
X95007Y384059D01*
X95058Y384092D01*
X95110Y384122D01*
X95164Y384148D01*
X95220Y384171D01*
X95277Y384191D01*
X95335Y384207D01*
X95394Y384220D01*
X95454Y384229D01*
X95514Y384234D01*
X95574Y384236D01*
X95660Y384234D01*
X95746Y384228D01*
X95831Y384218D01*
X95916Y384204D01*
X96000Y384187D01*
X96084Y384165D01*
X96166Y384140D01*
X96247Y384111D01*
X96327Y384078D01*
X96404Y384042D01*
X96481Y384002D01*
X96555Y383958D01*
X96627Y383912D01*
X96697Y383862D01*
X95074Y382364D02*
X95022Y382397D01*
X94972Y382434D01*
X94924Y382473D01*
X94878Y382515D01*
X94835Y382560D01*
X94795Y382607D01*
X94758Y382656D01*
X94724Y382708D01*
X94694Y382762D01*
X94666Y382818D01*
X94642Y382875D01*
X94622Y382933D01*
X94605Y382993D01*
X94592Y383053D01*
X94583Y383114D01*
X94577Y383176D01*
X94575Y383238D01*
X96447Y381616D02*
X96499Y381583D01*
X96549Y381546D01*
X96597Y381507D01*
X96643Y381465D01*
X96686Y381420D01*
X96726Y381373D01*
X96763Y381324D01*
X96797Y381272D01*
X96827Y381218D01*
X96855Y381162D01*
X96879Y381105D01*
X96899Y381047D01*
X96916Y380987D01*
X96929Y380927D01*
X96938Y380866D01*
X96944Y380804D01*
X96946Y380742D01*
X96447Y381616D02*
X95074Y382364D01*
X98801Y382988D02*
X98801Y380992D01*
X98800Y382988D02*
X98802Y383057D01*
X98808Y383125D01*
X98817Y383193D01*
X98830Y383261D01*
X98847Y383328D01*
X98868Y383393D01*
X98892Y383458D01*
X98919Y383521D01*
X98950Y383582D01*
X98985Y383642D01*
X99022Y383699D01*
X99063Y383755D01*
X99107Y383808D01*
X99153Y383858D01*
X99203Y383906D01*
X99255Y383951D01*
X99309Y383994D01*
X99365Y384033D01*
X99424Y384069D01*
X99484Y384102D01*
X99547Y384131D01*
X99610Y384157D01*
X99675Y384179D01*
X99742Y384198D01*
X99809Y384213D01*
X99877Y384224D01*
X99945Y384232D01*
X100014Y384236D01*
X100082Y384236D01*
X100151Y384232D01*
X100219Y384224D01*
X100287Y384213D01*
X100354Y384198D01*
X100421Y384179D01*
X100486Y384157D01*
X100549Y384131D01*
X100612Y384102D01*
X100672Y384069D01*
X100731Y384033D01*
X100787Y383994D01*
X100841Y383951D01*
X100893Y383906D01*
X100943Y383858D01*
X100989Y383808D01*
X101033Y383755D01*
X101074Y383699D01*
X101111Y383642D01*
X101146Y383582D01*
X101177Y383521D01*
X101204Y383458D01*
X101228Y383393D01*
X101249Y383328D01*
X101266Y383261D01*
X101279Y383193D01*
X101288Y383125D01*
X101294Y383057D01*
X101296Y382988D01*
X101296Y380992D01*
X101294Y380923D01*
X101288Y380855D01*
X101279Y380787D01*
X101266Y380719D01*
X101249Y380652D01*
X101228Y380587D01*
X101204Y380522D01*
X101177Y380459D01*
X101146Y380398D01*
X101111Y380338D01*
X101074Y380281D01*
X101033Y380225D01*
X100989Y380172D01*
X100943Y380122D01*
X100893Y380074D01*
X100841Y380029D01*
X100787Y379986D01*
X100731Y379947D01*
X100672Y379911D01*
X100612Y379878D01*
X100549Y379849D01*
X100486Y379823D01*
X100421Y379801D01*
X100354Y379782D01*
X100287Y379767D01*
X100219Y379756D01*
X100151Y379748D01*
X100082Y379744D01*
X100014Y379744D01*
X99945Y379748D01*
X99877Y379756D01*
X99809Y379767D01*
X99742Y379782D01*
X99675Y379801D01*
X99610Y379823D01*
X99547Y379849D01*
X99484Y379878D01*
X99424Y379911D01*
X99365Y379947D01*
X99309Y379986D01*
X99255Y380029D01*
X99203Y380074D01*
X99153Y380122D01*
X99107Y380172D01*
X99063Y380225D01*
X99022Y380281D01*
X98985Y380338D01*
X98950Y380398D01*
X98919Y380459D01*
X98892Y380522D01*
X98868Y380587D01*
X98847Y380652D01*
X98830Y380719D01*
X98817Y380787D01*
X98808Y380855D01*
X98802Y380923D01*
X98800Y380992D01*
X103483Y379744D02*
X103483Y384236D01*
X104731Y384236D01*
X104800Y384234D01*
X104868Y384228D01*
X104936Y384219D01*
X105004Y384206D01*
X105071Y384189D01*
X105136Y384168D01*
X105201Y384144D01*
X105264Y384117D01*
X105325Y384086D01*
X105385Y384051D01*
X105442Y384014D01*
X105498Y383973D01*
X105551Y383929D01*
X105601Y383883D01*
X105649Y383833D01*
X105694Y383781D01*
X105737Y383727D01*
X105776Y383671D01*
X105812Y383612D01*
X105845Y383552D01*
X105874Y383489D01*
X105900Y383426D01*
X105922Y383361D01*
X105941Y383294D01*
X105956Y383227D01*
X105967Y383159D01*
X105975Y383091D01*
X105979Y383022D01*
X105979Y382954D01*
X105975Y382885D01*
X105967Y382817D01*
X105956Y382749D01*
X105941Y382682D01*
X105922Y382615D01*
X105900Y382550D01*
X105874Y382487D01*
X105845Y382424D01*
X105812Y382364D01*
X105776Y382305D01*
X105737Y382249D01*
X105694Y382195D01*
X105649Y382143D01*
X105601Y382093D01*
X105551Y382047D01*
X105498Y382003D01*
X105442Y381962D01*
X105385Y381925D01*
X105325Y381890D01*
X105264Y381859D01*
X105201Y381832D01*
X105136Y381808D01*
X105071Y381787D01*
X105004Y381770D01*
X104936Y381757D01*
X104868Y381748D01*
X104800Y381742D01*
X104731Y381740D01*
X103483Y381740D01*
X104981Y381740D02*
X105979Y379744D01*
X107750Y379245D02*
X109746Y379245D01*
X111550Y383238D02*
X112798Y384236D01*
X112798Y379744D01*
X111550Y379744D02*
X114046Y379744D01*
D17*
X107950Y350200D02*
X95250Y350200D01*
X88900Y356550D01*
X88900Y369250D02*
X95250Y375600D01*
X88900Y356550D02*
X82550Y350200D01*
X69850Y350200D01*
X63500Y356550D01*
X63500Y369250D02*
X69850Y375600D01*
X82550Y375600D01*
X88900Y369250D01*
X114300Y369250D02*
X114300Y356550D01*
X107950Y350200D01*
X114300Y369250D02*
X107950Y375600D01*
X95250Y375600D01*
X63500Y356550D02*
X57150Y350200D01*
X44450Y350200D01*
X38100Y356550D01*
X38100Y369250D02*
X44450Y375600D01*
X57150Y375600D01*
X63500Y369250D01*
X38100Y369250D02*
X38100Y356550D01*
D15*
X120015Y366075D02*
X123190Y368615D01*
X123190Y357185D01*
X120015Y357185D02*
X126365Y357185D01*
D14*
X87646Y342642D02*
X87644Y342579D01*
X87638Y342517D01*
X87628Y342455D01*
X87615Y342394D01*
X87597Y342334D01*
X87576Y342275D01*
X87551Y342217D01*
X87523Y342161D01*
X87491Y342107D01*
X87455Y342055D01*
X87417Y342006D01*
X87376Y341959D01*
X87331Y341915D01*
X87284Y341873D01*
X87235Y341835D01*
X87183Y341799D01*
X87129Y341767D01*
X87073Y341739D01*
X87015Y341714D01*
X86956Y341693D01*
X86896Y341675D01*
X86835Y341662D01*
X86773Y341652D01*
X86711Y341646D01*
X86648Y341644D01*
X86560Y341646D01*
X86473Y341651D01*
X86386Y341660D01*
X86299Y341673D01*
X86213Y341689D01*
X86128Y341709D01*
X86043Y341733D01*
X85960Y341759D01*
X85877Y341790D01*
X85797Y341824D01*
X85717Y341861D01*
X85639Y341901D01*
X85563Y341944D01*
X85489Y341991D01*
X85417Y342041D01*
X85347Y342093D01*
X85279Y342149D01*
X85213Y342207D01*
X85150Y342268D01*
X85276Y345138D02*
X85278Y345198D01*
X85283Y345258D01*
X85292Y345318D01*
X85305Y345377D01*
X85321Y345435D01*
X85341Y345492D01*
X85364Y345548D01*
X85390Y345602D01*
X85420Y345654D01*
X85453Y345705D01*
X85488Y345753D01*
X85527Y345800D01*
X85568Y345844D01*
X85612Y345885D01*
X85659Y345924D01*
X85707Y345959D01*
X85758Y345992D01*
X85810Y346022D01*
X85864Y346048D01*
X85920Y346071D01*
X85977Y346091D01*
X86035Y346107D01*
X86094Y346120D01*
X86154Y346129D01*
X86214Y346134D01*
X86274Y346136D01*
X86360Y346134D01*
X86446Y346128D01*
X86531Y346118D01*
X86616Y346104D01*
X86700Y346087D01*
X86784Y346065D01*
X86866Y346040D01*
X86947Y346011D01*
X87027Y345978D01*
X87104Y345942D01*
X87181Y345902D01*
X87255Y345858D01*
X87327Y345812D01*
X87397Y345762D01*
X85774Y344264D02*
X85722Y344297D01*
X85672Y344334D01*
X85624Y344373D01*
X85578Y344415D01*
X85535Y344460D01*
X85495Y344507D01*
X85458Y344556D01*
X85424Y344608D01*
X85394Y344662D01*
X85366Y344718D01*
X85342Y344775D01*
X85322Y344833D01*
X85305Y344893D01*
X85292Y344953D01*
X85283Y345014D01*
X85277Y345076D01*
X85275Y345138D01*
X87147Y343516D02*
X87199Y343483D01*
X87249Y343446D01*
X87297Y343407D01*
X87343Y343365D01*
X87386Y343320D01*
X87426Y343273D01*
X87463Y343224D01*
X87497Y343172D01*
X87527Y343118D01*
X87555Y343062D01*
X87579Y343005D01*
X87599Y342947D01*
X87616Y342887D01*
X87629Y342827D01*
X87638Y342766D01*
X87644Y342704D01*
X87646Y342642D01*
X87147Y343516D02*
X85775Y344264D01*
X89661Y341644D02*
X91657Y341644D01*
X89661Y341644D02*
X89661Y346136D01*
X91657Y346136D01*
X91158Y344140D02*
X89661Y344140D01*
X93551Y346136D02*
X93551Y341644D01*
X96046Y341644D02*
X93551Y346136D01*
X96046Y346136D02*
X96046Y341644D01*
X99548Y341644D02*
X99611Y341646D01*
X99673Y341652D01*
X99735Y341662D01*
X99796Y341675D01*
X99856Y341693D01*
X99915Y341714D01*
X99973Y341739D01*
X100029Y341767D01*
X100083Y341799D01*
X100135Y341835D01*
X100184Y341873D01*
X100231Y341915D01*
X100276Y341959D01*
X100317Y342006D01*
X100355Y342055D01*
X100391Y342107D01*
X100423Y342161D01*
X100451Y342217D01*
X100476Y342275D01*
X100497Y342334D01*
X100515Y342394D01*
X100528Y342455D01*
X100538Y342517D01*
X100544Y342579D01*
X100546Y342642D01*
X99548Y341644D02*
X99460Y341646D01*
X99373Y341651D01*
X99286Y341660D01*
X99199Y341673D01*
X99113Y341689D01*
X99028Y341709D01*
X98943Y341733D01*
X98860Y341759D01*
X98777Y341790D01*
X98697Y341824D01*
X98617Y341861D01*
X98539Y341901D01*
X98463Y341944D01*
X98389Y341991D01*
X98317Y342041D01*
X98247Y342093D01*
X98179Y342149D01*
X98113Y342207D01*
X98050Y342268D01*
X98176Y345138D02*
X98178Y345198D01*
X98183Y345258D01*
X98192Y345318D01*
X98205Y345377D01*
X98221Y345435D01*
X98241Y345492D01*
X98264Y345548D01*
X98290Y345602D01*
X98320Y345654D01*
X98353Y345705D01*
X98388Y345753D01*
X98427Y345800D01*
X98468Y345844D01*
X98512Y345885D01*
X98559Y345924D01*
X98607Y345959D01*
X98658Y345992D01*
X98710Y346022D01*
X98764Y346048D01*
X98820Y346071D01*
X98877Y346091D01*
X98935Y346107D01*
X98994Y346120D01*
X99054Y346129D01*
X99114Y346134D01*
X99174Y346136D01*
X99260Y346134D01*
X99346Y346128D01*
X99431Y346118D01*
X99516Y346104D01*
X99600Y346087D01*
X99684Y346065D01*
X99766Y346040D01*
X99847Y346011D01*
X99927Y345978D01*
X100004Y345942D01*
X100081Y345902D01*
X100155Y345858D01*
X100227Y345812D01*
X100297Y345762D01*
X98674Y344264D02*
X98622Y344297D01*
X98572Y344334D01*
X98524Y344373D01*
X98478Y344415D01*
X98435Y344460D01*
X98395Y344507D01*
X98358Y344556D01*
X98324Y344608D01*
X98294Y344662D01*
X98266Y344718D01*
X98242Y344775D01*
X98222Y344833D01*
X98205Y344893D01*
X98192Y344953D01*
X98183Y345014D01*
X98177Y345076D01*
X98175Y345138D01*
X100047Y343516D02*
X100099Y343483D01*
X100149Y343446D01*
X100197Y343407D01*
X100243Y343365D01*
X100286Y343320D01*
X100326Y343273D01*
X100363Y343224D01*
X100397Y343172D01*
X100427Y343118D01*
X100455Y343062D01*
X100479Y343005D01*
X100499Y342947D01*
X100516Y342887D01*
X100529Y342827D01*
X100538Y342766D01*
X100544Y342704D01*
X100546Y342642D01*
X100047Y343516D02*
X98674Y344264D01*
X102401Y344888D02*
X102401Y342892D01*
X102400Y344888D02*
X102402Y344957D01*
X102408Y345025D01*
X102417Y345093D01*
X102430Y345161D01*
X102447Y345228D01*
X102468Y345293D01*
X102492Y345358D01*
X102519Y345421D01*
X102550Y345482D01*
X102585Y345542D01*
X102622Y345599D01*
X102663Y345655D01*
X102707Y345708D01*
X102753Y345758D01*
X102803Y345806D01*
X102855Y345851D01*
X102909Y345894D01*
X102965Y345933D01*
X103024Y345969D01*
X103084Y346002D01*
X103147Y346031D01*
X103210Y346057D01*
X103275Y346079D01*
X103342Y346098D01*
X103409Y346113D01*
X103477Y346124D01*
X103545Y346132D01*
X103614Y346136D01*
X103682Y346136D01*
X103751Y346132D01*
X103819Y346124D01*
X103887Y346113D01*
X103954Y346098D01*
X104021Y346079D01*
X104086Y346057D01*
X104149Y346031D01*
X104212Y346002D01*
X104272Y345969D01*
X104331Y345933D01*
X104387Y345894D01*
X104441Y345851D01*
X104493Y345806D01*
X104543Y345758D01*
X104589Y345708D01*
X104633Y345655D01*
X104674Y345599D01*
X104711Y345542D01*
X104746Y345482D01*
X104777Y345421D01*
X104804Y345358D01*
X104828Y345293D01*
X104849Y345228D01*
X104866Y345161D01*
X104879Y345093D01*
X104888Y345025D01*
X104894Y344957D01*
X104896Y344888D01*
X104896Y342892D01*
X104894Y342823D01*
X104888Y342755D01*
X104879Y342687D01*
X104866Y342619D01*
X104849Y342552D01*
X104828Y342487D01*
X104804Y342422D01*
X104777Y342359D01*
X104746Y342298D01*
X104711Y342238D01*
X104674Y342181D01*
X104633Y342125D01*
X104589Y342072D01*
X104543Y342022D01*
X104493Y341974D01*
X104441Y341929D01*
X104387Y341886D01*
X104331Y341847D01*
X104272Y341811D01*
X104212Y341778D01*
X104149Y341749D01*
X104086Y341723D01*
X104021Y341701D01*
X103954Y341682D01*
X103887Y341667D01*
X103819Y341656D01*
X103751Y341648D01*
X103682Y341644D01*
X103614Y341644D01*
X103545Y341648D01*
X103477Y341656D01*
X103409Y341667D01*
X103342Y341682D01*
X103275Y341701D01*
X103210Y341723D01*
X103147Y341749D01*
X103084Y341778D01*
X103024Y341811D01*
X102965Y341847D01*
X102909Y341886D01*
X102855Y341929D01*
X102803Y341974D01*
X102753Y342022D01*
X102707Y342072D01*
X102663Y342125D01*
X102622Y342181D01*
X102585Y342238D01*
X102550Y342298D01*
X102519Y342359D01*
X102492Y342422D01*
X102468Y342487D01*
X102447Y342552D01*
X102430Y342619D01*
X102417Y342687D01*
X102408Y342755D01*
X102402Y342823D01*
X102400Y342892D01*
X107083Y341644D02*
X107083Y346136D01*
X108331Y346136D01*
X108400Y346134D01*
X108468Y346128D01*
X108536Y346119D01*
X108604Y346106D01*
X108671Y346089D01*
X108736Y346068D01*
X108801Y346044D01*
X108864Y346017D01*
X108925Y345986D01*
X108985Y345951D01*
X109042Y345914D01*
X109098Y345873D01*
X109151Y345829D01*
X109201Y345783D01*
X109249Y345733D01*
X109294Y345681D01*
X109337Y345627D01*
X109376Y345571D01*
X109412Y345512D01*
X109445Y345452D01*
X109474Y345389D01*
X109500Y345326D01*
X109522Y345261D01*
X109541Y345194D01*
X109556Y345127D01*
X109567Y345059D01*
X109575Y344991D01*
X109579Y344922D01*
X109579Y344854D01*
X109575Y344785D01*
X109567Y344717D01*
X109556Y344649D01*
X109541Y344582D01*
X109522Y344515D01*
X109500Y344450D01*
X109474Y344387D01*
X109445Y344324D01*
X109412Y344264D01*
X109376Y344205D01*
X109337Y344149D01*
X109294Y344095D01*
X109249Y344043D01*
X109201Y343993D01*
X109151Y343947D01*
X109098Y343903D01*
X109042Y343862D01*
X108985Y343825D01*
X108925Y343790D01*
X108864Y343759D01*
X108801Y343732D01*
X108736Y343708D01*
X108671Y343687D01*
X108604Y343670D01*
X108536Y343657D01*
X108468Y343648D01*
X108400Y343642D01*
X108331Y343640D01*
X107083Y343640D01*
X108581Y343640D02*
X109579Y341644D01*
X114046Y345013D02*
X114044Y345078D01*
X114038Y345143D01*
X114029Y345208D01*
X114016Y345272D01*
X113999Y345335D01*
X113978Y345397D01*
X113954Y345458D01*
X113927Y345517D01*
X113896Y345575D01*
X113861Y345630D01*
X113824Y345684D01*
X113783Y345735D01*
X113740Y345784D01*
X113694Y345830D01*
X113645Y345873D01*
X113594Y345914D01*
X113540Y345951D01*
X113485Y345986D01*
X113427Y346017D01*
X113368Y346044D01*
X113307Y346068D01*
X113245Y346089D01*
X113182Y346106D01*
X113118Y346119D01*
X113053Y346128D01*
X112988Y346134D01*
X112923Y346136D01*
X112850Y346134D01*
X112778Y346129D01*
X112706Y346120D01*
X112635Y346107D01*
X112564Y346091D01*
X112494Y346071D01*
X112425Y346047D01*
X112358Y346021D01*
X112292Y345991D01*
X112227Y345957D01*
X112165Y345921D01*
X112104Y345881D01*
X112045Y345838D01*
X111989Y345793D01*
X111935Y345744D01*
X111883Y345693D01*
X111834Y345640D01*
X111788Y345584D01*
X111744Y345526D01*
X111704Y345465D01*
X111667Y345403D01*
X111633Y345339D01*
X111602Y345273D01*
X111574Y345206D01*
X111550Y345138D01*
X113672Y344140D02*
X113718Y344186D01*
X113761Y344234D01*
X113802Y344285D01*
X113840Y344338D01*
X113875Y344393D01*
X113906Y344450D01*
X113935Y344508D01*
X113961Y344568D01*
X113983Y344629D01*
X114002Y344691D01*
X114018Y344755D01*
X114030Y344819D01*
X114039Y344883D01*
X114044Y344948D01*
X114046Y345013D01*
X113672Y344140D02*
X111550Y341644D01*
X114046Y341644D01*
D13*
X314558Y342045D02*
X326242Y342045D01*
X314558Y342045D02*
X314558Y345290D01*
X314560Y345403D01*
X314566Y345516D01*
X314576Y345629D01*
X314590Y345742D01*
X314607Y345854D01*
X314629Y345965D01*
X314654Y346075D01*
X314684Y346185D01*
X314717Y346293D01*
X314754Y346400D01*
X314794Y346506D01*
X314839Y346610D01*
X314887Y346713D01*
X314938Y346814D01*
X314993Y346913D01*
X315051Y347010D01*
X315113Y347105D01*
X315178Y347198D01*
X315246Y347288D01*
X315317Y347376D01*
X315392Y347462D01*
X315469Y347545D01*
X315549Y347625D01*
X315632Y347702D01*
X315718Y347777D01*
X315806Y347848D01*
X315896Y347916D01*
X315989Y347981D01*
X316084Y348043D01*
X316181Y348101D01*
X316280Y348156D01*
X316381Y348207D01*
X316484Y348255D01*
X316588Y348300D01*
X316694Y348340D01*
X316801Y348377D01*
X316909Y348410D01*
X317019Y348440D01*
X317129Y348465D01*
X317240Y348487D01*
X317352Y348504D01*
X317465Y348518D01*
X317578Y348528D01*
X317691Y348534D01*
X317804Y348536D01*
X317917Y348534D01*
X318030Y348528D01*
X318143Y348518D01*
X318256Y348504D01*
X318368Y348487D01*
X318479Y348465D01*
X318589Y348440D01*
X318699Y348410D01*
X318807Y348377D01*
X318914Y348340D01*
X319020Y348300D01*
X319124Y348255D01*
X319227Y348207D01*
X319328Y348156D01*
X319427Y348101D01*
X319524Y348043D01*
X319619Y347981D01*
X319712Y347916D01*
X319802Y347848D01*
X319890Y347777D01*
X319976Y347702D01*
X320059Y347625D01*
X320139Y347545D01*
X320216Y347462D01*
X320291Y347376D01*
X320362Y347288D01*
X320430Y347198D01*
X320495Y347105D01*
X320557Y347010D01*
X320615Y346913D01*
X320670Y346814D01*
X320721Y346713D01*
X320769Y346610D01*
X320814Y346506D01*
X320854Y346400D01*
X320891Y346293D01*
X320924Y346185D01*
X320954Y346075D01*
X320979Y345965D01*
X321001Y345854D01*
X321018Y345742D01*
X321032Y345629D01*
X321042Y345516D01*
X321048Y345403D01*
X321050Y345290D01*
X321049Y345290D02*
X321049Y342045D01*
X321049Y345939D02*
X326242Y348536D01*
X323646Y353401D02*
X314558Y355997D01*
X323646Y353401D02*
X323646Y359892D01*
X321049Y357945D02*
X326242Y357945D01*
X21242Y352045D02*
X9558Y352045D01*
X9558Y355290D01*
X9560Y355403D01*
X9566Y355516D01*
X9576Y355629D01*
X9590Y355742D01*
X9607Y355854D01*
X9629Y355965D01*
X9654Y356075D01*
X9684Y356185D01*
X9717Y356293D01*
X9754Y356400D01*
X9794Y356506D01*
X9839Y356610D01*
X9887Y356713D01*
X9938Y356814D01*
X9993Y356913D01*
X10051Y357010D01*
X10113Y357105D01*
X10178Y357198D01*
X10246Y357288D01*
X10317Y357376D01*
X10392Y357462D01*
X10469Y357545D01*
X10549Y357625D01*
X10632Y357702D01*
X10718Y357777D01*
X10806Y357848D01*
X10896Y357916D01*
X10989Y357981D01*
X11084Y358043D01*
X11181Y358101D01*
X11280Y358156D01*
X11381Y358207D01*
X11484Y358255D01*
X11588Y358300D01*
X11694Y358340D01*
X11801Y358377D01*
X11909Y358410D01*
X12019Y358440D01*
X12129Y358465D01*
X12240Y358487D01*
X12352Y358504D01*
X12465Y358518D01*
X12578Y358528D01*
X12691Y358534D01*
X12804Y358536D01*
X12917Y358534D01*
X13030Y358528D01*
X13143Y358518D01*
X13256Y358504D01*
X13368Y358487D01*
X13479Y358465D01*
X13589Y358440D01*
X13699Y358410D01*
X13807Y358377D01*
X13914Y358340D01*
X14020Y358300D01*
X14124Y358255D01*
X14227Y358207D01*
X14328Y358156D01*
X14427Y358101D01*
X14524Y358043D01*
X14619Y357981D01*
X14712Y357916D01*
X14802Y357848D01*
X14890Y357777D01*
X14976Y357702D01*
X15059Y357625D01*
X15139Y357545D01*
X15216Y357462D01*
X15291Y357376D01*
X15362Y357288D01*
X15430Y357198D01*
X15495Y357105D01*
X15557Y357010D01*
X15615Y356913D01*
X15670Y356814D01*
X15721Y356713D01*
X15769Y356610D01*
X15814Y356506D01*
X15854Y356400D01*
X15891Y356293D01*
X15924Y356185D01*
X15954Y356075D01*
X15979Y355965D01*
X16001Y355854D01*
X16018Y355742D01*
X16032Y355629D01*
X16042Y355516D01*
X16048Y355403D01*
X16050Y355290D01*
X16049Y355290D02*
X16049Y352045D01*
X16049Y355939D02*
X21242Y358536D01*
X21242Y363401D02*
X21242Y367296D01*
X21240Y367395D01*
X21234Y367495D01*
X21225Y367594D01*
X21212Y367692D01*
X21195Y367790D01*
X21174Y367888D01*
X21149Y367984D01*
X21121Y368079D01*
X21089Y368173D01*
X21054Y368266D01*
X21015Y368358D01*
X20972Y368448D01*
X20927Y368536D01*
X20877Y368623D01*
X20825Y368707D01*
X20769Y368790D01*
X20711Y368870D01*
X20649Y368948D01*
X20584Y369023D01*
X20516Y369096D01*
X20446Y369166D01*
X20373Y369234D01*
X20298Y369299D01*
X20220Y369361D01*
X20140Y369419D01*
X20057Y369475D01*
X19973Y369527D01*
X19886Y369577D01*
X19798Y369622D01*
X19708Y369665D01*
X19616Y369704D01*
X19523Y369739D01*
X19429Y369771D01*
X19334Y369799D01*
X19238Y369824D01*
X19140Y369845D01*
X19042Y369862D01*
X18944Y369875D01*
X18845Y369884D01*
X18745Y369890D01*
X18646Y369892D01*
X17347Y369892D01*
X17248Y369890D01*
X17148Y369884D01*
X17049Y369875D01*
X16951Y369862D01*
X16853Y369845D01*
X16755Y369824D01*
X16659Y369799D01*
X16564Y369771D01*
X16470Y369739D01*
X16377Y369704D01*
X16285Y369665D01*
X16195Y369622D01*
X16107Y369577D01*
X16020Y369527D01*
X15936Y369475D01*
X15853Y369419D01*
X15773Y369361D01*
X15695Y369299D01*
X15620Y369234D01*
X15547Y369166D01*
X15477Y369096D01*
X15409Y369023D01*
X15344Y368948D01*
X15282Y368870D01*
X15224Y368790D01*
X15168Y368707D01*
X15116Y368623D01*
X15066Y368536D01*
X15021Y368448D01*
X14978Y368358D01*
X14939Y368266D01*
X14904Y368173D01*
X14872Y368079D01*
X14844Y367984D01*
X14819Y367888D01*
X14798Y367790D01*
X14781Y367692D01*
X14768Y367594D01*
X14759Y367495D01*
X14753Y367395D01*
X14751Y367296D01*
X14751Y363401D01*
X9558Y363401D01*
X9558Y369892D01*
X217045Y403758D02*
X217045Y415442D01*
X220290Y415442D01*
X220403Y415440D01*
X220516Y415434D01*
X220629Y415424D01*
X220742Y415410D01*
X220854Y415393D01*
X220965Y415371D01*
X221075Y415346D01*
X221185Y415316D01*
X221293Y415283D01*
X221400Y415246D01*
X221506Y415206D01*
X221610Y415161D01*
X221713Y415113D01*
X221814Y415062D01*
X221913Y415007D01*
X222010Y414949D01*
X222105Y414887D01*
X222198Y414822D01*
X222288Y414754D01*
X222376Y414683D01*
X222462Y414608D01*
X222545Y414531D01*
X222625Y414451D01*
X222702Y414368D01*
X222777Y414282D01*
X222848Y414194D01*
X222916Y414104D01*
X222981Y414011D01*
X223043Y413916D01*
X223101Y413819D01*
X223156Y413720D01*
X223207Y413619D01*
X223255Y413516D01*
X223300Y413412D01*
X223340Y413306D01*
X223377Y413199D01*
X223410Y413091D01*
X223440Y412981D01*
X223465Y412871D01*
X223487Y412760D01*
X223504Y412648D01*
X223518Y412535D01*
X223528Y412422D01*
X223534Y412309D01*
X223536Y412196D01*
X223534Y412083D01*
X223528Y411970D01*
X223518Y411857D01*
X223504Y411744D01*
X223487Y411632D01*
X223465Y411521D01*
X223440Y411411D01*
X223410Y411301D01*
X223377Y411193D01*
X223340Y411086D01*
X223300Y410980D01*
X223255Y410876D01*
X223207Y410773D01*
X223156Y410672D01*
X223101Y410573D01*
X223043Y410476D01*
X222981Y410381D01*
X222916Y410288D01*
X222848Y410198D01*
X222777Y410110D01*
X222702Y410024D01*
X222625Y409941D01*
X222545Y409861D01*
X222462Y409784D01*
X222376Y409709D01*
X222288Y409638D01*
X222198Y409570D01*
X222105Y409505D01*
X222010Y409443D01*
X221913Y409385D01*
X221814Y409330D01*
X221713Y409279D01*
X221610Y409231D01*
X221506Y409186D01*
X221400Y409146D01*
X221293Y409109D01*
X221185Y409076D01*
X221075Y409046D01*
X220965Y409021D01*
X220854Y408999D01*
X220742Y408982D01*
X220629Y408968D01*
X220516Y408958D01*
X220403Y408952D01*
X220290Y408950D01*
X220290Y408951D02*
X217045Y408951D01*
X220939Y408951D02*
X223536Y403758D01*
X228401Y410249D02*
X232296Y410249D01*
X232395Y410247D01*
X232495Y410241D01*
X232594Y410232D01*
X232692Y410219D01*
X232790Y410202D01*
X232888Y410181D01*
X232984Y410156D01*
X233079Y410128D01*
X233173Y410096D01*
X233266Y410061D01*
X233358Y410022D01*
X233448Y409979D01*
X233536Y409934D01*
X233623Y409884D01*
X233707Y409832D01*
X233790Y409776D01*
X233870Y409718D01*
X233948Y409656D01*
X234023Y409591D01*
X234096Y409523D01*
X234166Y409453D01*
X234234Y409380D01*
X234299Y409305D01*
X234361Y409227D01*
X234419Y409147D01*
X234475Y409064D01*
X234527Y408980D01*
X234577Y408893D01*
X234622Y408805D01*
X234665Y408715D01*
X234704Y408623D01*
X234739Y408530D01*
X234771Y408436D01*
X234799Y408341D01*
X234824Y408245D01*
X234845Y408147D01*
X234862Y408049D01*
X234875Y407951D01*
X234884Y407852D01*
X234890Y407752D01*
X234892Y407653D01*
X234892Y407004D01*
X234890Y406891D01*
X234884Y406778D01*
X234874Y406665D01*
X234860Y406552D01*
X234843Y406440D01*
X234821Y406329D01*
X234796Y406219D01*
X234766Y406109D01*
X234733Y406001D01*
X234696Y405894D01*
X234656Y405788D01*
X234611Y405684D01*
X234563Y405581D01*
X234512Y405480D01*
X234457Y405381D01*
X234399Y405284D01*
X234337Y405189D01*
X234272Y405096D01*
X234204Y405006D01*
X234133Y404918D01*
X234058Y404832D01*
X233981Y404749D01*
X233901Y404669D01*
X233818Y404592D01*
X233732Y404517D01*
X233644Y404446D01*
X233554Y404378D01*
X233461Y404313D01*
X233366Y404251D01*
X233269Y404193D01*
X233170Y404138D01*
X233069Y404087D01*
X232966Y404039D01*
X232862Y403994D01*
X232756Y403954D01*
X232649Y403917D01*
X232541Y403884D01*
X232431Y403854D01*
X232321Y403829D01*
X232210Y403807D01*
X232098Y403790D01*
X231985Y403776D01*
X231872Y403766D01*
X231759Y403760D01*
X231646Y403758D01*
X231533Y403760D01*
X231420Y403766D01*
X231307Y403776D01*
X231194Y403790D01*
X231082Y403807D01*
X230971Y403829D01*
X230861Y403854D01*
X230751Y403884D01*
X230643Y403917D01*
X230536Y403954D01*
X230430Y403994D01*
X230326Y404039D01*
X230223Y404087D01*
X230122Y404138D01*
X230023Y404193D01*
X229926Y404251D01*
X229831Y404313D01*
X229738Y404378D01*
X229648Y404446D01*
X229560Y404517D01*
X229474Y404592D01*
X229391Y404669D01*
X229311Y404749D01*
X229234Y404832D01*
X229159Y404918D01*
X229088Y405006D01*
X229020Y405096D01*
X228955Y405189D01*
X228893Y405284D01*
X228835Y405381D01*
X228780Y405480D01*
X228729Y405581D01*
X228681Y405684D01*
X228636Y405788D01*
X228596Y405894D01*
X228559Y406001D01*
X228526Y406109D01*
X228496Y406219D01*
X228471Y406329D01*
X228449Y406440D01*
X228432Y406552D01*
X228418Y406665D01*
X228408Y406778D01*
X228402Y406891D01*
X228400Y407004D01*
X228401Y407004D02*
X228401Y410249D01*
X228403Y410392D01*
X228409Y410535D01*
X228419Y410678D01*
X228433Y410820D01*
X228450Y410962D01*
X228472Y411104D01*
X228497Y411245D01*
X228527Y411385D01*
X228560Y411524D01*
X228597Y411662D01*
X228638Y411799D01*
X228682Y411935D01*
X228731Y412070D01*
X228783Y412203D01*
X228838Y412335D01*
X228898Y412465D01*
X228961Y412594D01*
X229027Y412721D01*
X229097Y412845D01*
X229170Y412968D01*
X229247Y413089D01*
X229327Y413208D01*
X229410Y413324D01*
X229496Y413439D01*
X229585Y413550D01*
X229678Y413660D01*
X229773Y413766D01*
X229872Y413870D01*
X229973Y413971D01*
X230077Y414070D01*
X230183Y414165D01*
X230293Y414258D01*
X230404Y414347D01*
X230519Y414433D01*
X230635Y414516D01*
X230754Y414596D01*
X230875Y414673D01*
X230997Y414746D01*
X231122Y414816D01*
X231249Y414882D01*
X231378Y414945D01*
X231508Y415005D01*
X231640Y415060D01*
X231773Y415112D01*
X231908Y415161D01*
X232044Y415205D01*
X232181Y415246D01*
X232319Y415283D01*
X232458Y415316D01*
X232598Y415346D01*
X232739Y415371D01*
X232881Y415393D01*
X233023Y415410D01*
X233165Y415424D01*
X233308Y415434D01*
X233451Y415440D01*
X233594Y415442D01*
D18*
X315250Y257250D03*
D19*
X310000Y250000D03*
D13*
X320508Y244779D02*
X332192Y244779D01*
X326999Y248673D02*
X320508Y244779D01*
X326999Y248673D02*
X320508Y252568D01*
X332192Y252568D01*
X323104Y258001D02*
X320508Y261246D01*
X332192Y261246D01*
X332192Y258001D02*
X332192Y264492D01*
D18*
X30250Y257250D03*
D19*
X25000Y250000D03*
D13*
X20508Y199779D02*
X32192Y199779D01*
X26999Y203673D02*
X20508Y199779D01*
X26999Y203673D02*
X20508Y207568D01*
X32192Y207568D01*
X20508Y216571D02*
X20510Y216678D01*
X20516Y216784D01*
X20526Y216890D01*
X20539Y216996D01*
X20557Y217102D01*
X20578Y217206D01*
X20603Y217310D01*
X20632Y217413D01*
X20664Y217514D01*
X20701Y217614D01*
X20741Y217713D01*
X20784Y217811D01*
X20831Y217907D01*
X20882Y218001D01*
X20936Y218093D01*
X20993Y218183D01*
X21053Y218271D01*
X21117Y218356D01*
X21184Y218439D01*
X21254Y218520D01*
X21326Y218598D01*
X21402Y218674D01*
X21480Y218746D01*
X21561Y218816D01*
X21644Y218883D01*
X21729Y218947D01*
X21817Y219007D01*
X21907Y219064D01*
X21999Y219118D01*
X22093Y219169D01*
X22189Y219216D01*
X22287Y219259D01*
X22386Y219299D01*
X22486Y219336D01*
X22587Y219368D01*
X22690Y219397D01*
X22794Y219422D01*
X22898Y219443D01*
X23004Y219461D01*
X23110Y219474D01*
X23216Y219484D01*
X23322Y219490D01*
X23429Y219492D01*
X20508Y216571D02*
X20510Y216450D01*
X20516Y216329D01*
X20526Y216209D01*
X20539Y216088D01*
X20557Y215969D01*
X20578Y215849D01*
X20603Y215731D01*
X20632Y215614D01*
X20665Y215497D01*
X20701Y215382D01*
X20742Y215268D01*
X20785Y215155D01*
X20833Y215043D01*
X20884Y214934D01*
X20939Y214826D01*
X20997Y214719D01*
X21058Y214615D01*
X21123Y214513D01*
X21191Y214413D01*
X21262Y214315D01*
X21336Y214219D01*
X21413Y214126D01*
X21494Y214036D01*
X21577Y213948D01*
X21663Y213863D01*
X21752Y213780D01*
X21843Y213701D01*
X21937Y213624D01*
X22033Y213551D01*
X22131Y213481D01*
X22232Y213414D01*
X22335Y213350D01*
X22440Y213290D01*
X22547Y213232D01*
X22655Y213179D01*
X22765Y213129D01*
X22877Y213083D01*
X22990Y213040D01*
X23105Y213001D01*
X25701Y218518D02*
X25623Y218597D01*
X25543Y218673D01*
X25460Y218746D01*
X25374Y218816D01*
X25287Y218883D01*
X25196Y218947D01*
X25104Y219007D01*
X25010Y219065D01*
X24913Y219119D01*
X24815Y219169D01*
X24715Y219216D01*
X24614Y219260D01*
X24511Y219300D01*
X24406Y219336D01*
X24301Y219368D01*
X24194Y219397D01*
X24087Y219422D01*
X23978Y219444D01*
X23869Y219461D01*
X23760Y219475D01*
X23650Y219484D01*
X23539Y219490D01*
X23429Y219492D01*
X25701Y218518D02*
X32192Y213001D01*
X32192Y219492D01*
D18*
X257750Y380250D03*
D19*
X265000Y375000D03*
D13*
X235508Y362192D02*
X235508Y350508D01*
X235508Y356999D02*
X241999Y356999D01*
X241999Y362192D02*
X241999Y350508D01*
X247723Y350508D02*
X252915Y350508D01*
X247723Y350508D02*
X247723Y362192D01*
X252915Y362192D01*
X251617Y356999D02*
X247723Y356999D01*
X256576Y350508D02*
X260471Y362192D01*
X264365Y350508D01*
X263392Y353429D02*
X257550Y353429D01*
X269110Y350508D02*
X269110Y362192D01*
X272355Y362192D01*
X272468Y362190D01*
X272581Y362184D01*
X272694Y362174D01*
X272807Y362160D01*
X272919Y362143D01*
X273030Y362121D01*
X273140Y362096D01*
X273250Y362066D01*
X273358Y362033D01*
X273465Y361996D01*
X273571Y361956D01*
X273675Y361911D01*
X273778Y361863D01*
X273879Y361812D01*
X273978Y361757D01*
X274075Y361699D01*
X274170Y361637D01*
X274263Y361572D01*
X274353Y361504D01*
X274441Y361433D01*
X274527Y361358D01*
X274610Y361281D01*
X274690Y361201D01*
X274767Y361118D01*
X274842Y361032D01*
X274913Y360944D01*
X274981Y360854D01*
X275046Y360761D01*
X275108Y360666D01*
X275166Y360569D01*
X275221Y360470D01*
X275272Y360369D01*
X275320Y360266D01*
X275365Y360162D01*
X275405Y360056D01*
X275442Y359949D01*
X275475Y359841D01*
X275505Y359731D01*
X275530Y359621D01*
X275552Y359510D01*
X275569Y359398D01*
X275583Y359285D01*
X275593Y359172D01*
X275599Y359059D01*
X275601Y358946D01*
X275599Y358833D01*
X275593Y358720D01*
X275583Y358607D01*
X275569Y358494D01*
X275552Y358382D01*
X275530Y358271D01*
X275505Y358161D01*
X275475Y358051D01*
X275442Y357943D01*
X275405Y357836D01*
X275365Y357730D01*
X275320Y357626D01*
X275272Y357523D01*
X275221Y357422D01*
X275166Y357323D01*
X275108Y357226D01*
X275046Y357131D01*
X274981Y357038D01*
X274913Y356948D01*
X274842Y356860D01*
X274767Y356774D01*
X274690Y356691D01*
X274610Y356611D01*
X274527Y356534D01*
X274441Y356459D01*
X274353Y356388D01*
X274263Y356320D01*
X274170Y356255D01*
X274075Y356193D01*
X273978Y356135D01*
X273879Y356080D01*
X273778Y356029D01*
X273675Y355981D01*
X273571Y355936D01*
X273465Y355896D01*
X273358Y355859D01*
X273250Y355826D01*
X273140Y355796D01*
X273030Y355771D01*
X272919Y355749D01*
X272807Y355732D01*
X272694Y355718D01*
X272581Y355708D01*
X272468Y355702D01*
X272355Y355700D01*
X272355Y355701D02*
X269110Y355701D01*
X273004Y355701D02*
X275601Y350508D01*
X282949Y350508D02*
X282949Y362192D01*
X279704Y362192D02*
X286195Y362192D01*
M02*
