G04 EAGLE Gerber X2 export*
%TF.Part,Single*%
%TF.FileFunction,Soldermask,Bot,1*%
%TF.FilePolarity,Negative*%
%TF.GenerationSoftware,Autodesk,EAGLE,9.1.0*%
%TF.CreationDate,2018-12-20T06:16:38Z*%
G75*
%MOMM*%
%FSLAX34Y34*%
%LPD*%
%AMOC8*
5,1,8,0,0,1.08239X$1,22.5*%
G01*
%ADD10C,2.703200*%
%ADD11R,1.524000X1.524000*%
%ADD12C,1.524000*%
%ADD13C,1.511200*%
%ADD14C,1.727200*%
%ADD15C,0.959600*%


D10*
X20000Y420000D03*
X20000Y20000D03*
X320000Y420000D03*
X320000Y20000D03*
D11*
X266700Y324000D03*
D12*
X266700Y304000D03*
X266700Y284000D03*
X266700Y264000D03*
X266700Y244000D03*
X266700Y224000D03*
D11*
X66500Y221000D03*
D12*
X66500Y241000D03*
X66500Y261000D03*
X66500Y281000D03*
X66500Y301000D03*
X66500Y321000D03*
D13*
X292100Y166240D02*
X292100Y153160D01*
X267100Y153160D02*
X267100Y166240D01*
X242100Y166240D02*
X242100Y153160D01*
X217100Y153160D02*
X217100Y166240D01*
X192100Y166240D02*
X192100Y153160D01*
X167100Y153160D02*
X167100Y166240D01*
X292100Y64640D02*
X292100Y51560D01*
X267100Y51560D02*
X267100Y64640D01*
X242100Y64640D02*
X242100Y51560D01*
X217100Y51560D02*
X217100Y64640D01*
X192100Y64640D02*
X192100Y51560D01*
X167100Y51560D02*
X167100Y64640D01*
X292100Y102360D02*
X292100Y115440D01*
X267100Y115440D02*
X267100Y102360D01*
X242100Y102360D02*
X242100Y115440D01*
X217100Y115440D02*
X217100Y102360D01*
X192100Y102360D02*
X192100Y115440D01*
X167100Y115440D02*
X167100Y102360D01*
D14*
X101600Y393380D02*
X101600Y408620D01*
X76200Y408620D02*
X76200Y393380D01*
X50800Y393380D02*
X50800Y408620D01*
X101600Y370520D02*
X101600Y355280D01*
X76200Y355280D02*
X76200Y370520D01*
X50800Y370520D02*
X50800Y355280D01*
D15*
X177800Y330200D03*
X165100Y330200D03*
X152400Y330200D03*
X152400Y342900D03*
X165100Y342900D03*
X177800Y342900D03*
X177800Y355600D03*
X165100Y355600D03*
X152400Y355600D03*
X48633Y102921D03*
X104052Y115362D03*
X149800Y272400D03*
X159800Y272400D03*
X149800Y262400D03*
X65598Y167388D03*
X85956Y160602D03*
X268047Y134589D03*
X85956Y128934D03*
X41847Y274833D03*
X68991Y204711D03*
X92742Y180960D03*
X201318Y287274D03*
X201318Y244296D03*
X144768Y187746D03*
X80301Y113100D03*
X182091Y191139D03*
X248820Y231855D03*
X70122Y125541D03*
X56550Y121017D03*
X191139Y287274D03*
X114231Y326859D03*
X65598Y141375D03*
X128934Y178698D03*
X61074Y176436D03*
X73515Y188877D03*
M02*
