G04 EAGLE Gerber X2 export*
%TF.Part,Single*%
%TF.FileFunction,Copper,L2,Bot,Mixed*%
%TF.FilePolarity,Positive*%
%TF.GenerationSoftware,Autodesk,EAGLE,9.1.0*%
%TF.CreationDate,2018-11-28T00:36:44Z*%
G75*
%MOMM*%
%FSLAX34Y34*%
%LPD*%
%AMOC8*
5,1,8,0,0,1.08239X$1,22.5*%
G01*
%ADD10R,1.320800X1.320800*%
%ADD11C,1.320800*%
%ADD12C,1.308000*%
%ADD13C,1.524000*%
%ADD14C,0.756400*%
%ADD15C,0.700000*%
%ADD16C,0.300000*%

G36*
X306632Y10172D02*
X306632Y10172D01*
X306704Y10174D01*
X306752Y10192D01*
X306804Y10200D01*
X306867Y10234D01*
X306935Y10259D01*
X306975Y10291D01*
X307021Y10316D01*
X307071Y10368D01*
X307127Y10412D01*
X307155Y10456D01*
X307190Y10494D01*
X307221Y10559D01*
X307259Y10619D01*
X307272Y10670D01*
X307294Y10717D01*
X307302Y10788D01*
X307320Y10858D01*
X307315Y10910D01*
X307321Y10961D01*
X307306Y11032D01*
X307300Y11103D01*
X307280Y11151D01*
X307269Y11202D01*
X307232Y11263D01*
X307204Y11329D01*
X307159Y11385D01*
X307157Y11390D01*
X304839Y16984D01*
X304839Y23016D01*
X307147Y28588D01*
X311412Y32853D01*
X316984Y35161D01*
X323016Y35161D01*
X325687Y34054D01*
X325731Y34044D01*
X325773Y34025D01*
X325850Y34016D01*
X325926Y33998D01*
X325972Y34002D01*
X326017Y33997D01*
X326094Y34014D01*
X326171Y34021D01*
X326213Y34040D01*
X326258Y34050D01*
X326325Y34090D01*
X326396Y34121D01*
X326430Y34152D01*
X326469Y34176D01*
X326520Y34235D01*
X326577Y34288D01*
X326599Y34328D01*
X326629Y34363D01*
X326658Y34435D01*
X326695Y34503D01*
X326704Y34548D01*
X326721Y34591D01*
X326736Y34727D01*
X326739Y34745D01*
X326738Y34750D01*
X326739Y34758D01*
X326739Y405242D01*
X326732Y405288D01*
X326734Y405334D01*
X326712Y405408D01*
X326700Y405485D01*
X326678Y405526D01*
X326665Y405570D01*
X326621Y405634D01*
X326584Y405702D01*
X326551Y405734D01*
X326525Y405772D01*
X326462Y405818D01*
X326406Y405872D01*
X326364Y405891D01*
X326328Y405919D01*
X326254Y405943D01*
X326183Y405975D01*
X326137Y405981D01*
X326094Y405995D01*
X326016Y405994D01*
X325939Y406003D01*
X325894Y405993D01*
X325848Y405992D01*
X325716Y405954D01*
X325698Y405950D01*
X325694Y405948D01*
X325687Y405946D01*
X323016Y404839D01*
X316984Y404839D01*
X311412Y407147D01*
X307147Y411412D01*
X304839Y416984D01*
X304839Y423016D01*
X306816Y427787D01*
X306826Y427831D01*
X306845Y427873D01*
X306854Y427950D01*
X306872Y428026D01*
X306867Y428072D01*
X306872Y428117D01*
X306856Y428194D01*
X306849Y428271D01*
X306830Y428313D01*
X306820Y428358D01*
X306780Y428425D01*
X306749Y428496D01*
X306718Y428530D01*
X306694Y428569D01*
X306635Y428620D01*
X306582Y428677D01*
X306542Y428699D01*
X306507Y428729D01*
X306435Y428758D01*
X306367Y428795D01*
X306322Y428804D01*
X306279Y428821D01*
X306143Y428836D01*
X306125Y428839D01*
X306120Y428838D01*
X306112Y428839D01*
X33888Y428839D01*
X33843Y428832D01*
X33797Y428834D01*
X33722Y428812D01*
X33645Y428800D01*
X33605Y428778D01*
X33560Y428765D01*
X33496Y428721D01*
X33428Y428684D01*
X33396Y428651D01*
X33358Y428625D01*
X33312Y428562D01*
X33258Y428506D01*
X33239Y428464D01*
X33212Y428428D01*
X33187Y428354D01*
X33155Y428283D01*
X33150Y428237D01*
X33135Y428194D01*
X33136Y428116D01*
X33128Y428039D01*
X33137Y427994D01*
X33138Y427948D01*
X33176Y427816D01*
X33180Y427798D01*
X33182Y427794D01*
X33184Y427787D01*
X35161Y423016D01*
X35161Y416984D01*
X32853Y411412D01*
X28588Y407147D01*
X23016Y404839D01*
X16984Y404839D01*
X11383Y407160D01*
X11350Y407190D01*
X11303Y407212D01*
X11261Y407243D01*
X11192Y407264D01*
X11127Y407294D01*
X11075Y407300D01*
X11026Y407315D01*
X10954Y407313D01*
X10883Y407321D01*
X10832Y407310D01*
X10780Y407309D01*
X10712Y407284D01*
X10642Y407269D01*
X10598Y407242D01*
X10549Y407224D01*
X10493Y407180D01*
X10431Y407143D01*
X10397Y407103D01*
X10357Y407071D01*
X10318Y407010D01*
X10271Y406956D01*
X10252Y406908D01*
X10224Y406864D01*
X10206Y406794D01*
X10179Y406728D01*
X10171Y406657D01*
X10163Y406625D01*
X10165Y406602D01*
X10161Y406561D01*
X10161Y33439D01*
X10172Y33368D01*
X10174Y33296D01*
X10192Y33248D01*
X10200Y33196D01*
X10234Y33133D01*
X10259Y33065D01*
X10291Y33025D01*
X10316Y32979D01*
X10368Y32929D01*
X10412Y32873D01*
X10456Y32845D01*
X10494Y32810D01*
X10559Y32779D01*
X10619Y32741D01*
X10670Y32728D01*
X10717Y32706D01*
X10788Y32698D01*
X10858Y32680D01*
X10910Y32685D01*
X10961Y32679D01*
X11032Y32694D01*
X11103Y32700D01*
X11151Y32720D01*
X11202Y32731D01*
X11263Y32768D01*
X11329Y32796D01*
X11385Y32841D01*
X11390Y32843D01*
X16984Y35161D01*
X23016Y35161D01*
X28588Y32853D01*
X32853Y28588D01*
X35161Y23016D01*
X35161Y16984D01*
X32840Y11383D01*
X32810Y11350D01*
X32788Y11303D01*
X32757Y11261D01*
X32736Y11192D01*
X32706Y11127D01*
X32700Y11075D01*
X32685Y11026D01*
X32687Y10954D01*
X32679Y10883D01*
X32690Y10832D01*
X32691Y10780D01*
X32716Y10712D01*
X32731Y10642D01*
X32758Y10598D01*
X32776Y10549D01*
X32820Y10493D01*
X32857Y10431D01*
X32897Y10397D01*
X32929Y10357D01*
X32990Y10318D01*
X33044Y10271D01*
X33092Y10252D01*
X33136Y10224D01*
X33206Y10206D01*
X33272Y10179D01*
X33343Y10171D01*
X33375Y10163D01*
X33398Y10165D01*
X33439Y10161D01*
X306561Y10161D01*
X306632Y10172D01*
G37*
%LPC*%
G36*
X54334Y32393D02*
X54334Y32393D01*
X51450Y33588D01*
X49243Y35795D01*
X48048Y38679D01*
X48048Y39902D01*
X48034Y39992D01*
X48026Y40083D01*
X48014Y40112D01*
X48009Y40144D01*
X47966Y40225D01*
X47930Y40309D01*
X47904Y40341D01*
X47893Y40362D01*
X47870Y40384D01*
X47825Y40440D01*
X21295Y66970D01*
X20448Y69015D01*
X20448Y273678D01*
X21295Y275723D01*
X51136Y305564D01*
X52612Y306175D01*
X52689Y306223D01*
X52771Y306264D01*
X52793Y306287D01*
X52821Y306304D01*
X52879Y306375D01*
X52943Y306440D01*
X52963Y306476D01*
X52978Y306494D01*
X52989Y306524D01*
X53024Y306587D01*
X54455Y310043D01*
X57457Y313045D01*
X58292Y313391D01*
X58375Y313442D01*
X58461Y313488D01*
X58479Y313506D01*
X58501Y313520D01*
X58564Y313596D01*
X58631Y313666D01*
X58642Y313690D01*
X58658Y313710D01*
X58693Y313801D01*
X58734Y313889D01*
X58737Y313915D01*
X58746Y313939D01*
X58751Y314037D01*
X58761Y314133D01*
X58756Y314159D01*
X58757Y314185D01*
X58730Y314279D01*
X58709Y314374D01*
X58696Y314396D01*
X58688Y314421D01*
X58633Y314501D01*
X58583Y314585D01*
X58563Y314602D01*
X58548Y314623D01*
X58470Y314682D01*
X58396Y314745D01*
X58372Y314755D01*
X58351Y314770D01*
X58258Y314800D01*
X58168Y314837D01*
X58135Y314840D01*
X58117Y314846D01*
X58084Y314846D01*
X58001Y314855D01*
X56562Y314855D01*
X55915Y315028D01*
X55336Y315363D01*
X54863Y315836D01*
X54528Y316415D01*
X54355Y317062D01*
X54355Y322477D01*
X62738Y322477D01*
X62758Y322480D01*
X62777Y322478D01*
X62879Y322500D01*
X62981Y322517D01*
X62998Y322526D01*
X63018Y322530D01*
X63107Y322583D01*
X63198Y322632D01*
X63212Y322646D01*
X63229Y322656D01*
X63296Y322735D01*
X63367Y322810D01*
X63376Y322828D01*
X63389Y322843D01*
X63427Y322939D01*
X63471Y323033D01*
X63473Y323053D01*
X63481Y323071D01*
X63499Y323238D01*
X63499Y324001D01*
X63501Y324001D01*
X63501Y323238D01*
X63504Y323218D01*
X63502Y323199D01*
X63524Y323097D01*
X63541Y322995D01*
X63550Y322978D01*
X63554Y322958D01*
X63607Y322869D01*
X63656Y322778D01*
X63670Y322764D01*
X63680Y322747D01*
X63759Y322680D01*
X63834Y322609D01*
X63852Y322600D01*
X63867Y322587D01*
X63963Y322548D01*
X64057Y322505D01*
X64077Y322503D01*
X64095Y322495D01*
X64262Y322477D01*
X72645Y322477D01*
X72645Y317062D01*
X72472Y316415D01*
X72137Y315836D01*
X71664Y315363D01*
X71085Y315028D01*
X70438Y314855D01*
X68999Y314855D01*
X68903Y314840D01*
X68806Y314830D01*
X68782Y314820D01*
X68756Y314816D01*
X68670Y314770D01*
X68581Y314730D01*
X68562Y314713D01*
X68539Y314700D01*
X68472Y314630D01*
X68400Y314564D01*
X68387Y314541D01*
X68369Y314522D01*
X68328Y314434D01*
X68281Y314348D01*
X68277Y314323D01*
X68266Y314299D01*
X68255Y314202D01*
X68238Y314106D01*
X68242Y314080D01*
X68239Y314055D01*
X68259Y313960D01*
X68273Y313863D01*
X68285Y313840D01*
X68291Y313814D01*
X68341Y313730D01*
X68385Y313644D01*
X68404Y313626D01*
X68417Y313603D01*
X68491Y313540D01*
X68561Y313472D01*
X68589Y313456D01*
X68604Y313443D01*
X68635Y313431D01*
X68708Y313391D01*
X69543Y313045D01*
X72545Y310043D01*
X74169Y306122D01*
X74169Y301878D01*
X72545Y297957D01*
X69543Y294955D01*
X68935Y294703D01*
X68874Y294666D01*
X68808Y294636D01*
X68770Y294601D01*
X68726Y294574D01*
X68680Y294518D01*
X68627Y294470D01*
X68602Y294424D01*
X68569Y294384D01*
X68543Y294317D01*
X68508Y294254D01*
X68499Y294203D01*
X68480Y294155D01*
X68477Y294083D01*
X68465Y294012D01*
X68472Y293961D01*
X68470Y293909D01*
X68490Y293840D01*
X68500Y293769D01*
X68524Y293723D01*
X68539Y293673D01*
X68579Y293614D01*
X68612Y293550D01*
X68649Y293513D01*
X68679Y293471D01*
X68736Y293428D01*
X68788Y293378D01*
X68850Y293343D01*
X68876Y293324D01*
X68899Y293317D01*
X68935Y293297D01*
X69543Y293045D01*
X72545Y290043D01*
X74169Y286122D01*
X74169Y281878D01*
X72545Y277957D01*
X69543Y274955D01*
X68935Y274703D01*
X68874Y274666D01*
X68808Y274636D01*
X68770Y274601D01*
X68726Y274574D01*
X68680Y274518D01*
X68627Y274470D01*
X68602Y274424D01*
X68569Y274384D01*
X68543Y274317D01*
X68508Y274254D01*
X68499Y274203D01*
X68480Y274155D01*
X68477Y274083D01*
X68465Y274012D01*
X68472Y273961D01*
X68470Y273909D01*
X68490Y273840D01*
X68500Y273769D01*
X68524Y273723D01*
X68539Y273673D01*
X68579Y273614D01*
X68612Y273550D01*
X68649Y273513D01*
X68679Y273471D01*
X68736Y273428D01*
X68788Y273378D01*
X68850Y273343D01*
X68876Y273324D01*
X68899Y273317D01*
X68935Y273297D01*
X69543Y273045D01*
X69555Y273033D01*
X69571Y273021D01*
X69583Y273006D01*
X69671Y272950D01*
X69754Y272890D01*
X69773Y272884D01*
X69790Y272873D01*
X69891Y272848D01*
X69990Y272817D01*
X70010Y272818D01*
X70029Y272813D01*
X70132Y272821D01*
X70235Y272824D01*
X70254Y272830D01*
X70274Y272832D01*
X70369Y272872D01*
X70466Y272908D01*
X70482Y272920D01*
X70500Y272928D01*
X70631Y273033D01*
X75644Y278046D01*
X75697Y278120D01*
X75757Y278189D01*
X75769Y278220D01*
X75788Y278246D01*
X75815Y278333D01*
X75849Y278418D01*
X75853Y278459D01*
X75860Y278481D01*
X75859Y278513D01*
X75867Y278584D01*
X75867Y333621D01*
X76714Y335666D01*
X78387Y337339D01*
X86954Y345906D01*
X87007Y345980D01*
X87067Y346049D01*
X87079Y346080D01*
X87098Y346106D01*
X87125Y346193D01*
X87159Y346278D01*
X87163Y346319D01*
X87170Y346341D01*
X87169Y346373D01*
X87177Y346444D01*
X87177Y347193D01*
X88024Y349238D01*
X89697Y350911D01*
X90091Y351304D01*
X90158Y351398D01*
X90229Y351493D01*
X90231Y351499D01*
X90234Y351504D01*
X90268Y351615D01*
X90305Y351727D01*
X90305Y351733D01*
X90307Y351739D01*
X90304Y351856D01*
X90302Y351973D01*
X90300Y351980D01*
X90300Y351985D01*
X90294Y352003D01*
X90256Y352134D01*
X89915Y352956D01*
X89915Y372844D01*
X91694Y377139D01*
X94981Y380426D01*
X96963Y381247D01*
X97024Y381285D01*
X97089Y381314D01*
X97128Y381349D01*
X97172Y381376D01*
X97218Y381432D01*
X97270Y381480D01*
X97296Y381526D01*
X97329Y381566D01*
X97354Y381633D01*
X97389Y381696D01*
X97398Y381747D01*
X97417Y381795D01*
X97420Y381867D01*
X97433Y381938D01*
X97425Y381989D01*
X97427Y382041D01*
X97407Y382110D01*
X97397Y382181D01*
X97373Y382227D01*
X97359Y382277D01*
X97318Y382336D01*
X97285Y382400D01*
X97248Y382437D01*
X97219Y382479D01*
X97161Y382522D01*
X97110Y382572D01*
X97047Y382607D01*
X97021Y382626D01*
X96999Y382633D01*
X96963Y382653D01*
X94981Y383474D01*
X91694Y386761D01*
X89915Y391056D01*
X89915Y410944D01*
X91694Y415239D01*
X94981Y418526D01*
X99276Y420305D01*
X103924Y420305D01*
X108219Y418526D01*
X111506Y415239D01*
X113285Y410944D01*
X113285Y391056D01*
X111506Y386761D01*
X108219Y383474D01*
X106237Y382653D01*
X106176Y382615D01*
X106111Y382586D01*
X106072Y382551D01*
X106028Y382524D01*
X105982Y382468D01*
X105930Y382420D01*
X105904Y382374D01*
X105871Y382334D01*
X105846Y382267D01*
X105811Y382204D01*
X105802Y382153D01*
X105783Y382105D01*
X105780Y382033D01*
X105767Y381962D01*
X105775Y381911D01*
X105773Y381859D01*
X105793Y381790D01*
X105803Y381719D01*
X105827Y381673D01*
X105841Y381623D01*
X105882Y381564D01*
X105915Y381500D01*
X105952Y381463D01*
X105981Y381421D01*
X106039Y381378D01*
X106090Y381328D01*
X106153Y381293D01*
X106179Y381274D01*
X106201Y381267D01*
X106237Y381247D01*
X108219Y380426D01*
X111506Y377139D01*
X113285Y372844D01*
X113285Y352956D01*
X111506Y348661D01*
X108219Y345374D01*
X103924Y343595D01*
X99230Y343595D01*
X99196Y343599D01*
X99120Y343617D01*
X99074Y343613D01*
X99029Y343618D01*
X98952Y343601D01*
X98875Y343594D01*
X98833Y343575D01*
X98788Y343565D01*
X98721Y343525D01*
X98650Y343494D01*
X98617Y343463D01*
X98577Y343439D01*
X98526Y343380D01*
X98469Y343327D01*
X98447Y343287D01*
X98417Y343252D01*
X98388Y343180D01*
X98351Y343112D01*
X98342Y343067D01*
X98325Y343024D01*
X98310Y342888D01*
X98307Y342870D01*
X98308Y342865D01*
X98307Y342857D01*
X98307Y342717D01*
X97460Y340672D01*
X87220Y330432D01*
X87167Y330358D01*
X87131Y330317D01*
X87128Y330314D01*
X87128Y330313D01*
X87107Y330289D01*
X87095Y330258D01*
X87076Y330232D01*
X87049Y330145D01*
X87044Y330132D01*
X87025Y330091D01*
X87024Y330082D01*
X87015Y330060D01*
X87011Y330019D01*
X87004Y329997D01*
X87005Y329965D01*
X86997Y329894D01*
X86997Y274857D01*
X86150Y272812D01*
X73816Y260478D01*
X73536Y260198D01*
X73497Y260145D01*
X73451Y260098D01*
X73411Y260025D01*
X73392Y259998D01*
X73386Y259980D01*
X73371Y259951D01*
X72545Y257957D01*
X69543Y254955D01*
X68935Y254703D01*
X68874Y254666D01*
X68808Y254636D01*
X68770Y254601D01*
X68726Y254574D01*
X68680Y254518D01*
X68627Y254470D01*
X68602Y254424D01*
X68569Y254384D01*
X68543Y254317D01*
X68508Y254254D01*
X68499Y254203D01*
X68480Y254155D01*
X68477Y254083D01*
X68465Y254012D01*
X68472Y253961D01*
X68470Y253909D01*
X68490Y253840D01*
X68500Y253769D01*
X68524Y253723D01*
X68539Y253673D01*
X68579Y253614D01*
X68612Y253550D01*
X68649Y253513D01*
X68679Y253471D01*
X68736Y253428D01*
X68788Y253378D01*
X68850Y253343D01*
X68876Y253324D01*
X68899Y253317D01*
X68935Y253297D01*
X69629Y253009D01*
X69650Y252994D01*
X69669Y252988D01*
X69686Y252977D01*
X69786Y252952D01*
X69885Y252922D01*
X69905Y252922D01*
X69925Y252917D01*
X70027Y252925D01*
X70130Y252928D01*
X70150Y252935D01*
X70170Y252936D01*
X70264Y252976D01*
X70362Y253012D01*
X70378Y253025D01*
X70396Y253032D01*
X70527Y253137D01*
X77147Y259757D01*
X79927Y260909D01*
X123719Y260909D01*
X123739Y260912D01*
X123758Y260910D01*
X123860Y260932D01*
X123962Y260948D01*
X123979Y260958D01*
X123999Y260962D01*
X124088Y261015D01*
X124179Y261064D01*
X124193Y261078D01*
X124210Y261088D01*
X124277Y261167D01*
X124349Y261242D01*
X124357Y261260D01*
X124370Y261275D01*
X124409Y261371D01*
X124452Y261465D01*
X124454Y261485D01*
X124462Y261503D01*
X124480Y261670D01*
X124480Y263953D01*
X125675Y266837D01*
X127882Y269044D01*
X128447Y269278D01*
X128508Y269316D01*
X128574Y269345D01*
X128612Y269380D01*
X128656Y269408D01*
X128702Y269463D01*
X128755Y269512D01*
X128780Y269557D01*
X128813Y269597D01*
X128839Y269664D01*
X128873Y269727D01*
X128883Y269778D01*
X128901Y269827D01*
X128904Y269898D01*
X128917Y269969D01*
X128910Y270021D01*
X128912Y270073D01*
X128892Y270142D01*
X128881Y270212D01*
X128858Y270259D01*
X128843Y270309D01*
X128802Y270368D01*
X128770Y270432D01*
X128733Y270468D01*
X128703Y270511D01*
X128646Y270554D01*
X128594Y270604D01*
X128532Y270638D01*
X128506Y270658D01*
X128483Y270665D01*
X128447Y270685D01*
X127882Y270919D01*
X125675Y273126D01*
X124480Y276010D01*
X124480Y279132D01*
X125675Y282016D01*
X127882Y284223D01*
X130766Y285418D01*
X131989Y285418D01*
X132079Y285432D01*
X132170Y285440D01*
X132199Y285452D01*
X132231Y285457D01*
X132312Y285500D01*
X132396Y285536D01*
X132428Y285562D01*
X132449Y285573D01*
X132471Y285596D01*
X132527Y285641D01*
X151319Y304433D01*
X153364Y305280D01*
X169292Y305280D01*
X169382Y305294D01*
X169473Y305302D01*
X169502Y305314D01*
X169534Y305319D01*
X169615Y305362D01*
X169699Y305398D01*
X169731Y305424D01*
X169752Y305435D01*
X169774Y305458D01*
X169830Y305503D01*
X198903Y334576D01*
X198956Y334650D01*
X199016Y334719D01*
X199028Y334750D01*
X199047Y334776D01*
X199074Y334863D01*
X199108Y334948D01*
X199112Y334989D01*
X199119Y335011D01*
X199118Y335043D01*
X199126Y335114D01*
X199126Y336337D01*
X200321Y339221D01*
X202528Y341428D01*
X205412Y342623D01*
X208534Y342623D01*
X211418Y341428D01*
X213625Y339221D01*
X214820Y336337D01*
X214820Y333215D01*
X213625Y330331D01*
X211418Y328124D01*
X208534Y326929D01*
X207311Y326929D01*
X207221Y326915D01*
X207130Y326907D01*
X207101Y326895D01*
X207069Y326890D01*
X206988Y326847D01*
X206904Y326811D01*
X206872Y326785D01*
X206851Y326774D01*
X206829Y326751D01*
X206773Y326706D01*
X182122Y302055D01*
X182080Y301997D01*
X182031Y301945D01*
X182009Y301898D01*
X181978Y301856D01*
X181957Y301787D01*
X181927Y301722D01*
X181921Y301670D01*
X181906Y301620D01*
X181908Y301549D01*
X181900Y301478D01*
X181911Y301427D01*
X181912Y301375D01*
X181937Y301307D01*
X181952Y301237D01*
X181979Y301193D01*
X181997Y301144D01*
X182042Y301088D01*
X182078Y301026D01*
X182118Y300992D01*
X182151Y300952D01*
X182211Y300913D01*
X182265Y300866D01*
X182314Y300847D01*
X182358Y300819D01*
X182427Y300801D01*
X182494Y300774D01*
X182565Y300766D01*
X182596Y300758D01*
X182619Y300760D01*
X182660Y300756D01*
X197567Y300756D01*
X197657Y300770D01*
X197748Y300778D01*
X197777Y300790D01*
X197809Y300795D01*
X197890Y300838D01*
X197974Y300874D01*
X198006Y300900D01*
X198027Y300911D01*
X198049Y300934D01*
X198105Y300979D01*
X259977Y362851D01*
X260020Y362911D01*
X260060Y362953D01*
X260067Y362968D01*
X260090Y362994D01*
X260102Y363025D01*
X260121Y363051D01*
X260148Y363138D01*
X260159Y363165D01*
X260164Y363176D01*
X260164Y363178D01*
X260182Y363223D01*
X260186Y363264D01*
X260193Y363286D01*
X260192Y363318D01*
X260200Y363389D01*
X260200Y364612D01*
X261395Y367496D01*
X263602Y369703D01*
X266486Y370898D01*
X269608Y370898D01*
X272492Y369703D01*
X274699Y367496D01*
X275894Y364612D01*
X275894Y361490D01*
X274699Y358606D01*
X272492Y356399D01*
X269608Y355204D01*
X268385Y355204D01*
X268295Y355190D01*
X268204Y355182D01*
X268175Y355170D01*
X268143Y355165D01*
X268062Y355122D01*
X267978Y355086D01*
X267946Y355060D01*
X267925Y355049D01*
X267903Y355026D01*
X267847Y354981D01*
X205012Y292146D01*
X204939Y292073D01*
X204871Y291978D01*
X204801Y291885D01*
X204799Y291879D01*
X204795Y291874D01*
X204761Y291762D01*
X204725Y291651D01*
X204725Y291644D01*
X204723Y291639D01*
X204726Y291522D01*
X204727Y291405D01*
X204729Y291398D01*
X204729Y291393D01*
X204736Y291375D01*
X204774Y291244D01*
X205772Y288835D01*
X205772Y285713D01*
X204577Y282829D01*
X202370Y280622D01*
X201829Y280398D01*
X201773Y280363D01*
X201713Y280338D01*
X201648Y280286D01*
X201620Y280268D01*
X201607Y280253D01*
X201582Y280233D01*
X170515Y249166D01*
X168280Y246931D01*
X165500Y245779D01*
X84881Y245779D01*
X84791Y245765D01*
X84700Y245757D01*
X84670Y245745D01*
X84638Y245740D01*
X84557Y245697D01*
X84473Y245661D01*
X84441Y245635D01*
X84421Y245624D01*
X84398Y245601D01*
X84342Y245556D01*
X75538Y236752D01*
X72758Y235600D01*
X70503Y235600D01*
X70413Y235586D01*
X70322Y235578D01*
X70293Y235566D01*
X70261Y235561D01*
X70180Y235518D01*
X70096Y235482D01*
X70064Y235456D01*
X70043Y235445D01*
X70021Y235422D01*
X69965Y235377D01*
X69543Y234955D01*
X68935Y234703D01*
X68874Y234666D01*
X68808Y234636D01*
X68770Y234601D01*
X68726Y234574D01*
X68680Y234518D01*
X68627Y234470D01*
X68602Y234424D01*
X68569Y234384D01*
X68543Y234317D01*
X68508Y234254D01*
X68499Y234203D01*
X68480Y234155D01*
X68477Y234083D01*
X68465Y234012D01*
X68472Y233961D01*
X68470Y233909D01*
X68490Y233840D01*
X68500Y233769D01*
X68524Y233723D01*
X68539Y233673D01*
X68579Y233614D01*
X68612Y233550D01*
X68649Y233513D01*
X68679Y233471D01*
X68736Y233428D01*
X68788Y233378D01*
X68850Y233343D01*
X68876Y233324D01*
X68899Y233317D01*
X68935Y233297D01*
X69543Y233045D01*
X72545Y230043D01*
X74169Y226122D01*
X74169Y221878D01*
X72545Y217957D01*
X69886Y215298D01*
X69859Y215261D01*
X69825Y215230D01*
X69788Y215161D01*
X69742Y215098D01*
X69729Y215054D01*
X69707Y215014D01*
X69693Y214937D01*
X69670Y214863D01*
X69671Y214817D01*
X69663Y214772D01*
X69674Y214695D01*
X69676Y214617D01*
X69692Y214574D01*
X69699Y214529D01*
X69734Y214459D01*
X69761Y214386D01*
X69789Y214350D01*
X69810Y214309D01*
X69866Y214255D01*
X69914Y214194D01*
X69953Y214169D01*
X69986Y214137D01*
X70106Y214071D01*
X70121Y214061D01*
X70126Y214060D01*
X70133Y214056D01*
X71174Y213625D01*
X73381Y211418D01*
X74576Y208534D01*
X74576Y205412D01*
X73381Y202528D01*
X71174Y200321D01*
X68290Y199126D01*
X65168Y199126D01*
X62529Y200219D01*
X62466Y200234D01*
X62405Y200259D01*
X62322Y200268D01*
X62290Y200275D01*
X62271Y200274D01*
X62238Y200277D01*
X54312Y200277D01*
X52267Y201124D01*
X34130Y219261D01*
X34056Y219314D01*
X33987Y219374D01*
X33956Y219386D01*
X33930Y219405D01*
X33843Y219432D01*
X33758Y219466D01*
X33717Y219470D01*
X33695Y219477D01*
X33663Y219476D01*
X33592Y219484D01*
X32339Y219484D01*
X32319Y219481D01*
X32300Y219483D01*
X32198Y219461D01*
X32096Y219445D01*
X32079Y219435D01*
X32059Y219431D01*
X31970Y219378D01*
X31879Y219329D01*
X31865Y219315D01*
X31848Y219305D01*
X31781Y219226D01*
X31709Y219151D01*
X31701Y219133D01*
X31688Y219118D01*
X31649Y219022D01*
X31606Y218928D01*
X31604Y218908D01*
X31596Y218890D01*
X31578Y218723D01*
X31578Y140813D01*
X31589Y140743D01*
X31591Y140671D01*
X31609Y140622D01*
X31617Y140571D01*
X31651Y140507D01*
X31676Y140440D01*
X31708Y140399D01*
X31733Y140353D01*
X31785Y140304D01*
X31829Y140248D01*
X31873Y140220D01*
X31911Y140184D01*
X31976Y140154D01*
X32036Y140115D01*
X32087Y140102D01*
X32134Y140080D01*
X32205Y140072D01*
X32275Y140055D01*
X32327Y140059D01*
X32378Y140053D01*
X32449Y140068D01*
X32520Y140074D01*
X32568Y140094D01*
X32619Y140105D01*
X32680Y140142D01*
X32746Y140170D01*
X32802Y140215D01*
X32830Y140231D01*
X32845Y140249D01*
X32877Y140275D01*
X40563Y147961D01*
X40616Y148035D01*
X40676Y148104D01*
X40688Y148135D01*
X40707Y148161D01*
X40734Y148248D01*
X40768Y148333D01*
X40772Y148374D01*
X40779Y148396D01*
X40778Y148428D01*
X40786Y148499D01*
X40786Y149722D01*
X41981Y152606D01*
X44188Y154813D01*
X47072Y156008D01*
X50194Y156008D01*
X53078Y154813D01*
X55285Y152606D01*
X55542Y151987D01*
X55566Y151948D01*
X55581Y151905D01*
X55630Y151844D01*
X55671Y151778D01*
X55706Y151748D01*
X55735Y151713D01*
X55801Y151671D01*
X55861Y151621D01*
X55903Y151604D01*
X55942Y151580D01*
X56018Y151561D01*
X56090Y151533D01*
X56136Y151531D01*
X56181Y151520D01*
X56258Y151526D01*
X56336Y151522D01*
X56380Y151535D01*
X56426Y151539D01*
X56497Y151569D01*
X56572Y151591D01*
X56610Y151617D01*
X56652Y151635D01*
X56759Y151720D01*
X56774Y151731D01*
X56777Y151735D01*
X56783Y151740D01*
X86934Y181891D01*
X86987Y181965D01*
X87047Y182034D01*
X87059Y182065D01*
X87078Y182091D01*
X87105Y182178D01*
X87139Y182263D01*
X87143Y182304D01*
X87150Y182326D01*
X87149Y182358D01*
X87157Y182429D01*
X87157Y183652D01*
X88352Y186536D01*
X90559Y188743D01*
X93443Y189938D01*
X96565Y189938D01*
X99449Y188743D01*
X101656Y186536D01*
X102575Y184317D01*
X102599Y184278D01*
X102615Y184235D01*
X102664Y184174D01*
X102705Y184108D01*
X102740Y184079D01*
X102769Y184043D01*
X102834Y184001D01*
X102894Y183951D01*
X102937Y183935D01*
X102976Y183910D01*
X103051Y183891D01*
X103124Y183863D01*
X103170Y183861D01*
X103214Y183850D01*
X103292Y183856D01*
X103370Y183853D01*
X103414Y183866D01*
X103459Y183869D01*
X103531Y183900D01*
X103606Y183921D01*
X103643Y183948D01*
X103686Y183966D01*
X103792Y184051D01*
X103808Y184062D01*
X103811Y184066D01*
X103817Y184070D01*
X114078Y194332D01*
X114131Y194406D01*
X114191Y194475D01*
X114203Y194506D01*
X114222Y194532D01*
X114249Y194619D01*
X114283Y194704D01*
X114287Y194745D01*
X114294Y194767D01*
X114293Y194799D01*
X114301Y194870D01*
X114301Y196093D01*
X115496Y198977D01*
X117703Y201184D01*
X120587Y202379D01*
X123709Y202379D01*
X126593Y201184D01*
X128800Y198977D01*
X129995Y196093D01*
X129995Y192971D01*
X129744Y192366D01*
X129735Y192327D01*
X129724Y192304D01*
X129720Y192266D01*
X129693Y192178D01*
X129694Y192152D01*
X129688Y192126D01*
X129697Y192030D01*
X129699Y191932D01*
X129708Y191908D01*
X129711Y191882D01*
X129750Y191793D01*
X129784Y191701D01*
X129800Y191681D01*
X129811Y191657D01*
X129877Y191585D01*
X129938Y191509D01*
X129960Y191495D01*
X129977Y191476D01*
X130062Y191429D01*
X130145Y191376D01*
X130170Y191370D01*
X130193Y191357D01*
X130289Y191340D01*
X130383Y191316D01*
X130409Y191318D01*
X130435Y191313D01*
X130531Y191328D01*
X130628Y191335D01*
X130652Y191345D01*
X130678Y191349D01*
X130765Y191393D01*
X130855Y191432D01*
X130880Y191452D01*
X130897Y191461D01*
X130921Y191484D01*
X130930Y191492D01*
X130932Y191493D01*
X130935Y191496D01*
X130986Y191536D01*
X190719Y251270D01*
X190787Y251364D01*
X190857Y251459D01*
X190859Y251465D01*
X190863Y251470D01*
X190897Y251580D01*
X190933Y251692D01*
X190933Y251699D01*
X190935Y251705D01*
X190932Y251822D01*
X190931Y251938D01*
X190929Y251946D01*
X190929Y251951D01*
X190922Y251968D01*
X190884Y252100D01*
X190078Y254045D01*
X190078Y257167D01*
X191273Y260051D01*
X193480Y262258D01*
X196364Y263453D01*
X199486Y263453D01*
X202370Y262258D01*
X204577Y260051D01*
X205772Y257167D01*
X205772Y254045D01*
X204577Y251161D01*
X203713Y250297D01*
X203660Y250223D01*
X203600Y250153D01*
X203588Y250123D01*
X203569Y250097D01*
X203542Y250010D01*
X203508Y249925D01*
X203504Y249884D01*
X203497Y249862D01*
X203498Y249830D01*
X203490Y249758D01*
X203490Y249499D01*
X202643Y247454D01*
X200970Y245781D01*
X199441Y244252D01*
X199414Y244215D01*
X199381Y244184D01*
X199343Y244116D01*
X199298Y244053D01*
X199284Y244009D01*
X199262Y243969D01*
X199248Y243892D01*
X199225Y243818D01*
X199226Y243772D01*
X199218Y243727D01*
X199230Y243650D01*
X199232Y243572D01*
X199247Y243529D01*
X199254Y243483D01*
X199289Y243414D01*
X199316Y243341D01*
X199345Y243305D01*
X199366Y243264D01*
X199421Y243209D01*
X199470Y243149D01*
X199508Y243124D01*
X199541Y243092D01*
X199661Y243026D01*
X199677Y243016D01*
X199682Y243015D01*
X199688Y243011D01*
X202370Y241900D01*
X204090Y240180D01*
X204106Y240168D01*
X204118Y240153D01*
X204206Y240097D01*
X204290Y240037D01*
X204309Y240031D01*
X204325Y240020D01*
X204426Y239995D01*
X204525Y239964D01*
X204545Y239965D01*
X204564Y239960D01*
X204667Y239968D01*
X204771Y239971D01*
X204789Y239977D01*
X204809Y239979D01*
X204904Y240019D01*
X205002Y240055D01*
X205017Y240068D01*
X205035Y240075D01*
X205166Y240180D01*
X243032Y278046D01*
X243085Y278120D01*
X243145Y278189D01*
X243157Y278220D01*
X243176Y278246D01*
X243203Y278333D01*
X243237Y278418D01*
X243241Y278459D01*
X243248Y278481D01*
X243247Y278513D01*
X243255Y278584D01*
X243255Y294036D01*
X244102Y296081D01*
X252454Y304433D01*
X254499Y305280D01*
X255248Y305280D01*
X255337Y305294D01*
X255428Y305301D01*
X255458Y305314D01*
X255490Y305319D01*
X255571Y305362D01*
X255655Y305398D01*
X255687Y305424D01*
X255708Y305435D01*
X255730Y305458D01*
X255755Y305478D01*
X255761Y305482D01*
X255764Y305485D01*
X255786Y305502D01*
X255808Y305525D01*
X255854Y305588D01*
X255877Y305613D01*
X255882Y305623D01*
X255921Y305668D01*
X255933Y305698D01*
X255952Y305724D01*
X255979Y305812D01*
X256013Y305897D01*
X256017Y305937D01*
X256024Y305959D01*
X256023Y305992D01*
X256031Y306063D01*
X256031Y306122D01*
X257655Y310043D01*
X260657Y313045D01*
X261492Y313391D01*
X261575Y313442D01*
X261661Y313488D01*
X261679Y313507D01*
X261701Y313520D01*
X261764Y313595D01*
X261831Y313666D01*
X261842Y313690D01*
X261858Y313710D01*
X261893Y313801D01*
X261934Y313889D01*
X261937Y313915D01*
X261947Y313939D01*
X261951Y314037D01*
X261961Y314133D01*
X261956Y314159D01*
X261957Y314185D01*
X261930Y314279D01*
X261909Y314374D01*
X261896Y314396D01*
X261888Y314421D01*
X261833Y314501D01*
X261783Y314585D01*
X261763Y314602D01*
X261748Y314623D01*
X261670Y314682D01*
X261596Y314745D01*
X261572Y314755D01*
X261551Y314770D01*
X261458Y314800D01*
X261368Y314837D01*
X261335Y314840D01*
X261317Y314846D01*
X261284Y314846D01*
X261201Y314855D01*
X259762Y314855D01*
X259115Y315028D01*
X258536Y315363D01*
X258063Y315836D01*
X257728Y316415D01*
X257555Y317062D01*
X257555Y322477D01*
X265938Y322477D01*
X265958Y322480D01*
X265977Y322478D01*
X266079Y322500D01*
X266181Y322517D01*
X266198Y322526D01*
X266218Y322530D01*
X266307Y322583D01*
X266398Y322632D01*
X266412Y322646D01*
X266429Y322656D01*
X266496Y322735D01*
X266567Y322810D01*
X266576Y322828D01*
X266589Y322843D01*
X266627Y322939D01*
X266671Y323033D01*
X266673Y323053D01*
X266681Y323071D01*
X266699Y323238D01*
X266699Y324001D01*
X266701Y324001D01*
X266701Y323238D01*
X266704Y323218D01*
X266702Y323199D01*
X266724Y323097D01*
X266741Y322995D01*
X266750Y322978D01*
X266754Y322958D01*
X266807Y322869D01*
X266856Y322778D01*
X266870Y322764D01*
X266880Y322747D01*
X266959Y322680D01*
X267034Y322609D01*
X267052Y322600D01*
X267067Y322587D01*
X267163Y322548D01*
X267257Y322505D01*
X267277Y322503D01*
X267295Y322495D01*
X267462Y322477D01*
X275845Y322477D01*
X275845Y317062D01*
X275672Y316415D01*
X275337Y315836D01*
X274864Y315363D01*
X274285Y315028D01*
X273638Y314855D01*
X272199Y314855D01*
X272103Y314840D01*
X272006Y314830D01*
X271982Y314820D01*
X271956Y314816D01*
X271870Y314770D01*
X271781Y314730D01*
X271762Y314713D01*
X271739Y314700D01*
X271672Y314630D01*
X271600Y314564D01*
X271587Y314541D01*
X271569Y314522D01*
X271528Y314434D01*
X271481Y314348D01*
X271477Y314323D01*
X271466Y314299D01*
X271455Y314202D01*
X271438Y314106D01*
X271442Y314080D01*
X271439Y314055D01*
X271459Y313960D01*
X271473Y313863D01*
X271485Y313840D01*
X271491Y313814D01*
X271541Y313730D01*
X271585Y313644D01*
X271604Y313626D01*
X271617Y313603D01*
X271691Y313540D01*
X271761Y313472D01*
X271789Y313456D01*
X271804Y313443D01*
X271835Y313431D01*
X271908Y313391D01*
X272743Y313045D01*
X275745Y310043D01*
X277369Y306122D01*
X277369Y301878D01*
X275745Y297957D01*
X272743Y294955D01*
X272135Y294703D01*
X272074Y294666D01*
X272008Y294636D01*
X271970Y294601D01*
X271926Y294574D01*
X271880Y294518D01*
X271827Y294470D01*
X271802Y294424D01*
X271769Y294384D01*
X271743Y294317D01*
X271708Y294254D01*
X271699Y294203D01*
X271680Y294155D01*
X271677Y294083D01*
X271665Y294012D01*
X271672Y293961D01*
X271670Y293909D01*
X271690Y293840D01*
X271700Y293769D01*
X271724Y293723D01*
X271739Y293673D01*
X271779Y293614D01*
X271812Y293550D01*
X271849Y293513D01*
X271879Y293471D01*
X271936Y293428D01*
X271988Y293378D01*
X272050Y293343D01*
X272076Y293324D01*
X272099Y293317D01*
X272135Y293297D01*
X272743Y293045D01*
X275745Y290043D01*
X277369Y286122D01*
X277369Y281878D01*
X275745Y277957D01*
X272743Y274955D01*
X272135Y274703D01*
X272074Y274666D01*
X272008Y274636D01*
X271970Y274601D01*
X271926Y274574D01*
X271880Y274518D01*
X271827Y274470D01*
X271802Y274424D01*
X271769Y274384D01*
X271743Y274317D01*
X271708Y274254D01*
X271699Y274203D01*
X271680Y274155D01*
X271677Y274083D01*
X271665Y274012D01*
X271672Y273961D01*
X271670Y273909D01*
X271690Y273840D01*
X271700Y273769D01*
X271724Y273723D01*
X271739Y273673D01*
X271779Y273614D01*
X271812Y273550D01*
X271849Y273513D01*
X271879Y273471D01*
X271936Y273428D01*
X271988Y273378D01*
X272050Y273343D01*
X272076Y273324D01*
X272099Y273317D01*
X272135Y273297D01*
X272743Y273045D01*
X275745Y270043D01*
X277369Y266122D01*
X277369Y261878D01*
X275745Y257957D01*
X272743Y254955D01*
X272135Y254703D01*
X272074Y254666D01*
X272008Y254636D01*
X271970Y254601D01*
X271926Y254574D01*
X271880Y254518D01*
X271827Y254470D01*
X271802Y254424D01*
X271769Y254384D01*
X271743Y254317D01*
X271708Y254254D01*
X271699Y254203D01*
X271680Y254155D01*
X271677Y254083D01*
X271665Y254012D01*
X271672Y253961D01*
X271670Y253909D01*
X271690Y253840D01*
X271700Y253769D01*
X271724Y253723D01*
X271739Y253673D01*
X271779Y253614D01*
X271812Y253550D01*
X271849Y253513D01*
X271879Y253471D01*
X271936Y253428D01*
X271988Y253378D01*
X272050Y253343D01*
X272076Y253324D01*
X272099Y253317D01*
X272135Y253297D01*
X272743Y253045D01*
X275745Y250043D01*
X277369Y246122D01*
X277369Y241878D01*
X275745Y237957D01*
X272743Y234955D01*
X272135Y234703D01*
X272074Y234666D01*
X272008Y234636D01*
X271970Y234601D01*
X271926Y234574D01*
X271880Y234518D01*
X271827Y234470D01*
X271802Y234424D01*
X271769Y234384D01*
X271743Y234317D01*
X271708Y234254D01*
X271699Y234203D01*
X271680Y234155D01*
X271677Y234083D01*
X271665Y234012D01*
X271672Y233961D01*
X271670Y233909D01*
X271690Y233840D01*
X271700Y233769D01*
X271724Y233723D01*
X271739Y233673D01*
X271779Y233614D01*
X271812Y233550D01*
X271849Y233513D01*
X271879Y233471D01*
X271936Y233428D01*
X271988Y233378D01*
X272050Y233343D01*
X272076Y233324D01*
X272099Y233317D01*
X272135Y233297D01*
X272743Y233045D01*
X275745Y230043D01*
X277369Y226122D01*
X277369Y221878D01*
X275745Y217957D01*
X272743Y214955D01*
X268822Y213331D01*
X264578Y213331D01*
X263567Y213750D01*
X263453Y213777D01*
X263340Y213805D01*
X263333Y213805D01*
X263327Y213806D01*
X263211Y213795D01*
X263094Y213786D01*
X263089Y213784D01*
X263082Y213783D01*
X262975Y213735D01*
X262868Y213690D01*
X262862Y213685D01*
X262858Y213683D01*
X262844Y213670D01*
X262737Y213585D01*
X238402Y189250D01*
X235622Y188098D01*
X219545Y188098D01*
X219480Y188088D01*
X219415Y188087D01*
X219335Y188064D01*
X219302Y188059D01*
X219285Y188049D01*
X219254Y188040D01*
X218713Y187816D01*
X215591Y187816D01*
X212707Y189011D01*
X210500Y191218D01*
X209305Y194102D01*
X209305Y197224D01*
X210500Y200108D01*
X212707Y202315D01*
X215591Y203510D01*
X218713Y203510D01*
X219254Y203286D01*
X219317Y203271D01*
X219378Y203246D01*
X219461Y203237D01*
X219493Y203230D01*
X219512Y203231D01*
X219545Y203228D01*
X230668Y203228D01*
X230758Y203242D01*
X230849Y203250D01*
X230879Y203262D01*
X230911Y203267D01*
X230992Y203310D01*
X231076Y203346D01*
X231108Y203372D01*
X231128Y203383D01*
X231151Y203406D01*
X231207Y203451D01*
X255872Y228116D01*
X257447Y229691D01*
X257485Y229744D01*
X257531Y229791D01*
X257571Y229864D01*
X257590Y229891D01*
X257596Y229909D01*
X257612Y229938D01*
X257656Y230043D01*
X260657Y233045D01*
X261265Y233297D01*
X261326Y233334D01*
X261392Y233364D01*
X261430Y233399D01*
X261475Y233426D01*
X261520Y233482D01*
X261573Y233530D01*
X261598Y233576D01*
X261631Y233616D01*
X261657Y233683D01*
X261692Y233746D01*
X261701Y233797D01*
X261720Y233845D01*
X261723Y233917D01*
X261735Y233988D01*
X261728Y234039D01*
X261730Y234091D01*
X261710Y234160D01*
X261700Y234231D01*
X261676Y234277D01*
X261661Y234327D01*
X261621Y234386D01*
X261588Y234450D01*
X261551Y234487D01*
X261521Y234529D01*
X261464Y234572D01*
X261412Y234622D01*
X261350Y234657D01*
X261324Y234676D01*
X261301Y234684D01*
X261265Y234703D01*
X260657Y234955D01*
X257655Y237957D01*
X256031Y241878D01*
X256031Y246122D01*
X257655Y250043D01*
X260657Y253045D01*
X261265Y253297D01*
X261326Y253334D01*
X261392Y253364D01*
X261430Y253399D01*
X261475Y253426D01*
X261520Y253482D01*
X261573Y253530D01*
X261598Y253576D01*
X261631Y253616D01*
X261657Y253683D01*
X261692Y253746D01*
X261701Y253797D01*
X261720Y253845D01*
X261723Y253917D01*
X261735Y253988D01*
X261728Y254039D01*
X261730Y254091D01*
X261710Y254160D01*
X261700Y254231D01*
X261676Y254277D01*
X261661Y254327D01*
X261621Y254386D01*
X261588Y254450D01*
X261551Y254487D01*
X261521Y254529D01*
X261464Y254572D01*
X261412Y254622D01*
X261350Y254657D01*
X261324Y254676D01*
X261301Y254684D01*
X261265Y254703D01*
X260657Y254955D01*
X257655Y257957D01*
X256031Y261878D01*
X256031Y266122D01*
X257655Y270043D01*
X260657Y273045D01*
X261265Y273297D01*
X261326Y273334D01*
X261392Y273364D01*
X261430Y273399D01*
X261475Y273426D01*
X261520Y273482D01*
X261573Y273530D01*
X261598Y273576D01*
X261631Y273616D01*
X261657Y273683D01*
X261692Y273746D01*
X261701Y273797D01*
X261720Y273845D01*
X261723Y273917D01*
X261735Y273988D01*
X261728Y274039D01*
X261730Y274091D01*
X261710Y274160D01*
X261700Y274231D01*
X261676Y274277D01*
X261661Y274327D01*
X261621Y274386D01*
X261588Y274450D01*
X261551Y274487D01*
X261521Y274529D01*
X261464Y274572D01*
X261412Y274622D01*
X261350Y274657D01*
X261324Y274676D01*
X261301Y274684D01*
X261265Y274703D01*
X260657Y274955D01*
X257655Y277957D01*
X256031Y281878D01*
X256031Y286122D01*
X257655Y290043D01*
X260657Y293045D01*
X261265Y293297D01*
X261326Y293335D01*
X261392Y293364D01*
X261430Y293399D01*
X261475Y293426D01*
X261520Y293482D01*
X261573Y293530D01*
X261598Y293576D01*
X261631Y293616D01*
X261657Y293683D01*
X261692Y293746D01*
X261701Y293797D01*
X261720Y293845D01*
X261723Y293917D01*
X261735Y293988D01*
X261728Y294039D01*
X261730Y294091D01*
X261710Y294160D01*
X261699Y294231D01*
X261676Y294277D01*
X261661Y294327D01*
X261620Y294386D01*
X261588Y294450D01*
X261551Y294487D01*
X261521Y294529D01*
X261464Y294572D01*
X261412Y294622D01*
X261350Y294657D01*
X261324Y294676D01*
X261302Y294683D01*
X261265Y294703D01*
X261079Y294781D01*
X260990Y294801D01*
X260903Y294830D01*
X260871Y294829D01*
X260840Y294837D01*
X260749Y294828D01*
X260658Y294827D01*
X260618Y294816D01*
X260595Y294814D01*
X260565Y294800D01*
X260496Y294781D01*
X258975Y294150D01*
X258226Y294150D01*
X258136Y294136D01*
X258045Y294128D01*
X258016Y294116D01*
X257984Y294111D01*
X257903Y294068D01*
X257819Y294032D01*
X257787Y294006D01*
X257766Y293995D01*
X257744Y293972D01*
X257688Y293927D01*
X254608Y290847D01*
X254555Y290773D01*
X254519Y290732D01*
X254516Y290729D01*
X254516Y290728D01*
X254495Y290704D01*
X254483Y290673D01*
X254464Y290647D01*
X254437Y290560D01*
X254432Y290547D01*
X254413Y290506D01*
X254412Y290497D01*
X254403Y290475D01*
X254399Y290434D01*
X254392Y290412D01*
X254393Y290380D01*
X254385Y290309D01*
X254385Y274857D01*
X253538Y272812D01*
X251865Y271139D01*
X55978Y75253D01*
X55911Y75159D01*
X55840Y75064D01*
X55838Y75058D01*
X55835Y75053D01*
X55801Y74942D01*
X55764Y74830D01*
X55764Y74824D01*
X55762Y74818D01*
X55765Y74701D01*
X55766Y74584D01*
X55769Y74577D01*
X55769Y74572D01*
X55775Y74554D01*
X55813Y74423D01*
X56480Y72814D01*
X56480Y69662D01*
X56483Y69642D01*
X56481Y69623D01*
X56503Y69521D01*
X56519Y69419D01*
X56529Y69402D01*
X56533Y69382D01*
X56586Y69293D01*
X56635Y69202D01*
X56649Y69188D01*
X56659Y69171D01*
X56738Y69104D01*
X56813Y69032D01*
X56831Y69024D01*
X56846Y69011D01*
X56942Y68972D01*
X57036Y68929D01*
X57056Y68927D01*
X57074Y68919D01*
X57241Y68901D01*
X61847Y68901D01*
X61937Y68915D01*
X62028Y68923D01*
X62057Y68935D01*
X62089Y68940D01*
X62170Y68983D01*
X62254Y69019D01*
X62286Y69045D01*
X62307Y69056D01*
X62329Y69079D01*
X62385Y69124D01*
X83541Y90280D01*
X83594Y90354D01*
X83654Y90423D01*
X83666Y90454D01*
X83685Y90480D01*
X83712Y90567D01*
X83746Y90652D01*
X83750Y90693D01*
X83757Y90715D01*
X83756Y90747D01*
X83764Y90818D01*
X83764Y92041D01*
X84959Y94925D01*
X87166Y97132D01*
X90050Y98327D01*
X93172Y98327D01*
X96056Y97132D01*
X98263Y94925D01*
X99458Y92041D01*
X99458Y88919D01*
X98263Y86035D01*
X96056Y83828D01*
X93172Y82633D01*
X91949Y82633D01*
X91859Y82619D01*
X91768Y82611D01*
X91739Y82599D01*
X91707Y82594D01*
X91626Y82551D01*
X91542Y82515D01*
X91510Y82489D01*
X91489Y82478D01*
X91467Y82455D01*
X91411Y82410D01*
X67619Y58618D01*
X65574Y57771D01*
X59503Y57771D01*
X59483Y57768D01*
X59464Y57770D01*
X59362Y57748D01*
X59260Y57732D01*
X59243Y57722D01*
X59223Y57718D01*
X59134Y57665D01*
X59043Y57616D01*
X59029Y57602D01*
X59012Y57592D01*
X58945Y57513D01*
X58873Y57438D01*
X58865Y57420D01*
X58852Y57405D01*
X58813Y57309D01*
X58770Y57215D01*
X58768Y57195D01*
X58760Y57177D01*
X58742Y57010D01*
X58742Y53858D01*
X57547Y50974D01*
X55959Y49386D01*
X55917Y49328D01*
X55868Y49276D01*
X55846Y49229D01*
X55816Y49187D01*
X55795Y49118D01*
X55764Y49053D01*
X55759Y49001D01*
X55743Y48951D01*
X55745Y48880D01*
X55737Y48809D01*
X55748Y48758D01*
X55750Y48706D01*
X55774Y48638D01*
X55790Y48568D01*
X55816Y48523D01*
X55834Y48475D01*
X55879Y48419D01*
X55916Y48357D01*
X55955Y48323D01*
X55988Y48283D01*
X56048Y48244D01*
X56103Y48197D01*
X56151Y48178D01*
X56195Y48150D01*
X56264Y48132D01*
X56331Y48105D01*
X56402Y48097D01*
X56433Y48089D01*
X56457Y48091D01*
X56497Y48087D01*
X57456Y48087D01*
X60340Y46892D01*
X62547Y44685D01*
X63742Y41801D01*
X63742Y38679D01*
X62547Y35795D01*
X60340Y33588D01*
X57456Y32393D01*
X54334Y32393D01*
G37*
%LPD*%
%LPC*%
G36*
X73876Y343595D02*
X73876Y343595D01*
X69581Y345374D01*
X66294Y348661D01*
X64515Y352956D01*
X64515Y372844D01*
X66294Y377139D01*
X69581Y380426D01*
X71563Y381247D01*
X71624Y381285D01*
X71689Y381314D01*
X71728Y381349D01*
X71772Y381376D01*
X71818Y381432D01*
X71870Y381480D01*
X71896Y381526D01*
X71929Y381566D01*
X71954Y381633D01*
X71989Y381696D01*
X71998Y381747D01*
X72017Y381795D01*
X72020Y381867D01*
X72033Y381938D01*
X72025Y381989D01*
X72027Y382041D01*
X72007Y382110D01*
X71997Y382181D01*
X71973Y382227D01*
X71959Y382277D01*
X71918Y382336D01*
X71885Y382400D01*
X71848Y382437D01*
X71819Y382479D01*
X71761Y382522D01*
X71710Y382572D01*
X71647Y382607D01*
X71621Y382626D01*
X71599Y382633D01*
X71563Y382653D01*
X69581Y383474D01*
X66294Y386761D01*
X64515Y391056D01*
X64515Y410944D01*
X66294Y415239D01*
X69581Y418526D01*
X73876Y420305D01*
X78524Y420305D01*
X82819Y418526D01*
X86106Y415239D01*
X87885Y410944D01*
X87885Y391056D01*
X86106Y386761D01*
X82819Y383474D01*
X80837Y382653D01*
X80776Y382615D01*
X80711Y382586D01*
X80672Y382551D01*
X80628Y382524D01*
X80582Y382468D01*
X80530Y382420D01*
X80504Y382374D01*
X80471Y382334D01*
X80446Y382267D01*
X80411Y382204D01*
X80402Y382153D01*
X80383Y382105D01*
X80380Y382033D01*
X80367Y381962D01*
X80375Y381911D01*
X80373Y381859D01*
X80393Y381790D01*
X80403Y381719D01*
X80427Y381673D01*
X80441Y381623D01*
X80482Y381564D01*
X80515Y381500D01*
X80552Y381463D01*
X80581Y381421D01*
X80639Y381378D01*
X80690Y381328D01*
X80753Y381293D01*
X80779Y381274D01*
X80801Y381267D01*
X80837Y381247D01*
X82819Y380426D01*
X86106Y377139D01*
X87885Y372844D01*
X87885Y352956D01*
X86106Y348661D01*
X82819Y345374D01*
X78524Y343595D01*
X73876Y343595D01*
G37*
%LPD*%
%LPC*%
G36*
X207674Y24952D02*
X207674Y24952D01*
X204790Y26147D01*
X202583Y28354D01*
X201388Y31238D01*
X201388Y34360D01*
X202583Y37244D01*
X204790Y39451D01*
X207674Y40646D01*
X210796Y40646D01*
X213680Y39451D01*
X214544Y38587D01*
X214618Y38534D01*
X214688Y38474D01*
X214718Y38462D01*
X214744Y38443D01*
X214831Y38416D01*
X214916Y38382D01*
X214957Y38378D01*
X214979Y38371D01*
X215011Y38372D01*
X215083Y38364D01*
X251855Y38364D01*
X251945Y38378D01*
X252036Y38386D01*
X252065Y38398D01*
X252097Y38403D01*
X252178Y38446D01*
X252262Y38482D01*
X252294Y38508D01*
X252315Y38519D01*
X252337Y38542D01*
X252393Y38587D01*
X258196Y44390D01*
X258208Y44406D01*
X258223Y44419D01*
X258280Y44506D01*
X258340Y44590D01*
X258346Y44609D01*
X258356Y44626D01*
X258382Y44726D01*
X258412Y44825D01*
X258412Y44845D01*
X258416Y44864D01*
X258408Y44967D01*
X258406Y45071D01*
X258399Y45089D01*
X258397Y45109D01*
X258357Y45204D01*
X258321Y45302D01*
X258309Y45317D01*
X258301Y45336D01*
X258196Y45467D01*
X258110Y45553D01*
X256495Y49451D01*
X256495Y66749D01*
X258110Y70647D01*
X261093Y73630D01*
X264991Y75245D01*
X269209Y75245D01*
X273107Y73630D01*
X276090Y70647D01*
X277705Y66749D01*
X277705Y49451D01*
X276090Y45553D01*
X273107Y42570D01*
X271554Y41927D01*
X271498Y41892D01*
X271438Y41866D01*
X271373Y41814D01*
X271345Y41797D01*
X271333Y41782D01*
X271307Y41761D01*
X259300Y29754D01*
X257627Y28081D01*
X255582Y27234D01*
X215083Y27234D01*
X214992Y27220D01*
X214902Y27212D01*
X214872Y27200D01*
X214840Y27195D01*
X214759Y27152D01*
X214675Y27116D01*
X214643Y27090D01*
X214622Y27079D01*
X214600Y27056D01*
X214544Y27011D01*
X213680Y26147D01*
X210796Y24952D01*
X207674Y24952D01*
G37*
%LPD*%
G36*
X47152Y82387D02*
X47152Y82387D01*
X47223Y82393D01*
X47271Y82413D01*
X47322Y82424D01*
X47383Y82461D01*
X47449Y82489D01*
X47505Y82534D01*
X47533Y82550D01*
X47548Y82568D01*
X47580Y82594D01*
X98366Y133380D01*
X98408Y133438D01*
X98457Y133490D01*
X98479Y133537D01*
X98510Y133579D01*
X98531Y133648D01*
X98561Y133713D01*
X98567Y133765D01*
X98582Y133815D01*
X98580Y133886D01*
X98588Y133957D01*
X98577Y134008D01*
X98576Y134060D01*
X98551Y134128D01*
X98536Y134198D01*
X98509Y134242D01*
X98491Y134291D01*
X98446Y134347D01*
X98410Y134409D01*
X98370Y134443D01*
X98337Y134483D01*
X98277Y134522D01*
X98223Y134569D01*
X98174Y134588D01*
X98130Y134616D01*
X98061Y134634D01*
X97994Y134661D01*
X97923Y134669D01*
X97892Y134677D01*
X97869Y134675D01*
X97828Y134679D01*
X69184Y134679D01*
X69093Y134665D01*
X69003Y134657D01*
X68973Y134645D01*
X68941Y134640D01*
X68860Y134597D01*
X68776Y134561D01*
X68744Y134535D01*
X68723Y134524D01*
X68701Y134501D01*
X68645Y134456D01*
X67781Y133592D01*
X64897Y132397D01*
X61775Y132397D01*
X58891Y133592D01*
X57171Y135312D01*
X57155Y135324D01*
X57143Y135339D01*
X57055Y135395D01*
X56971Y135455D01*
X56952Y135461D01*
X56936Y135472D01*
X56835Y135497D01*
X56736Y135528D01*
X56716Y135527D01*
X56697Y135532D01*
X56594Y135524D01*
X56490Y135521D01*
X56472Y135515D01*
X56452Y135513D01*
X56357Y135473D01*
X56259Y135437D01*
X56244Y135424D01*
X56226Y135417D01*
X56095Y135312D01*
X46504Y125721D01*
X46451Y125647D01*
X46391Y125578D01*
X46379Y125547D01*
X46360Y125521D01*
X46333Y125434D01*
X46299Y125349D01*
X46295Y125308D01*
X46288Y125286D01*
X46289Y125254D01*
X46281Y125183D01*
X46281Y83132D01*
X46292Y83062D01*
X46294Y82990D01*
X46312Y82941D01*
X46320Y82890D01*
X46354Y82826D01*
X46379Y82759D01*
X46411Y82718D01*
X46436Y82672D01*
X46487Y82623D01*
X46532Y82567D01*
X46576Y82539D01*
X46614Y82503D01*
X46679Y82473D01*
X46739Y82434D01*
X46790Y82421D01*
X46837Y82399D01*
X46908Y82391D01*
X46978Y82374D01*
X47030Y82378D01*
X47081Y82372D01*
X47152Y82387D01*
G37*
%LPC*%
G36*
X164991Y91755D02*
X164991Y91755D01*
X161093Y93370D01*
X158110Y96353D01*
X156495Y100251D01*
X156495Y117549D01*
X158110Y121447D01*
X161093Y124430D01*
X164991Y126045D01*
X169209Y126045D01*
X173107Y124430D01*
X176090Y121447D01*
X177705Y117549D01*
X177705Y100251D01*
X176090Y96353D01*
X173107Y93370D01*
X169209Y91755D01*
X164991Y91755D01*
G37*
%LPD*%
%LPC*%
G36*
X189991Y40955D02*
X189991Y40955D01*
X186093Y42570D01*
X183110Y45553D01*
X181495Y49451D01*
X181495Y66749D01*
X183110Y70647D01*
X186093Y73630D01*
X189991Y75245D01*
X194209Y75245D01*
X198107Y73630D01*
X201090Y70647D01*
X202705Y66749D01*
X202705Y49451D01*
X201090Y45553D01*
X198107Y42570D01*
X194209Y40955D01*
X189991Y40955D01*
G37*
%LPD*%
%LPC*%
G36*
X189991Y91755D02*
X189991Y91755D01*
X186093Y93370D01*
X183110Y96353D01*
X181495Y100251D01*
X181495Y117549D01*
X183110Y121447D01*
X186093Y124430D01*
X189991Y126045D01*
X194209Y126045D01*
X198107Y124430D01*
X201090Y121447D01*
X202705Y117549D01*
X202705Y100251D01*
X201090Y96353D01*
X198107Y93370D01*
X194209Y91755D01*
X189991Y91755D01*
G37*
%LPD*%
%LPC*%
G36*
X214991Y91755D02*
X214991Y91755D01*
X211093Y93370D01*
X208110Y96353D01*
X206495Y100251D01*
X206495Y117549D01*
X208110Y121447D01*
X211093Y124430D01*
X214991Y126045D01*
X219209Y126045D01*
X223107Y124430D01*
X226090Y121447D01*
X227705Y117549D01*
X227705Y100251D01*
X226090Y96353D01*
X223107Y93370D01*
X219209Y91755D01*
X214991Y91755D01*
G37*
%LPD*%
%LPC*%
G36*
X239991Y91755D02*
X239991Y91755D01*
X236093Y93370D01*
X233110Y96353D01*
X231495Y100251D01*
X231495Y117549D01*
X233110Y121447D01*
X236093Y124430D01*
X239991Y126045D01*
X244209Y126045D01*
X248107Y124430D01*
X251090Y121447D01*
X252705Y117549D01*
X252705Y100251D01*
X251090Y96353D01*
X248107Y93370D01*
X244209Y91755D01*
X239991Y91755D01*
G37*
%LPD*%
%LPC*%
G36*
X264991Y91755D02*
X264991Y91755D01*
X261093Y93370D01*
X258110Y96353D01*
X256495Y100251D01*
X256495Y117549D01*
X258110Y121447D01*
X261093Y124430D01*
X264991Y126045D01*
X269209Y126045D01*
X273107Y124430D01*
X276090Y121447D01*
X277705Y117549D01*
X277705Y100251D01*
X276090Y96353D01*
X273107Y93370D01*
X269209Y91755D01*
X264991Y91755D01*
G37*
%LPD*%
%LPC*%
G36*
X214991Y40955D02*
X214991Y40955D01*
X211093Y42570D01*
X208110Y45553D01*
X206495Y49451D01*
X206495Y66749D01*
X208110Y70647D01*
X211093Y73630D01*
X214991Y75245D01*
X219209Y75245D01*
X223107Y73630D01*
X226090Y70647D01*
X227705Y66749D01*
X227705Y49451D01*
X226090Y45553D01*
X223107Y42570D01*
X219209Y40955D01*
X214991Y40955D01*
G37*
%LPD*%
%LPC*%
G36*
X239991Y40955D02*
X239991Y40955D01*
X236093Y42570D01*
X233110Y45553D01*
X231495Y49451D01*
X231495Y66749D01*
X233110Y70647D01*
X236093Y73630D01*
X239991Y75245D01*
X244209Y75245D01*
X248107Y73630D01*
X251090Y70647D01*
X252705Y66749D01*
X252705Y49451D01*
X251090Y45553D01*
X248107Y42570D01*
X244209Y40955D01*
X239991Y40955D01*
G37*
%LPD*%
%LPC*%
G36*
X164991Y142555D02*
X164991Y142555D01*
X161093Y144170D01*
X158110Y147153D01*
X156495Y151051D01*
X156495Y168349D01*
X158110Y172247D01*
X161093Y175230D01*
X164991Y176845D01*
X169209Y176845D01*
X173107Y175230D01*
X176090Y172247D01*
X177705Y168349D01*
X177705Y151051D01*
X176090Y147153D01*
X173107Y144170D01*
X169209Y142555D01*
X164991Y142555D01*
G37*
%LPD*%
%LPC*%
G36*
X239991Y142555D02*
X239991Y142555D01*
X236093Y144170D01*
X233110Y147153D01*
X231495Y151051D01*
X231495Y168349D01*
X233110Y172247D01*
X236093Y175230D01*
X239991Y176845D01*
X244209Y176845D01*
X248107Y175230D01*
X251090Y172247D01*
X252705Y168349D01*
X252705Y151051D01*
X251090Y147153D01*
X248107Y144170D01*
X244209Y142555D01*
X239991Y142555D01*
G37*
%LPD*%
%LPC*%
G36*
X264991Y142555D02*
X264991Y142555D01*
X261093Y144170D01*
X258110Y147153D01*
X256495Y151051D01*
X256495Y168349D01*
X258110Y172247D01*
X261093Y175230D01*
X264991Y176845D01*
X269209Y176845D01*
X273107Y175230D01*
X276090Y172247D01*
X277705Y168349D01*
X277705Y151051D01*
X276090Y147153D01*
X273107Y144170D01*
X269209Y142555D01*
X264991Y142555D01*
G37*
%LPD*%
%LPC*%
G36*
X189991Y142555D02*
X189991Y142555D01*
X186093Y144170D01*
X183110Y147153D01*
X181495Y151051D01*
X181495Y168349D01*
X183110Y172247D01*
X186093Y175230D01*
X189991Y176845D01*
X194209Y176845D01*
X198107Y175230D01*
X201090Y172247D01*
X202705Y168349D01*
X202705Y151051D01*
X201090Y147153D01*
X198107Y144170D01*
X194209Y142555D01*
X189991Y142555D01*
G37*
%LPD*%
%LPC*%
G36*
X164991Y40955D02*
X164991Y40955D01*
X161093Y42570D01*
X158110Y45553D01*
X156495Y49451D01*
X156495Y66749D01*
X158110Y70647D01*
X161093Y73630D01*
X164991Y75245D01*
X169209Y75245D01*
X173107Y73630D01*
X176090Y70647D01*
X177705Y66749D01*
X177705Y49451D01*
X176090Y45553D01*
X173107Y42570D01*
X169209Y40955D01*
X164991Y40955D01*
G37*
%LPD*%
%LPC*%
G36*
X214991Y142555D02*
X214991Y142555D01*
X211093Y144170D01*
X208110Y147153D01*
X206495Y151051D01*
X206495Y168349D01*
X208110Y172247D01*
X211093Y175230D01*
X214991Y176845D01*
X219209Y176845D01*
X223107Y175230D01*
X226090Y172247D01*
X227705Y168349D01*
X227705Y151051D01*
X226090Y147153D01*
X223107Y144170D01*
X219209Y142555D01*
X214991Y142555D01*
G37*
%LPD*%
%LPC*%
G36*
X52323Y402523D02*
X52323Y402523D01*
X52323Y418666D01*
X53179Y418531D01*
X54700Y418036D01*
X56125Y417310D01*
X57419Y416370D01*
X58550Y415239D01*
X59490Y413945D01*
X60216Y412520D01*
X60711Y410999D01*
X60961Y409420D01*
X60961Y402523D01*
X52323Y402523D01*
G37*
%LPD*%
%LPC*%
G36*
X52323Y364423D02*
X52323Y364423D01*
X52323Y380566D01*
X53179Y380431D01*
X54700Y379936D01*
X56125Y379210D01*
X57419Y378270D01*
X58550Y377139D01*
X59490Y375845D01*
X60216Y374420D01*
X60711Y372899D01*
X60961Y371320D01*
X60961Y364423D01*
X52323Y364423D01*
G37*
%LPD*%
%LPC*%
G36*
X52323Y361377D02*
X52323Y361377D01*
X60961Y361377D01*
X60961Y354480D01*
X60711Y352901D01*
X60216Y351380D01*
X59490Y349955D01*
X58550Y348661D01*
X57419Y347530D01*
X56125Y346590D01*
X54700Y345864D01*
X53179Y345369D01*
X52323Y345234D01*
X52323Y361377D01*
G37*
%LPD*%
%LPC*%
G36*
X52323Y399477D02*
X52323Y399477D01*
X60961Y399477D01*
X60961Y392580D01*
X60711Y391001D01*
X60216Y389480D01*
X59490Y388055D01*
X58550Y386761D01*
X57419Y385630D01*
X56125Y384690D01*
X54700Y383964D01*
X53179Y383469D01*
X52323Y383334D01*
X52323Y399477D01*
G37*
%LPD*%
%LPC*%
G36*
X40639Y402523D02*
X40639Y402523D01*
X40639Y409420D01*
X40889Y410999D01*
X41384Y412520D01*
X42110Y413945D01*
X43050Y415239D01*
X44181Y416370D01*
X45475Y417310D01*
X46900Y418036D01*
X48421Y418531D01*
X49277Y418666D01*
X49277Y402523D01*
X40639Y402523D01*
G37*
%LPD*%
%LPC*%
G36*
X40639Y364423D02*
X40639Y364423D01*
X40639Y371320D01*
X40889Y372899D01*
X41384Y374420D01*
X42110Y375845D01*
X43050Y377139D01*
X44181Y378270D01*
X45475Y379210D01*
X46900Y379936D01*
X48421Y380431D01*
X49277Y380566D01*
X49277Y364423D01*
X40639Y364423D01*
G37*
%LPD*%
%LPC*%
G36*
X48421Y345369D02*
X48421Y345369D01*
X46900Y345864D01*
X45475Y346590D01*
X44181Y347530D01*
X43050Y348661D01*
X42110Y349955D01*
X41384Y351380D01*
X40889Y352901D01*
X40639Y354480D01*
X40639Y361377D01*
X49277Y361377D01*
X49277Y345234D01*
X48421Y345369D01*
G37*
%LPD*%
%LPC*%
G36*
X48421Y383469D02*
X48421Y383469D01*
X46900Y383964D01*
X45475Y384690D01*
X44181Y385630D01*
X43050Y386761D01*
X42110Y388055D01*
X41384Y389480D01*
X40889Y391001D01*
X40639Y392580D01*
X40639Y399477D01*
X49277Y399477D01*
X49277Y383334D01*
X48421Y383469D01*
G37*
%LPD*%
%LPC*%
G36*
X293623Y59623D02*
X293623Y59623D01*
X293623Y73596D01*
X294749Y73372D01*
X296401Y72687D01*
X297889Y71693D01*
X299153Y70429D01*
X300147Y68941D01*
X300832Y67289D01*
X301181Y65534D01*
X301181Y59623D01*
X293623Y59623D01*
G37*
%LPD*%
%LPC*%
G36*
X293623Y161223D02*
X293623Y161223D01*
X293623Y175196D01*
X294749Y174972D01*
X296401Y174287D01*
X297889Y173293D01*
X299153Y172029D01*
X300147Y170541D01*
X300832Y168889D01*
X301181Y167134D01*
X301181Y161223D01*
X293623Y161223D01*
G37*
%LPD*%
%LPC*%
G36*
X293623Y110423D02*
X293623Y110423D01*
X293623Y124396D01*
X294749Y124172D01*
X296401Y123487D01*
X297889Y122493D01*
X299153Y121229D01*
X300147Y119741D01*
X300832Y118089D01*
X301181Y116334D01*
X301181Y110423D01*
X293623Y110423D01*
G37*
%LPD*%
%LPC*%
G36*
X293623Y56577D02*
X293623Y56577D01*
X301181Y56577D01*
X301181Y50666D01*
X300832Y48911D01*
X300147Y47259D01*
X299153Y45771D01*
X297889Y44507D01*
X296401Y43513D01*
X294749Y42828D01*
X293623Y42604D01*
X293623Y56577D01*
G37*
%LPD*%
%LPC*%
G36*
X293623Y107377D02*
X293623Y107377D01*
X301181Y107377D01*
X301181Y101466D01*
X300832Y99711D01*
X300147Y98059D01*
X299153Y96571D01*
X297889Y95307D01*
X296401Y94313D01*
X294749Y93628D01*
X293623Y93404D01*
X293623Y107377D01*
G37*
%LPD*%
%LPC*%
G36*
X293623Y158177D02*
X293623Y158177D01*
X301181Y158177D01*
X301181Y152266D01*
X300832Y150511D01*
X300147Y148859D01*
X299153Y147371D01*
X297889Y146107D01*
X296401Y145113D01*
X294749Y144428D01*
X293623Y144204D01*
X293623Y158177D01*
G37*
%LPD*%
%LPC*%
G36*
X283019Y161223D02*
X283019Y161223D01*
X283019Y167134D01*
X283368Y168889D01*
X284053Y170541D01*
X285047Y172029D01*
X286311Y173293D01*
X287799Y174287D01*
X289451Y174972D01*
X290577Y175196D01*
X290577Y161223D01*
X283019Y161223D01*
G37*
%LPD*%
%LPC*%
G36*
X283019Y59623D02*
X283019Y59623D01*
X283019Y65534D01*
X283368Y67289D01*
X284053Y68941D01*
X285047Y70429D01*
X286311Y71693D01*
X287799Y72687D01*
X289451Y73372D01*
X290577Y73596D01*
X290577Y59623D01*
X283019Y59623D01*
G37*
%LPD*%
%LPC*%
G36*
X283019Y110423D02*
X283019Y110423D01*
X283019Y116334D01*
X283368Y118089D01*
X284053Y119741D01*
X285047Y121229D01*
X286311Y122493D01*
X287799Y123487D01*
X289451Y124172D01*
X290577Y124396D01*
X290577Y110423D01*
X283019Y110423D01*
G37*
%LPD*%
%LPC*%
G36*
X289451Y42828D02*
X289451Y42828D01*
X287799Y43513D01*
X286311Y44507D01*
X285047Y45771D01*
X284053Y47259D01*
X283368Y48911D01*
X283019Y50666D01*
X283019Y56577D01*
X290577Y56577D01*
X290577Y42604D01*
X289451Y42828D01*
G37*
%LPD*%
%LPC*%
G36*
X289451Y93628D02*
X289451Y93628D01*
X287799Y94313D01*
X286311Y95307D01*
X285047Y96571D01*
X284053Y98059D01*
X283368Y99711D01*
X283019Y101466D01*
X283019Y107377D01*
X290577Y107377D01*
X290577Y93404D01*
X289451Y93628D01*
G37*
%LPD*%
%LPC*%
G36*
X289451Y144428D02*
X289451Y144428D01*
X287799Y145113D01*
X286311Y146107D01*
X285047Y147371D01*
X284053Y148859D01*
X283368Y150511D01*
X283019Y152266D01*
X283019Y158177D01*
X290577Y158177D01*
X290577Y144204D01*
X289451Y144428D01*
G37*
%LPD*%
%LPC*%
G36*
X268223Y325523D02*
X268223Y325523D01*
X268223Y333145D01*
X273638Y333145D01*
X274285Y332972D01*
X274864Y332637D01*
X275337Y332164D01*
X275672Y331585D01*
X275845Y330938D01*
X275845Y325523D01*
X268223Y325523D01*
G37*
%LPD*%
%LPC*%
G36*
X65023Y325523D02*
X65023Y325523D01*
X65023Y333145D01*
X70438Y333145D01*
X71085Y332972D01*
X71664Y332637D01*
X72137Y332164D01*
X72472Y331585D01*
X72645Y330938D01*
X72645Y325523D01*
X65023Y325523D01*
G37*
%LPD*%
%LPC*%
G36*
X54355Y325523D02*
X54355Y325523D01*
X54355Y330938D01*
X54528Y331585D01*
X54863Y332164D01*
X55336Y332637D01*
X55915Y332972D01*
X56562Y333145D01*
X61977Y333145D01*
X61977Y325523D01*
X54355Y325523D01*
G37*
%LPD*%
%LPC*%
G36*
X257555Y325523D02*
X257555Y325523D01*
X257555Y330938D01*
X257728Y331585D01*
X258063Y332164D01*
X258536Y332637D01*
X259115Y332972D01*
X259762Y333145D01*
X265177Y333145D01*
X265177Y325523D01*
X257555Y325523D01*
G37*
%LPD*%
%LPC*%
G36*
X292099Y108899D02*
X292099Y108899D01*
X292099Y108901D01*
X292101Y108901D01*
X292101Y108899D01*
X292099Y108899D01*
G37*
%LPD*%
%LPC*%
G36*
X292099Y159699D02*
X292099Y159699D01*
X292099Y159701D01*
X292101Y159701D01*
X292101Y159699D01*
X292099Y159699D01*
G37*
%LPD*%
%LPC*%
G36*
X292099Y58099D02*
X292099Y58099D01*
X292099Y58101D01*
X292101Y58101D01*
X292101Y58099D01*
X292099Y58099D01*
G37*
%LPD*%
%LPC*%
G36*
X50799Y362899D02*
X50799Y362899D01*
X50799Y362901D01*
X50801Y362901D01*
X50801Y362899D01*
X50799Y362899D01*
G37*
%LPD*%
%LPC*%
G36*
X50799Y400999D02*
X50799Y400999D01*
X50799Y401001D01*
X50801Y401001D01*
X50801Y400999D01*
X50799Y400999D01*
G37*
%LPD*%
D10*
X266700Y324000D03*
D11*
X266700Y304000D03*
X266700Y284000D03*
X266700Y264000D03*
X266700Y244000D03*
X266700Y224000D03*
D10*
X63500Y324000D03*
D11*
X63500Y304000D03*
X63500Y284000D03*
X63500Y264000D03*
X63500Y244000D03*
X63500Y224000D03*
D12*
X292100Y166240D02*
X292100Y153160D01*
X267100Y153160D02*
X267100Y166240D01*
X242100Y166240D02*
X242100Y153160D01*
X217100Y153160D02*
X217100Y166240D01*
X192100Y166240D02*
X192100Y153160D01*
X167100Y153160D02*
X167100Y166240D01*
X292100Y64640D02*
X292100Y51560D01*
X267100Y51560D02*
X267100Y64640D01*
X242100Y64640D02*
X242100Y51560D01*
X217100Y51560D02*
X217100Y64640D01*
X192100Y64640D02*
X192100Y51560D01*
X167100Y51560D02*
X167100Y64640D01*
X292100Y102360D02*
X292100Y115440D01*
X267100Y115440D02*
X267100Y102360D01*
X242100Y102360D02*
X242100Y115440D01*
X217100Y115440D02*
X217100Y102360D01*
X192100Y102360D02*
X192100Y115440D01*
X167100Y115440D02*
X167100Y102360D01*
D13*
X101600Y393380D02*
X101600Y408620D01*
X76200Y408620D02*
X76200Y393380D01*
X50800Y393380D02*
X50800Y408620D01*
X101600Y370520D02*
X101600Y355280D01*
X76200Y355280D02*
X76200Y370520D01*
X50800Y370520D02*
X50800Y355280D01*
D14*
X177800Y330200D03*
X165100Y330200D03*
X152400Y330200D03*
X152400Y342900D03*
X165100Y342900D03*
X177800Y342900D03*
X177800Y355600D03*
X165100Y355600D03*
X152400Y355600D03*
X48633Y102921D03*
X104052Y115362D03*
X193401Y394719D03*
D15*
X178698Y195663D02*
X66729Y83694D01*
D14*
X178698Y195663D03*
X66729Y83694D03*
D16*
X100659Y354003D02*
X100659Y361920D01*
X100659Y354003D02*
X92742Y346086D01*
X92742Y343824D01*
X81432Y332514D01*
X81432Y275964D01*
X68991Y263523D01*
X64467Y263523D01*
X100659Y361920D02*
X101600Y362900D01*
X63500Y264000D02*
X64467Y263523D01*
X266916Y57681D02*
X266916Y45240D01*
X254475Y32799D01*
X209235Y32799D01*
X266916Y57681D02*
X267100Y58100D01*
D14*
X209235Y32799D03*
D16*
X171912Y299715D02*
X206973Y334776D01*
X171912Y299715D02*
X154471Y299715D01*
X132327Y277571D01*
X91611Y90480D02*
X64467Y63336D01*
X46371Y63336D01*
X40716Y68991D01*
X40716Y127803D01*
X95004Y182091D01*
D14*
X206973Y334776D03*
X132327Y277571D03*
X91611Y90480D03*
X95004Y182091D03*
D16*
X66729Y206973D02*
X65598Y205842D01*
X55419Y205842D01*
X33930Y227331D01*
D14*
X66729Y206973D03*
X33930Y227331D03*
D16*
X128934Y181615D02*
X197925Y250606D01*
D14*
X128934Y181615D03*
X197925Y255606D03*
D16*
X197925Y250606D01*
X200187Y295191D02*
X268047Y363051D01*
X200187Y295191D02*
X165126Y295191D01*
X132327Y262392D01*
D14*
X268047Y363051D03*
X132327Y262392D03*
D16*
X48633Y75777D02*
X48633Y71253D01*
X48633Y75777D02*
X248820Y275964D01*
X248820Y292929D01*
X255606Y299715D01*
X257868Y299715D01*
X261261Y303108D01*
X265785Y303108D01*
X266700Y304000D01*
D14*
X48633Y71253D03*
D15*
X217152Y195663D02*
X234117Y195663D01*
X262392Y223938D01*
X265785Y223938D01*
X266700Y224000D01*
D14*
X217152Y195663D03*
D16*
X55895Y40240D02*
X26013Y70122D01*
X26013Y272571D01*
X54288Y300846D01*
X57681Y300846D01*
X59943Y303108D01*
X63336Y303108D01*
X63500Y304000D01*
D14*
X55895Y40240D03*
D16*
X50895Y55419D02*
X47502Y58812D01*
X44109Y58812D01*
X36192Y66729D01*
X36192Y135720D01*
X48633Y148161D01*
D14*
X50895Y55419D03*
X48633Y148161D03*
D15*
X163995Y253344D02*
X197925Y287274D01*
X163995Y253344D02*
X81432Y253344D01*
X71253Y243165D01*
X67860Y243165D01*
X66729Y244296D01*
X64467Y244296D01*
X63500Y244000D01*
D14*
X197925Y287274D03*
D16*
X122148Y194532D02*
X90480Y162864D01*
D14*
X90480Y162864D03*
X122148Y194532D03*
D16*
X102921Y140244D02*
X63336Y140244D01*
X102921Y140244D02*
X197925Y235248D01*
D14*
X63336Y140244D03*
X197925Y235248D03*
M02*
