G04 EAGLE Gerber X2 export*
%TF.Part,Single*%
%TF.FileFunction,Paste,Top*%
%TF.FilePolarity,Positive*%
%TF.GenerationSoftware,Autodesk,EAGLE,9.1.0*%
%TF.CreationDate,2018-11-28T00:36:44Z*%
G75*
%MOMM*%
%FSLAX34Y34*%
%LPD*%
%AMOC8*
5,1,8,0,0,1.08239X$1,22.5*%
G01*
%ADD10R,0.600000X2.200000*%
%ADD11R,1.981200X0.558800*%
%ADD12R,0.800000X0.800000*%
%ADD13R,1.000000X1.100000*%


D10*
X120650Y215300D03*
X196850Y307300D03*
X107950Y215300D03*
X133350Y215300D03*
X146050Y215300D03*
X184150Y307300D03*
X209550Y307300D03*
X222250Y307300D03*
X171450Y215300D03*
X209550Y215300D03*
X158750Y215300D03*
X184150Y215300D03*
X222250Y215300D03*
X196850Y215300D03*
X171450Y307300D03*
X158750Y307300D03*
X146050Y307300D03*
X133350Y307300D03*
X120650Y307300D03*
X107950Y307300D03*
D11*
X123190Y51750D03*
X123190Y64450D03*
X123190Y77150D03*
X123190Y89850D03*
X123190Y102550D03*
X123190Y115250D03*
X123190Y127950D03*
X123190Y140650D03*
X123190Y153350D03*
X123190Y166050D03*
X29210Y166050D03*
X29210Y153350D03*
X29210Y140650D03*
X29210Y127950D03*
X29210Y115250D03*
X29210Y102550D03*
X29210Y89850D03*
X29210Y77150D03*
X29210Y64450D03*
X29210Y51750D03*
D12*
X246500Y401000D03*
X261500Y401000D03*
X246500Y375600D03*
X261500Y375600D03*
D13*
X207400Y401000D03*
X224400Y401000D03*
X207400Y375600D03*
X224400Y375600D03*
D12*
X246500Y350200D03*
X261500Y350200D03*
D13*
X207400Y350200D03*
X224400Y350200D03*
M02*
